<svg width="24" height="25" viewBox="0 0 24 25" fill="none" xmlns="http://www.w3.org/2000/svg">
<path d="M14.381 9.56237C14.9767 9.35427 15.6178 9.24104 16.2857 9.24104C16.9404 9.24104 17.5693 9.34984 18.1551 9.55013M7.11616 12.144C6.8475 12.0919 6.56983 12.0646 6.28571 12.0646C3.91878 12.0646 2 13.9608 2 16.2999C2 18.639 3.91878 20.5352 6.28571 20.5352H16.2857C19.4416 20.5352 22 18.0069 22 14.8881C22 12.4163 20.393 10.3154 18.1551 9.55013M7.11616 12.144C6.88706 11.533 6.7619 10.872 6.7619 10.1822C6.7619 7.06343 9.32028 4.53516 12.4762 4.53516C15.4159 4.53516 17.8371 6.72887 18.1551 9.55013M7.11616 12.144C7.68059 12.2535 8.20528 12.4726 8.66667 12.7778" stroke="#0047BD" stroke-width="1.5" stroke-linecap="round"/>
</svg>
