<svg width="24" height="25" viewBox="0 0 24 25" fill="none" xmlns="http://www.w3.org/2000/svg">
<path d="M7.58584 5.75812C8.01093 5.47409 8.45993 5.23248 8.92638 5.03527C10.0583 4.55671 10.6243 4.31742 11.3463 4.79609C12.0684 5.27476 12.0684 6.05841 12.0684 7.62571V9.23939C12.0684 10.7608 12.0684 11.5215 12.541 11.9941C13.0137 12.4668 13.7744 12.4668 15.2958 12.4668H16.9094C18.4767 12.4668 19.2604 12.4668 19.7391 13.1888C20.2177 13.9109 19.9784 14.4769 19.4999 15.6088C19.3027 16.0752 19.0611 16.5242 18.777 16.9493C17.8905 18.2762 16.6304 19.3103 15.156 19.921C13.6817 20.5317 12.0595 20.6914 10.4943 20.3801C8.92922 20.0688 7.49157 19.3004 6.36318 18.172C5.2348 17.0436 4.46636 15.6059 4.15504 14.0408C3.84371 12.4757 4.0035 10.8534 4.61417 9.37911C5.22485 7.9048 6.259 6.64469 7.58584 5.75812Z" stroke="#383536" stroke-width="1.5"/>
<path d="M14.085 4.65234C16.9202 5.38209 19.1523 7.6142 19.8821 10.4495" stroke="#383536" stroke-width="1.5" stroke-linecap="round"/>
</svg>
