<svg width="24" height="24" viewBox="0 0 24 24" fill="none" xmlns="http://www.w3.org/2000/svg">
<rect width="24" height="24" fill=""/>
<path d="M11.8909 11.5423C14.2025 11.5423 16.0764 9.6684 16.0764 7.35679C16.0764 5.04519 14.2025 3.17126 11.8909 3.17126C9.57931 3.17126 7.70538 5.04519 7.70538 7.35679C7.70538 9.6684 9.57931 11.5423 11.8909 11.5423Z" fill="#383536"/>
<path d="M4.02071 19.8047C4.00259 20.3702 6.95082 20.6928 7.30123 20.7448C9.21758 21.0251 11.1641 21.0444 13.095 20.9477C13.8997 20.9079 19.4458 20.8922 19.5376 19.8047C19.5376 19.8047 20.1067 13.0068 13.3234 12.4377C6.54 11.8686 4.19592 15.0549 4.02071 19.8047Z" fill="#383536"/>
</svg>
