<svg width="24" height="25" viewBox="0 0 24 25" fill="none" xmlns="http://www.w3.org/2000/svg">
<path d="M9.84152 18.684L9.38288 19.2775L9.84152 18.684ZM12.5 7.18026L11.9648 7.70568C12.1058 7.84933 12.2987 7.93026 12.5 7.93026C12.7013 7.93026 12.8942 7.84933 13.0352 7.70568L12.5 7.18026ZM15.1585 18.684L15.6171 19.2775L15.6171 19.2775L15.1585 18.684ZM12.5 20.0352L12.5 19.2852L12.5 20.0352ZM10.3001 18.0906C9.03399 17.112 7.55997 15.8321 6.40933 14.4344C5.24169 13.0161 4.5 11.5882 4.5 10.2997H3C3 12.119 4.01681 13.8883 5.25129 15.3878C6.50279 16.908 8.07452 18.2663 9.38288 19.2775L10.3001 18.0906ZM4.5 10.2997C4.5 7.93596 5.57792 6.48887 6.91055 5.9919C8.2522 5.49157 10.1398 5.84681 11.9648 7.70568L13.0352 6.65483C10.9228 4.50318 8.43544 3.82233 6.38643 4.58645C4.3284 5.35393 3 7.47184 3 10.2997H4.5ZM15.6171 19.2775C16.9255 18.2663 18.4972 16.908 19.7487 15.3878C20.9832 13.8884 22 12.119 22 10.2997H20.5C20.5 11.5882 19.7583 13.0162 18.5907 14.4345C17.44 15.8321 15.966 17.1121 14.6999 18.0906L15.6171 19.2775ZM22 10.2997C22 7.47182 20.6716 5.35392 18.6136 4.58644C16.5646 3.82233 14.0772 4.50318 11.9648 6.65483L13.0352 7.70568C14.8602 5.84681 16.7478 5.49157 18.0894 5.9919C19.4221 6.48886 20.5 7.93595 20.5 10.2997H22ZM9.38288 19.2775C10.4926 20.1351 11.2854 20.7852 12.5 20.7852L12.5 19.2852C11.8941 19.2852 11.5214 19.0345 10.3001 18.0906L9.38288 19.2775ZM14.6999 18.0906C13.4786 19.0345 13.1059 19.2852 12.5 19.2852L12.5 20.7852C13.7146 20.7852 14.5074 20.1351 15.6171 19.2775L14.6999 18.0906Z" fill="#0047BD"/>
<path d="M18.1875 10.0351H16.4375M16.4375 10.0351L14.6875 10.0351M16.4375 10.0351L16.4375 8.36847M16.4375 10.0351L16.4375 11.7018" stroke="#0047BD" stroke-width="1.5" stroke-linecap="round"/>
</svg>
