<svg width="24" height="26" viewBox="0 0 24 26" fill="none" xmlns="http://www.w3.org/2000/svg">
<path d="M15.0672 15.6909C17.9756 15.6909 20.3333 13.3428 20.3333 10.4464C20.3333 7.5499 17.9756 5.20184 15.0672 5.20184C12.1589 5.20184 9.80121 7.5499 9.80121 10.4464C9.80121 11.788 10.4135 12.7637 10.4135 12.7637L4.0453 19.1059C3.75954 19.3905 3.35949 20.1305 4.0453 20.8135L4.78009 21.5453C5.06584 21.7892 5.78429 22.1307 6.37212 21.5453L7.22939 20.6915C8.08665 21.5453 9.06638 21.0574 9.43378 20.5695C10.0461 19.7158 9.31131 18.862 9.31131 18.862L9.55624 18.6181C10.7319 19.789 11.7606 19.1059 12.128 18.6181C12.7404 17.7643 12.128 16.9106 12.128 16.9106C11.8831 16.4227 11.3933 16.4227 12.0056 15.8129L12.7404 15.0811C13.3282 15.5689 14.5366 15.6909 15.0672 15.6909Z" stroke="#0047BD" stroke-width="1.5" stroke-linejoin="round"/>
<path d="M16.9042 10.4464C16.9042 11.4568 16.0818 12.2759 15.0672 12.2759C14.0527 12.2759 13.2302 11.4568 13.2302 10.4464C13.2302 9.43603 14.0527 8.61694 15.0672 8.61694C16.0818 8.61694 16.9042 9.43603 16.9042 10.4464Z" stroke="#0047BD" stroke-width="1.5"/>
</svg>
