<svg width="24" height="25" viewBox="0 0 24 25" fill="none" xmlns="http://www.w3.org/2000/svg">
<circle cx="12" cy="12.5352" r="3" stroke="#383536" stroke-width="1.5"/>
<path d="M13.7654 2.6874C13.3978 2.53516 12.9319 2.53516 12 2.53516C11.0681 2.53516 10.6022 2.53516 10.2346 2.6874C9.74457 2.89039 9.35522 3.27973 9.15223 3.76979C9.05957 3.9935 9.0233 4.25366 9.00911 4.63315C8.98826 5.19084 8.70226 5.70705 8.21894 5.98609C7.73564 6.26512 7.14559 6.2547 6.65219 5.99391C6.31645 5.81646 6.07301 5.71778 5.83294 5.68617C5.30704 5.61694 4.77518 5.75945 4.35436 6.08236C4.03874 6.32454 3.80577 6.72805 3.33983 7.53509C2.87389 8.34212 2.64092 8.74564 2.58899 9.14006C2.51976 9.66596 2.66227 10.1978 2.98518 10.6186C3.13256 10.8107 3.3397 10.9722 3.66119 11.1742C4.1338 11.4711 4.43789 11.977 4.43786 12.5352C4.43783 13.0933 4.13375 13.5991 3.66118 13.896C3.33965 14.098 3.13248 14.2595 2.98508 14.4516C2.66217 14.8724 2.51966 15.4043 2.5889 15.9302C2.64082 16.3246 2.87379 16.7281 3.33973 17.5352C3.80568 18.3422 4.03865 18.7457 4.35426 18.9879C4.77508 19.3108 5.30694 19.4533 5.83284 19.3841C6.07289 19.3525 6.31632 19.2538 6.65204 19.0764C7.14547 18.8156 7.73556 18.8051 8.2189 19.0842C8.70224 19.3632 8.98826 19.8795 9.00911 20.4372C9.02331 20.8167 9.05957 21.0768 9.15223 21.3005C9.35522 21.7906 9.74457 22.1799 10.2346 22.3829C10.6022 22.5352 11.0681 22.5352 12 22.5352C12.9319 22.5352 13.3978 22.5352 13.7654 22.3829C14.2554 22.1799 14.6448 21.7906 14.8477 21.3005C14.9404 21.0768 14.9767 20.8166 14.9909 20.4371C15.0117 19.8795 15.2977 19.3632 15.781 19.0842C16.2643 18.8051 16.8544 18.8155 17.3479 19.0763C17.6836 19.2537 17.927 19.3524 18.167 19.384C18.6929 19.4532 19.2248 19.3107 19.6456 18.9878C19.9612 18.7456 20.1942 18.3421 20.6601 17.5351C21.1261 16.7281 21.3591 16.3245 21.411 15.9301C21.4802 15.4042 21.3377 14.8724 21.0148 14.4515C20.8674 14.2594 20.6602 14.098 20.3387 13.896C19.8662 13.599 19.5621 13.0932 19.5621 12.5351C19.5621 11.977 19.8662 11.4712 20.3387 11.1743C20.6603 10.9723 20.8675 10.8108 21.0149 10.6187C21.3378 10.1979 21.4803 9.66602 21.4111 9.14013C21.3592 8.74571 21.1262 8.34219 20.6602 7.53516C20.1943 6.72812 19.9613 6.3246 19.6457 6.08242C19.2249 5.75952 18.693 5.61701 18.1671 5.68624C17.9271 5.71784 17.6837 5.81651 17.3479 5.99395C16.8545 6.25475 16.2644 6.26517 15.7811 5.98612C15.2977 5.70706 15.0117 5.19082 14.9909 4.63309C14.9767 4.25363 14.9404 3.99349 14.8477 3.76979C14.6448 3.27973 14.2554 2.89039 13.7654 2.6874Z" stroke="#383536" stroke-width="1.5"/>
</svg>
