<svg width="24" height="25" viewBox="0 0 24 25" fill="none" xmlns="http://www.w3.org/2000/svg">
<path d="M4.91663 11.7018V14.2018C4.91663 17.3445 4.91663 18.9159 5.89294 19.8922C6.86925 20.8685 8.4406 20.8685 11.5833 20.8685H12.4166C15.5593 20.8685 17.1307 20.8685 18.107 19.8922C19.0833 18.9159 19.0833 17.3445 19.0833 14.2018V11.7018" stroke="#383536" stroke-width="1.5"/>
<path d="M9.9167 4.20184H14.0834L14.6265 9.63298C14.7819 11.1868 13.5616 12.5352 12 12.5352C10.4384 12.5352 9.2182 11.1868 9.37359 9.63298L9.9167 4.20184Z" stroke="#383536" stroke-width="1.5"/>
<path d="M4.77484 6.99461C4.92323 6.25262 4.99743 5.88162 5.1483 5.58087C5.46619 4.94717 6.0382 4.47824 6.72194 4.2908C7.04643 4.20184 7.42478 4.20184 8.18147 4.20184H9.91672L9.31295 10.2396C9.18263 11.5428 8.08602 12.5352 6.77633 12.5352C5.16762 12.5352 3.96107 11.0634 4.27657 9.48595L4.77484 6.99461Z" stroke="#383536" stroke-width="1.5"/>
<path d="M19.2253 6.99461C19.0769 6.25262 19.0027 5.88162 18.8518 5.58087C18.5339 4.94717 17.9619 4.47824 17.2782 4.2908C16.9537 4.20184 16.5753 4.20184 15.8186 4.20184H14.0834L14.6871 10.2396C14.8175 11.5428 15.9141 12.5352 17.2238 12.5352C18.8325 12.5352 20.039 11.0634 19.7235 9.48595L19.2253 6.99461Z" stroke="#383536" stroke-width="1.5"/>
<path d="M9.91663 20.4518V17.9518C9.91663 17.173 9.91663 16.7835 10.0841 16.4935C10.1938 16.3034 10.3516 16.1456 10.5416 16.0359C10.8317 15.8685 11.2211 15.8685 12 15.8685C12.7788 15.8685 13.1682 15.8685 13.4583 16.0359C13.6483 16.1456 13.8061 16.3034 13.9158 16.4935C14.0833 16.7835 14.0833 17.173 14.0833 17.9518V20.4518" stroke="#383536" stroke-width="1.5" stroke-linecap="round"/>
</svg>
