<svg width="370" height="368" viewBox="0 0 370 368" fill="none" xmlns="http://www.w3.org/2000/svg">
<g clip-path="url(#clip0_157_516)">
<path d="M244.054 97.4969H183.325C181.995 97.5009 180.682 97.2018 179.486 96.6223C178.289 96.0429 177.241 95.1983 176.42 94.1529C175.585 93.0976 175.001 91.8658 174.714 90.5511C174.427 89.2364 174.444 87.8735 174.763 86.5663C180.36 63.1367 180.36 38.7194 174.762 15.2899C174.443 13.9827 174.427 12.6199 174.714 11.3053C175.001 9.99073 175.585 8.75894 176.42 7.70367C177.241 6.65821 178.289 5.8136 179.486 5.23413C180.682 4.65465 181.995 4.35557 183.325 4.35966H244.054C246.151 4.36568 248.177 5.11533 249.773 6.47508C251.368 7.83482 252.429 9.71639 252.766 11.7846C256.762 37.7275 256.762 64.129 252.766 90.0719C252.429 92.1402 251.368 94.0217 249.773 95.3815C248.177 96.7412 246.151 97.4909 244.054 97.4969Z" fill="#E6E6E6"/>
<path d="M183.325 8.92629C182.686 8.92415 182.056 9.06757 181.481 9.34565C180.906 9.62373 180.403 10.0291 180.009 10.531C179.603 11.0453 179.319 11.6453 179.18 12.2854C179.041 12.9255 179.05 13.5889 179.206 14.2251C184.971 38.3547 184.971 63.5016 179.206 87.6313C179.05 88.2673 179.041 88.9306 179.18 89.5706C179.319 90.2106 179.602 90.8105 180.008 91.3246C180.403 91.8266 180.906 92.2325 181.481 92.5107C182.056 92.7888 182.686 92.9323 183.325 92.9301H244.054C245.061 92.9304 246.035 92.5736 246.804 91.9231C247.572 91.2726 248.084 90.3707 248.249 89.378C252.175 63.8949 252.175 37.9615 248.249 12.4784C248.084 11.4857 247.572 10.5838 246.804 9.9333C246.035 9.2828 245.061 8.92594 244.054 8.92628L183.325 8.92629Z" fill="white"/>
<path d="M230.802 30.8851H198.934C197.722 30.8838 196.561 30.4023 195.704 29.5462C194.847 28.6901 194.366 27.5293 194.364 26.3186V24.5341C194.366 23.3233 194.847 22.1626 195.704 21.3065C196.561 20.4504 197.722 19.9689 198.934 19.9675H230.802C232.013 19.9689 233.175 20.4504 234.031 21.3065C234.888 22.1626 235.37 23.3233 235.371 24.5341V26.3186C235.37 27.5293 234.888 28.6901 234.031 29.5462C233.175 30.4023 232.013 30.8838 230.802 30.8851Z" fill="#E6E6E6"/>
<path d="M230.802 53.4339H198.934C197.722 53.4326 196.561 52.9511 195.704 52.095C194.847 51.2389 194.366 50.0781 194.364 48.8674V47.0829C194.366 45.8722 194.847 44.7114 195.704 43.8553C196.561 42.9992 197.722 42.5177 198.934 42.5164H230.802C232.013 42.5177 233.175 42.9992 234.031 43.8553C234.888 44.7114 235.37 45.8722 235.371 47.0829V48.8674C235.37 50.0781 234.888 51.2389 234.031 52.095C233.175 52.9511 232.013 53.4326 230.802 53.4339Z" fill="#E6E6E6"/>
<path d="M230.802 75.9825H198.934C197.722 75.9812 196.561 75.4996 195.704 74.6435C194.847 73.7874 194.366 72.6267 194.364 71.416V69.6315C194.366 68.4207 194.847 67.26 195.704 66.4039C196.561 65.5478 197.722 65.0663 198.934 65.0649H230.802C232.013 65.0663 233.175 65.5478 234.031 66.4039C234.888 67.26 235.37 68.4207 235.371 69.6315V71.416C235.37 72.6267 234.888 73.7874 234.031 74.6435C233.175 75.4996 232.013 75.9812 230.802 75.9825Z" fill="#E6E6E6"/>
<path d="M358.291 155.342H297.561C296.232 155.346 294.919 155.047 293.723 154.467C292.526 153.888 291.478 153.043 290.657 151.998C289.822 150.943 289.238 149.711 288.951 148.396C288.664 147.081 288.68 145.718 289 144.411C294.597 120.982 294.597 96.5644 288.999 73.1349C288.68 71.8277 288.664 70.4649 288.951 69.1503C289.238 67.8357 289.822 66.6039 290.657 65.5486C291.478 64.5032 292.526 63.6586 293.723 63.0791C294.919 62.4996 296.232 62.2005 297.561 62.2046H358.291C360.388 62.2107 362.414 62.9603 364.009 64.32C365.605 65.6798 366.665 67.5614 367.002 69.6296C370.999 95.5725 370.999 121.974 367.002 147.917C366.665 149.985 365.605 151.867 364.009 153.226C362.414 154.586 360.388 155.336 358.291 155.342Z" fill="#E6E6E6"/>
<path d="M297.562 66.7713C296.923 66.7691 296.293 66.9125 295.718 67.1906C295.143 67.4687 294.64 67.8741 294.245 68.376C293.839 68.8902 293.556 69.4902 293.417 70.1304C293.278 70.7705 293.287 71.4339 293.443 72.0701C299.207 96.1997 299.208 121.347 293.443 145.476C293.287 146.112 293.278 146.776 293.417 147.416C293.556 148.056 293.839 148.655 294.245 149.17C294.639 149.672 295.143 150.077 295.718 150.356C296.293 150.634 296.923 150.777 297.562 150.775H358.291C359.298 150.775 360.272 150.419 361.041 149.768C361.809 149.118 362.321 148.216 362.486 147.223C366.412 121.74 366.412 95.8065 362.486 70.3234C362.321 69.3307 361.809 68.4288 361.041 67.7783C360.272 67.1278 359.298 66.7709 358.291 66.7712L297.562 66.7713Z" fill="white"/>
<path d="M237.2 221.178H176.471C175.084 221.183 173.714 220.87 172.466 220.266C171.217 219.661 170.124 218.78 169.268 217.689C168.396 216.589 167.788 215.305 167.488 213.934C167.188 212.563 167.206 211.142 167.539 209.778C173.122 186.407 173.122 162.051 167.538 138.68C167.206 137.317 167.188 135.896 167.488 134.525C167.788 133.154 168.396 131.869 169.267 130.769C170.124 129.678 171.217 128.797 172.466 128.193C173.714 127.588 175.084 127.276 176.471 127.28H237.2C239.388 127.287 241.502 128.069 243.166 129.488C244.83 130.907 245.937 132.87 246.288 135.028C250.291 161.009 250.291 187.45 246.288 213.431C245.937 215.589 244.83 217.552 243.166 218.971C241.502 220.39 239.388 221.172 237.2 221.178Z" fill="#F2F2F2"/>
<path d="M345.038 100.147H313.17C311.958 100.145 310.797 99.664 309.94 98.8079C309.084 97.9518 308.602 96.791 308.601 95.5803V93.7958C308.602 92.5851 309.084 91.4243 309.94 90.5682C310.797 89.7121 311.958 89.2306 313.17 89.2292H345.038C346.25 89.2306 347.411 89.7121 348.268 90.5682C349.124 91.4243 349.606 92.5851 349.607 93.7958V95.5804C349.606 96.7911 349.124 97.9518 348.268 98.8079C347.411 99.664 346.25 100.145 345.038 100.147Z" fill="#E6E6E6"/>
<path d="M345.038 122.695H313.17C311.958 122.694 310.797 122.213 309.94 121.356C309.084 120.5 308.602 119.34 308.601 118.129V116.344C308.602 115.134 309.084 113.973 309.94 113.117C310.797 112.261 311.958 111.779 313.17 111.778H345.038C346.25 111.779 347.411 112.261 348.268 113.117C349.124 113.973 349.606 115.134 349.607 116.344V118.129C349.606 119.34 349.124 120.5 348.268 121.356C347.411 122.213 346.25 122.694 345.038 122.695Z" fill="#E6E6E6"/>
<path d="M207.005 191.421C216.679 191.421 224.521 183.583 224.521 173.915C224.521 164.247 216.679 156.409 207.005 156.409C197.331 156.409 189.489 164.247 189.489 173.915C189.489 183.583 197.331 191.421 207.005 191.421Z" fill="white"/>
<path d="M215.383 171.632H209.29V165.543C209.29 164.937 209.049 164.357 208.621 163.928C208.192 163.5 207.611 163.26 207.005 163.26C206.399 163.26 205.818 163.5 205.39 163.928C204.961 164.357 204.721 164.937 204.721 165.543V171.632H198.628C198.022 171.632 197.441 171.872 197.012 172.301C196.584 172.729 196.343 173.31 196.343 173.915C196.343 174.521 196.584 175.102 197.012 175.53C197.441 175.958 198.022 176.199 198.628 176.199H204.721V182.287C204.721 182.893 204.961 183.474 205.39 183.902C205.818 184.33 206.399 184.571 207.005 184.571C207.611 184.571 208.192 184.33 208.621 183.902C209.049 183.474 209.29 182.893 209.29 182.287V176.199H215.383C215.989 176.199 216.57 175.958 216.998 175.53C217.427 175.102 217.667 174.521 217.667 173.915C217.667 173.31 217.427 172.729 216.998 172.301C216.57 171.872 215.989 171.632 215.383 171.632Z" fill="#E6E6E6"/>
<path d="M229.091 12.939H197.105C196.196 12.938 195.325 12.5768 194.683 11.9347C194.04 11.2926 193.679 10.422 193.678 9.51396V3.42503C193.679 2.51697 194.04 1.64639 194.683 1.0043C195.325 0.362201 196.196 0.00102337 197.105 0H229.091C230 0.00102337 230.871 0.362201 231.513 1.0043C232.156 1.64639 232.517 2.51697 232.518 3.42503V9.51396C232.517 10.422 232.156 11.2926 231.513 11.9347C230.871 12.5768 230 12.938 229.091 12.939Z" fill="#CCCCCC"/>
<path d="M344.851 71.5449H312.865C311.956 71.5439 311.085 71.1827 310.442 70.5406C309.8 69.8985 309.439 69.028 309.438 68.1199V62.031C309.439 61.1229 309.8 60.2524 310.442 59.6103C311.085 58.9682 311.956 58.607 312.865 58.606H344.851C345.759 58.607 346.631 58.9682 347.273 59.6103C347.916 60.2524 348.277 61.1229 348.278 62.031V68.1199C348.277 69.028 347.916 69.8985 347.273 70.5406C346.631 71.1827 345.759 71.5439 344.851 71.5449Z" fill="#CCCCCC"/>
<path d="M67.4727 358.532H76.8097L79.7288 322.541H67.4712L67.4727 358.532Z" fill="#FFB8B8"/>
<path d="M65.0913 355.486L83.4787 355.485H83.4794C85.0183 355.485 86.542 355.788 87.9637 356.377C89.3854 356.965 90.6772 357.828 91.7653 358.915C92.8535 360.003 93.7166 361.294 94.3055 362.715C94.8944 364.135 95.1975 365.658 95.1974 367.196V367.577L65.0919 367.578L65.0913 355.486Z" fill="#2F2E41"/>
<path d="M17.2086 358.532H26.5455L30.9878 322.541H17.207L17.2086 358.532Z" fill="#FFB8B8"/>
<path d="M14.8271 355.486L33.2145 355.485H33.2153C34.7541 355.485 36.2779 355.788 37.6996 356.377C39.1213 356.965 40.4131 357.828 41.5012 358.915C42.5893 360.003 43.4524 361.294 44.0413 362.715C44.6302 364.135 44.9333 365.658 44.9333 367.196V367.577L14.8277 367.578L14.8271 355.486Z" fill="#2F2E41"/>
<path d="M18.8651 347.162C17.9126 347.162 16.9951 346.804 16.2947 346.159C15.9188 345.816 15.616 345.401 15.4045 344.938C15.1931 344.476 15.0773 343.975 15.0642 343.467L11.3198 209.348L64.4864 222.631L80.8905 271.813C83.0058 278.14 83.9215 284.805 83.5906 291.468L81.5537 339.142C81.5072 340.118 81.0861 341.04 80.3778 341.714C79.6695 342.389 78.7284 342.765 77.7501 342.764H68.8328C67.9123 342.76 67.0241 342.425 66.331 341.819C65.6379 341.214 65.1864 340.379 65.0593 339.468L58.6857 286.844C58.1288 282.738 56.6918 278.801 54.4729 275.302L41.9301 255.455C41.8462 255.322 41.7234 255.219 41.5785 255.159C41.4336 255.099 41.2736 255.085 41.1204 255.119C40.9672 255.153 40.8284 255.234 40.7228 255.35C40.6172 255.466 40.5501 255.611 40.5306 255.767L30.6875 343.363C30.5818 344.251 30.1659 345.074 29.513 345.686C28.86 346.298 28.0119 346.66 27.118 346.709L19.0818 347.156C19.0095 347.16 18.9374 347.162 18.8651 347.162Z" fill="#2F2E41"/>
<path d="M55.6392 122.515C65.9698 122.515 74.3443 114.145 74.3443 103.821C74.3443 93.4967 65.9698 85.1272 55.6392 85.1272C45.3087 85.1272 36.9341 93.4967 36.9341 103.821C36.9341 114.145 45.3087 122.515 55.6392 122.515Z" fill="#FFB8B8"/>
<path d="M64.2319 228.086C63.91 228.085 63.5894 228.044 63.2777 227.965L10.527 214.447C9.58385 214.206 8.7691 213.613 8.25025 212.789C7.7314 211.966 7.54786 210.975 7.73741 210.021L19.8519 144.8C20.6067 141.03 22.2657 137.5 24.6866 134.512C27.1074 131.523 30.2178 129.167 33.7505 127.645C37.1928 126.122 40.9571 125.47 44.7113 125.746C48.4655 126.021 52.0941 127.216 55.277 129.225C56.0155 129.685 56.7594 130.187 57.4875 130.717C60.4188 132.878 62.8092 135.688 64.4712 138.928C66.1333 142.167 67.0219 145.747 67.0673 149.387L68.0306 224.226C68.0371 224.73 67.9437 225.229 67.7559 225.696C67.568 226.163 67.2895 226.589 66.9363 226.947C66.5831 227.306 66.1622 227.592 65.698 227.787C65.2338 227.982 64.7355 228.084 64.2319 228.086Z" fill="#474BA0"/>
<path d="M15.9544 228.853C15.3252 227.927 14.9066 226.875 14.7282 225.77C14.5498 224.666 14.616 223.536 14.9219 222.459C15.2279 221.383 15.7663 220.387 16.4992 219.541C17.232 218.695 18.1416 218.02 19.1637 217.563L16.8175 190.466L29.251 197.201L29.5728 221.9C30.2265 223.667 30.2089 225.613 29.5234 227.367C28.8379 229.122 27.5321 230.565 25.8534 231.422C24.1748 232.279 22.2399 232.49 20.4155 232.017C18.591 231.543 17.0037 230.418 15.9544 228.853Z" fill="#FFB8B8"/>
<path d="M20.3967 213.98C20.0459 213.979 19.6965 213.935 19.3566 213.848C18.6256 213.662 17.9586 213.282 17.4261 212.747C16.8936 212.213 16.5155 211.545 16.3317 210.814L10.2214 186.547C8.08601 178.071 9.10396 169.109 13.0859 161.327L25.8871 136.3C26.6963 133.304 28.6515 130.746 31.3311 129.177C34.0107 127.608 37.1999 127.154 40.2109 127.914C41.7117 128.293 43.1223 128.966 44.361 129.893C45.5997 130.821 46.6417 131.985 47.4268 133.318C48.2279 134.671 48.7519 136.169 48.9682 137.726C49.1845 139.282 49.0887 140.866 48.6864 142.386L30.4638 183.11L30.6802 207.493C30.6858 208.353 30.427 209.194 29.9388 209.903C29.4506 210.611 28.7565 211.153 27.9504 211.454L21.8522 213.717C21.3865 213.891 20.8936 213.98 20.3967 213.98Z" fill="#474BA0"/>
<path d="M107.624 218.886C106.512 218.759 105.441 218.389 104.487 217.804C103.533 217.218 102.719 216.431 102.102 215.497C101.486 214.563 101.081 213.506 100.918 212.399C100.754 211.292 100.836 210.162 101.156 209.09L79.0757 193.191L92.294 188.167L111.236 204.035C113.002 204.692 114.466 205.975 115.35 207.639C116.233 209.303 116.475 211.233 116.03 213.063C115.585 214.894 114.484 216.498 112.934 217.571C111.385 218.644 109.496 219.112 107.624 218.886Z" fill="#FFB8B8"/>
<path d="M96.0651 207.275C95.414 207.275 94.772 207.123 94.1896 206.833L71.7998 195.631C63.9795 191.719 57.8467 185.102 54.542 177.01L43.9125 150.987C42.1681 148.419 41.5033 145.269 42.0614 142.216C42.6196 139.163 44.3559 136.451 46.8961 134.666C48.1653 133.774 49.5994 133.143 51.1149 132.811C52.6303 132.479 54.1968 132.451 55.723 132.73C57.2672 133.007 58.7409 133.588 60.0588 134.439C61.3766 135.29 62.5124 136.394 63.4004 137.686L82.398 178.056L101.031 193.797C101.687 194.354 102.156 195.099 102.375 195.931C102.594 196.763 102.551 197.642 102.254 198.449L99.9925 204.545C99.6972 205.344 99.1638 206.034 98.4641 206.521C97.7607 207.012 96.9233 207.275 96.0651 207.275Z" fill="#474BA0"/>
<path d="M51.7113 122.801C52.7052 123.236 54.7404 115.321 53.8287 113.738C52.4729 111.384 52.5531 111.401 51.653 109.844C50.753 108.286 50.5516 106.154 51.7171 104.784C52.8826 103.414 55.5798 103.596 56.1117 105.314C55.7696 102.05 58.9996 99.4268 62.199 98.6896C65.3985 97.9524 68.7733 98.4101 71.9904 97.7541C75.724 96.9927 79.6086 93.865 78.1189 89.7618C77.8633 89.0787 77.4806 88.4501 76.991 87.9092C75.2699 85.9752 72.8624 85.1494 70.5084 84.351C65.6115 82.6899 60.5805 81.0079 55.4124 81.1912C51.1541 81.4138 47.0531 82.872 43.6112 85.3876C40.1693 87.9032 37.5358 91.367 36.033 95.3551C35.6768 96.3527 35.4009 97.3773 35.2079 98.4188C33.434 107.951 38.9729 117.354 47.9691 120.984L51.7113 122.801Z" fill="#2F2E41"/>
<path opacity="0.2" d="M29.6255 208.046L30.0497 182.983L43.3339 156.29L32.6718 183.69L29.6255 208.046Z" fill="black"/>
<path d="M150.089 270.944L94.0081 247.658C92.7788 247.152 91.6812 246.372 90.7988 245.378C89.9165 244.384 89.2726 243.202 88.9161 241.922C88.5497 240.627 88.4837 239.266 88.7231 237.942C88.9626 236.617 89.5012 235.365 90.298 234.28C104.462 214.79 113.836 192.242 117.662 168.459C117.869 167.13 118.377 165.865 119.147 164.761C119.917 163.657 120.929 162.743 122.105 162.089C123.264 161.438 124.557 161.061 125.884 160.984C127.212 160.908 128.539 161.135 129.765 161.649L185.846 184.935C187.78 185.745 189.364 187.214 190.315 189.082C191.266 190.949 191.524 193.093 191.041 195.133C184.772 220.623 174.636 245.003 160.985 267.428C159.88 269.209 158.178 270.54 156.183 271.184C154.187 271.828 152.028 271.743 150.089 270.944Z" fill="#E6E6E6"/>
<path d="M128.012 165.866C127.423 165.619 126.786 165.509 126.148 165.546C125.511 165.582 124.89 165.764 124.333 166.076C123.761 166.395 123.269 166.841 122.895 167.378C122.521 167.916 122.274 168.532 122.174 169.18C118.234 193.673 108.58 216.895 93.9927 236.968C93.6043 237.495 93.3414 238.104 93.224 238.748C93.1066 239.393 93.1378 240.055 93.3153 240.686C93.4866 241.301 93.7962 241.869 94.2201 242.346C94.6439 242.823 95.1712 243.197 95.7616 243.44L151.843 266.727C152.773 267.113 153.81 267.157 154.769 266.851C155.728 266.545 156.547 265.909 157.081 265.055C170.49 243.028 180.446 219.079 186.604 194.041C186.833 193.061 186.706 192.032 186.246 191.137C185.786 190.241 185.023 189.538 184.093 189.152L128.012 165.866Z" fill="white"/>
<path d="M157.873 217.703L128.443 205.483C127.325 205.018 126.438 204.128 125.975 203.009C125.513 201.89 125.513 200.633 125.977 199.514L126.662 197.866C127.128 196.749 128.019 195.862 129.139 195.4C130.258 194.937 131.516 194.938 132.635 195.401L162.064 207.621C163.182 208.087 164.07 208.977 164.532 210.096C164.995 211.215 164.994 212.472 164.53 213.591L163.845 215.238C163.379 216.356 162.489 217.243 161.369 217.705C160.249 218.167 158.992 218.167 157.873 217.703Z" fill="#474BA0"/>
<path d="M149.216 238.526L119.787 226.306C118.669 225.841 117.781 224.951 117.318 223.832C116.856 222.713 116.857 221.456 117.32 220.337L118.005 218.689C118.471 217.572 119.362 216.685 120.482 216.223C121.602 215.76 122.859 215.761 123.978 216.224L153.407 228.444C154.526 228.91 155.413 229.8 155.876 230.919C156.338 232.038 156.337 233.295 155.874 234.413L155.189 236.061C154.723 237.179 153.832 238.066 152.712 238.528C151.593 238.99 150.335 238.99 149.216 238.526Z" fill="#474BA0"/>
<path d="M169.665 188.439C169.225 188.439 168.788 188.353 168.38 188.187L138.726 176.205C137.884 175.864 137.212 175.203 136.857 174.367C136.502 173.531 136.494 172.589 136.833 171.746L139.117 166.101C139.458 165.259 140.119 164.587 140.956 164.232C141.793 163.877 142.736 163.869 143.579 164.21L173.233 176.192C174.075 176.533 174.747 177.194 175.102 178.03C175.457 178.866 175.465 179.809 175.126 180.651L172.842 186.296C172.585 186.928 172.146 187.47 171.58 187.851C171.015 188.233 170.348 188.438 169.665 188.439Z" fill="#CCCCCC"/>
<path d="M107.382 368H0.761577C0.559595 368 0.365895 367.92 0.223072 367.777C0.0802484 367.634 0 367.441 0 367.239C0 367.037 0.0802484 366.843 0.223072 366.701C0.365895 366.558 0.559595 366.478 0.761577 366.478H107.382C107.584 366.478 107.778 366.558 107.921 366.701C108.064 366.843 108.144 367.037 108.144 367.239C108.144 367.441 108.064 367.634 107.921 367.777C107.778 367.92 107.584 368 107.382 368Z" fill="#CCCCCC"/>
</g>
<defs>
<clipPath id="clip0_157_516">
<rect width="370" height="368" fill="white"/>
</clipPath>
</defs>
</svg>
