<svg width="203" height="154" viewBox="0 0 203 154" fill="none" xmlns="http://www.w3.org/2000/svg">
<g clip-path="url(#clip0_1722_89499)">
<path d="M135.862 74.1402C145.898 74.1402 154.033 63.4554 154.033 50.2752C154.033 37.0949 145.898 26.4102 135.862 26.4102C125.827 26.4102 117.691 37.0949 117.691 50.2752C117.691 63.4554 125.827 74.1402 135.862 74.1402Z" stroke="#959ACE" stroke-miterlimit="10" stroke-linecap="round" stroke-dasharray="6 8"/>
<path d="M26.259 68.8371C31.3727 68.8371 35.5181 62.8495 35.5181 55.4635C35.5181 48.0774 31.3727 42.0898 26.259 42.0898C21.1454 42.0898 17 48.0774 17 55.4635C17 62.8495 21.1454 68.8371 26.259 68.8371Z" stroke="#959ACE" stroke-miterlimit="10" stroke-linecap="round" stroke-dasharray="6 8"/>
<path style="mix-blend-mode:overlay" d="M113.742 141.405L126.358 152.948L120.742 135.207L113.742 141.405Z" fill="url(#paint0_linear_1722_89499)"/>
<path d="M107.743 143.13C107.581 143.061 107.428 142.964 107.303 142.84L107.743 143.13Z" fill="url(#paint1_linear_1722_89499)"/>
<path d="M51.0273 54.5783L66.726 37.5661L68.4528 35.6938C69.3741 34.6977 70.638 34.1304 71.9388 34.0567H71.9898L85.3089 32.7285L83.758 35.4955L82.3229 38.0549L122.697 56.0078C124.479 56.801 125.651 58.535 125.72 60.4765C126.169 72.5358 126.271 115.677 106.387 137.103C104.6 139.026 102.656 140.774 100.535 142.309L107.744 144.472L93.8087 145.856C93.8087 145.856 93.2393 145.865 92.9522 145.846C58.6429 143.707 36.6573 92.8453 31.588 79.859C31.2037 78.8721 31.1435 77.8161 31.3796 76.8292C31.5741 75.9991 31.9815 75.2151 32.5879 74.5603L51.0273 54.5783" fill="url(#paint2_linear_1722_89499)"/>
<path style="mix-blend-mode:overlay" opacity="0.41" d="M107.744 144.472L93.8089 145.855C93.8089 145.855 93.2394 145.864 92.9524 145.846C73.9945 144.665 58.7958 128.603 48.1387 112.273H62.9439L98.9847 129.258L99.3643 129.438L101.374 131.79L106.137 137.365C104.42 139.187 102.559 140.842 100.536 142.309L107.744 144.472Z" fill="url(#paint3_linear_1722_89499)"/>
<path style="mix-blend-mode:overlay" d="M107.744 144.471L93.8087 145.855C93.8087 145.855 93.2393 145.864 92.9522 145.845C73.9944 144.665 58.7956 128.603 48.1385 112.273C39.5091 99.0562 33.8518 85.6687 31.588 79.8581C31.2037 78.8712 31.1435 77.8152 31.3796 76.8283L48.7126 75.9844L98.9845 129.258L101.373 131.789L106.387 137.102C106.304 137.189 106.22 137.277 106.137 137.365C104.42 139.186 102.558 140.842 100.535 142.308L107.744 144.471V144.471Z" fill="url(#paint4_linear_1722_89499)"/>
<path d="M139.668 70.2214C139.145 91.7299 134.645 131.201 109.534 143.91C108.701 144.33 107.771 144.523 106.84 144.463C94.007 143.661 82.8961 136.047 73.7575 126.146C58.4523 109.577 48.6469 86.6064 45.4757 78.4762C44.7674 76.6592 45.1563 74.607 46.4757 73.1774L82.3406 34.3109C83.8267 32.7015 86.1831 32.2126 88.1923 33.1073L136.585 54.625C138.367 55.4182 139.538 57.1521 139.608 59.0936C139.7 61.6116 139.779 65.4807 139.668 70.2214V70.2214Z" fill="url(#paint5_linear_1722_89499)"/>
<path style="mix-blend-mode:overlay" d="M139.668 70.2207C139.233 88.0307 136.076 118.158 120.743 135.207C118.646 137.541 116.322 139.63 113.743 141.405C112.41 142.328 111.007 143.162 109.535 143.909C108.701 144.329 107.771 144.523 106.84 144.463C94.0073 143.66 82.8965 136.047 73.7578 126.146C86.0492 92.9882 121.28 76.6723 139.668 70.2207V70.2207Z" fill="url(#paint6_linear_1722_89499)"/>
<path d="M184.973 133.229L179.372 139.298L179.358 139.311C179.159 139.593 178.858 139.809 178.492 139.902L127.484 153.082C127.091 153.183 126.692 153.128 126.359 152.948C126.007 152.754 125.729 152.431 125.609 152.016L111.424 103.041C111.271 102.511 111.415 101.971 111.753 101.589H111.758C111.758 101.589 111.767 101.575 111.776 101.566L117.146 95.8195L118.415 99.744L123.026 98.6695L163.451 89.2295C164.247 89.0404 165.053 89.5062 165.284 90.2902L178.469 134.243L184.973 133.229Z" fill="url(#paint7_linear_1722_89499)"/>
<path style="mix-blend-mode:overlay" d="M133.928 144.471L126.359 152.947C126.007 152.753 125.729 152.43 125.609 152.015L111.424 103.04C111.271 102.51 111.415 101.97 111.753 101.587H111.758C111.758 101.587 111.767 101.574 111.776 101.564L117.146 95.8184L118.415 99.7428L123.026 98.6683L133.928 144.471Z" fill="url(#paint8_linear_1722_89499)"/>
<path d="M184.974 133.229C184.873 133.395 184.738 133.542 184.576 133.658C184.423 133.773 184.248 133.856 184.048 133.907L133.04 147.087C132.596 147.202 132.142 147.11 131.786 146.875C131.494 146.676 131.267 146.381 131.165 146.021L116.981 97.0463C116.856 96.6128 116.93 96.1747 117.147 95.8196C117.351 95.4784 117.694 95.2155 118.115 95.1187L169.007 83.2346C169.271 83.17 169.535 83.1792 169.776 83.253C170.271 83.3868 170.688 83.7695 170.84 84.2952L185.146 131.975C185.16 132.021 185.169 132.062 185.173 132.108C185.261 132.505 185.178 132.906 184.974 133.229V133.229Z" fill="url(#paint9_linear_1722_89499)"/>
<path d="M138.238 124.789L164.524 118.167C166.709 117.618 167.876 115.252 166.983 113.191C165.955 110.825 163.696 108.653 158.724 110.438C158.724 110.438 151.886 103.308 142.858 107.943C140.886 108.957 139.233 110.525 138.294 112.527C137.354 114.528 136.826 117.47 138.895 120.542C138.895 120.542 134.747 120.2 135.025 122.677C135.196 124.194 136.747 125.167 138.233 124.794L138.238 124.789Z" stroke="#959ACE" stroke-miterlimit="10" stroke-linecap="round"/>
<path style="mix-blend-mode:overlay" d="M185.171 132.107C181.741 130.53 178.811 128.838 176.311 127.057C171.764 123.82 168.663 120.302 166.63 116.709C165.394 114.528 164.556 112.319 164.028 110.128C162.408 103.368 163.751 96.7501 165.672 91.5897C167.038 87.9235 168.686 84.9859 169.774 83.252C170.269 83.3857 170.686 83.7684 170.838 84.2942L185.144 131.973C185.158 132.02 185.167 132.061 185.171 132.107V132.107Z" fill="url(#paint10_linear_1722_89499)"/>
<path style="mix-blend-mode:overlay" d="M120.743 135.207C118.646 137.54 116.322 139.629 113.743 141.405L111.424 103.041L120.743 135.207Z" fill="url(#paint11_linear_1722_89499)"/>
<path d="M73.7578 72.1289L78.341 75.8412" stroke="#959ACE" stroke-miterlimit="10" stroke-linecap="round"/>
<path d="M77.767 71.373L73.7578 76.9116" stroke="#959ACE" stroke-miterlimit="10" stroke-linecap="round"/>
<path d="M106.627 65.6719L111.21 69.3842" stroke="#959ACE" stroke-miterlimit="10" stroke-linecap="round"/>
<path d="M110.636 64.916L106.627 70.4545" stroke="#959ACE" stroke-miterlimit="10" stroke-linecap="round"/>
<path d="M75.6465 92.4021C77.6927 91.8625 78.8779 96.3173 80.9241 95.7778C82.9704 95.2382 81.7852 90.7788 83.8315 90.2392C85.8777 89.6997 87.0629 94.1545 89.1091 93.6149C91.1554 93.0754 89.9702 88.616 92.0118 88.0764C94.0534 87.5368 95.2432 91.9916 97.2895 91.4521C99.3357 90.9125 98.1506 86.4531 100.197 85.9136C102.243 85.374 103.433 89.8288 105.479 89.2893C107.525 88.7497 106.34 84.2903 108.386 83.7507C110.433 83.2112 111.622 87.666 113.669 87.1264C115.715 86.5869 114.53 82.1274 116.576 81.5879" stroke="#959ACE" stroke-miterlimit="10" stroke-linecap="round"/>
</g>
<defs>
<linearGradient id="paint0_linear_1722_89499" x1="113.742" y1="144.08" x2="126.358" y2="144.08" gradientUnits="userSpaceOnUse">
<stop stop-color="#6B5656"/>
<stop offset="1" stop-color="#353133"/>
</linearGradient>
<linearGradient id="paint1_linear_1722_89499" x1="107.303" y1="142.987" x2="107.743" y2="142.987" gradientUnits="userSpaceOnUse">
<stop stop-color="#D9DDFF"/>
<stop offset="1" stop-color="#959ACE"/>
</linearGradient>
<linearGradient id="paint2_linear_1722_89499" x1="31.2407" y1="89.2943" x2="125.836" y2="89.2943" gradientUnits="userSpaceOnUse">
<stop stop-color="#D9DDFF"/>
<stop offset="1" stop-color="#959ACE"/>
</linearGradient>
<linearGradient id="paint3_linear_1722_89499" x1="103.318" y1="123.148" x2="52.5807" y2="133.675" gradientUnits="userSpaceOnUse">
<stop stop-color="#6B5656"/>
<stop offset="1" stop-color="#353133"/>
</linearGradient>
<linearGradient id="paint4_linear_1722_89499" x1="99.6141" y1="104.461" x2="39.2182" y2="116.991" gradientUnits="userSpaceOnUse">
<stop stop-color="#6B5656"/>
<stop offset="1" stop-color="#353133"/>
</linearGradient>
<linearGradient id="paint5_linear_1722_89499" x1="139.723" y1="88.5709" x2="45.1285" y2="88.5709" gradientUnits="userSpaceOnUse">
<stop stop-color="#EAEBF9"/>
<stop offset="1" stop-color="#D9DDFF"/>
</linearGradient>
<linearGradient id="paint6_linear_1722_89499" x1="139.668" y1="107.349" x2="73.7578" y2="107.349" gradientUnits="userSpaceOnUse">
<stop stop-color="#6B5656"/>
<stop offset="1" stop-color="#353133"/>
</linearGradient>
<linearGradient id="paint7_linear_1722_89499" x1="111.364" y1="121.16" x2="184.973" y2="121.16" gradientUnits="userSpaceOnUse">
<stop stop-color="#D9DDFF"/>
<stop offset="1" stop-color="#959ACE"/>
</linearGradient>
<linearGradient id="paint8_linear_1722_89499" x1="111.364" y1="124.383" x2="133.928" y2="124.383" gradientUnits="userSpaceOnUse">
<stop stop-color="#6B5656"/>
<stop offset="1" stop-color="#353133"/>
</linearGradient>
<linearGradient id="paint9_linear_1722_89499" x1="180.405" y1="109.11" x2="121.995" y2="121.232" gradientUnits="userSpaceOnUse">
<stop stop-color="#EAEBF9"/>
<stop offset="1" stop-color="#D9DDFF"/>
</linearGradient>
<linearGradient id="paint10_linear_1722_89499" x1="163.306" y1="107.68" x2="185.171" y2="107.68" gradientUnits="userSpaceOnUse">
<stop stop-color="#6B5656"/>
<stop offset="1" stop-color="#353133"/>
</linearGradient>
<linearGradient id="paint11_linear_1722_89499" x1="117.826" y1="121.142" x2="109.88" y2="122.791" gradientUnits="userSpaceOnUse">
<stop stop-color="#6B5656"/>
<stop offset="1" stop-color="#353133"/>
</linearGradient>
<clipPath id="clip0_1722_89499">
<rect width="203" height="153" fill="white" transform="translate(0 0.410156)"/>
</clipPath>
</defs>
</svg>
