<svg width="153" height="150" viewBox="0 0 153 150" fill="none" xmlns="http://www.w3.org/2000/svg">
<path d="M152.71 12.1886C152.71 12.1886 152.569 12.2184 152.316 12.278C152.271 12.2855 152.219 12.3004 152.159 12.3153C152.1 12.3302 152.047 12.3376 151.98 12.36C151.921 12.3749 151.854 12.3898 151.787 12.4047C147.495 13.3806 129.623 17.8134 128.17 24.2874C128.148 24.3619 128.14 24.429 128.125 24.496C128.111 24.5631 128.103 24.6376 128.096 24.7046C128.036 25.2187 128.081 25.7402 128.26 26.2691H128.289C128.461 26.2691 129.332 26.3138 130.457 26.6789C130.681 26.7534 130.919 26.8428 131.165 26.9471C131.731 27.1855 132.342 27.5133 132.938 27.9603C133.564 28.4296 134.175 29.0182 134.726 29.7781C136.41 32.1099 137.483 35.9914 136.395 42.4431C134.592 53.2307 115.84 60.4199 103.57 64.0108C97.4538 65.7988 92.954 66.6854 92.954 66.6854L90.2422 53.2232C90.2422 53.2232 95.2858 51.9716 101.745 49.9527C102.073 49.8484 102.408 49.7441 102.743 49.6323C108.524 47.7996 115.252 45.4007 120.444 42.7709C120.467 42.7634 120.489 42.7485 120.504 42.7411C124.073 40.9307 126.904 39.0161 128.215 37.094C128.237 37.0716 128.252 37.0567 128.26 37.0493C128.274 36.9822 128.386 36.4905 127.261 36.0063C126.442 35.6561 124.967 35.2911 122.322 35.0974C121.785 35.0601 121.204 35.0303 120.571 35.008C120.325 35.0005 120.072 34.9931 119.811 34.9856C119.498 34.9782 119.171 34.9707 118.835 34.9633C118.478 34.9633 118.105 34.9558 117.725 34.9558C115.87 34.9558 114.313 32.8847 113.859 31.0967L112.056 23.8926C112.056 23.8926 112.048 23.8702 112.048 23.8479L111.974 23.5648C111.974 23.5648 111.974 23.5424 111.959 23.5052C111.802 22.5814 110.529 10.7582 149.619 0.410156L141.856 10.1026L152.718 12.1886H152.71Z" fill="url(#paint0_linear_1722_89527)"/>
<path opacity="0.16" d="M132.944 27.9607C131.752 34.0026 127.267 36.0067 127.267 36.0067C126.448 35.6565 124.973 35.2915 122.328 35.0978C129.093 34.9637 126.143 27.5882 126.143 27.5882C126.143 27.5882 127.096 26.9102 128.296 26.2695C128.467 26.2695 129.339 26.3142 130.464 26.6793C130.687 26.7538 130.925 26.8432 131.171 26.9475C131.737 27.1859 132.348 27.5137 132.944 27.9607V27.9607Z" fill="black"/>
<path style="mix-blend-mode:overlay" d="M129.301 26.3878C129.182 26.4027 126.53 26.9913 123.304 27.036C121.822 27.0583 120.138 26.3431 118.663 26.5219C114.535 27.036 112.062 23.8846 112.062 23.8846C112.062 23.8697 112.055 23.8623 112.055 23.8399L111.98 23.5568C111.98 23.5568 111.98 23.5345 111.965 23.4972C111.898 23.0949 111.622 20.6886 114.439 17.2467L115.675 15.8759L115.698 15.8535C115.698 15.8535 116.398 24.4061 128.109 24.6892C128.05 25.2033 128.094 25.7248 128.273 26.2537H128.303C128.407 26.2537 128.78 26.2761 129.301 26.3729V26.3878Z" fill="url(#paint1_linear_1722_89527)"/>
<path style="mix-blend-mode:overlay" d="M152.709 12.189C152.709 12.189 152.568 12.2188 152.314 12.2784C152.27 12.2858 152.218 12.3007 152.158 12.3156C152.098 12.3305 152.046 12.338 151.979 12.3603C151.92 12.3752 151.852 12.3901 151.785 12.405C147.546 13.4257 130.136 17.9776 128.243 24.0643C128.236 24.0866 128.221 24.1239 128.221 24.1462C128.169 24.3325 128.132 24.5187 128.102 24.7124C128.042 25.2265 128.087 25.748 128.266 26.2769H128.296C128.4 26.2769 128.772 26.2993 129.294 26.3961C129.622 26.4557 130.024 26.5451 130.456 26.6867C130.68 26.7612 130.918 26.8506 131.164 26.9549C131.73 27.1933 132.341 27.5211 132.937 27.9681C133.816 30.8438 128.489 36.8038 128.266 37.0496C128.266 37.0496 128.266 36.5877 127.171 36.1035C127.2 36.0811 127.238 36.0439 127.267 36.0141C126.448 35.6639 124.973 35.2989 122.328 35.1052C121.792 35.0679 121.211 35.0381 120.577 35.0158C120.332 35.0083 120.078 35.0009 119.817 34.9934C119.505 34.986 119.177 34.9785 118.842 34.9711C118.484 34.9711 118.111 34.9636 117.731 34.9636C115.876 34.9636 114.319 32.8925 113.865 31.1045L113.239 28.5939L112.062 23.9004C112.062 23.9004 112.055 23.878 112.055 23.8557L111.98 23.5726C111.98 23.5726 111.98 23.5502 111.965 23.513C111.898 23.1107 111.622 20.7043 114.439 17.2624C114.796 16.8229 115.206 16.361 115.675 15.8916L115.698 15.8693C120.093 11.4514 129.517 5.73727 149.625 0.417969L141.862 10.1104L152.724 12.1964L152.709 12.189Z" fill="url(#paint2_linear_1722_89527)"/>
<path d="M134.731 29.7778L122.789 47.0096L102.152 52.6418L102.756 49.6395L103.18 47.5237C103.18 47.5237 119.094 44.0445 127.169 36.0954C127.199 36.073 127.236 36.0358 127.266 36.006C129.322 33.9647 130.85 31.6328 131.468 28.9881C131.528 28.7199 131.394 28.4368 131.148 28.2952C130.604 27.9898 129.464 27.5502 127.43 27.5502C127.095 27.5502 126.655 27.5651 126.149 27.5875C122.096 27.7439 113.35 28.2058 112.061 23.8922C112.061 23.8773 112.053 23.8699 112.053 23.8476L111.979 23.5645C113.67 27.6992 128.279 26.2688 128.302 26.2688C128.473 26.2688 129.345 26.3135 130.47 26.6786C130.693 26.7531 130.932 26.8425 131.178 26.9468C131.744 27.1852 132.355 27.513 132.951 27.96C133.576 28.4293 134.187 29.0179 134.739 29.7778H134.731Z" fill="url(#paint3_linear_1722_89527)"/>
<path d="M136.402 42.4441C134.599 53.2317 115.847 60.4209 103.577 64.0118L101.752 49.9612C102.08 49.8569 102.415 49.7302 102.75 49.6408C121.234 44.9622 128.259 37.0503 128.267 37.0503C128.49 36.797 133.824 30.8444 132.938 27.9688C133.563 28.4381 134.174 29.0267 134.726 29.7866C136.409 32.1184 137.482 35.9999 136.394 42.4516L136.402 42.4441Z" fill="url(#paint4_linear_1722_89527)"/>
<path d="M25.3151 99.3157C24.734 100.947 25.2257 102.028 25.2555 102.109H29.0476C29.6734 102.214 30.2991 102.393 30.843 102.698C30.9324 102.75 31.0293 102.802 31.1187 102.862C31.1485 102.877 31.1783 102.899 31.2006 102.922C31.2751 102.966 31.3421 103.018 31.4017 103.071C31.4613 103.108 31.5135 103.152 31.5582 103.205C31.5805 103.227 31.6029 103.249 31.6253 103.272C31.6625 103.309 31.6997 103.339 31.7221 103.376C31.7593 103.406 31.7817 103.436 31.8115 103.465C31.8488 103.503 31.8785 103.54 31.9083 103.57C31.9307 103.592 31.9531 103.629 31.968 103.659C32.0276 103.748 32.0946 103.83 32.1542 103.935C32.2213 104.039 32.2957 104.136 32.3628 104.24C32.5043 104.456 32.6608 104.68 32.8247 104.918C32.9812 105.157 33.1525 105.402 33.3164 105.663C33.4877 105.916 33.6591 106.185 33.8453 106.468C34.6425 107.712 35.5142 109.127 36.3113 110.588C36.4156 110.759 36.505 110.938 36.6019 111.109C36.6913 111.28 36.7806 111.459 36.8626 111.631C37.0861 112.055 37.3021 112.487 37.4958 112.905C37.6523 113.24 37.8087 113.568 37.9503 113.88C38.0993 114.231 38.2334 114.558 38.3451 114.894C38.4569 115.177 38.5612 115.46 38.6506 115.721C38.673 115.81 38.7027 115.899 38.7251 115.989C38.7474 116.056 38.7698 116.115 38.7921 116.175C38.8741 116.451 38.9486 116.704 39.0156 116.98C39.0156 116.995 39.0157 117.009 39.0231 117.024C39.0604 117.203 39.0976 117.389 39.1274 117.568C39.1349 117.635 39.1497 117.702 39.1646 117.769C39.1646 117.829 39.1795 117.874 39.187 117.926C39.2093 118.075 39.2317 118.224 39.2317 118.373C39.2392 118.514 39.2466 118.663 39.2466 118.805C39.2466 120.153 37.2724 122.642 34.2849 125.644C34.1881 125.733 34.0912 125.83 33.9944 125.935C33.7038 126.225 33.3983 126.523 33.078 126.829C32.8694 127.03 32.6533 127.231 32.4447 127.439C32.1169 127.745 31.7817 128.05 31.4464 128.371C30.8504 128.922 30.2396 129.473 29.6063 130.04C29.3977 130.226 29.1817 130.419 28.9656 130.606C28.1387 131.336 27.2968 132.081 26.4326 132.818C26.142 133.064 25.8515 133.318 25.561 133.563C24.6595 134.331 23.7432 135.106 22.8194 135.865C21.903 136.625 20.9792 137.378 20.0628 138.123C19.9362 138.227 19.8021 138.331 19.6755 138.443C19.2806 138.756 18.8932 139.069 18.5132 139.382C18.2525 139.583 17.9992 139.792 17.7459 139.993C17.4926 140.194 17.2393 140.395 16.9935 140.596C15.4886 141.796 14.0581 142.921 12.7395 143.949C12.516 144.12 12.2999 144.284 12.0913 144.448C8.3738 147.338 5.75885 149.29 5.60985 149.395L10.1618 138.272H0C0.1341 138.056 0.268198 137.855 0.402298 137.639C0.417198 137.616 0.432098 137.586 0.454448 137.557C0.461898 137.549 0.476798 137.534 0.484248 137.519C0.491698 137.512 0.506598 137.497 0.521498 137.482C0.543848 137.445 0.566199 137.408 0.595999 137.37C0.923799 136.841 1.2814 136.327 1.639 135.836C1.94445 135.404 2.25735 134.994 2.5777 134.577C2.94275 134.13 3.3078 133.683 3.67285 133.25C3.92615 132.938 4.19435 132.64 4.47745 132.342C4.9617 131.79 5.4683 131.269 5.98235 130.762C6.16115 130.598 6.32505 130.434 6.4964 130.27C6.66775 130.099 6.8391 129.92 7.02535 129.749C7.07005 129.712 7.11475 129.66 7.1669 129.615C7.20415 129.578 7.2414 129.548 7.27865 129.511C7.50215 129.287 7.74055 129.071 7.9864 128.877C8.0311 128.84 8.0609 128.803 8.1056 128.773C8.35145 128.55 8.58985 128.341 8.8357 128.125C9.57325 127.492 10.3183 126.888 11.0558 126.3C11.3464 126.061 11.6443 125.83 11.9423 125.614C12.0839 125.51 12.218 125.406 12.3521 125.301C12.5905 125.115 12.8289 124.944 13.0673 124.772C13.3057 124.601 13.5441 124.43 13.7825 124.266C14.2742 123.916 14.7361 123.58 15.198 123.253C15.6673 122.94 16.1143 122.604 16.5837 122.314C17.0456 122.001 17.5001 121.703 17.9471 121.405C18.3941 121.107 18.8336 120.816 19.2657 120.526C19.6978 120.243 20.115 119.967 20.5322 119.684C20.9271 119.416 21.3144 119.163 21.6795 118.909C21.6944 118.894 21.7093 118.887 21.7242 118.872L21.7465 118.857C21.8061 118.82 21.8508 118.79 21.8955 118.753C21.9104 118.745 21.9179 118.73 21.9403 118.716C21.9403 118.716 21.9551 118.708 21.9626 118.701C21.9924 118.678 22.0222 118.656 22.052 118.641C22.2978 118.477 22.5288 118.321 22.7672 118.157C22.8939 118.067 23.0279 117.978 23.1471 117.889C23.2738 117.799 23.393 117.717 23.5196 117.628C23.6761 117.516 23.84 117.397 23.9964 117.285C24.3019 117.054 24.5999 116.838 24.8755 116.607C25.1586 116.384 25.4194 116.16 25.6727 115.944C25.9334 115.721 26.1644 115.505 26.3879 115.289C26.4997 115.184 26.6039 115.072 26.7082 114.968C26.8647 114.819 27.0062 114.648 27.118 114.506L27.1329 114.491C27.1329 114.491 27.1329 114.484 27.1329 114.476C27.1329 114.476 27.1379 114.467 27.1478 114.447C27.334 114.246 27.483 114.044 27.6171 113.851C27.6246 113.836 27.6395 113.813 27.6544 113.799C27.714 113.717 27.7736 113.635 27.8183 113.545C27.8183 113.545 27.8183 113.543 27.8183 113.538C27.8779 113.433 27.93 113.337 27.9747 113.232C28.0269 113.135 28.079 113.031 28.1088 112.934C28.161 112.852 28.1759 112.748 28.2057 112.666C28.2653 112.517 28.2951 112.383 28.3249 112.264C28.3696 112.04 28.377 111.847 28.3472 111.675V111.623C28.3323 111.534 28.3174 111.467 28.2578 111.422C28.2057 111.273 28.1088 111.169 27.9747 111.072C27.93 111.027 27.8853 110.997 27.8257 110.975C27.8183 110.975 27.8034 110.96 27.7885 110.953C27.7214 110.9 27.6544 110.871 27.5724 110.856C27.4905 110.819 27.4085 110.789 27.3266 110.774C27.2446 110.744 27.1329 110.729 27.0435 110.707C25.1363 110.357 21.5305 111.087 18.7069 110.804C17.7757 110.714 16.8444 110.573 16.1516 110.103C16.0622 110.036 15.9728 109.969 15.8834 109.895C15.8014 109.82 15.7195 109.731 15.6376 109.641C15.5407 109.522 15.4513 109.381 15.3768 109.232C14.3412 107.257 13.1046 103.89 13.2387 99.271C13.2461 99.0401 13.261 98.8017 13.2759 98.5707V98.5335C13.2759 98.5335 13.2759 98.526 13.2759 98.5186C13.2759 98.5186 13.2759 98.4813 13.2759 98.459C13.2908 98.3398 13.3131 98.1386 13.3429 97.8555C13.4025 97.334 13.4919 96.5518 13.5962 95.6652C13.5962 95.6503 13.5962 95.6354 13.5962 95.628C13.6186 95.5162 13.6335 95.4045 13.6558 95.2927C13.6633 95.2331 13.6782 95.1735 13.6856 95.1214C13.6931 95.0618 13.708 95.0022 13.7154 94.95C13.7825 94.585 13.8719 94.2199 13.9687 93.84C13.9687 93.84 13.9687 93.835 13.9687 93.8251C13.9687 93.7804 13.9762 93.7506 13.9911 93.7059C13.9911 93.6761 13.9911 93.6239 14.006 93.5941C14.0283 93.5122 14.0283 93.4824 14.0283 93.4824C14.0432 93.4153 14.0656 93.3483 14.0879 93.2812C14.2593 92.7076 14.5573 92.1116 14.9671 91.5007L14.9894 91.4709C17.5522 87.6639 24.4583 83.2759 32.549 79.1113C38.0546 76.2729 44.104 73.5387 49.6989 71.1622C60.7249 66.4761 70.0151 63.1758 70.0151 63.1758L72.8088 77.0924C72.8088 77.0924 64.9938 80.0053 55.7036 83.5366C49.5499 85.8685 42.7555 88.476 37.1531 90.6886C36.8924 90.7929 36.6391 90.8972 36.3932 90.9941C28.5931 94.1007 26.0005 97.1925 25.2406 99.3232L25.3151 99.3157Z" fill="url(#paint5_linear_1722_89527)"/>
<path opacity="0.16" d="M55.7874 83.5307C49.6337 85.87 42.8319 88.47 37.2295 90.6827C34.1899 86.3468 33.0575 82.0258 32.6328 79.1054C38.1384 76.2669 44.1878 73.5328 49.7827 71.1562L55.78 83.5307H55.7874Z" fill="black"/>
<path d="M92.4981 96.8581C92.4534 96.8879 92.4236 96.9102 92.3864 96.94L93.638 98.2885L83.9455 101.246L82.0905 101.812C68.3527 105.642 52.8343 100.509 43.7602 87.9628C32.2798 72.0719 35.4758 50.2807 50.9048 39.2919C51.7243 38.7108 52.5587 38.1744 53.408 37.6678L53.4825 37.6306L57.8705 35.4999L63.5251 34.9635L62.5193 34.0173C75.9293 30.7989 90.8144 35.9767 99.6427 48.1574C111.123 64.0483 107.935 85.8544 92.5056 96.8432L92.4981 96.8581Z" fill="url(#paint6_linear_1722_89527)"/>
<path d="M98.9583 94.829C113.593 82.8077 115.168 60.5363 102.475 45.0842C89.7831 29.6322 67.6299 26.851 52.9949 38.8723C38.36 50.8935 36.7853 73.165 49.4778 88.617C62.1702 104.069 84.3234 106.85 98.9583 94.829Z" fill="url(#paint7_linear_1722_89527)"/>
<path style="mix-blend-mode:overlay" d="M13.3505 98.5487V98.5637C13.3356 98.8021 13.3281 99.0479 13.3207 99.2863C13.1791 103.905 14.4233 107.273 15.4588 109.247C15.5333 109.396 15.6227 109.53 15.7196 109.657C15.7941 109.746 15.876 109.828 15.9654 109.91C16.0548 109.984 16.1442 110.052 16.2336 110.119C16.9265 110.588 17.8503 110.729 18.789 110.819C21.6125 111.102 25.2258 110.372 27.1255 110.722C27.2224 110.737 27.3267 110.752 27.4086 110.789C27.4906 110.804 27.5725 110.834 27.6545 110.871C27.7215 110.901 27.8109 110.938 27.8705 110.968C27.878 110.968 27.8929 110.983 27.9078 110.99C27.9674 111.013 28.0195 111.05 28.0568 111.087C28.1909 111.184 28.2877 111.288 28.3399 111.437C28.3771 111.504 28.392 111.571 28.4218 111.638V111.691C28.4516 111.862 28.4516 112.048 28.4069 112.279C28.3846 112.398 28.3473 112.532 28.2877 112.681C28.2579 112.763 28.243 112.868 28.1909 112.95C28.1611 113.046 28.1089 113.151 28.0568 113.248C28.0121 113.352 27.9599 113.449 27.9003 113.553C27.9003 113.553 27.9003 113.556 27.9003 113.561C27.8556 113.65 27.796 113.732 27.7364 113.814C27.729 113.829 27.7141 113.851 27.6992 113.866C27.5651 114.067 27.4161 114.268 27.2298 114.462C27.2298 114.462 27.2249 114.474 27.2149 114.499H27.2075C27.2075 114.499 27.2075 114.507 27.2075 114.514C27.2075 114.514 27.2 114.514 27.1926 114.522C27.0659 114.678 26.9318 114.842 26.7828 114.983C26.6785 115.095 26.5742 115.207 26.4625 115.311C26.2464 115.527 26.008 115.743 25.7473 115.967C25.5014 116.19 25.2332 116.406 24.9501 116.63C24.6745 116.853 24.369 117.077 24.071 117.308C23.9146 117.42 23.7581 117.531 23.5942 117.643C23.4676 117.733 23.3484 117.814 23.2217 117.911C23.0951 118.001 22.9684 118.09 22.8418 118.18C22.581 118.366 22.3128 118.545 22.0446 118.731C22.0223 118.746 21.9999 118.761 21.9776 118.776C21.9329 118.813 21.8882 118.843 21.8286 118.88L21.8062 118.895C21.8062 118.895 21.7764 118.917 21.7615 118.932C21.389 119.185 21.0091 119.439 20.6142 119.707C20.2045 119.982 19.7873 120.258 19.3477 120.549C18.9231 120.832 18.4761 121.13 18.0291 121.428C17.5821 121.726 17.1276 122.024 16.6657 122.337C16.1964 122.635 15.7494 122.97 15.28 123.275C14.8107 123.611 14.3488 123.938 13.8645 124.288C13.6261 124.452 13.3877 124.624 13.1493 124.795C12.9109 124.966 12.6725 125.145 12.4416 125.331C12.3 125.428 12.1659 125.533 12.0244 125.637C11.7264 125.86 11.4284 126.084 11.1378 126.322C10.4003 126.903 9.65528 127.507 8.91773 128.148C8.67188 128.364 8.42603 128.58 8.18763 128.796C8.14293 128.826 8.11313 128.863 8.06843 128.9C7.82258 129.094 7.59163 129.31 7.36068 129.533C7.31598 129.571 7.28618 129.608 7.24893 129.638C7.20423 129.682 7.15953 129.727 7.10738 129.764C6.92858 129.936 6.74978 130.114 6.57843 130.278C6.39963 130.442 6.23573 130.606 6.06438 130.777C5.55033 131.277 5.04373 131.806 4.55948 132.357C4.27638 132.655 4.00818 132.953 3.75488 133.266C3.38983 133.698 3.02478 134.145 2.65228 134.592C2.33193 135.009 2.01903 135.419 1.71358 135.851C1.33363 136.38 0.946233 136.931 0.596083 137.497C0.588633 137.505 0.573732 137.52 0.566282 137.535C0.558832 137.549 0.543932 137.564 0.536482 137.572C0.514132 137.602 0.499232 137.631 0.484332 137.654C0.350232 137.87 0.216131 138.071 0.0820312 138.287H10.2438L5.69188 149.41C5.83343 149.306 8.44838 147.354 12.1734 144.463C12.382 144.299 12.598 144.128 12.8215 143.964C14.1402 142.936 15.5706 141.811 17.0755 140.611C17.3213 140.41 17.5746 140.209 17.8279 140.008C18.0812 139.807 18.342 139.598 18.5953 139.397C18.9752 139.084 19.3626 138.771 19.7575 138.458C19.8841 138.354 20.0182 138.242 20.1449 138.138C21.0612 137.393 21.985 136.641 22.9014 135.881C23.8177 135.121 24.7415 134.346 25.643 133.579C25.9335 133.333 26.2241 133.08 26.5146 132.834C27.3788 132.089 28.2207 131.351 29.0476 130.621C29.2637 130.435 29.4723 130.241 29.6883 130.055C30.3141 129.489 30.9325 128.93 31.5285 128.386C31.8637 128.066 32.199 127.76 32.5268 127.455C32.7354 127.254 32.9514 127.045 33.16 126.844C33.4729 126.538 33.7784 126.248 34.0764 125.95C34.1732 125.846 34.2701 125.749 34.3669 125.659C37.3618 122.657 39.3286 120.169 39.3286 118.82C39.3286 118.679 39.3286 118.537 39.3137 118.388C39.3063 118.239 39.2914 118.09 39.2616 117.941C39.2616 117.889 39.2541 117.837 39.2467 117.785C39.2318 117.718 39.2243 117.651 39.2094 117.583C39.1796 117.405 39.1424 117.218 39.1051 117.04C39.1051 117.025 39.1051 117.01 39.0977 116.995C39.0306 116.727 38.9561 116.466 38.8742 116.19C38.8518 116.131 38.8295 116.071 38.8146 116.004C38.7922 115.915 38.7624 115.833 38.7326 115.736C38.6432 115.468 38.5389 115.185 38.4272 114.909C38.3154 114.574 38.1813 114.246 38.0323 113.896C37.8908 113.575 37.7418 113.248 37.5779 112.92C37.3842 112.503 37.1681 112.07 36.9446 111.646C36.8627 111.474 36.7733 111.296 36.6839 111.124C36.5945 110.953 36.4976 110.774 36.3933 110.603C35.5962 109.15 34.7245 107.727 33.9274 106.483C33.7486 106.2 33.5698 105.932 33.3984 105.678C33.2271 105.418 33.0632 105.172 32.9067 104.933C32.7503 104.695 32.5938 104.472 32.4448 104.255C32.3703 104.151 32.3033 104.054 32.2362 103.95C32.1766 103.846 32.1096 103.764 32.05 103.674C32.0276 103.645 32.0053 103.615 31.9829 103.585L31.8935 103.481C31.8935 103.481 31.8414 103.421 31.8041 103.391C31.7818 103.354 31.7445 103.324 31.7073 103.287C31.6849 103.265 31.6626 103.242 31.6402 103.22C31.5881 103.168 31.5359 103.123 31.4838 103.086C31.4242 103.034 31.3571 102.981 31.2826 102.937C31.2603 102.914 31.2305 102.9 31.2007 102.877C31.1113 102.818 31.0219 102.765 30.925 102.713C30.3812 102.408 29.7554 102.229 29.1296 102.125H25.3375C25.3375 102.125 25.2928 102.14 25.2556 102.14C17.1872 103.615 14.8479 100.001 14.2594 96.9991C14.2594 96.9693 14.2445 96.9172 14.2445 96.8874C14.237 96.8353 14.2221 96.7682 14.2147 96.6862C14.0061 95.4495 14.0806 94.3544 14.1402 93.8105C14.1327 93.818 14.1327 93.8254 14.1327 93.8329C14.1327 93.8329 14.1327 93.8379 14.1327 93.8478C14.0359 94.2277 13.9539 94.5928 13.8869 94.9579C13.8794 95.0175 13.8645 95.0771 13.8496 95.1292C13.8347 95.1814 13.8273 95.2484 13.8198 95.3005C13.7975 95.4123 13.7826 95.5241 13.7602 95.6358C13.7602 95.6433 13.7602 95.6581 13.7602 95.673C13.6038 97.0364 13.4771 98.1539 13.4399 98.4668V98.5562L13.3505 98.5487Z" fill="url(#paint8_linear_1722_89527)"/>
<path d="M39.2606 118.814C39.2606 124.372 5.62388 149.411 5.62388 149.411L10.1833 138.281H0.0214844C8.42508 124.364 25.1503 117.972 28.0409 113.241C33.4347 107.952 31.7138 103.311 31.7138 103.311C33.8519 106.328 39.2457 114.359 39.2457 118.814H39.2606Z" fill="url(#paint9_linear_1722_89527)"/>
<path style="mix-blend-mode:color-burn" opacity="0.25" d="M95.7771 88.1567C104.397 78.7176 105.209 63.8101 97.0212 52.4712C87.6566 39.5157 70.0522 36.1259 57.7225 44.9169C56.8881 45.5055 56.1133 46.1387 55.3906 46.8018C56.605 45.4533 57.9907 44.2166 59.5328 43.1215C71.8626 34.3305 89.4669 37.7202 98.8316 50.6758C107.563 62.7671 106.058 78.9113 95.7771 88.1567Z" fill="url(#paint10_linear_1722_89527)"/>
<path d="M14.065 93.8027L14.0352 94.0039C14.0352 93.9368 14.0501 93.8847 14.0501 93.84C14.0501 93.84 14.055 93.83 14.065 93.8102V93.8027Z" fill="url(#paint11_linear_1722_89527)"/>
<path d="M65.2402 71.9447L76.9591 76.2806L86.063 57.5215" stroke="white" stroke-width="7" stroke-linecap="round" stroke-linejoin="round"/>
<path opacity="0.16" d="M25.8828 103.512C25.8828 103.512 29.5855 107.148 25.8828 110.619L28.0508 111.081L29.9207 109.487L30.9563 103.855L26.829 102.834L25.8828 103.519V103.512Z" fill="black"/>
<path opacity="0.16" d="M26.8283 102.826H20.1457L15.482 100.778L13.4258 97.8573C13.4854 97.3358 13.5748 96.5536 13.6791 95.667C13.6791 95.6521 13.6791 95.6372 13.6791 95.6298C13.7014 95.518 13.7163 95.4063 13.7387 95.2945C13.7461 95.2349 13.761 95.1753 13.7685 95.1232C13.7759 95.0636 13.7908 95.004 13.7983 94.9518C13.8653 94.5868 13.9547 94.2217 14.0516 93.8418C14.0516 93.8418 14.0516 93.8368 14.0516 93.8269C14.0516 93.7822 14.059 93.7524 14.0739 93.7077C14.0739 93.6779 14.0739 93.6257 14.0888 93.5959C14.1112 93.514 14.1112 93.4842 14.1112 93.4842C14.1261 93.4171 14.1484 93.3501 14.1708 93.283C14.3421 92.7094 14.6401 92.1134 15.0499 91.5025L15.0722 91.4727C14.953 91.5695 19.1623 101.433 25.3085 99.325C24.7274 100.957 25.2191 102.037 25.2489 102.119H26.508L26.8209 102.834L26.8283 102.826Z" fill="black"/>
<path d="M28.2354 113.361C27.9151 113.726 27.5798 114.106 27.2148 114.448C27.2148 114.448 27.2098 114.461 27.1999 114.486L27.1924 114.493C27.1924 114.493 27.1924 114.493 27.1924 114.5C27.1924 114.5 27.185 114.5 27.1775 114.508C26.3133 115.387 25.3225 116.221 24.3242 116.966C23.7282 117.413 22.9757 117.972 22.1041 118.643C22.0743 118.665 22.0445 118.687 22.0147 118.71C22.0072 118.71 21.9923 118.71 21.9923 118.717C21.9253 118.747 21.8731 118.792 21.7986 118.859L21.7763 118.874C21.7763 118.874 21.7465 118.896 21.7316 118.911C15.5034 123.612 4.03784 132.567 0.633185 137.379C0.610835 137.417 0.581036 137.454 0.558686 137.484C0.551236 137.491 0.536335 137.506 0.528885 137.528C0.521435 137.543 0.506535 137.558 0.499085 137.566C0.476735 137.595 0.461835 137.625 0.446935 137.648C0.275585 137.864 0.141484 138.08 0.0446343 138.281C0.0446343 138.281 -0.812116 134.094 23.8399 115.432C24.7488 114.739 27.4979 111.9 28.0641 111.081C29.5988 108.958 30.9919 106.358 30.1203 104.629C28.4515 101.321 15.0266 107.289 13.3652 98.5798C13.3652 98.5798 13.3652 98.5649 13.3652 98.5574V98.5127C13.3652 98.5127 13.3652 98.4829 13.3652 98.4531C13.4025 98.1328 13.5217 97.0227 13.6856 95.6594C13.6856 95.6445 13.6856 95.6296 13.6856 95.6221C13.7079 95.5104 13.7228 95.3986 13.7452 95.2869C13.7526 95.2273 13.7675 95.1677 13.775 95.1155C13.7824 95.0559 13.7973 94.9963 13.8048 94.9442C13.8718 94.5791 13.9612 94.2141 14.0581 93.8341C14.0581 93.8341 14.0581 93.8292 14.0581 93.8192C14.0581 93.7745 14.0655 93.7447 14.0804 93.7C14.0804 93.6702 14.0804 93.6181 14.0953 93.5883C14.1177 93.5064 14.1177 93.4765 14.1177 93.4765C14.1326 93.4095 14.1549 93.3424 14.1773 93.2754C14.1102 94.7058 14.0655 96.0766 14.1326 96.6726C14.1326 96.7545 14.1549 96.8216 14.1624 96.8737C14.1624 96.9035 14.1773 96.9557 14.1773 96.9855C14.8776 99.5408 17.3361 102.528 25.1735 102.126C25.2927 102.126 25.4268 102.111 25.5385 102.111C25.5385 102.111 27.2744 101.813 29.0475 102.111C29.6733 102.215 30.2991 102.394 30.8429 102.7C30.9323 102.752 31.0292 102.804 31.1186 102.864C31.1484 102.878 31.1782 102.901 31.2005 102.923C31.275 102.968 31.3421 103.02 31.4017 103.072C31.4613 103.109 31.5134 103.154 31.5581 103.206C31.5805 103.229 31.6028 103.251 31.6252 103.273C31.6624 103.311 31.6997 103.34 31.722 103.378C31.7593 103.407 31.7816 103.437 31.8114 103.467L31.9008 103.571C31.9008 103.571 31.9455 103.631 31.9679 103.661C32.0275 103.75 32.0945 103.832 32.1541 103.936C33.1897 106.007 30.9696 110.09 28.228 113.361H28.2354Z" fill="url(#paint12_linear_1722_89527)"/>
<path opacity="0.16" d="M48.3519 49.1484C48.3519 49.1484 49.1192 54.3709 45.7891 55.4288C45.7891 55.4288 49.5141 55.6076 51.2797 60.2638C51.2797 60.2638 49.9387 54.6391 53.5445 53.4545C53.5445 53.4545 49.3129 53.4918 48.3519 49.1484V49.1484Z" fill="black"/>
<path d="M52.1331 47.9941C52.1331 47.9941 52.9005 53.2166 49.5703 54.2745C49.5703 54.2745 53.2953 54.4533 55.061 59.1095C55.061 59.1095 53.72 53.4848 57.3258 52.3002C57.3258 52.3002 53.0942 52.3375 52.1331 47.9941V47.9941Z" fill="white"/>
<path d="M115.341 81.8535C115.341 81.8535 116.079 86.8674 112.875 87.888C112.875 87.888 116.458 88.0594 118.15 92.5368C118.15 92.5368 116.861 87.1281 120.325 85.9957C120.325 85.9957 116.257 86.033 115.334 81.861L115.341 81.8535Z" fill="url(#paint13_linear_1722_89527)"/>
<path d="M46.3557 30.9258C46.3557 30.9258 46.9293 34.837 44.4336 35.6342C44.4336 35.6342 47.2273 35.7683 48.546 39.2549C48.546 39.2549 47.5402 35.0382 50.2446 34.1516C50.2446 34.1516 47.0709 34.1814 46.3482 30.9258H46.3557Z" fill="url(#paint14_linear_1722_89527)"/>
<defs>
<linearGradient id="paint0_linear_1722_89527" x1="90.2571" y1="33.5478" x2="152.71" y2="33.5478" gradientUnits="userSpaceOnUse">
<stop stop-color="#FFDC7F"/>
<stop offset="1" stop-color="#E9B600"/>
</linearGradient>
<linearGradient id="paint1_linear_1722_89527" x1="111.92" y1="21.4485" x2="129.301" y2="21.4485" gradientUnits="userSpaceOnUse">
<stop stop-color="#6B5656"/>
<stop offset="1" stop-color="#353133"/>
</linearGradient>
<linearGradient id="paint2_linear_1722_89527" x1="-44.8796" y1="18.7301" x2="152.709" y2="18.7301" gradientUnits="userSpaceOnUse">
<stop stop-color="#6B5656"/>
<stop offset="1" stop-color="#353133"/>
</linearGradient>
<linearGradient id="paint3_linear_1722_89527" x1="102.152" y1="38.1069" x2="134.731" y2="38.1069" gradientUnits="userSpaceOnUse">
<stop stop-color="#FFDC99"/>
<stop offset="1" stop-color="#FBFF94"/>
</linearGradient>
<linearGradient id="paint4_linear_1722_89527" x1="101.752" y1="45.9828" x2="136.841" y2="45.9828" gradientUnits="userSpaceOnUse">
<stop stop-color="#FFDC7F"/>
<stop offset="1" stop-color="#E9B600"/>
</linearGradient>
<linearGradient id="paint5_linear_1722_89527" x1="0.0298" y1="106.281" x2="72.8908" y2="106.281" gradientUnits="userSpaceOnUse">
<stop stop-color="#FFDC7F"/>
<stop offset="1" stop-color="#E9B600"/>
</linearGradient>
<linearGradient id="paint6_linear_1722_89527" x1="90.2601" y1="100.249" x2="53.9617" y2="37.3662" gradientUnits="userSpaceOnUse">
<stop stop-color="#D4FF94"/>
<stop offset="1" stop-color="#507F00"/>
</linearGradient>
<linearGradient id="paint7_linear_1722_89527" x1="48.3385" y1="87.2511" x2="103.951" y2="47.3484" gradientUnits="userSpaceOnUse">
<stop stop-color="#D4FF94"/>
<stop offset="1" stop-color="#507F00"/>
</linearGradient>
<linearGradient id="paint8_linear_1722_89527" x1="0.0298812" y1="121.599" x2="39.2616" y2="121.599" gradientUnits="userSpaceOnUse">
<stop stop-color="#6B5656"/>
<stop offset="1" stop-color="#353133"/>
</linearGradient>
<linearGradient id="paint9_linear_1722_89527" x1="0.0289344" y1="126.361" x2="39.2606" y2="126.361" gradientUnits="userSpaceOnUse">
<stop stop-color="#FFDC7F"/>
<stop offset="1" stop-color="#E9B600"/>
</linearGradient>
<linearGradient id="paint10_linear_1722_89527" x1="55.3981" y1="63.1918" x2="104.538" y2="63.1918" gradientUnits="userSpaceOnUse">
<stop stop-color="#AEB2DC"/>
<stop offset="1" stop-color="#6064BA"/>
</linearGradient>
<linearGradient id="paint11_linear_1722_89527" x1="14.0352" y1="93.8996" x2="14.065" y2="93.8996" gradientUnits="userSpaceOnUse">
<stop stop-color="#888BCB"/>
<stop offset="1" stop-color="#383DA9"/>
</linearGradient>
<linearGradient id="paint12_linear_1722_89527" x1="0.0297343" y1="115.774" x2="32.4223" y2="115.774" gradientUnits="userSpaceOnUse">
<stop stop-color="#FFDC99"/>
<stop offset="1" stop-color="#FBFF94"/>
</linearGradient>
<linearGradient id="paint13_linear_1722_89527" x1="112.875" y1="87.1877" x2="120.332" y2="87.1877" gradientUnits="userSpaceOnUse">
<stop stop-color="#FFDC7F"/>
<stop offset="1" stop-color="#E9B600"/>
</linearGradient>
<linearGradient id="paint14_linear_1722_89527" x1="44.441" y1="35.0829" x2="50.252" y2="35.0829" gradientUnits="userSpaceOnUse">
<stop stop-color="#FFDC7F"/>
<stop offset="1" stop-color="#E9B600"/>
</linearGradient>
</defs>
</svg>
