<svg width="54" height="51" viewBox="0 0 54 51" fill="none" xmlns="http://www.w3.org/2000/svg">
<path d="M25.3056 0C17.5869 0 10.6784 3.41781 5.99414 8.82038L25.3056 25.5538L44.6171 8.82038C39.9328 3.41955 33.0243 0 25.3056 0Z" fill="#006FCB"/>
<path d="M52.4383 21.8098L27.1465 25.4462V51C41.2705 51 52.7003 39.5703 52.7003 25.4462C52.7003 24.211 52.6083 22.9982 52.4383 21.8098Z" fill="#9BC5E8"/>
<path d="M6.02186 8.9054C-3.08132 19.7036 -1.70899 35.8089 9.09095 44.9121C10.0347 45.7085 11.0219 46.4198 12.0403 47.0565L25.5606 25.3751L6.02186 8.9054Z" fill="#0047BD"/>
<path d="M25.5244 50.9618C20.736 50.9618 15.932 49.6259 11.7109 46.9038L25.5279 25.4098L25.5244 50.9618Z" fill="#6B9DC6"/>
<path d="M53.7376 20.4011C53.0297 15.4287 50.8941 10.9214 47.7573 7.30408L28.4458 24.0375L53.7376 20.4011Z" fill="#9BC5E8"/>
</svg>
