<svg width="55" height="51" viewBox="0 0 55 51" fill="none" xmlns="http://www.w3.org/2000/svg">
<path d="M25.8069 0C18.0882 0 11.1797 3.41781 6.49536 8.82038L25.8069 25.5538L45.1184 8.82038C40.434 3.41955 33.5256 0 25.8069 0Z" fill="#9BC5E8"/>
<path d="M52.9393 21.8098L27.6475 25.4462V51C41.7715 51 53.2012 39.5703 53.2012 25.4462C53.2012 24.211 53.1093 22.9982 52.9393 21.8098Z" fill="#F3F3F3"/>
<path d="M6.52308 8.9054C-2.5801 19.7036 -1.20777 35.8089 9.59217 44.9121C10.536 45.7085 11.5231 46.4198 12.5415 47.0565L26.0618 25.3751L6.52308 8.9054Z" fill="#0047BD"/>
<path d="M26.0254 50.9618C21.237 50.9618 16.433 49.6259 12.2119 46.9038L26.0289 25.4098L26.0254 50.9618Z" fill="#6B9DC6"/>
<path d="M54.2388 20.4011C53.531 15.4287 51.3953 10.9214 48.2585 7.30408L28.947 24.0375L54.2388 20.4011Z" fill="#F3F3F3"/>
</svg>
