<svg width="51" height="51" viewBox="0 0 51 51" fill="none" xmlns="http://www.w3.org/2000/svg">
<path d="M21.6575 50.9989C21.665 50.9992 21.6722 50.9997 21.6797 51L21.7114 50.9989H21.6575Z" fill="#669A9E"/>
<path d="M21.74 50.9989H21.7134C21.7221 50.9992 21.7313 50.9989 21.74 50.9989Z" fill="#669A9E"/>
<path d="M44.2839 42.1134C43.1242 40.0715 38.7201 37.9603 34.7046 35.4445L30.5634 32.4423C30.3514 32.2538 30.1471 32.0631 29.9517 31.8698L28.7055 30.4359C28.6994 30.4276 28.6932 30.4194 28.6874 30.4111L28.6852 30.4124L28.6839 30.4111L28.3258 30.6444L28.0058 29.7889C28.0058 29.7889 28.005 29.7895 28.0047 29.7895L27.5263 28.5121C30.0199 26.7764 32.0818 23.5976 33.3352 20.1538C34.1584 20.1336 35.0168 18.9354 35.2984 17.3685C35.499 16.2527 35.3558 15.2348 34.9768 14.6527C35.7195 7.7363 34.4995 5.21732 32.9061 3.41463C30.2999 0.466043 26.8604 0.194038 26.8604 0.194038C26.8604 0.194038 18.3739 -1.18599 14.1381 3.41463C12.517 5.17519 11.3343 7.7099 12.0522 14.545C11.6164 15.1028 11.4404 16.1802 11.654 17.3685C11.9436 18.9805 12.8439 20.2021 13.6879 20.1528C14.881 23.4355 16.8088 26.4774 19.1472 28.2588L18.7493 29.3231C18.7493 29.3231 18.7483 29.3223 18.7477 29.322L18.3088 30.4972L18.1768 30.4114L18.1763 30.4119L18.1755 30.4114C18.1731 30.4146 18.1707 30.418 18.1683 30.4212L16.8997 31.881C16.7093 32.0685 16.5109 32.2538 16.3056 32.4367L11.65 35.0448C8.36249 37.1045 4.81496 38.8931 3 40.5945C8.46676 46.8266 16.489 50.7613 25.4305 50.7613C26.5657 50.7613 27.6863 50.6976 28.7887 50.5741C34.8374 49.477 40.251 46.5562 44.4386 42.4012C44.3887 42.3036 44.3373 42.2078 44.2842 42.114L44.2839 42.1134Z" fill="#272432" fill-opacity="0.13"/>
<path d="M20.7475 29.0288L19.1816 33.2198L31.7317 34.1094L30.0056 29.496C25.5985 32.0342 22.2158 30.175 20.7475 29.0288Z" fill="#9BC5E8"/>
<path d="M30.0058 29.4994L28.8255 26.3484H21.7518L20.7478 29.034C22.2158 30.1802 25.5988 32.0376 30.0058 29.4994Z" fill="#6B9DC6"/>
<path d="M4.57703 41.8203C4.5237 41.9142 4.47223 42.0099 4.42236 42.1075C9.28911 46.9364 15.8119 50.0991 23.0635 50.6685C21.8339 46.1799 18.965 35.6994 18.0677 32.3524C13.6143 36.1834 6.14213 39.0651 4.57703 41.8203Z" fill="#0047BD"/>
<path d="M46.2845 41.8204C44.7195 39.0652 37.2473 36.1835 32.7939 32.3525C31.8966 35.6993 29.0275 46.18 27.7981 50.6686C35.0497 50.0992 41.5722 46.9368 46.439 42.1076C46.3891 42.01 46.3376 41.9143 46.2845 41.8204Z" fill="#0047BD"/>
<path d="M23.6577 50.7089C24.2444 50.7433 24.8356 50.7609 25.4308 50.7609C26.026 50.7609 26.6172 50.7433 27.2039 50.7089H25.4316H23.6577Z" fill="#0047BD"/>
<path d="M30.6875 30.1178L25.4386 33.5445L25.4543 33.5501V50.7056H25.4314L27.2037 50.7072C27.4037 50.6955 27.6029 50.6827 27.8018 50.667C29.0315 46.1783 31.8976 35.6984 32.795 32.3517C31.9691 31.6413 31.2488 30.8986 30.6875 30.1178Z" fill="#0047BD"/>
<path d="M25.4273 50.7054V33.5499L25.4334 33.5443L20.1752 30.1176C19.6139 30.8986 18.8925 31.6416 18.0667 32.352C18.964 35.6987 21.8307 46.1789 23.0603 50.6678C23.2587 50.6832 23.4577 50.6955 23.6574 50.7072L25.431 50.7056H25.4273V50.7054Z" fill="#0047BD"/>
<path d="M25.4275 50.7054H25.4312H25.4542V33.5502L25.4408 33.5446L25.4275 33.5502V50.7054Z" fill="#0047BD"/>
<path d="M25.5122 3.89758C19.3604 3.89758 14.3728 5.83762 14.3728 12.9332C14.3728 20.0288 19.3604 29.5935 25.5122 29.5935C25.5159 29.5935 25.5237 29.5935 25.5237 29.5935V3.89785C25.5237 3.89785 25.5157 3.89785 25.5119 3.89785L25.5122 3.89758Z" fill="#A8CEEE"/>
<path d="M36.6516 12.9332C36.6516 5.84162 31.6606 3.89998 25.5237 3.89758V29.5932C31.6606 29.582 36.6516 20.0245 36.6516 12.9332Z" fill="#A8CEEE"/>
<path d="M14.3717 16.7455L16.1853 16.7543C16.1853 16.7543 16.6512 9.51846 18.2424 8.71551C19.8336 7.91256 23.0038 9.31765 25.523 8.71551V0.494568C25.523 0.494568 18.7432 0.172963 16.137 3.12128C14.3725 5.11758 13.0618 7.9923 14.3717 16.7455Z" fill="#0060FF"/>
<path d="M36.6671 16.7455L34.8534 16.7543C34.8534 16.7543 34.3916 9.51846 32.8003 8.71551C31.2091 7.91256 28.0427 9.31765 25.5237 8.71551V0.494568C25.5237 0.494568 32.2998 0.172963 34.9057 3.12128C36.6703 5.11758 37.977 7.9923 36.6671 16.7455Z" fill="#0060FF"/>
<path d="M16.7794 16.6371C17.077 18.2924 16.6183 19.7321 15.7551 19.8532C14.8919 19.9743 13.951 18.7305 13.6537 17.0753C13.3561 15.42 13.8148 13.9803 14.678 13.8592C15.5412 13.7381 16.482 14.9819 16.7794 16.6371Z" fill="#6B9DC6"/>
<path d="M34.1724 16.6371C33.8751 18.2924 34.3335 19.7321 35.1967 19.8532C36.0599 19.9743 37.0007 18.7305 37.2981 17.0753C37.5954 15.42 37.137 13.9803 36.2738 13.8592C35.4106 13.7381 34.4697 14.9819 34.1724 16.6371Z" fill="#6B9DC6"/>
<path d="M25.4399 33.546L23.3423 34.17L24.3948 36.8471H25.4399V33.546Z" fill="#F79C0B"/>
<path d="M25.4447 33.5502L21.7561 36.8564L18.6062 31.9251L20.1766 30.1179L25.4447 33.5502Z" fill="#6B9DC6"/>
<path d="M14.1565 35.1512L16.9808 43.5551L19.2297 42.4546L17.9603 45.6146L20.311 50.3232C21.2244 50.4811 22.1519 50.5976 23.0916 50.6704L18.6062 31.925L14.1562 35.1512H14.1565Z" fill="#0047BD"/>
<path d="M31.631 42.4547L33.8798 43.5552L36.7042 35.1514L32.2542 31.9252L27.7688 50.6706C28.7085 50.5978 29.636 50.4812 30.5494 50.3234L32.9001 45.6147L31.6307 42.4547H31.631Z" fill="#0047BD"/>
<path d="M25.4229 33.546L27.5197 34.17L26.4663 36.8471H25.4229V33.546Z" fill="#F79C0B"/>
<path d="M25.4155 33.5502L29.1041 36.8564L32.254 31.9251L30.6836 30.1179L25.4155 33.5502Z" fill="#6B9DC6"/>
<path d="M25.4546 36.8384V50.7605C26.1746 50.7605 26.9085 50.7293 27.6288 50.677L26.3026 36.8384H25.4546Z" fill="#F79C0B"/>
<path d="M25.4161 36.8384H24.5585L23.2363 50.676C23.9571 50.7282 24.6921 50.7586 25.4161 50.7586C25.4294 50.7586 25.4262 50.7586 25.4286 50.7586H25.454V36.8384H25.4158H25.4161Z" fill="#F79C0B"/>
</svg>
