<svg width="43" height="51" viewBox="0 0 43 51" fill="none" xmlns="http://www.w3.org/2000/svg">
<path d="M36.3916 28.7086H32.2973V15.1687C32.2973 9.2589 27.4897 4.45125 21.5798 4.45125C15.67 4.45125 10.8623 9.2589 10.8623 15.1687V28.7086H6.76807V15.1687C6.76807 7.00133 13.4133 0.356079 21.5807 0.356079C29.7481 0.356079 36.3934 7.00133 36.3934 15.1687V28.7086H36.3916Z" fill="#F79C0B"/>
<path d="M41.0717 22.2834H2.08696C1.20983 22.2834 0.498779 22.9945 0.498779 23.8716V49.201C0.498779 50.0781 1.20983 50.7891 2.08696 50.7891H41.0717C41.9489 50.7891 42.6599 50.0781 42.6599 49.201V23.8716C42.6599 22.9945 41.9489 22.2834 41.0717 22.2834Z" fill="#006FCB"/>
<path d="M42.6599 49.202V33.6814C29.816 44.5484 11.297 48.6307 0.803223 50.129C1.09207 50.5279 1.55789 50.7892 2.08697 50.7892H41.0727C41.9493 50.7892 42.6599 50.0786 42.6599 49.202Z" fill="#0047BD"/>
<path d="M25.0634 32.2436C25.0634 30.3198 23.5037 28.7592 21.579 28.7592C19.6542 28.7592 18.0945 30.3189 18.0945 32.2436C18.0945 33.3907 18.6511 34.4049 19.5066 35.0404L18.398 42.9189H24.759L23.6504 35.0404C24.5059 34.4058 25.0625 33.3907 25.0625 32.2436H25.0634Z" fill="#FFFFFF"/>
<path d="M1.82739 25.2874V30.7424C1.97136 28.4262 3.08639 23.3856 10.0581 23.3856H3.7301C2.68384 23.3856 1.82831 24.2411 1.82831 25.2874H1.82739Z" fill="#0047BD"/>
<path d="M18.3987 42.9188C18.3987 42.9188 23.1201 41.5847 23.6511 35.0403L24.7597 42.9188H18.3987Z" fill="#C9C9C9"/>
</svg>
