<svg width="43" height="51" viewBox="0 0 43 51" fill="none" xmlns="http://www.w3.org/2000/svg">
<path d="M35.8928 28.7086H31.7985V15.1687C31.7985 9.2589 26.9909 4.45125 21.081 4.45125C15.1712 4.45125 10.3635 9.2589 10.3635 15.1687V28.7086H6.26929V15.1687C6.26929 7.00133 12.9145 0.356079 21.0819 0.356079C29.2494 0.356079 35.8946 7.00133 35.8946 15.1687V28.7086H35.8928Z" fill="#F3F3F3"/>
<path d="M40.573 22.2834H1.58818C0.711054 22.2834 0 22.9945 0 23.8716V49.201C0 50.0781 0.711054 50.7891 1.58818 50.7891H40.573C41.4501 50.7891 42.1612 50.0781 42.1612 49.201V23.8716C42.1612 22.9945 41.4501 22.2834 40.573 22.2834Z" fill="#006FCB"/>
<path d="M42.1612 49.202V33.6814C29.3172 44.5484 10.7982 48.6307 0.304443 50.129C0.593287 50.5279 1.05911 50.7892 1.58819 50.7892H40.5739C41.4505 50.7892 42.1612 50.0786 42.1612 49.202Z" fill="#0047BD"/>
<path d="M24.5646 32.2436C24.5646 30.3198 23.0049 28.7592 21.0802 28.7592C19.1555 28.7592 17.5957 30.3189 17.5957 32.2436C17.5957 33.3907 18.1523 34.4049 19.0078 35.0404L17.8992 42.9189H24.2602L23.1516 35.0404C24.0071 34.4058 24.5637 33.3907 24.5637 32.2436H24.5646Z" fill="#F3F3F3"/>
<path d="M1.32861 25.2874V30.7424C1.47258 28.4262 2.58761 23.3856 9.55929 23.3856H3.23132C2.18506 23.3856 1.32953 24.2411 1.32953 25.2874H1.32861Z" fill="#0047BD"/>
<path d="M17.8999 42.9188C17.8999 42.9188 22.6214 41.5847 23.1523 35.0403L24.2609 42.9188H17.8999Z" fill="#C9C9C9"/>
</svg>
