<svg width="43" height="51" viewBox="0 0 43 51" fill="none" xmlns="http://www.w3.org/2000/svg">
<path d="M35.893 28.3526H31.7988V14.8127C31.7988 8.90282 26.9911 4.09517 21.0813 4.09517C15.1714 4.09517 10.3638 8.90282 10.3638 14.8127V28.3526H6.26953V14.8127C6.26953 6.64525 12.9148 0 21.0822 0C29.2496 0 35.8949 6.64525 35.8949 14.8127V28.3526H35.893Z" fill="#0047BD"/>
<path d="M40.573 21.9275H1.58818C0.711054 21.9275 0 22.6385 0 23.5157V48.845C0 49.7221 0.711054 50.4332 1.58818 50.4332H40.573C41.4501 50.4332 42.1612 49.7221 42.1612 48.845V23.5157C42.1612 22.6385 41.4501 21.9275 40.573 21.9275Z" fill="#006FCB"/>
<path d="M42.1614 48.8459V33.3253C29.3175 44.1923 10.7984 48.2746 0.304688 49.7729C0.593532 50.1718 1.05935 50.4331 1.58844 50.4331H40.5741C41.4508 50.4331 42.1614 49.7225 42.1614 48.8459Z" fill="#0047BD"/>
<path d="M24.5646 31.8875C24.5646 29.9638 23.0049 28.4031 21.0802 28.4031C19.1555 28.4031 17.5957 29.9628 17.5957 31.8875C17.5957 33.0347 18.1523 34.0488 19.0078 34.6843L17.8992 42.5629H24.2602L23.1516 34.6843C24.0071 34.0497 24.5637 33.0347 24.5637 31.8875H24.5646Z" fill="#F3F3F3"/>
<path d="M1.32861 24.9313V30.3864C1.47258 28.0701 2.58761 23.0295 9.55929 23.0295H3.23132C2.18506 23.0295 1.32953 23.8851 1.32953 24.9313H1.32861Z" fill="#0047BD"/>
<path d="M17.8999 42.5628C17.8999 42.5628 22.6214 41.2286 23.1523 34.6842L24.2609 42.5628H17.8999Z" fill="#C9C9C9"/>
</svg>
