<svg width="52" height="51" viewBox="0 0 52 51" fill="none" xmlns="http://www.w3.org/2000/svg">
<path d="M25.8995 50.7965C39.9265 50.7965 51.2977 39.4253 51.2977 25.3983C51.2977 11.3712 39.9265 0 25.8995 0C11.8724 0 0.501221 11.3712 0.501221 25.3983C0.501221 39.4253 11.8724 50.7965 25.8995 50.7965Z" fill="#F3F3F3"/>
<path d="M22.6865 50.9993C22.6928 50.9995 22.6989 50.9999 22.7052 51.0002L22.7318 50.9993H22.6865Z" fill="#669A9E"/>
<path d="M22.7578 50.9993H22.7346C22.7422 50.9995 22.7502 50.9993 22.7578 50.9993Z" fill="#669A9E"/>
<path d="M41.9533 43.4332C40.9658 41.6945 37.2157 39.8968 33.7964 37.7546L30.2702 35.1982C30.0897 35.0377 29.9158 34.8753 29.7493 34.7107L28.6882 33.4897C28.683 33.4827 28.6778 33.4756 28.6728 33.4686L28.6709 33.4697L28.6698 33.4686L28.3649 33.6673L28.0924 32.9388C28.0924 32.9388 28.0917 32.9393 28.0915 32.9393L27.6841 31.8516C29.8074 30.3736 31.5632 27.6669 32.6304 24.7345C33.3314 24.7172 34.0623 23.697 34.3021 22.3627C34.4729 21.4126 34.3509 20.5459 34.0283 20.0502C34.6607 14.1609 33.6218 12.0159 32.265 10.4809C30.0459 7.9702 27.1171 7.73859 27.1171 7.73859C27.1171 7.73859 19.8907 6.56349 16.2839 10.4809C14.9036 11.9801 13.8965 14.1384 14.5078 19.9585C14.1367 20.4335 13.9869 21.3509 14.1688 22.3627C14.4154 23.7354 15.1819 24.7756 15.9006 24.7336C16.9166 27.5288 18.5581 30.119 20.5493 31.6359L20.2105 32.5421C20.2105 32.5421 20.2096 32.5415 20.2091 32.5412L19.8353 33.5419L19.7229 33.4688L19.7225 33.4693L19.7218 33.4688C19.7198 33.4715 19.7177 33.4745 19.7157 33.4772L18.6355 34.7202C18.4734 34.8798 18.3044 35.0377 18.1296 35.1934L14.1653 37.4142C11.366 39.1681 8.34526 40.6911 6.7998 42.1398C11.4548 47.4465 18.2858 50.7969 25.8995 50.7969C26.8662 50.7969 27.8203 50.7427 28.759 50.6375C33.9095 49.7033 38.5193 47.2162 42.085 43.6782C42.0425 43.5951 41.9987 43.5136 41.9535 43.4337L41.9533 43.4332Z" fill="#272432" fill-opacity="0.13"/>
<path d="M21.9122 32.2916L20.5789 35.8603L31.2653 36.6178L29.7955 32.6895C26.0429 34.8507 23.1625 33.2676 21.9122 32.2916Z" fill="#9BC5E8"/>
<path d="M29.7956 32.6922L28.7906 30.0092H22.7673L21.9124 32.296C23.1624 33.272 26.043 34.8535 29.7956 32.6922Z" fill="#6B9DC6"/>
<path d="M8.14269 43.1836C8.09727 43.2635 8.05345 43.345 8.01099 43.4281C12.1551 47.5399 17.7092 50.233 23.884 50.7178C22.837 46.8957 20.3941 37.9716 19.63 35.1216C15.8379 38.3837 9.47537 40.8374 8.14269 43.1836Z" fill="#006FCB"/>
<path d="M43.6564 43.1837C42.3237 40.8376 35.9611 38.3838 32.169 35.1217C31.4049 37.9715 28.9618 46.8959 27.915 50.7179C34.0898 50.2331 39.6438 47.5403 43.7878 43.4282C43.7454 43.3451 43.7016 43.2636 43.6564 43.1837Z" fill="#006FCB"/>
<path d="M24.3899 50.7523C24.8895 50.7816 25.3929 50.7966 25.8997 50.7966C26.4065 50.7966 26.9099 50.7816 27.4095 50.7523H25.9004H24.3899Z" fill="#8AD3E2"/>
<path d="M30.376 33.2189L25.9065 36.1367L25.9199 36.1415V50.7495H25.9004L27.4095 50.7509C27.5798 50.7409 27.7494 50.73 27.9188 50.7166C28.9659 46.8945 31.4064 37.9708 32.1705 35.1211C31.4673 34.5161 30.854 33.8837 30.376 33.2189Z" fill="#E5E5E5"/>
<path d="M25.897 50.7494V36.1414L25.9023 36.1366L21.4249 33.2188C20.9469 33.8838 20.3326 34.5165 19.6294 35.1214C20.3935 37.9711 22.8345 46.8951 23.8815 50.7174C24.0505 50.7306 24.2199 50.741 24.39 50.751L25.9002 50.7496H25.897V50.7494Z" fill="#E5E5E5"/>
<path d="M25.8972 50.7494H25.9004H25.9199V36.1416L25.9086 36.1368L25.8972 36.1416V50.7494Z" fill="#E5E5E5"/>
<path d="M25.9691 10.8922C20.7308 10.8922 16.4839 12.5442 16.4839 18.5861C16.4839 24.628 20.7308 32.7724 25.9691 32.7724C25.9723 32.7724 25.9789 32.7724 25.9789 32.7724V10.8924C25.9789 10.8924 25.9721 10.8924 25.9689 10.8924L25.9691 10.8922Z" fill="#A8CEEE"/>
<path d="M35.455 18.5861C35.455 12.5476 31.2051 10.8943 25.9795 10.8922V32.7722C31.2051 32.7627 35.455 24.6244 35.455 18.5861Z" fill="#A8CEEE"/>
<path d="M16.4836 21.8323L18.028 21.8398C18.028 21.8398 18.4247 15.6784 19.7796 14.9947C21.1345 14.311 23.834 15.5074 25.9791 14.9947V7.9945C25.9791 7.9945 20.206 7.72065 17.9869 10.2312C16.4843 11.931 15.3683 14.3789 16.4836 21.8323Z" fill="#0047BD"/>
<path d="M35.4682 21.8323L33.9238 21.8398C33.9238 21.8398 33.5306 15.6784 32.1756 14.9947C30.8207 14.311 28.1244 15.5074 25.9795 14.9947V7.9945C25.9795 7.9945 31.7494 7.72065 33.9683 10.2312C35.4709 11.931 36.5835 14.3789 35.4682 21.8323Z" fill="#0047BD"/>
<path d="M18.5334 21.7399C18.7868 23.1493 18.3963 24.3753 17.6613 24.4784C16.9262 24.5815 16.1251 23.5224 15.8719 22.113C15.6185 20.7035 16.0091 19.4776 16.7441 19.3745C17.4791 19.2714 18.2803 20.3305 18.5334 21.7399Z" fill="#6B9DC6"/>
<path d="M33.3435 21.7399C33.0903 23.1493 33.4807 24.3753 34.2157 24.4784C34.9507 24.5815 35.7518 23.5224 36.005 22.113C36.2582 20.7035 35.8679 19.4776 35.1328 19.3745C34.3978 19.2714 33.5967 20.3305 33.3435 21.7399Z" fill="#6B9DC6"/>
<path d="M25.9075 36.1379L24.1213 36.6693L25.0176 38.9489H25.9075V36.1379Z" fill="#0047BD"/>
<path d="M25.9119 36.1415L22.771 38.9568L20.0889 34.7577L21.4261 33.2189L25.9119 36.1415Z" fill="#0047BD"/>
<path d="M16.2998 37.5049L18.7047 44.6609L20.6196 43.7238L19.5387 46.4146L21.5404 50.424C22.3181 50.5584 23.1079 50.6576 23.9081 50.7196L20.0887 34.7578L16.2996 37.5049H16.2998Z" fill="#0047BD"/>
<path d="M31.1796 43.7239L33.0945 44.661L35.4994 37.5051L31.7102 34.7579L27.8909 50.7197C28.6911 50.6578 29.4808 50.5585 30.2586 50.4241L32.2602 46.4147L31.1793 43.7239H31.1796Z" fill="#0047BD"/>
<path d="M25.8931 36.1379L27.6785 36.6693L26.7816 38.9489H25.8931V36.1379Z" fill="#0047BD"/>
<path d="M25.8872 36.1415L29.0281 38.9568L31.7102 34.7577L30.373 33.2189L25.8872 36.1415Z" fill="#0047BD"/>
<path d="M25.9197 38.9417V50.7964C26.5328 50.7964 27.1577 50.7698 27.771 50.7253L26.6418 38.9417H25.9197Z" fill="#0047BD"/>
<path d="M25.8873 38.9417H25.1571L24.0312 50.7244C24.645 50.7689 25.2708 50.7948 25.8873 50.7948C25.8987 50.7948 25.896 50.7948 25.898 50.7948H25.9196V38.9417H25.8871H25.8873Z" fill="#0047BD"/>
</svg>
