<svg width="51" height="51" viewBox="0 0 51 51" fill="none" xmlns="http://www.w3.org/2000/svg">
<path d="M22.6572 50.9993C22.6646 50.9995 22.6718 51.0001 22.6792 51.0003L22.7104 50.9993H22.6572Z" fill="#669A9E"/>
<path d="M22.7411 50.9993H22.7139C22.7228 50.9995 22.7322 50.9993 22.7411 50.9993Z" fill="#669A9E"/>
<path d="M45.2841 42.1137C44.1244 40.0717 39.7203 37.9605 35.7047 35.4447L31.5636 32.4425C31.3516 32.254 31.1473 32.0633 30.9518 31.87L29.7057 30.4361C29.6995 30.4278 29.6934 30.4195 29.6875 30.4113L29.6854 30.4126L29.6841 30.4113L29.3259 30.6446L29.0059 29.7891C29.0059 29.7891 29.0051 29.7896 29.0048 29.7896L28.5264 28.5123C31.0201 26.7765 33.082 23.5978 34.3354 20.154C35.1586 20.1337 36.017 18.9355 36.2986 17.3686C36.4991 16.2528 36.3559 15.2349 35.977 14.6528C36.7197 7.73634 35.4997 5.21735 33.9063 3.41465C31.3001 0.466046 27.8605 0.194039 27.8605 0.194039C27.8605 0.194039 19.374 -1.18599 15.1381 3.41465C13.517 5.17522 12.3343 7.70994 13.0522 14.545C12.6165 15.1029 12.4405 16.1803 12.6541 17.3686C12.9437 18.9806 13.844 20.2022 14.688 20.1529C15.8811 23.4356 17.8089 26.4776 20.1473 28.2589L19.7494 29.3232C19.7494 29.3232 19.7484 29.3224 19.7478 29.3222L19.3089 30.4974L19.1769 30.4115L19.1763 30.4121L19.1755 30.4115C19.1731 30.4147 19.1707 30.4182 19.1683 30.4214L17.8998 31.8812C17.7094 32.0686 17.511 32.254 17.3056 32.4369L12.6501 35.045C9.36252 37.1047 5.81498 38.8933 4 40.5947C9.46679 46.8268 17.4891 50.7616 26.4306 50.7616C27.5659 50.7616 28.6864 50.6979 29.7889 50.5744C35.8375 49.4773 41.2513 46.5564 45.4388 42.4014C45.389 42.3038 45.3375 42.2081 45.2844 42.1142L45.2841 42.1137Z" fill="#272432" fill-opacity="0.13"/>
<path d="M21.748 29.0291L20.1821 33.2201L32.7323 34.1097L31.0061 29.4963C26.5991 32.0345 23.2163 30.1752 21.748 29.0291Z" fill="#9BC5E8"/>
<path d="M31.0061 29.4995L29.8258 26.3485H22.7521L21.748 29.0342C23.2161 30.1803 26.5991 32.0377 31.0061 29.4995Z" fill="#6B9DC6"/>
<path d="M5.57703 41.8205C5.5237 41.9144 5.47223 42.0101 5.42236 42.1077C10.2891 46.9366 16.812 50.0993 24.0636 50.6687C22.834 46.1801 19.9651 35.6995 19.0677 32.3525C14.6143 36.1836 7.14214 39.0652 5.57703 41.8205Z" fill="#006FCB"/>
<path d="M47.2842 41.8206C45.7191 39.0653 38.2469 36.1837 33.7935 32.3527C32.8961 35.6994 30.027 46.1802 28.7976 50.6688C36.0492 50.0995 42.5718 46.937 47.4386 42.1078C47.3887 42.0102 47.3372 41.9145 47.2842 41.8206Z" fill="#006FCB"/>
<path d="M24.6577 50.7091C25.2444 50.7435 25.8356 50.7611 26.4308 50.7611C27.026 50.7611 27.6172 50.7435 28.2039 50.7091H26.4316H24.6577Z" fill="#8AD3E2"/>
<path d="M31.6878 30.1178L26.4388 33.5445L26.4546 33.5501V50.7057H26.4316L28.2039 50.7073C28.404 50.6956 28.6032 50.6828 28.8021 50.6671C30.0317 46.1784 32.8979 35.6985 33.7953 32.3517C32.9694 31.6413 32.2491 30.8986 31.6878 30.1178Z" fill="#E5E5E5"/>
<path d="M26.4278 50.7056V33.55L26.434 33.5444L21.1757 30.1177C20.6144 30.8988 19.893 31.6417 19.0671 32.3521C19.9645 35.6989 22.8312 46.1791 24.0609 50.668C24.2593 50.6835 24.4582 50.6957 24.6579 50.7075L26.4316 50.7059H26.4278V50.7056Z" fill="#E5E5E5"/>
<path d="M26.428 50.7056H26.4317H26.4546V33.5503L26.4413 33.5447L26.428 33.5503V50.7056Z" fill="#E5E5E5"/>
<path d="M15.373 12.9333C15.373 5.83763 20.3606 3.89758 26.5125 3.89758L26.524 3.89785V29.5936H26.5125C20.3606 29.5936 15.373 20.0289 15.373 12.9333Z" fill="#A8CEEE"/>
<path d="M26.524 3.89785C32.6609 3.90025 37.6526 5.84163 37.6526 12.9333C37.6526 20.0246 32.6609 29.5824 26.524 29.5936V3.89785Z" fill="#A8CEEE"/>
<path d="M15.3726 16.7456L17.1863 16.7544C17.1863 16.7544 17.6522 9.51851 19.2434 8.71555C20.8346 7.9126 24.0048 9.3177 26.5241 8.71555V0.494568C26.5241 0.494568 19.7442 0.172961 17.138 3.12129C15.3734 5.11761 14.0627 7.99234 15.3726 16.7456Z" fill="#0047BD"/>
<path d="M37.6681 16.7456L35.8545 16.7544C35.8545 16.7544 35.3926 9.51851 33.8014 8.71555C32.2101 7.9126 29.0436 9.3177 26.5247 8.71555V0.494568C26.5247 0.494568 33.3008 0.172961 35.9067 3.12129C37.6713 5.11761 38.978 7.99234 37.6681 16.7456Z" fill="#0047BD"/>
<path d="M17.7799 16.6371C18.0775 18.2924 17.6188 19.7321 16.7556 19.8532C15.8924 19.9743 14.9515 18.7305 14.6542 17.0753C14.3566 15.42 14.8153 13.9803 15.6785 13.8592C16.5417 13.7381 17.4825 14.9819 17.7799 16.6371Z" fill="#6B9DC6"/>
<path d="M35.1729 16.6371C34.8755 18.2924 35.334 19.7321 36.1972 19.8532C37.0604 19.9743 38.0012 18.7305 38.2986 17.0753C38.5959 15.42 38.1375 13.9803 37.2743 13.8592C36.411 13.7381 35.4702 14.9819 35.1729 16.6371Z" fill="#6B9DC6"/>
<path d="M26.4399 33.5461L24.3423 34.1702L25.3948 36.8473H26.4399V33.5461Z" fill="#F79C0B"/>
<path d="M26.4452 33.5504L22.7566 36.8566L19.6067 31.9253L21.1771 30.118L26.4452 33.5504Z" fill="#0047BD"/>
<path d="M15.1568 35.1515L17.9811 43.5554L20.2299 42.4549L18.9606 45.6149L21.3113 50.3236C22.2247 50.4815 23.1521 50.598 24.0919 50.6708L19.6065 31.9253L15.1565 35.1515H15.1568Z" fill="#0047BD"/>
<path d="M32.6315 42.455L34.8804 43.5555L37.7047 35.1516L33.2547 31.9254L28.7693 50.6709C29.709 50.5981 30.6365 50.4816 31.5499 50.3237L33.9006 45.6151L32.6312 42.455H32.6315Z" fill="#0047BD"/>
<path d="M26.4231 33.5461L28.5199 34.1702L27.4666 36.8473H26.4231V33.5461Z" fill="#F79C0B"/>
<path d="M26.4163 33.5504L30.1049 36.8566L33.2548 31.9253L31.6844 30.118L26.4163 33.5504Z" fill="#0047BD"/>
<path d="M26.4543 36.8386V50.7608C27.1744 50.7608 27.9082 50.7296 28.6285 50.6773L27.3024 36.8386H26.4543Z" fill="#F79C0B"/>
<path d="M26.4164 36.8386H25.5587L24.2366 50.6763C24.9574 50.7285 25.6923 50.7589 26.4164 50.7589C26.4297 50.7589 26.4265 50.7589 26.4289 50.7589H26.4542V36.8386H26.4161H26.4164Z" fill="#F79C0B"/>
</svg>
