<svg width="22" height="22" viewBox="0 0 22 22" fill="none" xmlns="http://www.w3.org/2000/svg">
<path d="M11.0003 20.5358C5.77116 20.5358 1.51758 16.2822 1.51758 11.0531C1.51758 5.8239 5.77116 1.57031 11.0003 1.57031C16.2295 1.57031 20.4831 5.8239 20.4831 11.0531C20.4831 16.2822 16.2295 20.5358 11.0003 20.5358V20.5358ZM11.0003 3.08755C6.60792 3.08755 3.03482 6.66066 3.03482 11.0531C3.03482 15.4455 6.60792 19.0186 11.0003 19.0186C15.3928 19.0186 18.9659 15.4447 18.9659 11.0531C18.9659 6.66142 15.3928 3.08755 11.0003 3.08755V3.08755Z" fill="white"/>
<path d="M11.0008 16.3648C10.7996 16.3648 10.6067 16.2849 10.4644 16.1426C10.3221 16.0004 10.2422 15.8074 10.2422 15.6062V6.50276C10.2422 6.30156 10.3221 6.1086 10.4644 5.96634C10.6067 5.82407 10.7996 5.74414 11.0008 5.74414C11.202 5.74414 11.395 5.82407 11.5372 5.96634C11.6795 6.1086 11.7594 6.30156 11.7594 6.50276V15.6062C11.7594 15.8074 11.6795 16.0004 11.5372 16.1426C11.395 16.2849 11.202 16.3648 11.0008 16.3648Z" fill="white"/>
<path d="M15.5515 11.8122H6.44807C6.24688 11.8122 6.05392 11.7322 5.91165 11.59C5.76938 11.4477 5.68945 11.2547 5.68945 11.0535C5.68945 10.8523 5.76938 10.6594 5.91165 10.5171C6.05392 10.3748 6.24688 10.2949 6.44807 10.2949H15.5515C15.7527 10.2949 15.9457 10.3748 16.0879 10.5171C16.2302 10.6594 16.3101 10.8523 16.3101 11.0535C16.3101 11.2547 16.2302 11.4477 16.0879 11.59C15.9457 11.7322 15.7527 11.8122 15.5515 11.8122Z" fill="white"/>
</svg>
