<svg width="23" height="23" viewBox="0 0 23 23" fill="none" xmlns="http://www.w3.org/2000/svg">
<path d="M11.1117 21.0729C5.88249 21.0729 1.62891 16.8194 1.62891 11.5902C1.62891 6.36101 5.88249 2.10742 11.1117 2.10742C16.3408 2.10742 20.5944 6.36101 20.5944 11.5902C20.5944 16.8194 16.3408 21.0729 11.1117 21.0729V21.0729ZM11.1117 3.62466C6.71925 3.62466 3.14615 7.19777 3.14615 11.5902C3.14615 15.9826 6.71925 19.5557 11.1117 19.5557C15.5041 19.5557 19.0772 15.9818 19.0772 11.5902C19.0772 7.19853 15.5041 3.62466 11.1117 3.62466V3.62466Z" fill="#A9383D"/>
<path d="M11.1102 16.9019C10.909 16.9019 10.716 16.822 10.5738 16.6797C10.4315 16.5375 10.3516 16.3445 10.3516 16.1433V7.03987C10.3516 6.83867 10.4315 6.64571 10.5738 6.50344C10.716 6.36118 10.909 6.28125 11.1102 6.28125C11.3114 6.28125 11.5043 6.36118 11.6466 6.50344C11.7889 6.64571 11.8688 6.83867 11.8688 7.03987V16.1433C11.8688 16.3445 11.7889 16.5375 11.6466 16.6797C11.5043 16.822 11.3114 16.9019 11.1102 16.9019Z" fill="#A9383D"/>
<path d="M15.6629 12.3493H6.5594C6.3582 12.3493 6.16525 12.2693 6.02298 12.1271C5.88071 11.9848 5.80078 11.7919 5.80078 11.5907C5.80078 11.3895 5.88071 11.1965 6.02298 11.0542C6.16525 10.912 6.3582 10.832 6.5594 10.832H15.6629C15.864 10.832 16.057 10.912 16.1993 11.0542C16.3415 11.1965 16.4215 11.3895 16.4215 11.5907C16.4215 11.7919 16.3415 11.9848 16.1993 12.1271C16.057 12.2693 15.864 12.3493 15.6629 12.3493Z" fill="#A9383D"/>
</svg>
