<svg width="47" height="47" viewBox="0 0 27 27" fill="none" xmlns="http://www.w3.org/2000/svg">
<path d="M23.0623 8.18762L13.4998 13.5001M13.4998 13.5001L3.93734 8.18762M13.4998 13.5001L13.4999 24.1877M15.7499 23.5002L14.374 24.2645C14.055 24.4418 13.8955 24.5304 13.7265 24.5651C13.577 24.5959 13.4228 24.5959 13.2732 24.5651C13.1043 24.5304 12.9448 24.4418 12.6257 24.2645L4.30072 19.6395C3.96377 19.4523 3.79527 19.3587 3.67259 19.2256C3.56406 19.1078 3.48192 18.9682 3.43167 18.8161C3.37488 18.6442 3.37488 18.4515 3.37488 18.066V8.93428C3.37488 8.54881 3.37488 8.35607 3.43167 8.18418C3.48192 8.0321 3.56406 7.89251 3.67259 7.77473C3.79527 7.64161 3.96376 7.548 4.30072 7.3608L12.6257 2.7358C12.9448 2.55855 13.1043 2.46992 13.2732 2.43517C13.4228 2.40442 13.577 2.40442 13.7265 2.43517C13.8955 2.46992 14.055 2.55855 14.374 2.7358L22.699 7.3608C23.036 7.548 23.2045 7.6416 23.3272 7.77473C23.4357 7.89251 23.5178 8.0321 23.5681 8.18417C23.6249 8.35607 23.6249 8.54881 23.6249 8.93428L23.6249 14.0627M8.43738 5.06266L18.5624 10.6877M21.3749 23.6252V16.8752M17.9999 20.2502H24.7499" stroke="#9B9BA5" stroke-width="2" stroke-linecap="round" stroke-linejoin="round"/>
</svg>
