<svg width="46" height="47" viewBox="0 0 46 47" fill="none" xmlns="http://www.w3.org/2000/svg">
<g clip-path="url(#clip0_1722_90109)">
<path d="M22.4089 9.48221V28.2804C22.4089 28.5276 22.2475 28.761 21.9832 28.8846L12.8587 33.2409L12.7626 33.6322L12.1481 36.1828L8.44752 35.0877L8.36513 35.0637C8.05961 34.9642 7.82617 34.7204 7.82617 34.4149V10.5155C7.82617 10.3576 7.8914 10.2065 8.01155 10.083C8.07677 10.0143 8.15916 9.95594 8.25528 9.90788L14.9665 6.70505C15.2686 6.56087 15.6118 6.5334 15.9345 6.62609L19.3948 7.67997H19.412C19.436 7.69027 19.4601 7.70057 19.4841 7.7143L22.4089 9.48221Z" fill="url(#paint0_linear_1722_90109)"/>
<path style="mix-blend-mode:overlay" d="M13.0612 11.6337L12.7626 33.6313L12.7283 36.2643C12.5223 36.2986 12.3198 36.2643 12.1481 36.1819L8.44752 35.0868L8.36513 35.0628C8.05961 34.9632 7.82617 34.7195 7.82617 34.414V10.5146C7.82617 10.3567 7.8914 10.2056 8.01155 10.082L11.8735 11.2698L13.0612 11.6337V11.6337Z" fill="url(#paint1_linear_1722_90109)"/>
<path d="M26.2975 12.7117V29.4399C26.2975 29.687 26.1362 29.9205 25.8719 30.044L23.0054 31.4137L17.2863 34.1463L13.0228 36.182C12.9266 36.2266 12.8271 36.2575 12.7275 36.2643C12.5216 36.2987 12.319 36.2643 12.1474 36.182C11.8934 36.0652 11.7148 35.8455 11.7148 35.5778V11.6749C11.7148 11.5273 11.7732 11.3866 11.8728 11.2699C11.9448 11.1875 12.0341 11.1188 12.1405 11.0673L19.195 7.69971C19.2568 7.66882 19.3254 7.66195 19.3941 7.67912H19.4113C19.4353 7.68942 19.4593 7.69971 19.4834 7.71345L22.4081 9.48136L25.5492 11.3797C25.841 11.5582 26.0607 11.8225 26.1842 12.1315C26.2598 12.3134 26.2975 12.5091 26.2975 12.7117V12.7117Z" fill="url(#paint2_linear_1722_90109)"/>
<path d="M26.1853 12.1314L21.9938 13.7826C20.9433 14.1946 19.8002 13.4599 19.7384 12.334L19.4844 7.7168L25.5502 11.3831C25.842 11.5616 26.0617 11.8259 26.1887 12.1349L26.1853 12.1314Z" fill="url(#paint3_linear_1722_90109)"/>
<path d="M14.6058 20.4425L23.6719 16.2166C24.0255 16.0519 24.4306 16.3093 24.4306 16.7007C24.4306 16.9066 24.3105 17.0954 24.1251 17.1813L15.059 21.4689C14.7054 21.6371 14.2969 21.3796 14.2969 20.9883V20.9265C14.2969 20.7205 14.417 20.5317 14.6058 20.4425V20.4425Z" fill="url(#paint4_linear_1722_90109)"/>
<path d="M19.8652 22.5821C19.8652 22.8499 19.7176 23.0936 19.4807 23.2138L15.2308 25.4142C14.8773 25.5824 14.4688 25.325 14.4688 24.9336V24.8718C14.4688 24.6659 14.5889 24.4771 14.7743 24.3878L19.1717 22.1599C19.4876 21.9986 19.8617 22.2286 19.8617 22.5856L19.8652 22.5821Z" fill="url(#paint5_linear_1722_90109)"/>
<path opacity="0.16" d="M26.2536 19.3608C26.2227 19.3334 26.1849 19.3128 26.1471 19.2956C26.1403 19.2922 26.13 19.2887 26.1231 19.2853C25.9446 19.2029 25.7283 19.1995 25.4983 19.2887C25.4674 19.3025 25.4331 19.3162 25.4022 19.3299L24.1183 19.9547C23.8712 20.0749 23.6549 20.2808 23.5004 20.5211C23.291 20.8369 23.1812 21.2146 23.2189 21.5578L23.3631 22.8211C23.0301 23.0855 22.7109 23.3738 22.4088 23.6828C22.2577 23.8338 22.1101 23.9917 21.9694 24.1565C21.8664 24.2698 21.7703 24.3865 21.6742 24.5032L20.737 24.0295C20.6924 24.0055 20.6443 23.9883 20.5962 23.978H20.586C20.15 23.8784 19.5973 24.2011 19.2883 24.7641L18.5057 26.199C18.1589 26.8341 18.2448 27.5378 18.6979 27.761L19.1476 27.9875L19.6385 28.2347C19.4188 28.8904 19.2677 29.5563 19.1854 30.2189C19.1751 30.2704 19.1716 30.3184 19.1648 30.3699L17.9942 30.9569C17.6989 31.1046 17.4518 31.3723 17.2904 31.6813C17.1668 31.9147 17.0948 32.1756 17.0879 32.4228C17.0879 32.4777 17.0879 32.5326 17.0948 32.5875L17.2527 33.9778C17.2595 34.0362 17.2698 34.0946 17.287 34.1461L23.0061 31.4135C22.9958 31.3895 22.9821 31.3655 22.9718 31.338C22.8585 31.084 22.783 30.7956 22.7452 30.4729C22.7143 30.1914 22.7143 29.9031 22.7486 29.6113C22.9168 28.0047 24.0016 26.3398 25.44 25.6258C25.4606 25.6155 25.4777 25.6052 25.4983 25.5983C25.7215 25.4919 25.9412 25.4129 26.154 25.3649C26.2021 25.3546 26.2501 25.3443 26.2982 25.334V19.3986C26.2982 19.3986 26.2673 19.3711 26.2536 19.3608V19.3608Z" fill="black"/>
<path d="M38.7461 25.2099L36.4083 24.1491C36.3156 24.077 36.2058 24.0324 36.0822 24.0187C35.9174 23.9912 35.732 24.0255 35.5398 24.1217L34.3692 24.7018C34.1289 24.1079 33.7993 23.5964 33.4046 23.1811L33.6002 22.8309L34.122 21.8869C34.1838 21.777 34.2319 21.6638 34.2662 21.5539L35.4093 21.0012C35.3853 20.9909 35.3613 20.9772 35.3338 20.9703L33.8234 20.3009L33.8028 20.2906L32.9068 19.8478C32.4537 19.6212 31.8049 19.9439 31.4547 20.5721L31.0599 21.2896L30.9192 21.5436L30.7407 21.8663C30.5965 21.8491 30.4523 21.8354 30.3047 21.8354C30.0575 21.8251 29.8001 21.8354 29.5358 21.8663L30.3047 21.5058L30.9295 21.2141H30.9364L30.3047 20.9188L28.4681 20.0709H28.4578C28.2484 19.9611 27.9807 19.9679 27.7026 20.1018L26.7758 20.5515L26.4187 20.7266C26.1681 20.8502 25.9484 21.0596 25.7905 21.3067C25.588 21.6191 25.4816 21.9933 25.5193 22.3332L25.6635 23.593C25.049 24.0805 24.4826 24.6503 23.978 25.2751L23.0374 24.8048C22.5843 24.5748 21.9355 24.9044 21.5887 25.536L20.8061 26.9709C20.5143 27.503 20.5314 28.0866 20.8095 28.3921C20.8644 28.4539 20.9262 28.502 20.9983 28.5363L21.9355 29.0066C21.702 29.7103 21.5407 30.4278 21.4617 31.1418L20.2911 31.7288C20.2671 31.7426 20.2396 31.7563 20.2156 31.7735C20.2087 31.7735 20.2019 31.7769 20.195 31.7838C19.941 31.9382 19.7247 32.1854 19.5805 32.4669C19.4329 32.7484 19.3608 33.0676 19.3952 33.3594L19.5531 34.7497C19.584 35.0278 19.7041 35.2338 19.8826 35.3505C19.9272 35.3814 19.9719 35.4054 20.0234 35.4226L22.4332 36.5382V36.5314L22.2513 35.5152C22.4229 35.8036 22.622 36.0645 22.8417 36.2945L22.6735 36.6069L22.1243 37.6196C21.7775 38.2615 21.8668 38.9618 22.3199 39.1815L23.3429 39.6793C23.3738 39.6964 23.4081 39.7102 23.4425 39.7205H23.4459L24.8225 40.3384L24.5581 39.2536C24.644 39.1541 24.7195 39.0442 24.7881 38.9172L25.2962 37.9766L25.4987 37.599C26.048 37.6539 26.635 37.6127 27.2392 37.4754L27.3834 38.7352C27.3937 38.8451 27.4211 38.9344 27.4589 39.0167V39.0236C27.5138 39.1506 27.5962 39.2467 27.6992 39.3154C27.7713 39.3669 27.8537 39.4012 27.9429 39.4184L30.212 40.4791C30.212 40.4791 30.2258 40.486 30.2326 40.4894L30.0129 38.5224C30.2429 38.3508 30.4352 38.1036 30.5553 37.8358C30.6823 37.5715 30.7407 37.2866 30.7098 37.0257L30.5656 35.7693C31.1801 35.2715 31.7465 34.6948 32.2511 34.0666L33.1883 34.5129C33.638 34.7291 34.2868 34.3893 34.6335 33.7576L35.4162 32.3296C35.7629 31.6979 35.6771 31.0114 35.224 30.7951L34.2902 30.3488C34.5237 29.652 34.685 28.9448 34.7674 28.2445L35.9346 27.6541C36.4529 27.3966 36.834 26.7787 36.8443 26.2191L38.7564 25.2167C38.7564 25.2167 38.7426 25.2099 38.7392 25.2099H38.7461ZM25.5296 32.5458C25.2756 32.206 25.104 31.77 25.0456 31.2448C24.9735 30.5926 25.0765 29.8991 25.3202 29.2366C25.6189 28.4161 26.1338 27.6438 26.7758 27.0705C27.0744 26.7958 27.3971 26.5693 27.7438 26.3976C28.7256 25.9102 29.6559 25.9685 30.3047 26.456C30.5793 26.662 30.8059 26.9435 30.9604 27.2936C31.0771 27.5476 31.1561 27.836 31.1938 28.1587C31.3998 29.9746 30.1914 32.1408 28.4956 32.999C28.2519 33.1226 28.0116 33.2118 27.7781 33.2667C26.8513 33.4967 26.0274 33.2187 25.5296 32.5458V32.5458Z" fill="url(#paint6_linear_1722_90109)"/>
<path style="mix-blend-mode:overlay" d="M30.8052 40.5582C30.5924 40.6131 30.3933 40.5856 30.2388 40.4895C30.2319 40.4861 30.2251 40.4827 30.2182 40.4792L27.9491 39.4185C27.8599 39.4013 27.7775 39.367 27.7054 39.3155L27.4102 39.8613L27.4651 39.0237V39.0168L27.5269 38.0385L30.5615 37.8359H30.6267C30.6267 37.8359 30.7297 39.3327 30.8052 40.5582Z" fill="url(#paint7_linear_1722_90109)"/>
<path style="mix-blend-mode:overlay" d="M25.3481 37.4518L25.3034 37.9736L25.0837 40.4624L24.8297 40.3388L23.4531 39.7209H23.4497C23.4154 39.7106 23.381 39.6969 23.3502 39.6797L22.3272 39.1819C21.874 38.9622 21.7848 38.2619 22.1315 37.62L22.6807 36.6073C22.6327 36.6039 22.5846 36.5936 22.54 36.5764L22.849 36.2949L23.2506 36.4803H23.254L25.3515 37.4518H25.3481Z" fill="url(#paint8_linear_1722_90109)"/>
<path style="mix-blend-mode:overlay" d="M23.9711 32.2994L22.6564 33.8648L22.0968 33.6108L19.584 32.4677C19.7282 32.1862 19.9444 31.939 20.1985 31.7845C20.2053 31.7777 20.2122 31.7742 20.2191 31.7742C20.2431 31.7571 20.2706 31.7433 20.2946 31.7296L21.4652 31.1426L23.9711 32.2994V32.2994Z" fill="url(#paint9_linear_1722_90109)"/>
<path style="mix-blend-mode:overlay" d="M25.4028 25.9077L23.5045 29.6907L21.9391 29.0075L20.8131 28.3965C20.5351 28.0875 20.5179 27.5039 20.8097 26.9719L21.5924 25.5369C21.9391 24.9053 22.5879 24.5757 23.041 24.8057L23.9816 25.276L25.396 25.9042H25.4063L25.4028 25.9077Z" fill="url(#paint10_linear_1722_90109)"/>
<path style="mix-blend-mode:overlay" d="M28.4921 22.5356V24.252L28.1694 24.7498L25.6634 23.5929L25.5192 22.3331C25.4815 21.9932 25.5879 21.619 25.7904 21.3066L28.3067 22.4498L28.4921 22.5356V22.5356Z" fill="url(#paint11_linear_1722_90109)"/>
<path style="mix-blend-mode:overlay" d="M36.0438 21.5058L33.5996 22.8309L33.2426 23.0232L31.406 22.2851L30.9186 21.5436L30.8945 21.5058L30.9529 21.2244C30.9907 21.2415 31.0284 21.2621 31.0593 21.2896L31.4541 20.5721C31.8042 19.9439 32.453 19.6212 32.9062 19.8478L33.8021 20.2906L33.8227 20.3009L35.3332 20.9703C35.3607 20.9772 35.3847 20.9909 35.4087 21.0012L35.9889 21.2896L36.0438 21.5058V21.5058Z" fill="url(#paint12_linear_1722_90109)"/>
<path d="M39.3471 27.2105L39.1926 25.8545C39.1548 25.5353 38.9935 25.3121 38.7635 25.216C38.7566 25.2126 38.7498 25.2092 38.7463 25.2092C38.5472 25.1336 38.3001 25.1474 38.0426 25.2744L36.872 25.858C36.6317 25.2641 36.3056 24.7526 35.9074 24.3338L36.0824 24.018L36.6283 23.0396C36.975 22.4148 36.8892 21.7283 36.436 21.5086L35.9898 21.2889L35.4096 21.0005C35.3856 20.9902 35.3615 20.9765 35.3341 20.9696C34.8878 20.8117 34.2905 21.1344 33.961 21.7248L33.2435 23.0224C32.6942 22.9538 32.1072 22.9847 31.503 23.1117L31.4069 22.2844L31.3589 21.8553C31.328 21.5978 31.2215 21.4056 31.0602 21.2889C31.0293 21.2614 30.9915 21.2408 30.9538 21.2236C30.9469 21.2202 30.9366 21.2168 30.9298 21.2133C30.7512 21.1309 30.535 21.1275 30.305 21.2168C30.2741 21.2305 30.2398 21.2442 30.2089 21.258L28.925 21.8827C28.6778 22.0029 28.4615 22.2089 28.3071 22.4492C28.0977 22.765 27.9878 23.1426 28.0256 23.4859L28.1698 24.7492C27.672 25.1439 27.2017 25.5936 26.776 26.0845C26.673 26.1978 26.5769 26.3145 26.4808 26.4312L25.5436 25.9575C25.499 25.9335 25.4509 25.9163 25.4029 25.906H25.3926C24.9566 25.8065 24.4039 26.1292 24.095 26.6921L23.3123 28.1271C22.9656 28.7621 23.0514 29.4659 23.5045 29.689L23.9542 29.9156L24.4451 30.1627C24.2083 30.8665 24.0504 31.5839 23.9714 32.298L22.8008 32.885C22.5056 33.0326 22.2584 33.3003 22.0971 33.6093C21.9735 33.8427 21.9014 34.1036 21.8945 34.3508C21.8945 34.4057 21.8945 34.4606 21.9014 34.5156L22.0593 35.9059C22.0936 36.2045 22.2344 36.4242 22.4369 36.5306C22.4678 36.5512 22.5021 36.565 22.5365 36.5753C22.5811 36.5924 22.6292 36.6027 22.6772 36.6062C22.8386 36.6302 23.0239 36.5959 23.2127 36.4997L23.2471 36.4792H23.2505L24.3799 35.9059C24.6236 36.51 24.9498 37.0284 25.348 37.4506L24.6339 38.7757C24.2872 39.4177 24.373 40.118 24.8262 40.3377L25.0802 40.4612L25.8492 40.8354C26.3023 41.0586 26.9511 40.7153 27.2978 40.0733L27.4111 39.8605L27.7063 39.3147L28.0118 38.7517C28.5611 38.81 29.1447 38.7689 29.7523 38.6315L29.893 39.8914C29.9239 40.1626 30.0441 40.3651 30.2192 40.4784C30.226 40.4818 30.2329 40.4853 30.2398 40.4887C30.3942 40.5848 30.5933 40.6123 30.8062 40.5574C30.8817 40.5368 30.9607 40.5059 31.043 40.4647L32.3235 39.8021C32.8865 39.5103 33.2881 38.786 33.2195 38.1784L33.0787 36.9254C33.6898 36.4277 34.2562 35.8509 34.7642 35.2193L35.698 35.669C36.1511 35.8853 36.7999 35.5454 37.1466 34.9138L37.9293 33.4857C38.276 32.8541 38.1902 32.1675 37.7371 31.9512L36.7999 31.5015C37.0368 30.8081 37.1981 30.0975 37.2771 29.3972L38.4477 28.8102C39.0141 28.5287 39.4157 27.8112 39.3471 27.2105V27.2105ZM33.7001 29.3148C33.906 31.1308 32.6977 33.2935 31.0018 34.1551C29.6047 34.8623 28.3105 34.4538 27.7784 33.266C27.6651 33.012 27.5896 32.7236 27.5518 32.4009C27.521 32.1195 27.5209 31.8311 27.5553 31.5393C27.7235 29.9327 28.8083 28.2678 30.2466 27.5538C30.2672 27.5435 30.2844 27.5332 30.305 27.5263C30.5281 27.4199 30.7478 27.3409 30.9607 27.2929C32.3578 26.9565 33.5215 27.7563 33.7001 29.3148V29.3148Z" fill="url(#paint13_linear_1722_90109)"/>
</g>
<defs>
<linearGradient id="paint0_linear_1722_90109" x1="15.4196" y1="36.1176" x2="14.788" y2="6.58833" gradientUnits="userSpaceOnUse">
<stop stop-color="#EBECF6"/>
<stop offset="1" stop-color="#AEB2DC"/>
</linearGradient>
<linearGradient id="paint1_linear_1722_90109" x1="7.82617" y1="23.1783" x2="13.0612" y2="23.1783" gradientUnits="userSpaceOnUse">
<stop stop-color="#6B5656"/>
<stop offset="1" stop-color="#353133"/>
</linearGradient>
<linearGradient id="paint2_linear_1722_90109" x1="19.2637" y1="36.1339" x2="18.6526" y2="7.68255" gradientUnits="userSpaceOnUse">
<stop stop-color="#AEB2DC"/>
<stop offset="1" stop-color="#6064BA"/>
</linearGradient>
<linearGradient id="paint3_linear_1722_90109" x1="22.9206" y1="13.865" x2="22.7868" y2="7.64471" gradientUnits="userSpaceOnUse">
<stop stop-color="#EBECF6"/>
<stop offset="1" stop-color="#AEB2DC"/>
</linearGradient>
<linearGradient id="paint4_linear_1722_90109" x1="19.4187" y1="21.4242" x2="19.3088" y2="16.2647" gradientUnits="userSpaceOnUse">
<stop stop-color="#EBECF6"/>
<stop offset="1" stop-color="#AEB2DC"/>
</linearGradient>
<linearGradient id="paint5_linear_1722_90109" x1="17.2013" y1="25.4211" x2="17.1326" y2="22.153" gradientUnits="userSpaceOnUse">
<stop stop-color="#EBECF6"/>
<stop offset="1" stop-color="#AEB2DC"/>
</linearGradient>
<linearGradient id="paint6_linear_1722_90109" x1="30.3253" y1="40.4791" x2="28.0459" y2="19.9988" gradientUnits="userSpaceOnUse">
<stop stop-color="#888BCB"/>
<stop offset="1" stop-color="#383DA9"/>
</linearGradient>
<linearGradient id="paint7_linear_1722_90109" x1="29.2296" y1="40.7435" x2="28.9103" y2="37.884" gradientUnits="userSpaceOnUse">
<stop stop-color="#6B5656"/>
<stop offset="1" stop-color="#353133"/>
</linearGradient>
<linearGradient id="paint8_linear_1722_90109" x1="23.9234" y1="40.5894" x2="23.4394" y2="36.2297" gradientUnits="userSpaceOnUse">
<stop stop-color="#6B5656"/>
<stop offset="1" stop-color="#353133"/>
</linearGradient>
<linearGradient id="paint9_linear_1722_90109" x1="21.9526" y1="33.9438" x2="21.6368" y2="31.122" gradientUnits="userSpaceOnUse">
<stop stop-color="#6B5656"/>
<stop offset="1" stop-color="#353133"/>
</linearGradient>
<linearGradient id="paint10_linear_1722_90109" x1="23.3157" y1="29.7113" x2="22.7596" y2="24.7233" gradientUnits="userSpaceOnUse">
<stop stop-color="#6B5656"/>
<stop offset="1" stop-color="#353133"/>
</linearGradient>
<linearGradient id="paint11_linear_1722_90109" x1="27.2734" y1="24.8493" x2="26.8684" y2="21.1865" gradientUnits="userSpaceOnUse">
<stop stop-color="#6B5656"/>
<stop offset="1" stop-color="#353133"/>
</linearGradient>
<linearGradient id="paint12_linear_1722_90109" x1="33.6339" y1="22.9785" x2="33.2666" y2="19.6933" gradientUnits="userSpaceOnUse">
<stop stop-color="#6B5656"/>
<stop offset="1" stop-color="#353133"/>
</linearGradient>
<linearGradient id="paint13_linear_1722_90109" x1="31.7177" y1="40.3136" x2="29.587" y2="21.1674" gradientUnits="userSpaceOnUse">
<stop stop-color="#EBECF6"/>
<stop offset="1" stop-color="#AEB2DC"/>
</linearGradient>
<clipPath id="clip0_1722_90109">
<rect width="46" height="46" fill="white" transform="translate(0 0.566406)"/>
</clipPath>
</defs>
</svg>
