<svg width="16" height="13" viewBox="0 0 16 13" fill="none" xmlns="http://www.w3.org/2000/svg">
<path d="M15.1113 4.06836H14.2363V1.84961C14.2363 1.59961 14.0488 1.41211 13.7988 1.41211H1.45508C1.20508 1.41211 1.01758 1.59961 1.01758 1.84961V4.06836H0.142578V1.84961C0.142578 1.13086 0.736328 0.537109 1.45508 0.537109H13.7988C14.5176 0.537109 15.1113 1.13086 15.1113 1.84961V4.06836ZM12.8926 12.9121H2.29883C1.58008 12.9121 0.986328 12.3184 0.986328 11.5996V4.09961H1.86133V11.5996C1.86133 11.8496 2.04883 12.0371 2.29883 12.0371H12.8926C13.1426 12.0371 13.3301 11.8496 13.3301 11.5996V4.09961H14.2051V11.5996C14.2363 12.3184 13.6426 12.9121 12.8926 12.9121" fill="#7A7979"/>
<path d="M9.36133 6.72461H5.83008C5.58008 6.72461 5.39258 6.53711 5.39258 6.28711C5.39258 6.03711 5.58008 5.84961 5.83008 5.84961H9.36133C9.61133 5.84961 9.79883 6.03711 9.79883 6.28711C9.79883 6.53711 9.61133 6.72461 9.36133 6.72461ZM0.111328 3.19336H15.1113V4.06836H0.111328V3.19336Z" fill="#7A7979"/>
</svg>
