<svg width="24" height="24" viewBox="0 0 24 24" fill="none" xmlns="http://www.w3.org/2000/svg">
<mask id="mask0_183_62" style="mask-type:alpha" maskUnits="userSpaceOnUse" x="0" y="0" width="24" height="24">
<rect width="24" height="24" fill="#D9D9D9"/>
</mask>
<g mask="url(#mask0_183_62)">
<path d="M7.14999 21.1C6.89999 20.85 6.77499 20.554 6.77499 20.212C6.77499 19.8707 6.89999 19.575 7.14999 19.325L14.475 12L7.12499 4.65C6.89166 4.41667 6.77499 4.125 6.77499 3.775C6.77499 3.425 6.89999 3.125 7.14999 2.875C7.39999 2.625 7.69599 2.5 8.03799 2.5C8.37933 2.5 8.67499 2.625 8.92499 2.875L17.325 11.3C17.425 11.4 17.496 11.5083 17.538 11.625C17.5793 11.7417 17.6 11.8667 17.6 12C17.6 12.1333 17.5793 12.2583 17.538 12.375C17.496 12.4917 17.425 12.6 17.325 12.7L8.89999 21.125C8.66666 21.3583 8.37933 21.475 8.03799 21.475C7.69599 21.475 7.39999 21.35 7.14999 21.1Z" fill="#1E1E1E"/>
</g>
</svg>
