<svg width="24" height="24" viewBox="0 0 24 24" fill="none" xmlns="http://www.w3.org/2000/svg">
<mask id="mask0_183_58" style="mask-type:alpha" maskUnits="userSpaceOnUse" x="0" y="0" width="24" height="24">
<rect width="24" height="24" transform="matrix(-1 0 0 1 24 0)" fill="#D9D9D9"/>
</mask>
<g mask="url(#mask0_183_58)">
<path d="M16.85 21.1C17.1 20.85 17.225 20.554 17.225 20.212C17.225 19.8707 17.1 19.575 16.85 19.325L9.52501 12L16.875 4.65C17.1083 4.41667 17.225 4.125 17.225 3.775C17.225 3.425 17.1 3.125 16.85 2.875C16.6 2.625 16.304 2.5 15.962 2.5C15.6207 2.5 15.325 2.625 15.075 2.875L6.675 11.3C6.575 11.4 6.50401 11.5083 6.46201 11.625C6.42067 11.7417 6.40001 11.8667 6.40001 12C6.40001 12.1333 6.42067 12.2583 6.46201 12.375C6.50401 12.4917 6.575 12.6 6.675 12.7L15.1 21.125C15.3333 21.3583 15.6207 21.475 15.962 21.475C16.304 21.475 16.6 21.35 16.85 21.1Z" fill="#1E1E1E"/>
</g>
</svg>
