<svg width="20" height="21" viewBox="0 0 20 21" fill="none" xmlns="http://www.w3.org/2000/svg">
<path d="M15.8328 8.11885V7.52981C15.8328 4.29564 13.2211 1.67383 9.99948 1.67383C6.77782 1.67383 4.16615 4.29564 4.16615 7.52981V8.11885C4.16615 8.82574 3.95772 9.51682 3.56712 10.105L2.60995 11.5463C1.73567 12.8628 2.40311 14.6523 3.9237 15.0686C7.90158 16.1577 12.0974 16.1577 16.0753 15.0686C17.5959 14.6523 18.2633 12.8628 17.389 11.5463L16.4318 10.105C16.0412 9.51682 15.8328 8.82574 15.8328 8.11885Z" stroke="#BDBCBC" stroke-width="1.5"/>
<path d="M6.25 15.8946C6.79586 17.3567 8.26871 18.4043 10 18.4043C11.7313 18.4043 13.2041 17.3567 13.75 15.8946" stroke="#BDBCBC" stroke-width="1.5" stroke-linecap="round"/>
</svg>
