<svg width="20" height="21" viewBox="0 0 20 21" fill="none" xmlns="http://www.w3.org/2000/svg">
<path d="M17.5 13.9455V9.78439C17.5 6.21055 17.5 4.42363 16.4017 3.31338C15.3033 2.20312 13.5355 2.20312 10 2.20312C6.46447 2.20312 4.6967 2.20312 3.59835 3.31338C2.5 4.42363 2.5 6.21055 2.5 9.78439V13.9455C2.5 16.526 2.5 17.8163 3.11176 18.38C3.40351 18.6489 3.77179 18.8178 4.1641 18.8627C4.98668 18.9569 5.94728 18.1072 7.86847 16.408C8.71768 15.6569 9.14229 15.2813 9.63356 15.1823C9.87548 15.1336 10.1245 15.1336 10.3664 15.1823C10.8577 15.2813 11.2823 15.6569 12.1315 16.408C14.0527 18.1072 15.0133 18.9569 15.8359 18.8627C16.2282 18.8178 16.5965 18.6489 16.8882 18.38C17.5 17.8163 17.5 16.526 17.5 13.9455Z" fill="#A9383D"/>
</svg>
