<svg width="20" height="20" viewBox="0 0 20 20" fill="white" xmlns="http://www.w3.org/2000/svg">
<path d="M19.9565 5.9341L17.6304 13.2602C17.4565 13.7819 17 14.1298 16.4565 14.1298H7.47826C6.95652 14.1298 6.45652 13.8037 6.28261 13.3254L2.84783 4.12976H0.869565C0.391304 4.12976 0 3.73845 0 3.26019C0 2.78193 0.391304 2.39062 0.869565 2.39062H3.45652C3.82609 2.39062 4.15217 2.62976 4.28261 2.97758L7.82609 12.3906H16.087L17.9348 6.52106H7.69565C7.21739 6.52106 6.82609 6.12976 6.82609 5.65149C6.82609 5.17323 7.21739 4.78193 7.69565 4.78193H19.1304C19.413 4.78193 19.6739 4.9341 19.8261 5.15149C20 5.36889 20.0435 5.67323 19.9565 5.9341ZM7.91304 15.2819C7.54348 15.2819 7.17391 15.4341 6.91304 15.695C6.65217 15.9558 6.5 16.3254 6.5 16.695C6.5 17.0645 6.65217 17.4341 6.91304 17.695C7.17391 17.9558 7.54348 18.108 7.91304 18.108C8.28261 18.108 8.65217 17.9558 8.91304 17.695C9.17391 17.4341 9.32609 17.0645 9.32609 16.695C9.32609 16.3254 9.17391 15.9558 8.91304 15.695C8.65217 15.4341 8.28261 15.2819 7.91304 15.2819ZM15.7174 15.2819C15.3478 15.2819 14.9783 15.4341 14.7174 15.695C14.4565 15.9558 14.3043 16.3254 14.3043 16.695C14.3043 17.0645 14.4565 17.4341 14.7174 17.695C14.9783 17.9558 15.3478 18.108 15.7174 18.108C16.087 18.108 16.4565 17.9558 16.7174 17.695C16.9783 17.4341 17.1304 17.0645 17.1304 16.695C17.1304 16.3254 16.9783 15.9558 16.7174 15.695C16.4565 15.4341 16.087 15.2819 15.7174 15.2819Z" fill="#efefef
"/>
</svg>
