<svg width="24" height="24" viewBox="0 0 24 24" fill="none" xmlns="http://www.w3.org/2000/svg">
<path d="M16 17C16 15.9646 16 15.4469 15.8173 15.0385C15.5737 14.494 15.1065 14.0614 14.5184 13.8358C14.0774 13.6667 13.5183 13.6667 12.4 13.6667H10.6C9.48174 13.6667 8.92261 13.6667 8.48156 13.8358C7.89349 14.0614 7.42627 14.494 7.18269 15.0385C7 15.4469 7 15.9646 7 17M13.9 9.22222C13.9 10.4495 12.8255 11.4444 11.5 11.4444C10.1745 11.4444 9.1 10.4495 9.1 9.22222C9.1 7.99492 10.1745 7 11.5 7C12.8255 7 13.9 7.99492 13.9 9.22222Z" stroke="#383536" stroke-width="1.5" stroke-linecap="round" stroke-linejoin="round"/>
<circle cx="11.5" cy="12" r="9.44737" stroke="#383536"/>
<circle cx="2.6579" cy="7.57895" r="1.6579" fill="#383536"/>
<circle cx="11.5" cy="2.60526" r="1.6579" fill="#383536"/>
<circle cx="20.3421" cy="7.57895" r="1.6579" fill="#383536"/>
<circle cx="1.6579" cy="1.6579" r="1.6579" transform="matrix(1 0 0 -1 1 18.0789)" fill="#383536"/>
<circle cx="1.6579" cy="1.6579" r="1.6579" transform="matrix(1 0 0 -1 9.8421 23.0526)" fill="#383536"/>
<circle cx="1.6579" cy="1.6579" r="1.6579" transform="matrix(1 0 0 -1 18.6842 18.0789)" fill="#383536"/>
</svg>
