<svg width="39" height="29" viewBox="0 0 39 29" fill="none" xmlns="http://www.w3.org/2000/svg">
<path d="M33.3371 7.17746C33.5857 8.63946 33.4436 10.1666 33.0115 11.522C32.4966 13.1498 31.5495 14.523 30.3243 15.251C30.2059 15.328 30.0816 15.3931 29.9514 15.4523L29.7857 15.5233L29.543 15.6357L28.229 16.2395L26.0685 17.2398L24.3106 18.0448L22.7598 18.761L20.9012 19.6133L20.4632 19.8146L15.3847 22.1526C15.3847 22.1526 15.3728 22.1585 15.3492 22.1763C15.2722 22.2118 15.071 22.3006 14.7691 22.4367C13.2479 23.1292 9.24665 24.9405 6.91455 25.9881L8.17531 28.3202L3.27435 26.9292H3.2566C1.78276 26.5563 0.664062 25.0352 0.664062 22.8392C0.664062 19.0747 4.01423 17.4647 4.01423 17.4647C4.01423 17.4647 3.5999 9.48588 7.82608 4.15283C8.35288 3.4899 8.9507 2.86841 9.63139 2.3061C9.93918 2.05158 10.2588 1.81482 10.5962 1.5899C12.4252 0.370577 14.0884 -0.0437548 15.5504 0.00359745C16.1305 0.0272736 16.675 0.121978 17.19 0.269954L17.1781 0.258116L22.0377 1.64317L20.5638 2.20548C20.5993 2.23507 20.6349 2.27058 20.6704 2.30018C21.7654 3.30641 22.3573 4.25938 22.3573 4.25938C22.4106 4.20611 22.4579 4.15283 22.5053 4.1114C22.8131 3.80361 23.1149 3.53134 23.4109 3.3005C25.5654 1.60765 27.4595 1.80298 29.0221 2.21139L29.1405 2.24691L33.1003 3.37744L34.1362 3.67339L32.6742 4.02854L32.1947 4.39551C32.6505 4.96374 32.9938 5.65035 33.2187 6.5678C33.2187 6.57964 33.2187 6.58555 33.2187 6.59739C33.2601 6.7868 33.3016 6.98213 33.3312 7.17154L33.3371 7.17746Z" fill="url(#paint0_linear_1722_89908)"/>
<path style="mix-blend-mode:overlay" d="M15.4439 7.35454L14.7691 22.4362C13.5853 22.9748 10.8862 24.1942 8.65475 25.2063C8.02141 25.4904 7.42951 25.7568 6.91455 25.9876L8.17531 28.3197L3.27435 26.9288H3.2566C1.78276 26.5559 0.664062 25.0347 0.664062 22.8387C0.664062 19.7786 2.87778 18.1449 3.70644 17.6359L4.01423 17.4642C4.01423 17.4642 3.5999 9.48539 7.82608 4.15234L15.4439 7.35454V7.35454Z" fill="url(#paint1_linear_1722_89908)"/>
<path style="mix-blend-mode:overlay" d="M8.65475 25.2069C8.02141 25.491 7.42951 25.7574 6.91455 25.9882L8.17531 28.3203L3.27435 26.9294H3.2566C1.78276 26.5565 0.664062 25.0353 0.664062 22.8393C0.664062 19.7792 2.87778 18.1455 3.70644 17.6365L4.01423 17.4648L8.91518 18.8617L8.65475 25.2069V25.2069Z" fill="url(#paint2_linear_1722_89908)"/>
<path style="mix-blend-mode:overlay" d="M33.0996 3.38493L27.3641 6.46283L23.4102 3.30799C25.5647 1.61514 27.4588 1.81047 29.0214 2.21889L29.1398 2.2544L33.0996 3.38493Z" fill="url(#paint3_linear_1722_89908)"/>
<path d="M37.912 12.9113C37.397 14.5391 36.45 15.9123 35.2247 16.6463C35.1064 16.7232 34.9762 16.7883 34.8459 16.8475L34.6861 16.9244L34.4434 17.0369L33.1294 17.6406L30.9631 18.641L29.211 19.446L27.6543 20.1622L25.7957 21.0145L25.3577 21.2157L23.002 22.3048L20.2792 23.5597C20.2792 23.5597 10.2465 28.1114 10.0571 28.1824C7.76047 29.0762 5.55859 27.3183 5.55859 24.2404C5.55859 20.4759 8.90876 18.8718 8.90876 18.8718C8.90876 18.8718 8.33462 7.75588 15.4907 2.99698C17.3197 1.77766 18.9829 1.36333 20.4449 1.4166C21.6702 1.45803 22.7534 1.83093 23.6708 2.32813C24.4107 2.73654 25.0381 3.23374 25.559 3.70726C26.6481 4.7135 27.2459 5.66646 27.2459 5.66646C29.8325 2.96739 32.0995 3.13904 33.9048 3.61848C34.3547 3.73686 35.1774 4.1867 35.1774 4.1867C36.6216 5.12783 37.6397 6.03344 38.1132 8.00448C38.1547 8.19388 38.1961 8.38921 38.2257 8.57862C38.4743 10.0406 38.3322 11.5677 37.9001 12.9173L37.912 12.9113Z" fill="url(#paint4_linear_1722_89908)"/>
<path style="mix-blend-mode:overlay" d="M37.912 12.9153C37.397 14.543 36.45 15.9162 35.2247 16.6502C35.1064 16.7271 34.9761 16.7922 34.8459 16.8514L34.6861 16.9284L34.4434 17.0408L33.1294 17.6446L30.963 18.6449L29.211 19.4499L27.6543 20.1661L25.7957 21.0184L25.3577 21.2196L23.002 22.3087C24.7362 5.13765 38.1191 8.00838 38.1191 8.00838C38.1606 8.19779 38.202 8.39312 38.2316 8.58253C38.4802 10.0445 38.3381 11.5716 37.9061 12.9212L37.912 12.9153Z" fill="url(#paint5_linear_1722_89908)"/>
<defs>
<linearGradient id="paint0_linear_1722_89908" x1="0.338516" y1="14.5999" x2="34.509" y2="13.2741" gradientUnits="userSpaceOnUse">
<stop stop-color="#888BCB"/>
<stop offset="1" stop-color="#383DA9"/>
</linearGradient>
<linearGradient id="paint1_linear_1722_89908" x1="0.415463" y1="16.529" x2="15.7753" y2="15.9312" gradientUnits="userSpaceOnUse">
<stop stop-color="#6B5656"/>
<stop offset="1" stop-color="#353133"/>
</linearGradient>
<linearGradient id="paint2_linear_1722_89908" x1="0.664062" y1="23.0998" x2="9.06908" y2="22.7742" gradientUnits="userSpaceOnUse">
<stop stop-color="#6B5656"/>
<stop offset="1" stop-color="#353133"/>
</linearGradient>
<linearGradient id="paint3_linear_1722_89908" x1="23.4516" y1="4.34382" x2="33.1233" y2="3.965" gradientUnits="userSpaceOnUse">
<stop stop-color="#6B5656"/>
<stop offset="1" stop-color="#353133"/>
</linearGradient>
<linearGradient id="paint4_linear_1722_89908" x1="5.55859" y1="14.9001" x2="38.3559" y2="14.9001" gradientUnits="userSpaceOnUse">
<stop stop-color="#AEB2DC"/>
<stop offset="1" stop-color="#6064BA"/>
</linearGradient>
<linearGradient id="paint5_linear_1722_89908" x1="31.2886" y1="21.3735" x2="29.8443" y2="8.41679" gradientUnits="userSpaceOnUse">
<stop stop-color="#6B5656"/>
<stop offset="1" stop-color="#353133"/>
</linearGradient>
</defs>
</svg>
