<svg width="45" height="47" viewBox="0 0 45 47" fill="none" xmlns="http://www.w3.org/2000/svg">
<g clip-path="url(#clip0_1722_90057)">
<path d="M36.0277 19.036C35.5979 20.3096 34.7281 21.439 33.5762 22.1462C33.1968 22.383 32.7871 22.5718 32.3505 22.7057L30.6613 23.2241L27.3736 24.2333L25.5938 24.7792L8.70534 29.9662L6.66355 30.5944L7.26131 31.3393C7.26131 31.3393 7.25123 31.3393 7.24787 31.3359L4.85347 30.8003L4.26914 30.6699C2.98967 30.2614 2.01578 29.1286 1.90161 27.6009C1.68332 24.7551 4.78967 23.5674 4.97773 23.4987H4.9878C4.9878 23.4987 4.83668 14.8033 12.5639 11.3087C16.0195 9.74333 18.8471 10.0763 20.9091 10.9208C23.4412 11.9506 24.8247 13.7495 24.8247 13.7495C24.9759 13.643 25.127 13.5366 25.2747 13.4405C25.5904 13.2277 25.8994 13.0389 26.2016 12.8672C28.5221 11.5456 30.5169 11.295 32.1121 11.7069L35.0236 12.366L33.9691 12.5926C34.3117 12.8466 34.6206 13.1384 34.8927 13.4577C35.4904 14.158 35.9135 14.9887 36.1553 15.8675C36.1587 15.8812 36.1621 15.8915 36.1654 15.9053C36.4441 16.9454 36.3736 18.0371 36.0311 19.036H36.0277Z" fill="url(#paint0_linear_1722_90057)"/>
<path d="M4.85386 30.8004C4.65237 30.7729 4.45759 30.7283 4.26953 30.6699L4.85386 30.8004Z" fill="url(#paint1_linear_1722_90057)"/>
<path style="mix-blend-mode:overlay" d="M8.87661 31.4931C8.31243 31.5686 7.76168 31.5103 7.26131 31.3386C7.25459 31.3386 7.25123 31.3386 7.24787 31.3352L4.85347 30.7997C4.65198 30.7722 4.4572 30.7276 4.26914 30.6692C2.98967 30.2607 2.01578 29.1279 1.90161 27.6003C1.68332 24.7545 4.78967 23.5667 4.97772 23.498H4.9878L8.0572 24.1915L8.7087 29.9655L8.87996 31.4931H8.87661Z" fill="url(#paint2_linear_1722_90057)"/>
<path style="mix-blend-mode:overlay" d="M36.3325 12.8498L34.8885 13.4574L27.2016 16.7015L25.2706 13.4403L24.2598 11.7376V11.7342C25.0187 12.074 25.6635 12.4791 26.1907 12.867C28.5113 11.5454 30.506 11.2948 32.1012 11.7067L35.0128 12.3658C35.4829 12.4722 35.9195 12.6336 36.3191 12.8464H36.3258L36.3325 12.8498Z" fill="url(#paint3_linear_1722_90057)"/>
<path d="M38.8053 20.4336C38.1941 21.69 37.143 22.7336 35.8232 23.2622C35.6923 23.3171 35.5579 23.3652 35.4202 23.4064L35.2456 23.4613L34.987 23.5403L33.5799 23.9728L31.2628 24.6834L29.3822 25.2601L27.7199 25.7716L25.7284 26.3827L25.2617 26.5268L19.8214 28.1952L9.52173 31.3568C9.30681 31.4221 9.09188 31.4701 8.87696 31.4941C8.31278 31.5697 7.76203 31.5113 7.26166 31.3397C7.25494 31.3397 7.25158 31.3397 7.24822 31.3362C6.00904 30.9071 5.07882 29.7949 4.968 28.2982C4.743 25.3631 8.05419 24.1925 8.05419 24.1925C8.05419 24.1925 7.90307 15.4971 15.6303 12.0025C17.6016 11.11 19.368 10.8353 20.9061 10.9212C22.1923 10.9898 23.3139 11.3125 24.2643 11.7347C25.0232 12.0746 25.668 12.4797 26.1952 12.8676C27.3034 13.6846 27.8878 14.4467 27.8878 14.4467C30.7221 12.4179 33.1367 11.9373 35.0173 12.3664C35.4874 12.4728 35.924 12.6342 36.3236 12.847H36.3303C37.8146 13.6297 38.812 15.0509 39.2251 16.6025C39.2654 16.7536 39.299 16.9046 39.3225 17.0556C39.5206 18.2056 39.3124 19.3934 38.802 20.4336H38.8053Z" fill="url(#paint4_linear_1722_90057)"/>
<path opacity="0.16" d="M36.8128 21.5074L36.6617 20.1514C36.6248 19.8321 36.467 19.609 36.242 19.5129C36.2352 19.5095 36.2285 19.506 36.2252 19.506C36.1143 19.4648 35.9934 19.4511 35.8591 19.4683C35.7584 19.482 35.6476 19.5163 35.5367 19.5713L34.3916 20.1548C34.1565 19.561 33.8375 19.0495 33.4479 18.6307L33.6192 18.3148L34.1531 17.3365C34.4923 16.7117 34.4084 16.0251 33.9651 15.8054L33.5285 15.5857L32.961 15.2974C32.9375 15.2871 32.914 15.2733 32.8871 15.2665C32.4505 15.1086 31.8662 15.4313 31.5438 16.0217L30.842 17.3193C30.3046 17.2507 29.7304 17.2816 29.1393 17.4086L29.0453 16.5813L28.9983 16.1521C28.9916 16.0835 28.9781 16.0183 28.958 15.9599C28.9076 15.7986 28.8203 15.6716 28.7061 15.5857C28.6759 15.5583 28.639 15.5377 28.602 15.5205C28.5953 15.5171 28.5852 15.5136 28.5785 15.5102C28.4039 15.4278 28.1923 15.4244 27.9673 15.5136C27.9371 15.5274 27.9035 15.5411 27.8733 15.5548L26.8289 16.0732L26.6173 16.1796C26.3755 16.2998 26.164 16.5057 26.0128 16.746C25.808 17.0618 25.7005 17.4395 25.7375 17.7827L25.8785 19.046C25.3916 19.4408 24.9315 19.8905 24.5151 20.3814C24.4143 20.4947 24.3203 20.6114 24.2263 20.7281L23.3095 20.2544C23.2658 20.2304 23.2188 20.2132 23.1718 20.2029H23.1617C22.7352 20.1033 22.1946 20.426 21.8923 20.989L21.1267 22.4239C20.7875 23.059 20.8714 23.7627 21.3147 23.9859L21.7546 24.2124L22.2349 24.4596C22.077 24.9436 21.9528 25.4311 21.8688 25.922C21.8285 26.1451 21.7949 26.3717 21.7714 26.5948L20.6263 27.1818C20.3375 27.3295 20.0957 27.5972 19.9378 27.9062C19.8908 27.9989 19.8505 28.095 19.8203 28.1945L25.2606 26.5262C25.2438 26.2996 25.2505 26.0696 25.2774 25.8362C25.3143 25.4929 25.3916 25.1462 25.5058 24.8063C25.9121 23.5602 26.8054 22.4102 27.9102 21.8507C27.9304 21.8404 27.9472 21.8301 27.9673 21.8232C28.1856 21.7168 28.4005 21.6378 28.6087 21.5898C29.8043 21.2945 30.8252 21.8713 31.1778 23.0659C31.2315 23.2341 31.2684 23.416 31.2886 23.6117C31.3255 23.9584 31.3155 24.3189 31.2617 24.6827L33.5789 23.9721L34.986 23.5396L35.2446 23.4607L35.933 23.1071C36.4871 22.8256 36.88 22.1081 36.8128 21.5074V21.5074Z" fill="black"/>
<path d="M41.2627 22.4638L38.9758 21.403C38.8851 21.3309 38.7776 21.2863 38.6567 21.2726C38.4955 21.2451 38.3142 21.2795 38.1261 21.3756L36.981 21.9557C36.7459 21.3618 36.4235 20.8503 36.0373 20.435L36.2287 20.0848L36.7392 19.1408C36.7996 19.0309 36.8467 18.9177 36.8802 18.8078L37.9985 18.2551C37.975 18.2448 37.9515 18.2311 37.9246 18.2242L36.447 17.5548L36.4269 17.5445L35.5504 17.1017C35.1071 16.8751 34.4724 17.1978 34.1299 17.826L33.7437 18.5435L33.606 18.7975L33.4314 19.1202C33.2903 19.103 33.1493 19.0893 33.0049 19.0893C32.7631 19.079 32.5112 19.0893 32.2526 19.1202L33.0049 18.7598L33.6161 18.468H33.6228L33.0049 18.1727L31.2082 17.3248H31.1981C30.9933 17.215 30.7314 17.2218 30.4593 17.3557L29.5526 17.8054L29.2034 17.9805C28.9582 18.1041 28.7433 18.3135 28.5888 18.5606C28.3907 18.873 28.2866 19.2472 28.3235 19.5871L28.4646 20.8469C27.8634 21.3344 27.3093 21.9042 26.8157 22.529L25.8955 22.0587C25.4523 21.8287 24.8175 22.1583 24.4784 22.7899L23.7127 24.2248C23.4273 24.7569 23.444 25.3405 23.7161 25.646C23.7698 25.7078 23.8302 25.7559 23.9008 25.7902L24.8176 26.2605C24.5892 26.9642 24.4314 27.6817 24.3541 28.3957L23.209 28.9827C23.1855 28.9965 23.1586 29.0102 23.1351 29.0274C23.1284 29.0274 23.1217 29.0308 23.1149 29.0377C22.8664 29.1921 22.6549 29.4393 22.5138 29.7208C22.3694 30.0023 22.2989 30.3215 22.3325 30.6133L22.487 32.0036C22.5172 32.2817 22.6347 32.4877 22.8093 32.6044C22.853 32.6353 22.8967 32.6593 22.947 32.6765L25.3045 33.7921V33.7853L25.1265 32.7692C25.2944 33.0575 25.4892 33.3184 25.7041 33.5484L25.5396 33.8608L25.0023 34.8735C24.6631 35.5154 24.7504 36.2157 25.1937 36.4354L26.1944 36.9332C26.2246 36.9503 26.2582 36.9641 26.2918 36.9744H26.2952L27.6418 37.5923L27.3832 36.5075C27.4672 36.408 27.5411 36.2981 27.6082 36.1711L28.1052 35.2305L28.3034 34.8529C28.8407 34.9078 29.4149 34.8666 30.006 34.7293L30.147 35.9892C30.1571 36.099 30.184 36.1883 30.2209 36.2706V36.2775C30.2746 36.4045 30.3552 36.5006 30.456 36.5693C30.5265 36.6208 30.6071 36.6551 30.6944 36.6723L32.9142 37.733C32.9142 37.733 32.9276 37.7399 32.9343 37.7433L32.7194 35.7763C32.9444 35.6047 33.1325 35.3575 33.25 35.0898C33.3743 34.8254 33.4314 34.5405 33.4011 34.2796L33.2601 33.0232C33.8612 32.5254 34.4153 31.9487 34.909 31.3205L35.8258 31.7668C36.2657 31.983 36.9004 31.6432 37.2396 31.0115L38.0052 29.5835C38.3444 28.9518 38.2605 28.2653 37.8172 28.049L36.9037 27.6027C37.1321 26.9059 37.2899 26.1987 37.3705 25.4984L38.5123 24.908C39.0194 24.6505 39.3922 24.0326 39.4023 23.473L41.2728 22.4706C41.2728 22.4706 41.2593 22.4638 41.256 22.4638H41.2627ZM28.3336 29.7998C28.0851 29.4599 27.9172 29.0239 27.8601 28.4987C27.7896 27.8465 27.8903 27.153 28.1287 26.4905C28.4209 25.67 28.9246 24.8977 29.5526 24.3244C29.8448 24.0498 30.1605 23.8232 30.4996 23.6515C31.4601 23.1641 32.3702 23.2224 33.0049 23.7099C33.2735 23.9159 33.4952 24.1974 33.6463 24.5475C33.7605 24.8015 33.8377 25.0899 33.8746 25.4126C34.0761 27.2286 32.894 29.3947 31.2351 30.2529C30.9967 30.3765 30.7616 30.4657 30.5332 30.5206C29.6265 30.7506 28.8205 30.4726 28.3336 29.7998V29.7998Z" fill="url(#paint5_linear_1722_90057)"/>
<path style="mix-blend-mode:overlay" d="M33.4951 37.8121C33.2869 37.867 33.0921 37.8395 32.941 37.7434C32.9343 37.74 32.9276 37.7366 32.9208 37.7331L30.7011 36.6724C30.6138 36.6552 30.5332 36.6209 30.4626 36.5694L30.1738 37.1152L30.2276 36.2776V36.2707L30.288 35.2924L33.2567 35.0898H33.3205C33.3205 35.0898 33.4212 36.5866 33.4951 37.8121Z" fill="url(#paint6_linear_1722_90057)"/>
<path style="mix-blend-mode:overlay" d="M28.1544 34.7057L28.1107 35.2275L27.8958 37.7163L27.6473 37.5927L26.3007 36.9748H26.2973C26.2637 36.9645 26.2301 36.9508 26.1999 36.9336L25.1992 36.4358C24.7559 36.2161 24.6686 35.5158 25.0078 34.8739L25.5451 33.8612C25.4981 33.8578 25.451 33.8475 25.4074 33.8303L25.7096 33.5488L26.1025 33.7342H26.1059L28.1578 34.7057H28.1544Z" fill="url(#paint7_linear_1722_90057)"/>
<path style="mix-blend-mode:overlay" d="M26.8094 29.5534L25.5232 31.1187L24.9758 30.8647L22.5176 29.7216C22.6586 29.4401 22.8702 29.1929 23.1187 29.0384C23.1254 29.0316 23.1321 29.0281 23.1388 29.0281C23.1624 29.011 23.1892 28.9972 23.2127 28.9835L24.3579 28.3965L26.8094 29.5534V29.5534Z" fill="url(#paint8_linear_1722_90057)"/>
<path style="mix-blend-mode:overlay" d="M28.2085 23.1616L26.3514 26.9446L24.8201 26.2614L23.7186 25.6504C23.4466 25.3414 23.4298 24.7579 23.7153 24.2258L24.4809 22.7908C24.8201 22.1592 25.4548 21.8296 25.8981 22.0596L26.8182 22.5299L28.2018 23.1582H28.2119L28.2085 23.1616Z" fill="url(#paint9_linear_1722_90057)"/>
<path style="mix-blend-mode:overlay" d="M31.232 19.7895V21.5059L30.9163 22.0037L28.4648 20.8468L28.3238 19.587C28.2868 19.2471 28.3909 18.8729 28.5891 18.5605L31.0506 19.7037L31.232 19.7895V19.7895Z" fill="url(#paint10_linear_1722_90057)"/>
<path style="mix-blend-mode:overlay" d="M38.6193 18.7598L36.2283 20.0848L35.879 20.2771L34.0824 19.539L33.6055 18.7975L33.582 18.7598L33.6391 18.4783C33.6761 18.4954 33.713 18.516 33.7432 18.5435L34.1294 17.826C34.472 17.1978 35.1067 16.8751 35.5499 17.1017L36.4264 17.5445L36.4466 17.5548L37.9242 18.2242C37.9511 18.2311 37.9746 18.2448 37.9981 18.2551L38.5656 18.5435L38.6193 18.7598V18.7598Z" fill="url(#paint11_linear_1722_90057)"/>
<path d="M41.8505 24.4664L41.6994 23.1104C41.6624 22.7911 41.5046 22.568 41.2796 22.4719C41.2729 22.4684 41.2662 22.465 41.2628 22.465C41.068 22.3895 40.8262 22.4032 40.5744 22.5302L39.4292 23.1138C39.1941 22.5199 38.8751 22.0084 38.4856 21.5896L38.6568 21.2738L39.1908 20.2955C39.53 19.6707 39.446 18.9841 39.0027 18.7644L38.5661 18.5447L37.9986 18.2564C37.9751 18.2461 37.9516 18.2323 37.9247 18.2255C37.4882 18.0675 36.9038 18.3902 36.5814 18.9807L35.8796 20.2783C35.3423 20.2096 34.768 20.2405 34.177 20.3675L34.0829 19.5402L34.0359 19.1111C34.0057 18.8537 33.9016 18.6614 33.7438 18.5447C33.7135 18.5173 33.6766 18.4967 33.6397 18.4795C33.6329 18.4761 33.6229 18.4726 33.6161 18.4692C33.4415 18.3868 33.23 18.3834 33.005 18.4726C32.9747 18.4864 32.9411 18.5001 32.9109 18.5138L31.655 19.1386C31.4132 19.2587 31.2016 19.4647 31.0505 19.705C30.8456 20.0208 30.7382 20.3984 30.7751 20.7417L30.9161 22.005C30.4292 22.3998 29.9691 22.8495 29.5527 23.3404C29.452 23.4537 29.3579 23.5704 29.2639 23.6871L28.3471 23.2134C28.3035 23.1893 28.2564 23.1722 28.2094 23.1619H28.1994C27.7729 23.0623 27.2322 23.385 26.93 23.948L26.1643 25.3829C25.8251 26.018 25.9091 26.7217 26.3523 26.9449L26.7923 27.1714L27.2725 27.4186C27.0408 28.1223 26.8863 28.8398 26.8091 29.5538L25.6639 30.1408C25.3751 30.2884 25.1333 30.5562 24.9755 30.8652C24.8546 31.0986 24.7841 31.3595 24.7773 31.6067C24.7773 31.6616 24.7773 31.7165 24.7841 31.7714L24.9385 33.1617C24.9721 33.4604 25.1098 33.6801 25.3079 33.7865C25.3382 33.8071 25.3717 33.8208 25.4053 33.8311C25.449 33.8483 25.496 33.8586 25.543 33.862C25.7009 33.8861 25.8822 33.8517 26.0669 33.7556L26.1005 33.735H26.1038L27.2087 33.1617C27.4471 33.7659 27.7661 34.2843 28.1557 34.7065L27.4572 36.0316C27.118 36.6735 27.202 37.3738 27.6453 37.5935L27.8938 37.7171L28.646 38.0913C29.0893 38.3144 29.724 37.9711 30.0632 37.3292L30.174 37.1164L30.4628 36.5705L30.7617 36.0075C31.299 36.0659 31.8699 36.0247 32.4643 35.8874L32.602 37.1472C32.6322 37.4184 32.7497 37.621 32.921 37.7343C32.9277 37.7377 32.9344 37.7411 32.9411 37.7446C33.0923 37.8407 33.287 37.8681 33.4953 37.8132C33.5691 37.7926 33.6464 37.7617 33.727 37.7205L34.9796 37.058C35.5303 36.7662 35.9232 36.0419 35.8561 35.4343L35.7184 34.1813C36.3161 33.6835 36.8703 33.1068 37.3673 32.4752L38.2807 32.9249C38.724 33.1411 39.3587 32.8013 39.6979 32.1696L40.4635 30.7416C40.8027 30.1099 40.7188 29.4234 40.2755 29.2071L39.3587 28.7574C39.5904 28.064 39.7482 27.3534 39.8255 26.6531L40.9706 26.0661C41.5247 25.7846 41.9176 25.0671 41.8505 24.4664V24.4664ZM36.3262 26.5707C36.5277 28.3867 35.3456 30.5493 33.6867 31.411C32.3199 32.1181 31.0538 31.7096 30.5333 30.5219C30.4225 30.2678 30.3486 29.9795 30.3117 29.6568C30.2814 29.3753 30.2814 29.087 30.315 28.7952C30.4796 27.1886 31.5408 25.5237 32.9479 24.8096C32.968 24.7993 32.9848 24.789 33.005 24.7822C33.2232 24.6758 33.4382 24.5968 33.6464 24.5487C35.0132 24.2123 36.1516 25.0122 36.3262 26.5707V26.5707Z" fill="url(#paint12_linear_1722_90057)"/>
</g>
<defs>
<linearGradient id="paint0_linear_1722_90057" x1="1.88817" y1="20.7765" x2="36.3333" y2="20.7765" gradientUnits="userSpaceOnUse">
<stop stop-color="#EBECF6"/>
<stop offset="1" stop-color="#AEB2DC"/>
</linearGradient>
<linearGradient id="paint1_linear_1722_90057" x1="4.26953" y1="30.7351" x2="4.85386" y2="30.7351" gradientUnits="userSpaceOnUse">
<stop stop-color="#EBECF6"/>
<stop offset="1" stop-color="#AEB2DC"/>
</linearGradient>
<linearGradient id="paint2_linear_1722_90057" x1="1.88817" y1="27.511" x2="8.87661" y2="27.511" gradientUnits="userSpaceOnUse">
<stop stop-color="#6B5656"/>
<stop offset="1" stop-color="#353133"/>
</linearGradient>
<linearGradient id="paint3_linear_1722_90057" x1="24.2598" y1="14.1131" x2="36.3325" y2="14.1131" gradientUnits="userSpaceOnUse">
<stop stop-color="#6B5656"/>
<stop offset="1" stop-color="#353133"/>
</linearGradient>
<linearGradient id="paint4_linear_1722_90057" x1="4.95793" y1="21.2162" x2="39.3997" y2="21.2162" gradientUnits="userSpaceOnUse">
<stop stop-color="#AEB2DC"/>
<stop offset="1" stop-color="#6064BA"/>
</linearGradient>
<linearGradient id="paint5_linear_1722_90057" x1="33.025" y1="37.733" x2="30.6962" y2="17.264" gradientUnits="userSpaceOnUse">
<stop stop-color="#888BCB"/>
<stop offset="1" stop-color="#383DA9"/>
</linearGradient>
<linearGradient id="paint6_linear_1722_90057" x1="31.9537" y1="37.9975" x2="31.6275" y2="35.1395" gradientUnits="userSpaceOnUse">
<stop stop-color="#6B5656"/>
<stop offset="1" stop-color="#353133"/>
</linearGradient>
<linearGradient id="paint7_linear_1722_90057" x1="26.7607" y1="37.8433" x2="26.2662" y2="33.486" gradientUnits="userSpaceOnUse">
<stop stop-color="#6B5656"/>
<stop offset="1" stop-color="#353133"/>
</linearGradient>
<linearGradient id="paint8_linear_1722_90057" x1="24.8347" y1="31.1977" x2="24.5121" y2="28.3775" gradientUnits="userSpaceOnUse">
<stop stop-color="#6B5656"/>
<stop offset="1" stop-color="#353133"/>
</linearGradient>
<linearGradient id="paint9_linear_1722_90057" x1="26.1667" y1="26.9652" x2="25.5986" y2="21.98" gradientUnits="userSpaceOnUse">
<stop stop-color="#6B5656"/>
<stop offset="1" stop-color="#353133"/>
</linearGradient>
<linearGradient id="paint10_linear_1722_90057" x1="30.0398" y1="22.1032" x2="29.626" y2="18.4424" gradientUnits="userSpaceOnUse">
<stop stop-color="#6B5656"/>
<stop offset="1" stop-color="#353133"/>
</linearGradient>
<linearGradient id="paint11_linear_1722_90057" x1="36.2619" y1="20.2324" x2="35.8866" y2="16.949" gradientUnits="userSpaceOnUse">
<stop stop-color="#6B5656"/>
<stop offset="1" stop-color="#353133"/>
</linearGradient>
<linearGradient id="paint12_linear_1722_90057" x1="34.4024" y1="37.6109" x2="32.226" y2="18.4785" gradientUnits="userSpaceOnUse">
<stop stop-color="#EBECF6"/>
<stop offset="1" stop-color="#AEB2DC"/>
</linearGradient>
<clipPath id="clip0_1722_90057">
<rect width="45" height="46" fill="white" transform="translate(0 0.566406)"/>
</clipPath>
</defs>
</svg>
