<svg width="40" height="40" viewBox="0 0 40 40" fill="none" xmlns="http://www.w3.org/2000/svg">
<g clip-path="url(#clip0_44_969)">
<path d="M32.1111 15.462C31.728 16.5972 30.9528 17.6038 29.9261 18.2341C29.5879 18.4452 29.2227 18.6135 28.8336 18.7328L27.328 19.1949L24.3977 20.0944L22.8113 20.5809L7.75855 25.2041L5.9387 25.764L6.47148 26.428C6.47148 26.428 6.4625 26.428 6.45951 26.4249L4.32537 25.9476L3.80455 25.8314C2.66415 25.4672 1.79613 24.4575 1.69436 23.096C1.4998 20.5595 4.2685 19.5008 4.43612 19.4396H4.4451C4.4451 19.4396 4.3104 11.6894 11.1977 8.57464C14.2777 7.17941 16.798 7.4762 18.6358 8.22889C20.8927 9.1468 22.1258 10.7501 22.1258 10.7501C22.2605 10.6552 22.3952 10.5604 22.5269 10.4747C22.8083 10.285 23.0837 10.1167 23.3531 9.96374C25.4213 8.78576 27.1993 8.5624 28.6211 8.92956L31.2162 9.51702L30.2763 9.71896C30.5816 9.94538 30.857 10.2055 31.0994 10.49C31.6322 11.1142 32.0094 11.8546 32.2249 12.6379C32.2279 12.6502 32.2308 12.6593 32.2338 12.6716C32.4823 13.5987 32.4194 14.5717 32.1141 15.462H32.1111Z" fill="url(#paint0_linear_44_969)"/>
<path d="M4.32501 25.9477C4.14542 25.9232 3.97182 25.8834 3.8042 25.8314L4.32501 25.9477Z" fill="url(#paint1_linear_44_969)"/>
<path style="mix-blend-mode:overlay" d="M7.91121 26.5651C7.40835 26.6324 6.91747 26.5804 6.47148 26.4274C6.4655 26.4274 6.4625 26.4274 6.45951 26.4244L4.32537 25.947C4.14578 25.9226 3.97217 25.8828 3.80455 25.8308C2.66415 25.4667 1.79613 24.457 1.69436 23.0954C1.4998 20.5589 4.2685 19.5003 4.43612 19.4391H4.4451L7.18087 20.0571L7.76155 25.2035L7.9142 26.5651H7.91121Z" fill="url(#paint2_linear_44_969)"/>
<path style="mix-blend-mode:overlay" d="M32.3836 9.94846L31.0965 10.49L24.2451 13.3814L22.524 10.4747L21.623 8.95711V8.95405C22.2995 9.25696 22.8742 9.61801 23.3441 9.96376C25.4124 8.78577 27.1904 8.56241 28.6121 8.92958L31.2072 9.51704C31.6263 9.61189 32.0154 9.7557 32.3716 9.9454H32.3776L32.3836 9.94846Z" fill="url(#paint3_linear_44_969)"/>
<path d="M34.5861 16.7077C34.0414 17.8275 33.1045 18.7577 31.9282 19.2289C31.8114 19.2778 31.6917 19.3207 31.569 19.3574L31.4133 19.4063L31.1829 19.4767L29.9287 19.8622L27.8634 20.4956L26.1872 21.0096L24.7056 21.4655L22.9306 22.0101L22.5146 22.1386L17.6656 23.6257L8.48553 26.4436C8.29397 26.5018 8.1024 26.5446 7.91084 26.566C7.40798 26.6333 6.9171 26.5813 6.47112 26.4283C6.46513 26.4283 6.46214 26.4283 6.45914 26.4253C5.35466 26.0428 4.52554 25.0515 4.42677 23.7174C4.22622 21.1014 7.17751 20.058 7.17751 20.058C7.17751 20.058 7.04281 12.3078 13.9301 9.19304C15.6871 8.39752 17.2616 8.15274 18.6324 8.22924C19.7788 8.29043 20.7785 8.57804 21.6256 8.95439C22.3021 9.2573 22.8768 9.61834 23.3467 9.96409C24.3345 10.6923 24.8553 11.3716 24.8553 11.3716C27.3815 9.56327 29.5336 9.13491 31.2098 9.51737C31.6288 9.61222 32.018 9.75603 32.3742 9.94573H32.3801C33.7031 10.6433 34.5921 11.9101 34.9603 13.293C34.9962 13.4277 35.0261 13.5623 35.0471 13.6969C35.2237 14.7219 35.0381 15.7806 34.5831 16.7077H34.5861Z" fill="url(#paint4_linear_44_969)"/>
<path opacity="0.16" d="M32.8115 17.6648L32.6768 16.4562C32.6439 16.1717 32.5032 15.9728 32.3027 15.8871C32.2967 15.884 32.2907 15.881 32.2877 15.881C32.189 15.8443 32.0812 15.832 31.9615 15.8473C31.8717 15.8596 31.7729 15.8902 31.6741 15.9391L30.6535 16.4593C30.4439 15.9299 30.1596 15.474 29.8124 15.1008L29.965 14.8193L30.4409 13.9473C30.7432 13.3904 30.6684 12.7784 30.2733 12.5826L29.8842 12.3868L29.3784 12.1298C29.3574 12.1206 29.3364 12.1084 29.3125 12.1023C28.9234 11.9615 28.4026 12.2491 28.1152 12.7754L27.4897 13.932C27.0107 13.8708 26.4989 13.8983 25.9721 14.0115L25.8883 13.2741L25.8464 12.8917C25.8404 12.8305 25.8284 12.7723 25.8105 12.7203C25.7656 12.5765 25.6878 12.4633 25.586 12.3868C25.559 12.3623 25.5261 12.344 25.4932 12.3287C25.4872 12.3256 25.4782 12.3226 25.4722 12.3195C25.3166 12.2461 25.128 12.243 24.9275 12.3226C24.9005 12.3348 24.8706 12.347 24.8437 12.3593L23.9128 12.8213L23.7242 12.9161C23.5087 13.0232 23.3201 13.2068 23.1855 13.421C23.0029 13.7025 22.9071 14.039 22.94 14.345L23.0657 15.471C22.6317 15.8229 22.2216 16.2237 21.8505 16.6612C21.7607 16.7622 21.6769 16.8662 21.5931 16.9702L20.7759 16.548C20.737 16.5266 20.6951 16.5113 20.6532 16.5021H20.6442C20.2641 16.4134 19.7822 16.701 19.5128 17.2028L18.8304 18.4817C18.5281 19.0478 18.6029 19.675 18.998 19.8739L19.3901 20.0758L19.8181 20.2961C19.6774 20.7276 19.5667 21.162 19.4919 21.5996C19.4559 21.7985 19.426 22.0004 19.4051 22.1993L18.3844 22.7225C18.127 22.854 17.9115 23.0927 17.7708 23.3681C17.7289 23.4507 17.693 23.5364 17.666 23.6251L22.515 22.1381C22.5 21.9361 22.506 21.7311 22.5299 21.5231C22.5629 21.2171 22.6317 20.9081 22.7335 20.6052C23.0957 19.4945 23.8918 18.4695 24.8766 17.9708C24.8946 17.9616 24.9095 17.9524 24.9275 17.9463C25.122 17.8514 25.3136 17.7811 25.4992 17.7382C26.5648 17.4751 27.4747 17.9891 27.789 19.0539C27.8369 19.2038 27.8698 19.366 27.8877 19.5404C27.9207 19.8494 27.9117 20.1707 27.8638 20.495L29.9291 19.8617L31.1832 19.4761L31.4137 19.4058L32.0273 19.0906C32.5212 18.8397 32.8714 18.2002 32.8115 17.6648V17.6648Z" fill="black"/>
<path d="M36.7769 18.5172L34.7386 17.5718C34.6577 17.5075 34.562 17.4677 34.4542 17.4555C34.3105 17.431 34.1489 17.4616 33.9813 17.5473L32.9606 18.0644C32.7511 17.535 32.4637 17.0792 32.1195 16.7089L32.2901 16.3968L32.7451 15.5554C32.799 15.4575 32.8409 15.3565 32.8708 15.2586L33.8675 14.766C33.8466 14.7568 33.8256 14.7446 33.8017 14.7385L32.4847 14.1418L32.4667 14.1327L31.6855 13.738C31.2904 13.536 30.7247 13.8236 30.4194 14.3836L30.0752 15.023L29.9525 15.2495L29.7968 15.5371C29.6711 15.5218 29.5454 15.5095 29.4167 15.5095C29.2012 15.5003 28.9767 15.5095 28.7462 15.5371L29.4167 15.2158L29.9614 14.9557H29.9674L29.4167 14.6926L27.8153 13.9368H27.8063C27.6238 13.8389 27.3903 13.845 27.1478 13.9644L26.3397 14.3652L26.0284 14.5212C25.8099 14.6314 25.6183 14.818 25.4806 15.0383C25.304 15.3168 25.2113 15.6503 25.2442 15.9532L25.3699 17.0761C24.8341 17.5106 24.3402 18.0185 23.9002 18.5753L23.0801 18.1562C22.685 17.9512 22.1193 18.2449 21.817 18.8079L21.1345 20.0868C20.8801 20.5611 20.8951 21.0812 21.1375 21.3536C21.1854 21.4086 21.2393 21.4515 21.3021 21.4821L22.1193 21.9012C21.9158 22.5285 21.7751 23.168 21.7062 23.8044L20.6856 24.3276C20.6646 24.3398 20.6407 24.3521 20.6197 24.3674C20.6137 24.3674 20.6077 24.3704 20.6017 24.3765C20.3802 24.5142 20.1917 24.7345 20.066 24.9854C19.9373 25.2363 19.8744 25.5209 19.9043 25.7809L20.042 27.0201C20.069 27.268 20.1737 27.4515 20.3294 27.5556C20.3683 27.5831 20.4072 27.6045 20.4521 27.6198L22.5533 28.6142V28.6081L22.3947 27.7024C22.5443 27.9594 22.7179 28.192 22.9095 28.397L22.7628 28.6754L22.2839 29.578C21.9816 30.1502 22.0594 30.7744 22.4545 30.9702L23.3465 31.4139C23.3734 31.4292 23.4034 31.4414 23.4333 31.4506H23.4363L24.6366 32.0013L24.4061 31.0344C24.4809 30.9457 24.5468 30.8478 24.6066 30.7346L25.0496 29.8962L25.2262 29.5597C25.7051 29.6086 26.217 29.5719 26.7438 29.4495L26.8695 30.5724C26.8785 30.6703 26.9024 30.7499 26.9353 30.8233V30.8294C26.9832 30.9427 27.0551 31.0283 27.1449 31.0895C27.2077 31.1354 27.2795 31.166 27.3574 31.1813L29.3359 32.1268C29.3359 32.1268 29.3478 32.1329 29.3538 32.1359L29.1623 30.3827C29.3628 30.2297 29.5304 30.0094 29.6352 29.7708C29.7459 29.5352 29.7968 29.2812 29.7699 29.0487L29.6442 27.9289C30.1799 27.4852 30.6738 26.9712 31.1138 26.4112L31.931 26.809C32.3231 27.0018 32.8888 26.6989 33.1911 26.1359L33.8735 24.863C34.1758 24.3 34.101 23.6881 33.7059 23.4953L32.8918 23.0976C33.0953 22.4765 33.236 21.8462 33.3078 21.222L34.3255 20.6957C34.7775 20.4662 35.1097 19.9155 35.1187 19.4168L36.7859 18.5233C36.7859 18.5233 36.7739 18.5172 36.7709 18.5172H36.7769ZM25.2532 25.0558C25.0317 24.7529 24.882 24.3643 24.8311 23.8962C24.7683 23.3148 24.8581 22.6968 25.0706 22.1062C25.331 21.375 25.78 20.6865 26.3397 20.1756C26.6001 19.9308 26.8814 19.7289 27.1838 19.5759C28.0398 19.1414 28.851 19.1934 29.4167 19.6279C29.6561 19.8115 29.8537 20.0624 29.9884 20.3744C30.0901 20.6009 30.159 20.8579 30.1919 21.1455C30.3715 22.7641 29.3179 24.6947 27.8393 25.4597C27.6268 25.5698 27.4172 25.6494 27.2137 25.6983C26.4055 25.9033 25.6872 25.6555 25.2532 25.0558V25.0558Z" fill="url(#paint5_linear_44_969)"/>
<path style="mix-blend-mode:overlay" d="M29.8538 32.1972C29.6682 32.2462 29.4946 32.2217 29.3599 32.1361C29.354 32.133 29.348 32.1299 29.342 32.1269L27.3635 31.1814C27.2857 31.1661 27.2138 31.1355 27.151 31.0896L26.8936 31.5761L26.9414 30.8296V30.8234L26.9953 29.9514L29.6413 29.7709H29.6982C29.6982 29.7709 29.788 31.1049 29.8538 32.1972Z" fill="url(#paint6_linear_44_969)"/>
<path style="mix-blend-mode:overlay" d="M25.095 29.4285L25.0561 29.8936L24.8646 32.1118L24.6431 32.0017L23.4428 31.4509H23.4398C23.4099 31.4418 23.38 31.4295 23.353 31.4142L22.461 30.9706C22.0659 30.7748 21.9881 30.1506 22.2904 29.5784L22.7693 28.6758C22.7274 28.6727 22.6855 28.6636 22.6466 28.6483L22.916 28.3974L23.2662 28.5626H23.2692L25.098 29.4285H25.095Z" fill="url(#paint7_linear_44_969)"/>
<path style="mix-blend-mode:overlay" d="M23.8946 24.8361L22.7482 26.2313L22.2603 26.0049L20.0693 24.986C20.195 24.7351 20.3836 24.5148 20.6051 24.3772C20.6111 24.371 20.6171 24.368 20.6231 24.368C20.644 24.3527 20.668 24.3404 20.6889 24.3282L21.7096 23.805L23.8946 24.8361V24.8361Z" fill="url(#paint8_linear_44_969)"/>
<path style="mix-blend-mode:overlay" d="M25.1429 19.1392L23.4877 22.511L22.1228 21.9021L21.141 21.3575C20.8986 21.0821 20.8836 20.5619 21.138 20.0877L21.8205 18.8087C22.1228 18.2458 22.6885 17.952 23.0836 18.157L23.9037 18.5762L25.1369 19.1361H25.1459L25.1429 19.1392Z" fill="url(#paint9_linear_44_969)"/>
<path style="mix-blend-mode:overlay" d="M27.8369 16.1336V17.6635L27.5556 18.1072L25.3706 17.076L25.2448 15.9531C25.2119 15.6502 25.3047 15.3167 25.4813 15.0383L27.6753 16.0572L27.8369 16.1336V16.1336Z" fill="url(#paint10_linear_44_969)"/>
<path style="mix-blend-mode:overlay" d="M34.4219 15.2158L32.2908 16.3968L31.9795 16.5682L30.3781 15.9103L29.9531 15.2495L29.9321 15.2158L29.983 14.9649C30.0159 14.9802 30.0489 14.9986 30.0758 15.023L30.42 14.3836C30.7253 13.8236 31.291 13.536 31.6861 13.738L32.4674 14.1327L32.4853 14.1418L33.8023 14.7385C33.8263 14.7446 33.8472 14.7568 33.8682 14.766L34.374 15.023L34.4219 15.2158V15.2158Z" fill="url(#paint11_linear_44_969)"/>
<path d="M37.3013 20.3021L37.1666 19.0935C37.1337 18.809 36.993 18.6101 36.7925 18.5244C36.7865 18.5214 36.7805 18.5183 36.7775 18.5183C36.6039 18.451 36.3884 18.4632 36.1639 18.5765L35.1433 19.0966C34.9337 18.5673 34.6494 18.1114 34.3022 17.7381L34.4548 17.4566L34.9307 16.5846C35.2331 16.0277 35.1582 15.4158 34.7631 15.22L34.374 15.0241L33.8682 14.7671C33.8472 14.7579 33.8263 14.7457 33.8023 14.7396C33.4132 14.5988 32.8924 14.8865 32.605 15.4127L31.9795 16.5693C31.5005 16.5081 30.9887 16.5356 30.4619 16.6488L30.3781 15.9115L30.3362 15.529C30.3093 15.2995 30.2165 15.1282 30.0758 15.0241C30.0489 14.9997 30.0159 14.9813 29.983 14.966C29.977 14.9629 29.968 14.9599 29.9621 14.9568C29.8064 14.8834 29.6178 14.8803 29.4173 14.9599C29.3904 14.9721 29.3604 14.9844 29.3335 14.9966L28.214 15.5535C27.9985 15.6606 27.8099 15.8441 27.6753 16.0583C27.4927 16.3398 27.3969 16.6764 27.4298 16.9823L27.5555 18.1083C27.1215 18.4602 26.7115 18.861 26.3403 19.2985C26.2505 19.3995 26.1667 19.5035 26.0829 19.6076L25.2657 19.1853C25.2268 19.1639 25.1849 19.1486 25.143 19.1394H25.134C24.7539 19.0507 24.272 19.3383 24.0026 19.8401L23.3202 21.1191C23.0179 21.6851 23.0927 22.3123 23.4878 22.5112L23.8799 22.7132L24.3079 22.9335C24.1014 23.5607 23.9637 24.2002 23.8949 24.8366L22.8742 25.3598C22.6168 25.4914 22.4013 25.73 22.2606 26.0054C22.1528 26.2135 22.09 26.446 22.084 26.6663C22.084 26.7153 22.084 26.7642 22.09 26.8132L22.2277 28.0523C22.2576 28.3185 22.3803 28.5144 22.5569 28.6092C22.5838 28.6276 22.6138 28.6398 22.6437 28.649C22.6826 28.6643 22.7245 28.6735 22.7664 28.6765C22.9071 28.6979 23.0687 28.6673 23.2334 28.5817L23.2633 28.5633H23.2663L24.2511 28.0523C24.4636 28.5909 24.7479 29.0529 25.0951 29.4292L24.4725 30.6103C24.1702 31.1824 24.2451 31.8066 24.6402 32.0024L24.8617 32.1126L25.5321 32.4461C25.9272 32.645 26.4929 32.339 26.7953 31.7668L26.894 31.5771L27.1514 31.0906L27.4178 30.5888C27.8968 30.6409 28.4056 30.6041 28.9354 30.4817L29.0581 31.6047C29.085 31.8464 29.1898 32.0269 29.3425 32.1279C29.3484 32.1309 29.3544 32.134 29.3604 32.137C29.4951 32.2227 29.6687 32.2472 29.8543 32.1982C29.9201 32.1799 29.989 32.1523 30.0608 32.1156L31.1773 31.5251C31.6682 31.265 32.0184 30.6194 31.9585 30.0779L31.8358 28.9611C32.3686 28.5174 32.8624 28.0034 33.3054 27.4404L34.1196 27.8412C34.5147 28.034 35.0804 27.7311 35.3827 27.1681L36.0652 25.8953C36.3675 25.3323 36.2926 24.7203 35.8975 24.5276L35.0804 24.1267C35.2869 23.5087 35.4276 22.8753 35.4965 22.2512L36.5171 21.7279C37.011 21.477 37.3612 20.8376 37.3013 20.3021V20.3021ZM32.3776 22.1777C32.5571 23.7963 31.5035 25.7239 30.0249 26.4919C28.8067 27.1222 27.6782 26.7581 27.2143 25.6994C27.1155 25.473 27.0497 25.216 27.0168 24.9284C26.9898 24.6775 26.9898 24.4205 27.0197 24.1604C27.1664 22.7285 28.1123 21.2445 29.3664 20.6081C29.3844 20.5989 29.3993 20.5897 29.4173 20.5836C29.6118 20.4888 29.8034 20.4184 29.989 20.3756C31.2072 20.0757 32.2219 20.7886 32.3776 22.1777V22.1777Z" fill="url(#paint12_linear_44_969)"/>
</g>
<defs>
<linearGradient id="paint0_linear_44_969" x1="1.68238" y1="17.0133" x2="32.3835" y2="17.0133" gradientUnits="userSpaceOnUse">
<stop stop-color="#EBECF6"/>
<stop offset="1" stop-color="#AEB2DC"/>
</linearGradient>
<linearGradient id="paint1_linear_44_969" x1="3.8042" y1="25.8895" x2="4.32501" y2="25.8895" gradientUnits="userSpaceOnUse">
<stop stop-color="#EBECF6"/>
<stop offset="1" stop-color="#AEB2DC"/>
</linearGradient>
<linearGradient id="paint2_linear_44_969" x1="1.68238" y1="23.0158" x2="7.91121" y2="23.0158" gradientUnits="userSpaceOnUse">
<stop stop-color="#6B5656"/>
<stop offset="1" stop-color="#353133"/>
</linearGradient>
<linearGradient id="paint3_linear_44_969" x1="21.623" y1="11.0744" x2="32.3836" y2="11.0744" gradientUnits="userSpaceOnUse">
<stop stop-color="#6B5656"/>
<stop offset="1" stop-color="#353133"/>
</linearGradient>
<linearGradient id="paint4_linear_44_969" x1="4.41779" y1="17.4053" x2="35.1159" y2="17.4053" gradientUnits="userSpaceOnUse">
<stop stop-color="#AEB2DC"/>
<stop offset="1" stop-color="#6064BA"/>
</linearGradient>
<linearGradient id="paint5_linear_44_969" x1="29.4346" y1="32.1268" x2="27.359" y2="13.8826" gradientUnits="userSpaceOnUse">
<stop stop-color="#888BCB"/>
<stop offset="1" stop-color="#383DA9"/>
</linearGradient>
<linearGradient id="paint6_linear_44_969" x1="28.4799" y1="32.3625" x2="28.1892" y2="29.8151" gradientUnits="userSpaceOnUse">
<stop stop-color="#6B5656"/>
<stop offset="1" stop-color="#353133"/>
</linearGradient>
<linearGradient id="paint7_linear_44_969" x1="23.8529" y1="32.2251" x2="23.4121" y2="28.3414" gradientUnits="userSpaceOnUse">
<stop stop-color="#6B5656"/>
<stop offset="1" stop-color="#353133"/>
</linearGradient>
<linearGradient id="paint8_linear_44_969" x1="22.1346" y1="26.3017" x2="21.847" y2="23.788" gradientUnits="userSpaceOnUse">
<stop stop-color="#6B5656"/>
<stop offset="1" stop-color="#353133"/>
</linearGradient>
<linearGradient id="paint9_linear_44_969" x1="23.323" y1="22.5293" x2="22.8166" y2="18.086" gradientUnits="userSpaceOnUse">
<stop stop-color="#6B5656"/>
<stop offset="1" stop-color="#353133"/>
</linearGradient>
<linearGradient id="paint10_linear_44_969" x1="26.7744" y1="18.1959" x2="26.4055" y2="14.933" gradientUnits="userSpaceOnUse">
<stop stop-color="#6B5656"/>
<stop offset="1" stop-color="#353133"/>
</linearGradient>
<linearGradient id="paint11_linear_44_969" x1="32.3207" y1="16.5284" x2="31.9862" y2="13.6019" gradientUnits="userSpaceOnUse">
<stop stop-color="#6B5656"/>
<stop offset="1" stop-color="#353133"/>
</linearGradient>
<linearGradient id="paint12_linear_44_969" x1="30.6629" y1="32.0179" x2="28.723" y2="14.9651" gradientUnits="userSpaceOnUse">
<stop stop-color="#EBECF6"/>
<stop offset="1" stop-color="#AEB2DC"/>
</linearGradient>
<clipPath id="clip0_44_969">
<rect width="40" height="40" fill="white"/>
</clipPath>
</defs>
</svg>
