<svg width="24" height="25" viewBox="0 0 24 25" fill="none" xmlns="http://www.w3.org/2000/svg">
<path d="M14.381 9.56432C14.9767 9.35622 15.6178 9.24299 16.2857 9.24299C16.9404 9.24299 17.5693 9.35179 18.1551 9.55209M7.11616 12.146C6.8475 12.0938 6.56983 12.0665 6.28571 12.0665C3.91878 12.0665 2 13.9627 2 16.3018C2 18.6409 3.91878 20.5371 6.28571 20.5371H16.2857C19.4416 20.5371 22 18.0088 22 14.8901C22 12.4182 20.393 10.3173 18.1551 9.55209M7.11616 12.146C6.88706 11.5349 6.7619 10.874 6.7619 10.1842C6.7619 7.06538 9.32028 4.53711 12.4762 4.53711C15.4159 4.53711 17.8371 6.73082 18.1551 9.55209M7.11616 12.146C7.68059 12.2555 8.20528 12.4745 8.66667 12.7797" stroke="#383536" stroke-width="1.5" stroke-linecap="round"/>
</svg>
