<svg width="44" height="29" viewBox="0 0 44 29" fill="none" xmlns="http://www.w3.org/2000/svg">
<g clip-path="url(#clip0_1722_89968)">
<path d="M42.0434 2.4192L38.9698 3.2233L38.9554 10.3732C38.9554 12.148 37.8299 13.7489 36.091 14.4516C35.0665 14.8645 34.0276 15.2919 33.0102 15.7193C29.612 17.1609 26.459 18.6025 25.0521 19.5732C23.3133 20.7757 22.1011 21.3045 20.8457 21.5508L20.7808 21.5653L16.3436 22.6084C15.8962 22.7098 14.511 22.9416 13.0752 23.3763C12.1733 23.5864 11.2426 23.5429 10.3912 23.2749C10.0954 23.398 9.87893 23.4632 9.79235 23.485C9.76349 23.4922 9.74185 23.4994 9.71299 23.5139L8.67403 23.9703L7.17331 24.6512L6.94243 24.7527C6.94243 24.7527 6.44459 24.9627 5.71587 25.267L5.50664 28.4182L1.58168 26.484H1.56003L1.34358 26.3681C0.874607 26.1001 0.542717 25.6002 0.513857 24.999L0.160322 15.8425C0.131462 14.9587 0.398417 14.1256 0.903467 13.4519C1.30751 12.8941 1.87028 12.4522 2.54849 12.1915L6.43016 10.6702L6.58167 10.1848L7.07951 8.49698C7.33925 7.63493 7.7938 6.85257 8.39986 6.22234C8.60909 6.00502 8.83276 5.80218 9.07085 5.61384C9.47489 5.30959 9.91501 5.06329 10.3984 4.87494C11.827 4.31715 13.8183 3.75211 16.3219 3.57101C16.9424 3.52755 17.5413 3.67967 18.0463 3.99841L18.3782 3.82455C18.6524 3.68692 18.941 3.57826 19.244 3.49133L21.7332 2.76692C21.9352 2.70897 22.1372 2.6655 22.3392 2.63653C22.8443 2.5496 23.3638 2.55684 23.876 2.63653L26.3796 3.04944C26.7693 3.11464 27.1661 3.10739 27.5485 3.02046L27.6567 2.977H27.6639L31.8414 1.52818L35.8097 0.137323C36.5167 -0.108975 37.2454 -0.014802 37.8226 0.311181L41.5095 2.15842H41.5167L42.0434 2.4192V2.4192Z" fill="url(#paint0_linear_1722_89968)"/>
<path style="mix-blend-mode:overlay" d="M7.17331 24.6525L6.94243 24.7539C6.94243 24.7539 6.44459 24.964 5.71587 25.2682L5.50664 28.4194L1.58168 26.4852H1.56003L1.34358 26.3693C0.874607 26.1013 0.542717 25.6014 0.513857 25.0002L0.160322 15.8437C0.131462 14.9599 0.398417 14.1268 0.903467 13.4531L6.50231 16.2638L7.17331 24.6525V24.6525Z" fill="url(#paint1_linear_1722_89968)"/>
<path style="mix-blend-mode:overlay" d="M13.3272 7.86814L10.7803 12.8448L6.42969 10.6716L6.5812 10.1862L7.07904 8.49837C7.33878 7.63633 7.79332 6.85397 8.39938 6.22374C8.60862 6.00641 8.83228 5.80358 9.07038 5.61523L13.3272 7.86814Z" fill="url(#paint2_linear_1722_89968)"/>
<path style="mix-blend-mode:overlay" d="M26.4091 4.86065L22.6284 6.32395L22.0512 5.98348L18.0469 3.9986L18.3788 3.82475C18.6529 3.68711 18.9415 3.57845 19.2446 3.49152L21.7337 2.76711C21.9358 2.70916 22.1378 2.6657 22.3398 2.63672L26.4091 4.86065V4.86065Z" fill="url(#paint3_linear_1722_89968)"/>
<path style="mix-blend-mode:overlay" d="M41.5077 2.15842L32.4745 5.39652L27.6621 2.977L31.8396 1.52818L35.8079 0.137323C36.5149 -0.108975 37.2436 -0.014802 37.8208 0.311181L41.5077 2.15842V2.15842Z" fill="url(#paint4_linear_1722_89968)"/>
<path d="M43.3226 4.36974L43.3081 12.5483C43.3081 13.49 42.9907 14.381 42.4351 15.1127C41.9445 15.7647 41.2591 16.3007 40.4438 16.6267C39.4192 17.0396 38.3803 17.467 37.363 17.8944C36.1797 18.3943 35.0181 18.9013 33.9575 19.3794C31.9733 20.285 30.3211 21.118 29.4048 21.7483C28.3298 22.4944 27.4568 22.9798 26.6487 23.2912C26.1581 23.4941 25.6963 23.6245 25.2201 23.7186C25.2201 23.7259 25.2057 23.7259 25.1985 23.7259L25.1335 23.7404L21.6848 24.5517L20.6963 24.7835C20.4077 24.8487 19.7223 24.9719 18.8925 25.1675C18.438 25.2689 17.9402 25.3993 17.4351 25.5514C16.9806 25.6601 16.5116 25.6963 16.057 25.6745C15.6097 25.6601 15.1696 25.5804 14.7511 25.45C14.7511 25.45 14.7295 25.4427 14.7223 25.4427C14.4192 25.3486 14.1162 25.2182 13.842 25.066C13.5534 24.9067 13.2937 24.7256 13.0412 24.5155L13.0195 24.4938L15.4077 23.4216C15.7179 23.2043 16.0498 22.9363 16.3673 22.6103C16.7858 22.1829 17.1826 21.6613 17.5073 21.0383C18.0123 20.0459 18.3298 18.7854 18.2216 17.2642C18.2143 17.141 18.2071 17.0179 18.1999 16.8947C17.9979 12.6135 19.5491 9.58547 19.5491 9.58547L19.614 9.47681L20.6025 7.8976C21.0498 7.19493 21.6631 6.60091 22.3918 6.18076C22.399 6.18076 22.399 6.17351 22.4063 6.17351C22.7742 5.95619 23.1783 5.78958 23.6039 5.66643L26.0931 4.94202C26.2013 4.91305 26.3024 4.88407 26.4106 4.86234C27.0094 4.73194 27.6299 4.71021 28.236 4.81163L30.7396 5.22454C31.1292 5.28974 31.526 5.28249 31.9084 5.19556L32.0094 5.15934L36.2013 3.70329L40.1696 2.31243C40.5736 2.17479 40.9849 2.14581 41.3745 2.21101C41.5621 2.23274 41.7425 2.28345 41.9156 2.35589C41.9589 2.37762 42.0022 2.39935 42.0527 2.42109C42.2908 2.53699 42.5073 2.68912 42.6876 2.87022C43.0845 3.25415 43.3298 3.77573 43.3298 4.36974H43.3226Z" fill="url(#paint5_linear_1722_89968)"/>
<path style="mix-blend-mode:overlay" d="M16.0488 25.6739C15.6014 25.6594 15.1613 25.5797 14.7429 25.4493C14.447 25.5725 14.2306 25.6377 14.144 25.6594C14.1151 25.6666 14.0935 25.6739 14.0646 25.6884L13.0257 26.1447L12.1094 26.5577C12.3114 26.1955 12.9968 25.6811 12.9968 25.6811L13.8338 25.0654L17.6 22.3126L18.0112 22.0156C18.0112 22.0156 18.0329 22.0881 18.0473 22.2112C18.1123 22.7763 18.105 24.4279 16.0488 25.6739V25.6739Z" fill="url(#paint6_linear_1722_89968)"/>
<path d="M27.6582 12.1646C27.0594 12.6717 26.1575 13.215 24.9093 13.2585H24.5269C24.462 13.2512 24.397 13.244 24.3393 13.244C24.1878 13.2295 24.0363 13.2078 23.8703 13.1788C23.6972 13.1498 23.5312 13.1136 23.3725 13.0701C20.6741 12.3964 20.0175 10.5492 19.3682 12.0704C18.7044 13.6352 18.4735 14.758 18.4086 15.7939C18.3942 16.0619 18.3869 16.3227 18.3869 16.5835C18.3869 17.0471 18.4086 17.518 18.4158 18.0178C18.4302 18.8436 18.4158 19.7709 18.2643 20.9517C18.2138 21.3356 18.1272 21.6906 18.019 22.0165C17.9973 22.089 17.9757 22.1614 17.9468 22.2339C17.8891 22.386 17.8314 22.5236 17.7664 22.6613C16.9872 24.3129 15.5731 25.1098 14.7506 25.4502C14.4548 25.5734 14.2383 25.6386 14.1517 25.6603C14.1229 25.6675 14.1012 25.6748 14.0724 25.6893L13.0334 26.1457L12.1171 26.5586L11.3018 26.928C11.3018 26.928 9.10122 27.848 7.15317 28.6521C6.57597 28.8912 5.9627 28.768 5.51537 28.4203C5.1474 28.1378 4.89488 27.6959 4.87323 27.1743L4.5197 18.0178C4.49084 17.1413 4.75779 16.3082 5.25563 15.6345C5.66688 15.0767 6.22965 14.6276 6.90786 14.3668L10.7895 12.8456L10.9411 12.3602L11.4389 10.6723C11.6986 9.81029 12.1532 9.02793 12.7592 8.39769C12.9396 8.20935 13.1344 8.02825 13.3364 7.86888C13.7621 7.52841 14.2383 7.25313 14.7578 7.0503C16.1864 6.4925 18.1777 5.92747 20.6813 5.74637C21.1575 5.71015 21.6193 5.79707 22.0377 5.97818C22.0449 5.97818 22.0594 5.98542 22.0738 5.99266C22.1892 6.04337 22.2975 6.10133 22.4057 6.17377C22.4851 6.21723 22.5644 6.26794 22.6366 6.32589C22.8602 6.49975 23.055 6.70983 23.2282 6.94164C24.1445 8.26006 25.7607 10.2522 27.4851 10.9766C27.9685 11.1794 28.0623 11.8241 27.6654 12.1646H27.6582Z" fill="url(#paint7_linear_1722_89968)"/>
<path d="M33.9928 18.7495C33.9928 18.9596 33.9928 19.1697 33.9567 19.3798C33.798 20.575 33.0621 21.6689 31.9005 22.3716C30.7533 23.0742 29.3031 23.6538 28.1487 24.2333C27.2251 24.6969 26.215 25.0736 25.1905 25.1823C24.9019 25.2185 24.6061 25.2257 24.3175 25.2112C24.1083 25.204 23.9062 25.1823 23.7042 25.146C23.7042 25.146 21.4892 24.7259 21.684 24.552V24.5448C22.9899 23.7262 24.3319 22.2991 24.469 21.0894L24.8009 18.17C24.8586 17.6557 25.0895 17.1776 25.4358 16.7864C25.7533 16.4169 26.1862 16.1272 26.6912 15.9461L31.5181 14.193C32.6292 13.7946 33.8269 14.461 33.8557 15.4969C33.8918 16.5111 33.9351 17.7209 33.9784 18.7495H33.9928Z" fill="url(#paint8_linear_1722_89968)"/>
<path style="mix-blend-mode:overlay" d="M25.2201 23.7177C25.0109 24.3045 24.7223 24.8261 24.3183 25.21C24.109 25.2028 23.907 25.181 23.705 25.1448C23.705 25.1448 21.49 24.7247 21.6848 24.5508L20.6963 24.7826C20.4077 24.8478 19.7223 24.971 18.8926 25.1665C21.5693 24.261 22.7887 20.581 23.8204 18.4368C24.2245 17.6037 25.4438 16.7852 25.4438 16.7852C25.4438 16.7852 26.2014 21.0084 25.2201 23.7177V23.7177Z" fill="url(#paint9_linear_1722_89968)"/>
<path style="mix-blend-mode:overlay" d="M24.9094 13.2589C24.9094 13.2589 22.3769 13.3675 20.2124 9.74549C19.159 7.98518 17.3264 13.976 18.4087 18.0182C18.4087 18.0182 20.2269 13.1502 24.9094 13.2589Z" fill="url(#paint10_linear_1722_89968)"/>
<path style="mix-blend-mode:overlay" d="M43.322 4.36866L43.3076 12.5472C43.3076 13.4889 42.9902 14.38 42.4346 15.1116C39.1878 8.49778 41.4606 4.40488 42.6799 2.86914C43.0767 3.25308 43.322 3.77465 43.322 4.36866V4.36866Z" fill="url(#paint11_linear_1722_89968)"/>
</g>
<defs>
<linearGradient id="paint0_linear_1722_89968" x1="0.160322" y1="14.2125" x2="42.0434" y2="14.2125" gradientUnits="userSpaceOnUse">
<stop stop-color="#888BCB"/>
<stop offset="1" stop-color="#383DA9"/>
</linearGradient>
<linearGradient id="paint1_linear_1722_89968" x1="0.160322" y1="20.9362" x2="7.17331" y2="20.9362" gradientUnits="userSpaceOnUse">
<stop stop-color="#6B5656"/>
<stop offset="1" stop-color="#353133"/>
</linearGradient>
<linearGradient id="paint2_linear_1722_89968" x1="6.42969" y1="9.23002" x2="13.3272" y2="9.23002" gradientUnits="userSpaceOnUse">
<stop stop-color="#6B5656"/>
<stop offset="1" stop-color="#353133"/>
</linearGradient>
<linearGradient id="paint3_linear_1722_89968" x1="18.0469" y1="4.48396" x2="26.4091" y2="4.48396" gradientUnits="userSpaceOnUse">
<stop stop-color="#6B5656"/>
<stop offset="1" stop-color="#353133"/>
</linearGradient>
<linearGradient id="paint4_linear_1722_89968" x1="27.6621" y1="2.70172" x2="41.5077" y2="2.70172" gradientUnits="userSpaceOnUse">
<stop stop-color="#6B5656"/>
<stop offset="1" stop-color="#353133"/>
</linearGradient>
<linearGradient id="paint5_linear_1722_89968" x1="13.0123" y1="13.9319" x2="43.3226" y2="13.9319" gradientUnits="userSpaceOnUse">
<stop stop-color="#EBECF6"/>
<stop offset="1" stop-color="#AEB2DC"/>
</linearGradient>
<linearGradient id="paint6_linear_1722_89968" x1="12.1094" y1="24.2903" x2="18.069" y2="24.2903" gradientUnits="userSpaceOnUse">
<stop stop-color="#6B5656"/>
<stop offset="1" stop-color="#353133"/>
</linearGradient>
<linearGradient id="paint7_linear_1722_89968" x1="4.51248" y1="17.2572" x2="27.9107" y2="17.2572" gradientUnits="userSpaceOnUse">
<stop stop-color="#AEB2DC"/>
<stop offset="1" stop-color="#6064BA"/>
</linearGradient>
<linearGradient id="paint8_linear_1722_89968" x1="21.6768" y1="19.6478" x2="34" y2="19.6478" gradientUnits="userSpaceOnUse">
<stop stop-color="#AEB2DC"/>
<stop offset="1" stop-color="#6064BA"/>
</linearGradient>
<linearGradient id="paint9_linear_1722_89968" x1="18.8926" y1="21.0012" x2="25.7252" y2="21.0012" gradientUnits="userSpaceOnUse">
<stop stop-color="#6B5656"/>
<stop offset="1" stop-color="#353133"/>
</linearGradient>
<linearGradient id="paint10_linear_1722_89968" x1="18.0768" y1="13.7297" x2="24.9094" y2="13.7297" gradientUnits="userSpaceOnUse">
<stop stop-color="#6B5656"/>
<stop offset="1" stop-color="#353133"/>
</linearGradient>
<linearGradient id="paint11_linear_1722_89968" x1="40.7679" y1="8.99038" x2="43.322" y2="8.99038" gradientUnits="userSpaceOnUse">
<stop stop-color="#6B5656"/>
<stop offset="1" stop-color="#353133"/>
</linearGradient>
<clipPath id="clip0_1722_89968">
<rect width="43.1602" height="28.7734" fill="white" transform="translate(0.160156)"/>
</clipPath>
</defs>
</svg>
