<svg width="24" height="24" viewBox="0 0 24 24" fill="none" xmlns="http://www.w3.org/2000/svg">
<mask id="mask0_1722_90557" style="mask-type:alpha" maskUnits="userSpaceOnUse" x="0" y="0" width="24" height="24">
<rect width="24" height="24" fill="#D9D9D9"/>
</mask>
<g mask="url(#mask0_1722_90557)">
<path d="M10.502 22.625V20.5H5.30195C4.80195 20.5 4.37695 20.325 4.02695 19.975C3.67695 19.625 3.50195 19.2 3.50195 18.7V5.3C3.50195 4.8 3.67695 4.375 4.02695 4.025C4.37695 3.675 4.80195 3.5 5.30195 3.5H10.502V1.375H12.002V22.625H10.502ZM5.00195 18H10.502V11.4L5.00195 18ZM14.002 20.5V12L19.002 18V5.3C19.002 5.23333 18.9686 5.16667 18.902 5.1C18.8353 5.03333 18.7686 5 18.702 5H14.002V3.5H18.702C19.202 3.5 19.627 3.675 19.977 4.025C20.327 4.375 20.502 4.8 20.502 5.3V18.7C20.502 19.2 20.327 19.625 19.977 19.975C19.627 20.325 19.202 20.5 18.702 20.5H14.002Z" fill="white"/>
</g>
</svg>
