<svg width="24" height="25" viewBox="0 0 24 25" fill="none" xmlns="http://www.w3.org/2000/svg">
<path d="M7.58584 5.76008C8.01093 5.47604 8.45993 5.23444 8.92638 5.03723C10.0583 4.55866 10.6243 4.31938 11.3463 4.79805C12.0684 5.27672 12.0684 6.06037 12.0684 7.62766V9.24134C12.0684 10.7627 12.0684 11.5234 12.541 11.9961C13.0137 12.4687 13.7744 12.4687 15.2958 12.4687H16.9094C18.4767 12.4687 19.2604 12.4687 19.7391 13.1908C20.2177 13.9128 19.9784 14.4788 19.4999 15.6107C19.3027 16.0772 19.0611 16.5262 18.777 16.9513C17.8905 18.2781 16.6304 19.3123 15.156 19.9229C13.6817 20.5336 12.0595 20.6934 10.4943 20.3821C8.92922 20.0708 7.49157 19.3023 6.36318 18.1739C5.2348 17.0455 4.46636 15.6079 4.15504 14.0428C3.84371 12.4777 4.0035 10.8554 4.61417 9.38106C5.22485 7.90675 6.259 6.64664 7.58584 5.76008Z" stroke="#383536" stroke-width="1.5"/>
<path d="M14.085 4.6543C16.9202 5.38404 19.1523 7.61616 19.8821 10.4514" stroke="#383536" stroke-width="1.5" stroke-linecap="round"/>
</svg>
