<svg width="46" height="47" viewBox="0 0 46 47" fill="none" xmlns="http://www.w3.org/2000/svg">
<g clip-path="url(#clip0_1722_90078)">
<path d="M26.0313 25.5781L20.7036 27.164L20.4324 33.2127L17.9539 33.8169L11.4212 35.4028L11.2358 35.4475C11.0985 35.4784 10.9578 35.4543 10.8411 35.3754L10.7724 35.3273C10.7724 35.3273 10.7724 35.3273 10.7724 35.3239L5.66433 31.6405C5.37254 31.4276 5.20777 31.0878 5.2215 30.7273L5.4103 26.5187C5.4206 26.3367 5.50986 26.1685 5.64717 26.0587C5.71239 26.0072 5.79135 25.966 5.87717 25.9454L7.51463 25.5197L11.0608 24.5963L12.7051 24.1672L20.12 22.2379C20.3569 22.1796 20.5869 22.2585 20.7345 22.4199L20.9302 22.54L21.2116 22.7082L24.8573 24.8778L25.9627 25.5369C25.9627 25.5369 25.9764 25.5437 25.9833 25.5472C25.9902 25.5506 25.997 25.5575 26.0039 25.5609L26.0313 25.5781V25.5781Z" fill="url(#paint0_linear_1722_90078)"/>
<path style="mix-blend-mode:overlay" d="M12.5643 30.4904L11.4212 35.4028L11.3972 35.4989C11.1603 35.5572 10.9303 35.4817 10.7724 35.3272C10.7724 35.3272 10.7724 35.3261 10.7724 35.3238L5.66433 31.6404C5.37254 31.4275 5.20777 31.0877 5.2215 30.7272L5.4103 26.5186C5.4206 26.3367 5.50986 26.1684 5.64717 26.0586L10.9234 29.4365L12.5678 30.4904H12.5643Z" fill="url(#paint1_linear_1722_90078)"/>
<path d="M26.2965 26.1167L26.0768 30.981C26.0597 31.3895 25.7782 31.7397 25.3868 31.8461L20.4333 33.2124L17.9616 33.8371L11.398 35.4986C11.1612 35.557 10.9312 35.4815 10.7733 35.327C10.7733 35.327 10.7733 35.3259 10.7733 35.3236C10.6462 35.2 10.5707 35.0249 10.581 34.8292L10.811 29.7658C10.8144 29.6457 10.8556 29.5324 10.9243 29.4363C11.0033 29.3161 11.1268 29.2303 11.2744 29.1925L16.8906 27.7301L25.5207 25.4851C25.6786 25.4439 25.8331 25.4679 25.967 25.5366C25.9738 25.54 25.9807 25.5434 25.9876 25.5469C25.9944 25.5503 26.0013 25.5571 26.0082 25.5606C26.0185 25.5674 26.0253 25.5743 26.0356 25.5812C26.2004 25.6979 26.3103 25.8901 26.3 26.1167H26.2965Z" fill="url(#paint2_linear_1722_90078)"/>
<path d="M24.7355 28.9405C24.7583 28.431 24.4667 28.004 24.0841 27.9869C23.7016 27.9697 23.3729 28.3688 23.35 28.8783C23.3271 29.3878 23.6187 29.8147 24.0013 29.8319C24.3839 29.849 24.7126 29.4499 24.7355 28.9405Z" fill="url(#paint3_linear_1722_90078)"/>
<path d="M26.3751 18.3691L21.0473 19.9551L20.7761 26.0037L11.7649 28.1939L11.5796 28.2385C11.4423 28.2694 11.3015 28.2454 11.1848 28.1664L11.1161 28.1183C11.1161 28.1183 11.1161 28.1183 11.1161 28.1149L6.00808 24.4315C5.71629 24.2186 5.55152 23.8788 5.56525 23.5183L5.75405 19.3097C5.76435 19.1277 5.85361 18.9595 5.99092 18.8497C6.05614 18.7982 6.1351 18.757 6.22092 18.7364L20.4638 15.0289C20.7006 14.9706 20.9306 15.0495 21.0782 15.2109L26.3064 18.3279C26.3133 18.3313 26.3202 18.3348 26.327 18.3382C26.3339 18.3416 26.3408 18.3485 26.3476 18.3519L26.3751 18.3691V18.3691Z" fill="url(#paint4_linear_1722_90078)"/>
<path style="mix-blend-mode:overlay" d="M12.9081 23.2814L11.7649 28.1938L11.7409 28.2899C11.5041 28.3483 11.2741 28.2727 11.1161 28.1183C11.1161 28.1183 11.1161 28.1171 11.1161 28.1148L6.00808 24.4314C5.71629 24.2186 5.55152 23.8787 5.56525 23.5183L5.75405 19.3096C5.76435 19.1277 5.85361 18.9595 5.99092 18.8496L11.2672 22.2275L12.9115 23.2814H12.9081Z" fill="url(#paint5_linear_1722_90078)"/>
<path d="M26.6403 18.9077L26.551 20.9056L26.4206 23.772C26.4034 24.1806 26.1219 24.5307 25.7306 24.6371L24.8586 24.8774L20.777 26.0034L17.1863 26.9131L11.7418 28.2897C11.5049 28.348 11.2749 28.2725 11.117 28.118C11.117 28.118 11.117 28.1169 11.117 28.1146C10.99 27.991 10.9145 27.8159 10.9248 27.6203L11.0621 24.5959L11.1548 22.5568C11.1582 22.4367 11.1994 22.3234 11.268 22.2273C11.347 22.1071 11.4706 22.0213 11.6182 21.9835L25.8645 18.2761C26.0224 18.2349 26.1769 18.2589 26.3107 18.3276C26.3176 18.331 26.3245 18.3344 26.3313 18.3379C26.3382 18.3413 26.3451 18.3482 26.3519 18.3516C26.3622 18.3585 26.3691 18.3653 26.3794 18.3722C26.5442 18.4889 26.654 18.6811 26.6437 18.9077H26.6403Z" fill="url(#paint6_linear_1722_90078)"/>
<path d="M25.0812 21.7315C25.104 21.222 24.8124 20.7951 24.4298 20.7779C24.0473 20.7607 23.7186 21.1598 23.6957 21.6693C23.6728 22.1788 23.9644 22.6057 24.347 22.6229C24.7296 22.6401 25.0583 22.241 25.0812 21.7315Z" fill="url(#paint7_linear_1722_90078)"/>
<path opacity="0.16" d="M25.7289 24.6381L24.857 24.8784L25.9624 25.5375C25.9624 25.5375 25.9761 25.5443 25.983 25.5478C25.9898 25.5512 25.9967 25.5581 26.0036 25.5615L26.031 25.5787C26.1958 25.6988 26.3057 25.891 26.2954 26.1176L26.0757 30.9819C26.0585 31.3904 25.777 31.7406 25.3857 31.847L20.4321 33.2133L17.9604 33.8381C17.9604 33.8381 17.9604 33.8243 17.9536 33.8175C17.0233 31.5896 16.8413 29.4543 16.8379 28.1739C16.8379 28.0297 16.8551 27.8821 16.886 27.731C16.9409 27.4564 17.0439 27.1749 17.1846 26.914C17.1846 26.9106 17.1846 26.9106 17.1846 26.9072C17.1915 26.8969 17.1983 26.8831 17.2052 26.8728C17.3528 26.6016 17.5416 26.3476 17.7613 26.1416L20.9058 23.0075L21.2079 22.7088L23.9061 20.0209C24.0812 19.8355 24.294 19.7737 24.4588 19.8561C24.4622 19.8561 24.4691 19.8561 24.4725 19.8596L26.546 20.9066L26.4155 23.773C26.3983 24.1815 26.1168 24.5316 25.7255 24.6381H25.7289Z" fill="black"/>
<path d="M26.7188 11.1601L21.3911 12.7461L21.1199 18.7947L12.1087 20.9849L11.9233 21.0295C11.786 21.0604 11.6453 21.0364 11.5286 20.9574L11.4599 20.9093C11.4599 20.9093 11.4599 20.9094 11.4599 20.9059L6.35183 17.2225C6.06004 17.0096 5.89527 16.6698 5.909 16.3094L6.0978 12.1007C6.1081 11.9188 6.19736 11.7505 6.33467 11.6407C6.39989 11.5892 6.47885 11.548 6.56467 11.5274L20.8075 7.81995C21.0444 7.76159 21.2744 7.84054 21.422 8.00189L26.6502 11.1189C26.6571 11.1223 26.6639 11.1258 26.6708 11.1292C26.6777 11.1326 26.6845 11.1395 26.6914 11.1429L26.7188 11.1601V11.1601Z" fill="url(#paint8_linear_1722_90078)"/>
<path style="mix-blend-mode:overlay" d="M13.2518 16.0724L12.1087 20.9848L12.0847 21.0809C11.8478 21.1393 11.6178 21.0638 11.4599 20.9093C11.4599 20.9093 11.4599 20.9081 11.4599 20.9058L6.35183 17.2224C6.06004 17.0096 5.89527 16.6697 5.909 16.3093L6.0978 12.1006C6.1081 11.9187 6.19736 11.7505 6.33467 11.6406L11.6109 15.0185L13.2553 16.0724H13.2518Z" fill="url(#paint9_linear_1722_90078)"/>
<path d="M26.984 11.6987L26.7643 16.5631C26.7472 16.9716 26.4657 17.3217 26.0743 17.4281L21.1208 18.7944L12.0855 21.0807C11.8487 21.139 11.6187 21.0635 11.4608 20.909C11.4608 20.909 11.4608 20.9079 11.4608 20.9056C11.3337 20.782 11.2582 20.6069 11.2685 20.4113L11.4985 15.3478C11.5019 15.2277 11.5431 15.1144 11.6118 15.0183C11.6908 14.8981 11.8143 14.8123 11.9619 14.7746L26.2082 11.0671C26.3661 11.0259 26.5206 11.0499 26.6545 11.1186C26.6613 11.122 26.6682 11.1254 26.6751 11.1289C26.6819 11.1323 26.6888 11.1392 26.6957 11.1426C26.706 11.1495 26.7128 11.1563 26.7231 11.1632C26.8879 11.2799 26.9978 11.4722 26.9875 11.6987H26.984Z" fill="url(#paint10_linear_1722_90078)"/>
<path d="M25.423 14.5205C25.4458 14.0111 25.1542 13.5841 24.7716 13.5669C24.3891 13.5498 24.0604 13.9489 24.0375 14.4584C24.0146 14.9678 24.3062 15.3948 24.6888 15.412C25.0714 15.4291 25.4001 15.03 25.423 14.5205Z" fill="url(#paint11_linear_1722_90078)"/>
<path d="M27.7065 40.3528C27.7065 40.3528 27.6824 40.3803 27.6653 40.3906L29.0556 41.6779L29.0624 41.6847L29.0315 41.6676L27.0096 40.6274C26.9581 40.6171 26.9066 40.5965 26.8586 40.5725C21.5136 37.198 20.8545 31.5922 20.8477 29.1343C20.8477 28.7464 20.9609 28.3276 21.1566 27.9431C21.3111 27.6273 21.5239 27.3355 21.7711 27.1055L27.9159 20.9847C28.0978 20.7959 28.3141 20.7341 28.4823 20.8234L30.6415 21.915C30.6415 21.915 30.6518 21.915 30.6553 21.9185L34.0675 23.6418C34.5927 23.8889 34.8914 24.5618 34.8227 25.3444C34.5927 27.7749 33.5354 33.2606 28.8256 39.0483C28.4754 39.4809 28.1012 39.9168 27.7065 40.3528V40.3528Z" fill="url(#paint12_linear_1722_90078)"/>
<path style="mix-blend-mode:overlay" d="M29.0556 41.6781L29.0624 41.685L29.0315 41.6678L27.0096 40.6277C26.9581 40.6174 26.9066 40.5968 26.8586 40.5728C21.5136 37.1983 20.8545 31.5925 20.8477 29.1346C20.8477 28.7466 20.9609 28.3278 21.1566 27.9434L23.3674 28.9663L25.0597 29.7456L28.8256 39.0486L29.8177 41.5065C29.5774 41.7228 29.2753 41.7914 29.0556 41.6781V41.6781Z" fill="url(#paint13_linear_1722_90078)"/>
<path d="M36.9961 26.4392C36.7489 29.0516 35.544 35.1929 29.8798 41.4475C29.8592 41.4681 29.8386 41.4887 29.818 41.5059C29.5777 41.7222 29.2756 41.7908 29.0559 41.6775C29.0491 41.6775 29.0388 41.6707 29.0319 41.6672C23.687 38.2928 23.0244 32.6869 23.0176 30.2325C23.021 29.8171 23.148 29.3708 23.3677 28.9658C23.5188 28.6808 23.7144 28.4165 23.9444 28.2002L30.0892 22.0795C30.2643 21.8941 30.4771 21.8323 30.6419 21.9147C30.6453 21.9147 30.6522 21.9147 30.6556 21.9181L34.0679 23.6414L36.2409 24.7365C36.7661 24.9871 37.0647 25.6599 36.9961 26.4392V26.4392Z" fill="url(#paint14_linear_1722_90078)"/>
<path d="M30.6411 24.4727L34.7467 26.3744C35.114 26.5427 35.3097 26.9443 35.2273 27.3391C34.9081 28.8427 33.8954 32.6256 31.2349 36.6112C31.2349 36.6112 33.3976 31.7846 33.9297 27.7853C33.964 27.521 33.8233 27.2636 33.583 27.1434L29.8652 25.2828L30.6411 24.4727V24.4727Z" fill="url(#paint15_linear_1722_90078)"/>
</g>
<defs>
<linearGradient id="paint0_linear_1722_90078" x1="5.29702" y1="28.4719" x2="25.9043" y2="29.1997" gradientUnits="userSpaceOnUse">
<stop stop-color="#888BCB"/>
<stop offset="1" stop-color="#383DA9"/>
</linearGradient>
<linearGradient id="paint1_linear_1722_90078" x1="5.21807" y1="30.789" x2="12.5643" y2="30.789" gradientUnits="userSpaceOnUse">
<stop stop-color="#6B5656"/>
<stop offset="1" stop-color="#353133"/>
</linearGradient>
<linearGradient id="paint2_linear_1722_90078" x1="10.7389" y1="30.2189" x2="26.1318" y2="30.7613" gradientUnits="userSpaceOnUse">
<stop stop-color="#EBECF6"/>
<stop offset="1" stop-color="#AEB2DC"/>
</linearGradient>
<linearGradient id="paint3_linear_1722_90078" x1="23.3545" y1="28.8544" x2="24.7377" y2="28.9681" gradientUnits="userSpaceOnUse">
<stop stop-color="#888BCB"/>
<stop offset="1" stop-color="#383DA9"/>
</linearGradient>
<linearGradient id="paint4_linear_1722_90078" x1="5.64077" y1="21.263" x2="26.2481" y2="21.9907" gradientUnits="userSpaceOnUse">
<stop stop-color="#888BCB"/>
<stop offset="1" stop-color="#383DA9"/>
</linearGradient>
<linearGradient id="paint5_linear_1722_90078" x1="5.56182" y1="23.5801" x2="12.9081" y2="23.5801" gradientUnits="userSpaceOnUse">
<stop stop-color="#6B5656"/>
<stop offset="1" stop-color="#353133"/>
</linearGradient>
<linearGradient id="paint6_linear_1722_90078" x1="11.0827" y1="23.01" x2="26.4755" y2="23.5523" gradientUnits="userSpaceOnUse">
<stop stop-color="#EBECF6"/>
<stop offset="1" stop-color="#AEB2DC"/>
</linearGradient>
<linearGradient id="paint7_linear_1722_90078" x1="23.6968" y1="21.6453" x2="25.0801" y2="21.7555" gradientUnits="userSpaceOnUse">
<stop stop-color="#888BCB"/>
<stop offset="1" stop-color="#383DA9"/>
</linearGradient>
<linearGradient id="paint8_linear_1722_90078" x1="5.98452" y1="14.054" x2="26.5918" y2="14.7817" gradientUnits="userSpaceOnUse">
<stop stop-color="#888BCB"/>
<stop offset="1" stop-color="#383DA9"/>
</linearGradient>
<linearGradient id="paint9_linear_1722_90078" x1="5.90557" y1="16.3711" x2="13.2518" y2="16.3711" gradientUnits="userSpaceOnUse">
<stop stop-color="#6B5656"/>
<stop offset="1" stop-color="#353133"/>
</linearGradient>
<linearGradient id="paint10_linear_1722_90078" x1="11.4264" y1="15.801" x2="26.8193" y2="16.3434" gradientUnits="userSpaceOnUse">
<stop stop-color="#EBECF6"/>
<stop offset="1" stop-color="#AEB2DC"/>
</linearGradient>
<linearGradient id="paint11_linear_1722_90078" x1="24.0386" y1="14.4343" x2="25.4219" y2="14.5445" gradientUnits="userSpaceOnUse">
<stop stop-color="#888BCB"/>
<stop offset="1" stop-color="#383DA9"/>
</linearGradient>
<linearGradient id="paint12_linear_1722_90078" x1="34.0744" y1="31.8565" x2="20.6966" y2="30.3083" gradientUnits="userSpaceOnUse">
<stop stop-color="#888BCB"/>
<stop offset="1" stop-color="#383DA9"/>
</linearGradient>
<linearGradient id="paint13_linear_1722_90078" x1="30.6656" y1="35.6226" x2="20.1096" y2="34.1053" gradientUnits="userSpaceOnUse">
<stop stop-color="#6B5656"/>
<stop offset="1" stop-color="#353133"/>
</linearGradient>
<linearGradient id="paint14_linear_1722_90078" x1="37.0064" y1="31.8047" x2="23.0176" y2="31.8047" gradientUnits="userSpaceOnUse">
<stop stop-color="#AEB2DC"/>
<stop offset="1" stop-color="#6064BA"/>
</linearGradient>
<linearGradient id="paint15_linear_1722_90078" x1="34.6918" y1="31.0809" x2="29.1443" y2="30.2844" gradientUnits="userSpaceOnUse">
<stop stop-color="#888BCB"/>
<stop offset="1" stop-color="#383DA9"/>
</linearGradient>
<clipPath id="clip0_1722_90078">
<rect width="46" height="46" fill="white" transform="translate(0 0.566406)"/>
</clipPath>
</defs>
</svg>
