<svg width="23" height="42" viewBox="0 0 23 42" fill="none" xmlns="http://www.w3.org/2000/svg">
<g clip-path="url(#clip0_1722_89919)">
<path d="M21.6559 25.8293L16.8409 28.5831V30.5056C16.8409 31.4539 16.3607 32.3242 15.583 32.8503C15.4342 32.9542 15.2652 33.0451 15.0961 33.1165L14.0479 33.5777L8.84064 35.8898L7.17703 36.6303L6.52105 41.2091C6.52105 41.2091 6.48048 41.1897 6.46019 41.1832C6.46019 41.1832 6.46019 41.1832 6.44667 41.1702L1.23266 38.9424H1.21237L0.955392 38.8255H0.935104C0.590208 38.6112 0.353516 38.2475 0.353516 37.8123V31.6812C0.353516 31.1031 0.54287 30.5576 0.87424 30.1094C1.15151 29.7327 1.53698 29.421 1.99008 29.2131L15.0893 23.4522C15.1773 23.4132 15.2584 23.3872 15.3463 23.3677C15.6709 23.2963 15.9888 23.3677 16.2525 23.5171L16.2796 23.5301L19.9923 25.1084L21.48 25.7449L21.6491 25.8163L21.6559 25.8293Z" fill="url(#paint0_linear_1722_89919)"/>
<path style="mix-blend-mode:overlay" d="M9.15173 33.8303L8.84064 35.8957L7.17703 36.6361L6.52105 41.215L1.23266 38.9483H1.21237L0.955392 38.8313H0.935104C0.590208 38.617 0.353516 38.2533 0.353516 37.8181V31.687C0.353516 31.109 0.54287 30.5634 0.87424 30.1152L9.14496 33.8238L9.15173 33.8303Z" fill="url(#paint1_linear_1722_89919)"/>
<path d="M22.3116 26.8757V32.8445C22.3116 33.5329 22.0546 34.1824 21.615 34.689C21.3445 35.0072 20.9861 35.28 20.5668 35.4619L7.56898 41.2293C7.21056 41.3852 6.83185 41.3722 6.51401 41.2163C6.48696 41.2163 6.47343 41.1969 6.45315 41.1904C6.0812 40.989 5.82422 40.6123 5.82422 40.1577V34.0265C5.82422 33.4874 5.98652 32.9744 6.27732 32.5457C6.56811 32.1235 6.96711 31.7793 7.46078 31.565L20.56 25.804C20.8711 25.6611 21.189 25.6611 21.4798 25.7651L21.6488 25.8365C21.6894 25.856 21.7367 25.882 21.7773 25.9144C22.0952 26.1158 22.3048 26.4665 22.3048 26.8822L22.3116 26.8757Z" fill="url(#paint2_linear_1722_89919)"/>
<path d="M19.0791 32.6624C19.5273 32.6624 19.8906 32.139 19.8906 31.4933C19.8906 30.8476 19.5273 30.3242 19.0791 30.3242C18.6309 30.3242 18.2676 30.8476 18.2676 31.4933C18.2676 32.139 18.6309 32.6624 19.0791 32.6624Z" fill="url(#paint3_linear_1722_89919)"/>
<path d="M14.8252 34.4163C15.2734 34.4163 15.6367 33.8929 15.6367 33.2472C15.6367 32.6015 15.2734 32.0781 14.8252 32.0781C14.377 32.0781 14.0137 32.6015 14.0137 33.2472C14.0137 33.8929 14.377 34.4163 14.8252 34.4163Z" fill="url(#paint4_linear_1722_89919)"/>
<path style="mix-blend-mode:overlay" d="M19.993 25.1214L7.06955 30.7849C6.71113 30.9473 6.29184 30.9473 5.93342 30.7979L2.13281 29.2002L15.347 23.3873C15.6716 23.3158 15.9895 23.3873 16.2532 23.5367L16.2803 23.5497L19.993 25.1279V25.1214Z" fill="url(#paint5_linear_1722_89919)"/>
<path d="M21.6568 14.1509L16.8418 16.9047V18.8272C16.8418 19.7754 16.3616 20.6458 15.5839 21.1718C15.4351 21.2758 15.2661 21.3667 15.097 21.4381L14.0488 21.8993L8.84155 24.2114L7.17794 24.9519L6.52196 29.5307C6.52196 29.5307 6.48138 29.5113 6.46109 29.5048C6.46109 29.5048 6.46109 29.5048 6.44757 29.4918C6.44757 29.4918 6.42728 29.4918 6.42052 29.4788L1.2268 27.2575H1.20651L0.949532 27.1406H0.929244C0.584349 26.9263 0.347656 26.5626 0.347656 26.1274V19.9963C0.347656 19.4182 0.53701 18.8727 0.86838 18.4245C1.11184 18.0998 1.43644 17.8205 1.80839 17.6256C1.86249 17.5932 1.92335 17.5607 1.98422 17.5347L3.02567 17.0801L15.0902 11.7738C15.4892 11.5919 15.922 11.6439 16.2534 11.8452L16.2805 11.8582L19.2763 13.1312L19.6821 13.3066L21.4742 14.073L21.6432 14.1444L21.6568 14.1509Z" fill="url(#paint6_linear_1722_89919)"/>
<path style="mix-blend-mode:overlay" d="M9.15173 22.1526L8.84064 24.2179L7.17703 24.9583L6.52105 29.5372L1.23266 27.2705H1.21237L0.955392 27.1536H0.935104C0.590208 26.9393 0.353516 26.5756 0.353516 26.1404V20.0093C0.353516 19.4312 0.54287 18.8856 0.87424 18.4375L9.14496 22.1461L9.15173 22.1526Z" fill="url(#paint7_linear_1722_89919)"/>
<path d="M22.3135 15.196V21.1648C22.3135 21.6129 22.2053 22.0481 22.0024 22.4313C21.7116 23.0158 21.2044 23.5029 20.5688 23.7822L18.7361 24.5941L7.57094 29.5496C7.21252 29.7055 6.83381 29.6925 6.51596 29.5367C6.48891 29.5367 6.47539 29.5172 6.4551 29.5107C6.08315 29.3093 5.82617 28.9326 5.82617 28.478V22.3468C5.82617 21.8078 5.98848 21.2947 6.27927 20.866C6.57006 20.4438 6.96906 20.0996 7.46273 19.8853L20.562 14.1243C20.8731 13.9814 21.1909 13.9814 21.4817 14.0854L21.6508 14.1568C21.7996 14.2347 21.9348 14.3387 22.043 14.4751C22.2053 14.6764 22.3068 14.9232 22.3068 15.2025L22.3135 15.196Z" fill="url(#paint8_linear_1722_89919)"/>
<path d="M19.0811 20.9827C19.5292 20.9827 19.8926 20.4593 19.8926 19.8136C19.8926 19.1679 19.5292 18.6445 19.0811 18.6445C18.6329 18.6445 18.2695 19.1679 18.2695 19.8136C18.2695 20.4593 18.6329 20.9827 19.0811 20.9827Z" fill="url(#paint9_linear_1722_89919)"/>
<path d="M14.8271 22.7366C15.2753 22.7366 15.6387 22.2132 15.6387 21.5675C15.6387 20.9219 15.2753 20.3984 14.8271 20.3984C14.379 20.3984 14.0156 20.9219 14.0156 21.5675C14.0156 22.2132 14.379 22.7366 14.8271 22.7366Z" fill="url(#paint10_linear_1722_89919)"/>
<path style="mix-blend-mode:overlay" d="M22.0491 14.4707C22.2114 14.672 22.3129 14.9188 22.3129 15.1981V21.1669C22.3129 21.6151 22.2047 22.0502 22.0018 22.4334C21.312 21.2384 20.1691 18.3611 22.0491 14.4707V14.4707Z" fill="url(#paint11_linear_1722_89919)"/>
<path style="mix-blend-mode:overlay" d="M22.3136 26.8759V32.8447C22.3136 33.5332 22.0566 34.1827 21.6171 34.6893C20.6094 33.2019 19.2975 30.0909 21.7861 25.9082C22.104 26.1095 22.3136 26.4603 22.3136 26.8759Z" fill="url(#paint12_linear_1722_89919)"/>
<path style="mix-blend-mode:overlay" d="M19.6949 13.3196L6.4604 19.1065C6.10197 19.2689 5.68269 19.2689 5.32427 19.1195L1.81445 17.6452C1.86855 17.6127 1.92942 17.5802 1.99028 17.5542L3.03173 17.0996L15.0963 11.7933C15.4953 11.6114 15.9281 11.6634 16.2595 11.8647L16.2865 11.8777L19.2824 13.1507L19.6881 13.3261L19.6949 13.3196Z" fill="url(#paint13_linear_1722_89919)"/>
<path d="M21.6559 2.47384L16.8409 5.22766V7.15014C16.8409 8.27375 16.1578 9.29994 15.0961 9.76757L8.84064 12.5409L7.17703 13.2813L6.52105 17.8602L1.23266 15.5935H1.21237L0.955392 15.4766H0.935104C0.590208 15.2622 0.353516 14.8985 0.353516 14.4634V8.3387C0.353516 7.76066 0.54287 7.21509 0.87424 6.76694C1.15151 6.39024 1.53698 6.07849 1.99008 5.87065L15.0961 0.109707C15.4951 -0.0721496 15.9279 -0.0201906 16.2593 0.18115L16.2863 0.19414L21.6626 2.47384H21.6559Z" fill="url(#paint14_linear_1722_89919)"/>
<path style="mix-blend-mode:overlay" d="M9.15173 10.4761L8.84064 12.5415L7.17703 13.2819L6.52105 17.8608L1.23266 15.5941H1.21237L0.955392 15.4772H0.935104C0.590208 15.2629 0.353516 14.8992 0.353516 14.464V8.33934C0.353516 7.76129 0.54287 7.21572 0.87424 6.76758L9.14496 10.4761H9.15173Z" fill="url(#paint15_linear_1722_89919)"/>
<path d="M22.3116 3.52021V9.48899C22.3116 9.91115 22.2237 10.3138 22.0411 10.6711C21.757 11.2881 21.2295 11.8077 20.5668 12.0999L18.7341 12.9118L7.56898 17.8674C7.21056 18.0232 6.83185 18.0103 6.51401 17.8544C6.48696 17.8544 6.47343 17.8349 6.45315 17.8284C6.0812 17.6271 5.82422 17.2504 5.82422 16.7957V10.6646C5.82422 10.1255 5.98652 9.61239 6.27732 9.18373C6.56811 8.76156 6.96711 8.41734 7.46078 8.20301L20.5668 2.44855C20.8779 2.30567 21.1957 2.30567 21.4865 2.40958L21.6556 2.48103C21.7165 2.50701 21.7773 2.54598 21.8314 2.59144C22.1154 2.79928 22.3116 3.13701 22.3116 3.5267V3.52021Z" fill="url(#paint16_linear_1722_89919)"/>
<path d="M19.0791 9.3069C19.5273 9.3069 19.8906 8.78349 19.8906 8.13783C19.8906 7.49216 19.5273 6.96875 19.0791 6.96875C18.6309 6.96875 18.2676 7.49216 18.2676 8.13783C18.2676 8.78349 18.6309 9.3069 19.0791 9.3069Z" fill="url(#paint17_linear_1722_89919)"/>
<path d="M14.8252 11.0608C15.2734 11.0608 15.6367 10.5374 15.6367 9.89173C15.6367 9.24607 15.2734 8.72266 14.8252 8.72266C14.377 8.72266 14.0137 9.24607 14.0137 9.89173C14.0137 10.5374 14.377 11.0608 14.8252 11.0608Z" fill="url(#paint18_linear_1722_89919)"/>
<path style="mix-blend-mode:overlay" d="M22.3121 3.51925V9.48803C22.3121 9.91019 22.2242 10.3129 22.0416 10.6701C21.203 9.69586 19.4244 6.88359 21.8319 2.58398C22.116 2.79182 22.3121 3.12955 22.3121 3.51925Z" fill="url(#paint19_linear_1722_89919)"/>
</g>
<defs>
<linearGradient id="paint0_linear_1722_89919" x1="0.143873" y1="32.6944" x2="21.8965" y2="31.8073" gradientUnits="userSpaceOnUse">
<stop stop-color="#888BCB"/>
<stop offset="1" stop-color="#383DA9"/>
</linearGradient>
<linearGradient id="paint1_linear_1722_89919" x1="0.272364" y1="35.7917" x2="9.21824" y2="35.4327" gradientUnits="userSpaceOnUse">
<stop stop-color="#6B5656"/>
<stop offset="1" stop-color="#353133"/>
</linearGradient>
<linearGradient id="paint2_linear_1722_89919" x1="5.56724" y1="33.8317" x2="22.5664" y2="33.1417" gradientUnits="userSpaceOnUse">
<stop stop-color="#AEB2DC"/>
<stop offset="1" stop-color="#6064BA"/>
</linearGradient>
<linearGradient id="paint3_linear_1722_89919" x1="18.2676" y1="31.5258" x2="19.8904" y2="31.4554" gradientUnits="userSpaceOnUse">
<stop stop-color="#EBECF6"/>
<stop offset="1" stop-color="#AEB2DC"/>
</linearGradient>
<linearGradient id="paint4_linear_1722_89919" x1="14.0137" y1="33.2732" x2="15.6365" y2="33.2098" gradientUnits="userSpaceOnUse">
<stop stop-color="#EBECF6"/>
<stop offset="1" stop-color="#AEB2DC"/>
</linearGradient>
<linearGradient id="paint5_linear_1722_89919" x1="2.06519" y1="27.4661" x2="20.0651" y2="26.7409" gradientUnits="userSpaceOnUse">
<stop stop-color="#6B5656"/>
<stop offset="1" stop-color="#353133"/>
</linearGradient>
<linearGradient id="paint6_linear_1722_89919" x1="0.144777" y1="21.016" x2="21.8974" y2="20.1289" gradientUnits="userSpaceOnUse">
<stop stop-color="#888BCB"/>
<stop offset="1" stop-color="#383DA9"/>
</linearGradient>
<linearGradient id="paint7_linear_1722_89919" x1="0.353516" y1="24.1205" x2="1.01788" y2="23.7608" gradientUnits="userSpaceOnUse">
<stop stop-color="#6B5656"/>
<stop offset="1" stop-color="#353133"/>
</linearGradient>
<linearGradient id="paint8_linear_1722_89919" x1="5.56919" y1="22.152" x2="22.5683" y2="21.462" gradientUnits="userSpaceOnUse">
<stop stop-color="#EBECF6"/>
<stop offset="1" stop-color="#AEB2DC"/>
</linearGradient>
<linearGradient id="paint9_linear_1722_89919" x1="18.2695" y1="19.8461" x2="19.8923" y2="19.7757" gradientUnits="userSpaceOnUse">
<stop stop-color="#888BCB"/>
<stop offset="1" stop-color="#383DA9"/>
</linearGradient>
<linearGradient id="paint10_linear_1722_89919" x1="14.0156" y1="21.5935" x2="15.6385" y2="21.5301" gradientUnits="userSpaceOnUse">
<stop stop-color="#888BCB"/>
<stop offset="1" stop-color="#383DA9"/>
</linearGradient>
<linearGradient id="paint11_linear_1722_89919" x1="21.0077" y1="18.491" x2="22.4479" y2="18.4277" gradientUnits="userSpaceOnUse">
<stop stop-color="#6B5656"/>
<stop offset="1" stop-color="#353133"/>
</linearGradient>
<linearGradient id="paint12_linear_1722_89919" x1="20.3389" y1="30.3442" x2="22.4486" y2="30.2597" gradientUnits="userSpaceOnUse">
<stop stop-color="#6B5656"/>
<stop offset="1" stop-color="#353133"/>
</linearGradient>
<linearGradient id="paint13_linear_1722_89919" x1="1.74683" y1="15.7941" x2="19.7602" y2="15.0619" gradientUnits="userSpaceOnUse">
<stop stop-color="#6B5656"/>
<stop offset="1" stop-color="#353133"/>
</linearGradient>
<linearGradient id="paint14_linear_1722_89919" x1="0.143873" y1="9.33891" x2="21.8965" y2="8.4518" gradientUnits="userSpaceOnUse">
<stop stop-color="#888BCB"/>
<stop offset="1" stop-color="#383DA9"/>
</linearGradient>
<linearGradient id="paint15_linear_1722_89919" x1="0.272364" y1="12.4441" x2="9.21819" y2="12.078" gradientUnits="userSpaceOnUse">
<stop stop-color="#6B5656"/>
<stop offset="1" stop-color="#353133"/>
</linearGradient>
<linearGradient id="paint16_linear_1722_89919" x1="5.56724" y1="10.4762" x2="22.5664" y2="9.78623" gradientUnits="userSpaceOnUse">
<stop stop-color="#AEB2DC"/>
<stop offset="1" stop-color="#6064BA"/>
</linearGradient>
<linearGradient id="paint17_linear_1722_89919" x1="18.2676" y1="8.1703" x2="19.8904" y2="8.0999" gradientUnits="userSpaceOnUse">
<stop stop-color="#EBECF6"/>
<stop offset="1" stop-color="#AEB2DC"/>
</linearGradient>
<linearGradient id="paint18_linear_1722_89919" x1="14.0137" y1="9.91771" x2="15.6365" y2="9.85435" gradientUnits="userSpaceOnUse">
<stop stop-color="#EBECF6"/>
<stop offset="1" stop-color="#AEB2DC"/>
</linearGradient>
<linearGradient id="paint19_linear_1722_89919" x1="20.6147" y1="6.67575" x2="22.4404" y2="6.60534" gradientUnits="userSpaceOnUse">
<stop stop-color="#6B5656"/>
<stop offset="1" stop-color="#353133"/>
</linearGradient>
<clipPath id="clip0_1722_89919">
<rect width="21.9583" height="41.3333" fill="white" transform="translate(0.353516)"/>
</clipPath>
</defs>
</svg>
