<svg width="43" height="43" viewBox="0 0 43 43" fill="none" xmlns="http://www.w3.org/2000/svg">
<path d="M29.025 37.625H12.4187C11.3333 37.625 10.7906 37.625 10.5393 37.4104C10.3212 37.2241 10.2055 36.9448 10.228 36.6589C10.2539 36.3294 10.6377 35.9457 11.4052 35.1781L26.6396 19.9437C27.3491 19.2342 27.7039 18.8794 28.113 18.7465C28.4729 18.6296 28.8605 18.6296 29.2203 18.7465C29.6294 18.8794 29.9842 19.2342 30.6937 19.9437L37.625 26.875V29.025M29.025 37.625C32.0353 37.625 33.5404 37.625 34.6902 37.0392C35.7016 36.5238 36.5238 35.7016 37.0392 34.6902C37.625 33.5404 37.625 32.0353 37.625 29.025M29.025 37.625H13.975C10.9647 37.625 9.45958 37.625 8.3098 37.0392C7.29843 36.5238 6.47616 35.7016 5.96084 34.6902C5.375 33.5404 5.375 32.0353 5.375 29.025V13.975C5.375 10.9647 5.375 9.45958 5.96084 8.3098C6.47616 7.29843 7.29843 6.47616 8.3098 5.96084C9.45958 5.375 10.9647 5.375 13.975 5.375H29.025C32.0353 5.375 33.5404 5.375 34.6902 5.96084C35.7016 6.47616 36.5238 7.29843 37.0392 8.3098C37.625 9.45958 37.625 10.9647 37.625 13.975V29.025M18.8125 15.2292C18.8125 17.2082 17.2082 18.8125 15.2292 18.8125C13.2501 18.8125 11.6458 17.2082 11.6458 15.2292C11.6458 13.2501 13.2501 11.6458 15.2292 11.6458C17.2082 11.6458 18.8125 13.2501 18.8125 15.2292Z" stroke="#1E1E1E" stroke-opacity="0.2" stroke-width="2" stroke-linecap="round" stroke-linejoin="round"/>
</svg>
