<svg width="21" height="21" viewBox="0 0 21 21" fill="none" xmlns="http://www.w3.org/2000/svg">
<path d="M15.2345 8.15766L14.9845 15.7245C14.9632 16.3726 14.6902 16.9868 14.2234 17.4369C13.7566 17.887 13.1329 18.1375 12.4845 18.1352H7.73445C7.08647 18.1375 6.46305 17.8874 5.99636 17.4378C5.52966 16.9883 5.25638 16.3747 5.23445 15.727L4.98445 8.15766C4.97898 7.9919 5.03959 7.83076 5.15293 7.70968C5.26627 7.5886 5.42307 7.51751 5.58883 7.51204C5.75459 7.50657 5.91573 7.56717 6.03681 7.68051C6.15789 7.79385 6.22898 7.95065 6.23445 8.11641L6.48445 15.6852C6.4969 16.0083 6.63407 16.314 6.86716 16.5381C7.10024 16.7622 7.4111 16.8873 7.73445 16.887H12.4845C12.8082 16.8873 13.1194 16.7618 13.3526 16.5372C13.5857 16.3126 13.7226 16.0062 13.7345 15.6827L13.9845 8.11641C13.9899 7.95065 14.061 7.79385 14.1821 7.68051C14.3032 7.56717 14.4643 7.50657 14.6301 7.51204C14.7958 7.51751 14.9526 7.5886 15.066 7.70968C15.1793 7.83076 15.2399 7.9919 15.2345 8.15766V8.15766ZM16.0613 5.63954C16.0613 5.8053 15.9955 5.96427 15.8783 6.08148C15.7611 6.19869 15.6021 6.26454 15.4363 6.26454H4.7832C4.61744 6.26454 4.45847 6.19869 4.34126 6.08148C4.22405 5.96427 4.1582 5.8053 4.1582 5.63954C4.1582 5.47378 4.22405 5.31481 4.34126 5.1976C4.45847 5.08039 4.61744 5.01454 4.7832 5.01454H6.7207C6.91873 5.01507 7.10988 4.94191 7.25694 4.80929C7.404 4.67666 7.49646 4.49407 7.51633 4.29704C7.56245 3.83484 7.77899 3.40637 8.12376 3.0951C8.46853 2.78384 8.91684 2.61208 9.38133 2.61329H10.8376C11.3021 2.61208 11.7504 2.78384 12.0951 3.0951C12.4399 3.40637 12.6565 3.83484 12.7026 4.29704C12.7224 4.49407 12.8149 4.67666 12.962 4.80929C13.109 4.94191 13.3002 5.01507 13.4982 5.01454H15.4357C15.6015 5.01454 15.7604 5.08039 15.8776 5.1976C15.9949 5.31481 16.0607 5.47378 16.0607 5.63954H16.0613ZM8.60133 5.01454H11.6188C11.5367 4.82688 11.483 4.62803 11.4595 4.42454C11.444 4.27048 11.3719 4.12765 11.2571 4.02373C11.1423 3.91981 10.993 3.86219 10.8382 3.86204H9.38195C9.22712 3.86219 9.07785 3.91981 8.96308 4.02373C8.8483 4.12765 8.77619 4.27048 8.7607 4.42454C8.73697 4.62806 8.68305 4.82691 8.6007 5.01454H8.60133ZM9.2307 14.4839V9.16204C9.2307 8.99628 9.16485 8.83731 9.04764 8.7201C8.93043 8.60289 8.77146 8.53704 8.6057 8.53704C8.43994 8.53704 8.28097 8.60289 8.16376 8.7201C8.04655 8.83731 7.9807 8.99628 7.9807 9.16204V14.4864C7.9807 14.6522 8.04655 14.8111 8.16376 14.9284C8.28097 15.0456 8.43994 15.1114 8.6057 15.1114C8.77146 15.1114 8.93043 15.0456 9.04764 14.9284C9.16485 14.8111 9.2307 14.6522 9.2307 14.4864V14.4839ZM12.2395 14.4839V9.16204C12.2395 8.99628 12.1736 8.83731 12.0564 8.7201C11.9392 8.60289 11.7802 8.53704 11.6145 8.53704C11.4487 8.53704 11.2897 8.60289 11.1725 8.7201C11.0553 8.83731 10.9895 8.99628 10.9895 9.16204V14.4864C10.9895 14.6522 11.0553 14.8111 11.1725 14.9284C11.2897 15.0456 11.4487 15.1114 11.6145 15.1114C11.7802 15.1114 11.9392 15.0456 12.0564 14.9284C12.1736 14.8111 12.2395 14.6522 12.2395 14.4864V14.4839Z" fill="#B82727"/>
</svg>
