<svg width="40" height="40" viewBox="0 0 40 40" fill="none" xmlns="http://www.w3.org/2000/svg">
<path d="M20.1003 4.73625L17.2582 7.05142V26.9203C17.2582 27.3163 17.0347 27.674 16.6834 27.8496L15.9043 28.236L14.6333 28.8683L11.159 30.5959C11.159 30.5959 11.1462 30.599 11.1398 30.6054L7.9816 32.1734L7.44512 33.7125L6.84158 35.4401C6.84158 35.4401 6.832 35.4401 6.82561 35.4337L3.64505 33.9393L3.60354 33.9201C3.25547 33.7604 3 33.4124 3 32.9813V9.71785C3 9.43684 3.11496 9.17498 3.30975 8.98658C3.39278 8.90036 3.49177 8.8301 3.60035 8.77901L15.7861 3.09807C16.115 2.94479 16.4663 2.97992 16.7409 3.14278H16.7537L19.7714 4.57978L20.1003 4.73625Z" fill="url(#paint0_linear_44_968)"/>
<path d="M5.5612 19.1616V22.4986C5.5612 22.9617 5.16203 23.3097 4.72135 23.2682C4.67345 23.2682 4.62555 23.2554 4.57765 23.2395C4.24554 23.1469 4.01562 22.8435 4.01562 22.4986V19.1616C4.01562 18.9253 4.11781 18.7241 4.27428 18.5868H4.27748C4.48185 18.4048 4.77564 18.3345 5.05984 18.4399C5.36002 18.5517 5.5612 18.8391 5.5612 19.1616V19.1616Z" fill="url(#paint1_linear_44_968)"/>
<path d="M4.98307 19.3558V22.6896C4.98307 22.9259 4.88089 23.1271 4.72122 23.2676C4.53281 23.4369 4.26457 23.5103 3.99633 23.4337C3.66423 23.3379 3.4375 23.0345 3.4375 22.6896V19.3558C3.4375 18.8896 3.83986 18.5479 4.27415 18.5862H4.27735C4.34441 18.5894 4.41466 18.6053 4.48172 18.6309C4.78189 18.7459 4.98307 19.0333 4.98307 19.3558V19.3558Z" fill="url(#paint2_linear_44_968)"/>
<path style="mix-blend-mode:overlay" d="M7.4515 35.5487C7.23755 35.5806 7.0236 35.5359 6.84158 35.4401C6.83519 35.4401 6.832 35.4401 6.82561 35.4337L3.64505 33.9392L3.60354 33.9201C3.25547 33.7604 3 33.4123 3 32.9812V9.71782C3 9.4368 3.11496 9.17495 3.30975 8.98654L6.47115 10.6726L7.3589 11.1452L7.43554 31.7965L7.44512 33.7125L7.4515 35.5487V35.5487Z" fill="url(#paint3_linear_44_968)"/>
<path d="M7.4549 31.8041L7.40381 31.7881H7.407L7.4549 31.8041Z" fill="url(#paint4_linear_44_968)"/>
<path d="M20.5409 5.58V28.4666C20.5409 28.6231 20.5058 28.7732 20.4388 28.9105C20.343 29.1181 20.1769 29.2873 19.9661 29.3927L18.0406 30.3507L17.9831 30.3794L16.099 31.3151L14.943 31.8899L12.7173 32.9948L12.6119 33.0459L11.2739 33.7133L10.8492 33.924L10.268 34.2146L7.78039 35.4504C7.67501 35.5047 7.56324 35.5366 7.45147 35.5494C7.23752 35.5814 7.02357 35.5366 6.84155 35.4408C6.83516 35.4408 6.83197 35.4408 6.82558 35.4345C6.50944 35.262 6.28271 34.9331 6.28271 34.5244V11.2641C6.28271 11.0502 6.34977 10.8426 6.47112 10.6734C6.57011 10.5265 6.71062 10.4051 6.87987 10.3253L11.3984 8.21769L14.4417 6.79986L19.0656 4.64116C19.3019 4.53259 19.5478 4.51982 19.7713 4.58049C19.8895 4.60923 20.0013 4.66352 20.1003 4.73696C20.3621 4.91579 20.5409 5.21916 20.5409 5.58V5.58Z" fill="url(#paint5_linear_44_968)"/>
<path d="M11.3984 8.21688L11.6124 8.48193C12.0339 9.00244 12.7428 9.18765 13.3655 8.94177C13.9084 8.72462 14.2884 8.22327 14.3523 7.64208L14.4417 6.79904L11.3984 8.22007V8.21688Z" fill="url(#paint6_linear_44_968)"/>
<path d="M13.6462 16.9535C12.8966 18.4418 12.9203 28.1162 13.2326 32.7674L17.4183 30.4418L20.2094 29.0465L20.6741 13.2325C18.6438 13.8527 14.3958 15.4651 13.6462 16.9535Z" fill="url(#paint7_linear_44_968)" style="mix-blend-mode:overlay"/>
<path d="M34.3456 31.7557L33.1817 32.3743L26.3508 36.0096C26.0137 36.1914 25.6355 36.2588 25.2661 36.2148C24.9729 36.1855 24.6915 36.0829 24.4364 35.9129L21.8213 34.1685L21.6777 34.0717C21.4197 33.9017 21.2702 33.6085 21.2819 33.2978L21.3259 32.1192L21.6865 32.3596L22.7771 33.0867L30.2793 29.5716L30.7924 29.7768L33.1729 30.7325H33.1788L33.1846 30.7267L34.4394 29.6712C34.5068 29.6155 34.6124 29.6449 34.6388 29.7299C34.6388 29.7299 34.6476 29.7621 34.6622 29.8178C34.7414 30.1608 34.973 31.3599 34.3427 31.7586L34.3456 31.7557Z" fill="url(#paint8_linear_44_968)"/>
<path style="mix-blend-mode:overlay" d="M25.2656 34.0131V36.2148C24.9724 36.1855 24.6909 36.0829 24.4359 35.9129L21.8208 34.1685L23.3072 33.4414H23.3101L25.2656 34.0131Z" fill="url(#paint9_linear_44_968)"/>
<path d="M34.5799 12.1159L35.2688 24.3587C35.2835 24.6108 35.1457 24.8424 34.9199 24.9538L20.276 32.1189L18.5727 32.9515L18.1007 35.6428L15.4504 34.218C15.2423 34.1184 15.0928 33.9043 15.0928 33.6463L15.2863 17.6245C15.2863 17.5102 15.3214 17.3988 15.3801 17.305C15.4416 17.2053 15.5325 17.1203 15.6439 17.0675L33.5215 8.64178C33.7355 8.5421 33.9671 8.57141 34.1401 8.68868L36.7464 10.0959C36.7464 10.0959 36.7552 10.0988 36.7611 10.1018L34.5799 12.1159V12.1159Z" fill="url(#paint10_linear_44_968)"/>
<path style="mix-blend-mode:overlay" d="M34.5799 12.1159L35.2688 24.3587C35.2835 24.6108 35.1457 24.8424 34.9199 24.9538L20.276 32.1189L18.5727 32.9515L18.1007 35.6428L15.4504 34.218C15.2423 34.1184 15.0928 33.9043 15.0928 33.6463L15.2863 17.6245C15.2863 17.5102 15.3214 17.3988 15.3801 17.305C15.4416 17.2053 15.5325 17.1203 15.6439 17.0675L33.5215 8.64178C33.7355 8.5421 33.9671 8.57141 34.1401 8.68868L36.7464 10.0959C36.7464 10.0959 36.7552 10.0988 36.7611 10.1018L34.5799 12.1159V12.1159Z" fill="url(#paint11_linear_44_968)"/>
<path style="mix-blend-mode:overlay" d="M20.5194 34.8035L18.7222 35.683C18.5082 35.7857 18.2737 35.7563 18.1007 35.642L15.4504 34.2172C15.2423 34.1175 15.0928 33.9035 15.0928 33.6455L15.2863 17.6237C15.2863 17.5094 15.3214 17.398 15.3801 17.3041L18.1154 18.7612L19.1092 19.2918L20.276 32.1181L20.5194 34.8035V34.8035Z" fill="url(#paint12_linear_44_968)"/>
<path d="M34.6656 29.813C34.6598 29.8892 34.6187 29.9625 34.5396 30.0036L33.188 30.7218L33.1822 30.7277H33.1734L26.5418 34.2604C25.8558 34.6269 25.0232 34.5829 24.3782 34.1519L22.7775 33.0848L21.6869 32.3577C21.5286 32.2522 21.5462 32.0118 21.7192 31.9297L30.2446 27.9367C30.3062 27.9074 30.3765 27.9045 30.4381 27.9308L32.7102 28.8397L34.5161 29.5609C34.6275 29.6048 34.6803 29.7133 34.6656 29.813V29.813Z" fill="url(#paint13_linear_44_968)"/>
<path d="M37.9989 25.8273C38.0135 26.0765 37.8757 26.314 37.65 26.4224L36.0639 27.1993L32.9651 28.715L32.71 28.8411H32.7071L31.2852 29.5359L30.7927 29.7763L23.311 33.4409H23.308L21.8217 34.168L21.1239 34.5081L20.52 34.8042L18.7228 35.6837C18.5088 35.7863 18.2743 35.757 18.1013 35.6427C17.9342 35.5283 17.8199 35.3407 17.8228 35.115L18.0163 19.0932C18.0192 18.973 18.0544 18.8586 18.116 18.7619C18.1775 18.6651 18.2655 18.586 18.374 18.5361L36.2545 10.1104C36.4187 10.0342 36.5946 10.0342 36.747 10.0957C36.7529 10.0957 36.7558 10.0987 36.7617 10.1016C36.9698 10.1895 37.1311 10.3889 37.1428 10.641L37.2659 12.8427L37.6324 19.3189L37.9989 25.8273V25.8273Z" fill="url(#paint14_linear_44_968)"/>
<path opacity="0.16" d="M34.3457 31.7553L33.1818 32.3739V30.7292L30.7954 29.7764L32.7127 28.8412L34.5187 29.5624C34.6301 29.6064 34.6829 29.7148 34.6682 29.8145C34.7474 30.1575 34.979 31.3566 34.3486 31.7553H34.3457Z" fill="black"/>
<path style="mix-blend-mode:overlay" d="M28.8813 19.5852C29.2586 19.5852 29.5644 19.1258 29.5644 18.5591C29.5644 17.9925 29.2586 17.5331 28.8813 17.5331C28.5041 17.5331 28.1982 17.9925 28.1982 18.5591C28.1982 19.1258 28.5041 19.5852 28.8813 19.5852Z" fill="url(#paint15_linear_44_968)"/>
<path d="M28.8813 19.5852C29.2586 19.5852 29.5644 19.1258 29.5644 18.5591C29.5644 17.9925 29.2586 17.5331 28.8813 17.5331C28.5041 17.5331 28.1982 17.9925 28.1982 18.5591C28.1982 19.1258 28.5041 19.5852 28.8813 19.5852Z" fill="url(#paint16_linear_44_968)"/>
<defs>
<linearGradient id="paint0_linear_44_968" x1="11.903" y1="35.3316" x2="11.2132" y2="3.10765" gradientUnits="userSpaceOnUse">
<stop stop-color="#EBECF6"/>
<stop offset="1" stop-color="#AEB2DC"/>
</linearGradient>
<linearGradient id="paint1_linear_44_968" x1="5.05665" y1="23.2459" x2="4.52017" y2="18.4144" gradientUnits="userSpaceOnUse">
<stop stop-color="#AEB2DC"/>
<stop offset="1" stop-color="#6064BA"/>
</linearGradient>
<linearGradient id="paint2_linear_44_968" x1="4.47853" y1="23.44" x2="3.94205" y2="18.6085" gradientUnits="userSpaceOnUse">
<stop stop-color="#EBECF6"/>
<stop offset="1" stop-color="#AEB2DC"/>
</linearGradient>
<linearGradient id="paint3_linear_44_968" x1="3" y1="22.274" x2="7.4515" y2="22.274" gradientUnits="userSpaceOnUse">
<stop stop-color="#6B5656"/>
<stop offset="1" stop-color="#353133"/>
</linearGradient>
<linearGradient id="paint4_linear_44_968" x1="7.42936" y1="31.8041" x2="7.42936" y2="31.7881" gradientUnits="userSpaceOnUse">
<stop stop-color="#888BCB"/>
<stop offset="1" stop-color="#383DA9"/>
</linearGradient>
<linearGradient id="paint5_linear_44_968" x1="13.7391" y1="35.4217" x2="13.0845" y2="4.68268" gradientUnits="userSpaceOnUse">
<stop stop-color="#AEB2DC"/>
<stop offset="1" stop-color="#6064BA"/>
</linearGradient>
<linearGradient id="paint6_linear_44_968" x1="12.9536" y1="9.04715" x2="12.9057" y2="6.83098" gradientUnits="userSpaceOnUse">
<stop stop-color="#EBECF6"/>
<stop offset="1" stop-color="#AEB2DC"/>
</linearGradient>
<linearGradient id="paint7_linear_44_968" x1="12.9332" y1="21.2229" x2="20.4355" y2="22.0325" gradientUnits="userSpaceOnUse">
<stop stop-color="#56616B"/>
<stop offset="1" stop-color="#313335"/>
</linearGradient>
<linearGradient id="paint8_linear_44_968" x1="28.8652" y1="36.1267" x2="28.542" y2="29.6047" gradientUnits="userSpaceOnUse">
<stop stop-color="#AEB2DC"/>
<stop offset="1" stop-color="#6064BA"/>
</linearGradient>
<linearGradient id="paint9_linear_44_968" x1="21.8208" y1="34.8281" x2="25.2656" y2="34.8281" gradientUnits="userSpaceOnUse">
<stop stop-color="#6B5656"/>
<stop offset="1" stop-color="#353133"/>
</linearGradient>
<linearGradient id="paint10_linear_44_968" x1="27.2759" y1="35.2316" x2="23.9943" y2="9.06238" gradientUnits="userSpaceOnUse">
<stop stop-color="#AEB2DC"/>
<stop offset="1" stop-color="#6064BA"/>
</linearGradient>
<linearGradient id="paint11_linear_44_968" x1="14.826" y1="19.6504" x2="35.3333" y2="24.1769" gradientUnits="userSpaceOnUse">
<stop stop-color="#56616B"/>
<stop offset="1" stop-color="#313335"/>
</linearGradient>
<linearGradient id="paint12_linear_44_968" x1="15.026" y1="24.8474" x2="20.3768" y2="25.2815" gradientUnits="userSpaceOnUse">
<stop stop-color="#56616B"/>
<stop offset="1" stop-color="#313335"/>
</linearGradient>
<linearGradient id="paint13_linear_44_968" x1="21.5781" y1="31.2103" x2="34.668" y2="31.2103" gradientUnits="userSpaceOnUse">
<stop stop-color="#888BCB"/>
<stop offset="1" stop-color="#383DA9"/>
</linearGradient>
<linearGradient id="paint14_linear_44_968" x1="17.8228" y1="22.9" x2="37.9999" y2="22.9" gradientUnits="userSpaceOnUse">
<stop stop-color="#AEB2DC"/>
<stop offset="1" stop-color="#6064BA"/>
</linearGradient>
<linearGradient id="paint15_linear_44_968" x1="28.1982" y1="18.5591" x2="29.5674" y2="18.5591" gradientUnits="userSpaceOnUse">
<stop stop-color="#6B5656"/>
<stop offset="1" stop-color="#353133"/>
</linearGradient>
<linearGradient id="paint16_linear_44_968" x1="28.9095" y1="19.5784" x2="28.875" y2="17.5395" gradientUnits="userSpaceOnUse">
<stop stop-color="#EBECF6"/>
<stop offset="1" stop-color="#AEB2DC"/>
</linearGradient>
</defs>
</svg>
