<svg width="24" height="42" viewBox="0 0 24 42" fill="none" xmlns="http://www.w3.org/2000/svg">
<path d="M23.3723 5.29045V29.644L16.9613 32.8466L4.80777 38.9263C4.78452 38.7868 4.77289 38.6357 4.77289 38.4845V38.9437L4.80777 38.9263C4.80777 38.9263 4.80777 38.967 4.81939 38.9844C4.97632 40.0655 5.66799 40.9199 6.55727 41.3268L2.27941 39.6237L2.25616 39.6121C1.05883 39.2576 0.123047 38.1009 0.123047 36.642V11.2887C0.123047 9.91123 0.535721 8.60927 1.26226 7.52818C1.88999 6.58659 2.75602 5.81936 3.79643 5.33113L14.6073 0.268611C15.4269 -0.115002 16.2871 -0.0685032 17.0136 0.286048L21.0706 1.91349C20.4894 1.77981 19.8616 1.82631 19.2572 2.11111L16.9904 3.17476C16.5021 3.40144 16.165 3.86643 16.1069 4.40116L15.9383 5.8368C15.8628 6.45291 15.6303 7.02833 15.2757 7.51075C14.9212 7.99317 14.4388 8.38259 13.8692 8.63252C12.9682 9.02195 11.9162 8.73714 11.3408 7.94667L10.6608 7.0167C10.3876 6.63309 9.8761 6.50522 9.44599 6.70284L8.44627 7.17363C7.33612 7.69093 6.42359 8.5279 5.79005 9.55668C5.13907 10.5971 4.77289 11.8293 4.77289 13.1312V13.602L18.7224 7.37125L23.3723 5.29045V5.29045Z" fill="url(#paint0_linear_1722_89869)"/>
<path d="M4.77148 38.4844C4.77148 38.6355 4.78311 38.7866 4.80636 38.9261L4.77148 38.9435V38.4844Z" fill="url(#paint1_linear_1722_89869)"/>
<path d="M4.80859 38.9254L16.9621 32.8457C16.4506 33.3746 15.8345 33.8047 15.1429 34.107L5.72694 38.7278L6.78478 41.4072L6.69178 41.3782C6.64528 41.3607 6.6046 41.3433 6.5581 41.3259C5.65138 40.9132 4.9539 40.0355 4.80859 38.9254Z" fill="url(#paint2_linear_1722_89869)"/>
<path d="M21.8713 2.23895L18.721 4.27325V7.37121L4.77148 13.602V13.1312C4.77148 10.5505 6.21294 8.21981 8.44486 7.17359L9.44458 6.7028C9.87469 6.50518 10.3862 6.63305 10.6594 7.01666L11.3394 7.94663C11.9148 8.73711 12.9668 9.02191 13.8677 8.63248C14.4374 8.38255 14.9198 7.99313 15.2743 7.51071C15.6289 7.02829 15.8614 6.45287 15.9369 5.83676L16.1055 4.40112C16.1636 3.86639 16.5007 3.40141 16.989 3.17473L19.2558 2.11107C19.8602 1.82627 20.488 1.77977 21.0692 1.91346L21.8539 2.23313C21.8539 2.23313 21.8655 2.23313 21.8713 2.23895V2.23895Z" fill="url(#paint3_linear_1722_89869)"/>
<path d="M16.9621 32.8452L23.3731 29.6426V30.3052C23.3731 32.7754 21.9607 35.0073 19.7927 35.9489L8.81327 41.3311C8.12742 41.6276 7.41251 41.6334 6.78478 41.4125C6.7499 41.4009 6.72084 41.3893 6.69178 41.3776C6.64528 41.3602 6.6046 41.3428 6.5581 41.3253C5.65138 40.9126 4.9539 40.035 4.80859 38.9248L16.9621 32.8452V32.8452Z" fill="url(#paint4_linear_1722_89869)"/>
<path d="M13.6892 7.593C14.1065 7.593 14.4448 7.1402 14.4448 6.58165C14.4448 6.02311 14.1065 5.57031 13.6892 5.57031C13.2719 5.57031 12.9336 6.02311 12.9336 6.58165C12.9336 7.1402 13.2719 7.593 13.6892 7.593Z" fill="url(#paint5_linear_1722_89869)"/>
<path d="M4.80636 38.9261L4.77148 38.9435V38.4844C4.77148 38.6355 4.78311 38.7866 4.80636 38.9261Z" fill="url(#paint6_linear_1722_89869)"/>
<path style="mix-blend-mode:overlay" d="M6.55727 41.324L2.27941 39.621L2.25616 39.6093C1.05883 39.2548 0.123047 38.0981 0.123047 36.6392V11.286C0.123047 9.90844 0.535721 8.60648 1.26226 7.52539L5.79005 9.55389L6.51659 9.87938L4.77289 13.5993V38.9409L4.81939 38.9816C4.97632 40.0627 5.66799 40.9171 6.55727 41.324Z" fill="url(#paint7_linear_1722_89869)"/>
<path style="mix-blend-mode:overlay" d="M9.44531 6.70253L17.3326 3.01172L16.9781 6.97571L12.9094 9.30064L9.44531 6.70253Z" fill="url(#paint8_linear_1722_89869)"/>
<path d="M23.3709 4.93004V5.29041L18.721 7.37121L4.77148 13.602V13.1312C4.77148 10.5505 6.21294 8.21981 8.44486 7.17359L9.44458 6.7028C9.87469 6.50518 10.3862 6.63305 10.6594 7.01666L11.3394 7.94663C11.9148 8.73711 12.9668 9.02191 13.8677 8.63248C14.4374 8.38255 14.9198 7.99313 15.2743 7.51071C15.6289 7.02829 15.8614 6.45287 15.9369 5.83676L16.1055 4.40112C16.1636 3.86639 16.5007 3.40141 16.989 3.17473L19.2558 2.11107C19.8602 1.82627 20.488 1.77977 21.0692 1.91346C21.3424 1.97739 21.6097 2.08783 21.8539 2.23313C21.8539 2.23313 21.8655 2.23313 21.8713 2.23895C22.749 2.75624 23.3709 3.73852 23.3709 4.93004V4.93004Z" fill="url(#paint9_linear_1722_89869)"/>
<path style="mix-blend-mode:overlay" d="M3.3963 18.2978V22.5176C3.3963 23.0523 3.00106 23.465 2.55932 23.3894C2.19896 23.3255 1.92578 22.9535 1.92578 22.5176V18.2978C1.92578 17.8038 2.2629 17.4085 2.67557 17.4202C3.07662 17.4318 3.3963 17.8212 3.3963 18.2978V18.2978Z" fill="url(#paint10_linear_1722_89869)"/>
<path style="mix-blend-mode:overlay" d="M2.66131 26.5461C2.98231 26.5461 3.24254 26.2 3.24254 25.773C3.24254 25.3461 2.98231 25 2.66131 25C2.3403 25 2.08008 25.3461 2.08008 25.773C2.08008 26.2 2.3403 26.5461 2.66131 26.5461Z" fill="url(#paint11_linear_1722_89869)"/>
<path d="M2.81231 18.2978V22.5176C2.81231 23.0523 2.41707 23.465 1.97534 23.3894C1.61498 23.3255 1.3418 22.9535 1.3418 22.5176V18.2978C1.3418 17.8038 1.67891 17.4085 2.09158 17.4202C2.49263 17.4318 2.81231 17.8212 2.81231 18.2978V18.2978Z" fill="url(#paint12_linear_1722_89869)"/>
<path d="M2.08123 26.5461C2.40224 26.5461 2.66246 26.2 2.66246 25.773C2.66246 25.3461 2.40224 25 2.08123 25C1.76023 25 1.5 25.3461 1.5 25.773C1.5 26.2 1.76023 26.5461 2.08123 26.5461Z" fill="url(#paint13_linear_1722_89869)"/>
<path style="mix-blend-mode:overlay" d="M23.3718 29.6461C23.3718 29.6461 18.1407 22.1482 23.3718 5.23438V29.6461Z" fill="url(#paint14_linear_1722_89869)"/>
<defs>
<linearGradient id="paint0_linear_1722_89869" x1="0.123047" y1="20.664" x2="23.3723" y2="20.664" gradientUnits="userSpaceOnUse">
<stop stop-color="#888BCB"/>
<stop offset="1" stop-color="#383DA9"/>
</linearGradient>
<linearGradient id="paint1_linear_1722_89869" x1="4.77148" y1="38.7169" x2="4.80636" y2="38.7169" gradientUnits="userSpaceOnUse">
<stop stop-color="#888BCB"/>
<stop offset="1" stop-color="#383DA9"/>
</linearGradient>
<linearGradient id="paint2_linear_1722_89869" x1="4.80859" y1="37.1294" x2="16.9621" y2="37.1294" gradientUnits="userSpaceOnUse">
<stop stop-color="#888BCB"/>
<stop offset="1" stop-color="#383DA9"/>
</linearGradient>
<linearGradient id="paint3_linear_1722_89869" x1="4.77148" y1="7.72576" x2="21.8713" y2="7.72576" gradientUnits="userSpaceOnUse">
<stop stop-color="#888BCB"/>
<stop offset="1" stop-color="#383DA9"/>
</linearGradient>
<linearGradient id="paint4_linear_1722_89869" x1="4.80859" y1="35.606" x2="23.3731" y2="35.606" gradientUnits="userSpaceOnUse">
<stop stop-color="#EBECF6"/>
<stop offset="1" stop-color="#AEB2DC"/>
</linearGradient>
<linearGradient id="paint5_linear_1722_89869" x1="12.9336" y1="6.58165" x2="14.4506" y2="6.58165" gradientUnits="userSpaceOnUse">
<stop stop-color="#EBECF6"/>
<stop offset="1" stop-color="#AEB2DC"/>
</linearGradient>
<linearGradient id="paint6_linear_1722_89869" x1="4.77148" y1="38.7169" x2="4.80636" y2="38.7169" gradientUnits="userSpaceOnUse">
<stop stop-color="#888BCB"/>
<stop offset="1" stop-color="#383DA9"/>
</linearGradient>
<linearGradient id="paint7_linear_1722_89869" x1="0.123047" y1="24.4276" x2="6.55727" y2="24.4276" gradientUnits="userSpaceOnUse">
<stop stop-color="#6B5656"/>
<stop offset="1" stop-color="#353133"/>
</linearGradient>
<linearGradient id="paint8_linear_1722_89869" x1="9.44531" y1="6.15618" x2="17.3326" y2="6.15618" gradientUnits="userSpaceOnUse">
<stop stop-color="#6B5656"/>
<stop offset="1" stop-color="#353133"/>
</linearGradient>
<linearGradient id="paint9_linear_1722_89869" x1="4.77148" y1="7.72576" x2="0.702869" y2="7.72576" gradientUnits="userSpaceOnUse">
<stop stop-color="#EBECF6"/>
<stop offset="1" stop-color="#AEB2DC"/>
</linearGradient>
<linearGradient id="paint10_linear_1722_89869" x1="1.92578" y1="20.4077" x2="3.3963" y2="20.4077" gradientUnits="userSpaceOnUse">
<stop stop-color="#6B5656"/>
<stop offset="1" stop-color="#353133"/>
</linearGradient>
<linearGradient id="paint11_linear_1722_89869" x1="2.08008" y1="25.773" x2="3.24254" y2="25.773" gradientUnits="userSpaceOnUse">
<stop stop-color="#6B5656"/>
<stop offset="1" stop-color="#353133"/>
</linearGradient>
<linearGradient id="paint12_linear_1722_89869" x1="1.3418" y1="20.4077" x2="2.81231" y2="20.4077" gradientUnits="userSpaceOnUse">
<stop stop-color="#EBECF6"/>
<stop offset="1" stop-color="#AEB2DC"/>
</linearGradient>
<linearGradient id="paint13_linear_1722_89869" x1="1.5" y1="25.773" x2="2.66246" y2="25.773" gradientUnits="userSpaceOnUse">
<stop stop-color="#EBECF6"/>
<stop offset="1" stop-color="#AEB2DC"/>
</linearGradient>
<linearGradient id="paint14_linear_1722_89869" x1="21.0469" y1="17.4402" x2="23.3718" y2="17.4402" gradientUnits="userSpaceOnUse">
<stop stop-color="#6B5656"/>
<stop offset="1" stop-color="#353133"/>
</linearGradient>
</defs>
</svg>
