<svg width="24" height="21" viewBox="0 0 24 21" fill="none" xmlns="http://www.w3.org/2000/svg">
<path d="M14.2771 2.07677L12.0507 3.43501V9.90133C12.0507 10.1087 11.9241 10.296 11.7295 10.373L4.17292 13.3446C4.07747 13.3795 3.9912 13.4327 3.91595 13.4988C3.87741 13.5337 3.84253 13.5722 3.80949 13.6126L2.96885 14.6588L2.84771 18.796C2.84771 18.796 2.83487 18.7886 2.82936 18.7849L0.459783 17.3973C0.329466 17.3496 0.228516 17.2303 0.228516 17.0651V5.47053C0.228516 5.38059 0.252377 5.29616 0.294592 5.22274C0.34782 5.13097 0.430416 5.05755 0.533202 5.01534L11.3771 0.602895C11.5368 0.538654 11.7056 0.562515 11.8323 0.648781H11.8341L14.1835 2.02354C14.1872 2.02538 14.1908 2.02721 14.1964 2.03088L14.2771 2.07677V2.07677Z" fill="url(#paint0_linear_1722_90239)"/>
<path d="M3.98019 17.8544L3.29373 18.7097C3.17443 18.8584 2.98721 18.8731 2.84771 18.7978C2.84037 18.7942 2.83487 18.7905 2.82936 18.7868L0.459783 17.3992C0.329466 17.3515 0.228516 17.2322 0.228516 17.067V5.4724C0.228516 5.38246 0.252377 5.29803 0.294592 5.22461L2.74309 6.62323L3.82418 7.24178L3.91595 13.5007L3.98019 17.8544V17.8544Z" fill="url(#paint1_linear_1722_90239)"/>
<path d="M14.4862 2.47998V11.3232C14.4862 11.5306 14.3596 11.7178 14.165 11.7949L9.4057 13.6671L6.60846 14.7665C6.4653 14.8216 6.34048 14.9134 6.24504 15.0327L3.98009 17.8538L3.29362 18.7091C3.17432 18.8578 2.9871 18.8725 2.84761 18.7972C2.84027 18.7935 2.83476 18.7899 2.82925 18.7862C2.73381 18.7275 2.66406 18.6228 2.66406 18.487V6.89242C2.66406 6.79331 2.69343 6.70154 2.74299 6.62261C2.79622 6.54185 2.8733 6.47578 2.96875 6.43723L13.8126 2.02479C13.9393 1.9734 14.0696 1.9789 14.1834 2.02479C14.1871 2.02663 14.1907 2.02846 14.1962 2.03213L14.277 2.07802C14.4018 2.16428 14.4862 2.30929 14.4862 2.47998V2.47998Z" fill="url(#paint2_linear_1722_90239)"/>
<path d="M5.84537 11.1934C6.30255 11.1934 6.67316 10.6683 6.67316 10.0205C6.67316 9.37276 6.30255 8.84766 5.84537 8.84766C5.38819 8.84766 5.01758 9.37276 5.01758 10.0205C5.01758 10.6683 5.38819 11.1934 5.84537 11.1934Z" fill="url(#paint3_linear_1722_90239)"/>
<path d="M8.67935 10.0918C9.13653 10.0918 9.50715 9.5667 9.50715 8.91895C9.50715 8.2712 9.13653 7.74609 8.67935 7.74609C8.22218 7.74609 7.85156 8.2712 7.85156 8.91895C7.85156 9.5667 8.22218 10.0918 8.67935 10.0918Z" fill="url(#paint4_linear_1722_90239)"/>
<path d="M11.5192 9.07423C11.9764 9.07423 12.347 8.54912 12.347 7.90137C12.347 7.25362 11.9764 6.72852 11.5192 6.72852C11.062 6.72852 10.6914 7.25362 10.6914 7.90137C10.6914 8.54912 11.062 9.07423 11.5192 9.07423Z" fill="url(#paint5_linear_1722_90239)"/>
<path d="M19.121 4.77534C19.121 4.77534 19.1093 4.76757 19.1016 4.76562L19.121 4.77534Z" fill="url(#paint6_linear_1722_90239)"/>
<path opacity="0.16" d="M14.4862 8.10742V11.3213C14.4862 11.5287 14.3595 11.7159 14.165 11.793L9.40561 13.6652L9.37625 11.2974L9.36523 10.4733C9.36523 10.4293 9.37258 10.3852 9.38542 10.343C9.42213 10.2292 9.5084 10.1338 9.62403 10.086L12.0505 9.09857L14.4862 8.10742Z" fill="black"/>
<path d="M23.1035 6.4141L21.2571 9.07552V15.417C21.2571 15.5932 21.1488 15.7511 20.9836 15.8172L14.1997 18.6052L13.6307 18.8402L13.5022 20.7564C13.5022 20.7564 13.4949 20.7509 13.4894 20.749L11.5401 19.5743L11.531 19.5688C11.3896 19.5083 11.2887 19.3706 11.2869 19.1999L11.1914 11.6433C11.1914 11.5552 11.2189 11.4726 11.2667 11.4047C11.3107 11.3386 11.3731 11.2872 11.4502 11.256L18.146 8.53222C18.2157 8.50285 18.2799 8.46247 18.3368 8.41108C18.3699 8.38355 18.3992 8.35234 18.4249 8.31747L20.7615 5.28713C20.8514 5.1715 20.9928 5.15498 21.1029 5.21004C21.1102 5.21188 21.1176 5.21738 21.1231 5.22105L21.1286 5.22472L23.1035 6.4141V6.4141Z" fill="url(#paint7_linear_1722_90239)"/>
<path style="mix-blend-mode:overlay" opacity="0.51" d="M23.1211 6.42328L21.5169 10.4136L21.2581 10.2502L20.3275 9.66286L18.3379 8.41108C18.3709 8.38355 18.4003 8.35234 18.426 8.31747L20.7625 5.28713C20.8525 5.1715 20.9938 5.15498 21.1039 5.21004C21.1113 5.21188 21.1186 5.21738 21.1241 5.22105L21.1296 5.22472L23.1046 6.4141C23.1046 6.4141 23.1156 6.41961 23.1211 6.42328V6.42328Z" fill="url(#paint8_linear_1722_90239)"/>
<path style="mix-blend-mode:overlay" opacity="0.51" d="M14.3851 20.5835L13.8785 20.7928C13.7464 20.8478 13.6087 20.8277 13.5022 20.7579C13.4986 20.7561 13.4949 20.7524 13.4894 20.7506L11.5401 19.5759L11.531 19.5704C11.3896 19.5098 11.2887 19.3721 11.2869 19.2014L11.1914 11.6449C11.1914 11.5568 11.2189 11.4742 11.2667 11.4062L13.2416 12.7315L13.6766 13.0233L14.1997 18.6068L14.3851 20.5835V20.5835Z" fill="url(#paint9_linear_1722_90239)"/>
<path d="M23.2883 6.67493V16.6341C23.2883 16.8103 23.18 16.97 23.0148 17.0343L14.3863 20.5822L13.8798 20.7914C13.7476 20.8465 13.6099 20.8263 13.5035 20.7566C13.4998 20.7547 13.4961 20.7511 13.4906 20.7492C13.3897 20.6776 13.3199 20.5602 13.3181 20.4188L13.2227 12.8604C13.2227 12.8164 13.23 12.7723 13.2428 12.7301C13.2796 12.6163 13.3658 12.5209 13.4815 12.4731L20.1772 9.74932C20.2304 9.7273 20.2818 9.69793 20.3277 9.66306C20.3754 9.62635 20.4195 9.58413 20.4562 9.53641L22.7927 6.50607C22.8753 6.39961 23.0001 6.37758 23.1048 6.41613C23.1103 6.41796 23.1158 6.4198 23.1213 6.42347C23.2167 6.46202 23.2883 6.55195 23.2883 6.67493V6.67493Z" fill="url(#paint10_linear_1722_90239)"/>
<path d="M16.7985 16.3809C17.2557 16.3809 17.6263 15.8558 17.6263 15.208C17.6263 14.5603 17.2557 14.0352 16.7985 14.0352C16.3413 14.0352 15.9707 14.5603 15.9707 15.208C15.9707 15.8558 16.3413 16.3809 16.7985 16.3809Z" fill="url(#paint11_linear_1722_90239)"/>
<path d="M19.8454 15.3672C20.3025 15.3672 20.6732 14.8421 20.6732 14.1943C20.6732 13.5466 20.3025 13.0215 19.8454 13.0215C19.3882 13.0215 19.0176 13.5466 19.0176 14.1943C19.0176 14.8421 19.3882 15.3672 19.8454 15.3672Z" fill="url(#paint12_linear_1722_90239)"/>
<defs>
<linearGradient id="paint0_linear_1722_90239" x1="0.228516" y1="9.68107" x2="14.2771" y2="9.68107" gradientUnits="userSpaceOnUse">
<stop stop-color="#AEB2DC"/>
<stop offset="1" stop-color="#6064BA"/>
</linearGradient>
<linearGradient id="paint1_linear_1722_90239" x1="0.228516" y1="12.0323" x2="3.98019" y2="12.0323" gradientUnits="userSpaceOnUse">
<stop stop-color="#888BCB"/>
<stop offset="1" stop-color="#383DA9"/>
</linearGradient>
<linearGradient id="paint2_linear_1722_90239" x1="2.66406" y1="10.4147" x2="14.4862" y2="10.4147" gradientUnits="userSpaceOnUse">
<stop stop-color="#888BCB"/>
<stop offset="1" stop-color="#383DA9"/>
</linearGradient>
<linearGradient id="paint3_linear_1722_90239" x1="5.01758" y1="10.0205" x2="6.67316" y2="10.0205" gradientUnits="userSpaceOnUse">
<stop stop-color="#EBECF6"/>
<stop offset="1" stop-color="#AEB2DC"/>
</linearGradient>
<linearGradient id="paint4_linear_1722_90239" x1="7.85156" y1="8.91895" x2="9.50715" y2="8.91895" gradientUnits="userSpaceOnUse">
<stop stop-color="#EBECF6"/>
<stop offset="1" stop-color="#AEB2DC"/>
</linearGradient>
<linearGradient id="paint5_linear_1722_90239" x1="10.6914" y1="7.90137" x2="12.347" y2="7.90137" gradientUnits="userSpaceOnUse">
<stop stop-color="#EBECF6"/>
<stop offset="1" stop-color="#AEB2DC"/>
</linearGradient>
<linearGradient id="paint6_linear_1722_90239" x1="19.1016" y1="4.76951" x2="19.121" y2="4.76951" gradientUnits="userSpaceOnUse">
<stop stop-color="#AEB2DC"/>
<stop offset="1" stop-color="#6064BA"/>
</linearGradient>
<linearGradient id="paint7_linear_1722_90239" x1="11.1914" y1="12.9685" x2="23.1035" y2="12.9685" gradientUnits="userSpaceOnUse">
<stop stop-color="#888BCB"/>
<stop offset="1" stop-color="#383DA9"/>
</linearGradient>
<linearGradient id="paint8_linear_1722_90239" x1="18.3379" y1="7.7962" x2="23.1211" y2="7.7962" gradientUnits="userSpaceOnUse">
<stop stop-color="#6B5656"/>
<stop offset="1" stop-color="#353133"/>
</linearGradient>
<linearGradient id="paint9_linear_1722_90239" x1="11.1914" y1="16.1142" x2="14.3851" y2="16.1142" gradientUnits="userSpaceOnUse">
<stop stop-color="#6B5656"/>
<stop offset="1" stop-color="#353133"/>
</linearGradient>
<linearGradient id="paint10_linear_1722_90239" x1="13.2227" y1="13.6111" x2="23.2883" y2="13.6111" gradientUnits="userSpaceOnUse">
<stop stop-color="#AEB2DC"/>
<stop offset="1" stop-color="#6064BA"/>
</linearGradient>
<linearGradient id="paint11_linear_1722_90239" x1="15.9707" y1="15.208" x2="17.6281" y2="15.208" gradientUnits="userSpaceOnUse">
<stop stop-color="#EBECF6"/>
<stop offset="1" stop-color="#AEB2DC"/>
</linearGradient>
<linearGradient id="paint12_linear_1722_90239" x1="19.0176" y1="14.1943" x2="20.6732" y2="14.1943" gradientUnits="userSpaceOnUse">
<stop stop-color="#EBECF6"/>
<stop offset="1" stop-color="#AEB2DC"/>
</linearGradient>
</defs>
</svg>
