<svg width="18" height="19" viewBox="0 0 18 19" fill="none" xmlns="http://www.w3.org/2000/svg">
<path d="M9.00043 7.55781C8.7403 7.55781 8.48271 7.60905 8.24237 7.7086C8.00204 7.80815 7.78367 7.95406 7.59972 8.13801C7.41578 8.32195 7.26987 8.54032 7.17032 8.78066C7.07077 9.02099 7.01953 9.27858 7.01953 9.53871C7.01953 9.79885 7.07077 10.0564 7.17032 10.2968C7.26987 10.5371 7.41578 10.7555 7.59972 10.9394C7.78367 11.1234 8.00204 11.2693 8.24237 11.3688C8.48271 11.4684 8.7403 11.5196 9.00043 11.5196C9.5258 11.5195 10.0296 11.3107 10.401 10.9391C10.7724 10.5675 10.981 10.0636 10.9809 9.53826C10.9808 9.0129 10.7719 8.50909 10.4004 8.13769C10.0288 7.76628 9.5249 7.55769 8.99953 7.55781H9.00043ZM9.00043 5.21781C9.26045 5.21769 9.5179 5.16636 9.75808 5.06675C9.99826 4.96714 10.2165 4.82119 10.4002 4.63725C10.584 4.4533 10.7298 4.23496 10.8292 3.99469C10.9286 3.75442 10.9796 3.49693 10.9795 3.23691C10.9794 2.9769 10.9281 2.71945 10.8285 2.47927C10.7289 2.23909 10.5829 2.02088 10.399 1.8371C10.215 1.65333 9.99668 1.50758 9.75641 1.40819C9.51614 1.30879 9.25865 1.25769 8.99863 1.25781C8.4735 1.25805 7.96998 1.46689 7.59882 1.83838C7.22767 2.20987 7.01929 2.71358 7.01953 3.23871C7.01977 3.76384 7.22861 4.26737 7.6001 4.63852C7.97159 5.00967 8.4753 5.21805 9.00043 5.21781V5.21781ZM9.00043 13.8578C8.47506 13.8578 7.97121 14.0665 7.59972 14.438C7.22823 14.8095 7.01953 15.3133 7.01953 15.8387C7.01953 16.3641 7.22823 16.8679 7.59972 17.2394C7.97121 17.6109 8.47506 17.8196 9.00043 17.8196C9.5258 17.8196 10.0296 17.6109 10.4011 17.2394C10.7726 16.8679 10.9813 16.3641 10.9813 15.8387C10.9813 15.3133 10.7726 14.8095 10.4011 14.438C10.0296 14.0665 9.5258 13.8578 9.00043 13.8578V13.8578Z" fill="#383536"/>
</svg>
