<svg width="21" height="21" viewBox="0 0 21 21" fill="none" xmlns="http://www.w3.org/2000/svg">
<path d="M17.6107 12.2031C17.3897 12.2031 17.1777 12.2909 17.0214 12.4472C16.8651 12.6035 16.7773 12.8154 16.7773 13.0365V16.3698C16.7773 16.5908 16.6895 16.8028 16.5333 16.959C16.377 17.1153 16.165 17.2031 15.944 17.2031H4.27734C4.05633 17.2031 3.84437 17.1153 3.68809 16.959C3.53181 16.8028 3.44401 16.5908 3.44401 16.3698V13.0365C3.44401 12.8154 3.35621 12.6035 3.19993 12.4472C3.04365 12.2909 2.83169 12.2031 2.61068 12.2031C2.38966 12.2031 2.1777 12.2909 2.02142 12.4472C1.86514 12.6035 1.77734 12.8154 1.77734 13.0365V16.3698C1.77734 17.0328 2.04074 17.6687 2.50958 18.1376C2.97842 18.6064 3.6143 18.8698 4.27734 18.8698H15.944C16.6071 18.8698 17.2429 18.6064 17.7118 18.1376C18.1806 17.6687 18.444 17.0328 18.444 16.3698V13.0365C18.444 12.8154 18.3562 12.6035 18.1999 12.4472C18.0437 12.2909 17.8317 12.2031 17.6107 12.2031ZM9.51901 13.6281C9.59826 13.704 9.69172 13.7635 9.79401 13.8031C9.89376 13.8472 10.0016 13.87 10.1107 13.87C10.2197 13.87 10.3276 13.8472 10.4273 13.8031C10.5296 13.7635 10.6231 13.704 10.7023 13.6281L14.0357 10.2948C14.1926 10.1379 14.2808 9.92504 14.2808 9.70312C14.2808 9.48121 14.1926 9.26838 14.0357 9.11146C13.8788 8.95454 13.6659 8.86638 13.444 8.86638C13.2221 8.86638 13.0093 8.95454 12.8523 9.11146L10.944 11.0281V3.03646C10.944 2.81544 10.8562 2.60348 10.6999 2.4472C10.5437 2.29092 10.3317 2.20313 10.1107 2.20312C9.88966 2.20313 9.6777 2.29092 9.52142 2.4472C9.36514 2.60348 9.27734 2.81544 9.27734 3.03646V11.0281L7.36901 9.11146C7.29131 9.03376 7.19907 8.97213 7.09755 8.93007C6.99603 8.88802 6.88723 8.86638 6.77734 8.86638C6.66746 8.86638 6.55865 8.88802 6.45714 8.93007C6.35562 8.97213 6.26338 9.03376 6.18568 9.11146C6.10798 9.18916 6.04634 9.2814 6.00429 9.38292C5.96224 9.48444 5.9406 9.59324 5.9406 9.70312C5.9406 9.81301 5.96224 9.92181 6.00429 10.0233C6.04634 10.1249 6.10798 10.2171 6.18568 10.2948L9.51901 13.6281Z" fill="#7A7979"/>
</svg>
