<svg width="24" height="24" viewBox="0 0 24 24" fill="none" xmlns="http://www.w3.org/2000/svg">
<g clip-path="url(#clip0_650_79)">
<path d="M4.91667 22H17.4167C18.1914 21.9978 18.9336 21.6883 19.4805 21.1395C20.0273 20.5906 20.334 19.8472 20.3333 19.0725V12.7917C20.3333 12.5707 20.2455 12.3587 20.0893 12.2024C19.933 12.0461 19.721 11.9583 19.5 11.9583C19.279 11.9583 19.067 12.0461 18.9107 12.2024C18.7545 12.3587 18.6667 12.5707 18.6667 12.7917V19.0725C18.6678 19.4054 18.5368 19.7251 18.3024 19.9614C18.0681 20.1978 17.7495 20.3316 17.4167 20.3333H4.91667C4.58381 20.3316 4.26525 20.1978 4.0309 19.9614C3.79655 19.7251 3.66556 19.4054 3.66667 19.0725V6.59417C3.66556 6.26131 3.79655 5.94161 4.0309 5.70523C4.26525 5.46885 4.58381 5.3351 4.91667 5.33333H11.1667C11.3877 5.33333 11.5996 5.24554 11.7559 5.08925C11.9122 4.93297 12 4.72101 12 4.5C12 4.27899 11.9122 4.06702 11.7559 3.91074C11.5996 3.75446 11.3877 3.66667 11.1667 3.66667H4.91667C4.14192 3.66887 3.3997 3.97836 2.85288 4.5272C2.30607 5.07605 1.99934 5.81942 2 6.59417V19.0725C1.99934 19.8472 2.30607 20.5906 2.85288 21.1395C3.3997 21.6883 4.14192 21.9978 4.91667 22V22Z" fill="white"/>
<path d="M9.87917 10.7867L9.22167 13.7983C9.19191 13.9349 9.19699 14.0768 9.23646 14.211C9.27592 14.3451 9.3485 14.4671 9.4475 14.5658C9.54787 14.6621 9.66995 14.7327 9.80341 14.7717C9.93687 14.8107 10.0778 14.817 10.2142 14.79L13.2192 14.1308C13.3752 14.0966 13.5181 14.0182 13.6308 13.905L21.2258 6.31C21.458 6.07785 21.6422 5.80223 21.7679 5.49889C21.8935 5.19555 21.9582 4.87042 21.9582 4.54208C21.9582 4.21374 21.8935 3.88862 21.7679 3.58528C21.6422 3.28194 21.458 3.00632 21.2258 2.77417C20.7498 2.31928 20.1168 2.06543 19.4583 2.06543C18.7999 2.06543 18.1669 2.31928 17.6908 2.77417L10.1075 10.3767C9.99368 10.4886 9.91443 10.6309 9.87917 10.7867ZM18.8692 3.95333C19.0277 3.80145 19.2388 3.71666 19.4583 3.71666C19.6779 3.71666 19.889 3.80145 20.0475 3.95333C20.2017 4.11052 20.288 4.32191 20.288 4.54208C20.288 4.76226 20.2017 4.97364 20.0475 5.13083L19.4583 5.72L18.28 4.54167L18.8692 3.95333ZM11.4525 11.3817L17.0975 5.7225L18.2642 6.895L12.6167 12.5558L11.1208 12.8842L11.4525 11.3817Z" fill="white"/>
</g>
<defs>
<clipPath id="clip0_650_79">
<rect width="20" height="20" fill="white" transform="translate(2 2)"/>
</clipPath>
</defs>
</svg>
