<svg width="16" height="17" viewBox="0 0 16 17" fill="none" xmlns="http://www.w3.org/2000/svg">
<g clip-path="url(#clip0_1722_90271)">
<path d="M2.33333 16.5378H12.3333C12.9531 16.536 13.5469 16.2884 13.9844 15.8493C14.4218 15.4103 14.6672 14.8156 14.6667 14.1958V9.17109C14.6667 8.99428 14.5964 8.82471 14.4714 8.69969C14.3464 8.57467 14.1768 8.50443 14 8.50443C13.8232 8.50443 13.6536 8.57467 13.5286 8.69969C13.4036 8.82471 13.3333 8.99428 13.3333 9.17109V14.1958C13.3342 14.462 13.2294 14.7178 13.0419 14.9069C12.8545 15.096 12.5996 15.203 12.3333 15.2044H2.33333C2.06705 15.203 1.8122 15.096 1.62472 14.9069C1.43724 14.7178 1.33245 14.462 1.33333 14.1958V4.21309C1.33245 3.94681 1.43724 3.69105 1.62472 3.50194C1.8122 3.31284 2.06705 3.20584 2.33333 3.20443H7.33333C7.51015 3.20443 7.67971 3.13419 7.80474 3.00917C7.92976 2.88414 8 2.71457 8 2.53776C8 2.36095 7.92976 2.19138 7.80474 2.06636C7.67971 1.94133 7.51015 1.87109 7.33333 1.87109H2.33333C1.71354 1.87286 1.11976 2.12045 0.682306 2.55952C0.244854 2.9986 -0.000531394 3.59329 8.64072e-07 4.21309V14.1958C-0.000531394 14.8156 0.244854 15.4103 0.682306 15.8493C1.11976 16.2884 1.71354 16.536 2.33333 16.5378V16.5378Z" fill="#383536"/>
<path d="M6.303 7.56683L5.777 9.97616C5.75319 10.0854 5.75726 10.199 5.78883 10.3063C5.8204 10.4136 5.87846 10.5112 5.95767 10.5902C6.03796 10.6672 6.13562 10.7236 6.24239 10.7549C6.34916 10.7861 6.46188 10.7911 6.571 10.7695L8.975 10.2422C9.09982 10.2148 9.21414 10.152 9.30433 10.0615L15.3803 3.9855C15.5661 3.79978 15.7134 3.57928 15.814 3.33661C15.9145 3.09394 15.9662 2.83384 15.9662 2.57117C15.9662 2.30849 15.9145 2.04839 15.814 1.80572C15.7134 1.56305 15.5661 1.34255 15.3803 1.15683C14.9995 0.792923 14.4931 0.589844 13.9663 0.589844C13.4396 0.589844 12.9331 0.792923 12.5523 1.15683L6.48566 7.23883C6.39461 7.32841 6.33121 7.44226 6.303 7.56683ZM13.495 2.10017C13.6218 1.97866 13.7907 1.91083 13.9663 1.91083C14.142 1.91083 14.3108 1.97866 14.4377 2.10017C14.561 2.22592 14.6301 2.39503 14.6301 2.57117C14.6301 2.7473 14.561 2.91641 14.4377 3.04217L13.9663 3.5135L13.0237 2.57083L13.495 2.10017ZM7.56167 8.04283L12.0777 3.5155L13.011 4.4535L8.493 8.98216L7.29633 9.24483L7.56167 8.04283Z" fill="#383536"/>
</g>
<defs>
<clipPath id="clip0_1722_90271">
<rect width="16" height="16" fill="white" transform="translate(0 0.537109)"/>
</clipPath>
</defs>
</svg>
