<svg width="40" height="38" viewBox="0 0 40 38" fill="none" xmlns="http://www.w3.org/2000/svg">
<path d="M21.3411 31.0823L20.0899 31.7473L12.7467 35.6553C12.3842 35.8507 11.9777 35.9232 11.5806 35.8759C11.2654 35.8444 10.9629 35.7341 10.6887 35.5513L7.87746 33.6761L7.72303 33.5721C7.44569 33.3893 7.28496 33.0741 7.29757 32.7401L7.34484 31.4731L7.73249 31.7315L8.90488 32.5131L16.9698 28.7344L17.5213 28.955L20.0804 29.9824H20.0867L20.093 29.9761L21.4419 28.8415C21.5144 28.7816 21.6279 28.8132 21.6562 28.9046C21.6562 28.9046 21.6657 28.9392 21.6814 28.9991C21.7665 29.3678 22.0155 30.6568 21.3379 31.0855L21.3411 31.0823Z" fill="url(#paint0_linear_1722_89817)"/>
<path style="mix-blend-mode:overlay" d="M11.5801 33.5091V35.8759C11.2649 35.8444 10.9624 35.7341 10.6882 35.5513L7.87695 33.6761L9.47481 32.8945H9.47796L11.5801 33.5091Z" fill="url(#paint1_linear_1722_89817)"/>
<path d="M21.5932 9.96948L22.3338 23.1305C22.3496 23.4016 22.2014 23.6505 21.9588 23.7703L6.21655 31.4728L4.38547 32.3679L3.87807 35.261L1.02903 33.7293C0.805263 33.6222 0.644531 33.3921 0.644531 33.1148L0.852536 15.8913C0.852536 15.7684 0.890356 15.6486 0.953388 15.5478C1.01957 15.4406 1.11727 15.3492 1.23703 15.2925L20.4555 6.23484C20.6855 6.12768 20.9345 6.1592 21.1204 6.28526L23.9222 7.79803C23.9222 7.79803 23.9317 7.80118 23.938 7.80433L21.5932 9.96948V9.96948Z" fill="url(#paint2_linear_1722_89817)"/>
<path style="mix-blend-mode:overlay" d="M21.5932 9.96948L22.3338 23.1305C22.3496 23.4016 22.2014 23.6505 21.9588 23.7703L6.21655 31.4728L4.38547 32.3679L3.87807 35.261L1.02903 33.7293C0.805263 33.6222 0.644531 33.3921 0.644531 33.1148L0.852536 15.8913C0.852536 15.7684 0.890356 15.6486 0.953388 15.5478C1.01957 15.4406 1.11727 15.3492 1.23703 15.2925L20.4555 6.23484C20.6855 6.12768 20.9345 6.1592 21.1204 6.28526L23.9222 7.79803C23.9222 7.79803 23.9317 7.80118 23.938 7.80433L21.5932 9.96948V9.96948Z" fill="url(#paint3_linear_1722_89817)"/>
<path style="mix-blend-mode:overlay" d="M6.47813 34.3587L4.5462 35.3042C4.31614 35.4145 4.06401 35.383 3.87807 35.2601L1.02903 33.7284C0.805263 33.6213 0.644531 33.3912 0.644531 33.1139L0.852536 15.8904C0.852536 15.7675 0.890356 15.6477 0.953387 15.5469L3.89382 17.1132L4.96222 17.6837L6.21655 31.4719L6.47813 34.3587V34.3587Z" fill="url(#paint4_linear_1722_89817)"/>
<path d="M21.6863 28.9939C21.68 29.0759 21.6358 29.1547 21.5507 29.1988L20.0979 29.9709L20.0916 29.9772H20.0821L12.9532 33.7749C12.2157 34.1689 11.3207 34.1216 10.6273 33.6583L8.90655 32.5111L7.73416 31.7295C7.56397 31.6161 7.58288 31.3576 7.76882 31.2694L16.9337 26.9769C16.9998 26.9454 17.0755 26.9423 17.1417 26.9706L19.5842 27.9476L21.5255 28.7229C21.6453 28.7702 21.702 28.8868 21.6863 28.9939V28.9939Z" fill="url(#paint5_linear_1722_89817)"/>
<path d="M25.2675 24.7093C25.2832 24.9772 25.1351 25.2324 24.8924 25.3491L23.1874 26.1842L19.8562 27.8136L19.582 27.9491H19.5788L18.0503 28.696L17.5208 28.9545L9.47797 32.894H9.47482L7.87696 33.6756L7.12688 34.0412L6.47765 34.3595L4.54572 35.3049C4.31566 35.4152 4.06353 35.3837 3.87759 35.2608C3.69794 35.1379 3.57503 34.9362 3.57818 34.6935L3.78619 17.4701C3.78934 17.3409 3.82716 17.2179 3.89334 17.1139C3.95953 17.0099 4.05407 16.9248 4.17068 16.8713L23.3923 7.81358C23.5687 7.73164 23.7578 7.73164 23.9217 7.79783C23.928 7.79783 23.9312 7.80098 23.9375 7.80413C24.1612 7.89868 24.3346 8.11298 24.3472 8.38402L24.4796 10.7509L24.8735 17.7127L25.2675 24.7093V24.7093Z" fill="url(#paint6_linear_1722_89817)"/>
<path opacity="0.16" d="M25.268 24.7084C25.2837 24.9763 25.1356 25.2316 24.8929 25.3482L23.1879 26.1834L19.8567 27.8127C19.7999 21.7302 20.4775 13.1767 24.4801 10.75L24.874 17.7119L25.268 24.7084V24.7084Z" fill="black"/>
<path d="M34.5772 6.98977C34.0887 9.18958 32.639 10.8599 30.9592 11.3957L31.3531 11.881L29.4244 11.5596H29.4023L29.0399 11.4965C26.6478 10.9671 25.2485 8.09283 25.9135 5.07675C26.547 2.20565 28.8224 0.242206 31.101 0.513243L31.4508 0.569971H31.454L33.7641 0.954466L33.0645 1.39254C34.4196 2.56808 35.072 4.73953 34.5741 6.98662L34.5772 6.98977Z" fill="url(#paint7_linear_1722_89817)"/>
<path style="mix-blend-mode:overlay" d="M34.5775 6.9897C34.152 8.90587 32.9985 10.4218 31.596 11.134C31.388 11.2381 31.1769 11.3263 30.9594 11.3956L31.3534 11.881L29.4246 11.5595H29.4025L29.0401 11.4965C26.6449 10.967 25.2487 8.09276 25.9137 5.07669C26.106 4.21315 26.4432 3.43155 26.8876 2.76657C27.9181 1.22544 29.5097 0.324081 31.1012 0.513177L31.4511 0.569905H31.4542L33.7643 0.957551L33.0678 1.39562C34.423 2.57117 35.0723 4.73946 34.5775 6.9897V6.9897Z" fill="url(#paint8_linear_1722_89817)"/>
<path style="mix-blend-mode:overlay" d="M30.9594 11.3947L31.3534 11.88L29.4246 11.5586H29.4025L29.0401 11.4955C26.6449 10.9661 25.2487 8.09182 25.9137 5.07574C26.106 4.21221 26.4432 3.43061 26.8876 2.76562L30.8964 3.49049L31.596 11.1331C31.388 11.2371 31.1769 11.3254 30.9594 11.3947V11.3947Z" fill="url(#paint9_linear_1722_89817)"/>
<path d="M36.8917 7.37656C37.5578 4.35969 36.1578 1.48572 33.7647 0.957374C31.3716 0.429026 28.8916 2.44638 28.2255 5.46325C27.5595 8.48012 28.9595 11.3541 31.3526 11.8824C33.7457 12.4108 36.2257 10.3934 36.8917 7.37656Z" fill="url(#paint10_linear_1722_89817)"/>
<path d="M35.9783 29.5978C35.9657 30.3762 35.5308 31.0853 34.8469 31.4478L27.5919 35.3085L28.3388 36.9441L25.0706 36.2476C24.0747 36.1468 23.208 35.3463 23.1513 34.2275C22.8393 27.9716 22.9338 14.9208 29.0007 13.5057C29.6594 13.3513 30.2582 13.3387 30.8002 13.4522L31.0051 13.4963L34.2544 14.2054L33.3436 15.2517C35.8932 18.8319 36.0319 26.5502 35.9815 29.5915L35.9783 29.5978Z" fill="url(#paint11_linear_1722_89817)"/>
<path style="mix-blend-mode:overlay" d="M35.9766 29.5972C35.964 30.3725 35.5323 31.0848 34.8452 31.4472L31.9489 32.9915L27.5902 35.3111L28.3372 36.9467L25.069 36.2502C24.0731 36.1494 23.2032 35.3457 23.1465 34.2301C22.9038 29.3419 22.9101 20.2937 25.8253 15.9035C26.6353 14.6807 27.6753 13.8172 28.9958 13.5083C29.6577 13.3539 30.2533 13.3445 30.7954 13.4548L31.0034 13.502L34.2527 14.2111L33.3419 15.2575C35.8915 18.8377 36.0302 26.5559 35.9798 29.5972H35.9766Z" fill="url(#paint12_linear_1722_89817)"/>
<path style="mix-blend-mode:overlay" d="M27.5902 35.3099L28.3372 36.9455L25.069 36.249C24.0731 36.1482 23.2032 35.3445 23.1465 34.2289C22.9038 29.3407 22.9101 20.2925 25.8253 15.9023L30.8805 16.8951L31.952 32.9903L27.5934 35.3099H27.5902Z" fill="url(#paint13_linear_1722_89817)"/>
<path d="M30.0184 36.807L38.5876 32.2498C39.2746 31.8842 39.7064 31.1751 39.719 30.3966C39.7915 26.1388 39.4858 12.7319 32.735 14.3077C26.6682 15.7228 26.5737 28.7736 26.8857 35.0295C26.9645 36.5895 28.638 37.5381 30.0184 36.807V36.807Z" fill="url(#paint14_linear_1722_89817)"/>
<path opacity="0.16" d="M21.34 31.0819L20.0888 31.7469V29.9788L17.5234 28.9546L19.5846 27.9492L21.526 28.7245C21.6457 28.7718 21.7025 28.8884 21.6867 28.9955C21.7718 29.3643 22.0208 30.6533 21.3432 31.0819H21.34Z" fill="black"/>
<path style="mix-blend-mode:overlay" d="M15.4667 17.9991C15.8723 17.9991 16.2011 17.5052 16.2011 16.896C16.2011 16.2868 15.8723 15.793 15.4667 15.793C15.0612 15.793 14.7324 16.2868 14.7324 16.896C14.7324 17.5052 15.0612 17.9991 15.4667 17.9991Z" fill="url(#paint15_linear_1722_89817)"/>
<path style="mix-blend-mode:overlay" d="M15.4667 17.9991C15.8723 17.9991 16.2011 17.5052 16.2011 16.896C16.2011 16.2868 15.8723 15.793 15.4667 15.793C15.0612 15.793 14.7324 16.2868 14.7324 16.896C14.7324 17.5052 15.0612 17.9991 15.4667 17.9991Z" fill="url(#paint16_linear_1722_89817)"/>
<defs>
<linearGradient id="paint0_linear_1722_89817" x1="7.29757" y1="32.3114" x2="21.8012" y2="32.3114" gradientUnits="userSpaceOnUse">
<stop stop-color="#FFD8D9"/>
<stop offset="1" stop-color="#F6AFAF"/>
</linearGradient>
<linearGradient id="paint1_linear_1722_89817" x1="7.87695" y1="34.3852" x2="11.5801" y2="34.3852" gradientUnits="userSpaceOnUse">
<stop stop-color="#6B5656"/>
<stop offset="1" stop-color="#353133"/>
</linearGradient>
<linearGradient id="paint2_linear_1722_89817" x1="0.357736" y1="18.0691" x2="22.4031" y2="22.9351" gradientUnits="userSpaceOnUse">
<stop stop-color="#F6AFAF"/>
<stop offset="1" stop-color="#E48080"/>
</linearGradient>
<linearGradient id="paint3_linear_1722_89817" x1="0.357736" y1="18.0691" x2="22.4031" y2="22.9351" gradientUnits="userSpaceOnUse">
<stop stop-color="#6B5656"/>
<stop offset="1" stop-color="#353133"/>
</linearGradient>
<linearGradient id="paint4_linear_1722_89817" x1="0.644531" y1="25.4586" x2="6.47813" y2="25.4586" gradientUnits="userSpaceOnUse">
<stop stop-color="#6B5656"/>
<stop offset="1" stop-color="#353133"/>
</linearGradient>
<linearGradient id="paint5_linear_1722_89817" x1="7.61755" y1="30.4972" x2="21.6894" y2="30.4972" gradientUnits="userSpaceOnUse">
<stop stop-color="#DA5858"/>
<stop offset="1" stop-color="#CF3432"/>
</linearGradient>
<linearGradient id="paint6_linear_1722_89817" x1="3.57818" y1="21.5608" x2="25.2675" y2="21.5608" gradientUnits="userSpaceOnUse">
<stop stop-color="#FFD8D9"/>
<stop offset="1" stop-color="#F6AFAF"/>
</linearGradient>
<linearGradient id="paint7_linear_1722_89817" x1="25.9261" y1="5.01687" x2="34.5898" y2="6.92989" gradientUnits="userSpaceOnUse">
<stop stop-color="#F6AFAF"/>
<stop offset="1" stop-color="#E48080"/>
</linearGradient>
<linearGradient id="paint8_linear_1722_89817" x1="25.9263" y1="5.0168" x2="34.5901" y2="6.92982" gradientUnits="userSpaceOnUse">
<stop stop-color="#6B5656"/>
<stop offset="1" stop-color="#353133"/>
</linearGradient>
<linearGradient id="paint9_linear_1722_89817" x1="25.7467" y1="7.32283" x2="31.596" y2="7.32283" gradientUnits="userSpaceOnUse">
<stop stop-color="#6B5656"/>
<stop offset="1" stop-color="#353133"/>
</linearGradient>
<linearGradient id="paint10_linear_1722_89817" x1="28.2249" y1="5.46633" x2="36.888" y2="7.37896" gradientUnits="userSpaceOnUse">
<stop stop-color="#FFD8D9"/>
<stop offset="1" stop-color="#F6AFAF"/>
</linearGradient>
<linearGradient id="paint11_linear_1722_89817" x1="23.0505" y1="25.1635" x2="35.9878" y2="25.1635" gradientUnits="userSpaceOnUse">
<stop stop-color="#F6AFAF"/>
<stop offset="1" stop-color="#E48080"/>
</linearGradient>
<linearGradient id="paint12_linear_1722_89817" x1="23.0488" y1="25.1629" x2="35.9829" y2="25.1629" gradientUnits="userSpaceOnUse">
<stop stop-color="#6B5656"/>
<stop offset="1" stop-color="#353133"/>
</linearGradient>
<linearGradient id="paint13_linear_1722_89817" x1="23.0488" y1="26.4255" x2="31.9489" y2="26.4255" gradientUnits="userSpaceOnUse">
<stop stop-color="#6B5656"/>
<stop offset="1" stop-color="#353133"/>
</linearGradient>
<linearGradient id="paint14_linear_1722_89817" x1="26.788" y1="25.622" x2="39.7253" y2="25.622" gradientUnits="userSpaceOnUse">
<stop stop-color="#FFD8D9"/>
<stop offset="1" stop-color="#F6AFAF"/>
</linearGradient>
<linearGradient id="paint15_linear_1722_89817" x1="14.7324" y1="16.896" x2="16.2042" y2="16.896" gradientUnits="userSpaceOnUse">
<stop stop-color="#6B5656"/>
<stop offset="1" stop-color="#353133"/>
</linearGradient>
<linearGradient id="paint16_linear_1722_89817" x1="14.7324" y1="16.896" x2="16.2042" y2="16.896" gradientUnits="userSpaceOnUse">
<stop stop-color="#6B5656"/>
<stop offset="1" stop-color="#353133"/>
</linearGradient>
</defs>
</svg>
