<svg width="31" height="37" viewBox="0 0 31 37" fill="none" xmlns="http://www.w3.org/2000/svg">
<path d="M17.0827 11.2678L14.6623 12.6482L14.262 23.7134C14.2494 24.1389 14.0099 24.5234 13.6412 24.7251L10.4801 26.4648L9.95381 26.7579L9.10918 27.2212L5.01841 29.4745L4.9869 29.4935L4.37864 29.8275V31.5735C4.37864 31.5735 4.37864 31.5735 4.37234 31.5704L1.8227 30.9211H1.81639L1.67457 30.8833C1.21129 30.7289 0.845703 30.294 0.845703 29.7393V17.2243C0.845703 16.9785 0.921341 16.7421 1.06001 16.5467C1.16717 16.3797 1.32475 16.241 1.51069 16.1465L3.57498 15.1127L5.92607 13.934L11.933 10.9211L12.9604 10.4074C13.3197 10.2278 13.7074 10.2467 14.0257 10.4042L14.2841 10.4767L16.4398 11.085L17.0859 11.2678H17.0827Z" fill="url(#paint0_linear_1722_89789)"/>
<path style="mix-blend-mode:multiply" d="M17.0827 11.2678L14.6623 12.6482L14.262 23.7134C14.2494 24.1389 14.0099 24.5234 13.6412 24.7251L10.4801 26.4648L9.95381 26.7579L9.10918 27.2212L5.01841 29.4745L4.9869 29.4935L4.37864 29.8275V31.5735C4.37864 31.5735 4.37864 31.5735 4.37234 31.5704L1.8227 30.9211H1.81639L1.67457 30.8833C1.21129 30.7289 0.845703 30.294 0.845703 29.7393V17.2243C0.845703 16.9785 0.921341 16.7421 1.06001 16.5467C1.16717 16.3797 1.32475 16.241 1.51069 16.1465L3.57498 15.1127L5.92607 13.934L11.933 10.9211L12.9604 10.4074C13.3197 10.2278 13.7074 10.2467 14.0257 10.4042L14.2841 10.4767L16.4398 11.085L17.0859 11.2678H17.0827Z" fill="url(#paint1_linear_1722_89789)"/>
<path style="mix-blend-mode:overlay" d="M5.6897 17.9064L5.04048 28.625L4.9995 29.2522V29.2616L4.9869 29.4917L4.85138 31.7388C4.68119 31.7167 4.52046 31.66 4.37864 31.5717C4.37864 31.5717 4.37654 31.5707 4.37234 31.5686L1.8227 30.9193H1.81639L1.67457 30.8815C1.21129 30.7271 0.845703 30.2922 0.845703 29.7375V17.2225C0.845703 16.9767 0.921341 16.7403 1.06001 16.5449L3.97524 17.4022L5.69286 17.9064H5.6897Z" fill="url(#paint2_linear_1722_89789)"/>
<path d="M17.6544 12.3321L17.5693 14.658L17.2164 24.5193C17.2006 24.9417 16.9642 25.3261 16.5955 25.531L13.9923 26.965L12.6907 27.6835L11.575 28.2949L11.0708 28.5723L8.62197 29.9243L7.0115 30.8099L5.58068 31.5978C5.53971 31.6199 5.50189 31.6388 5.46092 31.6546C5.25921 31.7396 5.05121 31.7649 4.85266 31.7396C4.68247 31.7176 4.52174 31.6609 4.37992 31.5726C4.37992 31.5726 4.37782 31.5716 4.37362 31.5695C4.0364 31.3646 3.79688 30.9959 3.79688 30.542V18.0271C3.79688 17.8033 3.85991 17.589 3.97336 17.403C4.08682 17.2139 4.25386 17.0564 4.46186 16.9524L14.5123 11.913L15.9116 11.2133C16.0849 11.1282 16.2646 11.0872 16.4379 11.0841C16.6711 11.0809 16.8949 11.1471 17.084 11.2669C17.4307 11.4812 17.6702 11.8688 17.6544 12.3321V12.3321Z" fill="url(#paint3_linear_1722_89789)"/>
<path opacity="0.16" d="M9.15774 27.0466C9.09155 28.074 8.75118 29.1519 8.62197 29.924L7.0115 30.8096L5.58068 31.5975C5.53971 31.6196 5.50189 31.6385 5.46092 31.6542C5.25921 31.7393 5.05121 31.7645 4.85266 31.7393C4.68247 31.7173 4.52174 31.6605 4.37992 31.5723C4.37992 31.5723 4.37782 31.5712 4.37362 31.5691C4.0364 31.3643 3.79688 30.9955 3.79688 30.5417V27.5729L6.1259 25.6914L9.15774 27.0466V27.0466Z" fill="black"/>
<path opacity="0.16" d="M17.6525 12.3321L17.5674 14.658L17.2144 24.5193C17.1986 24.9417 16.9623 25.3261 16.5935 25.531L13.9903 26.965L12.6887 27.6835L11.573 28.2949C11.551 23.3596 11.9922 15.9218 14.5103 11.913L15.9096 11.2133C16.083 11.1282 16.2626 11.0872 16.4359 11.0841C16.6692 11.0809 16.8929 11.1471 17.082 11.2669C17.4287 11.4812 17.6682 11.8688 17.6525 12.3321V12.3321Z" fill="black"/>
<path d="M26.0487 6.63429C25.6705 8.15336 24.8353 9.40454 23.7953 10.1924C23.332 10.5486 22.8246 10.8102 22.2983 10.9646L22.6828 11.4625L20.754 11.0875H20.7319L20.3695 11.0119C17.9774 10.4194 16.6506 7.49468 17.3975 4.48491C17.6087 3.64028 17.9585 2.87759 18.4092 2.23152C19.4807 0.684083 21.1196 -0.198364 22.73 0.0380058L23.0767 0.104189H23.083L25.1189 0.498139L25.2608 0.526503L25.3931 0.551716H25.39L24.6809 0.974029C26.0108 2.19054 26.6065 4.38721 26.0487 6.63429V6.63429Z" fill="url(#paint4_linear_1722_89789)"/>
<path style="mix-blend-mode:multiply" d="M26.0487 6.63429C25.6705 8.15336 24.8353 9.40454 23.7953 10.1924C23.332 10.5486 22.8246 10.8102 22.2983 10.9646L22.6828 11.4625L20.754 11.0875H20.7319L20.3695 11.0119C17.9774 10.4194 16.6506 7.49468 17.3975 4.48491C17.6087 3.64028 17.9585 2.87759 18.4092 2.23152C19.4807 0.684083 21.1196 -0.198364 22.73 0.0380058L23.0767 0.104189H23.083L25.1189 0.498139L25.2608 0.526503L25.3931 0.551716H25.39L24.6809 0.974029C26.0108 2.19054 26.6065 4.38721 26.0487 6.63429V6.63429Z" fill="url(#paint5_linear_1722_89789)"/>
<path style="mix-blend-mode:overlay" d="M24.0726 11.5308C23.6125 11.5939 23.1461 11.5749 22.6828 11.4615L20.754 11.0864H20.7319L20.3695 11.0108C17.9774 10.4183 16.6506 7.49363 17.3975 4.48386C17.6087 3.63923 17.9585 2.87655 18.4092 2.23047L20.5901 2.87339L22.3928 3.40917L23.7953 10.1914L24.0726 11.5308V11.5308Z" fill="url(#paint6_linear_1722_89789)"/>
<path d="M28.3628 7.08083C27.7609 9.51071 25.9897 11.2567 24.0735 11.5309C23.6134 11.5939 23.147 11.575 22.6837 11.4615C20.2948 10.8659 18.9648 7.94437 19.7117 4.93144C19.9008 4.16876 20.2034 3.4754 20.591 2.87345C21.6783 1.18104 23.4211 0.210353 25.1199 0.497148L25.2617 0.525512C25.3058 0.531815 25.3468 0.54127 25.3909 0.553876H25.394C27.783 1.14638 29.1129 4.07106 28.3628 7.08083V7.08083Z" fill="url(#paint7_linear_1722_89789)"/>
<path d="M26.8606 29.3755C26.826 30.1571 26.3721 30.8568 25.6756 31.2035L18.2851 34.8908L18.9942 36.5549L15.7292 35.767C14.7301 35.6377 13.8792 34.812 13.854 33.6869C13.7059 27.3963 14.1471 14.2888 20.2738 13.0282C20.9419 12.8895 21.5407 12.8958 22.0828 13.0219L22.2877 13.0723L25.5338 13.8728L24.5915 14.9003C27.0592 18.5624 26.993 26.3185 26.8638 29.3724L26.8606 29.3755Z" fill="url(#paint8_linear_1722_89789)"/>
<path style="mix-blend-mode:multiply" d="M26.8591 29.3751C26.8244 30.1567 26.3706 30.8564 25.6741 31.203L22.9417 32.5645L18.2836 34.8904L18.9896 36.5544L15.7245 35.7697C15.2266 35.7067 14.7633 35.4671 14.4229 35.1016C14.0794 34.7391 13.8619 34.2506 13.8493 33.6896C13.7422 29.2963 13.9281 21.5781 16.1374 16.8916C17.0891 14.8683 18.4223 13.4123 20.2691 13.0309C20.9341 12.8954 21.536 12.8986 22.0781 13.0246L22.283 13.0782L25.5291 13.8756L24.5868 14.903C27.0545 18.5651 26.9915 26.3212 26.8591 29.3751V29.3751Z" fill="url(#paint9_linear_1722_89789)"/>
<path style="mix-blend-mode:overlay" d="M18.2836 34.8913L18.9896 36.5554L15.7245 35.7706C15.2266 35.7076 14.7633 35.4681 14.4229 35.1025C14.0794 34.7401 13.8619 34.2516 13.8493 33.6906C13.7422 29.2973 13.9281 21.579 16.1374 16.8926L21.1326 18.5377L22.9417 32.5655L18.2836 34.8913V34.8913Z" fill="url(#paint10_linear_1722_89789)"/>
<path d="M20.6817 36.4615L29.4085 32.1091C30.1081 31.7593 30.5588 31.0596 30.5935 30.278C30.7763 26.0045 30.8267 12.5314 24.0035 13.9339C17.8736 15.1945 17.4324 28.302 17.5805 34.5926C17.6184 36.1621 19.2761 37.1611 20.6817 36.4583V36.4615Z" fill="url(#paint11_linear_1722_89789)"/>
<path d="M4.74586 16.527C4.09663 16.527 3.57031 16.0007 3.57031 15.3514V9.92756C3.57031 6.90518 5.28478 4.16644 7.97309 2.83962C9.20536 2.23136 10.6519 2.14312 11.8842 2.74507C13.3686 3.46994 14.2763 4.95119 14.2763 6.5648V11.2512C14.2763 11.9005 13.75 12.4268 13.1007 12.4268C12.4515 12.4268 11.9252 11.9005 11.9252 11.2512V6.63414C11.9252 5.98176 11.6258 5.35144 11.0837 4.98901C10.5385 4.62342 9.8798 4.56354 9.27785 4.82197C7.23562 5.69812 5.91825 7.70253 5.91825 9.9244V15.3483C5.91825 15.9975 5.39193 16.5238 4.74271 16.5238L4.74586 16.527Z" fill="url(#paint12_linear_1722_89789)"/>
<g style="mix-blend-mode:multiply">
<path d="M4.74781 16.527C4.09858 16.527 3.57227 16.0007 3.57227 15.3514V9.92756C3.57227 6.90518 5.28673 4.16644 7.97504 2.83962C9.20732 2.23136 10.6539 2.14312 11.8862 2.74507C13.3706 3.46994 14.2782 4.95119 14.2782 6.5648V11.2512C14.2782 11.9005 13.7519 12.4268 13.1027 12.4268C12.4535 12.4268 11.9271 11.9005 11.9271 11.2512V6.63414C11.9271 5.98176 11.6277 5.35144 11.0857 4.98901C10.5404 4.62342 9.88176 4.56354 9.2798 4.82197C7.23757 5.69812 5.9202 7.70253 5.9202 9.9244V15.3483C5.9202 15.9975 5.39389 16.5238 4.74466 16.5238L4.74781 16.527Z" fill="url(#paint13_linear_1722_89789)"/>
</g>
<path d="M9.52752 34.147L10.1957 35.5053L8.35828 35.124C8.28894 35.1208 8.21961 35.1019 8.15658 35.0704C4.92304 33.5324 4.97662 28.6758 4.97662 28.6758L8.61986 25.8047L10.224 26.3215L9.92777 26.8037L11.1632 27.4845C10.9205 31.2286 10.1862 33.1605 9.53067 34.1501L9.52752 34.147Z" fill="url(#paint14_linear_1722_89789)"/>
<path style="mix-blend-mode:multiply" d="M9.52866 34.1462L10.1968 35.5045L8.35942 35.1232C8.29009 35.12 8.22075 35.1011 8.15772 35.0696C5.36541 33.7428 5.02188 29.9357 4.98091 28.924L4.97461 28.675L8.61785 25.8008L10.222 26.3176L9.92576 26.7998L11.1612 27.4806C10.9437 30.8024 10.3418 32.6965 9.75243 33.7743C9.67679 33.9098 9.60115 34.0359 9.52866 34.1462V34.1462Z" fill="url(#paint15_linear_1722_89789)"/>
<path style="mix-blend-mode:overlay" d="M10.1968 35.5053L8.35942 35.1239C8.29009 35.1208 8.22075 35.1019 8.15772 35.0704C5.36541 33.7435 5.02188 29.9364 4.98091 28.9248L4.97461 28.6758L6.83405 29.0571L9.75243 33.7751C9.67679 33.9106 9.60115 34.0366 9.52866 34.1469L10.1968 35.5053V35.5053Z" fill="url(#paint16_linear_1722_89789)"/>
<path d="M10.222 26.3203L6.83404 29.0559C6.83404 29.0559 6.78046 33.9125 10.014 35.4536C10.1779 35.5324 10.3638 35.5261 10.5183 35.4316C11.1423 35.0502 12.6456 33.5532 13.0143 27.8614L10.2189 26.3203H10.222Z" fill="url(#paint17_linear_1722_89789)"/>
<defs>
<linearGradient id="paint0_linear_1722_89789" x1="0.842552" y1="20.9274" x2="17.0827" y2="20.9274" gradientUnits="userSpaceOnUse">
<stop stop-color="#6CA4FF"/>
<stop offset="1" stop-color="#B3D6FF"/>
</linearGradient>
<linearGradient id="paint1_linear_1722_89789" x1="0.842552" y1="20.9274" x2="17.0827" y2="20.9274" gradientUnits="userSpaceOnUse">
<stop stop-color="#6CA4FF"/>
<stop offset="1" stop-color="#B3D6FF"/>
</linearGradient>
<linearGradient id="paint2_linear_1722_89789" x1="0.842552" y1="24.1434" x2="5.6897" y2="24.1434" gradientUnits="userSpaceOnUse">
<stop stop-color="#6B5656"/>
<stop offset="1" stop-color="#353133"/>
</linearGradient>
<linearGradient id="paint3_linear_1722_89789" x1="17.6544" y1="21.4182" x2="3.79687" y2="21.4182" gradientUnits="userSpaceOnUse">
<stop stop-color="#8DC5FC"/>
<stop offset="1" stop-color="#DCEEFF"/>
</linearGradient>
<linearGradient id="paint4_linear_1722_89789" x1="17.3755" y1="4.56685" x2="26.0833" y2="6.48932" gradientUnits="userSpaceOnUse">
<stop stop-color="#6CA4FF"/>
<stop offset="1" stop-color="#B3D6FF"/>
</linearGradient>
<linearGradient id="paint5_linear_1722_89789" x1="17.3755" y1="4.56685" x2="26.0833" y2="6.48932" gradientUnits="userSpaceOnUse">
<stop stop-color="#6CA4FF"/>
<stop offset="1" stop-color="#B3D6FF"/>
</linearGradient>
<linearGradient id="paint6_linear_1722_89789" x1="17.1895" y1="6.89798" x2="24.0726" y2="6.89798" gradientUnits="userSpaceOnUse">
<stop stop-color="#6B5656"/>
<stop offset="1" stop-color="#353133"/>
</linearGradient>
<linearGradient id="paint7_linear_1722_89789" x1="28.5709" y1="6.00613" x2="19.5037" y2="6.00613" gradientUnits="userSpaceOnUse">
<stop stop-color="#6CA4FF"/>
<stop offset="1" stop-color="#B3D6FF"/>
</linearGradient>
<linearGradient id="paint8_linear_1722_89789" x1="13.9886" y1="24.5828" x2="26.9813" y2="24.9253" gradientUnits="userSpaceOnUse">
<stop stop-color="#6CA4FF"/>
<stop offset="1" stop-color="#B3D6FF"/>
</linearGradient>
<linearGradient id="paint9_linear_1722_89789" x1="13.8272" y1="24.7423" x2="26.9095" y2="24.7423" gradientUnits="userSpaceOnUse">
<stop stop-color="#6CA4FF"/>
<stop offset="1" stop-color="#B3D6FF"/>
</linearGradient>
<linearGradient id="paint10_linear_1722_89789" x1="13.8272" y1="26.7256" x2="22.9417" y2="26.7256" gradientUnits="userSpaceOnUse">
<stop stop-color="#6B5656"/>
<stop offset="1" stop-color="#353133"/>
</linearGradient>
<linearGradient id="paint11_linear_1722_89789" x1="30.6403" y1="25.2657" x2="17.5567" y2="25.2645" gradientUnits="userSpaceOnUse">
<stop stop-color="#6CA4FF"/>
<stop offset="1" stop-color="#B3D6FF"/>
</linearGradient>
<linearGradient id="paint12_linear_1722_89789" x1="3.57031" y1="9.43276" x2="14.2794" y2="9.43276" gradientUnits="userSpaceOnUse">
<stop stop-color="#6CA4FF"/>
<stop offset="1" stop-color="#B3D6FF"/>
</linearGradient>
<linearGradient id="paint13_linear_1722_89789" x1="3.57227" y1="9.43276" x2="14.2814" y2="9.43276" gradientUnits="userSpaceOnUse">
<stop stop-color="#6CA4FF"/>
<stop offset="1" stop-color="#B3D6FF"/>
</linearGradient>
<linearGradient id="paint14_linear_1722_89789" x1="4.91017" y1="30.4944" x2="11.0455" y2="30.7161" gradientUnits="userSpaceOnUse">
<stop stop-color="#6CA4FF"/>
<stop offset="1" stop-color="#B3D6FF"/>
</linearGradient>
<linearGradient id="paint15_linear_1722_89789" x1="4.97461" y1="30.6542" x2="11.1612" y2="30.6542" gradientUnits="userSpaceOnUse">
<stop stop-color="#6CA4FF"/>
<stop offset="1" stop-color="#B3D6FF"/>
</linearGradient>
<linearGradient id="paint16_linear_1722_89789" x1="4.97461" y1="32.0921" x2="10.1968" y2="32.0921" gradientUnits="userSpaceOnUse">
<stop stop-color="#6B5656"/>
<stop offset="1" stop-color="#353133"/>
</linearGradient>
<linearGradient id="paint17_linear_1722_89789" x1="13.1485" y1="30.7799" x2="6.91881" y2="31.0663" gradientUnits="userSpaceOnUse">
<stop stop-color="#6CA4FF"/>
<stop offset="1" stop-color="#B3D6FF"/>
</linearGradient>
</defs>
</svg>
