<svg width="46" height="47" viewBox="0 0 46 47" fill="none" xmlns="http://www.w3.org/2000/svg">
<g clip-path="url(#clip0_1722_90007)">
<path d="M27.4278 6.03444L24.3725 8.52325V29.8824C24.3725 30.308 24.1322 30.6925 23.7546 30.8813L22.917 31.2967L21.5507 31.9764L17.8158 33.8335C17.8158 33.8335 17.8021 33.837 17.7952 33.8438L14.4001 35.5294L13.8234 37.184L13.1746 39.0412C13.1746 39.0412 13.1643 39.0412 13.1575 39.0343L9.73835 37.4277L9.69373 37.4071C9.31955 37.2355 9.04492 36.8613 9.04492 36.3979V11.3897C9.04492 11.0876 9.1685 10.8061 9.37791 10.6035C9.46716 10.5109 9.57358 10.4353 9.69029 10.3804L22.79 4.2734C23.1436 4.10862 23.5212 4.14638 23.8164 4.32146H23.8301L27.0742 5.86623L27.4278 6.03444V6.03444Z" fill="url(#paint0_linear_1722_90007)"/>
<path d="M11.7982 21.5417V25.129C11.7982 25.6268 11.3691 26.001 10.8954 25.9563C10.8439 25.9563 10.7924 25.9426 10.7409 25.9254C10.3839 25.8259 10.1367 25.4998 10.1367 25.129V21.5417C10.1367 21.2877 10.2466 21.0714 10.4148 20.9238H10.4182C10.6379 20.7281 10.9537 20.6526 11.2593 20.7659C11.5819 20.886 11.7982 21.195 11.7982 21.5417V21.5417Z" fill="url(#paint1_linear_1722_90007)"/>
<path d="M11.1771 21.7504V25.3343C11.1771 25.5883 11.0673 25.8046 10.8956 25.9556C10.6931 26.1376 10.4047 26.2165 10.1164 26.1341C9.75936 26.0311 9.51562 25.705 9.51562 25.3343V21.7504C9.51562 21.2492 9.94816 20.8819 10.415 20.9231H10.4185C10.4906 20.9265 10.5661 20.9437 10.6382 20.9711C10.9608 21.0947 11.1771 21.4037 11.1771 21.7504V21.7504Z" fill="url(#paint2_linear_1722_90007)"/>
<path style="mix-blend-mode:overlay" d="M13.8303 39.1578C13.6003 39.1922 13.3703 39.1441 13.1746 39.0411C13.1678 39.0411 13.1643 39.0411 13.1575 39.0343L9.73835 37.4277L9.69373 37.4071C9.31955 37.2355 9.04492 36.8613 9.04492 36.3978V11.3896C9.04492 11.0875 9.1685 10.8061 9.37791 10.6035L12.7764 12.4161L13.7307 12.9241L13.8131 35.1243L13.8234 37.184L13.8303 39.1578V39.1578Z" fill="url(#paint3_linear_1722_90007)"/>
<path d="M13.8342 35.1324L13.7793 35.1152H13.7827L13.8342 35.1324Z" fill="url(#paint4_linear_1722_90007)"/>
<path d="M27.9018 6.94146V31.5446C27.9018 31.7128 27.8641 31.8741 27.792 32.0218C27.689 32.2449 27.5105 32.4268 27.2839 32.5401L25.2139 33.57L25.1521 33.6009L23.1268 34.6067L21.8841 35.2246L19.4914 36.4124L19.3781 36.4673L17.9397 37.1847L17.4832 37.4113L16.8584 37.7237L14.1842 39.0522C14.0709 39.1106 13.9508 39.1449 13.8306 39.1586C13.6006 39.193 13.3706 39.1449 13.175 39.0419C13.1681 39.0419 13.1647 39.0419 13.1578 39.035C12.818 38.8497 12.5742 38.4961 12.5742 38.0567V13.0519C12.5742 12.8219 12.6463 12.5988 12.7768 12.4168C12.8832 12.2589 13.0342 12.1285 13.2162 12.0427L18.0736 9.77698L21.3451 8.2528L26.3159 5.93221C26.5699 5.81549 26.8342 5.80176 27.0745 5.86698C27.2015 5.89788 27.3217 5.95624 27.4281 6.03519C27.7096 6.22743 27.9018 6.55355 27.9018 6.94146V6.94146Z" fill="url(#paint5_linear_1722_90007)"/>
<path opacity="0.16" d="M27.7612 18.729C27.7371 18.7187 27.7131 18.705 27.6856 18.6981C27.2394 18.5402 26.6421 18.8629 26.3125 19.4533L25.595 20.751C25.0458 20.6823 24.4588 20.7132 23.8546 20.8402L23.7585 20.0129L23.7104 19.5838C23.6795 19.3263 23.5731 19.1341 23.4118 19.0174C23.3809 18.9899 23.3431 18.9693 23.3053 18.9521C23.2985 18.9487 23.2882 18.9453 23.2813 18.9418C23.1028 18.8595 22.8865 18.856 22.6565 18.9453C22.6256 18.959 22.5913 18.9727 22.5604 18.9865L21.2765 19.6113C21.0294 19.7314 20.8131 19.9374 20.6586 20.1777C20.4492 20.4935 20.3394 20.8711 20.3771 21.2144L20.5213 22.4777C20.0236 22.8724 19.5533 23.3221 19.1276 23.813C19.0246 23.9263 18.9285 24.043 18.8324 24.1598L17.8952 23.686C17.8506 23.662 17.8025 23.6448 17.7545 23.6345H17.7442C17.3082 23.535 16.7555 23.8577 16.4465 24.4207L15.6639 25.8556C15.3171 26.4907 15.403 27.1944 15.8561 27.4175L16.3058 27.6441L16.7967 27.8913C16.5598 28.595 16.4019 29.3124 16.323 30.0265L15.1524 30.6135C14.8571 30.7611 14.61 31.0289 14.4486 31.3378C14.325 31.5713 14.253 31.8321 14.2461 32.0793C14.2461 32.1342 14.2461 32.1892 14.253 32.2441L14.4109 33.6344C14.4452 33.933 14.5859 34.1527 14.7885 34.2592C14.8194 34.2798 14.8537 34.2935 14.888 34.3038C14.9327 34.321 14.9807 34.3313 15.0288 34.3347C15.1901 34.3587 15.3755 34.3244 15.5643 34.2283L15.5986 34.2077H15.6021L16.7315 33.6344C16.9752 34.2386 17.3013 34.7569 17.6995 35.1792L16.9855 36.5042C16.7486 36.9402 16.7143 37.4036 16.8585 37.7229L17.4833 37.4105L17.9398 37.1839L19.3782 36.4665L19.4915 36.4115L21.8842 35.2238L23.1268 34.6059L25.1522 33.6001L25.214 33.5692L27.284 32.5393C27.5106 32.426 27.6891 32.2441 27.7921 32.021C27.8642 31.8733 27.9019 31.712 27.9019 31.5438V18.7977L27.7612 18.729V18.729ZM23.3534 31.8836C21.9562 32.5908 20.6621 32.1823 20.13 30.9945C20.0167 30.7405 19.9412 30.4521 19.9034 30.1295C19.8725 29.848 19.8725 29.5596 19.9068 29.2678C20.075 27.6613 21.1598 25.9963 22.5982 25.2823C22.6188 25.272 22.6359 25.2617 22.6565 25.2548C22.8797 25.1484 23.0994 25.0695 23.3122 25.0214C24.7094 24.685 25.8731 25.4848 26.0516 27.0433C26.2576 28.8593 25.0492 31.022 23.3534 31.8836V31.8836Z" fill="black"/>
<path d="M36.3437 27.2704L34.0059 26.2097C33.9133 26.1376 33.8034 26.093 33.6798 26.0792C33.5151 26.0518 33.3297 26.0861 33.1374 26.1822L31.9668 26.7624C31.7265 26.1685 31.397 25.657 31.0022 25.2416L31.1979 24.8915L31.7197 23.9474C31.7815 23.8376 31.8295 23.7243 31.8639 23.6145L33.007 23.0618C32.983 23.0515 32.9589 23.0377 32.9315 23.0309L31.421 22.3615L31.4004 22.3512L30.5045 21.9083C30.0513 21.6818 29.4025 22.0045 29.0524 22.6327L28.6576 23.3501L28.5168 23.6042L28.3383 23.9268C28.1942 23.9097 28.05 23.8959 27.9024 23.8959C27.6552 23.8856 27.3977 23.8959 27.1334 23.9268L27.9024 23.5664L28.5271 23.2746H28.534L27.9024 22.9794L26.0658 22.1315H26.0555C25.8461 22.0216 25.5783 22.0285 25.3003 22.1624L24.3734 22.6121L24.0164 22.7871C23.7658 22.9107 23.5461 23.1201 23.3882 23.3673C23.1856 23.6797 23.0792 24.0539 23.117 24.3937L23.2612 25.6536C22.6467 26.141 22.0803 26.7109 21.5756 27.3356L20.6351 26.8653C20.1819 26.6353 19.5331 26.9649 19.1864 27.5965L18.4037 29.0315C18.1119 29.5636 18.1291 30.1471 18.4071 30.4527C18.4621 30.5145 18.5239 30.5625 18.5959 30.5968L19.5331 31.0671C19.2997 31.7709 19.1383 32.4883 19.0594 33.2024L17.8888 33.7894C17.8648 33.8031 17.8373 33.8168 17.8133 33.834C17.8064 33.834 17.7995 33.8374 17.7927 33.8443C17.5386 33.9988 17.3224 34.2459 17.1782 34.5274C17.0306 34.8089 16.9585 35.1282 16.9928 35.42L17.1507 36.8103C17.1816 37.0883 17.3018 37.2943 17.4803 37.411C17.5249 37.4419 17.5695 37.4659 17.621 37.4831L20.0309 38.5988V38.5919L19.8489 37.5758C20.0206 37.8642 20.2197 38.125 20.4394 38.355L20.2712 38.6674L19.7219 39.6801C19.3752 40.3221 19.4645 41.0224 19.9176 41.2421L20.9406 41.7398C20.9715 41.757 21.0058 41.7707 21.0401 41.781H21.0436L22.4201 42.3989L22.1558 41.3142C22.2416 41.2146 22.3171 41.1047 22.3858 40.9777L22.8939 40.0371L23.0964 39.6595C23.6456 39.7144 24.2327 39.6733 24.8368 39.5359L24.981 40.7958C24.9913 40.9056 25.0188 40.9949 25.0565 41.0773V41.0842C25.1115 41.2112 25.1939 41.3073 25.2968 41.3759C25.3689 41.4274 25.4513 41.4618 25.5406 41.4789L27.8097 42.5397C27.8097 42.5397 27.8234 42.5465 27.8303 42.55L27.6106 40.583C27.8406 40.4113 28.0328 40.1642 28.153 39.8964C28.28 39.6321 28.3383 39.3471 28.3074 39.0862L28.1633 37.8298C28.7777 37.3321 29.3442 36.7553 29.8488 36.1271L30.7859 36.5734C31.2357 36.7897 31.8845 36.4498 32.2312 35.8182L33.0139 34.3901C33.3606 33.7585 33.2748 33.0719 32.8216 32.8556L31.8879 32.4094C32.1213 31.7125 32.2827 31.0053 32.3651 30.305L33.5322 29.7146C34.0506 29.4571 34.4316 28.8392 34.4419 28.2797L36.354 27.2773C36.354 27.2773 36.3403 27.2704 36.3368 27.2704H36.3437ZM23.1273 34.6064C22.8733 34.2665 22.7016 33.8306 22.6433 33.3053C22.5712 32.6531 22.6742 31.9597 22.9179 31.2971C23.2165 30.4767 23.7315 29.7043 24.3734 29.131C24.6721 28.8564 24.9948 28.6298 25.3415 28.4582C26.3233 27.9707 27.2536 28.0291 27.9024 28.5165C28.177 28.7225 28.4036 29.004 28.558 29.3542C28.6748 29.6082 28.7537 29.8965 28.7915 30.2192C28.9974 32.0352 27.7891 34.2013 26.0933 35.0595C25.8495 35.1831 25.6092 35.2724 25.3758 35.3273C24.4489 35.5573 23.6251 35.2792 23.1273 34.6064V34.6064Z" fill="url(#paint6_linear_1722_90007)"/>
<path d="M18.0742 9.77613L18.3042 10.0611C18.7574 10.6206 19.5194 10.8197 20.1888 10.5554C20.7724 10.322 21.1809 9.783 21.2496 9.15822L21.3457 8.25195L18.0742 9.77957V9.77613Z" fill="url(#paint7_linear_1722_90007)"/>
<path style="mix-blend-mode:overlay" d="M28.4029 42.6187C28.1901 42.6736 27.9909 42.6462 27.8365 42.5501C27.8296 42.5466 27.8227 42.5432 27.8159 42.5398L25.5468 41.479C25.4575 41.4619 25.3751 41.4275 25.303 41.376L25.0078 41.9219L25.0627 41.0842V41.0774L25.1245 40.099L28.1592 39.8965H28.2244C28.2244 39.8965 28.3274 41.3932 28.4029 42.6187Z" fill="url(#paint8_linear_1722_90007)"/>
<path style="mix-blend-mode:overlay" d="M22.9457 39.5123L22.9011 40.0341L22.6814 42.5229L22.4274 42.3993L21.0508 41.7814H21.0474C21.013 41.7711 20.9787 41.7574 20.9478 41.7402L19.9248 41.2425C19.4717 41.0228 19.3824 40.3225 19.7292 39.6805L20.2784 38.6679C20.2303 38.6644 20.1823 38.6541 20.1377 38.637L20.4466 38.3555L20.8483 38.5408H20.8517L22.9492 39.5123H22.9457Z" fill="url(#paint9_linear_1722_90007)"/>
<path style="mix-blend-mode:overlay" d="M21.5688 34.36L20.254 35.9254L19.6945 35.6713L17.1816 34.5282C17.3258 34.2467 17.5421 33.9995 17.7961 33.8451C17.803 33.8382 17.8099 33.8348 17.8167 33.8348C17.8407 33.8176 17.8682 33.8039 17.8922 33.7901L19.0628 33.2031L21.5688 34.36V34.36Z" fill="url(#paint10_linear_1722_90007)"/>
<path style="mix-blend-mode:overlay" d="M23.0005 27.9682L21.1021 31.7512L19.5368 31.0681L18.4108 30.457C18.1327 30.1481 18.1156 29.5645 18.4074 29.0324L19.19 27.5975C19.5368 26.9658 20.1856 26.6363 20.6387 26.8663L21.5793 27.3366L22.9936 27.9648H23.0039L23.0005 27.9682Z" fill="url(#paint11_linear_1722_90007)"/>
<path style="mix-blend-mode:overlay" d="M26.0897 24.5961V26.3126L25.7671 26.8103L23.2611 25.6535L23.1169 24.3936C23.0791 24.0538 23.1856 23.6796 23.3881 23.3672L25.9044 24.5103L26.0897 24.5961V24.5961Z" fill="url(#paint12_linear_1722_90007)"/>
<path style="mix-blend-mode:overlay" d="M33.6414 23.5664L31.1973 24.8915L30.8402 25.0837L29.0037 24.3456L28.5162 23.6042L28.4922 23.5664L28.5505 23.2849C28.5883 23.3021 28.6261 23.3227 28.657 23.3501L29.0517 22.6327C29.4019 22.0045 30.0507 21.6818 30.5038 21.9083L31.3998 22.3512L31.4204 22.3615L32.9308 23.0309C32.9583 23.0377 32.9823 23.0515 33.0064 23.0618L33.5865 23.3501L33.6414 23.5664V23.5664Z" fill="url(#paint13_linear_1722_90007)"/>
<path d="M36.9447 29.271L36.7902 27.9151C36.7525 27.5958 36.5911 27.3727 36.3611 27.2766C36.3543 27.2731 36.3474 27.2697 36.344 27.2697C36.1449 27.1942 35.8977 27.2079 35.6402 27.3349L34.4697 27.9185C34.2294 27.3246 33.9032 26.8131 33.505 26.3943L33.6801 26.0785L34.2259 25.1001C34.5726 24.4754 34.4868 23.7888 34.0337 23.5691L33.5874 23.3494L33.0073 23.061C32.9832 23.0507 32.9592 23.037 32.9317 23.0301C32.4855 22.8722 31.8882 23.1949 31.5586 23.7854L30.8411 25.083C30.2919 25.0143 29.7049 25.0452 29.1007 25.1722L29.0046 24.3449L28.9565 23.9158C28.9256 23.6584 28.8192 23.4661 28.6579 23.3494C28.627 23.3219 28.5892 23.3013 28.5514 23.2842C28.5446 23.2807 28.5343 23.2773 28.5274 23.2739C28.3489 23.1915 28.1326 23.1881 27.9026 23.2773C27.8717 23.291 27.8374 23.3048 27.8065 23.3185L26.5226 23.9433C26.2755 24.0634 26.0592 24.2694 25.9047 24.5097C25.6953 24.8255 25.5855 25.2031 25.6232 25.5464L25.7674 26.8097C25.2696 27.2045 24.7994 27.6542 24.3737 28.1451C24.2707 28.2584 24.1746 28.3751 24.0785 28.4918L23.1413 28.0181C23.0967 27.994 23.0486 27.9769 23.0005 27.9666H22.9902C22.5543 27.867 22.0016 28.1897 21.6926 28.7527L20.9099 30.1876C20.5632 30.8227 20.6491 31.5264 21.1022 31.7495L21.5519 31.9761L22.0428 32.2233C21.8059 32.927 21.648 33.6445 21.5691 34.3585L20.3985 34.9455C20.1032 35.0931 19.8561 35.3609 19.6947 35.6698C19.5711 35.9033 19.4991 36.1642 19.4922 36.4113C19.4922 36.4663 19.4922 36.5212 19.4991 36.5761L19.657 37.9664C19.6913 38.2651 19.832 38.4848 20.0346 38.5912C20.0655 38.6118 20.0998 38.6255 20.1341 38.6358C20.1788 38.653 20.2268 38.6633 20.2749 38.6667C20.4362 38.6907 20.6216 38.6564 20.8104 38.5603L20.8447 38.5397H20.8482L21.9776 37.9664C22.2213 38.5706 22.5474 39.089 22.9456 39.5112L22.2316 40.8363C21.8849 41.4782 21.9707 42.1785 22.4238 42.3982L22.6779 42.5218L23.4468 42.896C23.9 43.1191 24.5488 42.7758 24.8955 42.1339L25.0088 41.921L25.304 41.3752L25.6095 40.8122C26.1588 40.8706 26.7423 40.8294 27.3499 40.6921L27.4907 41.9519C27.5216 42.2231 27.6417 42.4257 27.8168 42.539C27.8237 42.5424 27.8305 42.5458 27.8374 42.5493C27.9919 42.6454 28.191 42.6728 28.4038 42.6179C28.4794 42.5973 28.5583 42.5664 28.6407 42.5252L29.9211 41.8627C30.4841 41.5709 30.8858 40.8466 30.8171 40.239L30.6764 38.986C31.2874 38.4882 31.8538 37.9115 32.3619 37.2798L33.2956 37.7296C33.7488 37.9458 34.3976 37.606 34.7443 36.9743L35.527 35.5463C35.8737 34.9146 35.7879 34.2281 35.3347 34.0118L34.3976 33.5621C34.6344 32.8687 34.7958 32.1581 34.8747 31.4578L36.0453 30.8707C36.6117 30.5893 37.0134 29.8718 36.9447 29.271V29.271ZM31.2977 31.3754C31.5037 33.1913 30.2953 35.354 28.5995 36.2157C27.2023 36.9228 25.9082 36.5143 25.3761 35.3266C25.2628 35.0725 25.1873 34.7842 25.1495 34.4615C25.1186 34.18 25.1186 33.8916 25.1529 33.5998C25.3211 31.9933 26.4059 30.3284 27.8443 29.6143C27.8649 29.604 27.882 29.5937 27.9026 29.5869C28.1258 29.4804 28.3455 29.4015 28.5583 29.3534C29.9555 29.017 31.1192 29.8169 31.2977 31.3754V31.3754Z" fill="url(#paint14_linear_1722_90007)"/>
</g>
<defs>
<linearGradient id="paint0_linear_1722_90007" x1="18.6157" y1="38.9244" x2="17.8742" y2="4.2837" gradientUnits="userSpaceOnUse">
<stop stop-color="#EBECF6"/>
<stop offset="1" stop-color="#AEB2DC"/>
</linearGradient>
<linearGradient id="paint1_linear_1722_90007" x1="11.2558" y1="25.9323" x2="10.6791" y2="20.7384" gradientUnits="userSpaceOnUse">
<stop stop-color="#AEB2DC"/>
<stop offset="1" stop-color="#6064BA"/>
</linearGradient>
<linearGradient id="paint2_linear_1722_90007" x1="10.6347" y1="26.141" x2="10.058" y2="20.9471" gradientUnits="userSpaceOnUse">
<stop stop-color="#EBECF6"/>
<stop offset="1" stop-color="#AEB2DC"/>
</linearGradient>
<linearGradient id="paint3_linear_1722_90007" x1="9.04492" y1="24.8875" x2="13.8303" y2="24.8875" gradientUnits="userSpaceOnUse">
<stop stop-color="#6B5656"/>
<stop offset="1" stop-color="#353133"/>
</linearGradient>
<linearGradient id="paint4_linear_1722_90007" x1="13.8068" y1="35.1324" x2="13.8068" y2="35.1152" gradientUnits="userSpaceOnUse">
<stop stop-color="#888BCB"/>
<stop offset="1" stop-color="#383DA9"/>
</linearGradient>
<linearGradient id="paint5_linear_1722_90007" x1="20.5899" y1="39.0213" x2="19.8862" y2="5.97684" gradientUnits="userSpaceOnUse">
<stop stop-color="#AEB2DC"/>
<stop offset="1" stop-color="#6064BA"/>
</linearGradient>
<linearGradient id="paint6_linear_1722_90007" x1="27.923" y1="42.5397" x2="25.6436" y2="22.0594" gradientUnits="userSpaceOnUse">
<stop stop-color="#888BCB"/>
<stop offset="1" stop-color="#383DA9"/>
</linearGradient>
<linearGradient id="paint7_linear_1722_90007" x1="19.746" y1="10.6687" x2="19.6945" y2="8.28628" gradientUnits="userSpaceOnUse">
<stop stop-color="#EBECF6"/>
<stop offset="1" stop-color="#AEB2DC"/>
</linearGradient>
<linearGradient id="paint8_linear_1722_90007" x1="26.8272" y1="42.8041" x2="26.508" y2="39.9445" gradientUnits="userSpaceOnUse">
<stop stop-color="#6B5656"/>
<stop offset="1" stop-color="#353133"/>
</linearGradient>
<linearGradient id="paint9_linear_1722_90007" x1="21.5211" y1="42.6499" x2="21.0371" y2="38.2902" gradientUnits="userSpaceOnUse">
<stop stop-color="#6B5656"/>
<stop offset="1" stop-color="#353133"/>
</linearGradient>
<linearGradient id="paint10_linear_1722_90007" x1="19.5503" y1="36.0043" x2="19.2345" y2="33.1825" gradientUnits="userSpaceOnUse">
<stop stop-color="#6B5656"/>
<stop offset="1" stop-color="#353133"/>
</linearGradient>
<linearGradient id="paint11_linear_1722_90007" x1="20.9133" y1="31.7718" x2="20.3572" y2="26.7839" gradientUnits="userSpaceOnUse">
<stop stop-color="#6B5656"/>
<stop offset="1" stop-color="#353133"/>
</linearGradient>
<linearGradient id="paint12_linear_1722_90007" x1="24.8711" y1="26.9099" x2="24.466" y2="23.247" gradientUnits="userSpaceOnUse">
<stop stop-color="#6B5656"/>
<stop offset="1" stop-color="#353133"/>
</linearGradient>
<linearGradient id="paint13_linear_1722_90007" x1="31.2316" y1="25.0391" x2="30.8643" y2="21.7539" gradientUnits="userSpaceOnUse">
<stop stop-color="#6B5656"/>
<stop offset="1" stop-color="#353133"/>
</linearGradient>
<linearGradient id="paint14_linear_1722_90007" x1="29.3316" y1="42.4375" x2="27.2009" y2="23.2913" gradientUnits="userSpaceOnUse">
<stop stop-color="#EBECF6"/>
<stop offset="1" stop-color="#AEB2DC"/>
</linearGradient>
<clipPath id="clip0_1722_90007">
<rect width="46" height="46" fill="white" transform="translate(0 0.566406)"/>
</clipPath>
</defs>
</svg>
