<svg width="20" height="20" viewBox="0 0 20 20" fill="none" xmlns="http://www.w3.org/2000/svg">
<g opacity="0.8" clip-path="url(#clip0_1722_90542)">
<path d="M16.6673 0.833984H14.1673C13.9463 0.833984 13.7343 0.921782 13.5781 1.07806C13.4218 1.23434 13.334 1.4463 13.334 1.66732C13.334 1.88833 13.4218 2.10029 13.5781 2.25657C13.7343 2.41285 13.9463 2.50065 14.1673 2.50065H16.6673C16.8883 2.50065 17.1003 2.58845 17.2566 2.74473C17.4129 2.90101 17.5007 3.11297 17.5007 3.33398V5.83398C17.5007 6.055 17.5884 6.26696 17.7447 6.42324C17.901 6.57952 18.113 6.66732 18.334 6.66732C18.555 6.66732 18.767 6.57952 18.9232 6.42324C19.0795 6.26696 19.1673 6.055 19.1673 5.83398V3.33398C19.1673 1.95336 18.0479 0.833984 16.6673 0.833984ZM5.83398 0.833984H3.33398C1.95336 0.833984 0.833984 1.95336 0.833984 3.33398V5.83398C0.833984 6.055 0.921782 6.26696 1.07806 6.42324C1.23434 6.57952 1.4463 6.66732 1.66732 6.66732C1.88833 6.66732 2.10029 6.57952 2.25657 6.42324C2.41285 6.26696 2.50065 6.055 2.50065 5.83398V3.33398C2.50065 3.11297 2.58845 2.90101 2.74473 2.74473C2.90101 2.58845 3.11297 2.50065 3.33398 2.50065H5.83398C6.055 2.50065 6.26696 2.41285 6.42324 2.25657C6.57952 2.10029 6.66732 1.88833 6.66732 1.66732C6.66732 1.4463 6.57952 1.23434 6.42324 1.07806C6.26696 0.921782 6.055 0.833984 5.83398 0.833984ZM18.334 13.334C18.113 13.334 17.901 13.4218 17.7447 13.5781C17.5884 13.7343 17.5007 13.9463 17.5007 14.1673V16.6673C17.5007 17.1277 17.1277 17.5007 16.6673 17.5007H14.1673C13.9463 17.5007 13.7343 17.5884 13.5781 17.7447C13.4218 17.901 13.334 18.113 13.334 18.334C13.334 18.555 13.4218 18.767 13.5781 18.9232C13.7343 19.0795 13.9463 19.1673 14.1673 19.1673H16.6673C18.0479 19.1673 19.1673 18.0479 19.1673 16.6673V14.1673C19.1673 13.9463 19.0795 13.7343 18.9232 13.5781C18.767 13.4218 18.555 13.334 18.334 13.334ZM5.83398 17.5007H3.33398C3.11297 17.5007 2.90101 17.4129 2.74473 17.2566C2.58845 17.1003 2.50065 16.8883 2.50065 16.6673V14.1673C2.5024 14.0568 2.48214 13.947 2.44105 13.8444C2.39996 13.7418 2.33886 13.6483 2.26132 13.5696C2.18377 13.4908 2.09133 13.4282 1.98937 13.3855C1.8874 13.3428 1.77797 13.3208 1.66742 13.3208C1.55688 13.3208 1.44744 13.3428 1.34548 13.3855C1.24352 13.4282 1.15107 13.4908 1.07353 13.5696C0.99598 13.6483 0.934884 13.7418 0.893795 13.8444C0.852706 13.947 0.832445 14.0568 0.834193 14.1673V16.6673C0.834193 18.0479 1.95357 19.1673 3.33419 19.1673H5.83419C6.05521 19.1673 6.26716 19.0795 6.42342 18.9232C6.57968 18.7669 6.66745 18.5549 6.66742 18.3339C6.66739 18.1129 6.57957 17.9009 6.42327 17.7447C6.26697 17.5884 6.055 17.5006 5.83398 17.5007Z" fill="white"/>
</g>
<defs>
<clipPath id="clip0_1722_90542">
<rect width="20" height="20" fill="white"/>
</clipPath>
</defs>
</svg>
