<svg width="18" height="19" viewBox="0 0 18 19" fill="none" xmlns="http://www.w3.org/2000/svg">
<path d="M16.4407 9.23711C14.9257 5.71961 12.0757 3.53711 9.00066 3.53711C5.92566 3.53711 3.07566 5.71961 1.56066 9.23711C1.51936 9.33173 1.49805 9.43387 1.49805 9.53711C1.49805 9.64035 1.51936 9.74248 1.56066 9.83711C3.07566 13.3546 5.92566 15.5371 9.00066 15.5371C12.0757 15.5371 14.9257 13.3546 16.4407 9.83711C16.482 9.74248 16.5033 9.64035 16.5033 9.53711C16.5033 9.43387 16.482 9.33173 16.4407 9.23711V9.23711ZM9.00066 14.0371C6.62316 14.0371 4.37316 12.3196 3.07566 9.53711C4.37316 6.75461 6.62316 5.03711 9.00066 5.03711C11.3782 5.03711 13.6282 6.75461 14.9257 9.53711C13.6282 12.3196 11.3782 14.0371 9.00066 14.0371ZM9.00066 6.53711C8.40732 6.53711 7.8273 6.71306 7.33395 7.0427C6.8406 7.37234 6.45608 7.84088 6.22902 8.38906C6.00196 8.93724 5.94255 9.54044 6.0583 10.1224C6.17406 10.7043 6.45978 11.2389 6.87934 11.6584C7.2989 12.078 7.83345 12.3637 8.41539 12.4795C8.99733 12.5952 9.60053 12.5358 10.1487 12.3087C10.6969 12.0817 11.1654 11.6972 11.4951 11.2038C11.8247 10.7105 12.0007 10.1305 12.0007 9.53711C12.0007 8.74146 11.6846 7.9784 11.122 7.41579C10.5594 6.85318 9.79631 6.53711 9.00066 6.53711V6.53711ZM9.00066 11.0371C8.70399 11.0371 8.41398 10.9491 8.16731 10.7843C7.92063 10.6195 7.72837 10.3852 7.61484 10.1111C7.50131 9.83705 7.4716 9.53545 7.52948 9.24447C7.58736 8.9535 7.73022 8.68623 7.94 8.47645C8.14978 8.26667 8.41705 8.12381 8.70802 8.06593C8.999 8.00805 9.3006 8.03776 9.57469 8.15129C9.84877 8.26482 10.083 8.45708 10.2479 8.70375C10.4127 8.95043 10.5007 9.24044 10.5007 9.53711C10.5007 9.93493 10.3426 10.3165 10.0613 10.5978C9.78002 10.8791 9.39849 11.0371 9.00066 11.0371Z" fill="#383536"/>
</svg>
