<svg width="24" height="24" viewBox="0 0 24 24" fill="none" xmlns="http://www.w3.org/2000/svg">
<path fill-rule="evenodd" clip-rule="evenodd" d="M5 13V15H6V13V12V10H5V12H2V13H5ZM22 13H7V12H22V13Z" fill="#081539"/>
<path d="M5 15H4.9V15.1H5V15ZM5 13H5.1V12.9H5V13ZM6 15V15.1H6.1V15H6ZM6 10H6.1V9.9H6V10ZM5 10V9.9H4.9V10H5ZM5 12V12.1H5.1V12H5ZM2 12V11.9H1.9V12H2ZM2 13H1.9V13.1H2V13ZM7 13H6.9V13.1H7V13ZM22 13V13.1H22.1V13H22ZM7 12V11.9H6.9V12H7ZM22 12H22.1V11.9H22V12ZM5.1 15V13H4.9V15H5.1ZM6 14.9H5V15.1H6V14.9ZM5.9 13V15H6.1V13H5.9ZM6.1 13V12H5.9V13H6.1ZM5.9 10V12H6.1V10H5.9ZM5 10.1H6V9.9H5V10.1ZM5.1 12V10H4.9V12H5.1ZM5 11.9H2V12.1H5V11.9ZM1.9 12V13H2.1V12H1.9ZM2 13.1H5V12.9H2V13.1ZM7 13.1H22V12.9H7V13.1ZM6.9 12V13H7.1V12H6.9ZM22 11.9H7V12.1H22V11.9ZM22.1 13V12H21.9V13H22.1Z" fill="#081539"/>
<path fill-rule="evenodd" clip-rule="evenodd" d="M11 20V22H12V20V19V17H11V19H2V20H11ZM22 20H13V19H22V20Z" fill="#081539"/>
<path d="M11 22H10.9V22.1H11V22ZM11 20H11.1V19.9H11V20ZM12 22V22.1H12.1V22H12ZM12 17H12.1V16.9H12V17ZM11 17V16.9H10.9V17H11ZM11 19V19.1H11.1V19H11ZM2 19V18.9H1.9V19H2ZM2 20H1.9V20.1H2V20ZM13 20H12.9V20.1H13V20ZM22 20V20.1H22.1V20H22ZM13 19V18.9H12.9V19H13ZM22 19H22.1V18.9H22V19ZM11.1 22V20H10.9V22H11.1ZM12 21.9H11V22.1H12V21.9ZM11.9 20V22H12.1V20H11.9ZM12.1 20V19H11.9V20H12.1ZM11.9 17V19H12.1V17H11.9ZM11 17.1H12V16.9H11V17.1ZM11.1 19V17H10.9V19H11.1ZM11 18.9H2V19.1H11V18.9ZM1.9 19V20H2.1V19H1.9ZM2 20.1H11V19.9H2V20.1ZM13 20.1H22V19.9H13V20.1ZM12.9 19V20H13.1V19H12.9ZM22 18.9H13V19.1H22V18.9ZM22.1 20V19H21.9V20H22.1Z" fill="#081539"/>
<path fill-rule="evenodd" clip-rule="evenodd" d="M15 6V8H16V6V5V3H15V5H2V6H15ZM22 6H17V5H22V6Z" fill="#081539"/>
<path d="M15 8H14.9V8.1H15V8ZM15 6H15.1V5.9H15V6ZM16 8V8.1H16.1V8H16ZM16 3H16.1V2.9H16V3ZM15 3V2.9H14.9V3H15ZM15 5V5.1H15.1V5H15ZM2 5V4.9H1.9V5H2ZM2 6H1.9V6.1H2V6ZM17 6H16.9V6.1H17V6ZM22 6V6.1H22.1V6H22ZM17 5V4.9H16.9V5H17ZM22 5H22.1V4.9H22V5ZM15.1 8V6H14.9V8H15.1ZM16 7.9H15V8.1H16V7.9ZM15.9 6V8H16.1V6H15.9ZM16.1 6V5H15.9V6H16.1ZM15.9 3V5H16.1V3H15.9ZM15 3.1H16V2.9H15V3.1ZM15.1 5V3H14.9V5H15.1ZM15 4.9H2V5.1H15V4.9ZM1.9 5V6H2.1V5H1.9ZM2 6.1H15V5.9H2V6.1ZM17 6.1H22V5.9H17V6.1ZM16.9 5V6H17.1V5H16.9ZM22 4.9H17V5.1H22V4.9ZM22.1 6V5H21.9V6H22.1Z" fill="#081539"/>
</svg>
