<svg width="24" height="25" viewBox="0 0 24 25" fill="none" xmlns="http://www.w3.org/2000/svg">
<g clip-path="url(#clip0_87_61)">
<path d="M12 0.5C5.373 0.5 0 5.873 0 12.5C0 19.127 5.373 24.5 12 24.5C18.627 24.5 24 19.127 24 12.5C24 5.873 18.627 0.5 12 0.5ZM13 16.557V13.5H15.994C15.935 14.643 15.782 15.74 15.538 16.779C14.715 16.659 13.864 16.591 13 16.557ZM14.957 18.719C14.458 20.049 13.798 21.216 13 22.175V18.555C13.666 18.583 14.319 18.636 14.957 18.719ZM13 11.5V8.485C13.868 8.451 14.721 8.382 15.548 8.261C15.786 9.288 15.937 10.372 15.994 11.5H13ZM13 6.486V2.825C13.806 3.794 14.471 4.975 14.971 6.321C14.329 6.405 13.671 6.458 13 6.486ZM15.703 3.219C16.94 3.715 18.057 4.447 18.993 5.365C18.351 5.599 17.682 5.807 16.974 5.972C16.63 4.98 16.199 4.062 15.703 3.219ZM8.462 16.779C8.218 15.74 8.064 14.643 8.006 13.5H11V16.557C10.135 16.591 9.286 16.659 8.462 16.779ZM11 18.555V22.175C10.202 21.216 9.542 20.049 9.043 18.719C9.681 18.636 10.334 18.583 11 18.555ZM8.006 11.5C8.063 10.372 8.213 9.288 8.452 8.261C9.279 8.382 10.132 8.451 11 8.485V11.5H8.006ZM9.03 6.321C9.53 4.975 10.195 3.794 11 2.825V6.486C10.329 6.458 9.671 6.405 9.03 6.321ZM7.025 5.971C6.317 5.806 5.648 5.598 5.007 5.364C5.944 4.446 7.06 3.714 8.297 3.218C7.801 4.062 7.37 4.98 7.025 5.971ZM6.476 7.889C6.212 9.04 6.042 10.249 5.984 11.5H2.051C2.216 9.842 2.79 8.303 3.668 6.982C4.548 7.343 5.484 7.652 6.476 7.889ZM6.485 17.151C5.497 17.387 4.565 17.693 3.688 18.051C2.798 16.723 2.217 15.172 2.051 13.5H5.985C6.043 14.765 6.216 15.988 6.485 17.151ZM7.038 19.068C7.38 20.044 7.806 20.949 8.295 21.78C7.072 21.29 5.969 20.569 5.039 19.665C5.675 19.436 6.338 19.23 7.038 19.068ZM16.962 19.068C17.662 19.231 18.324 19.435 18.961 19.665C18.03 20.568 16.927 21.29 15.704 21.781C16.193 20.949 16.619 20.044 16.962 19.068ZM17.515 17.151C17.785 15.988 17.957 14.765 18.016 13.5H21.95C21.783 15.172 21.202 16.723 20.312 18.051C19.435 17.693 18.502 17.387 17.515 17.151ZM18.016 11.5C17.958 10.249 17.787 9.04 17.524 7.889C18.516 7.652 19.453 7.343 20.333 6.982C21.21 8.303 21.784 9.842 21.949 11.5H18.016Z" fill="white"/>
</g>
<defs>
<clipPath id="clip0_87_61">
<rect width="24" height="24" fill="white" transform="translate(0 0.5)"/>
</clipPath>
</defs>
</svg>
