<svg width="23" height="24" viewBox="0 0 23 24" fill="none" xmlns="http://www.w3.org/2000/svg">
<g clip-path="url(#clip0_1722_90261)">
<path d="M5.09728 14.436L4.29669 17.4247L1.37052 17.4866C0.496027 15.8646 0 14.0089 0 12.0368C0 10.1298 0.463773 8.3315 1.28584 6.74805H1.28647L3.89158 7.22566L5.03278 9.81513C4.79393 10.5115 4.66374 11.259 4.66374 12.0368C4.66383 12.881 4.81675 13.6898 5.09728 14.436V14.436Z" fill="#FBBB00"/>
<path d="M22.7992 9.88867C22.9312 10.5843 23.0001 11.3028 23.0001 12.037C23.0001 12.8603 22.9135 13.6635 22.7486 14.4381C22.1888 17.0743 20.726 19.3762 18.6996 21.0051L18.699 21.0045L15.4177 20.8371L14.9533 17.938C16.2979 17.1495 17.3488 15.9154 17.9023 14.4381H11.7529V9.88867H22.7992Z" fill="#518EF8"/>
<path d="M18.6985 21.0038L18.6991 21.0044C16.7283 22.5885 14.2248 23.5363 11.4996 23.5363C7.12012 23.5363 3.31249 21.0885 1.37012 17.4862L5.09688 14.4355C6.06805 17.0274 8.56835 18.8725 11.4996 18.8725C12.7595 18.8725 13.9399 18.5319 14.9527 17.9373L18.6985 21.0038Z" fill="#28B446"/>
<path d="M18.8407 3.18463L15.1152 6.23464C14.0669 5.57941 12.8278 5.2009 11.5003 5.2009C8.5027 5.2009 5.95563 7.13061 5.03311 9.81545L1.28676 6.74837H1.28613C3.20007 3.05826 7.05572 0.537109 11.5003 0.537109C14.2906 0.537109 16.849 1.53105 18.8407 3.18463Z" fill="#F14336"/>
</g>
<defs>
<clipPath id="clip0_1722_90261">
<rect width="23" height="23" fill="white" transform="translate(0 0.537109)"/>
</clipPath>
</defs>
</svg>
