<svg width="32" height="35" viewBox="0 0 32 35" fill="none" xmlns="http://www.w3.org/2000/svg">
<path d="M25.7534 6.49657L22.6808 7.41598V21.5808C22.6808 22.6425 22.0401 23.6094 21.0614 24.0305L5.78741 30.5672L4.22739 31.2375L4.74344 33.9423L1.16073 32.1747L0.917528 32.0561H0.911597C0.561629 31.8247 0.3125 31.4332 0.3125 30.9587V15.0382C0.3125 14.4153 0.537903 13.8281 0.929392 13.3654C1.17852 13.051 1.51069 12.8019 1.90218 12.6358L20.8835 4.59251C21.269 4.43236 21.6664 4.46795 21.9986 4.6459L22.0164 4.65776L25.7534 6.49657Z" fill="url(#paint0_linear_1722_89949)"/>
<path style="mix-blend-mode:overlay" d="M5.78742 30.567L4.22739 31.2373L4.74344 33.9421L1.16073 32.1745L0.917529 32.0559H0.911597C0.561629 31.8245 0.3125 31.433 0.3125 30.9585V15.038C0.3125 14.4151 0.537903 13.8279 0.929392 13.3652L6.24415 16.0226L5.78742 30.567V30.567Z" fill="url(#paint1_linear_1722_89949)"/>
<path d="M26.4132 7.6256V23.4157C26.4132 24.0088 26.2174 24.5664 25.8793 25.0172C25.6005 25.385 25.2328 25.6815 24.7938 25.8714L5.84814 33.9859C4.99399 34.3536 4.04492 33.7249 4.04492 32.7995V16.879C4.04492 15.8291 4.67368 14.8859 5.64054 14.4767L24.6218 6.43333C25.1438 6.20793 25.7014 6.36215 26.0514 6.72992C26.2708 6.95532 26.4132 7.2697 26.4132 7.6256Z" fill="url(#paint2_linear_1722_89949)"/>
<path style="mix-blend-mode:overlay" d="M26.4129 7.62615V23.4162C26.4129 24.0094 26.2172 24.5669 25.8791 25.0178C22.2845 16.9626 24.7283 9.67257 26.0511 6.73047C26.2706 6.95587 26.4129 7.27025 26.4129 7.62615V7.62615Z" fill="url(#paint3_linear_1722_89949)"/>
<path d="M9.64219 24.5299L21.2208 19.3813C22.2647 18.9186 23.4451 19.6838 23.4451 20.8226C23.4451 22.1454 22.6622 23.3377 21.4462 23.8656L9.26257 29.1388C8.39655 29.5125 7.42969 28.8778 7.42969 27.9347C7.42969 26.4577 8.29571 25.1231 9.64219 24.524V24.5299Z" fill="url(#paint4_linear_1722_89949)"/>
<path style="mix-blend-mode:overlay" d="M18.702 11.8783L16.8098 12.6316C16.2938 12.8333 15.7362 12.4596 15.7362 11.902V10.1937L11.7383 8.46756L18.702 5.51953V11.8783V11.8783Z" fill="url(#paint5_linear_1722_89949)"/>
<path d="M30.8697 1.36246L28.7876 2.96994L28.6987 2.79199V8.2847C28.6987 8.81855 28.3784 9.29901 27.892 9.51255L21.0765 12.4309L20.4655 12.6919L20.2876 15.0409C20.2876 15.0409 20.2757 15.0349 20.2698 15.029L17.82 13.5223C17.648 13.4096 17.5234 13.2139 17.5234 12.9766V5.01636C17.5234 4.7435 17.6065 4.48844 17.7548 4.2749C17.8912 4.07323 18.0869 3.91307 18.3183 3.81223L26.9844 0.13461C27.4293 -0.0552027 27.9335 -0.0433393 28.3665 0.164268L30.7392 1.29721C30.7866 1.31501 30.8281 1.3328 30.8697 1.36246Z" fill="url(#paint6_linear_1722_89949)"/>
<path style="mix-blend-mode:overlay" d="M21.0765 5.9343V14.9919L20.8748 15.0809C20.6731 15.1699 20.4537 15.1402 20.2876 15.0394C20.2876 15.0335 20.2757 15.0335 20.2698 15.0275L17.82 13.5209C17.648 13.4082 17.5234 13.2124 17.5234 12.9752V5.01489C17.5234 4.74204 17.6065 4.48698 17.7548 4.27344L20.3884 5.59026L21.0824 5.9343H21.0765Z" fill="url(#paint7_linear_1722_89949)"/>
<path d="M31.1597 1.9056V9.80063C31.1597 10.0023 31.1122 10.1981 31.0292 10.376C30.8928 10.6607 30.6555 10.898 30.353 11.0285L21.0759 14.9968L20.8742 15.0857C20.6725 15.1747 20.453 15.1451 20.287 15.0442C20.287 15.0383 20.2751 15.0383 20.2692 15.0323C20.0971 14.9196 19.9785 14.7239 19.9785 14.4926V6.53229C19.9785 6.17046 20.1268 5.83236 20.3819 5.59509C20.4946 5.48239 20.6251 5.39341 20.7734 5.32816L30.264 1.31244C30.4242 1.24126 30.5902 1.24719 30.7385 1.30057C30.786 1.31837 30.8275 1.33616 30.869 1.36582C30.875 1.36582 30.875 1.37175 30.8809 1.37768C31.047 1.49039 31.1597 1.6802 31.1597 1.9056Z" fill="url(#paint8_linear_1722_89949)"/>
<path d="M27.2623 8.90333C27.7308 8.90333 28.1105 8.2394 28.1105 7.42041C28.1105 6.60142 27.7308 5.9375 27.2623 5.9375C26.7938 5.9375 26.4141 6.60142 26.4141 7.42041C26.4141 8.2394 26.7938 8.90333 27.2623 8.90333Z" fill="url(#paint9_linear_1722_89949)"/>
<path d="M23.7056 10.0908C24.1741 10.0908 24.5539 9.4269 24.5539 8.60791C24.5539 7.78892 24.1741 7.125 23.7056 7.125C23.2372 7.125 22.8574 7.78892 22.8574 8.60791C22.8574 9.4269 23.2372 10.0908 23.7056 10.0908Z" fill="url(#paint10_linear_1722_89949)"/>
<path style="mix-blend-mode:overlay" d="M31.1576 1.90487V9.7999C31.1576 10.0016 31.1102 10.1973 31.0271 10.3753C29.1587 7.4569 30.2916 3.12679 30.8788 1.37695C31.0449 1.48965 31.1576 1.67947 31.1576 1.90487V1.90487Z" fill="url(#paint11_linear_1722_89949)"/>
<defs>
<linearGradient id="paint0_linear_1722_89949" x1="0.3125" y1="19.214" x2="25.7534" y2="19.214" gradientUnits="userSpaceOnUse">
<stop stop-color="#888BCB"/>
<stop offset="1" stop-color="#383DA9"/>
</linearGradient>
<linearGradient id="paint1_linear_1722_89949" x1="0.3125" y1="23.6507" x2="6.24415" y2="23.6507" gradientUnits="userSpaceOnUse">
<stop stop-color="#6B5656"/>
<stop offset="1" stop-color="#353133"/>
</linearGradient>
<linearGradient id="paint2_linear_1722_89949" x1="4.04492" y1="20.2066" x2="26.4132" y2="20.2066" gradientUnits="userSpaceOnUse">
<stop stop-color="#AEB2DC"/>
<stop offset="1" stop-color="#6064BA"/>
</linearGradient>
<linearGradient id="paint3_linear_1722_89949" x1="24.0047" y1="15.8711" x2="26.4129" y2="15.8711" gradientUnits="userSpaceOnUse">
<stop stop-color="#6B5656"/>
<stop offset="1" stop-color="#353133"/>
</linearGradient>
<linearGradient id="paint4_linear_1722_89949" x1="7.42969" y1="24.2452" x2="23.4451" y2="24.2452" gradientUnits="userSpaceOnUse">
<stop stop-color="#888BCB"/>
<stop offset="1" stop-color="#383DA9"/>
</linearGradient>
<linearGradient id="paint5_linear_1722_89949" x1="11.7383" y1="9.10225" x2="18.702" y2="9.10225" gradientUnits="userSpaceOnUse">
<stop stop-color="#6B5656"/>
<stop offset="1" stop-color="#353133"/>
</linearGradient>
<linearGradient id="paint6_linear_1722_89949" x1="17.5175" y1="7.51952" x2="30.8697" y2="7.51952" gradientUnits="userSpaceOnUse">
<stop stop-color="#AEB2DC"/>
<stop offset="1" stop-color="#6064BA"/>
</linearGradient>
<linearGradient id="paint7_linear_1722_89949" x1="17.5175" y1="9.7009" x2="21.0765" y2="9.7009" gradientUnits="userSpaceOnUse">
<stop stop-color="#6B5656"/>
<stop offset="1" stop-color="#353133"/>
</linearGradient>
<linearGradient id="paint8_linear_1722_89949" x1="19.9785" y1="8.19908" x2="31.1597" y2="8.19908" gradientUnits="userSpaceOnUse">
<stop stop-color="#888BCB"/>
<stop offset="1" stop-color="#383DA9"/>
</linearGradient>
<linearGradient id="paint9_linear_1722_89949" x1="26.4141" y1="7.42041" x2="28.1105" y2="7.42041" gradientUnits="userSpaceOnUse">
<stop stop-color="#EBECF6"/>
<stop offset="1" stop-color="#AEB2DC"/>
</linearGradient>
<linearGradient id="paint10_linear_1722_89949" x1="22.8574" y1="8.60791" x2="24.5539" y2="8.60791" gradientUnits="userSpaceOnUse">
<stop stop-color="#EBECF6"/>
<stop offset="1" stop-color="#AEB2DC"/>
</linearGradient>
<linearGradient id="paint11_linear_1722_89949" x1="30.001" y1="5.87315" x2="31.1576" y2="5.87315" gradientUnits="userSpaceOnUse">
<stop stop-color="#6B5656"/>
<stop offset="1" stop-color="#353133"/>
</linearGradient>
</defs>
</svg>
