<svg width="17" height="17" viewBox="0 0 17 17" fill="none" xmlns="http://www.w3.org/2000/svg">
<path d="M15.1103 8.53793C15.1104 9.90649 14.6785 11.2401 13.8762 12.3489C13.0739 13.4576 11.9421 14.2848 10.6421 14.7125C9.34211 15.1403 7.94028 15.1469 6.63635 14.7313C5.33243 14.3157 4.19296 13.4991 3.38031 12.3979L4.18531 11.8029C4.91973 12.8004 5.96933 13.5207 7.16415 13.8473C8.35897 14.1739 9.62905 14.0876 10.7687 13.6024C11.9084 13.1172 12.8509 12.2615 13.4436 11.1739C14.0364 10.0862 14.2446 8.83038 14.0347 7.60965C13.8247 6.38893 13.2089 5.27481 12.2868 4.44772C11.3648 3.62062 10.1905 3.12899 8.95426 3.05242C7.71797 2.97585 6.49204 3.31884 5.47498 4.02583C4.45792 4.73283 3.70929 5.76244 3.35031 6.94793L3.85031 6.62293L4.41031 7.45293L2.91031 8.45293C2.82193 8.51252 2.71682 8.5423 2.61031 8.53793C2.52841 8.53805 2.44773 8.51806 2.37537 8.47969C2.30301 8.44133 2.24118 8.38579 2.19531 8.31793L1.19531 6.81793L2.02531 6.25793L2.36531 6.75793C2.79912 5.25503 3.76037 3.95898 5.07265 3.10761C6.38492 2.25625 7.96021 1.90667 9.50943 2.12304C11.0587 2.33941 12.4779 3.10721 13.5067 4.28554C14.5355 5.46386 15.1049 6.97368 15.1103 8.53793ZM8.11031 5.03793V8.53793C8.10993 8.60373 8.12254 8.66896 8.14743 8.72988C8.17231 8.7908 8.20897 8.84621 8.25531 8.89293L9.75531 10.3929L10.4653 9.68293L9.11031 8.33293V5.03793H8.11031Z" fill="#7A7979"/>
</svg>
