<svg width="46" height="47" viewBox="0 0 46 47" fill="none" xmlns="http://www.w3.org/2000/svg">
<g clip-path="url(#clip0_1722_89988)">
<path d="M23.9304 32.193V32.3407C23.9304 32.4917 23.9098 32.6393 23.872 32.7835C23.7381 33.3636 23.3605 33.8683 22.8215 34.1532L20.6108 35.3307L17.6242 36.9201L15.7156 37.9362L16.4468 39.5359L13.2439 38.8562C12.7565 38.8081 12.2965 38.585 11.9566 38.2417C11.6168 37.895 11.3902 37.4281 11.3627 36.8789C11.143 32.4951 11.1293 24.7095 13.3092 20.1232C14.1811 18.2969 15.3963 16.9787 17.0887 16.5839C17.7375 16.4329 18.3211 16.4226 18.8532 16.5325L19.0557 16.5771L22.238 17.2705L21.3454 18.2969C22.3341 19.6838 22.9554 21.7057 23.3365 23.8272C23.666 25.6398 23.8205 27.5278 23.8892 29.1516C23.9166 29.7901 23.9304 30.3874 23.9338 30.9263C23.9406 31.4001 23.9372 31.8257 23.9338 32.193H23.9304Z" fill="url(#paint0_linear_1722_89988)"/>
<path style="mix-blend-mode:overlay" d="M17.7306 39.5529C17.2947 39.6902 16.8484 39.6765 16.4468 39.5392L13.2439 38.856C12.7565 38.808 12.2965 38.5848 11.9566 38.2416C11.6168 37.8948 11.3902 37.428 11.3627 36.8787C11.143 32.495 11.1293 24.7093 13.3092 20.123L16.9686 20.9195L17.6242 36.9199L17.7306 39.5529V39.5529Z" fill="url(#paint1_linear_1722_89988)"/>
<path d="M22.5571 10.1993C22.1143 12.1972 20.8613 13.7523 19.368 14.3839C19.2513 14.4354 19.1346 14.48 19.0145 14.5178L19.4024 14.9915L17.5143 14.6757H17.4903L17.1367 14.6139C14.7921 14.0955 13.4224 11.2806 14.0746 8.32838C14.2668 7.4633 14.6101 6.68062 15.0598 6.02151C16.0656 4.53853 17.607 3.67345 19.1552 3.85882L19.4951 3.91375H19.5019L21.3865 4.22957C21.3865 4.22957 21.4071 4.233 21.4174 4.233L21.7642 4.29136L21.081 4.72047C22.4061 5.8739 23.0446 7.99882 22.5571 10.1993V10.1993Z" fill="url(#paint2_linear_1722_89988)"/>
<path style="mix-blend-mode:overlay" d="M19.4642 15.0018C19.4436 15.0018 19.423 14.9949 19.4024 14.9915L17.5143 14.6757H17.4903L17.1367 14.6139C14.7921 14.0955 13.4224 11.2806 14.0746 8.32835C14.2668 7.46328 14.6101 6.68059 15.0598 6.02148L17.2397 6.52611L18.194 6.74581L19.368 14.3839L19.4642 15.0018Z" fill="url(#paint3_linear_1722_89988)"/>
<path d="M24.8262 10.5768C24.1808 13.505 21.7847 15.4754 19.4641 15.0017C19.4435 15.0017 19.4229 14.9948 19.4023 14.9914C17.0577 14.473 15.688 11.6581 16.3402 8.70587C16.5187 7.89572 16.8311 7.15767 17.2396 6.52602C18.2352 4.97781 19.8074 4.05781 21.3865 4.22946C21.3968 4.22946 21.4071 4.23289 21.4174 4.23289L21.7641 4.29125C24.1087 4.80961 25.4784 7.62453 24.8262 10.5768V10.5768Z" fill="url(#paint4_linear_1722_89988)"/>
<path d="M27.593 33.1266C27.5792 33.8852 27.157 34.5821 26.4842 34.9391L23.9954 36.2642L20.7067 38.0115L18.2659 39.3091L18.0909 39.4018C17.9707 39.467 17.8506 39.5151 17.7304 39.5528C17.2945 39.6901 16.8482 39.6764 16.4465 39.5391C15.6742 39.2816 15.0665 38.5813 15.0219 37.6648C14.8022 33.2845 14.7885 25.5057 16.9683 20.9194C17.8368 19.0863 19.0555 17.7646 20.7513 17.3698C21.2868 17.2463 21.7812 17.2154 22.2377 17.2703C23.4942 17.4213 24.4554 18.204 25.1934 19.3609C25.4337 19.7282 25.6465 20.1333 25.8388 20.5692C26.0791 21.1185 26.2919 21.7124 26.4704 22.3371C26.9201 23.8819 27.1948 25.6052 27.363 27.2564C27.4591 28.197 27.5174 29.117 27.5518 29.9649C27.6067 31.2316 27.6067 32.3404 27.593 33.1266Z" fill="url(#paint5_linear_1722_89988)"/>
<g opacity="0.16">
<path d="M27.552 29.9659C27.5176 29.118 27.4593 28.198 27.3632 27.2574C27.1949 25.6062 26.9203 23.8829 26.4706 22.3381C26.2921 21.7134 26.0793 21.1195 25.839 20.5702C25.6467 20.1343 25.4339 19.7292 25.1936 19.3619C24.2976 19.0632 23.309 19.1937 22.4645 19.6468C20.4323 20.7384 19.1896 22.8908 19.272 25.2149L19.4196 29.3823C19.4196 29.4098 19.423 29.4372 19.4264 29.4647L18.4584 29.9934C18.146 30.165 17.9538 30.5014 17.9675 30.8584L18.2661 39.3101L20.7069 38.0125L23.9955 36.2652L26.4844 34.9401C27.1572 34.5831 27.5794 33.8862 27.5932 33.1275C27.6069 32.3414 27.6069 31.2326 27.552 29.9659V29.9659ZM25.7291 26.025L21.1978 28.5001L21.0776 25.1496C21.0158 23.4435 21.977 21.8678 23.5218 21.1366C23.9784 20.9238 24.4864 20.9513 24.9155 21.2156C25.3412 21.4799 25.5884 21.9571 25.6055 22.4583L25.7291 26.0078V26.025V26.025Z" fill="black"/>
</g>
<path d="M33.9923 27.3915L31.8159 29.0667L31.1843 36.3272C31.1877 36.6602 31.0092 36.9691 30.7243 37.1408L26.0041 41.1057L25.5407 41.8747L24.758 43.1791L21.6273 42.3244L21.514 42.2969C21.1432 42.1905 20.8446 41.8609 20.8309 41.4249L20.4841 31.6105C20.4773 31.4354 20.5185 31.2672 20.6009 31.1196C20.6867 30.9651 20.8137 30.8312 20.975 30.7454L29.7974 25.9291C30.0755 25.7781 30.3776 25.7815 30.6316 25.8948L33.8825 26.8148C34.1468 26.8869 34.212 27.2267 33.9958 27.3915H33.9923Z" fill="url(#paint6_linear_1722_89988)"/>
<path d="M24.1291 30.9399C23.6314 30.9571 23.2126 30.5658 23.1954 30.068L23.0478 25.8971C22.9654 23.5731 24.2115 21.4207 26.2403 20.329C27.1706 19.8279 28.2794 19.7214 29.2441 20.1505C30.4044 20.6689 31.1424 21.7811 31.187 23.0238L31.3141 26.6283C31.3312 27.1261 30.9399 27.5449 30.4421 27.562C29.9444 27.5792 29.5256 27.1879 29.5084 26.6901L29.3848 23.1405C29.3676 22.6393 29.1205 22.1622 28.6948 21.8979C28.2657 21.6335 27.7576 21.6026 27.3045 21.8189C25.7597 22.5501 24.7985 24.1223 24.8603 25.8319L25.0079 30.0028C25.0251 30.5005 24.6338 30.9193 24.136 30.9365L24.1291 30.9399Z" fill="url(#paint7_linear_1722_89988)"/>
<path style="mix-blend-mode:overlay" d="M25.5407 41.8742L24.758 43.1787L21.6273 42.3239L21.514 42.2965C21.1432 42.19 20.8446 41.8605 20.8309 41.4245L20.4841 31.61C20.4773 31.435 20.5185 31.2668 20.6009 31.1191L25.0635 32.4923L25.5441 41.8742H25.5407Z" fill="url(#paint8_linear_1722_89988)"/>
<path d="M23.8649 32.5747L24.2117 42.3892C24.2357 43.1067 25.0218 43.5358 25.6397 43.165L34.2733 38.1016C34.5582 37.9299 34.7333 37.6244 34.7333 37.2914L34.5754 27.7207C34.5754 27.0032 33.8064 26.5467 33.1782 26.8899L24.3558 31.7062C24.0435 31.8779 23.8512 32.2108 23.8649 32.5679V32.5747Z" fill="url(#paint9_linear_1722_89988)"/>
</g>
<defs>
<linearGradient id="paint0_linear_1722_89988" x1="11.2666" y1="27.9981" x2="23.9372" y2="27.9981" gradientUnits="userSpaceOnUse">
<stop stop-color="#888BCB"/>
<stop offset="1" stop-color="#383DA9"/>
</linearGradient>
<linearGradient id="paint1_linear_1722_89988" x1="11.2666" y1="29.886" x2="17.7306" y2="29.886" gradientUnits="userSpaceOnUse">
<stop stop-color="#6B5656"/>
<stop offset="1" stop-color="#353133"/>
</linearGradient>
<linearGradient id="paint2_linear_1722_89988" x1="14.0883" y1="8.27002" x2="22.5709" y2="10.1409" gradientUnits="userSpaceOnUse">
<stop stop-color="#888BCB"/>
<stop offset="1" stop-color="#383DA9"/>
</linearGradient>
<linearGradient id="paint3_linear_1722_89988" x1="13.9133" y1="10.5116" x2="19.4642" y2="10.5116" gradientUnits="userSpaceOnUse">
<stop stop-color="#6B5656"/>
<stop offset="1" stop-color="#353133"/>
</linearGradient>
<linearGradient id="paint4_linear_1722_89988" x1="16.1789" y1="9.63961" x2="24.9875" y2="9.63961" gradientUnits="userSpaceOnUse">
<stop stop-color="#EBECF6"/>
<stop offset="1" stop-color="#AEB2DC"/>
</linearGradient>
<linearGradient id="paint5_linear_1722_89988" x1="14.9258" y1="28.4476" x2="27.5998" y2="28.4476" gradientUnits="userSpaceOnUse">
<stop stop-color="#EBECF6"/>
<stop offset="1" stop-color="#AEB2DC"/>
</linearGradient>
<linearGradient id="paint6_linear_1722_89988" x1="20.4807" y1="34.4975" x2="34.1228" y2="34.4975" gradientUnits="userSpaceOnUse">
<stop stop-color="#888BCB"/>
<stop offset="1" stop-color="#383DA9"/>
</linearGradient>
<linearGradient id="paint7_linear_1722_89988" x1="31.3132" y1="25.4147" x2="23.0418" y2="25.4144" gradientUnits="userSpaceOnUse">
<stop stop-color="#AEB2DC"/>
<stop offset="1" stop-color="#6064BA"/>
</linearGradient>
<linearGradient id="paint8_linear_1722_89988" x1="20.4807" y1="37.1506" x2="25.5407" y2="37.1506" gradientUnits="userSpaceOnUse">
<stop stop-color="#6B5656"/>
<stop offset="1" stop-color="#353133"/>
</linearGradient>
<linearGradient id="paint9_linear_1722_89988" x1="23.8622" y1="35.0385" x2="34.734" y2="35.0398" gradientUnits="userSpaceOnUse">
<stop stop-color="#AEB2DC"/>
<stop offset="1" stop-color="#6064BA"/>
</linearGradient>
<clipPath id="clip0_1722_89988">
<rect width="46" height="46" fill="white" transform="translate(0 0.566406)"/>
</clipPath>
</defs>
</svg>
