<svg width="24" height="25" viewBox="0 0 24 25" fill="none" xmlns="http://www.w3.org/2000/svg">
<path d="M9.84152 18.686L9.38288 19.2794L9.84152 18.686ZM12.5 7.18221L11.9648 7.70764C12.1058 7.85129 12.2987 7.93221 12.5 7.93221C12.7013 7.93221 12.8942 7.85129 13.0352 7.70764L12.5 7.18221ZM15.1585 18.686L15.6171 19.2794L15.6171 19.2794L15.1585 18.686ZM12.5 20.0371L12.5 19.2871L12.5 20.0371ZM10.3001 18.0925C9.03399 17.114 7.55997 15.834 6.40933 14.4364C5.24169 13.0181 4.5 11.5901 4.5 10.3017H3C3 12.121 4.01681 13.8903 5.25129 15.3898C6.50279 16.9099 8.07452 18.2682 9.38288 19.2794L10.3001 18.0925ZM4.5 10.3017C4.5 7.93791 5.57792 6.49082 6.91055 5.99385C8.2522 5.49352 10.1398 5.84877 11.9648 7.70764L13.0352 6.65678C10.9228 4.50514 8.43544 3.82428 6.38643 4.5884C4.3284 5.35588 3 7.47379 3 10.3017H4.5ZM15.6171 19.2794C16.9255 18.2683 18.4972 16.91 19.7487 15.3898C20.9832 13.8903 22 12.121 22 10.3017H20.5C20.5 11.5901 19.7583 13.0181 18.5907 14.4364C17.44 15.8341 15.966 17.114 14.6999 18.0926L15.6171 19.2794ZM22 10.3017C22 7.47378 20.6716 5.35587 18.6136 4.5884C16.5646 3.82428 14.0772 4.50514 11.9648 6.65678L13.0352 7.70764C14.8602 5.84877 16.7478 5.49352 18.0894 5.99385C19.4221 6.49082 20.5 7.9379 20.5 10.3017H22ZM9.38288 19.2794C10.4926 20.137 11.2854 20.7871 12.5 20.7871L12.5 19.2871C11.8941 19.2871 11.5214 19.0364 10.3001 18.0925L9.38288 19.2794ZM14.6999 18.0926C13.4786 19.0364 13.1059 19.2871 12.5 19.2871L12.5 20.7871C13.7146 20.7871 14.5074 20.1371 15.6171 19.2794L14.6999 18.0926Z" fill="#383536"/>
<path d="M18.1875 10.0378H16.4375M16.4375 10.0378L14.6875 10.0378M16.4375 10.0378L16.4375 8.37109M16.4375 10.0378L16.4375 11.7044" stroke="#383536" stroke-width="1.5" stroke-linecap="round"/>
</svg>
