<svg width="25" height="22" viewBox="0 0 25 22" fill="none" xmlns="http://www.w3.org/2000/svg">
<path d="M13.926 2.08392L11.672 3.11729V11.8008C11.672 11.9807 11.5619 12.1441 11.3967 12.212L4.23474 15.1267L3.88967 15.2662L3.60334 17.5807L1.22826 16.1876C1.08509 16.1178 0.980469 15.9692 0.980469 15.7893V5.00047C0.980469 4.9399 0.993317 4.87933 1.01901 4.8261C1.06306 4.71964 1.1475 4.63338 1.25762 4.58932L11.0608 0.599038C11.215 0.536633 11.3765 0.567836 11.4958 0.657773L13.9241 2.08392H13.926Z" fill="url(#paint0_linear_1722_90158)"/>
<path d="M4.23474 15.1268L3.88967 15.2663L3.60334 17.5808L1.22826 16.1877C1.08509 16.1179 0.980469 15.9692 0.980469 15.7894V5.00054C0.980469 4.93997 0.993317 4.8794 1.01901 4.82617L3.73366 6.48543L4.23474 15.1268Z" fill="url(#paint1_linear_1722_90158)"/>
<path d="M14.1311 2.45824V13.2471C14.1311 13.4288 14.0228 13.5903 13.8558 13.6582L9.13133 15.5818L4.05078 17.6485C3.75894 17.7678 3.44141 17.5531 3.44141 17.2374V6.44853C3.44141 6.26682 3.5497 6.1053 3.71672 6.03738L13.5217 2.0471C13.8136 1.92779 14.1311 2.14254 14.1311 2.45824V2.45824Z" fill="url(#paint2_linear_1722_90158)"/>
<path opacity="0.16" d="M14.1306 4.84766V13.2467C14.1306 13.4284 14.0224 13.5899 13.8553 13.6579L9.13086 15.5814V7.18236C9.13086 7.00065 9.23915 6.83913 9.40618 6.77122L14.1306 4.84766V4.84766Z" fill="black"/>
<path d="M11.5158 11.9415L9.05441 6.86275C8.99017 6.73059 8.84884 6.65167 8.70384 6.66819C8.557 6.68471 8.4377 6.78933 8.40282 6.93433L6.86288 13.397C6.81882 13.5842 6.93446 13.7714 7.12167 13.8155C7.14737 13.8228 7.1749 13.8246 7.20244 13.8246C7.36028 13.8246 7.50345 13.7182 7.54199 13.5585L8.07978 11.2972L10.0621 10.5337L10.8917 12.2461C10.9743 12.4187 11.1835 12.4903 11.3561 12.4058C11.5304 12.3232 11.602 12.114 11.5176 11.9415H11.5158ZM8.27434 10.4768L8.85251 8.04478L9.75556 9.90594L8.27434 10.4768Z" fill="url(#paint3_linear_1722_90158)"/>
<path d="M24.0217 5.93939L21.7677 6.97276V15.6563C21.7677 15.8362 21.6576 15.9995 21.4924 16.0675L14.3947 18.9546L13.9854 19.1217L13.699 21.4362L11.324 20.0431C11.1808 19.9733 11.0762 19.8246 11.0762 19.6448V8.85594C11.0762 8.78068 11.0964 8.70726 11.1331 8.64302C11.179 8.55492 11.2579 8.48334 11.3533 8.44479L21.1565 4.45451C21.3107 4.3921 21.4722 4.4233 21.5915 4.51324L24.0198 5.93939H24.0217Z" fill="url(#paint4_linear_1722_90158)"/>
<path style="mix-blend-mode:overlay" opacity="0.51" d="M14.3947 18.9542L13.9854 19.1212L13.699 21.4357L11.324 20.0426C11.1808 19.9729 11.0762 19.8242 11.0762 19.6443V8.85549C11.0762 8.78024 11.0964 8.70682 11.1331 8.64258L13.9266 10.2486L14.3947 18.9542Z" fill="url(#paint5_linear_1722_90158)"/>
<path d="M23.9515 17.5116L14.1483 21.5019C13.8565 21.6212 13.5371 21.4064 13.5371 21.0907V10.3001C13.5371 10.1202 13.6472 9.95686 13.8143 9.88895L23.6174 5.89866C23.9093 5.77936 24.2287 5.9941 24.2287 6.3098V17.0986C24.2287 17.2785 24.1185 17.4419 23.9515 17.5098V17.5116Z" fill="url(#paint6_linear_1722_90158)"/>
<path d="M18.9998 10.9041L18.9961 10.9043L19.2721 16.5875L19.2757 16.5873L18.9998 10.9041Z" fill="url(#paint7_linear_1722_90158)"/>
<path d="M19.0017 10.9041L18.998 10.9043L19.274 16.5875L19.2777 16.5873L19.0017 10.9041Z" fill="url(#paint8_linear_1722_90158)"/>
<path d="M19.0056 10.9041L19.002 10.9043L19.2779 16.5875L19.2816 16.5873L19.0056 10.9041Z" fill="url(#paint9_linear_1722_90158)"/>
<path d="M19.0095 10.9041L19.0059 10.9043L19.2818 16.5875L19.2855 16.5873L19.0095 10.9041Z" fill="url(#paint10_linear_1722_90158)"/>
<path d="M19.0115 10.9002L19.0078 10.9004L19.2838 16.5836L19.2874 16.5834L19.0115 10.9002Z" fill="url(#paint11_linear_1722_90158)"/>
<path d="M19.0134 10.9002L19.0098 10.9004L19.2857 16.5836L19.2894 16.5834L19.0134 10.9002Z" fill="url(#paint12_linear_1722_90158)"/>
<path d="M19.0173 10.9002L19.0137 10.9004L19.2896 16.5836L19.2933 16.5834L19.0173 10.9002Z" fill="url(#paint13_linear_1722_90158)"/>
<path d="M19.0193 10.9022L19.0156 10.9023L19.2916 16.5856L19.2953 16.5854L19.0193 10.9022Z" fill="url(#paint14_linear_1722_90158)"/>
<path d="M19.0232 10.9022L19.0195 10.9023L19.2955 16.5856L19.2992 16.5854L19.0232 10.9022Z" fill="url(#paint15_linear_1722_90158)"/>
<path d="M19.0252 10.9022L19.0215 10.9023L19.2975 16.5856L19.3011 16.5854L19.0252 10.9022Z" fill="url(#paint16_linear_1722_90158)"/>
<path d="M19.0291 10.9022L19.0254 10.9023L19.3014 16.5856L19.305 16.5854L19.0291 10.9022Z" fill="url(#paint17_linear_1722_90158)"/>
<path d="M19.033 10.9022L19.0293 10.9023L19.3053 16.5856L19.3089 16.5854L19.033 10.9022Z" fill="url(#paint18_linear_1722_90158)"/>
<path d="M19.0349 10.9022L19.0312 10.9023L19.3072 16.5856L19.3109 16.5854L19.0349 10.9022Z" fill="url(#paint19_linear_1722_90158)"/>
<path d="M19.0388 10.9022L19.0352 10.9023L19.3111 16.5856L19.3148 16.5854L19.0388 10.9022Z" fill="url(#paint20_linear_1722_90158)"/>
<path d="M19.0427 10.9002L19.0391 10.9004L19.315 16.5836L19.3187 16.5834L19.0427 10.9002Z" fill="url(#paint21_linear_1722_90158)"/>
<path d="M19.0447 10.9002L19.041 10.9004L19.317 16.5836L19.3206 16.5834L19.0447 10.9002Z" fill="url(#paint22_linear_1722_90158)"/>
<path d="M19.0466 10.9002L19.043 10.9004L19.3189 16.5836L19.3226 16.5834L19.0466 10.9002Z" fill="url(#paint23_linear_1722_90158)"/>
<path d="M19.0486 10.8983L19.0449 10.8984L19.3209 16.5817L19.3246 16.5815L19.0486 10.8983Z" fill="url(#paint24_linear_1722_90158)"/>
<path d="M19.0525 10.8983L19.0488 10.8984L19.3248 16.5817L19.3285 16.5815L19.0525 10.8983Z" fill="url(#paint25_linear_1722_90158)"/>
<path d="M19.0544 10.9002L19.0508 10.9004L19.3267 16.5836L19.3304 16.5834L19.0544 10.9002Z" fill="url(#paint26_linear_1722_90158)"/>
<path d="M19.0584 10.9002L19.0547 10.9004L19.3307 16.5836L19.3343 16.5834L19.0584 10.9002Z" fill="url(#paint27_linear_1722_90158)"/>
<path d="M19.0623 10.9002L19.0586 10.9004L19.3346 16.5836L19.3382 16.5834L19.0623 10.9002Z" fill="url(#paint28_linear_1722_90158)"/>
<path d="M19.0662 10.9002L19.0625 10.9004L19.3385 16.5836L19.3421 16.5834L19.0662 10.9002Z" fill="url(#paint29_linear_1722_90158)"/>
<path d="M19.0681 10.9002L19.0645 10.9004L19.3404 16.5836L19.3441 16.5834L19.0681 10.9002Z" fill="url(#paint30_linear_1722_90158)"/>
<path d="M19.072 10.9002L19.0684 10.9004L19.3443 16.5836L19.348 16.5834L19.072 10.9002Z" fill="url(#paint31_linear_1722_90158)"/>
<path d="M19.0759 10.9002L19.0723 10.9004L19.3482 16.5836L19.3519 16.5834L19.0759 10.9002Z" fill="url(#paint32_linear_1722_90158)"/>
<path d="M19.0779 10.9002L19.0742 10.9004L19.3502 16.5836L19.3539 16.5834L19.0779 10.9002Z" fill="url(#paint33_linear_1722_90158)"/>
<path d="M19.0798 10.9002L19.0762 10.9004L19.3521 16.5836L19.3558 16.5834L19.0798 10.9002Z" fill="url(#paint34_linear_1722_90158)"/>
<path d="M19.0818 10.9002L19.0781 10.9004L19.3541 16.5836L19.3578 16.5834L19.0818 10.9002Z" fill="url(#paint35_linear_1722_90158)"/>
<path d="M19.0857 10.9002L19.082 10.9004L19.358 16.5836L19.3617 16.5834L19.0857 10.9002Z" fill="url(#paint36_linear_1722_90158)"/>
<path d="M19.0896 10.8963L19.0859 10.8965L19.3619 16.5797L19.3656 16.5795L19.0896 10.8963Z" fill="url(#paint37_linear_1722_90158)"/>
<path d="M19.0896 10.8963L19.0859 10.8965L19.3619 16.5797L19.3656 16.5795L19.0896 10.8963Z" fill="url(#paint38_linear_1722_90158)"/>
<path d="M19.0935 10.8983L19.0898 10.8984L19.3658 16.5817L19.3695 16.5815L19.0935 10.8983Z" fill="url(#paint39_linear_1722_90158)"/>
<path d="M19.0994 10.8983L19.0957 10.8984L19.3717 16.5817L19.3753 16.5815L19.0994 10.8983Z" fill="url(#paint40_linear_1722_90158)"/>
<path d="M19.1013 10.8983L19.0977 10.8984L19.3736 16.5817L19.3773 16.5815L19.1013 10.8983Z" fill="url(#paint41_linear_1722_90158)"/>
<path d="M19.1052 10.8983L19.1016 10.8984L19.3775 16.5817L19.3812 16.5815L19.1052 10.8983Z" fill="url(#paint42_linear_1722_90158)"/>
<path d="M19.1091 10.8983L19.1055 10.8984L19.3814 16.5817L19.3851 16.5815L19.1091 10.8983Z" fill="url(#paint43_linear_1722_90158)"/>
<path d="M19.1091 10.8983L19.1055 10.8984L19.3814 16.5817L19.3851 16.5815L19.1091 10.8983Z" fill="url(#paint44_linear_1722_90158)"/>
<path d="M19.113 10.8983L19.1094 10.8984L19.3853 16.5817L19.389 16.5815L19.113 10.8983Z" fill="url(#paint45_linear_1722_90158)"/>
<path d="M19.115 10.8983L19.1113 10.8984L19.3873 16.5817L19.391 16.5815L19.115 10.8983Z" fill="url(#paint46_linear_1722_90158)"/>
<path d="M19.1169 10.8983L19.1133 10.8984L19.3892 16.5817L19.3929 16.5815L19.1169 10.8983Z" fill="url(#paint47_linear_1722_90158)"/>
<path d="M19.1228 10.8983L19.1191 10.8984L19.3951 16.5817L19.3988 16.5815L19.1228 10.8983Z" fill="url(#paint48_linear_1722_90158)"/>
<path d="M19.1248 10.8944L19.1211 10.8945L19.3971 16.5778L19.4007 16.5776L19.1248 10.8944Z" fill="url(#paint49_linear_1722_90158)"/>
<path d="M19.1267 10.8944L19.123 10.8945L19.399 16.5778L19.4027 16.5776L19.1267 10.8944Z" fill="url(#paint50_linear_1722_90158)"/>
<path d="M19.1326 10.8944L19.1289 10.8945L19.4049 16.5778L19.4085 16.5776L19.1326 10.8944Z" fill="url(#paint51_linear_1722_90158)"/>
<path d="M19.1345 10.8963L19.1309 10.8965L19.4068 16.5797L19.4105 16.5795L19.1345 10.8963Z" fill="url(#paint52_linear_1722_90158)"/>
<path d="M19.1384 10.8963L19.1348 10.8965L19.4107 16.5797L19.4144 16.5795L19.1384 10.8963Z" fill="url(#paint53_linear_1722_90158)"/>
<path d="M19.1384 10.8963L19.1348 10.8965L19.4107 16.5797L19.4144 16.5795L19.1384 10.8963Z" fill="url(#paint54_linear_1722_90158)"/>
<path d="M19.1423 10.8963L19.1387 10.8965L19.4146 16.5797L19.4183 16.5795L19.1423 10.8963Z" fill="url(#paint55_linear_1722_90158)"/>
<path d="M19.1462 10.8963L19.1426 10.8965L19.4185 16.5797L19.4222 16.5795L19.1462 10.8963Z" fill="url(#paint56_linear_1722_90158)"/>
<path d="M19.1462 10.8963L19.1426 10.8965L19.4185 16.5797L19.4222 16.5795L19.1462 10.8963Z" fill="url(#paint57_linear_1722_90158)"/>
<path d="M19.1521 10.8963L19.1484 10.8965L19.4244 16.5797L19.4281 16.5795L19.1521 10.8963Z" fill="url(#paint58_linear_1722_90158)"/>
<path d="M19.1541 10.8963L19.1504 10.8965L19.4264 16.5797L19.43 16.5795L19.1541 10.8963Z" fill="url(#paint59_linear_1722_90158)"/>
<path d="M19.158 10.8963L19.1543 10.8965L19.4303 16.5797L19.4339 16.5795L19.158 10.8963Z" fill="url(#paint60_linear_1722_90158)"/>
<path d="M19.1619 10.8944L19.1582 10.8945L19.4342 16.5778L19.4378 16.5776L19.1619 10.8944Z" fill="url(#paint61_linear_1722_90158)"/>
<path d="M19.1638 10.8944L19.1602 10.8945L19.4361 16.5778L19.4398 16.5776L19.1638 10.8944Z" fill="url(#paint62_linear_1722_90158)"/>
<path d="M19.1658 10.8924L19.1621 10.8926L19.4381 16.5758L19.4417 16.5756L19.1658 10.8924Z" fill="url(#paint63_linear_1722_90158)"/>
<path d="M19.1697 10.8944L19.166 10.8945L19.442 16.5778L19.4457 16.5776L19.1697 10.8944Z" fill="url(#paint64_linear_1722_90158)"/>
<path d="M19.1736 10.8944L19.1699 10.8945L19.4459 16.5778L19.4496 16.5776L19.1736 10.8944Z" fill="url(#paint65_linear_1722_90158)"/>
<path d="M19.1736 10.8944L19.1699 10.8945L19.4459 16.5778L19.4496 16.5776L19.1736 10.8944Z" fill="url(#paint66_linear_1722_90158)"/>
<path d="M19.1775 10.8944L19.1738 10.8945L19.4498 16.5778L19.4535 16.5776L19.1775 10.8944Z" fill="url(#paint67_linear_1722_90158)"/>
<path d="M19.4531 16.5771L19.1777 10.8945L19.4531 16.5771Z" fill="url(#paint68_linear_1722_90158)"/>
<path d="M21.4981 16.0302C21.3458 16.1642 21.1145 16.1513 20.9787 16.0008L19.6571 14.5178L19.8223 16.5496C19.837 16.7515 19.6883 16.9277 19.4846 16.9442H19.4736C19.2754 16.9553 19.1065 16.8066 19.09 16.6065L18.967 15.0849L17.9997 17.5334C17.9465 17.6729 17.8162 17.7592 17.6767 17.7665C17.6253 17.7684 17.5739 17.761 17.5243 17.7408C17.3353 17.6674 17.2417 17.4527 17.3169 17.2654L18.833 13.4312L18.7596 12.5098L17.561 12.976C17.5225 12.9907 17.4858 12.998 17.4473 12.9998C17.2931 13.0072 17.1462 12.9172 17.0875 12.7649C17.0141 12.5758 17.1077 12.3629 17.2986 12.2895L18.7009 11.7462L18.6348 10.9313C18.6201 10.7294 18.7688 10.5532 18.9725 10.5367C19.1689 10.5183 19.3506 10.6706 19.3671 10.8744L19.4149 11.4691L20.5455 11.0304C20.7346 10.957 20.9475 11.0506 21.0209 11.2415C21.0943 11.4324 21.0007 11.6434 20.8098 11.7169L19.4773 12.2345L19.5635 13.3027L21.533 15.5107C21.667 15.6631 21.6541 15.8944 21.5036 16.0302H21.4981Z" fill="url(#paint69_linear_1722_90158)"/>
<defs>
<linearGradient id="paint0_linear_1722_90158" x1="0.980469" y1="9.07335" x2="13.926" y2="9.07335" gradientUnits="userSpaceOnUse">
<stop stop-color="#AEB2DC"/>
<stop offset="1" stop-color="#6064BA"/>
</linearGradient>
<linearGradient id="paint1_linear_1722_90158" x1="0.980469" y1="11.2026" x2="4.23474" y2="11.2026" gradientUnits="userSpaceOnUse">
<stop stop-color="#888BCB"/>
<stop offset="1" stop-color="#383DA9"/>
</linearGradient>
<linearGradient id="paint2_linear_1722_90158" x1="3.44141" y1="9.8478" x2="14.1311" y2="9.8478" gradientUnits="userSpaceOnUse">
<stop stop-color="#888BCB"/>
<stop offset="1" stop-color="#383DA9"/>
</linearGradient>
<linearGradient id="paint3_linear_1722_90158" x1="6.8537" y1="10.2473" x2="11.5506" y2="10.2473" gradientUnits="userSpaceOnUse">
<stop stop-color="#EBECF6"/>
<stop offset="1" stop-color="#AEB2DC"/>
</linearGradient>
<linearGradient id="paint4_linear_1722_90158" x1="11.0762" y1="12.9288" x2="24.0217" y2="12.9288" gradientUnits="userSpaceOnUse">
<stop stop-color="#888BCB"/>
<stop offset="1" stop-color="#383DA9"/>
</linearGradient>
<linearGradient id="paint5_linear_1722_90158" x1="11.0762" y1="15.0391" x2="14.3947" y2="15.0391" gradientUnits="userSpaceOnUse">
<stop stop-color="#6B5656"/>
<stop offset="1" stop-color="#353133"/>
</linearGradient>
<linearGradient id="paint6_linear_1722_90158" x1="13.5371" y1="13.7012" x2="24.2268" y2="13.7012" gradientUnits="userSpaceOnUse">
<stop stop-color="#AEB2DC"/>
<stop offset="1" stop-color="#6064BA"/>
</linearGradient>
<linearGradient id="paint7_linear_1722_90158" x1="19.1322" y1="13.746" x2="19.1359" y2="13.7458" gradientUnits="userSpaceOnUse">
<stop stop-color="#EBECF6"/>
<stop offset="1" stop-color="#AEB2DC"/>
</linearGradient>
<linearGradient id="paint8_linear_1722_90158" x1="19.1359" y1="13.7441" x2="19.1396" y2="13.7439" gradientUnits="userSpaceOnUse">
<stop stop-color="#EBECF6"/>
<stop offset="1" stop-color="#AEB2DC"/>
</linearGradient>
<linearGradient id="paint9_linear_1722_90158" x1="19.1398" y1="13.7441" x2="19.1417" y2="13.744" gradientUnits="userSpaceOnUse">
<stop stop-color="#EBECF6"/>
<stop offset="1" stop-color="#AEB2DC"/>
</linearGradient>
<linearGradient id="paint10_linear_1722_90158" x1="19.1419" y1="13.7442" x2="19.1456" y2="13.744" gradientUnits="userSpaceOnUse">
<stop stop-color="#EBECF6"/>
<stop offset="1" stop-color="#AEB2DC"/>
</linearGradient>
<linearGradient id="paint11_linear_1722_90158" x1="19.1458" y1="13.742" x2="19.1476" y2="13.7419" gradientUnits="userSpaceOnUse">
<stop stop-color="#EBECF6"/>
<stop offset="1" stop-color="#AEB2DC"/>
</linearGradient>
<linearGradient id="paint12_linear_1722_90158" x1="19.1459" y1="13.7421" x2="19.1496" y2="13.7419" gradientUnits="userSpaceOnUse">
<stop stop-color="#EBECF6"/>
<stop offset="1" stop-color="#AEB2DC"/>
</linearGradient>
<linearGradient id="paint13_linear_1722_90158" x1="19.1498" y1="13.7421" x2="19.1535" y2="13.7419" gradientUnits="userSpaceOnUse">
<stop stop-color="#EBECF6"/>
<stop offset="1" stop-color="#AEB2DC"/>
</linearGradient>
<linearGradient id="paint14_linear_1722_90158" x1="19.1536" y1="13.744" x2="19.1554" y2="13.7439" gradientUnits="userSpaceOnUse">
<stop stop-color="#EBECF6"/>
<stop offset="1" stop-color="#AEB2DC"/>
</linearGradient>
<linearGradient id="paint15_linear_1722_90158" x1="19.1557" y1="13.744" x2="19.1593" y2="13.7439" gradientUnits="userSpaceOnUse">
<stop stop-color="#EBECF6"/>
<stop offset="1" stop-color="#AEB2DC"/>
</linearGradient>
<linearGradient id="paint16_linear_1722_90158" x1="19.1595" y1="13.744" x2="19.1631" y2="13.7438" gradientUnits="userSpaceOnUse">
<stop stop-color="#EBECF6"/>
<stop offset="1" stop-color="#AEB2DC"/>
</linearGradient>
<linearGradient id="paint17_linear_1722_90158" x1="19.1634" y1="13.744" x2="19.1652" y2="13.7439" gradientUnits="userSpaceOnUse">
<stop stop-color="#EBECF6"/>
<stop offset="1" stop-color="#AEB2DC"/>
</linearGradient>
<linearGradient id="paint18_linear_1722_90158" x1="19.1654" y1="13.744" x2="19.1691" y2="13.7439" gradientUnits="userSpaceOnUse">
<stop stop-color="#EBECF6"/>
<stop offset="1" stop-color="#AEB2DC"/>
</linearGradient>
<linearGradient id="paint19_linear_1722_90158" x1="19.1692" y1="13.744" x2="19.1729" y2="13.7438" gradientUnits="userSpaceOnUse">
<stop stop-color="#EBECF6"/>
<stop offset="1" stop-color="#AEB2DC"/>
</linearGradient>
<linearGradient id="paint20_linear_1722_90158" x1="19.1731" y1="13.7421" x2="19.1749" y2="13.742" gradientUnits="userSpaceOnUse">
<stop stop-color="#EBECF6"/>
<stop offset="1" stop-color="#AEB2DC"/>
</linearGradient>
<linearGradient id="paint21_linear_1722_90158" x1="19.1751" y1="13.7403" x2="19.1788" y2="13.7401" gradientUnits="userSpaceOnUse">
<stop stop-color="#EBECF6"/>
<stop offset="1" stop-color="#AEB2DC"/>
</linearGradient>
<linearGradient id="paint22_linear_1722_90158" x1="19.1789" y1="13.7402" x2="19.1807" y2="13.7401" gradientUnits="userSpaceOnUse">
<stop stop-color="#EBECF6"/>
<stop offset="1" stop-color="#AEB2DC"/>
</linearGradient>
<linearGradient id="paint23_linear_1722_90158" x1="19.179" y1="13.7403" x2="19.1827" y2="13.7401" gradientUnits="userSpaceOnUse">
<stop stop-color="#EBECF6"/>
<stop offset="1" stop-color="#AEB2DC"/>
</linearGradient>
<linearGradient id="paint24_linear_1722_90158" x1="19.1829" y1="13.74" x2="19.1866" y2="13.7399" gradientUnits="userSpaceOnUse">
<stop stop-color="#EBECF6"/>
<stop offset="1" stop-color="#AEB2DC"/>
</linearGradient>
<linearGradient id="paint25_linear_1722_90158" x1="19.1868" y1="13.74" x2="19.1886" y2="13.74" gradientUnits="userSpaceOnUse">
<stop stop-color="#EBECF6"/>
<stop offset="1" stop-color="#AEB2DC"/>
</linearGradient>
<linearGradient id="paint26_linear_1722_90158" x1="19.1869" y1="13.7421" x2="19.1906" y2="13.7419" gradientUnits="userSpaceOnUse">
<stop stop-color="#EBECF6"/>
<stop offset="1" stop-color="#AEB2DC"/>
</linearGradient>
<linearGradient id="paint27_linear_1722_90158" x1="19.1927" y1="13.742" x2="19.1963" y2="13.7418" gradientUnits="userSpaceOnUse">
<stop stop-color="#EBECF6"/>
<stop offset="1" stop-color="#AEB2DC"/>
</linearGradient>
<linearGradient id="paint28_linear_1722_90158" x1="19.1966" y1="13.742" x2="19.1984" y2="13.7419" gradientUnits="userSpaceOnUse">
<stop stop-color="#EBECF6"/>
<stop offset="1" stop-color="#AEB2DC"/>
</linearGradient>
<linearGradient id="paint29_linear_1722_90158" x1="19.1987" y1="13.7421" x2="19.2023" y2="13.7419" gradientUnits="userSpaceOnUse">
<stop stop-color="#EBECF6"/>
<stop offset="1" stop-color="#AEB2DC"/>
</linearGradient>
<linearGradient id="paint30_linear_1722_90158" x1="19.2024" y1="13.742" x2="19.2043" y2="13.7419" gradientUnits="userSpaceOnUse">
<stop stop-color="#EBECF6"/>
<stop offset="1" stop-color="#AEB2DC"/>
</linearGradient>
<linearGradient id="paint31_linear_1722_90158" x1="19.2045" y1="13.7421" x2="19.2082" y2="13.7419" gradientUnits="userSpaceOnUse">
<stop stop-color="#EBECF6"/>
<stop offset="1" stop-color="#AEB2DC"/>
</linearGradient>
<linearGradient id="paint32_linear_1722_90158" x1="19.2084" y1="13.7421" x2="19.2121" y2="13.7419" gradientUnits="userSpaceOnUse">
<stop stop-color="#EBECF6"/>
<stop offset="1" stop-color="#AEB2DC"/>
</linearGradient>
<linearGradient id="paint33_linear_1722_90158" x1="19.2121" y1="13.7402" x2="19.2139" y2="13.7401" gradientUnits="userSpaceOnUse">
<stop stop-color="#EBECF6"/>
<stop offset="1" stop-color="#AEB2DC"/>
</linearGradient>
<linearGradient id="paint34_linear_1722_90158" x1="19.2122" y1="13.7403" x2="19.2159" y2="13.7401" gradientUnits="userSpaceOnUse">
<stop stop-color="#EBECF6"/>
<stop offset="1" stop-color="#AEB2DC"/>
</linearGradient>
<linearGradient id="paint35_linear_1722_90158" x1="19.216" y1="13.7402" x2="19.2197" y2="13.74" gradientUnits="userSpaceOnUse">
<stop stop-color="#EBECF6"/>
<stop offset="1" stop-color="#AEB2DC"/>
</linearGradient>
<linearGradient id="paint36_linear_1722_90158" x1="19.2199" y1="13.7402" x2="19.2218" y2="13.7401" gradientUnits="userSpaceOnUse">
<stop stop-color="#EBECF6"/>
<stop offset="1" stop-color="#AEB2DC"/>
</linearGradient>
<linearGradient id="paint37_linear_1722_90158" x1="19.2221" y1="13.7382" x2="19.2258" y2="13.738" gradientUnits="userSpaceOnUse">
<stop stop-color="#EBECF6"/>
<stop offset="1" stop-color="#AEB2DC"/>
</linearGradient>
<linearGradient id="paint38_linear_1722_90158" x1="19.2239" y1="13.7381" x2="19.2276" y2="13.7379" gradientUnits="userSpaceOnUse">
<stop stop-color="#EBECF6"/>
<stop offset="1" stop-color="#AEB2DC"/>
</linearGradient>
<linearGradient id="paint39_linear_1722_90158" x1="19.2278" y1="13.74" x2="19.2297" y2="13.74" gradientUnits="userSpaceOnUse">
<stop stop-color="#EBECF6"/>
<stop offset="1" stop-color="#AEB2DC"/>
</linearGradient>
<linearGradient id="paint40_linear_1722_90158" x1="19.2319" y1="13.7401" x2="19.2355" y2="13.74" gradientUnits="userSpaceOnUse">
<stop stop-color="#EBECF6"/>
<stop offset="1" stop-color="#AEB2DC"/>
</linearGradient>
<linearGradient id="paint41_linear_1722_90158" x1="19.2356" y1="13.74" x2="19.2375" y2="13.74" gradientUnits="userSpaceOnUse">
<stop stop-color="#EBECF6"/>
<stop offset="1" stop-color="#AEB2DC"/>
</linearGradient>
<linearGradient id="paint42_linear_1722_90158" x1="19.2377" y1="13.7401" x2="19.2414" y2="13.74" gradientUnits="userSpaceOnUse">
<stop stop-color="#EBECF6"/>
<stop offset="1" stop-color="#AEB2DC"/>
</linearGradient>
<linearGradient id="paint43_linear_1722_90158" x1="19.2416" y1="13.7401" x2="19.2453" y2="13.74" gradientUnits="userSpaceOnUse">
<stop stop-color="#EBECF6"/>
<stop offset="1" stop-color="#AEB2DC"/>
</linearGradient>
<linearGradient id="paint44_linear_1722_90158" x1="19.2435" y1="13.74" x2="19.2453" y2="13.74" gradientUnits="userSpaceOnUse">
<stop stop-color="#EBECF6"/>
<stop offset="1" stop-color="#AEB2DC"/>
</linearGradient>
<linearGradient id="paint45_linear_1722_90158" x1="19.2455" y1="13.7401" x2="19.2492" y2="13.74" gradientUnits="userSpaceOnUse">
<stop stop-color="#EBECF6"/>
<stop offset="1" stop-color="#AEB2DC"/>
</linearGradient>
<linearGradient id="paint46_linear_1722_90158" x1="19.2492" y1="13.7382" x2="19.2529" y2="13.738" gradientUnits="userSpaceOnUse">
<stop stop-color="#EBECF6"/>
<stop offset="1" stop-color="#AEB2DC"/>
</linearGradient>
<linearGradient id="paint47_linear_1722_90158" x1="19.2512" y1="13.7382" x2="19.253" y2="13.7381" gradientUnits="userSpaceOnUse">
<stop stop-color="#EBECF6"/>
<stop offset="1" stop-color="#AEB2DC"/>
</linearGradient>
<linearGradient id="paint48_linear_1722_90158" x1="19.2552" y1="13.7383" x2="19.2589" y2="13.7381" gradientUnits="userSpaceOnUse">
<stop stop-color="#EBECF6"/>
<stop offset="1" stop-color="#AEB2DC"/>
</linearGradient>
<linearGradient id="paint49_linear_1722_90158" x1="19.2591" y1="13.7361" x2="19.2627" y2="13.736" gradientUnits="userSpaceOnUse">
<stop stop-color="#EBECF6"/>
<stop offset="1" stop-color="#AEB2DC"/>
</linearGradient>
<linearGradient id="paint50_linear_1722_90158" x1="19.261" y1="13.7361" x2="19.2629" y2="13.7361" gradientUnits="userSpaceOnUse">
<stop stop-color="#EBECF6"/>
<stop offset="1" stop-color="#AEB2DC"/>
</linearGradient>
<linearGradient id="paint51_linear_1722_90158" x1="19.2651" y1="13.7362" x2="19.2687" y2="13.7361" gradientUnits="userSpaceOnUse">
<stop stop-color="#EBECF6"/>
<stop offset="1" stop-color="#AEB2DC"/>
</linearGradient>
<linearGradient id="paint52_linear_1722_90158" x1="19.2688" y1="13.7381" x2="19.2707" y2="13.738" gradientUnits="userSpaceOnUse">
<stop stop-color="#EBECF6"/>
<stop offset="1" stop-color="#AEB2DC"/>
</linearGradient>
<linearGradient id="paint53_linear_1722_90158" x1="19.2709" y1="13.7382" x2="19.2746" y2="13.738" gradientUnits="userSpaceOnUse">
<stop stop-color="#EBECF6"/>
<stop offset="1" stop-color="#AEB2DC"/>
</linearGradient>
<linearGradient id="paint54_linear_1722_90158" x1="19.2727" y1="13.7381" x2="19.2764" y2="13.7379" gradientUnits="userSpaceOnUse">
<stop stop-color="#EBECF6"/>
<stop offset="1" stop-color="#AEB2DC"/>
</linearGradient>
<linearGradient id="paint55_linear_1722_90158" x1="19.2767" y1="13.7381" x2="19.2785" y2="13.738" gradientUnits="userSpaceOnUse">
<stop stop-color="#EBECF6"/>
<stop offset="1" stop-color="#AEB2DC"/>
</linearGradient>
<linearGradient id="paint56_linear_1722_90158" x1="19.2787" y1="13.7382" x2="19.2824" y2="13.738" gradientUnits="userSpaceOnUse">
<stop stop-color="#EBECF6"/>
<stop offset="1" stop-color="#AEB2DC"/>
</linearGradient>
<linearGradient id="paint57_linear_1722_90158" x1="19.2806" y1="13.7381" x2="19.2842" y2="13.7379" gradientUnits="userSpaceOnUse">
<stop stop-color="#EBECF6"/>
<stop offset="1" stop-color="#AEB2DC"/>
</linearGradient>
<linearGradient id="paint58_linear_1722_90158" x1="19.2863" y1="13.7363" x2="19.2882" y2="13.7362" gradientUnits="userSpaceOnUse">
<stop stop-color="#EBECF6"/>
<stop offset="1" stop-color="#AEB2DC"/>
</linearGradient>
<linearGradient id="paint59_linear_1722_90158" x1="19.2865" y1="13.7364" x2="19.2901" y2="13.7362" gradientUnits="userSpaceOnUse">
<stop stop-color="#EBECF6"/>
<stop offset="1" stop-color="#AEB2DC"/>
</linearGradient>
<linearGradient id="paint60_linear_1722_90158" x1="19.2922" y1="13.7363" x2="19.2959" y2="13.7361" gradientUnits="userSpaceOnUse">
<stop stop-color="#EBECF6"/>
<stop offset="1" stop-color="#AEB2DC"/>
</linearGradient>
<linearGradient id="paint61_linear_1722_90158" x1="19.2961" y1="13.7343" x2="19.2979" y2="13.7342" gradientUnits="userSpaceOnUse">
<stop stop-color="#EBECF6"/>
<stop offset="1" stop-color="#AEB2DC"/>
</linearGradient>
<linearGradient id="paint62_linear_1722_90158" x1="19.2963" y1="13.7362" x2="19.3" y2="13.7361" gradientUnits="userSpaceOnUse">
<stop stop-color="#EBECF6"/>
<stop offset="1" stop-color="#AEB2DC"/>
</linearGradient>
<linearGradient id="paint63_linear_1722_90158" x1="19.3001" y1="13.7342" x2="19.3019" y2="13.7341" gradientUnits="userSpaceOnUse">
<stop stop-color="#EBECF6"/>
<stop offset="1" stop-color="#AEB2DC"/>
</linearGradient>
<linearGradient id="paint64_linear_1722_90158" x1="19.3022" y1="13.7362" x2="19.3058" y2="13.7361" gradientUnits="userSpaceOnUse">
<stop stop-color="#EBECF6"/>
<stop offset="1" stop-color="#AEB2DC"/>
</linearGradient>
<linearGradient id="paint65_linear_1722_90158" x1="19.3079" y1="13.7361" x2="19.3116" y2="13.736" gradientUnits="userSpaceOnUse">
<stop stop-color="#EBECF6"/>
<stop offset="1" stop-color="#AEB2DC"/>
</linearGradient>
<linearGradient id="paint66_linear_1722_90158" x1="19.3079" y1="13.7361" x2="19.3097" y2="13.7361" gradientUnits="userSpaceOnUse">
<stop stop-color="#EBECF6"/>
<stop offset="1" stop-color="#AEB2DC"/>
</linearGradient>
<linearGradient id="paint67_linear_1722_90158" x1="19.31" y1="13.7362" x2="19.3136" y2="13.7361" gradientUnits="userSpaceOnUse">
<stop stop-color="#EBECF6"/>
<stop offset="1" stop-color="#AEB2DC"/>
</linearGradient>
<linearGradient id="paint68_linear_1722_90158" x1="19.3168" y1="13.7347" x2="19.3168" y2="13.7347" gradientUnits="userSpaceOnUse">
<stop stop-color="#EBECF6"/>
<stop offset="1" stop-color="#AEB2DC"/>
</linearGradient>
<linearGradient id="paint69_linear_1722_90158" x1="17.1369" y1="14.2082" x2="21.5368" y2="13.9945" gradientUnits="userSpaceOnUse">
<stop stop-color="#EBECF6"/>
<stop offset="1" stop-color="#AEB2DC"/>
</linearGradient>
</defs>
</svg>
