<!-- <svg width="20" height="21" viewBox="0 0 20 21" fill="none" xmlns="http://www.w3.org/2000/svg">
<path fill-rule="evenodd" clip-rule="evenodd" d="M13.334 8.03776C12.2289 8.03776 11.1691 8.47675 10.3877 9.25815C9.6063 10.0396 9.16732 11.0994 9.16732 12.2044V17.2044H10.834V12.2044C10.834 11.5414 11.0974 10.9055 11.5662 10.4367C12.0351 9.96782 12.6709 9.70443 13.334 9.70443C13.997 9.70443 14.6329 9.96782 15.1017 10.4367C15.5706 10.9055 15.834 11.5414 15.834 12.2044V17.2044H17.5006V12.2044C17.5006 11.0994 17.0617 10.0396 16.2803 9.25815C15.4989 8.47675 14.4391 8.03776 13.334 8.03776ZM13.334 6.37109C11.7869 6.37109 10.3032 6.98568 9.20919 8.07964C8.11523 9.1736 7.50065 10.6573 7.50065 12.2044V18.0378C7.50065 18.498 7.87375 18.8711 8.33398 18.8711H11.6673C12.1276 18.8711 12.5006 18.498 12.5006 18.0378V12.2044C12.5006 11.9834 12.5884 11.7715 12.7447 11.6152C12.901 11.4589 13.113 11.3711 13.334 11.3711C13.555 11.3711 13.767 11.4589 13.9232 11.6152C14.0795 11.7715 14.1673 11.9834 14.1673 12.2044V18.0378C14.1673 18.498 14.5404 18.8711 15.0006 18.8711H18.334C18.7942 18.8711 19.1673 18.498 19.1673 18.0378V12.2044C19.1673 10.6573 18.5527 9.1736 17.4588 8.07964C16.3648 6.98568 14.8811 6.37109 13.334 6.37109Z" fill="#081539"/>
<path fill-rule="evenodd" clip-rule="evenodd" d="M0.833984 8.03776C0.833984 7.57752 1.20708 7.20443 1.66732 7.20443H5.00065C5.46089 7.20443 5.83398 7.57752 5.83398 8.03776V18.0378C5.83398 18.498 5.46089 18.8711 5.00065 18.8711H1.66732C1.20708 18.8711 0.833984 18.498 0.833984 18.0378V8.03776ZM2.50065 8.87109V17.2044H4.16732V8.87109H2.50065Z" fill="#081539"/>
<path fill-rule="evenodd" clip-rule="evenodd" d="M3.33398 3.03776C2.87375 3.03776 2.50065 3.41086 2.50065 3.87109C2.50065 4.33133 2.87375 4.70443 3.33398 4.70443C3.79422 4.70443 4.16732 4.33133 4.16732 3.87109C4.16732 3.41086 3.79422 3.03776 3.33398 3.03776ZM0.833984 3.87109C0.833984 2.49038 1.95327 1.37109 3.33398 1.37109C4.7147 1.37109 5.83398 2.49038 5.83398 3.87109C5.83398 5.25181 4.7147 6.37109 3.33398 6.37109C1.95327 6.37109 0.833984 5.25181 0.833984 3.87109Z" fill="#081539"/>
</svg> -->
<svg width="22" height="23" xmlns="http://www.w3.org/2000/svg" viewBox="0 0 448 512"><!--! Font Awesome Pro 6.4.0 by @fontawesome - https://fontawesome.com License - https://fontawesome.com/license (Commercial License) Copyright 2023 Fonticons, Inc. -->
<path d="M100.28 448H7.4V148.9h92.88zM53.79 108.1C24.09 108.1 0 83.5 0 53.8a53.79 53.79 0 0 1 107.58 0c0 29.7-24.1 54.3-53.79 54.3zM447.9 448h-92.68V302.4c0-34.7-.7-79.2-48.29-79.2-48.29 0-55.69 37.7-55.69 76.7V448h-92.78V148.9h89.08v40.8h1.3c12.4-23.5 42.69-48.3 87.88-48.3 94 0 111.28 61.9 111.28 142.3V448z"/>
</svg>