<svg width="22" height="24" viewBox="0 0 22 24" fill="none" xmlns="http://www.w3.org/2000/svg">
<g clip-path="url(#clip0_87_59)">
<path d="M5.44227 20.625H1.26992V7.18888H5.44227V20.625ZM3.35385 5.35606C2.01967 5.35606 0.9375 4.25099 0.9375 2.91681C0.9375 2.27595 1.19208 1.66134 1.64523 1.20819C2.09838 0.755036 2.71299 0.500458 3.35385 0.500458C3.9947 0.500458 4.60931 0.755036 5.06246 1.20819C5.51562 1.66134 5.7702 2.27595 5.7702 2.91681C5.7702 4.25099 4.68758 5.35606 3.35385 5.35606ZM21.058 20.625H16.8946V14.0844C16.8946 12.5256 16.8632 10.5266 14.7254 10.5266C12.5561 10.5266 12.2237 12.2201 12.2237 13.9721V20.625H8.05582V7.18888H12.0575V9.02169H12.1159C12.6729 7.96602 14.0336 6.85196 16.0636 6.85196C20.2863 6.85196 21.0625 9.63263 21.0625 13.2443V20.625H21.058Z" fill="white"/>
</g>
<defs>
<clipPath id="clip0_87_59">
<rect width="22" height="23" fill="white" transform="translate(0 0.5)"/>
</clipPath>
</defs>
</svg>
