<svg width="23" height="24" viewBox="0 0 23 24" fill="none" xmlns="http://www.w3.org/2000/svg">
<g clip-path="url(#clip0_1722_90266)">
<path d="M12.2188 11.3184H23V1.25586C23 1.06524 22.9243 0.882418 22.7895 0.747626C22.6547 0.612835 22.4719 0.537109 22.2812 0.537109H12.2188V11.3184Z" fill="#4CAF50"/>
<path d="M10.7812 11.3184V0.537109H0.71875C0.528126 0.537109 0.345309 0.612835 0.210517 0.747626C0.0757252 0.882418 0 1.06524 0 1.25586L0 11.3184H10.7812Z" fill="#F44336"/>
<path d="M10.7812 12.7559H0V22.8184C0 23.009 0.0757252 23.1918 0.210517 23.3266C0.345309 23.4614 0.528126 23.5371 0.71875 23.5371H10.7812V12.7559Z" fill="#2196F3"/>
<path d="M12.2188 12.7559V23.5371H22.2812C22.4719 23.5371 22.6547 23.4614 22.7895 23.3266C22.9243 23.1918 23 23.009 23 22.8184V12.7559H12.2188Z" fill="#FFC107"/>
</g>
<defs>
<clipPath id="clip0_1722_90266">
<rect width="23" height="23" fill="white" transform="translate(0 0.537109)"/>
</clipPath>
</defs>
</svg>
