<svg width="33" height="34" viewBox="0 0 33 34" fill="none" xmlns="http://www.w3.org/2000/svg">
<path d="M27.3183 10.2093V10.2436C27.4214 10.9879 27.4614 11.7494 27.4614 12.5166C27.4614 12.7915 27.45 13.0606 27.4443 13.3354C27.4156 13.9881 27.3527 14.6408 27.2553 15.2878C27.2267 15.4767 27.1923 15.6656 27.158 15.8489C27.0836 16.2954 26.992 16.742 26.8889 17.1829C26.8374 17.3833 26.7801 17.5779 26.7286 17.7726C26.6427 18.099 26.5511 18.431 26.4423 18.7517C26.4423 18.7631 26.4423 18.7688 26.4366 18.786C26.4022 18.8833 26.3736 18.9807 26.3393 19.078C26.2534 19.3356 26.1675 19.5818 26.0759 19.8338C26.0129 19.9941 25.9499 20.1544 25.8869 20.309C25.7782 20.5723 25.6694 20.8414 25.5549 21.1105C25.2572 21.7804 24.9308 22.4274 24.5758 23.0629C24.4957 23.2118 24.4098 23.3549 24.3239 23.498C24.1579 23.7843 23.9804 24.0706 23.7972 24.3397C23.4365 24.9065 23.0414 25.4447 22.6292 25.96C22.1425 26.5726 21.6329 27.1452 21.0948 27.6833C21.0203 27.7463 20.9573 27.8093 20.8944 27.8837C20.8944 27.8895 20.8829 27.8895 20.8772 27.9009C20.6882 28.067 20.505 28.2387 20.3218 28.4048C19.9382 28.7426 19.5432 29.0746 19.1252 29.3666C19.005 29.4582 18.8733 29.5556 18.7416 29.6414C18.5756 29.756 18.4095 29.8647 18.2378 29.9678C17.9458 30.1625 17.6366 30.34 17.316 30.506C17.0068 30.6778 16.6919 30.8266 16.377 30.9698C16.3197 30.9984 16.2625 31.027 16.1995 31.0442C16.188 31.0442 16.1823 31.0556 16.1709 31.0556C15.7758 31.2274 15.3808 31.3705 14.9857 31.4965C14.9342 31.5137 14.8769 31.5251 14.8311 31.548C14.5906 31.6167 14.3616 31.6854 14.1269 31.7312C14.0353 31.7484 13.9437 31.7713 13.8521 31.7828C13.4799 31.8629 13.102 31.9259 12.7242 31.9545L14.7166 33.0309L9.62096 31.7999L9.17438 31.6969C7.57698 31.2904 6.10554 30.4831 4.82304 29.3323C4.32492 28.88 3.85544 28.3876 3.4203 27.8322C2.53286 26.71 1.8 25.3703 1.26754 23.853C1.15303 23.5095 1.04425 23.166 0.946913 22.8053C0.84958 22.4446 0.757973 22.0781 0.683542 21.7174C0.374368 20.1143 0.299937 18.4597 0.443073 16.8107C0.517504 15.9977 0.643464 15.1847 0.815227 14.3774C1.04425 13.3468 1.35914 12.3334 1.75993 11.3487V11.3372C2.36682 9.84858 3.14548 8.42867 4.08446 7.13472C4.3421 6.77402 4.60547 6.43049 4.88602 6.09842C5.61315 5.22242 6.40899 4.42086 7.27353 3.69946C7.97203 3.10974 8.72207 2.58299 9.50073 2.11923C9.82708 1.92457 10.1592 1.73563 10.497 1.57532C10.8348 1.39783 11.1726 1.23752 11.5218 1.1001C12.3291 0.756578 13.1421 0.498933 13.9437 0.315719C14.9227 0.0981517 15.8789 -0.0106317 16.8064 0.000819161C17.4877 0.00654461 18.1461 0.07525 18.7874 0.195484L18.9992 0.247013L23.9174 1.44363L22.738 1.71273L22.5719 1.75281C22.675 1.82151 22.7838 1.90167 22.8811 1.98182C23.1502 2.17649 23.4021 2.38833 23.6483 2.61162C24.1407 3.05821 24.593 3.56777 25.0052 4.12887C25.0854 4.2262 25.1541 4.33498 25.2285 4.43804C25.6064 4.98768 25.9385 5.59458 26.2248 6.23583C26.345 6.50492 26.4595 6.77402 26.5626 7.05457C26.6828 7.39237 26.7973 7.74162 26.9004 8.0966C26.9977 8.44013 27.0836 8.78938 27.158 9.15581L27.1752 9.25314C27.2382 9.56804 27.2897 9.88866 27.3298 10.215L27.3183 10.2093Z" fill="url(#paint0_linear_1722_89889)"/>
<path style="mix-blend-mode:overlay" d="M16.573 33.2657C16.573 33.2657 16.5158 33.2657 16.4929 33.2657C16.2868 33.2657 16.0806 33.2428 15.8745 33.2199H15.8688C15.5596 33.1913 15.2619 33.1455 14.9585 33.0882C14.884 33.0768 14.8096 33.0539 14.7352 33.0424L9.63951 31.8114L9.19293 31.7084C7.59553 31.3019 6.12409 30.4946 4.84159 29.3438C4.34348 28.8915 3.87399 28.3991 3.43886 27.8437C2.55141 26.7215 1.81856 25.3818 1.28609 23.8645C1.17158 23.521 1.0628 23.1775 0.965464 22.8168C0.868132 22.4561 0.776525 22.0896 0.702094 21.7289C0.375744 20.1143 0.301313 18.4597 0.444449 16.8108C0.51888 15.9978 0.644839 15.1847 0.816603 14.3775C1.04562 13.3469 1.36052 12.3335 1.7613 11.3487V11.3372C2.3682 9.84863 3.14686 8.42872 4.08583 7.13477L9.0956 8.64628L10.2063 8.97836L12.3362 9.61961L12.7198 11.7666L13.1435 14.1198L13.7905 17.7555L14.2027 20.08L14.8497 23.6985L15.2676 26.0173L16.1722 31.0614L16.5616 33.26L16.573 33.2657Z" fill="url(#paint1_linear_1722_89889)"/>
<path d="M18.999 0.244888L18.7871 0.193359L18.9531 0.227712L18.999 0.244888Z" fill="url(#paint2_linear_1722_89889)"/>
<path d="M32.6622 14.057C32.6508 14.8872 32.5821 15.7231 32.4618 16.5476C32.4275 16.7537 32.3931 16.9656 32.3588 17.1774C32.2615 17.7213 32.1355 18.271 31.9924 18.8149C31.9752 18.8893 31.9523 18.9637 31.9351 19.0439C31.9294 19.0668 31.9179 19.0954 31.9179 19.1183C31.832 19.3989 31.7576 19.6794 31.6717 19.9485C31.4942 20.5096 31.2996 21.065 31.0763 21.6032C31.0648 21.6375 31.0591 21.6604 31.0419 21.6948C30.9217 21.9982 30.79 22.3074 30.6526 22.6051C30.1659 23.6815 29.5934 24.7121 28.9521 25.6797C28.6086 26.2122 28.2307 26.7274 27.8357 27.2256C27.5723 27.5576 27.3032 27.8725 27.0227 28.1874H27.0169C26.7479 28.4909 26.473 28.7714 26.1868 29.0577C25.9692 29.2638 25.7516 29.4699 25.5283 29.6703C25.2879 29.8822 25.0417 30.0826 24.7955 30.2772C24.5264 30.4948 24.2516 30.7009 23.971 30.8898H23.9653C23.7935 31.0158 23.6275 31.1246 23.45 31.2334C23.1523 31.428 22.8431 31.5998 22.5282 31.7773C22.2477 31.9261 21.9728 32.0636 21.6923 32.1895C21.6579 32.2067 21.6236 32.2239 21.5892 32.241C21.4404 32.304 21.303 32.3613 21.1541 32.4243C20.8277 32.5559 20.5014 32.6705 20.1693 32.7678C19.9117 32.8537 19.6655 32.9224 19.4136 32.9739C19.3907 32.9796 19.362 32.9911 19.3391 32.9968C19.2189 33.0197 19.0987 33.0541 18.9784 33.077C18.4746 33.1743 17.9765 33.2315 17.4841 33.2659C17.4268 33.2659 17.3639 33.2716 17.3066 33.2716C17.0547 33.2831 16.8142 33.2774 16.568 33.2659C16.5451 33.2716 16.5165 33.2716 16.4879 33.2659C16.2817 33.2659 16.0756 33.243 15.8695 33.2201H15.8638C15.5546 33.1972 15.2569 33.1457 14.9534 33.0884C14.879 33.077 14.8046 33.0541 14.7301 33.0426C13.9286 32.8651 13.1499 32.5903 12.4171 32.2239C11.564 31.8059 10.7739 31.262 10.041 30.6036C9.54289 30.1513 9.06768 29.6474 8.63827 29.0978C8.6211 29.0749 8.5982 29.0462 8.58102 29.0233C8.12298 28.4451 7.71648 27.8096 7.35577 27.1168C7.0237 26.4927 6.7317 25.8285 6.48551 25.1186C6.371 24.7751 6.25649 24.4258 6.15916 24.0651C6.06182 23.7101 5.98167 23.3494 5.90724 22.983C5.89579 22.9257 5.88434 22.8685 5.87289 22.8112C5.7183 22.0211 5.62669 21.2196 5.59806 20.4237C5.55799 19.6451 5.58089 18.855 5.64387 18.0706C5.7183 17.2518 5.84426 16.4503 6.01602 15.643C6.02747 15.5915 6.03892 15.5399 6.0561 15.4884C6.25649 14.6124 6.52559 13.7536 6.84621 12.9119C6.89201 12.7917 6.93782 12.6715 6.98935 12.5512C7.54471 11.1771 8.25467 9.86601 9.10204 8.65222C9.41121 8.20563 9.74328 7.76477 10.0868 7.35254C10.3044 7.08917 10.5334 6.83153 10.7624 6.58533C11.3006 6.00134 11.8731 5.45742 12.48 4.95358C12.9152 4.59288 13.3732 4.24363 13.8484 3.923C14.129 3.72834 14.4152 3.55085 14.7072 3.37336C15.0336 3.18442 15.3657 2.99548 15.7035 2.82944C16.0413 2.65768 16.3848 2.49737 16.7169 2.35996C16.797 2.3256 16.8715 2.29125 16.9459 2.26835C17.6845 1.95917 18.4173 1.74161 19.1445 1.57557C19.1903 1.56412 19.2361 1.55267 19.2819 1.54694C20.2094 1.34655 21.1197 1.24922 22.0072 1.26067C22.1675 1.26067 22.3278 1.2664 22.4881 1.27785C22.9748 1.30647 23.45 1.358 23.9138 1.44961C23.9424 1.44961 23.9653 1.44961 23.9939 1.46106C24.6065 1.57557 25.1963 1.74733 25.7688 1.97063C26.2211 2.14239 26.6505 2.34278 27.0628 2.57752C27.6983 2.93823 28.2937 3.36763 28.8434 3.86002C29.3358 4.31806 29.7881 4.82762 30.206 5.38299C30.2117 5.38872 30.2175 5.39444 30.2232 5.40017C30.6469 5.98989 31.0305 6.62541 31.3454 7.32392C31.4713 7.59301 31.5859 7.86211 31.6946 8.14265C31.8435 8.53198 31.9752 8.93277 32.0897 9.35645C32.187 9.69425 32.2729 10.0492 32.3473 10.4042C32.416 10.7706 32.479 11.1371 32.5191 11.4978C32.5306 11.5607 32.542 11.6123 32.542 11.6753C32.5706 11.8928 32.5935 12.1104 32.605 12.3222C32.6508 12.8948 32.668 13.4788 32.6565 14.057H32.6622Z" fill="url(#paint3_linear_1722_89889)"/>
<path style="mix-blend-mode:overlay" d="M32.6611 14.057C32.6497 14.8872 32.581 15.7231 32.4607 16.5475C32.4264 16.7536 32.392 16.9655 32.3577 17.1773C32.2603 17.7212 32.1344 18.2709 31.9913 18.8148C31.9741 18.8892 31.9512 18.9637 31.934 19.0438C31.9283 19.0667 31.9168 19.0954 31.9168 19.1183C31.8309 19.3988 31.7565 19.6793 31.6706 19.9484C31.4931 20.5095 31.2985 21.0649 31.0752 21.6031C31.0637 21.6374 31.058 21.6604 31.0408 21.6947C30.9206 21.9982 30.7889 22.3073 30.6515 22.605C30.1648 23.6814 29.5923 24.712 28.951 25.6796C28.6075 26.2121 28.2296 26.7274 27.8346 27.2255C27.5712 27.5576 27.3021 27.8725 27.0216 28.1874H27.0158C26.7467 28.4908 26.4719 28.7714 26.1856 29.0576C25.9681 29.2637 25.7505 29.4699 25.5272 29.6702C25.2868 29.8821 25.0406 30.0825 24.7944 30.2771C24.5253 30.4947 24.2504 30.7008 23.9699 30.8898H23.9642C23.7924 31.0157 23.6264 31.1245 23.4489 31.2333C23.1512 31.428 22.842 31.5997 22.5271 31.7772C22.2465 31.9261 21.9717 32.0635 21.6912 32.1894C21.6568 32.2066 21.6225 32.2238 21.5881 32.241C21.4393 32.304 21.3018 32.3612 21.153 32.4242C20.8266 32.5559 20.5003 32.6704 20.1682 32.7677C19.9106 32.8536 19.6644 32.9223 19.4124 32.9738C19.3895 32.9796 19.3609 32.991 19.338 32.9967C19.2178 33.0196 19.0975 33.054 18.9773 33.0769C18.4735 33.1742 17.9754 33.2315 17.483 33.2658C17.4257 33.2658 17.3627 33.2716 17.3055 33.2716C17.1165 32.865 16.9448 32.4356 16.7902 31.9891C16.6757 31.6455 16.5612 31.2963 16.4638 30.9356C16.3665 30.5806 16.2864 30.2199 16.2119 29.8535C16.2005 29.7962 16.189 29.739 16.1776 29.6817C16.023 28.8916 15.9314 28.09 15.9028 27.2942C15.8627 26.5155 15.8856 25.7254 15.9486 24.941C16.023 24.1223 16.1489 23.3207 16.3207 22.5134C16.3322 22.4619 16.3436 22.4104 16.3608 22.3589C16.5612 21.4829 16.8303 20.624 17.1509 19.7824C17.1967 19.6622 17.2425 19.5419 17.294 19.4217C17.8494 18.0476 18.5594 16.7365 19.4067 15.5227C19.7159 15.0761 20.048 14.6352 20.3915 14.223C20.6091 13.9596 20.8381 13.702 21.0671 13.4558C21.6053 12.8718 22.1778 12.3279 22.7847 11.824C23.2199 11.4633 23.6779 11.1141 24.1531 10.7935C24.4337 10.5988 24.7199 10.4213 25.0119 10.2438C25.3383 10.0549 25.6704 9.86594 26.0082 9.6999C26.346 9.52814 26.6895 9.36782 27.0216 9.23041C27.1017 9.19606 27.1762 9.16171 27.2506 9.13881C27.9892 8.82963 28.722 8.61206 29.4492 8.44603C29.495 8.43458 29.5408 8.42312 29.5866 8.4174C30.3022 8.26281 31.0065 8.17121 31.6993 8.14258C31.8481 8.53191 31.9798 8.93269 32.0943 9.35637C32.1916 9.69417 32.2775 10.0492 32.352 10.4041C32.4207 10.7706 32.4836 11.137 32.5237 11.4977C32.5352 11.5607 32.5466 11.6122 32.5466 11.6752C32.5752 11.8927 32.5981 12.1103 32.6096 12.3222C32.6554 12.8947 32.6726 13.4787 32.6611 14.057Z" fill="url(#paint4_linear_1722_89889)"/>
<path d="M19.2834 1.54479L19.7758 9.67492L19.9246 12.0796L20.1422 15.7038L20.2911 18.097L20.417 20.1983L20.5143 21.7671L20.6518 24.0515V24.1717L21.0125 30.006L21.1613 32.4336C20.8292 32.5652 20.5029 32.6798 20.1708 32.7771C19.9132 32.8572 19.667 32.9317 19.4208 32.9832C19.4036 32.9947 19.3693 33.0004 19.3406 33.0004C19.2204 33.0233 19.1002 33.0576 18.9799 33.0805L18.8597 31.277L18.6536 28.1223L18.6307 27.7902L18.4704 25.4199L18.436 24.8817L18.2757 22.4713L18.2585 22.1392L18.0352 18.8356L17.8806 16.4367L17.6402 12.8411L17.4913 10.4364L16.9531 2.26047C17.6917 1.95702 18.4188 1.73945 19.1517 1.56769C19.1918 1.56196 19.2433 1.54479 19.2834 1.53906V1.54479Z" fill="url(#paint5_linear_1722_89889)"/>
<path d="M32.5532 11.6756C32.5818 11.8932 32.599 12.1108 32.6162 12.3169C32.6562 12.8894 32.6677 13.4734 32.662 14.0574L28.7458 15.3285L26.4556 16.0785L22.8428 17.2637L21.3943 17.7332L20.2893 18.0881L18.0392 18.8267L11.6954 20.8993L9.45674 21.6322L5.87834 22.8059C5.72948 22.0158 5.63214 21.2142 5.60352 20.4184L9.29643 19.2161L11.558 18.4889L17.8846 16.4335L20.1461 15.7006L21.7607 15.1739L23.4096 14.6357L26.301 13.7025L28.6084 12.9524L32.5589 11.6699L32.5532 11.6756Z" fill="url(#paint6_linear_1722_89889)"/>
<path d="M28.6074 12.9514C28.6417 13.3464 28.6761 13.7301 28.699 14.1366C28.7276 14.5316 28.7391 14.9267 28.7505 15.3275C28.762 15.7569 28.7677 16.1863 28.762 16.6157C28.762 17.6119 28.7161 18.6425 28.6245 19.7189C28.5787 20.3029 28.5272 20.904 28.4413 21.5052C28.4184 21.6884 28.4012 21.8716 28.3726 22.0548C28.3669 22.1064 28.3554 22.1522 28.3497 22.2094C28.0806 24.1103 27.6512 26.1085 27.0386 28.1811H27.0329C26.7638 28.4845 26.489 28.7765 26.2027 29.0513C25.9851 29.2575 25.7675 29.4693 25.5385 29.664C25.2981 29.8815 25.0519 30.0819 24.8057 30.2766C24.5366 30.4884 24.2675 30.6945 23.9869 30.8835C23.9927 30.8491 24.0098 30.8091 24.027 30.7747C24.6454 29.1143 25.1206 27.4826 25.487 25.9023C25.7217 24.8775 25.9164 23.8755 26.0595 22.8908C26.071 22.8278 26.0824 22.7648 26.0939 22.7018C26.2256 21.8545 26.3172 21.0185 26.3744 20.2055C26.4889 18.7684 26.5176 17.4001 26.466 16.0832C26.4489 15.6653 26.4317 15.2759 26.4031 14.8809C26.3859 14.732 26.3802 14.5831 26.3687 14.4343C26.3515 14.1881 26.3286 13.9476 26.3057 13.7072C26.1626 12.3388 25.9508 11.062 25.6931 9.87683C25.5156 9.09817 25.3324 8.34813 25.1377 7.64963C25.0061 7.18014 24.8629 6.74501 24.7198 6.32705C24.6339 6.06368 24.5423 5.81176 24.4564 5.56557C23.7178 3.53304 22.9449 2.06732 22.5098 1.27148C22.9964 1.30584 23.4659 1.35737 23.9297 1.44325C23.9583 1.44325 23.9869 1.44325 24.0098 1.46042C24.1701 1.48905 24.3362 1.52913 24.5022 1.56921C24.9374 1.67227 25.3725 1.80395 25.7904 1.96999C25.9908 2.42802 26.2027 2.93186 26.4145 3.47578C26.7695 4.40903 27.1417 5.47396 27.4623 6.66485C27.6054 7.18014 27.7428 7.70688 27.8745 8.26798C27.9203 8.46837 27.9661 8.67448 28.0062 8.88633C28.2638 10.1116 28.47 11.4685 28.6188 12.9571L28.6074 12.9514Z" fill="url(#paint7_linear_1722_89889)"/>
<path d="M11.6956 20.9037C11.8101 22.1747 12.0105 23.4687 12.2968 24.7455C12.4628 25.5012 12.6575 26.2512 12.898 26.9898C13.3789 28.5529 14.0144 30.0816 14.8446 31.553C15.0278 31.8851 15.2225 32.2172 15.4286 32.5435C15.4458 32.5836 15.4744 32.6179 15.503 32.658C15.6176 32.8527 15.7378 33.0359 15.8638 33.2191C15.6118 33.1962 15.3599 33.1619 15.1137 33.1161C15.0565 33.1046 15.0107 33.0989 14.9591 33.0874C14.8847 33.076 14.8103 33.0531 14.7301 33.0473C13.9343 32.8699 13.1556 32.5893 12.417 32.2229C11.7414 30.8889 11.1803 29.4689 10.7166 27.9746C10.4933 27.236 10.2872 26.4974 10.1211 25.736C9.81196 24.4134 9.58866 23.0507 9.45698 21.6423C9.4169 21.2358 9.38255 20.835 9.35965 20.4399C9.32529 20.0334 9.30812 19.6269 9.29667 19.2261C9.27949 18.6192 9.27377 18.0123 9.27949 17.3997C9.28522 16.5981 9.32529 15.7909 9.38827 14.9721C9.39972 14.6973 9.42835 14.4282 9.44553 14.1534C9.50278 13.5751 9.56576 13.014 9.62874 12.4586C9.79478 11.2162 9.99517 10.0482 10.2127 8.98903C10.396 8.11303 10.5792 7.31147 10.7624 6.59579C11.3063 6.00607 11.8731 5.46215 12.48 4.95259C12.9151 4.59761 13.3675 4.25408 13.8484 3.92773C13.482 4.97549 12.8579 7.0023 12.3426 9.63028C12.1937 10.3631 12.0621 11.1475 11.9475 11.9605C11.8388 12.7678 11.7414 13.6095 11.6785 14.4797C11.5754 15.7794 11.5181 17.1077 11.5525 18.4875V18.499C11.5639 18.9055 11.5811 19.3006 11.604 19.7013C11.6269 20.1021 11.6498 20.5029 11.6956 20.9037V20.9037Z" fill="url(#paint8_linear_1722_89889)"/>
<path d="M31.3556 7.32427C30.2105 7.88537 29.0883 8.39493 27.9947 8.88732C27.2103 9.23085 26.4431 9.56292 25.6874 9.87782C25.132 10.1068 24.5824 10.3301 24.0442 10.542C23.6148 10.7137 23.2025 10.874 22.7846 11.0344C21.7998 11.418 20.8436 11.7672 19.9276 12.0821C19.5382 12.2253 19.1604 12.3512 18.7825 12.4772C18.5134 12.5573 18.2443 12.6489 17.9924 12.7348L17.6431 12.8436C15.4045 13.5478 13.412 14.0803 11.6772 14.4811H11.6715C10.847 14.67 10.0798 14.8303 9.3813 14.9677C8.01865 15.2254 6.90219 15.3914 6.06055 15.4888C6.26094 14.6185 6.53003 13.7539 6.85066 12.9123C7.61214 12.815 8.53966 12.6661 9.6275 12.4543H9.63322C10.3317 12.3169 11.1161 12.1565 11.952 11.9562C12.078 11.9275 12.2039 11.9046 12.3356 11.8703C13.7784 11.521 15.5133 11.0573 17.4885 10.4446H17.4943C17.8664 10.3244 18.2386 10.2042 18.6336 10.0725C19.0058 9.94653 19.3894 9.82057 19.7787 9.68316C21.0555 9.23657 22.4124 8.74418 23.8438 8.17736C23.9926 8.12011 24.1472 8.05713 24.2961 7.98843C24.5709 7.88537 24.8457 7.76513 25.1263 7.65635H25.132C25.8935 7.34718 26.6607 7.0151 27.4565 6.66585C28.3669 6.27079 29.2829 5.85283 30.2391 5.40625C30.6628 5.99597 31.0407 6.63722 31.3613 7.33L31.3556 7.32427Z" fill="url(#paint9_linear_1722_89889)"/>
<path d="M31.9158 19.1172C31.8357 19.3977 31.7612 19.6783 31.6696 19.9474C31.4978 20.5085 31.2975 21.0638 31.0742 21.602C31.0684 21.6364 31.057 21.6593 31.0398 21.6994C30.3241 21.8253 29.6256 21.9513 28.9386 22.0944C28.7325 22.1402 28.5321 22.1803 28.3317 22.2147C28.2229 22.2318 28.1198 22.2605 28.0053 22.2776C27.5015 22.3921 27.0034 22.4952 26.5224 22.6097C26.3678 22.6383 26.2247 22.6727 26.0759 22.707C24.3697 23.1078 22.7665 23.5372 21.2665 23.9781C21.0546 24.0468 20.8542 24.104 20.6481 24.167C20.631 24.1785 20.6023 24.1785 20.5852 24.1899C20.2244 24.2987 19.8809 24.4018 19.5431 24.5106C19.1652 24.6365 18.7931 24.7567 18.4324 24.8827C18.232 24.9571 18.0316 25.0144 17.8427 25.0831C16.1766 25.6614 14.7166 26.2282 13.4741 26.7492C13.2795 26.8351 13.0791 26.9038 12.8959 26.9954C12.6955 27.0756 12.5066 27.1557 12.3233 27.2416C11.7508 27.4878 11.2183 27.7283 10.7145 27.9687C9.90147 28.3466 9.19152 28.7073 8.59035 29.0279C8.12658 28.4382 7.72008 27.8084 7.35938 27.1156C8.09223 26.7263 9.01403 26.2568 10.1248 25.7358C10.5885 25.5068 11.1038 25.272 11.6477 25.0373C11.8596 24.94 12.0714 24.8541 12.3004 24.751C13.9322 24.0468 15.8559 23.2968 18.0202 22.5696C18.106 22.5353 18.1919 22.5067 18.2778 22.4723C18.6442 22.3521 19.0164 22.2261 19.3885 22.1059C19.755 21.9914 20.1271 21.8769 20.5107 21.7623C20.734 21.6936 20.963 21.6249 21.2035 21.562C21.3466 21.5161 21.4955 21.4761 21.6386 21.4303C23.133 20.9951 24.7075 20.5829 26.3679 20.205C27.1122 20.0333 27.8565 19.8787 28.6237 19.7184C28.8699 19.6726 29.1161 19.6268 29.3623 19.5752C30.1924 19.4149 31.0455 19.2603 31.9215 19.1172H31.9158Z" fill="url(#paint10_linear_1722_89889)"/>
<path style="mix-blend-mode:overlay" d="M15.5026 32.6602C15.6171 32.8548 15.7374 33.038 15.8633 33.2212C15.6114 33.1983 15.3595 33.164 15.1133 33.1182C15.245 32.9579 15.3767 32.809 15.5026 32.6602Z" fill="url(#paint11_linear_1722_89889)"/>
<defs>
<linearGradient id="paint0_linear_1722_89889" x1="18.409" y1="32.0432" x2="10.1089" y2="1.33439" gradientUnits="userSpaceOnUse">
<stop stop-color="#888BCB"/>
<stop offset="1" stop-color="#383DA9"/>
</linearGradient>
<linearGradient id="paint1_linear_1722_89889" x1="0.348896" y1="20.0541" x2="16.758" y2="20.2947" gradientUnits="userSpaceOnUse">
<stop stop-color="#6B5656"/>
<stop offset="1" stop-color="#353133"/>
</linearGradient>
<linearGradient id="paint2_linear_1722_89889" x1="18.901" y1="0.269734" x2="18.8731" y2="0.163973" gradientUnits="userSpaceOnUse">
<stop stop-color="#888BCB"/>
<stop offset="1" stop-color="#383DA9"/>
</linearGradient>
<linearGradient id="paint3_linear_1722_89889" x1="20.9308" y1="32.8937" x2="17.4555" y2="1.67863" gradientUnits="userSpaceOnUse">
<stop stop-color="#AEB2DC"/>
<stop offset="1" stop-color="#6064BA"/>
</linearGradient>
<linearGradient id="paint4_linear_1722_89889" x1="25.6417" y1="32.3669" x2="23.0481" y2="9.07583" gradientUnits="userSpaceOnUse">
<stop stop-color="#6B5656"/>
<stop offset="1" stop-color="#353133"/>
</linearGradient>
<linearGradient id="paint5_linear_1722_89889" x1="16.6029" y1="17.6985" x2="21.6558" y2="16.918" gradientUnits="userSpaceOnUse">
<stop stop-color="#EBECF6"/>
<stop offset="1" stop-color="#AEB2DC"/>
</linearGradient>
<linearGradient id="paint6_linear_1722_89889" x1="5.33223" y1="19.3836" x2="33.0751" y2="15.0986" gradientUnits="userSpaceOnUse">
<stop stop-color="#EBECF6"/>
<stop offset="1" stop-color="#AEB2DC"/>
</linearGradient>
<linearGradient id="paint7_linear_1722_89889" x1="21.7262" y1="16.3057" x2="29.0142" y2="15.1801" gradientUnits="userSpaceOnUse">
<stop stop-color="#EBECF6"/>
<stop offset="1" stop-color="#AEB2DC"/>
</linearGradient>
<linearGradient id="paint8_linear_1722_89889" x1="9.06476" y1="19.4662" x2="16.0811" y2="18.3825" gradientUnits="userSpaceOnUse">
<stop stop-color="#EBECF6"/>
<stop offset="1" stop-color="#AEB2DC"/>
</linearGradient>
<linearGradient id="paint9_linear_1722_89889" x1="5.57826" y1="12.3934" x2="31.5161" y2="8.38724" gradientUnits="userSpaceOnUse">
<stop stop-color="#EBECF6"/>
<stop offset="1" stop-color="#AEB2DC"/>
</linearGradient>
<linearGradient id="paint10_linear_1722_89889" x1="7.19436" y1="26.0867" x2="32.391" y2="22.195" gradientUnits="userSpaceOnUse">
<stop stop-color="#EBECF6"/>
<stop offset="1" stop-color="#AEB2DC"/>
</linearGradient>
<linearGradient id="paint11_linear_1722_89889" x1="15.0977" y1="33.0256" x2="15.8163" y2="32.9146" gradientUnits="userSpaceOnUse">
<stop stop-color="#6B5656"/>
<stop offset="1" stop-color="#353133"/>
</linearGradient>
</defs>
</svg>
