<svg width="45" height="47" viewBox="0 0 45 47" fill="none" xmlns="http://www.w3.org/2000/svg">
<g clip-path="url(#clip0_1722_90029)">
<path d="M28.6696 15.6635V15.6909C28.6528 16.3191 28.5957 16.9474 28.5016 17.5756C28.3841 18.3308 28.2128 19.0826 27.9878 19.8241C27.8334 20.3356 27.6554 20.8402 27.4572 21.338C27.3934 21.4959 27.3263 21.6503 27.2591 21.8048C27.1449 22.0726 27.024 22.3369 26.8964 22.5978C26.8595 22.6733 26.8225 22.7488 26.7822 22.8209C26.6849 23.02 26.5841 23.2157 26.4766 23.408C26.2953 23.7409 26.1039 24.0671 25.9024 24.3897C25.5095 25.0214 25.0796 25.6256 24.6162 26.1988C24.4483 26.4117 24.2737 26.6211 24.0923 26.8236C23.7296 27.239 23.3468 27.6338 22.9505 28.0045C22.4871 28.4439 22.0069 28.8524 21.5031 29.2232C21.4427 29.2678 21.3822 29.3124 21.3184 29.3605C21.1472 29.4806 20.9725 29.6008 20.7946 29.7175C20.4453 29.9475 20.0826 30.1638 19.7166 30.356C19.458 30.4968 19.196 30.6238 18.9308 30.7405C18.6688 30.8606 18.3968 30.9705 18.1248 31.0666C17.8528 31.1662 17.5808 31.252 17.3121 31.3275C17.2617 31.3412 17.2113 31.355 17.1643 31.3653C16.8151 31.4614 16.4725 31.5335 16.13 31.5815C15.8882 31.6193 15.6498 31.6468 15.4113 31.6639C15.3375 31.6708 15.2602 31.6742 15.1863 31.6742C14.8002 31.6983 14.4173 31.6914 14.0479 31.6605L14.4375 32.1171C14.377 32.0965 14.3199 32.0724 14.2628 32.0518L12.3923 31.355C10.7703 30.8744 9.34642 29.8994 8.24157 28.5194C7.89568 28.0869 7.58336 27.6166 7.30127 27.1085C6.72702 26.0753 6.30724 24.8841 6.06881 23.5693C6.01508 23.2741 5.97142 22.9754 5.93784 22.6665C5.9009 22.3609 5.87739 22.052 5.86396 21.743C5.80687 20.3802 5.94792 19.0105 6.26695 17.6785C6.42478 17.016 6.62627 16.3672 6.86471 15.7287C7.17702 14.9117 7.55986 14.1187 8.00314 13.36L8.00986 13.3497C8.85613 11.8942 9.92404 10.5657 11.1632 9.44318C11.855 8.81497 12.5972 8.25541 13.383 7.77482C14.0177 7.38347 14.6793 7.04362 15.3677 6.76213C15.6531 6.64541 15.9419 6.53556 16.2341 6.43944C16.5263 6.33989 16.8184 6.25407 17.1106 6.18198C17.8058 6.00347 18.4875 5.89362 19.1558 5.84556C19.9651 5.79064 20.7475 5.82497 21.4897 5.95198C22.0337 6.04124 22.5576 6.18198 23.058 6.36049L23.1856 6.41198L25.5599 7.27706L25.6304 7.30109H25.6237L25.0494 7.41437C25.6505 7.84691 26.1946 8.36527 26.6613 8.95915C27.0039 9.38825 27.3061 9.86198 27.5647 10.3735C27.6117 10.4662 27.6587 10.5623 27.7024 10.6584C27.9375 11.1562 28.1289 11.6917 28.28 12.2547C28.421 12.7696 28.5252 13.3085 28.589 13.8715C28.6259 14.1668 28.6494 14.4654 28.6628 14.7709C28.6729 15.0662 28.6796 15.3683 28.6696 15.6635V15.6635Z" fill="url(#paint0_linear_1722_90029)"/>
<path style="mix-blend-mode:overlay" d="M16.449 32.5838C16.177 32.5563 15.9084 32.5151 15.6464 32.4602C15.23 32.3778 14.827 32.2611 14.4375 32.1169C14.377 32.0963 14.3199 32.0723 14.2628 32.0517L12.3923 31.3548C10.7703 30.8742 9.34642 29.8993 8.24157 28.5193C7.89568 28.0868 7.58336 27.6165 7.30127 27.1084C6.72702 26.0751 6.30724 24.8839 6.06881 23.5692C6.01508 23.2739 5.97142 22.9753 5.93784 22.6663C5.9009 22.3608 5.87739 22.0518 5.86396 21.7429C5.80687 20.3801 5.94792 19.0104 6.26695 17.6784C6.42478 17.0159 6.62627 16.3671 6.86471 15.7286C7.17702 14.9115 7.55986 14.1186 8.00314 13.3599L8.00986 13.3496L10.5856 14.249L11.2707 16.3911L11.8416 18.1693L12.3923 19.8995L12.7953 21.1627L13.3393 22.8586L14.2461 25.6872L14.78 27.359L16.13 31.5814L16.449 32.5838V32.5838Z" fill="url(#paint1_linear_1722_90029)"/>
<path d="M31.2261 16.6245C31.2194 16.8511 31.2093 17.0811 31.1891 17.3077C31.1085 18.4645 30.8869 19.6248 30.5444 20.7577C30.494 20.9259 30.4403 21.0906 30.3865 21.2589C30.2388 21.6948 30.0709 22.1308 29.8895 22.5599C29.866 22.6217 29.8425 22.6801 29.8156 22.7384C29.7115 22.9787 29.6041 23.219 29.4899 23.4524C29.2817 23.8884 29.0567 24.3175 28.8115 24.7329C28.6638 24.9938 28.5059 25.2512 28.3447 25.5018C27.8209 26.3223 27.2365 27.0947 26.5985 27.8121C26.2526 28.2069 25.8865 28.5811 25.507 28.9381C25.0134 29.4084 24.4962 29.8375 23.9556 30.2323C23.7574 30.3765 23.5559 30.5172 23.3511 30.6511C23.1328 30.7953 22.9112 30.9326 22.6862 31.0596C22.2966 31.2896 21.897 31.4921 21.4906 31.6741C21.2253 31.7942 20.9533 31.9006 20.6813 32.0002C20.4395 32.0895 20.1977 32.165 19.9593 32.2336C19.9291 32.2439 19.8988 32.2542 19.8686 32.2611C19.4623 32.3744 19.0626 32.4602 18.6664 32.5186C18.4514 32.5529 18.2399 32.5769 18.0317 32.5906C18.0115 32.5941 17.9914 32.5975 17.9712 32.5975C17.4507 32.6387 16.9436 32.6318 16.45 32.5838C16.1779 32.5563 15.9093 32.5151 15.6473 32.4602C15.2309 32.3778 14.8279 32.2611 14.4384 32.1169C14.3779 32.0963 14.3209 32.0723 14.2638 32.0517C12.9238 31.5196 11.7417 30.6339 10.7981 29.453C10.4522 29.0205 10.1365 28.5502 9.85779 28.0421C9.28354 27.0054 8.86376 25.8177 8.62533 24.5029C8.5716 24.2077 8.52794 23.9056 8.49436 23.6001C8.46078 23.2911 8.43727 22.9856 8.42384 22.6766C8.36339 21.3138 8.50443 19.9441 8.82346 18.6121C8.9813 17.9496 9.18279 17.3008 9.42458 16.6623C9.74361 15.8281 10.1332 15.0214 10.5865 14.249C11.4294 12.8038 12.4906 11.4856 13.7197 10.3733C14.4115 9.74856 15.1537 9.18901 15.9395 8.70841C16.5742 8.31707 17.2391 7.97722 17.9242 7.69572C18.2097 7.57901 18.4985 7.46916 18.7906 7.37304C19.0862 7.27349 19.3783 7.18766 19.6671 7.11558C20.3623 6.93363 21.0473 6.82722 21.7123 6.77916C22.5216 6.72423 23.3041 6.75856 24.0462 6.88558C24.5701 6.9714 25.0772 7.10528 25.5608 7.27692C25.5843 7.28378 25.6044 7.29065 25.6246 7.30095C27.0518 7.82274 28.2776 8.70498 29.2212 9.88931C29.5604 10.3218 29.8626 10.7956 30.1246 11.3071C30.6451 12.3301 30.9944 13.5041 31.1488 14.8051C31.1824 15.0969 31.2059 15.399 31.2194 15.7045C31.2328 16.0101 31.2362 16.319 31.2261 16.6245V16.6245Z" fill="url(#paint2_linear_1722_90029)"/>
<path d="M21.4902 31.6737C21.2249 31.7939 20.9529 31.9003 20.6809 31.9999C20.4391 32.0891 20.1973 32.1646 19.9589 32.2333C19.9287 32.2436 19.8985 32.2539 19.8682 32.2608L19.8447 31.9758L19.7171 30.3555L19.5089 27.7054L19.3645 25.9066L19.3343 25.4946L19.1865 23.6649L19.1664 23.4075L18.9682 20.8981L18.8238 19.0752L18.6089 16.3393L18.4645 14.5096L17.9238 7.69538C18.2093 7.57867 18.4981 7.46882 18.7902 7.3727C19.0858 7.27314 19.3779 7.18732 19.6667 7.11523L20.1705 13.9054L20.3082 15.7351L20.5096 18.4882L20.6473 20.3111L20.7649 21.9073L20.8522 23.0985L20.9899 24.9282L21.319 29.36L21.4902 31.6737V31.6737Z" fill="url(#paint3_linear_1722_90029)"/>
<path d="M31.2193 15.7041C31.2328 16.0096 31.2361 16.3186 31.2261 16.6241L8.62532 24.5025C8.57159 24.2107 8.52793 23.9086 8.49435 23.5996C8.46077 23.2907 8.43726 22.9851 8.42383 22.6762L31.1488 14.8047C31.1824 15.0965 31.2059 15.3986 31.2193 15.7041V15.7041Z" fill="url(#paint4_linear_1722_90029)"/>
<path d="M26.9738 19.0893C26.9839 19.848 26.9637 20.6375 26.9066 21.4545C26.8764 21.8974 26.8395 22.3539 26.7857 22.8174C26.7723 22.9581 26.7555 23.0954 26.7354 23.2327C26.732 23.2739 26.7286 23.3117 26.7219 23.3529C26.5003 25.1139 26.1107 26.9814 25.5096 28.9381C25.016 29.4084 24.4988 29.8375 23.9581 30.2323C23.76 30.3765 23.5585 30.5172 23.3536 30.6511C23.3637 30.5618 23.3839 30.4692 23.4175 30.3765C23.4712 30.2254 23.5249 30.0744 23.5786 29.9268C24.0186 28.6498 24.3645 27.4071 24.6197 26.1987C24.7876 25.416 24.9186 24.6505 25.0193 23.9021C25.026 23.8506 25.0328 23.8026 25.0395 23.7545C25.1234 23.1057 25.1872 22.4672 25.2242 21.8493C25.2947 20.7542 25.2981 19.7072 25.2477 18.7083C25.2309 18.3924 25.2107 18.0938 25.1839 17.7951C25.1772 17.6818 25.1671 17.5686 25.157 17.4553C25.1402 17.2699 25.1201 17.0845 25.0999 16.9026V16.8957C24.979 15.8624 24.8044 14.8909 24.5995 13.995C24.4619 13.4011 24.3141 12.8347 24.1563 12.306C23.1522 8.99334 21.8425 7.02632 21.8122 6.98169C21.7686 6.9199 21.7384 6.85125 21.7148 6.77916C22.5242 6.72423 23.3066 6.75856 24.0488 6.88558C24.5794 7.8914 25.2947 9.4705 25.8925 11.5268C26.0033 11.9147 26.1074 12.3163 26.2115 12.7386C26.2484 12.893 26.2854 13.0475 26.3189 13.2089C26.5238 14.1357 26.6984 15.169 26.8193 16.3018C26.8495 16.6005 26.8764 16.8957 26.8999 17.2012C26.9234 17.4999 26.9402 17.802 26.9536 18.1109C26.9671 18.4336 26.9738 18.7563 26.9772 19.0893H26.9738Z" fill="url(#paint5_linear_1722_90029)"/>
<path d="M17.9706 32.5981C17.45 32.6393 16.943 32.6324 16.4493 32.5844C16.1773 32.5569 15.9086 32.5157 15.6467 32.4608C15.4855 32.2033 15.331 31.9424 15.1866 31.6747C14.5418 30.5178 14.0079 29.2648 13.5847 27.9329C13.4068 27.3802 13.2489 26.8138 13.1112 26.2336C12.8728 25.2347 12.6915 24.2014 12.5706 23.1269C12.537 22.8214 12.5068 22.5158 12.4832 22.2103C12.4597 21.9048 12.4396 21.5993 12.4262 21.2903C12.4027 20.8303 12.3926 20.3669 12.3926 19.9C12.3926 19.2924 12.406 18.6745 12.443 18.0497C12.4497 17.8403 12.4665 17.6344 12.4799 17.425C12.5135 16.9821 12.5538 16.553 12.6008 16.1308C12.8694 13.7381 13.343 11.7196 13.7191 10.3739C14.4109 9.74913 15.153 9.18958 15.9388 8.70898C15.9288 8.80167 15.9086 8.89779 15.8717 8.99048C15.8381 9.0763 14.8206 11.8569 14.3336 15.7291C14.2597 16.3436 14.1959 16.989 14.1556 17.6515C14.0918 18.6333 14.0683 19.6529 14.1086 20.7033C14.1187 21.0123 14.1355 21.3178 14.159 21.6267C14.1791 21.9323 14.206 22.2378 14.2396 22.5399V22.5467C14.3403 23.5148 14.5015 24.4966 14.7299 25.4681C14.8642 26.0379 15.0187 26.6044 15.2034 27.1673C15.6735 28.6194 16.3116 30.0338 17.1646 31.3657C17.3795 31.7056 17.6112 32.0385 17.8564 32.3647C17.9068 32.4333 17.9437 32.5123 17.9706 32.5981V32.5981Z" fill="url(#paint6_linear_1722_90029)"/>
<path d="M30.1245 11.3064C28.8081 12.0067 27.5387 12.6384 26.3196 13.2082C25.7353 13.4829 25.161 13.7437 24.6002 13.9943C23.079 14.6672 21.645 15.2439 20.3084 15.7348C20.0196 15.8412 19.7375 15.9442 19.4588 16.0437C19.2573 16.1158 19.0592 16.1845 18.8678 16.2497L18.6125 16.339C16.9435 16.902 15.4491 17.3311 14.1596 17.6503C13.5416 17.8082 12.9707 17.9352 12.4469 18.0451C10.5965 18.4296 9.3506 18.5669 8.83008 18.6081C8.98791 17.949 9.18941 17.2967 9.4312 16.6617C9.67299 16.6342 9.9853 16.5964 10.3581 16.5415C10.9525 16.4557 11.7114 16.3218 12.6081 16.133C13.1353 16.0197 13.7163 15.8858 14.3409 15.7279C14.4349 15.7073 14.529 15.6833 14.623 15.6558C15.7077 15.3743 16.9972 15.0036 18.4681 14.5093C18.7435 14.4131 19.029 14.317 19.3211 14.214C19.5999 14.1145 19.8819 14.0115 20.1741 13.9051C21.4032 13.4554 22.7364 12.9267 24.1569 12.3054C24.7211 12.0617 25.3021 11.8008 25.8931 11.5261C26.961 11.0318 28.0726 10.486 29.2245 9.88867C29.5637 10.3212 29.8659 10.7949 30.1278 11.3064H30.1245Z" fill="url(#paint7_linear_1722_90029)"/>
<path d="M30.544 20.7578C30.4936 20.926 30.4399 21.0908 30.3862 21.259C30.2384 21.6984 30.0738 22.1344 29.8891 22.5601C29.8656 22.6218 29.8421 22.6802 29.8153 22.7386C28.9085 22.893 28.0253 23.0681 27.1723 23.2535C27.0179 23.2878 26.8701 23.3187 26.719 23.353C26.6384 23.3702 26.5578 23.3908 26.4772 23.408C26.1011 23.4938 25.7283 23.583 25.3656 23.6757C25.2548 23.6998 25.1473 23.7272 25.0365 23.7547C23.5824 24.122 22.2291 24.5202 20.9899 24.9287C20.7044 25.0214 20.4291 25.1141 20.1604 25.2033C19.875 25.3029 19.5996 25.399 19.3343 25.4951C19.1832 25.5501 19.0354 25.6015 18.891 25.6565C17.6518 26.113 16.5671 26.5593 15.6403 26.9678C15.4925 27.0365 15.3447 27.0983 15.2037 27.1669C15.0593 27.2321 14.9182 27.2939 14.7806 27.3592C14.3541 27.5548 13.9544 27.7471 13.585 27.9324C12.2988 28.5744 11.3552 29.1168 10.7977 29.4532C10.4518 29.0206 10.1362 28.5503 9.85742 28.0423C10.3343 27.7402 11.4391 27.0674 13.1115 26.2332C13.4641 26.0581 13.8436 25.8762 14.2466 25.6874C14.4044 25.6153 14.5656 25.5432 14.7302 25.4677C15.9492 24.9115 17.3798 24.3177 18.9918 23.7375C19.0556 23.7135 19.1227 23.6895 19.1865 23.6654C19.4619 23.5693 19.7373 23.4698 20.0194 23.3736C20.2914 23.2809 20.5701 23.1883 20.8522 23.099C22.2022 22.6596 23.663 22.2339 25.2212 21.8495C25.772 21.7121 26.3328 21.5817 26.9071 21.4547C27.0884 21.4135 27.2731 21.3757 27.4578 21.338C28.4518 21.1251 29.4828 20.9295 30.544 20.7578V20.7578Z" fill="url(#paint8_linear_1722_90029)"/>
<path opacity="0.16" d="M31.1775 17.302L30.6099 17.0136C30.5864 17.0033 30.5629 16.9896 30.5361 16.9827C30.4655 16.9552 30.3917 16.9415 30.3144 16.9415C30.1129 16.9381 29.8946 17.017 29.6931 17.1578C29.5017 17.2985 29.3271 17.4942 29.1928 17.7379L28.4909 19.0355C28.3969 19.0218 28.3029 19.0149 28.2088 19.0081C27.8126 18.9841 27.3961 19.0115 26.973 19.0905C26.9126 19.1008 26.8487 19.1111 26.7883 19.1248L26.6943 18.2975L26.6842 18.2082L26.6473 17.8684C26.617 17.6109 26.5129 17.4187 26.3551 17.302C26.3249 17.2745 26.2879 17.2539 26.251 17.2367C26.2443 17.2333 26.2342 17.2299 26.2275 17.2264C26.0529 17.1441 25.8413 17.1406 25.6163 17.2299C25.5861 17.2436 25.5525 17.2573 25.5223 17.2711L25.1529 17.4564L24.2663 17.8958C24.0245 18.016 23.8129 18.222 23.6618 18.4623C23.4838 18.7369 23.3797 19.0596 23.3797 19.3617C23.3797 19.4097 23.3797 19.4543 23.3864 19.499L23.5275 20.7623C23.0405 21.157 22.5805 21.6067 22.164 22.0976C22.0633 22.2109 21.9693 22.3276 21.8752 22.4443L20.9584 21.9706C20.9148 21.9466 20.8678 21.9294 20.8208 21.9191H20.8107C20.8107 21.9191 20.7805 21.9088 20.7637 21.9088C20.3473 21.8436 19.8334 22.1629 19.5413 22.7052L19.1652 23.409L18.9905 23.7385L18.7756 24.1402C18.4566 24.7375 18.5103 25.3966 18.8898 25.6575C18.9133 25.6746 18.9368 25.6884 18.9637 25.7021L19.3633 25.9081L19.4036 25.9287L19.8838 26.1758C19.7159 26.6805 19.5917 27.192 19.5077 27.7069C19.4708 27.9094 19.4405 28.1085 19.4204 28.3111L18.2752 28.8981C17.9864 29.0457 17.7446 29.3135 17.5868 29.6224C17.4659 29.8558 17.3954 30.1167 17.3887 30.3639C17.3887 30.4188 17.3887 30.4738 17.3954 30.5287L17.4793 31.2805L17.5499 31.919C17.5499 31.919 17.5532 31.9361 17.5532 31.9464C17.5935 32.2314 17.7279 32.4408 17.9193 32.5438C17.9327 32.5506 17.9428 32.5575 17.9562 32.5643C17.9764 32.5746 17.9965 32.5815 18.0167 32.5884C18.02 32.5884 18.0267 32.5918 18.0301 32.5918C18.0704 32.609 18.1107 32.6158 18.1543 32.6193C18.3088 32.6433 18.4834 32.609 18.6648 32.5197C18.6648 32.5197 18.6749 32.5197 18.6782 32.5129L18.7118 32.4923H18.7152L19.82 31.919C19.8267 31.9396 19.8368 31.9567 19.8435 31.9773C19.8805 32.0666 19.9174 32.1524 19.9577 32.2348C20.1961 32.1661 20.4379 32.0906 20.6797 32.0014C20.9517 31.9018 21.2237 31.7954 21.489 31.6752C21.8954 31.4933 22.295 31.2908 22.6846 31.0608C22.9096 30.9338 23.1312 30.7964 23.3495 30.6523C23.5543 30.5184 23.7558 30.3776 23.954 30.2335C23.8163 30.1511 23.6887 30.0515 23.5745 29.9279C23.3999 29.7529 23.2555 29.5332 23.1446 29.2791C23.0338 29.0251 22.9599 28.7367 22.923 28.4141C22.9096 28.2939 22.9029 28.1738 22.8995 28.0502C22.8995 27.8854 22.9062 27.7206 22.9264 27.5524C23.0674 26.1621 23.8834 24.7238 25.0152 23.9033C25.1293 23.8209 25.2435 23.742 25.3644 23.6767C25.4282 23.6355 25.492 23.6012 25.5592 23.5669C25.5793 23.5566 25.5961 23.5463 25.6163 23.5394C25.8346 23.433 26.0495 23.3541 26.2577 23.306C26.3618 23.2785 26.4626 23.2614 26.5633 23.2476C26.6204 23.2408 26.6775 23.2373 26.7312 23.2339C26.8823 23.2236 27.0301 23.2305 27.1711 23.2545C27.9402 23.3643 28.548 23.8896 28.8099 24.7341C29.0551 24.3187 29.2801 23.8896 29.4883 23.4536C29.6025 23.2202 29.7099 22.9799 29.814 22.7396C29.8409 22.6812 29.8644 22.6229 29.8879 22.5611C30.0726 22.1354 30.2372 21.6994 30.3849 21.26C30.4387 21.0918 30.4924 20.927 30.5428 20.7588C30.8853 19.626 31.107 18.4657 31.1876 17.3088L31.1775 17.302V17.302Z" fill="black"/>
<path d="M39.2471 24.1806L36.9601 23.1198C36.8695 23.0477 36.762 23.0031 36.6411 22.9894C36.4799 22.9619 36.2986 22.9963 36.1105 23.0924L34.9654 23.6725C34.7303 23.0786 34.4079 22.5671 34.0217 22.1518L34.2131 21.8016L34.7236 20.8576C34.784 20.7477 34.831 20.6345 34.8646 20.5246L35.9829 19.9719C35.9594 19.9616 35.9359 19.9479 35.909 19.941L34.4314 19.2716L34.4113 19.2613L33.5348 18.8185C33.0915 18.5919 32.4568 18.9146 32.1142 19.5428L31.728 20.2603L31.5904 20.5143L31.4157 20.837C31.2747 20.8198 31.1336 20.8061 30.9892 20.8061C30.7474 20.7958 30.4956 20.8061 30.237 20.837L30.9892 20.4765L31.6004 20.1848H31.6072L30.9892 19.8895L29.1926 19.0416H29.1825C28.9777 18.9318 28.7157 18.9386 28.4437 19.0725L27.537 19.5222L27.1877 19.6973C26.9426 19.8209 26.7277 20.0303 26.5732 20.2774C26.3751 20.5898 26.271 20.964 26.3079 21.3039L26.4489 22.5637C25.8478 23.0512 25.2937 23.621 24.8001 24.2458L23.8799 23.7755C23.4366 23.5455 22.8019 23.8751 22.4627 24.5067L21.6971 25.9416C21.4116 26.4737 21.4284 27.0573 21.7004 27.3628C21.7542 27.4246 21.8146 27.4727 21.8851 27.507L22.8019 27.9773C22.5736 28.681 22.4157 29.3985 22.3385 30.1125L21.1933 30.6995C21.1698 30.7133 21.143 30.727 21.1195 30.7442C21.1127 30.7442 21.106 30.7476 21.0993 30.7545C20.8508 30.9089 20.6392 31.1561 20.4982 31.4376C20.3538 31.7191 20.2833 32.0383 20.3168 32.3301L20.4713 33.7204C20.5016 33.9985 20.6191 34.2045 20.7937 34.3212C20.8374 34.3521 20.881 34.3761 20.9314 34.3933L23.2889 35.5089V35.5021L23.1109 34.4859C23.2788 34.7743 23.4736 35.0352 23.6885 35.2652L23.5239 35.5776L22.9866 36.5903C22.6474 37.2322 22.7348 37.9325 23.178 38.1522L24.1788 38.65C24.209 38.6671 24.2426 38.6809 24.2762 38.6912H24.2795L25.6262 39.3091L25.3676 38.2243C25.4516 38.1248 25.5254 38.0149 25.5926 37.8879L26.0896 36.9473L26.2877 36.5697C26.8251 36.6246 27.3993 36.5834 27.9904 36.4461L28.1314 37.706C28.1415 37.8158 28.1683 37.9051 28.2053 37.9874V37.9943C28.259 38.1213 28.3396 38.2174 28.4404 38.2861C28.5109 38.3376 28.5915 38.3719 28.6788 38.3891L30.8986 39.4498C30.8986 39.4498 30.912 39.4567 30.9187 39.4601L30.7038 37.4931C30.9288 37.3215 31.1169 37.0743 31.2344 36.8065C31.3586 36.5422 31.4157 36.2573 31.3855 35.9964L31.2445 34.74C31.8456 34.2422 32.3997 33.6655 32.8933 33.0373L33.8101 33.4836C34.2501 33.6998 34.8848 33.36 35.2239 32.7283L35.9896 31.3003C36.3288 30.6686 36.2448 29.9821 35.8016 29.7658L34.8881 29.3195C35.1165 28.6227 35.2743 27.9155 35.3549 27.2152L36.4967 26.6248C37.0038 26.3673 37.3766 25.7494 37.3866 25.1898L39.2572 24.1874C39.2572 24.1874 39.2437 24.1806 39.2404 24.1806H39.2471ZM26.318 31.5165C26.0695 31.1767 25.9016 30.7407 25.8445 30.2155C25.7739 29.5633 25.8747 28.8698 26.1131 28.2073C26.4053 27.3868 26.909 26.6145 27.537 26.0412C27.8292 25.7665 28.1448 25.54 28.484 25.3683C29.4445 24.8809 30.3545 24.9392 30.9892 25.4267C31.2579 25.6327 31.4795 25.9142 31.6307 26.2643C31.7448 26.5183 31.8221 26.8067 31.859 27.1294C32.0605 28.9454 30.8784 31.1115 29.2195 31.9697C28.981 32.0933 28.746 32.1825 28.5176 32.2374C27.6109 32.4674 26.8049 32.1894 26.318 31.5165V31.5165Z" fill="url(#paint9_linear_1722_90029)"/>
<path style="mix-blend-mode:overlay" d="M31.4795 39.5289C31.2713 39.5838 31.0765 39.5563 30.9254 39.4602C30.9187 39.4568 30.9119 39.4534 30.9052 39.4499L28.6854 38.3892C28.5981 38.372 28.5175 38.3377 28.447 38.2862L28.1582 38.832L28.2119 37.9944V37.9875L28.2724 37.0092L31.241 36.8066H31.3048C31.3048 36.8066 31.4056 38.3034 31.4795 39.5289Z" fill="url(#paint10_linear_1722_90029)"/>
<path style="mix-blend-mode:overlay" d="M26.1407 36.4225L26.0971 36.9443L25.8821 39.4331L25.6336 39.3095L24.287 38.6916H24.2836C24.2501 38.6813 24.2165 38.6676 24.1862 38.6504L23.1855 38.1526C22.7422 37.9329 22.6549 37.2326 22.9941 36.5907L23.5314 35.578C23.4844 35.5746 23.4374 35.5643 23.3937 35.5471L23.6959 35.2656L24.0889 35.451H24.0922L26.1441 36.4225H26.1407Z" fill="url(#paint11_linear_1722_90029)"/>
<path style="mix-blend-mode:overlay" d="M24.7937 31.2701L23.5076 32.8355L22.9602 32.5815L20.502 31.4384C20.643 31.1569 20.8546 30.9097 21.1031 30.7552C21.1098 30.7484 21.1165 30.7449 21.1232 30.7449C21.1467 30.7278 21.1736 30.714 21.1971 30.7003L22.3423 30.1133L24.7937 31.2701V31.2701Z" fill="url(#paint12_linear_1722_90029)"/>
<path style="mix-blend-mode:overlay" d="M26.1929 24.8784L24.3358 28.6614L22.8045 27.9782L21.703 27.3672C21.431 27.0582 21.4142 26.4746 21.6996 25.9426L22.4653 24.5076C22.8045 23.876 23.4392 23.5464 23.8825 23.7764L24.8026 24.2467L26.1862 24.8749H26.1963L26.1929 24.8784Z" fill="url(#paint13_linear_1722_90029)"/>
<path style="mix-blend-mode:overlay" d="M29.2164 21.5063V23.2227L28.9007 23.7205L26.4492 22.5636L26.3081 21.3038C26.2712 20.9639 26.3753 20.5897 26.5734 20.2773L29.035 21.4205L29.2164 21.5063V21.5063Z" fill="url(#paint14_linear_1722_90029)"/>
<path style="mix-blend-mode:overlay" d="M36.6037 20.4765L34.2127 21.8016L33.8634 21.9939L32.0668 21.2558L31.5899 20.5143L31.5664 20.4765L31.6235 20.1951C31.6604 20.2122 31.6974 20.2328 31.7276 20.2603L32.1138 19.5428C32.4563 18.9146 33.091 18.5919 33.5343 18.8185L34.4108 19.2613L34.431 19.2716L35.9086 19.941C35.9354 19.9479 35.9589 19.9616 35.9825 19.9719L36.55 20.2603L36.6037 20.4765V20.4765Z" fill="url(#paint15_linear_1722_90029)"/>
<path d="M39.8349 26.1812L39.6837 24.8252C39.6468 24.506 39.489 24.2828 39.264 24.1867C39.2572 24.1833 39.2505 24.1799 39.2472 24.1799C39.0524 24.1043 38.8106 24.1181 38.5587 24.2451L37.4136 24.8287C37.1785 24.2348 36.8595 23.7233 36.4699 23.3045L36.6412 22.9887L37.1752 22.0103C37.5143 21.3855 37.4304 20.699 36.9871 20.4793L36.5505 20.2596L35.983 19.9712C35.9595 19.9609 35.936 19.9472 35.9091 19.9403C35.4725 19.7824 34.8882 20.1051 34.5658 20.6955L33.864 21.9931C33.3266 21.9245 32.7524 21.9554 32.1613 22.0824L32.0673 21.2551L32.0203 20.826C31.9901 20.5685 31.886 20.3763 31.7281 20.2596C31.6979 20.2321 31.661 20.2115 31.624 20.1943C31.6173 20.1909 31.6072 20.1875 31.6005 20.184C31.4259 20.1016 31.2143 20.0982 30.9893 20.1875C30.9591 20.2012 30.9255 20.2149 30.8953 20.2287L29.6393 20.8534C29.3975 20.9736 29.186 21.1796 29.0349 21.4199C28.83 21.7357 28.7225 22.1133 28.7595 22.4566L28.9005 23.7199C28.4136 24.1146 27.9535 24.5643 27.5371 25.0552C27.4363 25.1685 27.3423 25.2852 27.2483 25.4019L26.3315 24.9282C26.2878 24.9042 26.2408 24.887 26.1938 24.8767H26.1837C25.7572 24.7772 25.2166 25.0999 24.9143 25.6628L24.1487 27.0978C23.8095 27.7328 23.8934 28.4366 24.3367 28.6597L24.7766 28.8863L25.2569 29.1334C25.0252 29.8372 24.8707 30.5546 24.7934 31.2687L23.6483 31.8557C23.3595 32.0033 23.1177 32.2711 22.9599 32.58C22.839 32.8134 22.7684 33.0743 22.7617 33.3215C22.7617 33.3764 22.7617 33.4313 22.7684 33.4863L22.9229 34.8766C22.9565 35.1752 23.0942 35.3949 23.2923 35.5013C23.3225 35.5219 23.3561 35.5357 23.3897 35.546C23.4334 35.5631 23.4804 35.5734 23.5274 35.5769C23.6852 35.6009 23.8666 35.5666 24.0513 35.4705L24.0849 35.4499H24.0882L25.1931 34.8766C25.4315 35.4807 25.7505 35.9991 26.1401 36.4213L25.4416 37.7464C25.1024 38.3884 25.1863 39.0887 25.6296 39.3084L25.8781 39.4319L26.6304 39.8061C27.0737 40.0293 27.7084 39.686 28.0475 39.044L28.1584 38.8312L28.4472 38.2854L28.746 37.7224C29.2834 37.7808 29.8543 37.7396 30.4487 37.6022L30.5863 38.8621C30.6166 39.1333 30.7341 39.3358 30.9054 39.4491C30.9121 39.4525 30.9188 39.456 30.9255 39.4594C31.0766 39.5555 31.2714 39.583 31.4796 39.5281C31.5535 39.5075 31.6307 39.4766 31.7113 39.4354L32.964 38.7728C33.5147 38.4811 33.9076 37.7567 33.8404 37.1491L33.7028 35.8961C34.3005 35.3984 34.8546 34.8216 35.3516 34.19L36.2651 34.6397C36.7084 34.856 37.3431 34.5161 37.6822 33.8845L38.4479 32.4564C38.7871 31.8248 38.7031 31.1382 38.2599 30.9219L37.3431 30.4722C37.5748 29.7788 37.7326 29.0682 37.8099 28.3679L38.955 27.7809C39.5091 27.4994 39.902 26.7819 39.8349 26.1812V26.1812ZM34.3106 28.2855C34.5121 30.1015 33.33 32.2642 31.671 33.1258C30.3043 33.833 29.0382 33.4245 28.5177 32.2367C28.4069 31.9827 28.333 31.6943 28.296 31.3716C28.2658 31.0902 28.2658 30.8018 28.2994 30.51C28.464 28.9034 29.5252 27.2385 30.9322 26.5245C30.9524 26.5142 30.9692 26.5039 30.9893 26.497C31.2076 26.3906 31.4225 26.3116 31.6307 26.2636C32.9975 25.9272 34.136 26.727 34.3106 28.2855V28.2855Z" fill="url(#paint16_linear_1722_90029)"/>
</g>
<defs>
<linearGradient id="paint0_linear_1722_90029" x1="18.7192" y1="31.6296" x2="15.8258" y2="6.21314" gradientUnits="userSpaceOnUse">
<stop stop-color="#888BCB"/>
<stop offset="1" stop-color="#383DA9"/>
</linearGradient>
<linearGradient id="paint1_linear_1722_90029" x1="5.85053" y1="22.965" x2="16.449" y2="22.965" gradientUnits="userSpaceOnUse">
<stop stop-color="#6B5656"/>
<stop offset="1" stop-color="#353133"/>
</linearGradient>
<linearGradient id="paint2_linear_1722_90029" x1="21.2421" y1="32.2336" x2="18.3873" y2="7.14654" gradientUnits="userSpaceOnUse">
<stop stop-color="#AEB2DC"/>
<stop offset="1" stop-color="#6064BA"/>
</linearGradient>
<linearGradient id="paint3_linear_1722_90029" x1="17.9238" y1="19.6863" x2="21.4902" y2="19.6863" gradientUnits="userSpaceOnUse">
<stop stop-color="#EBECF6"/>
<stop offset="1" stop-color="#AEB2DC"/>
</linearGradient>
<linearGradient id="paint4_linear_1722_90029" x1="8.42383" y1="19.6519" x2="31.2328" y2="19.6519" gradientUnits="userSpaceOnUse">
<stop stop-color="#EBECF6"/>
<stop offset="1" stop-color="#AEB2DC"/>
</linearGradient>
<linearGradient id="paint5_linear_1722_90029" x1="21.7115" y1="18.7014" x2="26.9772" y2="18.7014" gradientUnits="userSpaceOnUse">
<stop stop-color="#EBECF6"/>
<stop offset="1" stop-color="#AEB2DC"/>
</linearGradient>
<linearGradient id="paint6_linear_1722_90029" x1="12.3926" y1="20.6656" x2="17.9706" y2="20.6656" gradientUnits="userSpaceOnUse">
<stop stop-color="#EBECF6"/>
<stop offset="1" stop-color="#AEB2DC"/>
</linearGradient>
<linearGradient id="paint7_linear_1722_90029" x1="8.82336" y1="14.2484" x2="30.1245" y2="14.2484" gradientUnits="userSpaceOnUse">
<stop stop-color="#EBECF6"/>
<stop offset="1" stop-color="#AEB2DC"/>
</linearGradient>
<linearGradient id="paint8_linear_1722_90029" x1="9.85742" y1="25.1038" x2="30.544" y2="25.1038" gradientUnits="userSpaceOnUse">
<stop stop-color="#EBECF6"/>
<stop offset="1" stop-color="#AEB2DC"/>
</linearGradient>
<linearGradient id="paint9_linear_1722_90029" x1="31.0094" y1="39.4498" x2="28.6806" y2="18.9808" gradientUnits="userSpaceOnUse">
<stop stop-color="#888BCB"/>
<stop offset="1" stop-color="#383DA9"/>
</linearGradient>
<linearGradient id="paint10_linear_1722_90029" x1="29.9381" y1="39.7143" x2="29.6119" y2="36.8563" gradientUnits="userSpaceOnUse">
<stop stop-color="#6B5656"/>
<stop offset="1" stop-color="#353133"/>
</linearGradient>
<linearGradient id="paint11_linear_1722_90029" x1="24.7471" y1="39.5601" x2="24.2526" y2="35.2028" gradientUnits="userSpaceOnUse">
<stop stop-color="#6B5656"/>
<stop offset="1" stop-color="#353133"/>
</linearGradient>
<linearGradient id="paint12_linear_1722_90029" x1="22.8191" y1="32.9145" x2="22.4965" y2="30.0943" gradientUnits="userSpaceOnUse">
<stop stop-color="#6B5656"/>
<stop offset="1" stop-color="#353133"/>
</linearGradient>
<linearGradient id="paint13_linear_1722_90029" x1="24.1511" y1="28.682" x2="23.583" y2="23.6968" gradientUnits="userSpaceOnUse">
<stop stop-color="#6B5656"/>
<stop offset="1" stop-color="#353133"/>
</linearGradient>
<linearGradient id="paint14_linear_1722_90029" x1="28.0242" y1="23.82" x2="27.6103" y2="20.1592" gradientUnits="userSpaceOnUse">
<stop stop-color="#6B5656"/>
<stop offset="1" stop-color="#353133"/>
</linearGradient>
<linearGradient id="paint15_linear_1722_90029" x1="34.2463" y1="21.9492" x2="33.871" y2="18.6658" gradientUnits="userSpaceOnUse">
<stop stop-color="#6B5656"/>
<stop offset="1" stop-color="#353133"/>
</linearGradient>
<linearGradient id="paint16_linear_1722_90029" x1="32.3899" y1="39.3365" x2="30.2134" y2="20.2041" gradientUnits="userSpaceOnUse">
<stop stop-color="#AEB2DC"/>
<stop offset="1" stop-color="#6064BA"/>
</linearGradient>
<clipPath id="clip0_1722_90029">
<rect width="45" height="46" fill="white" transform="translate(0 0.566406)"/>
</clipPath>
</defs>
</svg>
