<svg width="18" height="19" viewBox="0 0 18 19" fill="none" xmlns="http://www.w3.org/2000/svg">
<path d="M8.20416 5.09627C8.46723 5.05595 8.73302 5.03589 8.99916 5.03627C11.3842 5.03627 13.6267 6.75377 14.9317 9.53627C14.7321 9.95972 14.5067 10.3705 14.2567 10.7663C14.1773 10.8891 14.1356 11.0325 14.1367 11.1788C14.1383 11.3424 14.1935 11.5011 14.2938 11.6305C14.394 11.7599 14.5338 11.8529 14.6919 11.8954C14.85 11.9379 15.0176 11.9275 15.1693 11.8658C15.3209 11.8041 15.4481 11.6946 15.5317 11.5538C15.8811 11.0047 16.1846 10.4278 16.4392 9.82877C16.4794 9.73519 16.5002 9.63439 16.5002 9.53252C16.5002 9.43065 16.4794 9.32986 16.4392 9.23627C14.9242 5.71877 12.0742 3.53627 8.99916 3.53627C8.64716 3.5345 8.29573 3.56462 7.94916 3.62627C7.85067 3.64302 7.75644 3.67899 7.67185 3.73215C7.58727 3.78531 7.51398 3.85461 7.45618 3.9361C7.39837 4.01758 7.35718 4.10965 7.33496 4.20705C7.31274 4.30446 7.30992 4.40528 7.32666 4.50377C7.34341 4.60226 7.37939 4.69649 7.43255 4.78108C7.48571 4.86567 7.55501 4.93895 7.63649 4.99676C7.71797 5.05456 7.81004 5.09575 7.90744 5.11797C8.00485 5.1402 8.10567 5.14302 8.20416 5.12627V5.09627ZM2.78166 2.25377C2.71173 2.18384 2.62872 2.12837 2.53735 2.09053C2.44598 2.05268 2.34806 2.0332 2.24916 2.0332C2.15027 2.0332 2.05234 2.05268 1.96098 2.09053C1.86961 2.12837 1.78659 2.18384 1.71666 2.25377C1.57543 2.395 1.49609 2.58655 1.49609 2.78627C1.49609 2.986 1.57543 3.17754 1.71666 3.31877L4.04166 5.63627C2.98084 6.65742 2.13656 7.88176 1.55916 9.23627C1.51786 9.3309 1.49655 9.43303 1.49655 9.53627C1.49655 9.63952 1.51786 9.74165 1.55916 9.83627C3.07416 13.3538 5.92416 15.5363 8.99916 15.5363C10.347 15.527 11.663 15.1256 12.7867 14.3813L15.2167 16.8188C15.2864 16.8891 15.3693 16.9449 15.4607 16.9829C15.5521 17.021 15.6502 17.0406 15.7492 17.0406C15.8482 17.0406 15.9462 17.021 16.0376 16.9829C16.129 16.9449 16.2119 16.8891 16.2817 16.8188C16.352 16.749 16.4078 16.6661 16.4458 16.5747C16.4839 16.4833 16.5035 16.3853 16.5035 16.2863C16.5035 16.1873 16.4839 16.0892 16.4458 15.9978C16.4078 15.9064 16.352 15.8235 16.2817 15.7538L2.78166 2.25377ZM7.55166 9.14627L9.38916 10.9838C9.2624 11.0201 9.13102 11.0378 8.99916 11.0363C8.60134 11.0363 8.21981 10.8782 7.9385 10.5969C7.6572 10.3156 7.49916 9.9341 7.49916 9.53627C7.49763 9.40441 7.51531 9.27303 7.55166 9.14627ZM8.99916 14.0363C6.61416 14.0363 4.37166 12.3188 3.07416 9.53627C3.55873 8.46658 4.24647 7.5012 5.09916 6.69377L6.42666 8.03627C6.11485 8.60537 5.99597 9.26023 6.08786 9.90261C6.17975 10.545 6.47745 11.1403 6.93631 11.5991C7.39516 12.058 7.99044 12.3557 8.63282 12.4476C9.2752 12.5395 9.93006 12.4206 10.4992 12.1088L11.6917 13.2863C10.875 13.7669 9.94673 14.0255 8.99916 14.0363Z" fill="#383536"/>
</svg>
