<svg width="17" height="17" viewBox="0 0 17 17" fill="none" xmlns="http://www.w3.org/2000/svg">
<g clip-path="url(#clip0_1722_90325)">
<path d="M13.8154 7.33546H13.3177C13.1833 6.73497 12.9463 6.18188 12.6303 5.6841L12.9779 5.32855C13.2071 5.09151 13.3256 4.79126 13.3256 4.48312C13.3256 4.17497 13.2071 3.85892 12.97 3.62978C12.4959 3.16361 11.7374 3.16361 11.2633 3.63768L10.9157 3.99324C10.4258 3.69299 9.88853 3.47176 9.31965 3.33744V2.83966C9.31965 2.50781 9.18532 2.20756 8.96409 1.98633C8.74286 1.77299 8.44261 1.63867 8.11076 1.63867C7.44705 1.63867 6.90977 2.17596 6.90977 2.83966V3.33744C6.30928 3.47176 5.75619 3.7088 5.25841 4.02484L4.90286 3.67719C4.66582 3.44805 4.36557 3.32954 4.05742 3.32954C3.74928 3.32954 3.43323 3.44805 3.20409 3.68509C2.73792 4.15917 2.73792 4.91768 3.21199 5.39176L3.56755 5.73941C3.2673 6.22929 3.04607 6.75867 2.91174 7.33546H2.41397C2.08212 7.33546 1.78187 7.46978 1.56063 7.69102C1.3394 7.91225 1.20508 8.2125 1.20508 8.54435C1.20508 9.20805 1.74236 9.74534 2.40607 9.74534H2.90384C3.03816 10.3458 3.2831 10.8989 3.59915 11.3967L3.2515 11.7523C3.02236 11.9893 2.90384 12.2895 2.90384 12.5977C2.90384 12.9058 3.02236 13.2219 3.2594 13.451C3.73347 13.9172 4.49199 13.9172 4.95816 13.4431L5.30582 13.0876C5.7957 13.3878 6.32508 13.609 6.90187 13.7434V14.2411C6.90187 14.573 7.03619 14.8732 7.25742 15.0945C7.47866 15.3078 7.77891 15.4421 8.11076 15.4421C8.77446 15.4421 9.31175 14.9048 9.31175 14.2411V13.7434C9.91224 13.609 10.4653 13.372 10.9631 13.056L11.3187 13.4036C11.5557 13.6327 11.8559 13.7513 12.1641 13.7513C12.4722 13.7513 12.7883 13.6327 13.0174 13.3878C13.4836 12.9137 13.4836 12.1552 13.0095 11.689L12.654 11.3414C12.9542 10.8515 13.1754 10.3142 13.3098 9.74534H13.8075C14.1394 9.74534 14.4396 9.61102 14.6609 9.38978C14.8821 9.16855 15.0164 8.8683 15.0164 8.53645C15.0164 7.87275 14.4792 7.33546 13.8154 7.33546V7.33546ZM8.11076 11.5784C6.4357 11.5784 5.07668 10.2194 5.07668 8.54435C5.07668 6.86929 6.4357 5.51028 8.11076 5.51028C9.78582 5.51028 11.1448 6.86929 11.1448 8.54435C11.1448 10.2194 9.78582 11.5784 8.11076 11.5784Z" stroke="#7A7979" stroke-linecap="round" stroke-linejoin="round"/>
</g>
<defs>
<clipPath id="clip0_1722_90325">
<rect width="16" height="16" fill="white" transform="translate(0.111328 0.537109)"/>
</clipPath>
</defs>
</svg>
