<svg width="37" height="37" viewBox="0 0 37 37" fill="none" xmlns="http://www.w3.org/2000/svg">
<g clip-path="url(#clip0_1722_90531)">
<path opacity="0.84" d="M18.5 0.578125C8.61407 0.578125 0.578125 8.61407 0.578125 18.5C0.578125 28.3859 8.61407 36.4219 18.5 36.4219C28.3859 36.4219 36.4219 28.3859 36.4219 18.5C36.4219 8.61407 28.3859 0.578125 18.5 0.578125ZM24.4431 24.9172C24.4431 25.8769 23.6684 26.6516 22.7088 26.6516C21.7491 26.6516 20.9744 25.8769 20.9744 24.9172V12.0828C20.9744 11.1231 21.7491 10.3484 22.7088 10.3484C23.6684 10.3484 24.4431 11.1231 24.4431 12.0828V24.9172ZM16.0256 24.9172C16.0256 25.8769 15.2509 26.6516 14.2912 26.6516C13.3316 26.6516 12.5569 25.8769 12.5569 24.9172V12.0828C12.5569 11.1231 13.3316 10.3484 14.2912 10.3484C15.2509 10.3484 16.0256 11.1231 16.0256 12.0828V24.9172Z" fill="white"/>
</g>
<defs>
<clipPath id="clip0_1722_90531">
<rect width="37" height="37" fill="white"/>
</clipPath>
</defs>
</svg>
