<svg width="24" height="24" viewBox="0 0 24 24" fill="none" xmlns="http://www.w3.org/2000/svg">
<g clip-path="url(#clip0_1722_90521)">
<path d="M19.9996 22.9004C19.8996 22.9004 19.7996 22.9004 19.6996 22.9004C16.4996 22.5004 13.2996 21.4004 10.5996 19.7004C8.09961 18.1004 5.89961 15.9004 4.29961 13.4004C2.49961 10.7004 1.39961 7.50039 1.09961 4.30039C1.09961 3.50039 1.29961 2.70039 1.79961 2.10039C2.29961 1.50039 2.99961 1.10039 3.79961 1.00039C3.89961 1.00039 3.99961 1.00039 4.09961 1.00039H7.09961C8.59961 1.00039 9.89961 2.10039 10.0996 3.60039C10.1996 4.50039 10.3996 5.40039 10.6996 6.20039C11.0996 7.30039 10.7996 8.50039 9.99961 9.40039L9.29961 10.1004C10.4996 11.9004 11.9996 13.5004 13.8996 14.7004L14.5996 14.0004C15.3996 13.2004 16.6996 12.9004 17.7996 13.3004C18.5996 13.6004 19.4996 13.8004 20.3996 13.9004C21.8996 14.1004 22.9996 15.4004 22.9996 16.9004V19.9004C22.9996 20.7004 22.6996 21.5004 22.0996 22.0004C21.4996 22.5004 20.7996 22.9004 19.9996 22.9004ZM7.09961 3.00039H4.09961C3.79961 3.00039 3.49961 3.20039 3.29961 3.40039C3.19961 3.60039 3.09961 3.80039 3.09961 4.10039C3.39961 7.00039 4.39961 9.80039 5.99961 12.3004C7.49961 14.6004 9.39961 16.6004 11.6996 18.0004C14.1996 19.6004 16.9996 20.6004 19.8996 20.9004C20.2996 20.9004 20.4996 20.8004 20.6996 20.6004C20.8996 20.4004 20.9996 20.2004 20.9996 19.9004V16.9004C20.9996 16.4004 20.5996 16.0004 20.0996 15.9004C19.0996 15.8004 18.0996 15.5004 17.0996 15.1004C16.6996 15.0004 16.2996 15.0004 15.9996 15.3004L14.6996 16.6004C14.3996 16.9004 13.8996 17.0004 13.4996 16.8004C10.7996 15.3004 8.59961 13.1004 7.09961 10.4004C6.99961 10.0004 7.09961 9.50039 7.39961 9.20039L8.69961 7.90039C8.89961 7.70039 8.99961 7.20039 8.89961 6.90039C8.49961 5.90039 8.29961 4.90039 8.09961 3.90039C8.09961 3.40039 7.59961 3.00039 7.09961 3.00039ZM18.9996 10.0004C18.4996 10.0004 18.0996 9.70039 17.9996 9.20039C17.6996 7.60039 16.3996 6.40039 14.7996 6.00039C14.2996 5.90039 13.8996 5.40039 13.9996 4.80039C14.0996 4.30039 14.5996 3.90039 15.1996 4.00039C17.5996 4.50039 19.4996 6.30039 19.8996 8.70039C19.9996 9.20039 19.6996 9.80039 19.0996 9.90039C19.0996 9.90039 19.0996 10.0004 18.9996 10.0004ZM22.9996 9.90039C22.4996 9.90039 22.0996 9.50039 21.9996 9.00039C21.5996 5.30039 18.6996 2.40039 14.8996 1.90039C14.3996 1.80039 13.9996 1.30039 13.9996 0.800391C13.9996 0.300391 14.5996 -0.0996094 15.0996 -0.0996094C19.7996 0.400391 23.3996 4.00039 23.8996 8.70039C23.9996 9.20039 23.5996 9.70039 22.9996 9.80039C23.0996 9.90039 22.9996 9.90039 22.9996 9.90039Z" fill="white"/>
</g>
<defs>
<clipPath id="clip0_1722_90521">
<rect width="24" height="24" fill="white"/>
</clipPath>
</defs>
</svg>
