<svg width="20" height="21" viewBox="0 0 20 21" fill="none" xmlns="http://www.w3.org/2000/svg">
<path fill-rule="evenodd" clip-rule="evenodd" d="M9.9987 1.37109C4.93608 1.37109 0.832031 5.47515 0.832031 10.5378C0.832031 15.6004 4.93608 19.7044 9.9987 19.7044C15.0613 19.7044 19.1654 15.6004 19.1654 10.5378C19.1654 5.47515 15.0613 1.37109 9.9987 1.37109ZM2.24229 10.5378C2.24229 6.25401 5.71495 2.78135 9.9987 2.78135C14.2824 2.78135 17.7551 6.25401 17.7551 10.5378C17.7551 14.8215 14.2824 18.2942 9.9987 18.2942C9.19269 18.2942 8.41545 18.1712 7.68461 17.9431C8.08192 17.3192 8.39787 16.647 8.62483 15.9429L9.11052 14.084C9.31115 14.3704 9.58013 14.602 9.89312 14.758C10.206 14.914 10.5529 14.9893 10.9024 14.9772C13.286 14.9772 14.9607 12.8112 14.9607 10.1206C14.9607 7.53597 12.8506 5.60451 10.1432 5.60451C6.77152 5.60451 4.97961 7.87091 4.97961 10.3327C4.97961 11.4826 5.58808 12.9061 6.56498 13.3638C6.71011 13.4309 6.80501 13.3638 6.82734 13.2578C6.84966 13.1518 6.98349 12.6165 7.04494 12.3706C7.05458 12.3317 7.05465 12.2905 7.04492 12.2516C7.03518 12.2127 7.01606 12.1768 6.98923 12.147C6.62016 11.6269 6.4248 11.0038 6.431 10.3662C6.42907 9.9085 6.52003 9.45525 6.69836 9.03377C6.87669 8.61224 7.1387 8.23132 7.46852 7.91403C7.79834 7.59673 8.18915 7.34966 8.61721 7.18776C9.04527 7.02587 9.50172 6.95253 9.95902 6.97217C10.3873 6.94712 10.8161 7.01161 11.218 7.16153C11.62 7.31145 11.9863 7.5435 12.2936 7.8429C12.6008 8.14229 12.8423 8.50244 13.0026 8.90036C13.1629 9.29833 13.2385 9.72526 13.2246 10.1541C13.2246 12.2642 12.1528 13.7323 10.7684 13.7323C10.5896 13.746 10.41 13.7165 10.245 13.6462C10.08 13.5757 9.93448 13.4667 9.82054 13.3281C9.70659 13.1896 9.6278 13.0256 9.59066 12.8501C9.55353 12.6747 9.55926 12.4928 9.6073 12.3199C9.68665 11.9907 9.79139 11.6516 9.8934 11.3211C10.0785 10.7216 10.2549 10.1505 10.2549 9.71868C10.2742 9.57841 10.263 9.4356 10.222 9.30003C10.181 9.16455 10.1111 9.0395 10.0173 8.93345C9.92348 8.8274 9.80784 8.74288 9.67829 8.68572C9.54873 8.62855 9.40836 8.60006 9.26677 8.60219C8.4853 8.60219 7.85448 9.41717 7.85448 10.5002C7.84867 10.8829 7.92084 11.2627 8.06661 11.6166L7.14553 15.5242C7.03269 16.2626 7.03245 17.0138 7.1448 17.7523C6.53315 17.5102 5.95964 17.1925 5.43578 16.8108C4.51714 16.1397 3.74954 15.2713 3.19461 14.2602C2.97629 13.8624 2.79428 13.4487 2.64937 13.0241C2.38541 12.2436 2.24229 11.4074 2.24229 10.5378Z" fill="#081539" stroke="#081539" stroke-width="0.2"/>
</svg>
