<svg width="40" height="40" viewBox="0 0 40 40" fill="none" xmlns="http://www.w3.org/2000/svg">
<g clip-path="url(#clip0_44_970)">
<path d="M25.5832 5.72049L21.5425 7.57302V23.1402C21.5425 23.4627 21.345 23.7555 21.0489 23.8773L8.62738 28.9315L7.59088 29.3526L7.07757 33.4986L2.8197 31.0044C2.56304 30.8794 2.37549 30.6129 2.37549 30.2904V10.949C2.37549 10.8339 2.40181 10.722 2.45117 10.62C2.53014 10.439 2.6815 10.2909 2.87235 10.212L20.4467 3.0585C20.7231 2.94662 21.0127 3.00256 21.2266 3.1638L25.5075 5.67771C25.5305 5.69088 25.5568 5.70404 25.5799 5.72049H25.5832Z" fill="url(#paint0_linear_44_970)"/>
<path d="M8.62738 14.2682V33.32L7.88044 33.6227C7.59088 33.7412 7.29145 33.6754 7.07757 33.501L2.8197 31.0035C2.56304 30.8785 2.37549 30.612 2.37549 30.2895V10.9481C2.37549 10.833 2.40181 10.7211 2.45117 10.6191L6.8571 13.2218L8.62738 14.2682V14.2682Z" fill="url(#paint1_linear_44_970)"/>
<path d="M25.9508 6.38782V25.7292C25.9508 26.0549 25.7567 26.3445 25.4572 26.4663L17.7411 29.6054L8.62648 33.317L7.87954 33.6197C7.58998 33.7382 7.29055 33.6724 7.07667 33.498C6.90228 33.3532 6.78711 33.136 6.78711 32.8827V13.5413C6.78711 13.4294 6.81014 13.3175 6.85621 13.2188C6.93518 13.0346 7.08654 12.8832 7.28068 12.8042L24.8584 5.65076C25.0821 5.55863 25.3157 5.57837 25.5099 5.67379C25.5329 5.68695 25.5592 5.70012 25.5823 5.71657C25.7994 5.85148 25.9508 6.09497 25.9508 6.38782V6.38782Z" fill="url(#paint2_linear_44_970)"/>
<path d="M2.37536 16.0359L6.78788 18.6946L19.1041 13.6536C19.9136 13.3213 20.802 13.9169 20.802 14.7921V16.0688C20.802 16.9211 20.2854 17.6877 19.4957 18.0102L6.78459 23.1927L2.37207 20.636V16.0359H2.37536Z" fill="#D8DAEE"/>
<path style="mix-blend-mode:overlay" opacity="0.51" d="M2.37549 16.0323V20.6323L6.78801 23.1857V18.6877L2.37549 16.0323Z" fill="url(#paint3_linear_44_970)"/>
<path opacity="0.16" d="M30.4215 14.5125C30.4019 14.504 30.3822 14.4928 30.3597 14.4872C29.9946 14.358 29.5059 14.622 29.2363 15.1051L28.6493 16.1668C28.1999 16.1106 27.7196 16.1359 27.2253 16.2398L27.1466 15.5629L27.1073 15.2118C27.082 15.0012 26.9949 14.8439 26.8629 14.7484C26.8377 14.7259 26.8068 14.7091 26.7759 14.695C26.7702 14.6922 26.7618 14.6894 26.7562 14.6866C26.6102 14.6192 26.4332 14.6164 26.245 14.6894C26.2197 14.7006 26.1917 14.7119 26.1664 14.7231L25.1159 15.2343C24.9137 15.3326 24.7368 15.5011 24.6104 15.6977C24.439 15.9561 24.3492 16.2651 24.3801 16.5459L24.498 17.5795C24.0908 17.9025 23.706 18.2705 23.3577 18.6721C23.2734 18.7648 23.1948 18.8603 23.1162 18.9558L22.3494 18.5682C22.3129 18.5485 22.2736 18.5345 22.2342 18.5261H22.2258C21.8691 18.4446 21.4169 18.7086 21.1641 19.1692L20.5238 20.3433C20.2401 20.8629 20.3103 21.4387 20.681 21.6212L21.049 21.8066L21.4506 22.0088C21.2568 22.5846 21.1276 23.1716 21.063 23.7558L20.1053 24.2361C19.8637 24.3569 19.6615 24.576 19.5295 24.8287C19.4284 25.0197 19.3694 25.2332 19.3638 25.4354C19.3638 25.4803 19.3638 25.5253 19.3694 25.5702L19.4986 26.7077C19.5267 26.9521 19.6418 27.1318 19.8075 27.2189C19.8328 27.2358 19.8609 27.247 19.889 27.2554C19.9255 27.2695 19.9648 27.2779 20.0041 27.2807C20.1362 27.3004 20.2878 27.2723 20.4423 27.1936L20.4704 27.1768H20.4732L21.3973 26.7077C21.5967 27.2021 21.8635 27.6262 22.1893 27.9716L21.6051 29.0558C21.4113 29.4125 21.3832 29.7917 21.5012 30.0529L22.0124 29.7973L22.3859 29.6119L23.5627 29.0249L23.6554 28.98L25.6131 28.0082L26.6298 27.5026L28.2869 26.6796L28.3375 26.6544L30.0311 25.8118C30.2165 25.7191 30.3625 25.5702 30.4468 25.3877C30.5058 25.2669 30.5367 25.1349 30.5367 24.9973V14.5686L30.4215 14.5125V14.5125ZM26.8152 25.2753C25.6721 25.8539 24.6132 25.5197 24.1778 24.5479C24.0852 24.34 24.0234 24.1041 23.9925 23.8401C23.9672 23.6098 23.9672 23.3738 23.9953 23.1351C24.1329 21.8206 25.0204 20.4584 26.1973 19.8742C26.2141 19.8658 26.2282 19.8574 26.245 19.8518C26.4276 19.7647 26.6073 19.7001 26.7815 19.6608C27.9246 19.3855 28.8768 20.0399 29.0228 21.3151C29.1913 22.8009 28.2027 24.5703 26.8152 25.2753V25.2753Z" fill="black"/>
<path d="M37.4429 21.5009L35.5302 20.633C35.4544 20.574 35.3645 20.5375 35.2634 20.5263C35.1286 20.5038 34.9769 20.5319 34.8196 20.6105L33.8619 21.0852C33.6653 20.5993 33.3956 20.1808 33.0726 19.841L33.2327 19.5545L33.6596 18.7821C33.7102 18.6922 33.7495 18.5995 33.7776 18.5096L34.7129 18.0575C34.6932 18.049 34.6736 18.0378 34.6511 18.0322L33.4153 17.4845L33.3984 17.4761L32.6654 17.1137C32.2946 16.9284 31.7638 17.1924 31.4773 17.7064L31.1543 18.2934L31.0391 18.5012L30.8931 18.7652C30.7751 18.7512 30.6572 18.74 30.5364 18.74C30.3342 18.7315 30.1235 18.74 29.9072 18.7652L30.5364 18.4703L31.0476 18.2316H31.0532L30.5364 17.99L29.0338 17.2963H29.0253C28.854 17.2064 28.6349 17.212 28.4074 17.3216L27.6491 17.6895L27.357 17.8328C27.1519 17.9339 26.9722 18.1052 26.843 18.3074C26.6773 18.563 26.5902 18.8692 26.6211 19.1472L26.7391 20.178C26.2363 20.5768 25.7729 21.0431 25.36 21.5543L24.5904 21.1695C24.2197 20.9813 23.6888 21.2509 23.4052 21.7677L22.7648 22.9417C22.526 23.3771 22.5401 23.8546 22.7676 24.1045C22.8125 24.1551 22.8631 24.1944 22.9221 24.2225L23.6888 24.6073C23.4979 25.1831 23.3658 25.7701 23.3012 26.3543L22.3435 26.8346C22.3238 26.8458 22.3014 26.857 22.2817 26.8711C22.2761 26.8711 22.2705 26.8739 22.2648 26.8795C22.057 27.0059 21.8801 27.2081 21.7621 27.4384C21.6413 27.6687 21.5823 27.9299 21.6104 28.1687L21.7396 29.3062C21.7649 29.5337 21.8632 29.7022 22.0093 29.7977C22.0458 29.823 22.0823 29.8427 22.1244 29.8567L24.0961 30.7695V30.7639L23.9472 29.9325C24.0877 30.1685 24.2506 30.3819 24.4303 30.5701L24.2927 30.8257L23.8433 31.6543C23.5596 32.1795 23.6327 32.7524 24.0034 32.9322L24.8404 33.3395C24.8657 33.3535 24.8938 33.3647 24.9218 33.3732H24.9247L26.0509 33.8787L25.8347 32.9912C25.9049 32.9097 25.9667 32.8199 26.0229 32.7159L26.4385 31.9464L26.6042 31.6374C27.0536 31.6823 27.5339 31.6486 28.0282 31.5363L28.1462 32.5671C28.1546 32.657 28.1771 32.73 28.208 32.7974V32.803C28.2529 32.9069 28.3203 32.9856 28.4046 33.0417C28.4636 33.0839 28.531 33.112 28.604 33.126L30.4606 33.9939C30.4606 33.9939 30.4718 33.9995 30.4774 34.0023L30.2977 32.3929C30.4858 32.2525 30.6431 32.0503 30.7414 31.8312C30.8453 31.6149 30.8931 31.3818 30.8678 31.1684L30.7499 30.1404C31.2526 29.7331 31.716 29.2613 32.1289 28.7473L32.8957 29.1124C33.2636 29.2893 33.7945 29.0113 34.0781 28.4945L34.7185 27.3261C35.0022 26.8093 34.932 26.2476 34.5612 26.0706L33.7973 25.7055C33.9883 25.1353 34.1203 24.5567 34.1877 23.9838L35.1426 23.5007C35.5667 23.29 35.8785 22.7845 35.8869 22.3266L37.4514 21.5065C37.4514 21.5065 37.4401 21.5009 37.4373 21.5009H37.4429ZM26.6295 27.503C26.4217 27.225 26.2812 26.8683 26.2335 26.4385C26.1745 25.9049 26.2588 25.3375 26.4582 24.7955C26.7026 24.1242 27.1239 23.4922 27.6491 23.0232C27.8934 22.7985 28.1574 22.6131 28.4411 22.4727C29.2444 22.0739 30.0056 22.1216 30.5364 22.5204C30.7611 22.689 30.9465 22.9193 31.0729 23.2058C31.1683 23.4136 31.2329 23.6495 31.2638 23.9135C31.4324 25.3993 30.4437 27.1716 29.0562 27.8738C28.8568 27.9749 28.6602 28.0479 28.4692 28.0929C27.7109 28.281 27.0368 28.0535 26.6295 27.503V27.503Z" fill="url(#paint4_linear_44_970)"/>
<path style="mix-blend-mode:overlay" d="M30.9467 34.0585C30.7726 34.1034 30.6097 34.0809 30.4833 34.0023C30.4777 33.9995 30.4721 33.9967 30.4664 33.9939L28.6099 33.126C28.5369 33.1119 28.4695 33.0838 28.4105 33.0417L28.1689 33.4883L28.2139 32.803V32.7974L28.2644 31.9969L30.7473 31.8312H30.8007C30.8007 31.8312 30.8849 33.0558 30.9467 34.0585Z" fill="url(#paint5_linear_44_970)"/>
<path style="mix-blend-mode:overlay" d="M26.4811 31.5169L26.4446 31.9438L26.2648 33.9801L26.057 33.879L24.9307 33.3735H24.9279C24.8998 33.365 24.8717 33.3538 24.8465 33.3398L24.0095 32.9325C23.6387 32.7527 23.5657 32.1798 23.8494 31.6546L24.2988 30.826C24.2594 30.8232 24.2201 30.8148 24.1836 30.8007L24.4364 30.5704L24.765 30.7221H24.7678L26.4839 31.5169H26.4811Z" fill="url(#paint6_linear_44_970)"/>
<path style="mix-blend-mode:overlay" d="M25.3546 27.3014L24.2789 28.5821L23.8211 28.3743L21.7651 27.439C21.8831 27.2087 22.06 27.0065 22.2679 26.8801C22.2735 26.8745 22.2791 26.8717 22.2847 26.8717C22.3044 26.8576 22.3269 26.8464 22.3465 26.8351L23.3043 26.3549L25.3546 27.3014V27.3014Z" fill="url(#paint7_linear_44_970)"/>
<path style="mix-blend-mode:overlay" d="M26.5257 22.0718L24.9725 25.1669L23.6918 24.608L22.7705 24.1081C22.543 23.8553 22.529 23.3778 22.7677 22.9425L23.4081 21.7684C23.6918 21.2516 24.2226 20.982 24.5934 21.1702L25.3629 21.555L26.5201 22.069H26.5285L26.5257 22.0718Z" fill="url(#paint8_linear_44_970)"/>
<path style="mix-blend-mode:overlay" d="M29.0537 19.3129V20.7172L28.7897 21.1245L26.7394 20.178L26.6214 19.1472C26.5905 18.8691 26.6776 18.563 26.8433 18.3074L28.902 19.2427L29.0537 19.3129V19.3129Z" fill="url(#paint9_linear_44_970)"/>
<path style="mix-blend-mode:overlay" d="M35.233 18.4703L33.2333 19.5545L32.9412 19.7118L31.4385 19.1079L31.0397 18.5012L31.02 18.4703L31.0678 18.24C31.0987 18.2541 31.1296 18.2709 31.1548 18.2934L31.4778 17.7064C31.7643 17.1924 32.2952 16.9284 32.6659 17.1137L33.399 17.4761L33.4158 17.4845L34.6516 18.0322C34.6741 18.0378 34.6938 18.049 34.7134 18.0575L35.1881 18.2934L35.233 18.4703V18.4703Z" fill="url(#paint10_linear_44_970)"/>
<path d="M37.9346 23.1377L37.8082 22.0283C37.7773 21.7671 37.6453 21.5845 37.4571 21.5059C37.4515 21.5031 37.4459 21.5003 37.4431 21.5003C37.2802 21.4385 37.0779 21.4497 36.8673 21.5536L35.9095 22.0311C35.7129 21.5452 35.4461 21.1267 35.1203 20.7841L35.2635 20.5257L35.7101 19.7252C35.9938 19.214 35.9236 18.6523 35.5528 18.4725L35.1877 18.2928L34.713 18.0568C34.6934 18.0484 34.6737 18.0372 34.6512 18.0316C34.2861 17.9024 33.7974 18.1664 33.5278 18.6495L32.9408 19.7111C32.4914 19.655 32.0111 19.6802 31.5168 19.7842L31.4381 19.1073L31.3988 18.7562C31.3735 18.5455 31.2864 18.3883 31.1544 18.2928C31.1292 18.2703 31.0983 18.2534 31.0674 18.2394C31.0618 18.2366 31.0533 18.2338 31.0477 18.231C30.9017 18.1636 30.7247 18.1608 30.5365 18.2338C30.5113 18.245 30.4832 18.2563 30.4579 18.2675L29.4074 18.7787C29.2052 18.877 29.0283 19.0455 28.9019 19.2421C28.7306 19.5005 28.6407 19.8094 28.6716 20.0903L28.7895 21.1239C28.3823 21.4469 27.9975 21.8148 27.6492 22.2165C27.565 22.3092 27.4863 22.4047 27.4077 22.5002L26.6409 22.1126C26.6044 22.0929 26.5651 22.0789 26.5257 22.0704H26.5173C26.1606 21.989 25.7084 22.253 25.4556 22.7136L24.8153 23.8876C24.5316 24.4073 24.6018 24.983 24.9725 25.1656L25.3405 25.351L25.7421 25.5532C25.5483 26.129 25.4191 26.716 25.3545 27.3002L24.3968 27.7805C24.1552 27.9012 23.953 28.1203 23.821 28.3731C23.7199 28.5641 23.6609 28.7776 23.6553 28.9798C23.6553 29.0247 23.6553 29.0697 23.6609 29.1146L23.7901 30.2521C23.8182 30.4965 23.9333 30.6762 24.099 30.7633C24.1243 30.7801 24.1524 30.7914 24.1805 30.7998C24.217 30.8138 24.2563 30.8223 24.2957 30.8251C24.4277 30.8447 24.5793 30.8167 24.7338 30.738L24.7619 30.7212H24.7647L25.6888 30.2521C25.8882 30.7464 26.155 31.1705 26.4808 31.516L25.8966 32.6002C25.6129 33.1254 25.6831 33.6984 26.0539 33.8781L26.2617 33.9792L26.8909 34.2854C27.2616 34.4679 27.7925 34.1871 28.0761 33.6618L28.1688 33.4877L28.4104 33.0411L28.6603 32.5805C29.1097 32.6282 29.5872 32.5945 30.0843 32.4822L30.1995 33.513C30.2248 33.7349 30.3231 33.9006 30.4663 33.9933C30.4719 33.9961 30.4775 33.9989 30.4832 34.0017C30.6096 34.0803 30.7725 34.1028 30.9466 34.0579C31.0084 34.041 31.073 34.0157 31.1404 33.982L32.188 33.44C32.6487 33.2012 32.9773 32.6086 32.9211 32.1115L32.8059 31.0863C33.3059 30.679 33.7693 30.2072 34.185 29.6904L34.949 30.0583C35.3197 30.2353 35.8505 29.9572 36.1342 29.4404L36.7746 28.272C37.0583 27.7552 36.9881 27.1935 36.6173 27.0165L35.8505 26.6486C36.0443 26.0812 36.1764 25.4998 36.241 24.9269L37.1987 24.4466C37.6621 24.2163 37.9908 23.6292 37.9346 23.1377V23.1377ZM33.3143 24.8594C33.4828 26.3452 32.4942 28.1147 31.1067 28.8197C29.9636 29.3983 28.9047 29.064 28.4693 28.0922C28.3767 27.8844 28.3149 27.6485 28.284 27.3844C28.2587 27.1541 28.2587 26.9182 28.2868 26.6795C28.4244 25.365 29.3119 24.0028 30.4888 23.4186C30.5056 23.4102 30.5197 23.4017 30.5365 23.3961C30.7191 23.3091 30.8989 23.2445 31.073 23.2051C32.2161 22.9299 33.1683 23.5843 33.3143 24.8594V24.8594Z" fill="url(#paint11_linear_44_970)"/>
</g>
<defs>
<linearGradient id="paint0_linear_44_970" x1="2.37549" y1="18.2506" x2="25.5832" y2="18.2506" gradientUnits="userSpaceOnUse">
<stop stop-color="#AEB2DC"/>
<stop offset="1" stop-color="#6064BA"/>
</linearGradient>
<linearGradient id="paint1_linear_44_970" x1="2.37549" y1="22.1489" x2="8.62738" y2="22.1489" gradientUnits="userSpaceOnUse">
<stop stop-color="#888BCB"/>
<stop offset="1" stop-color="#383DA9"/>
</linearGradient>
<linearGradient id="paint2_linear_44_970" x1="6.78711" y1="19.6352" x2="25.9508" y2="19.6352" gradientUnits="userSpaceOnUse">
<stop stop-color="#888BCB"/>
<stop offset="1" stop-color="#383DA9"/>
</linearGradient>
<linearGradient id="paint3_linear_44_970" x1="2.37549" y1="19.609" x2="6.78801" y2="19.609" gradientUnits="userSpaceOnUse">
<stop stop-color="#6B5656"/>
<stop offset="1" stop-color="#353133"/>
</linearGradient>
<linearGradient id="paint4_linear_44_970" x1="30.5532" y1="33.9939" x2="28.6883" y2="17.2373" gradientUnits="userSpaceOnUse">
<stop stop-color="#888BCB"/>
<stop offset="1" stop-color="#383DA9"/>
</linearGradient>
<linearGradient id="paint5_linear_44_970" x1="29.6575" y1="34.2101" x2="29.3963" y2="31.8705" gradientUnits="userSpaceOnUse">
<stop stop-color="#6B5656"/>
<stop offset="1" stop-color="#353133"/>
</linearGradient>
<linearGradient id="paint6_linear_44_970" x1="25.3155" y1="34.0841" x2="24.9195" y2="30.517" gradientUnits="userSpaceOnUse">
<stop stop-color="#6B5656"/>
<stop offset="1" stop-color="#353133"/>
</linearGradient>
<linearGradient id="paint7_linear_44_970" x1="23.7031" y1="28.6467" x2="23.4447" y2="26.338" gradientUnits="userSpaceOnUse">
<stop stop-color="#6B5656"/>
<stop offset="1" stop-color="#353133"/>
</linearGradient>
<linearGradient id="paint8_linear_44_970" x1="24.8181" y1="25.1838" x2="24.3631" y2="21.1028" gradientUnits="userSpaceOnUse">
<stop stop-color="#6B5656"/>
<stop offset="1" stop-color="#353133"/>
</linearGradient>
<linearGradient id="paint9_linear_44_970" x1="28.0566" y1="21.206" x2="27.7252" y2="18.2091" gradientUnits="userSpaceOnUse">
<stop stop-color="#6B5656"/>
<stop offset="1" stop-color="#353133"/>
</linearGradient>
<linearGradient id="paint10_linear_44_970" x1="33.2613" y1="19.6752" x2="32.9608" y2="16.9873" gradientUnits="userSpaceOnUse">
<stop stop-color="#6B5656"/>
<stop offset="1" stop-color="#353133"/>
</linearGradient>
<linearGradient id="paint11_linear_44_970" x1="31.7057" y1="33.9103" x2="29.9624" y2="18.2452" gradientUnits="userSpaceOnUse">
<stop stop-color="#EBECF6"/>
<stop offset="1" stop-color="#AEB2DC"/>
</linearGradient>
<clipPath id="clip0_44_970">
<rect width="40" height="40" fill="white"/>
</clipPath>
</defs>
</svg>
