<svg width="24" height="24" viewBox="0 0 24 24" fill="none" xmlns="http://www.w3.org/2000/svg">
<path d="M12.1597 10.87C12.0597 10.86 11.9397 10.86 11.8297 10.87C10.6819 10.831 9.59437 10.3468 8.79736 9.51995C8.00034 8.69307 7.55647 7.58844 7.55973 6.43999C7.55973 3.98999 9.53973 1.99999 11.9997 1.99999C12.5821 1.98948 13.1609 2.0938 13.703 2.30697C14.2451 2.52014 14.7399 2.838 15.1592 3.2424C15.5784 3.6468 15.9139 4.12982 16.1465 4.66388C16.3791 5.19794 16.5042 5.77258 16.5147 6.35499C16.5252 6.9374 16.4209 7.51618 16.2077 8.05828C15.9946 8.60038 15.6767 9.09518 15.2723 9.51444C14.8679 9.9337 14.3849 10.2692 13.8508 10.5018C13.3168 10.7344 12.7421 10.8595 12.1597 10.87ZM7.15973 14.56C4.73973 16.18 4.73973 18.82 7.15973 20.43C9.90973 22.27 14.4197 22.27 17.1697 20.43C19.5897 18.81 19.5897 16.17 17.1697 14.56C14.4297 12.73 9.91973 12.73 7.15973 14.56Z" stroke="#A9383D" stroke-width="1.5" stroke-linecap="round" stroke-linejoin="round"/>
</svg>
