<svg width="20" height="21" viewBox="0 0 20 21" fill="none" xmlns="http://www.w3.org/2000/svg">
<path d="M10 6.47461C7.76562 6.47461 5.9375 8.30273 5.9375 10.5371C5.9375 12.7715 7.76562 14.5996 10 14.5996C12.2344 14.5996 14.0625 12.7715 14.0625 10.5371C14.0625 8.30273 12.2344 6.47461 10 6.47461ZM10 2.41211C5.53129 2.41211 1.875 6.0684 1.875 10.5371C1.875 15.0058 5.53129 18.6621 10 18.6621C14.4687 18.6621 18.125 15.0058 18.125 10.5371C18.125 6.0684 14.4687 2.41211 10 2.41211ZM10 17.0371C6.42508 17.0371 3.5 14.112 3.5 10.5371C3.5 6.96223 6.42508 4.03711 10 4.03711C13.5749 4.03711 16.5 6.96219 16.5 10.5371C16.5 14.112 13.5749 17.0371 10 17.0371Z" fill="#383536"/>
<circle cx="10" cy="10.5371" r="6" fill="white"/>
</svg>
