<svg width="24" height="24" viewBox="0 0 24 24" fill="none" xmlns="http://www.w3.org/2000/svg">
<path d="M9.5 15.5H7.5C6.10444 15.5 5.40665 15.5 4.83886 15.6722C3.56045 16.06 2.56004 17.0605 2.17224 18.3389C2 18.9067 2 19.6044 2 21M13.9308 16C13.9308 16 14.775 14.7859 15.4609 14.0614C16.1467 13.337 17.0945 12.8889 18.1414 12.8889C20.2342 12.8889 21.9308 14.6798 21.9308 16.8889C21.9308 19.098 20.2342 20.8889 18.1414 20.8889C16.4137 20.8889 14.9561 19.6686 14.5 18M13.9308 16V13.3333M13.9308 16H16.4572M14.5 7.5C14.5 9.98528 12.4853 12 10 12C7.51472 12 5.5 9.98528 5.5 7.5C5.5 5.01472 7.51472 3 10 3C12.4853 3 14.5 5.01472 14.5 7.5Z" stroke="white" stroke-width="1.5" stroke-linecap="round" stroke-linejoin="round"/>
</svg>
