<svg width="23" height="23" viewBox="0 0 23 23" fill="none" xmlns="http://www.w3.org/2000/svg">
<g clip-path="url(#clip0_1722_90511)">
<path d="M11.5 4.3125C11.6906 4.3125 11.8734 4.38823 12.0082 4.52302C12.143 4.65781 12.2188 4.84063 12.2188 5.03125V7.90625C12.2188 8.09687 12.143 8.27969 12.0082 8.41448C11.8734 8.54927 11.6906 8.625 11.5 8.625C11.3094 8.625 11.1266 8.54927 10.9918 8.41448C10.857 8.27969 10.7812 8.09687 10.7812 7.90625V5.03125C10.7812 4.84063 10.857 4.65781 10.9918 4.52302C11.1266 4.38823 11.3094 4.3125 11.5 4.3125V4.3125ZM17.25 15.8125C17.25 17.3375 16.6442 18.8 15.5659 19.8784C14.4875 20.9567 13.025 21.5625 11.5 21.5625C9.97501 21.5625 8.51247 20.9567 7.43414 19.8784C6.3558 18.8 5.75 17.3375 5.75 15.8125V7.1875C5.75 5.66251 6.3558 4.19997 7.43414 3.12164C8.51247 2.0433 9.97501 1.4375 11.5 1.4375C13.025 1.4375 14.4875 2.0433 15.5659 3.12164C16.6442 4.19997 17.25 5.66251 17.25 7.1875V15.8125ZM11.5 0C9.59376 0 7.76559 0.757252 6.41767 2.10517C5.06975 3.45309 4.3125 5.28126 4.3125 7.1875V15.8125C4.3125 17.7187 5.06975 19.5469 6.41767 20.8948C7.76559 22.2427 9.59376 23 11.5 23C13.4062 23 15.2344 22.2427 16.5823 20.8948C17.9302 19.5469 18.6875 17.7187 18.6875 15.8125V7.1875C18.6875 5.28126 17.9302 3.45309 16.5823 2.10517C15.2344 0.757252 13.4062 0 11.5 0V0Z" fill="#EFEFEF"/>
</g>
<defs>
<clipPath id="clip0_1722_90511">
<rect width="23" height="23" fill="white"/>
</clipPath>
</defs>
</svg>
