<svg width="24" height="24" viewBox="0 0 24 24" fill="none" xmlns="http://www.w3.org/2000/svg">
<path fill-rule="evenodd" clip-rule="evenodd" d="M12.5098 21.9225C17.3598 20.5825 20.9098 16.0025 20.9098 11.1125L20.9198 6.7225C20.9198 5.9025 20.2898 4.9725 19.5298 4.6625L13.9598 2.3825C12.7098 1.8725 11.2998 1.8725 10.0498 2.3825L4.47984 4.6625C3.70984 4.9725 3.08984 5.9025 3.08984 6.7225V11.1125C3.08984 16.0025 6.63984 20.5825 11.4898 21.9225C11.8198 22.0125 12.1798 22.0125 12.5098 21.9225ZM11.9998 8C11.3368 8 10.7009 8.26339 10.2321 8.73223C9.76321 9.20107 9.49982 9.83696 9.49982 10.5C9.49982 11.163 9.76321 11.7989 10.2321 12.2678C10.5812 12.617 11.0231 12.8522 11.4998 12.9495V15.5C11.4998 15.7761 11.7237 16 11.9998 16C12.276 16 12.4998 15.7761 12.4998 15.5V12.9495C12.9765 12.8522 13.4184 12.617 13.7676 12.2678C14.2364 11.7989 14.4998 11.163 14.4998 10.5C14.4998 9.83696 14.2364 9.20107 13.7676 8.73223C13.2987 8.26339 12.6629 8 11.9998 8ZM10.9392 9.43934C11.2205 9.15804 11.602 9 11.9998 9C12.3976 9 12.7792 9.15804 13.0605 9.43934C13.3418 9.72064 13.4998 10.1022 13.4998 10.5C13.4998 10.8978 13.3418 11.2794 13.0605 11.5607C12.7792 11.842 12.3976 12 11.9998 12C11.602 12 11.2205 11.842 10.9392 11.5607C10.6579 11.2794 10.4998 10.8978 10.4998 10.5C10.4998 10.1022 10.6579 9.72064 10.9392 9.43934Z" fill="#A9383D"/>
</svg>
