<svg width="24" height="24" viewBox="0 0 24 24" fill="none" xmlns="http://www.w3.org/2000/svg">
<path fill-rule="evenodd" clip-rule="evenodd" d="M12.5098 21.9301C17.3598 20.5901 20.9098 16.0101 20.9098 11.1201L20.9198 6.73007C20.9198 5.91007 20.2898 4.98007 19.5298 4.67007L13.9598 2.39007C12.7098 1.88007 11.2998 1.88007 10.0498 2.39007L4.47984 4.67007C3.70984 4.98007 3.08984 5.91007 3.08984 6.73007V11.1201C3.08984 16.0101 6.63984 20.5901 11.4898 21.9301C11.8198 22.0201 12.1798 22.0201 12.5098 21.9301ZM12 7.75C11.2707 7.75 10.5712 8.03973 10.0555 8.55546C9.53973 9.07118 9.25 9.77065 9.25 10.5C9.25 11.2293 9.53973 11.9288 10.0555 12.4445C10.3902 12.7793 10.8025 13.0189 11.25 13.1458V15.5C11.25 15.9142 11.5858 16.25 12 16.25C12.4142 16.25 12.75 15.9142 12.75 15.5V13.1458C13.1975 13.0189 13.6098 12.7793 13.9445 12.4445C14.4603 11.9288 14.75 11.2293 14.75 10.5C14.75 9.77065 14.4603 9.07118 13.9445 8.55546C13.4288 8.03973 12.7293 7.75 12 7.75ZM11.1161 9.61612C11.3505 9.3817 11.6685 9.25 12 9.25C12.3315 9.25 12.6495 9.3817 12.8839 9.61612C13.1183 9.85054 13.25 10.1685 13.25 10.5C13.25 10.8315 13.1183 11.1495 12.8839 11.3839C12.6495 11.6183 12.3315 11.75 12 11.75C11.6685 11.75 11.3505 11.6183 11.1161 11.3839C10.8817 11.1495 10.75 10.8315 10.75 10.5C10.75 10.1685 10.8817 9.85054 11.1161 9.61612Z" fill="#1F1259"/>
</svg>
