<svg width="24" height="24" viewBox="0 0 24 24" fill="none" xmlns="http://www.w3.org/2000/svg">
<path d="M20.9098 11.1201C20.9098 16.0101 17.3598 20.5901 12.5098 21.9301C12.1798 22.0201 11.8198 22.0201 11.4898 21.9301C6.63984 20.5901 3.08984 16.0101 3.08984 11.1201V6.73007C3.08984 5.91007 3.70984 4.98007 4.47984 4.67007L10.0498 2.39007C11.2998 1.88007 12.7098 1.88007 13.9598 2.39007L19.5298 4.67007C20.2898 4.98007 20.9198 5.91007 20.9198 6.73007L20.9098 11.1201Z" stroke="#A9383D" stroke-width="1.5" stroke-linecap="round" stroke-linejoin="round"/>
<path d="M12 12.5C12.5304 12.5 13.0391 12.2893 13.4142 11.9142C13.7893 11.5391 14 11.0304 14 10.5C14 9.96957 13.7893 9.46086 13.4142 9.08579C13.0391 8.71071 12.5304 8.5 12 8.5C11.4696 8.5 10.9609 8.71071 10.5858 9.08579C10.2107 9.46086 10 9.96957 10 10.5C10 11.0304 10.2107 11.5391 10.5858 11.9142C10.9609 12.2893 11.4696 12.5 12 12.5ZM12 12.5V15.5" stroke="#A9383D" stroke-width="1.5" stroke-miterlimit="10" stroke-linecap="round" stroke-linejoin="round"/>
</svg>
