<svg width="24" height="26" viewBox="0 0 24 26" fill="none" xmlns="http://www.w3.org/2000/svg">
<path d="M15.0666 15.6922C17.975 15.6922 20.3327 13.3441 20.3327 10.4477C20.3327 7.55118 17.975 5.20312 15.0666 5.20312C12.1583 5.20312 9.8006 7.55118 9.8006 10.4477C9.8006 11.7893 10.4129 12.765 10.4129 12.765L4.04469 19.1072C3.75893 19.3918 3.35888 20.1317 4.04469 20.8147L4.77948 21.5465C5.06523 21.7905 5.78368 22.132 6.37151 21.5465L7.22878 20.6928C8.08604 21.5465 9.06577 21.0587 9.43317 20.5708C10.0455 19.7171 9.3107 18.8633 9.3107 18.8633L9.55563 18.6194C10.7313 19.7902 11.76 19.1072 12.1274 18.6194C12.7398 17.7656 12.1274 16.9118 12.1274 16.9118C11.8825 16.424 11.3927 16.424 12.005 15.8142L12.7398 15.0824C13.3276 15.5702 14.536 15.6922 15.0666 15.6922Z" stroke="#383536" stroke-width="1.5" stroke-linejoin="round"/>
<path d="M16.9045 10.4486C16.9045 11.459 16.082 12.2781 15.0675 12.2781C14.0529 12.2781 13.2305 11.459 13.2305 10.4486C13.2305 9.43823 14.0529 8.61914 15.0675 8.61914C16.082 8.61914 16.9045 9.43823 16.9045 10.4486Z" stroke="#383536" stroke-width="1.5"/>
</svg>
