<svg width="254" height="191" viewBox="0 0 254 191" fill="none" xmlns="http://www.w3.org/2000/svg">
<path d="M126.923 104.038L101.445 89.1083L112.109 95.2749L137.586 110.204L126.923 104.038Z" fill="white"/>
<path d="M79.7967 171.654L54.319 156.724L54.2832 139.234L79.7609 154.164L79.7967 171.654Z" fill="url(#paint0_linear_106_269)"/>
<path d="M134.867 57.9512L109.354 43.0577L124.454 34.2586L149.968 49.1882L134.867 57.9512Z" fill="url(#paint1_linear_106_269)"/>
<path d="M87.8124 122.574L62.3347 107.644C75.5745 99.927 86.2738 81.2831 86.238 65.9569C86.238 58.3478 83.5542 53.0107 79.2602 50.5224L104.738 65.452C109.032 67.9763 111.68 73.3135 111.716 80.8864C111.751 96.2487 101.088 114.893 87.8124 122.574Z" fill="url(#paint2_linear_106_269)"/>
<path d="M70.8154 124.232L45.3376 109.303C49.7032 111.863 55.7148 111.503 62.3347 107.608L87.8124 122.538C81.1567 126.396 75.1452 126.757 70.8154 124.232Z" fill="url(#paint3_linear_106_269)"/>
<path d="M38.1091 168.084L12.6313 153.154L23.259 134.618L48.7367 149.548L38.1091 168.084Z" fill="url(#paint4_linear_106_269)"/>
<path d="M115.222 33.5013L89.7446 18.5718L100.372 0L125.85 14.9296L115.222 33.5013Z" fill="url(#paint5_linear_106_269)"/>
<path d="M48.7367 149.548L23.2589 134.618C19.1796 130.399 16.3885 124.305 15.1003 116.768L40.5781 131.697C41.8305 139.27 44.6574 145.365 48.7367 149.548Z" fill="url(#paint6_linear_106_269)"/>
<path d="M95.7204 35.4846L70.2427 20.555C77.3993 17.8504 84.055 17.1652 89.7446 18.5716L115.222 33.5012C109.533 32.0948 102.877 32.7439 95.7204 35.4846Z" fill="url(#paint7_linear_106_269)"/>
<path d="M40.5427 112.837L15.0649 97.9075C16.2816 88.892 19.0369 79.6242 23.0804 70.6809L48.6297 85.394C44.5862 94.3374 41.7593 103.822 40.5427 112.801V112.837Z" fill="url(#paint8_linear_106_269)"/>
<path d="M59.8654 65.8124L34.4592 50.7746C40.113 42.7689 46.8045 35.6287 53.9611 30.0392L79.4388 44.9687C72.2822 50.5943 65.6981 57.6264 60.0085 65.6321L59.8654 65.8124Z" fill="url(#paint9_linear_106_269)"/>
<path d="M25.5135 121.6L0 106.67L15.0648 97.9075L40.5425 112.837L25.5135 121.6Z" fill="url(#paint10_linear_106_269)"/>
<path d="M25.5493 140.424L0.0715683 125.495L0 106.67L25.5135 121.6L25.5493 140.424Z" fill="url(#paint11_linear_106_269)"/>
<path d="M79.439 44.9328L53.9613 30.0033L53.9255 12.5855L79.4032 27.515L79.439 44.9328Z" fill="url(#paint12_linear_106_269)"/>
<path d="M79.4032 27.515L53.9255 12.5855L70.1712 3.13728L95.6489 18.0668L79.4032 27.515Z" fill="url(#paint13_linear_106_269)"/>
<path d="M37.8588 79.4799L12.3811 64.5503L23.8318 44.5361L49.3453 59.4656L37.8588 79.4799Z" fill="url(#paint14_linear_106_269)"/>
<path d="M150.004 68.0124L134.903 76.8115C133.723 85.7908 130.932 95.1308 126.924 104.038L137.587 110.205L126.351 129.606L115.652 123.511C109.998 131.481 103.164 139.126 96.007 144.68V162.17L81.9799 172.664L79.7972 171.654V154.164C72.5689 156.941 65.9848 157.518 60.2953 156.183L49.775 174.503L38.1454 168.12L48.773 149.548C44.6937 145.329 41.9026 139.234 40.6144 131.697L27.7682 141.47L25.5854 140.46V121.636L40.5787 112.873C41.7953 103.858 44.6222 94.3735 48.6657 85.4663L40.1135 80.6701L37.9307 79.5161L49.5245 59.2855L51.5999 60.5116L60.0806 65.3799C65.7343 57.3742 72.3542 50.5585 79.5109 44.9689V27.5511L95.7207 18.103L97.9035 19.1127L95.7565 35.5208C102.913 32.8161 108.746 31.6622 114.435 33.0686L125.886 15.0016L137.373 21.637L126.781 40.1727C130.824 44.428 133.651 50.4143 134.868 58.0233L149.968 49.2242L152.151 50.234L150.004 68.0485V68.0124ZM87.8126 122.574C101.052 114.857 111.752 96.2127 111.716 80.8864C111.68 65.5963 100.909 59.4297 87.6695 67.1469C74.4655 74.8281 63.7662 93.472 63.8378 108.762C63.8736 124.124 74.6444 130.291 87.8484 122.61L87.8126 122.574Z" fill="white"/>
<path d="M152.222 69.0221L137.122 77.8212C135.941 86.8005 133.15 96.1405 129.142 105.048L139.805 111.214L128.39 131.156L117.691 125.062C112.038 133.032 105.382 140.136 98.2252 145.725V163.215L82.0153 172.664V155.174C74.7871 157.95 68.203 158.527 62.5134 157.193L51.8142 175.873L40.292 169.31L50.9912 150.594C46.9119 146.375 44.1208 140.28 42.8326 132.743L27.7678 141.506V122.682L42.761 113.919C43.9777 104.904 46.733 95.7799 50.7765 86.8366L40.0773 80.7061L51.5279 60.5837L62.2272 66.7142C67.8809 58.7085 74.5008 51.6404 81.6575 46.0508V28.633L97.8673 19.1848V36.6026C105.096 33.898 111.751 33.2128 117.441 34.6192L127.961 16.2277L139.448 22.8631L128.999 41.2185C133.042 45.4738 135.869 51.46 137.086 59.0691L152.186 50.27V69.0942L152.222 69.0221ZM90.0666 123.583C103.306 115.866 114.006 97.2224 113.97 81.8962C113.934 66.606 103.163 60.4394 89.9234 68.1566C76.7194 75.8378 66.0202 94.4817 66.0918 109.772C66.1275 125.134 76.8983 131.301 90.1024 123.62L90.0666 123.583Z" fill="url(#paint15_linear_106_269)"/>
<path d="M0 107.969L25.5135 122.826V121.6L26.8375 120.807L1.07351 106.058L0 106.671V107.969Z" fill="white"/>
<path d="M53.9255 14.1362L79.439 28.7772L79.4032 27.5151L80.8346 26.6857L55.0706 11.9003L53.9255 12.5855V14.1362Z" fill="white"/>
<path d="M22.6868 46.5916L48.415 61.3769L49.4527 59.2492L23.8318 44.5361L22.6868 46.5916Z" fill="white"/>
<path d="M234.705 136.268L215.293 124.893L223.417 129.591L242.829 140.966L234.705 136.268Z" fill="white"/>
<path d="M198.798 187.785L179.386 176.41L179.359 163.084L198.771 174.459L198.798 187.785Z" fill="url(#paint16_linear_106_269)"/>
<path d="M240.757 101.154L221.318 89.8062L232.823 83.1021L252.263 94.4771L240.757 101.154Z" fill="url(#paint17_linear_106_269)"/>
<path d="M204.905 150.391L185.494 139.016C195.581 133.136 203.733 118.931 203.706 107.253C203.706 101.456 201.661 97.3896 198.389 95.4937L217.801 106.869C221.073 108.792 223.09 112.858 223.118 118.628C223.145 130.333 215.02 144.538 204.905 150.391Z" fill="url(#paint18_linear_106_269)"/>
<path d="M191.955 151.654L172.543 140.279C175.87 142.23 180.45 141.955 185.494 138.988L204.906 150.363C199.835 153.303 195.254 153.578 191.955 151.654Z" fill="url(#paint19_linear_106_269)"/>
<path d="M167.036 185.065L147.624 173.69L155.721 159.567L175.133 170.942L167.036 185.065Z" fill="url(#paint20_linear_106_269)"/>
<path d="M225.79 82.5251L206.378 71.1501L214.475 57L233.887 68.375L225.79 82.5251Z" fill="url(#paint21_linear_106_269)"/>
<path d="M175.133 170.942L155.721 159.567C152.613 156.353 150.487 151.709 149.505 145.967L168.917 157.342C169.871 163.112 172.025 167.755 175.133 170.942Z" fill="url(#paint22_linear_106_269)"/>
<path d="M210.931 84.0362L191.519 72.6612C196.972 70.6005 202.043 70.0784 206.378 71.15L225.789 82.525C221.454 81.4535 216.383 81.948 210.931 84.0362Z" fill="url(#paint23_linear_106_269)"/>
<path d="M168.89 142.972L149.478 131.597C150.405 124.728 152.505 117.667 155.585 110.853L175.052 122.063C171.971 128.877 169.817 136.103 168.89 142.945V142.972Z" fill="url(#paint24_linear_106_269)"/>
<path d="M183.612 107.143L164.255 95.6859C168.563 89.5862 173.661 84.146 179.114 79.8872L198.526 91.2623C193.073 95.5485 188.056 100.906 183.721 107.006L183.612 107.143Z" fill="url(#paint25_linear_106_269)"/>
<path d="M157.439 149.649L138 138.274L149.478 131.597L168.89 142.972L157.439 149.649Z" fill="url(#paint26_linear_106_269)"/>
<path d="M157.466 163.991L138.055 152.616L138 138.274L157.439 149.649L157.466 163.991Z" fill="url(#paint27_linear_106_269)"/>
<path d="M198.525 91.2349L179.114 79.8599L179.086 66.589L198.498 77.9641L198.525 91.2349Z" fill="url(#paint28_linear_106_269)"/>
<path d="M198.498 77.9641L179.086 66.589L191.464 59.3903L210.876 70.7654L198.498 77.9641Z" fill="url(#paint29_linear_106_269)"/>
<path d="M166.845 117.557L147.433 106.182L156.158 90.9326L175.597 102.308L166.845 117.557Z" fill="url(#paint30_linear_106_269)"/>
<path d="M252.29 108.82L240.785 115.524C239.885 122.365 237.758 129.481 234.705 136.268L242.83 140.966L234.269 155.748L226.117 151.105C221.809 157.177 216.602 163.002 211.149 167.233V180.559L200.462 188.555L198.799 187.785V174.46C193.291 176.575 188.275 177.015 183.94 175.998L175.924 189.956L167.063 185.093L175.161 170.943C172.053 167.728 169.926 163.084 168.945 157.342L159.157 164.788L157.494 164.019V149.676L168.917 143C169.844 136.131 171.998 128.904 175.079 122.118L168.563 118.464L166.9 117.584L175.733 102.17L177.315 103.105L183.776 106.814C188.084 100.714 193.128 95.5212 198.58 91.2624V77.9916L210.931 70.7929L212.594 71.5622L210.958 84.0638C216.411 82.0031 220.855 81.1238 225.19 82.1954L233.914 68.43L242.666 73.4855L234.596 87.6082C237.677 90.8503 239.831 95.4113 240.757 101.209L252.263 94.5046L253.926 95.2739L252.29 108.847V108.82ZM204.906 150.391C214.993 144.511 223.145 130.306 223.118 118.628C223.091 106.979 214.884 102.28 204.797 108.16C194.736 114.013 186.584 128.218 186.639 139.867C186.666 151.572 194.873 156.27 204.933 150.418L204.906 150.391Z" fill="white"/>
<path d="M253.98 109.589L242.475 116.293C241.575 123.134 239.449 130.251 236.395 137.037L244.52 141.736L235.822 156.93L227.671 152.286C223.363 158.359 218.292 163.771 212.839 168.03V181.356L200.489 188.555V175.229C194.981 177.344 189.965 177.784 185.63 176.767L177.478 191L168.699 185.999L176.851 171.739C173.743 168.525 171.616 163.881 170.635 158.139L159.157 164.815V150.473L170.58 143.796C171.507 136.927 173.607 129.976 176.687 123.162L168.535 118.491L177.26 103.16L185.412 107.83C189.719 101.731 194.763 96.3455 200.216 92.0867V78.8158L212.566 71.6172V84.888C218.074 82.8273 223.145 82.3053 227.48 83.3768L235.495 69.3641L244.247 74.4197L236.286 88.4049C239.367 91.6471 241.521 96.2081 242.448 102.006L253.953 95.3014V109.644L253.98 109.589ZM206.623 151.16C216.711 145.28 224.862 131.075 224.835 119.398C224.808 107.748 216.602 103.05 206.514 108.929C196.454 114.782 188.302 128.987 188.356 140.637C188.384 152.341 196.59 157.04 206.65 151.187L206.623 151.16Z" fill="url(#paint31_linear_106_269)"/>
<path d="M138 139.263L157.439 150.583V149.649L158.448 149.044L138.818 137.807L138 138.274V139.263Z" fill="white"/>
<path d="M179.086 67.7705L198.525 78.9258L198.498 77.9641L199.589 77.3322L179.959 66.067L179.086 66.5891V67.7705Z" fill="white"/>
<path d="M155.285 92.4987L174.888 103.764L175.679 102.143L156.158 90.9326L155.285 92.4987Z" fill="white"/>
<defs>
<linearGradient id="paint0_linear_106_269" x1="54.2832" y1="155.444" x2="79.7967" y2="155.444" gradientUnits="userSpaceOnUse">
<stop stop-color="#2E3489"/>
<stop offset="0.822917" stop-color="#6B68A7"/>
<stop offset="1" stop-color="#7A75AF"/>
</linearGradient>
<linearGradient id="paint1_linear_106_269" x1="109.354" y1="46.1049" x2="149.968" y2="46.1049" gradientUnits="userSpaceOnUse">
<stop stop-color="#2E3489"/>
<stop offset="0.822917" stop-color="#6B68A7"/>
<stop offset="1" stop-color="#7A75AF"/>
</linearGradient>
<linearGradient id="paint2_linear_106_269" x1="62.3347" y1="86.5481" x2="111.716" y2="86.5481" gradientUnits="userSpaceOnUse">
<stop stop-color="#2E3489"/>
<stop offset="0.822917" stop-color="#6B68A7"/>
<stop offset="1" stop-color="#7A75AF"/>
</linearGradient>
<linearGradient id="paint3_linear_106_269" x1="45.3376" y1="116.724" x2="87.8124" y2="116.724" gradientUnits="userSpaceOnUse">
<stop stop-color="#2E3489"/>
<stop offset="0.822917" stop-color="#6B68A7"/>
<stop offset="1" stop-color="#7A75AF"/>
</linearGradient>
<linearGradient id="paint4_linear_106_269" x1="12.6313" y1="151.351" x2="48.7367" y2="151.351" gradientUnits="userSpaceOnUse">
<stop stop-color="#5F559C"/>
<stop offset="1" stop-color="#9E99C5"/>
</linearGradient>
<linearGradient id="paint5_linear_106_269" x1="89.7446" y1="16.7507" x2="125.85" y2="16.7507" gradientUnits="userSpaceOnUse">
<stop stop-color="#2E3489"/>
<stop offset="0.822917" stop-color="#6B68A7"/>
<stop offset="1" stop-color="#7A75AF"/>
</linearGradient>
<linearGradient id="paint6_linear_106_269" x1="15.1003" y1="133.158" x2="48.7367" y2="133.158" gradientUnits="userSpaceOnUse">
<stop stop-color="#2E3489"/>
<stop offset="0.822917" stop-color="#6B68A7"/>
<stop offset="1" stop-color="#7A75AF"/>
</linearGradient>
<linearGradient id="paint7_linear_106_269" x1="70.2427" y1="26.6721" x2="115.222" y2="26.6721" gradientUnits="userSpaceOnUse">
<stop stop-color="#5F559C"/>
<stop offset="1" stop-color="#9E99C5"/>
</linearGradient>
<linearGradient id="paint8_linear_106_269" x1="15.0649" y1="91.7589" x2="48.6297" y2="91.7589" gradientUnits="userSpaceOnUse">
<stop stop-color="#2E3489"/>
<stop offset="0.822917" stop-color="#6B68A7"/>
<stop offset="1" stop-color="#7A75AF"/>
</linearGradient>
<linearGradient id="paint9_linear_106_269" x1="34.4592" y1="47.9258" x2="79.4388" y2="47.9258" gradientUnits="userSpaceOnUse">
<stop stop-color="#5F559C"/>
<stop offset="1" stop-color="#9E99C5"/>
</linearGradient>
<linearGradient id="paint10_linear_106_269" x1="0" y1="109.754" x2="40.5425" y2="109.754" gradientUnits="userSpaceOnUse">
<stop stop-color="#5F559C"/>
<stop offset="1" stop-color="#9E99C5"/>
</linearGradient>
<linearGradient id="paint11_linear_106_269" x1="0" y1="123.547" x2="25.5493" y2="123.547" gradientUnits="userSpaceOnUse">
<stop stop-color="#2E3489"/>
<stop offset="0.822917" stop-color="#6B68A7"/>
<stop offset="1" stop-color="#7A75AF"/>
</linearGradient>
<linearGradient id="paint12_linear_106_269" x1="53.9255" y1="28.7591" x2="79.439" y2="28.7591" gradientUnits="userSpaceOnUse">
<stop stop-color="#2E3489"/>
<stop offset="0.822917" stop-color="#6B68A7"/>
<stop offset="1" stop-color="#7A75AF"/>
</linearGradient>
<linearGradient id="paint13_linear_106_269" x1="53.9255" y1="15.3261" x2="95.6489" y2="15.3261" gradientUnits="userSpaceOnUse">
<stop stop-color="#5F559C"/>
<stop offset="1" stop-color="#9E99C5"/>
</linearGradient>
<linearGradient id="paint14_linear_106_269" x1="12.3811" y1="62.008" x2="49.3453" y2="62.008" gradientUnits="userSpaceOnUse">
<stop stop-color="#5F559C"/>
<stop offset="1" stop-color="#9E99C5"/>
</linearGradient>
<linearGradient id="paint15_linear_106_269" x1="27.7678" y1="96.0504" x2="152.222" y2="96.0504" gradientUnits="userSpaceOnUse">
<stop stop-color="#807DB4"/>
<stop offset="1" stop-color="#B1B1D4"/>
</linearGradient>
<linearGradient id="paint16_linear_106_269" x1="179.359" y1="175.435" x2="198.798" y2="175.435" gradientUnits="userSpaceOnUse">
<stop stop-color="#2E3489"/>
<stop offset="0.822917" stop-color="#6B68A7"/>
<stop offset="1" stop-color="#7A75AF"/>
</linearGradient>
<linearGradient id="paint17_linear_106_269" x1="221.318" y1="92.1279" x2="252.263" y2="92.1279" gradientUnits="userSpaceOnUse">
<stop stop-color="#2E3489"/>
<stop offset="0.822917" stop-color="#6B68A7"/>
<stop offset="1" stop-color="#7A75AF"/>
</linearGradient>
<linearGradient id="paint18_linear_106_269" x1="185.494" y1="122.942" x2="223.118" y2="122.942" gradientUnits="userSpaceOnUse">
<stop stop-color="#2E3489"/>
<stop offset="0.822917" stop-color="#6B68A7"/>
<stop offset="1" stop-color="#7A75AF"/>
</linearGradient>
<linearGradient id="paint19_linear_106_269" x1="172.543" y1="145.934" x2="204.906" y2="145.934" gradientUnits="userSpaceOnUse">
<stop stop-color="#2E3489"/>
<stop offset="0.822917" stop-color="#6B68A7"/>
<stop offset="1" stop-color="#7A75AF"/>
</linearGradient>
<linearGradient id="paint20_linear_106_269" x1="147.624" y1="172.316" x2="175.133" y2="172.316" gradientUnits="userSpaceOnUse">
<stop stop-color="#5F559C"/>
<stop offset="1" stop-color="#9E99C5"/>
</linearGradient>
<linearGradient id="paint21_linear_106_269" x1="206.378" y1="69.7626" x2="233.887" y2="69.7626" gradientUnits="userSpaceOnUse">
<stop stop-color="#2E3489"/>
<stop offset="0.822917" stop-color="#6B68A7"/>
<stop offset="1" stop-color="#7A75AF"/>
</linearGradient>
<linearGradient id="paint22_linear_106_269" x1="149.505" y1="158.455" x2="175.133" y2="158.455" gradientUnits="userSpaceOnUse">
<stop stop-color="#2E3489"/>
<stop offset="0.822917" stop-color="#6B68A7"/>
<stop offset="1" stop-color="#7A75AF"/>
</linearGradient>
<linearGradient id="paint23_linear_106_269" x1="191.519" y1="77.3218" x2="225.789" y2="77.3218" gradientUnits="userSpaceOnUse">
<stop stop-color="#5F559C"/>
<stop offset="1" stop-color="#9E99C5"/>
</linearGradient>
<linearGradient id="paint24_linear_106_269" x1="149.478" y1="126.912" x2="175.052" y2="126.912" gradientUnits="userSpaceOnUse">
<stop stop-color="#2E3489"/>
<stop offset="0.822917" stop-color="#6B68A7"/>
<stop offset="1" stop-color="#7A75AF"/>
</linearGradient>
<linearGradient id="paint25_linear_106_269" x1="164.255" y1="93.5153" x2="198.526" y2="93.5153" gradientUnits="userSpaceOnUse">
<stop stop-color="#5F559C"/>
<stop offset="1" stop-color="#9E99C5"/>
</linearGradient>
<linearGradient id="paint26_linear_106_269" x1="138" y1="140.623" x2="168.89" y2="140.623" gradientUnits="userSpaceOnUse">
<stop stop-color="#5F559C"/>
<stop offset="1" stop-color="#9E99C5"/>
</linearGradient>
<linearGradient id="paint27_linear_106_269" x1="138" y1="151.132" x2="157.466" y2="151.132" gradientUnits="userSpaceOnUse">
<stop stop-color="#2E3489"/>
<stop offset="0.822917" stop-color="#6B68A7"/>
<stop offset="1" stop-color="#7A75AF"/>
</linearGradient>
<linearGradient id="paint28_linear_106_269" x1="179.086" y1="78.912" x2="198.525" y2="78.912" gradientUnits="userSpaceOnUse">
<stop stop-color="#2E3489"/>
<stop offset="0.822917" stop-color="#6B68A7"/>
<stop offset="1" stop-color="#7A75AF"/>
</linearGradient>
<linearGradient id="paint29_linear_106_269" x1="179.086" y1="68.6772" x2="210.876" y2="68.6772" gradientUnits="userSpaceOnUse">
<stop stop-color="#5F559C"/>
<stop offset="1" stop-color="#9E99C5"/>
</linearGradient>
<linearGradient id="paint30_linear_106_269" x1="147.433" y1="104.245" x2="175.597" y2="104.245" gradientUnits="userSpaceOnUse">
<stop stop-color="#5F559C"/>
<stop offset="1" stop-color="#9E99C5"/>
</linearGradient>
<linearGradient id="paint31_linear_106_269" x1="159.157" y1="130.182" x2="253.98" y2="130.182" gradientUnits="userSpaceOnUse">
<stop stop-color="#807DB4"/>
<stop offset="1" stop-color="#B1B1D4"/>
</linearGradient>
</defs>
</svg>
