<svg width="24" height="25" viewBox="0 0 24 25" fill="none" xmlns="http://www.w3.org/2000/svg">
<circle cx="12" cy="12.5371" r="3" stroke="#A9383D" stroke-width="1.5"/>
<path d="M13.7658 2.68935C13.3983 2.53711 12.9324 2.53711 12.0005 2.53711C11.0686 2.53711 10.6027 2.53711 10.2351 2.68935C9.74505 2.89234 9.35571 3.28169 9.15272 3.77174C9.06005 3.99545 9.02379 4.25561 9.0096 4.6351C8.98875 5.19279 8.70274 5.709 8.21943 5.98804C7.73612 6.26707 7.14608 6.25665 6.65268 5.99587C6.31693 5.81841 6.07349 5.71973 5.83342 5.68813C5.30753 5.61889 4.77567 5.7614 4.35485 6.08431C4.03923 6.32649 3.80626 6.73001 3.34032 7.53704C2.87438 8.34407 2.64141 8.74759 2.58948 9.14201C2.52025 9.66791 2.66276 10.1998 2.98566 10.6206C3.13305 10.8127 3.34019 10.9741 3.66167 11.1761C4.13429 11.4731 4.43838 11.979 4.43835 12.5371C4.43832 13.0952 4.13424 13.601 3.66167 13.898C3.34013 14.1 3.13297 14.2615 2.98557 14.4536C2.66266 14.8744 2.52015 15.4062 2.58938 15.9321C2.64131 16.3266 2.87428 16.7301 3.34022 17.5371C3.80616 18.3441 4.03913 18.7477 4.35475 18.9898C4.77557 19.3127 5.30743 19.4553 5.83333 19.386C6.07338 19.3544 6.31681 19.2557 6.65253 19.0783C7.14596 18.8175 7.73605 18.8071 8.21939 19.0861C8.70273 19.3652 8.98874 19.8814 9.0096 20.4392C9.0238 20.8186 9.06006 21.0788 9.15272 21.3025C9.35571 21.7925 9.74505 22.1819 10.2351 22.3849C10.6027 22.5371 11.0686 22.5371 12.0005 22.5371C12.9324 22.5371 13.3983 22.5371 13.7658 22.3849C14.2559 22.1819 14.6452 21.7925 14.8482 21.3025C14.9409 21.0788 14.9772 20.8186 14.9914 20.4391C15.0122 19.8814 15.2982 19.3652 15.7815 19.0861C16.2648 18.807 16.8549 18.8175 17.3484 19.0783C17.6841 19.2557 17.9275 19.3543 18.1675 19.386C18.6934 19.4552 19.2253 19.3127 19.6461 18.9898C19.9617 18.7476 20.1947 18.3441 20.6606 17.537C21.1266 16.73 21.3595 16.3265 21.4115 15.9321C21.4807 15.4062 21.3382 14.8743 21.0153 14.4535C20.8679 14.2614 20.6607 14.0999 20.3392 13.8979C19.8666 13.601 19.5626 13.0951 19.5626 12.537C19.5626 11.979 19.8667 11.4732 20.3392 11.1763C20.6608 10.9743 20.868 10.8128 21.0154 10.6207C21.3383 10.1998 21.4808 9.66798 21.4116 9.14208C21.3596 8.74766 21.1267 8.34414 20.6607 7.53711C20.1948 6.73007 19.9618 6.32656 19.6462 6.08438C19.2254 5.76147 18.6935 5.61896 18.1676 5.68819C17.9276 5.7198 17.6841 5.81847 17.3484 5.99591C16.855 6.2567 16.2649 6.26713 15.7816 5.98807C15.2982 5.70901 15.0122 5.19277 14.9914 4.63505C14.9772 4.25559 14.9409 3.99544 14.8482 3.77174C14.6452 3.28169 14.2559 2.89234 13.7658 2.68935Z" stroke="#A9383D" stroke-width="1.5"/>
</svg>
