<svg width="24" height="25" viewBox="0 0 24 25" fill="none" xmlns="http://www.w3.org/2000/svg">
<path d="M4.91602 11.7031V14.2031C4.91602 17.3458 4.91602 18.9172 5.89233 19.8935C6.86864 20.8698 8.43999 20.8698 11.5827 20.8698H12.416C15.5587 20.8698 17.1301 20.8698 18.1064 19.8935C19.0827 18.9172 19.0827 17.3458 19.0827 14.2031V11.7031" stroke="#A9383D" stroke-width="1.5"/>
<path d="M9.91585 4.20312H14.0825L14.6256 9.63427C14.781 11.1881 13.5608 12.5365 11.9992 12.5365C10.4376 12.5365 9.21735 11.1881 9.37273 9.63427L9.91585 4.20312Z" stroke="#A9383D" stroke-width="1.5"/>
<path d="M4.7752 6.9959C4.9236 6.2539 4.9978 5.8829 5.14867 5.58216C5.46656 4.94845 6.03856 4.47952 6.72231 4.29208C7.0468 4.20312 7.42514 4.20312 8.18183 4.20312H9.91709L9.31332 10.2408C9.183 11.544 8.08639 12.5365 6.7767 12.5365C5.16799 12.5365 3.96144 11.0647 4.27693 9.48724L4.7752 6.9959Z" stroke="#A9383D" stroke-width="1.5"/>
<path d="M19.2259 6.9959C19.0775 6.2539 19.0033 5.8829 18.8524 5.58216C18.5345 4.94845 17.9625 4.47952 17.2788 4.29208C16.9543 4.20312 16.5759 4.20312 15.8192 4.20312H14.084L14.6878 10.2408C14.8181 11.544 15.9147 12.5365 17.2244 12.5365C18.8331 12.5365 20.0396 11.0647 19.7241 9.48724L19.2259 6.9959Z" stroke="#A9383D" stroke-width="1.5"/>
<path d="M9.91602 20.4544V17.9544C9.91602 17.1756 9.91602 16.7862 10.0835 16.4961C10.1932 16.3061 10.351 16.1483 10.541 16.0386C10.8311 15.8711 11.2205 15.8711 11.9993 15.8711C12.7782 15.8711 13.1676 15.8711 13.4577 16.0386C13.6477 16.1483 13.8055 16.3061 13.9152 16.4961C14.0827 16.7862 14.0827 17.1756 14.0827 17.9544V20.4544" stroke="#A9383D" stroke-width="1.5" stroke-linecap="round"/>
</svg>
