<svg width="20" height="20" viewBox="0 0 20 20" fill="none" xmlns="http://www.w3.org/2000/svg">
<g clip-path="url(#clip0_1722_90552)">
<path d="M16.6116 9.46829C16.4221 9.46829 16.2404 9.39304 16.1065 9.25908C15.9725 9.12513 15.8973 8.94345 15.8973 8.75401V6.73686C15.8973 3.87972 13.2573 1.59401 10.0116 1.59401C6.76584 1.59401 4.12584 3.90829 4.12584 6.73686V8.75401C4.12584 8.94345 4.05058 9.12513 3.91663 9.25908C3.78267 9.39304 3.60099 9.46829 3.41155 9.46829C3.22211 9.46829 3.04043 9.39304 2.90648 9.25908C2.77252 9.12513 2.69727 8.94345 2.69727 8.75401V6.73686C2.69727 3.10258 5.98298 0.142578 10.0116 0.142578C14.0401 0.142578 17.3258 3.10258 17.3258 6.73686V8.75401C17.3266 8.84802 17.3086 8.94125 17.273 9.02825C17.2374 9.11526 17.1848 9.1943 17.1183 9.26078C17.0518 9.32726 16.9728 9.37985 16.8858 9.41547C16.7988 9.4511 16.7056 9.46905 16.6116 9.46829V9.46829Z" fill="#BDBCBC"/>
<path d="M14.6801 16.1886C14.4907 16.1886 14.309 16.1133 14.1751 15.9794C14.0411 15.8454 13.9658 15.6637 13.9658 15.4743V8.69143C13.9718 8.50598 14.0497 8.33011 14.183 8.20106C14.3163 8.07201 14.4946 7.99991 14.6801 8C17.143 8 19.1487 9.84571 19.1487 12.1086C19.1487 14.3714 17.143 16.1886 14.6801 16.1886ZM15.3944 9.48V14.6857C16.0198 14.5822 16.5909 14.2678 17.0129 13.7949C17.435 13.3219 17.6825 12.7188 17.7144 12.0857C17.6838 11.4516 17.4368 10.8472 17.0147 10.3731C16.5925 9.89895 16.0207 9.58376 15.3944 9.48ZM5.32013 16.1886C2.85728 16.1886 0.851562 14.3486 0.851562 12.0857C0.851562 9.82286 2.85728 8 5.32013 8C5.50957 8 5.69126 8.07525 5.82521 8.20921C5.95916 8.34316 6.03442 8.52485 6.03442 8.71429V15.4743C6.03442 15.6637 5.95916 15.8454 5.82521 15.9794C5.69126 16.1133 5.50957 16.1886 5.32013 16.1886V16.1886ZM4.60585 9.48C3.97957 9.58376 3.40773 9.89895 2.9856 10.3731C2.56346 10.8472 2.3165 11.4516 2.28585 12.0857C2.31777 12.7188 2.5653 13.3219 2.98733 13.7949C3.40936 14.2678 3.98048 14.5822 4.60585 14.6857V9.48Z" fill="#BDBCBC"/>
<path d="M14.4452 18.5135H12.0795C11.8901 18.5135 11.7084 18.4383 11.5744 18.3043C11.4405 18.1704 11.3652 17.9887 11.3652 17.7993C11.3652 17.6098 11.4405 17.4281 11.5744 17.2942C11.7084 17.1602 11.8901 17.085 12.0795 17.085H14.4452C14.815 17.085 15.1697 16.9381 15.4311 16.6766C15.6926 16.4151 15.8395 16.0605 15.8395 15.6907V15.3764C15.8395 15.187 15.9148 15.0053 16.0487 14.8713C16.1827 14.7374 16.3644 14.6621 16.5538 14.6621C16.7432 14.6621 16.9249 14.7374 17.0589 14.8713C17.1928 15.0053 17.2681 15.187 17.2681 15.3764V15.6907C17.2681 16.4393 16.9707 17.1574 16.4413 17.6867C15.9119 18.2161 15.1939 18.5135 14.4452 18.5135V18.5135Z" fill="#BDBCBC"/>
<path d="M10.8579 19.8579H9.44647C8.92816 19.8579 8.43108 19.652 8.06458 19.2855C7.69808 18.919 7.49219 18.4219 7.49219 17.9036V17.8236C7.4937 17.3063 7.70027 16.8106 8.0666 16.4454C8.43294 16.0801 8.92915 15.875 9.44647 15.875H10.8579C11.3747 15.875 11.8703 16.0803 12.2357 16.4457C12.6012 16.8112 12.8065 17.3068 12.8065 17.8236V17.9036C12.8065 18.4209 12.6014 18.9171 12.2361 19.2834C11.8708 19.6498 11.3752 19.8563 10.8579 19.8579ZM9.4579 17.3036C9.31946 17.3036 9.1866 17.3582 9.08817 17.4555C8.98974 17.5529 8.93369 17.6851 8.93219 17.8236V17.9036C8.93219 18.043 8.98758 18.1767 9.08617 18.2753C9.18476 18.3739 9.31847 18.4293 9.4579 18.4293H10.8579C10.9963 18.4278 11.1286 18.3717 11.2259 18.2733C11.3233 18.1749 11.3779 18.042 11.3779 17.9036V17.8236C11.3779 17.6857 11.3231 17.5534 11.2256 17.4559C11.1281 17.3584 10.9958 17.3036 10.8579 17.3036H9.4579Z" fill="#BDBCBC"/>
</g>
<defs>
<clipPath id="clip0_1722_90552">
<rect width="20" height="20" fill="white"/>
</clipPath>
</defs>
</svg>
