<svg width="16" height="17" viewBox="0 0 16 17" fill="none" xmlns="http://www.w3.org/2000/svg">
<path d="M6.88427 16.5371C6.3905 16.5371 5.93472 16.3471 5.59288 16.005L0.541246 10.9504C-0.180415 10.2283 -0.180415 9.08818 0.541246 8.36609L7.30208 1.60124C7.90979 0.993166 9.01128 0.537109 9.84688 0.537109H14.1769C15.1644 0.537109 16 1.37321 16 2.36134V6.69388C16 7.52998 15.5442 8.63212 14.9365 9.2402L8.17567 16.005C7.83383 16.3471 7.37804 16.5371 6.88427 16.5371ZM9.84688 1.67725C9.31513 1.67725 8.47953 2.01929 8.0997 2.39934L1.33887 9.16419C1.073 9.43022 1.073 9.84827 1.33887 10.1143L6.3905 15.1689C6.65638 15.435 7.11217 15.435 7.34006 15.1689L14.1009 8.40409C14.4807 8.02405 14.8226 7.22595 14.8226 6.65587V2.32333C14.8226 1.94329 14.5187 1.63925 14.1389 1.63925H9.84688V1.67725V1.67725Z" fill="#1A2A0A"/>
<path d="M11.4324 7.34003C10.2169 7.34003 9.19141 6.35191 9.19141 5.09775C9.19141 3.8816 10.1789 2.85547 11.4324 2.85547C12.6478 2.85547 13.6733 3.84359 13.6733 5.09775C13.6733 6.3139 12.6858 7.34003 11.4324 7.34003ZM11.4324 3.9196C10.7867 3.9196 10.2549 4.45167 10.2549 5.09775C10.2549 5.74383 10.7867 6.2759 11.4324 6.2759C12.0781 6.2759 12.6098 5.74383 12.6098 5.09775C12.6098 4.45167 12.0781 3.9196 11.4324 3.9196Z" fill="#1A2A0A"/>
</svg>
