<svg width="15" height="15" viewBox="0 0 15 15" fill="none" xmlns="http://www.w3.org/2000/svg">
<path d="M7.5 13.125C6.38748 13.125 5.29995 12.7951 4.37492 12.177C3.44989 11.5589 2.72892 10.6804 2.30318 9.6526C1.87744 8.62476 1.76604 7.49376 1.98309 6.40262C2.20013 5.31148 2.73586 4.3092 3.52253 3.52253C4.3092 2.73586 5.31148 2.20013 6.40262 1.98309C7.49376 1.76604 8.62476 1.87744 9.6526 2.30318C10.6804 2.72892 11.5589 3.44989 12.177 4.37492C12.7951 5.29995 13.125 6.38748 13.125 7.5C13.125 8.99184 12.5324 10.4226 11.4775 11.4775C10.4226 12.5324 8.99184 13.125 7.5 13.125ZM7.5 2.8125C6.5729 2.8125 5.66662 3.08742 4.89577 3.60249C4.12491 4.11756 3.5241 4.84965 3.16932 5.70617C2.81453 6.5627 2.7217 7.5052 2.90257 8.41449C3.08344 9.32377 3.52988 10.159 4.18544 10.8146C4.841 11.4701 5.67623 11.9166 6.58552 12.0974C7.4948 12.2783 8.4373 12.1855 9.29383 11.8307C10.1504 11.4759 10.8824 10.8751 11.3975 10.1042C11.9126 9.33338 12.1875 8.4271 12.1875 7.5C12.1875 6.2568 11.6936 5.06452 10.8146 4.18544C9.93549 3.30636 8.7432 2.8125 7.5 2.8125V2.8125Z" fill="white"/>
<path d="M9.84375 7.96875H7.5C7.37568 7.96875 7.25645 7.91936 7.16854 7.83146C7.08064 7.74355 7.03125 7.62432 7.03125 7.5V4.21875C7.03125 4.09443 7.08064 3.9752 7.16854 3.88729C7.25645 3.79939 7.37568 3.75 7.5 3.75C7.62432 3.75 7.74355 3.79939 7.83146 3.88729C7.91936 3.9752 7.96875 4.09443 7.96875 4.21875V7.03125H9.84375C9.96807 7.03125 10.0873 7.08064 10.1752 7.16854C10.2631 7.25645 10.3125 7.37568 10.3125 7.5C10.3125 7.62432 10.2631 7.74355 10.1752 7.83146C10.0873 7.91936 9.96807 7.96875 9.84375 7.96875Z" fill="white"/>
</svg>
