<svg width="20" height="20" viewBox="0 0 20 20" fill="none" xmlns="http://www.w3.org/2000/svg">
<g opacity="0.8" clip-path="url(#clip0_1722_90533)">
<path d="M6.55651e-07 9.99975C6.55651e-07 14.6737 3.78261 18.478 8.43478 18.478C10.1522 18.478 11.8043 17.9563 13.2174 16.9997C13.6087 16.7171 13.7174 16.1954 13.4348 15.7824C13.1522 15.391 12.6304 15.2824 12.2174 15.565C11.1087 16.3258 9.78261 16.7389 8.43478 16.7389C4.73913 16.7389 1.73913 13.7171 1.73913 9.99975C1.73913 6.28235 4.73913 3.26061 8.43478 3.26061C12.0435 3.26061 15 6.15192 15.1304 9.76062L13.1087 7.71714C12.7609 7.36931 12.2174 7.36931 11.8696 7.71714C11.5217 8.06496 11.5217 8.60844 11.8696 8.95627L15.1957 12.2824C15.3696 12.4563 15.587 12.5432 15.8043 12.5432C16.0435 12.5432 16.2609 12.4563 16.413 12.2824L19.7391 8.93453C20.087 8.5867 20.087 8.04322 19.7391 7.6954C19.3913 7.34757 18.8478 7.34757 18.5 7.6954L16.8478 9.36931C16.5435 4.99974 12.8913 1.52148 8.43478 1.52148C3.78261 1.52148 6.55651e-07 5.32583 6.55651e-07 9.99975Z" fill="white"/>
</g>
<defs>
<clipPath id="clip0_1722_90533">
<rect width="20" height="20" fill="white" transform="matrix(-1 0 0 1 20 0)"/>
</clipPath>
</defs>
</svg>
