<svg width="20" height="20" viewBox="0 0 20 20" fill="none" xmlns="http://www.w3.org/2000/svg">
<g opacity="0.8" clip-path="url(#clip0_1722_90535)">
<path d="M20 9.99975C20 14.6737 16.2174 18.478 11.5652 18.478C9.84783 18.478 8.19565 17.9563 6.78261 16.9997C6.3913 16.7171 6.28261 16.1954 6.56522 15.7824C6.84783 15.391 7.36956 15.2824 7.78261 15.565C8.8913 16.3258 10.2174 16.7389 11.5652 16.7389C15.2609 16.7389 18.2609 13.7171 18.2609 9.99975C18.2609 6.28235 15.2609 3.26061 11.5652 3.26061C7.95652 3.26061 5 6.15192 4.86956 9.76062L6.8913 7.71714C7.23913 7.36931 7.78261 7.36931 8.13043 7.71714C8.47826 8.06496 8.47826 8.60844 8.13043 8.95627L4.80435 12.2824C4.63043 12.4563 4.41304 12.5432 4.19565 12.5432C3.95652 12.5432 3.73913 12.4563 3.58696 12.2824L0.26087 8.93453C-0.0869565 8.5867 -0.0869565 8.04322 0.26087 7.6954C0.608696 7.34757 1.15217 7.34757 1.5 7.6954L3.15217 9.36931C3.45652 4.99974 7.1087 1.52148 11.5652 1.52148C16.2174 1.52148 20 5.32583 20 9.99975Z" fill="white"/>
</g>
<defs>
<clipPath id="clip0_1722_90535">
<rect width="20" height="20" fill="white"/>
</clipPath>
</defs>
</svg>
