<svg width="38" height="39" viewBox="0 0 38 39" fill="none" xmlns="http://www.w3.org/2000/svg">
<path d="M23.2871 25.9073C23.3155 26.9316 22.7388 27.8771 21.8153 28.3246L21.7712 28.3467L4.71163 36.6322L3.55185 37.1964L3.74094 38.7753H3.73464L0.999055 38.0567L0.967539 38.0473C0.422314 37.8803 0 37.3823 0 36.752C0 36.7236 0 36.6921 0.00315159 36.6606C0.293098 31.9395 0.176489 21.8481 2.69461 17.6155C3.25245 16.6763 3.93949 16.0271 4.78727 15.7844C5.60669 15.5481 6.35361 15.5607 7.0249 15.7245L7.39994 15.8285L7.4157 15.8348L10.2679 16.6448C10.3026 16.6543 10.3404 16.6637 10.3782 16.6763L9.56509 17.2121C10.5169 18.1418 11.0306 19.1283 11.0306 19.1283C11.0716 18.6618 11.1283 18.2206 11.1945 17.8046C11.2323 17.5556 11.2796 17.3129 11.3268 17.0797C11.7302 15.1194 12.4078 13.7737 13.1169 12.8534C14.4658 11.1106 15.9376 10.8774 15.9376 10.8774C16.6404 10.7356 17.2707 10.7545 17.8475 10.9089L21.0117 11.8134L19.7321 12.0498C21.5475 13.8935 22.4425 17.4548 22.8837 20.7041C23.1579 22.7179 23.2525 24.6152 23.2871 25.9073V25.9073Z" fill="url(#paint0_linear_1722_89730)"/>
<path style="mix-blend-mode:overlay" d="M6.26222 18.9168L4.71163 36.632L4.50363 38.9988C4.22944 39.0051 3.96471 38.9232 3.74094 38.775H3.73464L0.999055 38.0565L0.967539 38.047C0.422314 37.88 0 37.382 0 36.7517C0 36.7234 0 36.6918 0.00315159 36.6603C0.293098 31.9392 0.176489 21.8478 2.69461 17.6152L5.70123 18.712L6.26222 18.9168V18.9168Z" fill="url(#paint1_linear_1722_89730)"/>
<path style="mix-blend-mode:overlay" d="M16.7636 13.8652L14.4566 23.0143L11.6454 19.5822L11.1947 17.8047L10.9678 16.9033C11.0907 16.9537 11.2104 17.0168 11.3271 17.0798C11.7305 15.1195 12.4081 13.7738 13.1172 12.8535L16.2593 13.7265L16.7636 13.8652V13.8652Z" fill="url(#paint2_linear_1722_89730)"/>
<path d="M26.4101 26.799C26.4322 27.6405 26.0477 28.4284 25.3985 28.9295C25.2567 29.0398 25.1022 29.1343 24.9383 29.2163L21.7048 30.7858L18.1467 32.516L5.0833 38.8601C4.89105 38.9515 4.69565 38.9957 4.5034 38.9988C4.22922 39.0051 3.96448 38.9232 3.74072 38.7751H3.73442C3.34992 38.5198 3.09149 38.0786 3.12616 37.5522C3.4098 32.9036 3.2995 23.0612 5.70101 18.712C6.27775 17.6657 6.99947 16.9345 7.91028 16.6761C8.77381 16.4271 9.56171 16.4555 10.2677 16.6446C10.3023 16.654 10.3402 16.6635 10.378 16.6761C10.5828 16.736 10.7782 16.8116 10.9673 16.903C11.0902 16.9534 11.21 17.0164 11.3266 17.0795C13.1388 18.0785 14.1536 20.0199 14.1536 20.0199C14.4309 16.8904 15.3165 14.9364 16.2589 13.7262C17.6014 11.9991 19.0606 11.769 19.0606 11.769C19.7792 11.6241 20.4284 11.6493 21.0115 11.8132C21.7962 12.0338 22.4738 12.5002 23.0474 13.1494C23.829 14.0256 24.4309 15.2326 24.8942 16.5847C25.5655 18.5418 25.9437 20.811 26.158 22.8374V22.8437C26.3187 24.3786 26.3849 25.7779 26.4101 26.799Z" fill="url(#paint3_linear_1722_89730)"/>
<path d="M4.0344 13.2061C3.89257 13.1903 3.75706 13.1682 3.61523 13.1367L4.0344 13.2061Z" fill="url(#paint4_linear_1722_89730)"/>
<path d="M8.96667 10.4749C8.66097 11.8647 7.89198 12.9993 6.93074 13.6643C6.61873 13.8786 6.28781 14.0456 5.94429 14.1559L6.27521 14.5593L4.66474 14.2914L4.64583 14.2851L4.34328 14.2379C2.34517 13.7966 1.17593 11.3951 1.73061 8.877C1.87558 8.22777 2.12141 7.63212 2.43657 7.11526C3.29065 5.72541 4.67735 4.89969 6.06405 5.06357L6.35715 5.114H6.3603L8.28908 5.43546L7.70603 5.80105C8.83745 6.78434 9.38268 8.59651 8.96667 10.4749V10.4749Z" fill="url(#paint5_linear_1722_89730)"/>
<path style="mix-blend-mode:overlay" d="M5.94429 14.1578L6.27521 14.5613L4.66474 14.2934L4.64583 14.2871L4.34328 14.2398C2.34517 13.7986 1.17593 11.3971 1.73061 8.87893C1.87558 8.2297 2.12141 7.63405 2.43657 7.11719L5.53143 7.71914L6.93074 13.6662C6.61873 13.8805 6.28782 14.0475 5.94429 14.1578V14.1578Z" fill="url(#paint6_linear_1722_89730)"/>
<path d="M10.9014 10.7931C11.4575 8.27421 10.288 5.87452 8.28924 5.43323C6.29046 4.99194 4.2193 6.67615 3.66319 9.19503C3.10707 11.7139 4.27659 14.1136 6.27537 14.5549C8.27416 14.9962 10.3453 13.312 10.9014 10.7931Z" fill="url(#paint7_linear_1722_89730)"/>
<path d="M18.4217 5.43189C18.116 6.82174 17.3471 7.95632 16.3858 8.6213C16.0738 8.83561 15.7429 9.00265 15.3994 9.11295L15.7303 9.51636L14.1198 9.24847L14.1009 9.24217L13.7984 9.19489C11.8002 8.75367 10.631 6.35216 11.1857 3.83403C11.3307 3.1848 11.5765 2.58915 11.8916 2.07229C12.7457 0.682438 14.1324 -0.14328 15.5191 0.0206031L15.8122 0.0710286H15.8154L17.7442 0.392491L17.1611 0.758076C18.2925 1.74137 18.8378 3.55354 18.4217 5.43189V5.43189Z" fill="url(#paint8_linear_1722_89730)"/>
<path style="mix-blend-mode:overlay" d="M15.3994 9.11293L15.7303 9.51633L14.1198 9.24845L14.1009 9.24214L13.7984 9.19487C11.8002 8.75365 10.631 6.35213 11.1857 3.83401C11.3307 3.18478 11.5765 2.58913 11.8916 2.07227L14.9865 2.67422L16.3858 8.62128C16.0738 8.83559 15.7429 9.00262 15.3994 9.11293V9.11293Z" fill="url(#paint9_linear_1722_89730)"/>
<path d="M20.3577 5.75408C20.1875 6.52622 19.8723 7.21957 19.4658 7.79631C18.5392 9.10423 17.1178 9.82279 15.7311 9.51708C13.733 9.07586 12.5638 6.67435 13.1216 4.15622C13.2603 3.5259 13.4935 2.94916 13.7992 2.44491C14.6438 1.03614 16.0305 0.188364 17.4235 0.33964L17.745 0.393217C18.4635 0.550797 19.075 0.963656 19.5382 1.54355C20.3608 2.57412 20.7138 4.14046 20.3577 5.75408Z" fill="url(#paint10_linear_1722_89730)"/>
<path d="M16.9709 7.62793C16.8291 7.61217 16.6936 7.59011 16.5518 7.55859L16.9709 7.62793Z" fill="url(#paint11_linear_1722_89730)"/>
<path d="M32.8628 8.63656C32.6012 9.81525 32.056 10.8332 31.3469 11.5991C30.7701 12.2199 30.0894 12.6737 29.3614 12.9038L29.7427 13.3703L27.877 13.0582H27.8549L27.5051 12.9984C25.1855 12.4878 23.8335 9.70495 24.4764 6.78342C24.6781 5.86946 25.0531 5.05004 25.5448 4.37245C26.5407 2.9889 28.0188 2.19155 29.5 2.36804L29.8373 2.42161H29.8404L31.7912 2.74938L32.078 2.79665L31.4004 3.21897C32.7147 4.35984 33.345 6.45881 32.8628 8.63656V8.63656Z" fill="url(#paint12_linear_1722_89730)"/>
<path style="mix-blend-mode:overlay" d="M31.8732 13.1755C31.1924 13.4496 30.4644 13.5284 29.7427 13.3708L27.877 13.0588H27.8549L27.5051 12.999C25.1855 12.4884 23.8335 9.70554 24.4764 6.78402C24.6781 5.87005 25.0531 5.05064 25.5448 4.37305L27.6532 4.93403L29.27 5.3658L31.3469 11.5997L31.8732 13.1755Z" fill="url(#paint13_linear_1722_89730)"/>
<path d="M35.103 9.00772C34.6618 11.0216 33.3823 12.5753 31.8727 13.1741C31.1919 13.4483 30.4639 13.5271 29.7422 13.3695C27.4258 12.859 26.0737 10.0761 26.7166 7.15773C26.8994 6.32571 27.2272 5.57248 27.6527 4.93271C28.6612 3.41679 30.2275 2.53434 31.7907 2.74865L32.0775 2.79592C34.3939 3.30648 35.7491 6.08934 35.103 9.00772V9.00772Z" fill="url(#paint14_linear_1722_89730)"/>
<path opacity="0.16" d="M26.4099 26.7999C26.432 27.6414 26.0475 28.4293 25.3983 28.9304C25.2565 29.0407 25.102 29.1353 24.9382 29.2172L21.7046 30.7867L18.1465 32.5169C17.8849 26.6077 18.074 15.3628 23.0472 13.1504C23.8288 14.0265 24.4307 15.2336 24.894 16.5856C25.5653 18.5428 25.9435 20.8119 26.1578 22.8384V22.8447C26.3186 24.3795 26.3847 25.7788 26.4099 26.7999V26.7999Z" fill="black"/>
<path opacity="0.16" d="M20.356 5.7535C20.1858 6.52564 19.8707 7.21899 19.4641 7.79573C18.7455 6.62019 18.4745 5.01918 18.8369 3.3772C18.9851 2.70906 19.2246 2.09135 19.5366 1.54297C20.3592 2.57354 20.7121 4.13988 20.356 5.7535Z" fill="black"/>
<path d="M34.2166 30.5175C34.204 31.2707 33.7848 31.9578 33.123 32.3107L29.7791 34.0914L26.0981 36.0485L26.8229 37.6338L23.6556 36.9593C23.1734 36.9121 22.7227 36.6915 22.3855 36.3511C22.0451 36.0076 21.8245 35.5443 21.7961 35.0054C21.5629 30.341 21.5629 21.775 24.2575 17.4573C25.0643 16.1714 26.1075 15.2606 27.4564 14.9455C28.0962 14.7942 28.6761 14.7847 29.1992 14.8919L29.3978 14.936L32.5462 15.6262L31.6638 16.6379C34.1315 20.1015 34.267 27.5739 34.2166 30.5175Z" fill="url(#paint15_linear_1722_89730)"/>
<path style="mix-blend-mode:overlay" d="M26.0981 36.0483L26.8229 37.6335L23.6556 36.9591C23.1734 36.9118 22.7227 36.6912 22.3855 36.3508C22.0451 36.0073 21.8245 35.544 21.7961 35.0051C21.5629 30.3407 21.5629 21.7747 24.2575 17.457L29.5301 18.4435L29.7791 34.0911L26.0981 36.0483Z" fill="url(#paint16_linear_1722_89730)"/>
<path d="M28.4466 37.4999L36.7416 33.0876C37.4066 32.7346 37.8258 32.0476 37.8384 31.2944C37.9077 27.1721 37.6146 14.197 31.0782 15.7192C25.2068 17.0901 25.1123 29.7217 25.4148 35.7791C25.4905 37.2919 27.1104 38.209 28.4466 37.4999V37.4999Z" fill="url(#paint17_linear_1722_89730)"/>
<defs>
<linearGradient id="paint0_linear_1722_89730" x1="0" y1="24.7759" x2="23.2871" y2="24.7759" gradientUnits="userSpaceOnUse">
<stop stop-color="#888BCB"/>
<stop offset="1" stop-color="#383DA9"/>
</linearGradient>
<linearGradient id="paint1_linear_1722_89730" x1="0" y1="28.3054" x2="6.26222" y2="28.3054" gradientUnits="userSpaceOnUse">
<stop stop-color="#6B5656"/>
<stop offset="1" stop-color="#353133"/>
</linearGradient>
<linearGradient id="paint2_linear_1722_89730" x1="10.9678" y1="17.9339" x2="16.7636" y2="17.9339" gradientUnits="userSpaceOnUse">
<stop stop-color="#6B5656"/>
<stop offset="1" stop-color="#353133"/>
</linearGradient>
<linearGradient id="paint3_linear_1722_89730" x1="3.12301" y1="25.3335" x2="26.4101" y2="25.3335" gradientUnits="userSpaceOnUse">
<stop stop-color="#EBECF6"/>
<stop offset="1" stop-color="#AEB2DC"/>
</linearGradient>
<linearGradient id="paint4_linear_1722_89730" x1="3.61523" y1="13.1714" x2="4.0344" y2="13.1714" gradientUnits="userSpaceOnUse">
<stop stop-color="#888BCB"/>
<stop offset="1" stop-color="#383DA9"/>
</linearGradient>
<linearGradient id="paint5_linear_1722_89730" x1="1.74322" y1="8.82342" x2="8.97928" y2="10.4244" gradientUnits="userSpaceOnUse">
<stop stop-color="#888BCB"/>
<stop offset="1" stop-color="#383DA9"/>
</linearGradient>
<linearGradient id="paint6_linear_1722_89730" x1="1.59194" y1="10.8392" x2="6.93074" y2="10.8392" gradientUnits="userSpaceOnUse">
<stop stop-color="#6B5656"/>
<stop offset="1" stop-color="#353133"/>
</linearGradient>
<linearGradient id="paint7_linear_1722_89730" x1="3.66558" y1="9.19879" x2="10.9007" y2="10.7962" gradientUnits="userSpaceOnUse">
<stop stop-color="#EBECF6"/>
<stop offset="1" stop-color="#AEB2DC"/>
</linearGradient>
<linearGradient id="paint8_linear_1722_89730" x1="11.1983" y1="3.78046" x2="18.4344" y2="5.38146" gradientUnits="userSpaceOnUse">
<stop stop-color="#888BCB"/>
<stop offset="1" stop-color="#383DA9"/>
</linearGradient>
<linearGradient id="paint9_linear_1722_89730" x1="11.047" y1="5.7943" x2="16.3858" y2="5.7943" gradientUnits="userSpaceOnUse">
<stop stop-color="#6B5656"/>
<stop offset="1" stop-color="#353133"/>
</linearGradient>
<linearGradient id="paint10_linear_1722_89730" x1="12.9829" y1="4.95357" x2="20.4963" y2="4.95357" gradientUnits="userSpaceOnUse">
<stop stop-color="#EBECF6"/>
<stop offset="1" stop-color="#AEB2DC"/>
</linearGradient>
<linearGradient id="paint11_linear_1722_89730" x1="16.5518" y1="7.59641" x2="16.9709" y2="7.59641" gradientUnits="userSpaceOnUse">
<stop stop-color="#888BCB"/>
<stop offset="1" stop-color="#383DA9"/>
</linearGradient>
<linearGradient id="paint12_linear_1722_89730" x1="24.489" y1="6.72354" x2="32.8754" y2="8.57668" gradientUnits="userSpaceOnUse">
<stop stop-color="#888BCB"/>
<stop offset="1" stop-color="#383DA9"/>
</linearGradient>
<linearGradient id="paint13_linear_1722_89730" x1="24.3157" y1="8.91134" x2="31.8732" y2="8.91134" gradientUnits="userSpaceOnUse">
<stop stop-color="#6B5656"/>
<stop offset="1" stop-color="#353133"/>
</linearGradient>
<linearGradient id="paint14_linear_1722_89730" x1="26.5559" y1="8.08115" x2="35.2638" y2="8.08115" gradientUnits="userSpaceOnUse">
<stop stop-color="#AEB2DC"/>
<stop offset="1" stop-color="#6064BA"/>
</linearGradient>
<linearGradient id="paint15_linear_1722_89730" x1="21.7016" y1="26.225" x2="34.2229" y2="26.225" gradientUnits="userSpaceOnUse">
<stop stop-color="#888BCB"/>
<stop offset="1" stop-color="#383DA9"/>
</linearGradient>
<linearGradient id="paint16_linear_1722_89730" x1="21.7016" y1="27.5453" x2="29.7791" y2="27.5453" gradientUnits="userSpaceOnUse">
<stop stop-color="#6B5656"/>
<stop offset="1" stop-color="#353133"/>
</linearGradient>
<linearGradient id="paint17_linear_1722_89730" x1="25.3203" y1="26.671" x2="37.8447" y2="26.671" gradientUnits="userSpaceOnUse">
<stop stop-color="#AEB2DC"/>
<stop offset="1" stop-color="#6064BA"/>
</linearGradient>
</defs>
</svg>
