<svg width="21" height="21" viewBox="0 0 21 21" fill="none" xmlns="http://www.w3.org/2000/svg">
<mask id="mask0_1722_90333" style="mask-type:alpha" maskUnits="userSpaceOnUse" x="0" y="0" width="21" height="21">
<rect x="0.111328" y="0.537109" width="20" height="20" fill="#D9D9D9"/>
</mask>
<g mask="url(#mask0_1722_90333)">
<path d="M2.50653 14.8491C2.35386 14.6964 2.28086 14.5334 2.28753 14.3601C2.29486 14.1861 2.36786 14.0298 2.50653 13.8911L7.40253 9.01611C7.48586 8.91878 7.57586 8.85278 7.67253 8.81811C7.76986 8.78344 7.86719 8.76611 7.96453 8.76611C8.06186 8.76611 8.15553 8.78344 8.24553 8.81811C8.33619 8.85278 8.43019 8.91878 8.52753 9.01611L11.2775 11.7661L15.9435 7.12011H14.2145C14.0339 7.12011 13.8775 7.05411 13.7455 6.92211C13.6142 6.79078 13.5485 6.63478 13.5485 6.45411C13.5485 6.27344 13.6142 6.11711 13.7455 5.98511C13.8775 5.85311 14.0339 5.78711 14.2145 5.78711H17.4025C17.6105 5.78711 17.7945 5.86711 17.9545 6.02711C18.1139 6.18644 18.1935 6.37044 18.1935 6.57911V9.76611C18.1935 9.94678 18.1275 10.1031 17.9955 10.2351C17.8642 10.3671 17.7082 10.4331 17.5275 10.4331C17.3469 10.4331 17.1905 10.3671 17.0585 10.2351C16.9265 10.1031 16.8605 9.94678 16.8605 9.76611V8.07911L11.8395 13.0991C11.7562 13.1831 11.6659 13.2458 11.5685 13.2871C11.4712 13.3284 11.3742 13.3491 11.2775 13.3491C11.1802 13.3491 11.0829 13.3284 10.9855 13.2871C10.8882 13.2458 10.7979 13.1831 10.7145 13.0991L7.96453 10.3491L3.42253 14.8701C3.28386 15.0094 3.12786 15.0721 2.95453 15.0581C2.78053 15.0441 2.63119 14.9744 2.50653 14.8491Z" fill="#7A7979"/>
</g>
</svg>
