<!-- <svg width="20" height="21" viewBox="0 0 20 21" fill="none" xmlns="http://www.w3.org/2000/svg">
<g clip-path="url(#clip0_1722_90284)">
<path d="M6.91707 18.7871C4.7504 18.7871 2.5004 18.2038 0.500403 17.0371C0.16707 16.8704 0.000402833 16.4538 0.0837362 16.1204C0.167069 15.7871 0.500403 15.5371 0.833736 15.5371C2.2504 15.6204 3.66707 15.2871 4.91707 14.7038C1.83374 12.7871 1.0004 10.1204 0.917069 8.03711C0.833736 5.62044 1.66707 3.62044 1.7504 3.53711C1.83374 3.28711 2.08374 3.03711 2.41707 3.03711C2.7504 3.03711 3.0004 3.12044 3.16707 3.37044C4.58374 5.37044 6.7504 6.62044 9.16707 6.78711C9.16707 5.45378 9.7504 4.20378 10.7504 3.28711C12.5004 1.78711 15.0837 1.78711 16.8337 3.28711C17.5004 3.03711 18.1671 2.70378 18.7504 2.28711C19.0004 2.12044 19.4171 2.12044 19.6671 2.28711C19.9171 2.45378 20.0837 2.87044 20.0004 3.20378C19.7504 4.37044 19.1671 5.45378 18.3337 6.37044C18.3337 6.53711 18.3337 6.62044 18.3337 6.78711C18.3337 11.3704 16.3337 15.2038 12.7504 17.2038C11.0004 18.2871 9.0004 18.7871 6.91707 18.7871ZM4.16707 16.7871C6.91707 17.4538 9.66707 17.1204 12.0004 15.7871C15.0004 14.0371 16.7504 10.7038 16.7504 6.78711C16.7504 6.62044 16.7504 6.45378 16.6671 6.28711C16.5837 6.03711 16.6671 5.70378 16.9171 5.53711C17.0837 5.37044 17.2504 5.12044 17.4171 4.95378C17.2504 5.03711 17.0004 5.12044 16.8337 5.12044C16.5004 5.20378 16.1671 5.12044 16.0004 4.87044C14.9171 3.70378 13.0837 3.53711 11.9171 4.62044C11.1671 5.12044 10.8337 5.95378 10.8337 6.78711V7.62044C10.8337 8.03711 10.5004 8.45378 10.0004 8.45378C7.2504 8.53711 4.66707 7.45378 2.83374 5.53711C2.33374 7.70378 2.16707 11.7871 7.0004 13.8704C7.2504 14.0371 7.5004 14.2871 7.5004 14.6204C7.5004 14.9538 7.41707 15.2038 7.16707 15.3704C6.16707 16.0371 5.16707 16.5371 4.16707 16.7871Z" fill="#081539"/>
</g>
<defs>
<clipPath id="clip0_1722_90284">
<rect width="20" height="20" fill="white" transform="translate(0 0.537109)"/>
</clipPath>
</defs>
</svg> -->
<svg width="22" height="23" xmlns="http://www.w3.org/2000/svg" viewBox="0 0 512 512">
<!--! Font Awesome Pro 6.4.0 by @fontawesome - https://fontawesome.com License - https://fontawesome.com/license (Commercial License) Copyright 2023 Fonticons, Inc. -->
<path d="M459.37 151.716c.325 4.548.325 9.097.325 13.645 0 138.72-105.583 298.558-298.558 298.558-59.452 0-114.68-17.219-161.137-47.106 8.447.974 16.568 1.299 25.34 1.299 49.055 0 94.213-16.568 130.274-44.832-46.132-.975-84.792-31.188-98.112-72.772 6.498.974 12.995 1.624 19.818 1.624 9.421 0 18.843-1.3 27.614-3.573-48.081-9.747-84.143-51.98-84.143-102.985v-1.299c13.969 7.797 30.214 12.67 47.431 13.319-28.264-18.843-46.781-51.005-46.781-87.391 0-19.492 5.197-37.36 14.294-52.954 51.655 63.675 129.3 105.258 216.365 109.807-1.624-7.797-2.599-15.918-2.599-24.04 0-57.828 46.782-104.934 104.934-104.934 30.213 0 57.502 12.67 76.67 33.137 23.715-4.548 46.456-13.32 66.599-25.34-7.798 24.366-24.366 44.833-46.132 57.827 21.117-2.273 41.584-8.122 60.426-16.243-14.292 20.791-32.161 39.308-52.628 54.253z"/>
</svg>