<svg width="22" height="24" viewBox="0 0 22 24" fill="none" xmlns="http://www.w3.org/2000/svg">
<path d="M19.7386 7.51903C19.7525 7.71445 19.7525 7.90992 19.7525 8.10534C19.7525 14.066 15.2157 20.934 6.92386 20.934C4.36928 20.934 1.9962 20.1941 0 18.9099C0.362957 18.9518 0.711906 18.9657 1.08883 18.9657C3.19666 18.9657 5.13704 18.2538 6.68654 17.0394C4.7043 16.9975 3.04313 15.6993 2.47079 13.9124C2.75 13.9543 3.02917 13.9822 3.32234 13.9822C3.72715 13.9822 4.132 13.9264 4.50888 13.8287C2.4429 13.4099 0.893363 11.5952 0.893363 9.40356V9.34774C1.49359 9.68277 2.19162 9.89215 2.93141 9.92004C1.71695 9.11038 0.921293 7.72842 0.921293 6.16496C0.921293 5.32741 1.1446 4.55965 1.53549 3.88959C3.75504 6.62563 7.09135 8.4124 10.8324 8.60786C10.7626 8.27283 10.7207 7.92388 10.7207 7.57489C10.7207 5.0901 12.7309 3.06601 15.2296 3.06601C16.5278 3.06601 17.7004 3.61042 18.524 4.48987C19.543 4.29444 20.5202 3.91752 21.3857 3.40104C21.0506 4.44801 20.3387 5.32745 19.4035 5.88579C20.3109 5.78812 21.1903 5.5368 21.9999 5.18785C21.3858 6.08121 20.618 6.87687 19.7386 7.51903Z" fill="white"/>
</svg>
