<svg width="20" height="21" viewBox="0 0 20 21" fill="none" xmlns="http://www.w3.org/2000/svg">
<g clip-path="url(#clip0_1722_90284)">
<path d="M6.91707 18.7871C4.7504 18.7871 2.5004 18.2038 0.500403 17.0371C0.16707 16.8704 0.000402833 16.4538 0.0837362 16.1204C0.167069 15.7871 0.500403 15.5371 0.833736 15.5371C2.2504 15.6204 3.66707 15.2871 4.91707 14.7038C1.83374 12.7871 1.0004 10.1204 0.917069 8.03711C0.833736 5.62044 1.66707 3.62044 1.7504 3.53711C1.83374 3.28711 2.08374 3.03711 2.41707 3.03711C2.7504 3.03711 3.0004 3.12044 3.16707 3.37044C4.58374 5.37044 6.7504 6.62044 9.16707 6.78711C9.16707 5.45378 9.7504 4.20378 10.7504 3.28711C12.5004 1.78711 15.0837 1.78711 16.8337 3.28711C17.5004 3.03711 18.1671 2.70378 18.7504 2.28711C19.0004 2.12044 19.4171 2.12044 19.6671 2.28711C19.9171 2.45378 20.0837 2.87044 20.0004 3.20378C19.7504 4.37044 19.1671 5.45378 18.3337 6.37044C18.3337 6.53711 18.3337 6.62044 18.3337 6.78711C18.3337 11.3704 16.3337 15.2038 12.7504 17.2038C11.0004 18.2871 9.0004 18.7871 6.91707 18.7871ZM4.16707 16.7871C6.91707 17.4538 9.66707 17.1204 12.0004 15.7871C15.0004 14.0371 16.7504 10.7038 16.7504 6.78711C16.7504 6.62044 16.7504 6.45378 16.6671 6.28711C16.5837 6.03711 16.6671 5.70378 16.9171 5.53711C17.0837 5.37044 17.2504 5.12044 17.4171 4.95378C17.2504 5.03711 17.0004 5.12044 16.8337 5.12044C16.5004 5.20378 16.1671 5.12044 16.0004 4.87044C14.9171 3.70378 13.0837 3.53711 11.9171 4.62044C11.1671 5.12044 10.8337 5.95378 10.8337 6.78711V7.62044C10.8337 8.03711 10.5004 8.45378 10.0004 8.45378C7.2504 8.53711 4.66707 7.45378 2.83374 5.53711C2.33374 7.70378 2.16707 11.7871 7.0004 13.8704C7.2504 14.0371 7.5004 14.2871 7.5004 14.6204C7.5004 14.9538 7.41707 15.2038 7.16707 15.3704C6.16707 16.0371 5.16707 16.5371 4.16707 16.7871Z" fill="#081539"/>
</g>
<defs>
<clipPath id="clip0_1722_90284">
<rect width="20" height="20" fill="white" transform="translate(0 0.537109)"/>
</clipPath>
</defs>
</svg>
