<svg width="50" height="50" viewBox="0 0 50 50" fill="none" xmlns="http://www.w3.org/2000/svg">
<mask id="mask0_257_56" style="mask-type:luminance" maskUnits="userSpaceOnUse" x="1" y="2" width="48" height="47">
<path d="M1 2H49V48.6667H1V2Z" fill="white"/>
</mask>
<g mask="url(#mask0_257_56)">
<path d="M1.32143 48.1238L19.8899 27.9532L1 2.21974C5.75992 2.21974 9.97718 2.1286 14.1855 2.3038C14.9345 2.3352 15.7738 3.37527 16.3403 4.12773C20.0942 9.11543 23.7837 14.1507 27.6984 19.4473C32.4871 14.2682 37.13 9.24405 41.7748 4.22394C43.8323 2.00302 43.8363 2.00707 47.2956 2.50736L29.5189 21.9478L49 48.4175C44.1736 48.4175 39.8899 48.4803 35.6151 48.3466C35.0119 48.3274 34.3333 47.4281 33.8661 46.8002C29.8611 41.4266 25.8968 36.0227 21.7113 30.3473C16.5833 35.9042 11.627 41.2778 6.66369 46.6483C4.79067 48.6758 4.78472 48.6717 1.32143 48.1238ZM7.40476 5.581C8.00099 6.48942 8.44941 7.25403 8.97222 7.96396C17.3819 19.3815 25.7986 30.796 34.2222 42.2064C36.874 45.8037 38.1131 46.2118 42.8264 44.9671C42.3383 44.2532 41.8978 43.5686 41.4167 42.9143C33.0565 31.5758 24.5139 20.3679 16.4306 8.82377C13.9504 5.28326 11.2302 4.92779 7.40476 5.581Z" fill="white"/>
</g>
</svg>
