<svg width="50" height="50" viewBox="0 0 50 50" fill="none" xmlns="http://www.w3.org/2000/svg">
<path d="M16.0611 45C34.1855 45 44.0955 29.6064 44.0955 16.267C44.0955 15.8271 44.0955 15.3872 44.076 14.9691C45.9952 13.5457 47.6714 11.7642 49 9.73368C47.2422 10.5299 45.3425 11.0734 43.3399 11.3243C45.3833 10.0682 46.9353 8.09944 47.6714 5.73441C45.7717 6.88511 43.6663 7.72314 41.4189 8.18306C39.6203 6.21614 37.0661 5 34.2263 5C28.7914 5 24.3765 9.52463 24.3765 15.0945C24.3765 15.8907 24.4581 16.6652 24.6426 17.3977C16.4495 16.9796 9.19482 12.9586 4.33114 6.8433C3.49392 8.3303 3.00259 10.0682 3.00259 11.9115C3.00259 15.409 4.74088 18.5085 7.39622 20.3099C5.78208 20.2663 4.27083 19.8064 2.94228 19.052C2.94228 19.0938 2.94228 19.1356 2.94228 19.1774C2.94228 24.0783 6.33373 28.1412 10.8497 29.0829C10.032 29.3138 9.15402 29.4392 8.25472 29.4392C7.62148 29.4392 7.00776 29.3774 6.39581 29.252C7.641 33.2712 11.279 36.1834 15.591 36.267C12.2191 38.9684 7.96914 40.5808 3.35025 40.5808C2.55382 40.5808 1.77691 40.539 1 40.4336C5.31204 43.3239 10.5021 45 16.0611 45Z" fill="#1B9DF0"/>
</svg>
