<svg width="19" height="19" viewBox="0 0 19 19" fill="none" xmlns="http://www.w3.org/2000/svg">
<path d="M13.455 5.12982C11.3247 3.0308 8.04795 2.79551 5.65845 4.40341L5.65176 3.48035C5.65063 3.32499 5.52373 3.19994 5.36831 3.20118L4.80587 3.20557C4.65056 3.20675 4.52569 3.33359 4.52681 3.48884L4.54234 5.594C4.54453 5.90326 4.79614 6.15211 5.10484 6.15211C5.10596 6.15211 5.10759 6.15211 5.10922 6.15211L7.21466 6.13659C7.37002 6.13546 7.49501 6.00851 7.49383 5.85314L7.48944 5.29059C7.48826 5.13528 7.36142 5.01041 7.20617 5.01153L6.84831 5.01412C8.73144 4.07407 11.0842 4.37337 12.6651 5.93071C14.1823 7.42629 14.5969 9.6746 13.7347 11.6025C13.6733 11.7397 13.7236 11.8996 13.8575 11.9681L14.3595 12.2246C14.5018 12.2973 14.6817 12.2387 14.7477 12.0933C15.8202 9.73062 15.3175 6.96588 13.455 5.12982ZM13.1193 12.923C13.1182 12.923 13.1166 12.923 13.1149 12.923L11.0095 12.9384C10.8541 12.9396 10.7292 13.0665 10.7303 13.2219L10.7347 13.7844C10.7359 13.9397 10.8628 14.0646 11.018 14.0635L11.3755 14.0609C9.49228 15.0007 7.13991 14.7012 5.55906 13.1443C4.04188 11.6487 3.62732 9.40038 4.48946 7.47258C4.55083 7.33533 4.50054 7.17541 4.36667 7.10696L3.86464 6.85046C3.72238 6.77778 3.54249 6.83634 3.47646 6.98174C2.40388 9.34436 2.90659 12.1091 4.76908 13.9452C5.97261 15.1312 7.5426 15.7223 9.11141 15.7223C10.3194 15.7223 11.5262 15.3706 12.5656 14.6709L12.5722 15.5946C12.5734 15.75 12.7003 15.875 12.8557 15.8739L13.4181 15.8695C13.5734 15.8682 13.6983 15.7414 13.6972 15.5861L13.6817 13.481C13.6796 13.1718 13.4281 12.923 13.1193 12.923Z" fill="#383536"/>
</svg>
