<svg width="30" height="35" viewBox="0 0 30 35" fill="none" xmlns="http://www.w3.org/2000/svg">
<path d="M13.3468 27.9363V28.0718C13.3468 28.213 13.3242 28.3485 13.2847 28.484C13.1435 29.026 12.7483 29.4947 12.178 29.76L9.84611 30.8554L6.70113 32.3347L4.69105 33.2777L5.45895 34.7683L2.08247 34.1359C1.56866 34.0907 1.08308 33.8818 0.727363 33.5656C0.371647 33.2438 0.128857 32.809 0.100625 32.2952C-0.130872 28.2186 -0.147811 20.9744 2.15023 16.7115C3.07057 15.0119 4.34663 13.7867 6.13086 13.4197C6.81406 13.2785 7.4295 13.2672 7.98848 13.3745L8.20304 13.414L11.5569 14.0577L10.614 15.0119C11.6529 16.2993 12.3079 18.1852 12.7144 20.1557C13.0588 21.8439 13.2226 23.5999 13.296 25.1075C13.3242 25.7004 13.3412 26.2593 13.3412 26.7562C13.3468 27.1966 13.3412 27.5919 13.3412 27.9363H13.3468Z" fill="url(#paint0_linear_1722_89846)"/>
<path style="mix-blend-mode:overlay" d="M6.81406 34.7847C6.35671 34.9146 5.88242 34.8976 5.45895 34.7734L2.08247 34.1354C1.56866 34.0902 1.08308 33.8813 0.727363 33.5651C0.371647 33.2433 0.128857 32.8085 0.100625 32.2947C-0.130872 28.2181 -0.147811 20.9739 2.15023 16.7109L6.00664 17.4506L6.69548 32.3342L6.80841 34.7847H6.81406Z" fill="url(#paint1_linear_1722_89846)"/>
<path d="M11.902 6.70635C11.4334 8.81241 10.1178 10.4498 8.54248 11.1161C8.41826 11.1726 8.29404 11.2177 8.16982 11.2573L8.57635 11.7541L6.58886 11.421H6.56628L6.19362 11.3532C3.7262 10.8056 2.28075 7.84125 2.96959 4.73015C3.17286 3.8211 3.53422 2.99674 4.00851 2.30225C5.05872 0.738229 6.68485 -0.170822 8.31662 0.0267976L8.67234 0.0832604H8.67799L10.6655 0.416391C10.6655 0.416391 10.6881 0.416391 10.6994 0.416391L11.0664 0.4785L10.3493 0.930203C11.7439 2.14415 12.4158 4.38573 11.902 6.7007V6.70635Z" fill="url(#paint2_linear_1722_89846)"/>
<path style="mix-blend-mode:overlay" d="M8.63923 11.764C8.63923 11.764 8.59405 11.7583 8.57147 11.7527L6.58398 11.4195H6.56139L6.18874 11.3518C3.72131 10.8041 2.27586 7.83979 2.96471 4.72868C3.16798 3.81963 3.52934 2.99527 4.00363 2.30078L6.30166 2.83153L7.3067 3.06303L8.54324 11.109L8.64487 11.7583L8.63923 11.764Z" fill="url(#paint3_linear_1722_89846)"/>
<path d="M14.2912 7.10328C13.9638 8.58826 13.2128 9.83608 12.2416 10.6774C11.2027 11.5921 9.90972 12.0268 8.63931 11.7671C8.61672 11.7671 8.59414 11.7558 8.57155 11.7558C6.10412 11.2081 4.65868 8.24383 5.34752 5.13273C5.53385 4.28014 5.86698 3.50095 6.2961 2.84034C7.34631 1.20292 9.00067 0.237403 10.6663 0.418084C10.6776 0.418084 10.6833 0.418084 10.7002 0.418084L11.0672 0.480193C12.5974 0.81897 13.7323 2.08374 14.2065 3.7381C14.5058 4.75443 14.551 5.91756 14.2912 7.09764V7.10328Z" fill="url(#paint4_linear_1722_89846)"/>
<path d="M17.2037 28.8034C17.1924 29.5092 16.7463 30.1586 16.0349 30.4917L13.415 31.7282L12.5286 32.146L9.9482 33.3487L7.37914 34.557L7.19846 34.6417C7.0686 34.7038 6.94438 34.749 6.82016 34.7772C6.35717 34.9071 5.88853 34.8958 5.46505 34.7659C4.65199 34.5231 4.01396 33.8738 3.96879 33.0212C3.73729 28.9446 3.72035 21.7117 6.01839 17.4431C6.93309 15.7379 8.22044 14.5127 10.0103 14.14C10.5749 14.0271 11.0888 13.9989 11.5743 14.0497C12.8956 14.1909 13.9119 14.9192 14.6854 15.9977C14.7927 16.1445 14.9056 16.3026 15.0073 16.4663C15.1371 16.6752 15.2557 16.8954 15.3686 17.1213C15.6227 17.6351 15.8429 18.1828 16.0349 18.7644C16.5092 20.2042 16.7971 21.8077 16.9722 23.3378C17.0738 24.213 17.1359 25.0713 17.1754 25.8561C17.2319 27.0362 17.2319 28.0694 17.215 28.7978L17.2037 28.8034Z" fill="url(#paint5_linear_1722_89846)"/>
<path opacity="0.16" d="M17.2052 28.8041C17.1939 29.5099 16.7479 30.1592 16.0364 30.4924L13.4166 31.7289L12.5301 32.1467C11.6888 23.9992 14.0772 18.3077 14.9975 16.4727C15.1274 16.6816 15.246 16.9018 15.3589 17.1276C15.613 17.6414 15.8332 18.1891 16.0251 18.7707C16.4994 20.2105 16.7874 21.814 16.9624 23.3442C17.0641 24.2194 17.1262 25.0776 17.1657 25.8624C17.2222 27.0425 17.2222 28.0758 17.2052 28.8041Z" fill="black"/>
<path d="M25.7673 27.8779V27.9964C25.7673 28.1207 25.7503 28.2392 25.7164 28.3522C25.5922 28.8208 25.2478 29.2273 24.7566 29.4588L22.7352 30.4074L20.0081 31.6891L18.2634 32.5078L18.9296 33.7952L16.0048 33.2475C15.5588 33.208 15.141 33.0273 14.8304 32.7506C14.5199 32.4683 14.311 32.0956 14.2884 31.6496C14.0851 28.115 14.0738 21.8364 16.067 18.138C16.8631 16.6644 17.9754 15.6029 19.5168 15.2867C20.1097 15.1624 20.6404 15.1568 21.126 15.2471L21.3123 15.281L24.2202 15.84L23.4071 16.67C24.3105 17.788 24.8752 19.4197 25.2252 21.1306C25.5245 22.593 25.6656 24.1174 25.7277 25.4217C25.7503 25.9356 25.7673 26.4211 25.7673 26.8503C25.7729 27.2342 25.7673 27.573 25.7673 27.8722V27.8779Z" fill="url(#paint6_linear_1722_89846)"/>
<path style="mix-blend-mode:overlay" d="M20.104 33.8167C19.7032 33.9296 19.2966 33.9183 18.9296 33.8054L16.0048 33.252C15.5588 33.2125 15.141 33.0318 14.8304 32.7552C14.5199 32.4728 14.311 32.1002 14.2884 31.6541C14.0851 28.1196 14.0738 21.8409 16.067 18.1426L19.4096 18.7863L20.0081 31.688L20.104 33.811V33.8167Z" fill="url(#paint7_linear_1722_89846)"/>
<path d="M24.5145 9.47811C24.108 11.3019 22.9674 12.7247 21.601 13.3006C21.4937 13.3458 21.3865 13.391 21.2792 13.4249L21.6349 13.8596L19.9128 13.5717H19.8902L19.5684 13.5152C17.4284 13.0409 16.1749 10.4719 16.7734 7.77293C16.9485 6.98245 17.2647 6.26537 17.6712 5.66687C18.5915 4.31176 19.9975 3.52128 21.409 3.69067L21.7196 3.74148H21.7252L23.4473 4.02944C23.4473 4.02944 23.4643 4.02944 23.4756 4.02944L23.7918 4.08026L23.1707 4.46985C24.379 5.52571 24.9662 7.46238 24.5201 9.47246L24.5145 9.47811Z" fill="url(#paint8_linear_1722_89846)"/>
<path style="mix-blend-mode:overlay" d="M21.6914 13.8603C21.6914 13.8603 21.6518 13.8547 21.6349 13.849L19.9128 13.561H19.8902L19.5684 13.5046C17.4284 13.0303 16.1749 10.4612 16.7734 7.76231C16.9485 6.97183 17.2647 6.25476 17.6712 5.65625L19.6643 6.11925L20.5339 6.32251L21.6067 13.3013L21.697 13.8659L21.6914 13.8603Z" fill="url(#paint9_linear_1722_89846)"/>
<path style="mix-blend-mode:overlay" d="M24.5145 9.47811C24.108 11.3019 22.9674 12.7247 21.601 13.3006C21.4937 13.3458 21.3865 13.391 21.2792 13.4249L21.6349 13.8596L19.9128 13.5717H19.8902L19.5684 13.5152C17.4284 13.0409 16.1749 10.4719 16.7734 7.77293C16.9485 6.98245 17.2647 6.26537 17.6712 5.66687C18.5915 4.31176 19.9975 3.52128 21.409 3.69067L21.7196 3.74148H21.7252L23.4473 4.02944C23.4473 4.02944 23.4643 4.02944 23.4756 4.02944L23.7918 4.08026L23.1707 4.46985C24.379 5.52571 24.9662 7.46238 24.5201 9.47246L24.5145 9.47811Z" fill="url(#paint10_linear_1722_89846)"/>
<path d="M26.5885 9.82161C26.0013 12.498 23.8105 14.2935 21.6932 13.8644C21.6762 13.8644 21.6537 13.8587 21.6367 13.8531C19.4968 13.3788 18.2433 10.8097 18.8418 8.11079C19.0055 7.37113 19.2879 6.69922 19.6605 6.11765C20.5696 4.70608 22.0037 3.86479 23.4492 4.02288C23.4605 4.02288 23.4661 4.02288 23.4774 4.02288L23.7936 4.0737C25.9335 4.54799 27.187 7.11704 26.5885 9.81597V9.82161Z" fill="url(#paint11_linear_1722_89846)"/>
<path style="mix-blend-mode:overlay" d="M25.7673 27.8779V27.9964C25.7673 28.1207 25.7503 28.2392 25.7164 28.3522C25.5922 28.8208 25.2478 29.2273 24.7566 29.4588L22.7352 30.4074L20.0081 31.6891L18.2634 32.5078L18.9296 33.7952L16.0048 33.2475C15.5588 33.208 15.141 33.0273 14.8304 32.7506C14.5199 32.4683 14.311 32.0956 14.2884 31.6496C14.0851 28.115 14.0738 21.8364 16.067 18.138C16.8631 16.6644 17.9754 15.6029 19.5168 15.2867C20.1097 15.1624 20.6404 15.1568 21.126 15.2471L21.3123 15.281L24.2202 15.84L23.4071 16.67C24.3105 17.788 24.8752 19.4197 25.2252 21.1306C25.5245 22.593 25.6656 24.1174 25.7277 25.4217C25.7503 25.9356 25.7673 26.4211 25.7673 26.8503C25.7729 27.2342 25.7673 27.573 25.7673 27.8722V27.8779Z" fill="url(#paint12_linear_1722_89846)"/>
<path d="M29.1169 28.6333C29.1056 29.2431 28.716 29.8077 28.1062 30.0957L25.8307 31.1628L22.8269 32.5744L20.5966 33.6189L20.4385 33.6924C20.3313 33.7432 20.2183 33.7827 20.1111 33.8166C19.7102 33.9295 19.3036 33.9182 18.9366 33.8053C18.2308 33.5964 17.6775 33.0317 17.638 32.2921C17.4347 28.7575 17.4234 22.4845 19.4166 18.7862C20.207 17.3068 21.325 16.2397 22.8721 15.9235C23.3633 15.8219 23.815 15.7993 24.2272 15.8444C25.3734 15.9687 26.2542 16.5954 26.9261 17.5327C27.1463 17.8263 27.3383 18.1538 27.5133 18.5095C27.7335 18.9499 27.9255 19.4298 28.0893 19.9324C28.5014 21.1802 28.7499 22.5692 28.9023 23.9017C28.9927 24.6583 29.0435 25.4036 29.0774 26.0868C29.1282 27.1088 29.1282 28.0009 29.1169 28.6389V28.6333Z" fill="url(#paint13_linear_1722_89846)"/>
<path opacity="0.16" d="M14.2895 7.09761C13.9621 8.58258 13.2111 9.83041 12.2399 10.6717C11.8108 9.66667 11.6923 8.44707 11.9633 7.19359C12.1214 6.45393 12.415 5.77638 12.782 5.20046C13.1716 4.5963 13.6572 4.09943 14.1992 3.73242C14.4985 4.74875 14.5436 5.91189 14.2839 7.09196L14.2895 7.09761Z" fill="black"/>
<defs>
<linearGradient id="paint0_linear_1722_89846" x1="0.00463834" y1="24.0347" x2="13.3525" y2="24.0347" gradientUnits="userSpaceOnUse">
<stop stop-color="#888BCB"/>
<stop offset="1" stop-color="#383DA9"/>
</linearGradient>
<linearGradient id="paint1_linear_1722_89846" x1="0.00463835" y1="25.7902" x2="6.81406" y2="25.7902" gradientUnits="userSpaceOnUse">
<stop stop-color="#6B5656"/>
<stop offset="1" stop-color="#353133"/>
</linearGradient>
<linearGradient id="paint2_linear_1722_89846" x1="2.97524" y1="4.66804" x2="11.9133" y2="6.64424" gradientUnits="userSpaceOnUse">
<stop stop-color="#888BCB"/>
<stop offset="1" stop-color="#383DA9"/>
</linearGradient>
<linearGradient id="paint3_linear_1722_89846" x1="2.78968" y1="7.03237" x2="8.63923" y2="7.03237" gradientUnits="userSpaceOnUse">
<stop stop-color="#6B5656"/>
<stop offset="1" stop-color="#353133"/>
</linearGradient>
<linearGradient id="paint4_linear_1722_89846" x1="5.17813" y1="6.11518" x2="14.4606" y2="6.11518" gradientUnits="userSpaceOnUse">
<stop stop-color="#EBECF6"/>
<stop offset="1" stop-color="#AEB2DC"/>
</linearGradient>
<linearGradient id="paint5_linear_1722_89846" x1="3.86151" y1="24.4502" x2="17.2093" y2="24.4502" gradientUnits="userSpaceOnUse">
<stop stop-color="#EBECF6"/>
<stop offset="1" stop-color="#AEB2DC"/>
</linearGradient>
<linearGradient id="paint6_linear_1722_89846" x1="14.2037" y1="24.4957" x2="25.7729" y2="24.4957" gradientUnits="userSpaceOnUse">
<stop stop-color="#888BCB"/>
<stop offset="1" stop-color="#383DA9"/>
</linearGradient>
<linearGradient id="paint7_linear_1722_89846" x1="14.2037" y1="26.0191" x2="20.104" y2="26.0191" gradientUnits="userSpaceOnUse">
<stop stop-color="#6B5656"/>
<stop offset="1" stop-color="#353133"/>
</linearGradient>
<linearGradient id="paint8_linear_1722_89846" x1="16.7791" y1="7.71082" x2="24.5258" y2="9.42164" gradientUnits="userSpaceOnUse">
<stop stop-color="#888BCB"/>
<stop offset="1" stop-color="#383DA9"/>
</linearGradient>
<linearGradient id="paint9_linear_1722_89846" x1="16.621" y1="9.7611" x2="21.6914" y2="9.7611" gradientUnits="userSpaceOnUse">
<stop stop-color="#6B5656"/>
<stop offset="1" stop-color="#353133"/>
</linearGradient>
<linearGradient id="paint10_linear_1722_89846" x1="16.7791" y1="7.71082" x2="24.5258" y2="9.42164" gradientUnits="userSpaceOnUse">
<stop stop-color="#6B5656"/>
<stop offset="1" stop-color="#353133"/>
</linearGradient>
<linearGradient id="paint11_linear_1722_89846" x1="18.6894" y1="8.96338" x2="26.7353" y2="8.96338" gradientUnits="userSpaceOnUse">
<stop stop-color="#888BCB"/>
<stop offset="1" stop-color="#383DA9"/>
</linearGradient>
<linearGradient id="paint12_linear_1722_89846" x1="14.2037" y1="24.4957" x2="25.7729" y2="24.4957" gradientUnits="userSpaceOnUse">
<stop stop-color="#6B5656"/>
<stop offset="1" stop-color="#353133"/>
</linearGradient>
<linearGradient id="paint13_linear_1722_89846" x1="17.5476" y1="24.8559" x2="29.1225" y2="24.8559" gradientUnits="userSpaceOnUse">
<stop stop-color="#888BCB"/>
<stop offset="1" stop-color="#383DA9"/>
</linearGradient>
</defs>
</svg>
