<svg width="12" height="12" viewBox="0 0 12 12" fill="none" xmlns="http://www.w3.org/2000/svg">
<path d="M5.87555 0.788184L7.31556 3.66818C7.39556 3.74818 7.47556 3.82818 7.63556 3.90818L10.7556 4.38818C11.0756 4.46818 11.2356 4.86818 10.9956 5.10818L8.75556 7.34818C8.67556 7.42818 8.59555 7.58818 8.67555 7.66818L9.23556 10.7882C9.31556 11.1082 8.91555 11.3482 8.67555 11.1882L5.87555 9.74818C5.79555 9.66818 5.63555 9.66818 5.47555 9.74818L2.67556 11.1882C2.35556 11.3482 2.03556 11.1082 2.11556 10.7882L2.67556 7.66818C2.67556 7.50818 2.67556 7.42818 2.59556 7.34818L0.115556 4.94818C-0.124444 4.70818 0.0355555 4.30818 0.355556 4.30818L3.47556 3.82818C3.63556 3.82818 3.71556 3.74818 3.79556 3.58818L5.23556 0.708185C5.31556 0.468185 5.79555 0.468184 5.87555 0.788184V0.788184Z" fill="url(#paint0_linear_1722_90322)"/>
<defs>
<linearGradient id="paint0_linear_1722_90322" x1="0.00595556" y1="5.82818" x2="11.1052" y2="5.82818" gradientUnits="userSpaceOnUse">
<stop stop-color="#FFC80B"/>
<stop offset="1" stop-color="#E89318"/>
</linearGradient>
</defs>
</svg>
