<svg width="25" height="25" viewBox="0 0 25 25" fill="none" xmlns="http://www.w3.org/2000/svg">
<path d="M12.5022 16.0769C13.6353 16.0769 14.5977 15.6803 15.3894 14.8871C16.181 14.0939 16.5769 13.1308 16.5769 11.9977C16.5769 10.8646 16.1803 9.90224 15.3871 9.11058C14.5939 8.31891 13.6308 7.92308 12.4977 7.92308C11.3646 7.92308 10.4022 8.31966 9.61055 9.11283C8.81889 9.90601 8.42305 10.8692 8.42305 12.0023C8.42305 13.1353 8.81964 14.0977 9.6128 14.8894C10.406 15.681 11.3691 16.0769 12.5022 16.0769ZM12.5 14.7C11.75 14.7 11.1125 14.4375 10.5875 13.9125C10.0625 13.3875 9.79995 12.75 9.79995 12C9.79995 11.25 10.0625 10.6125 10.5875 10.0875C11.1125 9.56248 11.75 9.29998 12.5 9.29998C13.25 9.29998 13.8875 9.56248 14.4125 10.0875C14.9375 10.6125 15.2 11.25 15.2 12C15.2 12.75 14.9375 13.3875 14.4125 13.9125C13.8875 14.4375 13.25 14.7 12.5 14.7ZM12.5013 19C10.2017 19 8.10639 18.3657 6.21535 17.0971C4.32434 15.8285 2.93204 14.1295 2.03845 12C2.93204 9.87049 4.32389 8.17146 6.214 6.90288C8.1041 5.63429 10.199 5 12.4986 5C14.7982 5 16.8935 5.63429 18.7846 6.90288C20.6756 8.17146 22.0679 9.87049 22.9615 12C22.0679 14.1295 20.676 15.8285 18.7859 17.0971C16.8958 18.3657 14.8009 19 12.5013 19ZM12.5 17.5C14.3833 17.5 16.1125 17.0041 17.6875 16.0125C19.2625 15.0208 20.4666 13.6833 21.3 12C20.4666 10.3166 19.2625 8.97914 17.6875 7.98748C16.1125 6.99581 14.3833 6.49998 12.5 6.49998C10.6166 6.49998 8.88745 6.99581 7.31245 7.98748C5.73745 8.97914 4.53329 10.3166 3.69995 12C4.53329 13.6833 5.73745 15.0208 7.31245 16.0125C8.88745 17.0041 10.6166 17.5 12.5 17.5Z" fill="#3E43AC"/>
</svg>
