<svg width="20" height="20" viewBox="0 0 20 20" fill="none" xmlns="http://www.w3.org/2000/svg">
<g opacity="0.8">
<path d="M15.2342 6.9746C15.095 6.80221 14.893 6.6922 14.6726 6.66875C14.4523 6.64531 14.2316 6.71037 14.0592 6.8496C13.8868 6.98884 13.7768 7.19086 13.7534 7.41122C13.7299 7.63157 13.795 7.85221 13.9342 8.0246C14.3552 8.59703 14.5823 9.28902 14.5823 9.9996C14.5823 10.7102 14.3552 11.4022 13.9342 11.9746C13.8349 12.0971 13.7723 12.2452 13.7538 12.4018C13.7353 12.5584 13.7616 12.7171 13.8297 12.8593C13.8977 13.0016 14.0048 13.1216 14.1384 13.2054C14.2719 13.2893 14.4265 13.3335 14.5842 13.3329C14.7087 13.3334 14.8317 13.3059 14.9442 13.2525C15.0567 13.1992 15.1558 13.1213 15.2342 13.0246C15.8952 12.1547 16.2531 11.0922 16.2531 9.9996C16.2531 8.90703 15.8952 7.84454 15.2342 6.9746V6.9746Z" fill="white"/>
<path d="M16.3673 4.35826C16.2831 4.28822 16.1858 4.23547 16.0812 4.20301C15.9765 4.17055 15.8665 4.15902 15.7574 4.16908C15.6483 4.17914 15.5422 4.21059 15.4453 4.26164C15.3483 4.31268 15.2624 4.38233 15.1923 4.46659C15.1223 4.55086 15.0695 4.64809 15.0371 4.75275C15.0046 4.8574 14.9931 4.96742 15.0031 5.07653C15.0132 5.18564 15.0446 5.2917 15.0957 5.38865C15.1467 5.48561 15.2164 5.57156 15.3007 5.64159C15.969 6.15815 16.5134 6.8176 16.8941 7.57169C17.2747 8.32577 17.482 9.15542 17.5007 9.99993C17.482 10.8444 17.2747 11.6741 16.8941 12.4282C16.5134 13.1823 15.969 13.8417 15.3007 14.3583C15.2163 14.4282 15.1465 14.5141 15.0954 14.6111C15.0443 14.708 15.0128 14.8141 15.0027 14.9233C14.9926 15.0324 15.0042 15.1425 15.0367 15.2472C15.0693 15.3518 15.1221 15.4491 15.1923 15.5333C15.2707 15.6273 15.3688 15.703 15.4797 15.7548C15.5906 15.8067 15.7116 15.8335 15.834 15.8333C16.0287 15.8336 16.2174 15.7658 16.3673 15.6416C17.226 14.9703 17.9233 14.115 18.4079 13.1387C18.8924 12.1623 19.1519 11.0898 19.1673 9.99993C19.1519 8.91007 18.8924 7.83752 18.4079 6.86119C17.9233 5.88485 17.226 5.02957 16.3673 4.35826V4.35826ZM12.059 2.59993C11.9323 2.52679 11.7886 2.48828 11.6423 2.48828C11.496 2.48828 11.3523 2.52679 11.2257 2.59993L5.83398 6.30826H1.66732C1.4463 6.30826 1.23434 6.39606 1.07806 6.55234C0.921782 6.70862 0.833984 6.92058 0.833984 7.14159V12.8583C0.833984 13.0793 0.921782 13.2912 1.07806 13.4475C1.23434 13.6038 1.4463 13.6916 1.66732 13.6916H5.83398L11.1757 17.3583C11.322 17.453 11.493 17.5022 11.6673 17.4999C11.8883 17.4999 12.1003 17.4121 12.2566 17.2558C12.4129 17.0996 12.5007 16.8876 12.5007 16.6666V3.33326C12.5002 3.18251 12.459 3.03469 12.3812 2.90554C12.3034 2.7764 12.1921 2.67078 12.059 2.59993Z" fill="white"/>
</g>
</svg>
