<svg width="40" height="40" viewBox="0 0 40 40" fill="none" xmlns="http://www.w3.org/2000/svg">
<g clip-path="url(#clip0_44_966)">
<g clip-path="url(#clip1_44_966)">
<path d="M25.6691 12.0971V12.1245C25.6523 12.7527 25.5952 13.3809 25.5012 14.0092C25.3836 14.7644 25.2124 15.5162 24.9874 16.2577C24.8329 16.7692 24.6549 17.2738 24.4568 17.7715C24.393 17.9295 24.3258 18.0839 24.2586 18.2384C24.1444 18.5062 24.0235 18.7705 23.8959 19.0314C23.859 19.1069 23.8221 19.1824 23.7818 19.2545C23.6844 19.4536 23.5836 19.6493 23.4762 19.8415C23.2948 20.1745 23.1034 20.5007 22.9019 20.8233C22.509 21.455 22.0791 22.0592 21.6157 22.6324C21.4478 22.8453 21.2732 23.0547 21.0918 23.2572C20.7291 23.6726 20.3463 24.0674 19.95 24.4381C19.4866 24.8775 19.0064 25.286 18.5027 25.6568C18.4422 25.7014 18.3818 25.746 18.3179 25.7941C18.1467 25.9142 17.9721 26.0344 17.7941 26.1511C17.4448 26.3811 17.0821 26.5974 16.7161 26.7896C16.4575 26.9304 16.1956 27.0574 15.9303 27.1741C15.6683 27.2942 15.3963 27.4041 15.1243 27.5002C14.8523 27.5998 14.5803 27.6856 14.3116 27.7611C14.2612 27.7748 14.2109 27.7886 14.1638 27.7989C13.8146 27.895 13.4721 27.9671 13.1295 28.0151C12.8877 28.0529 12.6493 28.0804 12.4109 28.0975C12.337 28.1044 12.2597 28.1078 12.1859 28.1078C11.7997 28.1318 11.4168 28.125 11.0474 28.0941L11.437 28.5507C11.3765 28.5301 11.3194 28.506 11.2624 28.4854L9.39183 27.7886C7.76982 27.308 6.34594 26.333 5.24108 24.953C4.89519 24.5205 4.58288 24.0502 4.30079 23.5421C3.72653 22.5089 3.30676 21.3177 3.06832 20.0029C3.01459 19.7077 2.97094 19.409 2.93735 19.1001C2.90041 18.7945 2.87691 18.4856 2.86347 18.1766C2.80638 16.8138 2.94743 15.4441 3.26646 14.1121C3.42429 13.4496 3.62579 12.8008 3.86422 12.1623C4.17653 11.3453 4.55937 10.5523 5.00265 9.79364L5.00937 9.78334C5.85564 8.32781 6.92355 6.99931 8.16273 5.87677C8.85452 5.24856 9.59668 4.68901 10.3825 4.20841C11.0172 3.81707 11.6788 3.47722 12.3672 3.19572C12.6527 3.07901 12.9415 2.96916 13.2336 2.87304C13.5258 2.77349 13.818 2.68766 14.1101 2.61558C14.8053 2.43707 15.487 2.32722 16.1553 2.27916C16.9646 2.22423 17.7471 2.25856 18.4892 2.38558C19.0332 2.47483 19.5571 2.61557 20.0575 2.79408L20.1851 2.84558L22.5594 3.71065L22.6299 3.73468H22.6232L22.0489 3.84796C22.65 4.2805 23.1941 4.79886 23.6609 5.39274C24.0034 5.82184 24.3056 6.29558 24.5642 6.80707C24.6112 6.89975 24.6582 6.99587 24.7019 7.09199C24.937 7.58975 25.1284 8.12528 25.2795 8.68826C25.4206 9.20319 25.5247 9.74214 25.5885 10.3051C25.6254 10.6004 25.6489 10.899 25.6624 11.2045C25.6724 11.4998 25.6791 11.8018 25.6691 12.0971V12.0971Z" fill="url(#paint0_linear_44_966)"/>
<path style="mix-blend-mode:overlay" d="M13.4485 29.0175C13.1765 28.99 12.9079 28.9488 12.6459 28.8939C12.2295 28.8115 11.8265 28.6948 11.437 28.5506C11.3765 28.53 11.3194 28.506 11.2624 28.4854L9.39183 27.7885C7.76982 27.308 6.34594 26.333 5.24108 24.953C4.89519 24.5205 4.58288 24.0502 4.30079 23.5421C3.72653 22.5088 3.30676 21.3177 3.06832 20.0029C3.01459 19.7077 2.97094 19.409 2.93735 19.1C2.90041 18.7945 2.87691 18.4856 2.86347 18.1766C2.80638 16.8138 2.94743 15.4441 3.26646 14.1121C3.42429 13.4496 3.62579 12.8008 3.86422 12.1623C4.17653 11.3453 4.55937 10.5523 5.00265 9.79362L5.00937 9.78333L7.58511 10.6827L8.27019 12.8248L8.84108 14.603L9.39183 16.3332L9.79482 17.5965L10.3388 19.2923L11.2456 22.1209L11.7795 23.7927L13.1295 28.0151L13.4485 29.0175V29.0175Z" fill="url(#paint1_linear_44_966)"/>
<path d="M28.2246 13.0583C28.2179 13.2848 28.2078 13.5148 28.1877 13.7414C28.1071 14.8983 27.8854 16.0586 27.5429 17.1914C27.4925 17.3596 27.4388 17.5244 27.3851 17.6926C27.2373 18.1286 27.0694 18.5645 26.888 18.9936C26.8645 19.0554 26.841 19.1138 26.8142 19.1722C26.7101 19.4125 26.6026 19.6528 26.4884 19.8862C26.2802 20.3222 26.0552 20.7513 25.8101 21.1666C25.6623 21.4275 25.5045 21.685 25.3433 21.9356C24.8194 22.756 24.2351 23.5284 23.597 24.2459C23.2511 24.6407 22.8851 25.0148 22.5056 25.3719C22.0119 25.8422 21.4948 26.2713 20.9541 26.666C20.756 26.8102 20.5545 26.951 20.3496 27.0848C20.1313 27.229 19.9097 27.3663 19.6847 27.4934C19.2951 27.7234 18.8955 27.9259 18.4892 28.1078C18.2239 28.228 17.9519 28.3344 17.6798 28.4339C17.438 28.5232 17.1963 28.5987 16.9578 28.6674C16.9276 28.6777 16.8974 28.688 16.8671 28.6948C16.4608 28.8081 16.0612 28.8939 15.6649 28.9523C15.45 28.9866 15.2384 29.0107 15.0302 29.0244C15.0101 29.0278 14.9899 29.0313 14.9698 29.0313C14.4492 29.0725 13.9421 29.0656 13.4485 29.0175C13.1765 28.9901 12.9078 28.9489 12.6459 28.8939C12.2295 28.8116 11.8265 28.6948 11.4369 28.5507C11.3765 28.5301 11.3194 28.506 11.2623 28.4854C9.92237 27.9534 8.74028 27.0677 7.79663 25.8868C7.45073 25.4542 7.13506 24.9839 6.85633 24.4759C6.28207 23.4392 5.8623 22.2514 5.62387 20.9366C5.57013 20.6414 5.52648 20.3393 5.4929 20.0338C5.45931 19.7248 5.43581 19.4193 5.42237 19.1104C5.36192 17.7475 5.50297 16.3778 5.822 15.0459C5.97984 14.3834 6.18133 13.7345 6.42312 13.096C6.74215 12.2619 7.1317 11.4551 7.58506 10.6828C8.42797 9.23753 9.48916 7.91932 10.7183 6.80708C11.4101 6.18231 12.1522 5.62275 12.938 5.14216C13.5727 4.75081 14.2377 4.41096 14.9227 4.12947C15.2082 4.01275 15.497 3.9029 15.7892 3.80678C16.0847 3.70723 16.3769 3.62141 16.6657 3.54932C17.3608 3.36738 18.0459 3.26096 18.7108 3.2129C19.5201 3.15798 20.3026 3.19231 21.0448 3.31932C21.5686 3.40514 22.0757 3.53902 22.5593 3.71066C22.5828 3.71753 22.603 3.7244 22.6231 3.73469C24.0504 4.25649 25.2761 5.13872 26.2198 6.32305C26.5589 6.75559 26.8612 7.22932 27.1231 7.74081C27.6436 8.7638 27.9929 9.93783 28.1474 11.2389C28.181 11.5307 28.2045 11.8328 28.2179 12.1383C28.2313 12.4438 28.2347 12.7528 28.2246 13.0583V13.0583Z" fill="url(#paint2_linear_44_966)"/>
<path d="M18.4893 28.1075C18.224 28.2276 17.952 28.3341 17.6799 28.4336C17.4382 28.5229 17.1964 28.5984 16.9579 28.667C16.9277 28.6773 16.8975 28.6876 16.8673 28.6945L16.8437 28.4096L16.7161 26.7893L16.5079 24.1391L16.3635 22.3403L16.3333 21.9284L16.1855 20.0987L16.1654 19.8412L15.9673 17.3318L15.8229 15.509L15.6079 12.773L15.4635 10.9433L14.9229 4.12913C15.2083 4.01241 15.4971 3.90256 15.7893 3.80644C16.0848 3.70689 16.377 3.62107 16.6658 3.54898L17.1695 10.3391L17.3072 12.1688L17.5087 14.922L17.6464 16.7448L17.7639 18.3411L17.8512 19.5323L17.9889 21.362L18.318 25.7938L18.4893 28.1075V28.1075Z" fill="url(#paint3_linear_44_966)"/>
<path d="M28.2179 12.1378C28.2313 12.4434 28.2347 12.7523 28.2246 13.0578L5.62386 20.9362C5.57012 20.6444 5.52647 20.3423 5.49289 20.0334C5.4593 19.7244 5.4358 19.4189 5.42236 19.1099L28.1474 11.2384C28.1809 11.5302 28.2045 11.8323 28.2179 12.1378V12.1378Z" fill="url(#paint4_linear_44_966)"/>
<path d="M23.9733 15.5231C23.9834 16.2817 23.9632 17.0713 23.9061 17.8883C23.8759 18.3311 23.839 18.7877 23.7853 19.2511C23.7718 19.3919 23.755 19.5292 23.7349 19.6665C23.7315 19.7077 23.7282 19.7454 23.7214 19.7866C23.4998 21.5477 23.1102 23.4151 22.5091 25.3719C22.0155 25.8422 21.4983 26.2713 20.9576 26.666C20.7595 26.8102 20.558 26.951 20.3532 27.0848C20.3632 26.9956 20.3834 26.9029 20.417 26.8102C20.4707 26.6592 20.5244 26.5081 20.5782 26.3605C21.0181 25.0835 21.364 23.8408 21.6192 22.6325C21.7871 21.8498 21.9181 21.0842 22.0188 20.3359C22.0255 20.2844 22.0323 20.2363 22.039 20.1883C22.1229 19.5395 22.1867 18.901 22.2237 18.2831C22.2942 17.188 22.2976 16.141 22.2472 15.142C22.2304 14.8262 22.2102 14.5275 22.1834 14.2289C22.1767 14.1156 22.1666 14.0023 22.1565 13.889C22.1397 13.7036 22.1196 13.5183 22.0994 13.3363V13.3295C21.9785 12.2962 21.8039 11.3247 21.5991 10.4287C21.4614 9.83484 21.3136 9.26843 21.1558 8.73977C20.1517 5.42708 18.842 3.46007 18.8117 3.41544C18.7681 3.35365 18.7379 3.28499 18.7144 3.2129C19.5237 3.15798 20.3061 3.19231 21.0483 3.31932C21.5789 4.32514 22.2942 5.90425 22.892 7.96052C23.0028 8.34843 23.1069 8.75007 23.211 9.17231C23.2479 9.32678 23.2849 9.48126 23.3185 9.64261C23.5233 10.5695 23.6979 11.6028 23.8188 12.7356C23.8491 13.0342 23.8759 13.3295 23.8994 13.635C23.9229 13.9336 23.9397 14.2357 23.9532 14.5447C23.9666 14.8674 23.9733 15.1901 23.9767 15.5231H23.9733Z" fill="url(#paint5_linear_44_966)"/>
<path d="M14.9696 29.0318C14.4491 29.073 13.942 29.0662 13.4483 29.0181C13.1763 28.9906 12.9076 28.9494 12.6457 28.8945C12.4845 28.6371 12.33 28.3762 12.1856 28.1084C11.5409 26.9515 11.0069 25.6986 10.5838 24.3666C10.4058 23.8139 10.2479 23.2475 10.1103 22.6674C9.87183 21.6684 9.69048 20.6351 9.56959 19.5606C9.536 19.2551 9.50578 18.9496 9.48227 18.6441C9.45876 18.3386 9.43862 18.033 9.42518 17.7241C9.40168 17.2641 9.3916 16.8006 9.3916 16.3338C9.3916 15.7262 9.40503 15.1083 9.44197 14.4835C9.44869 14.2741 9.46548 14.0681 9.47891 13.8587C9.5125 13.4159 9.5528 12.9868 9.59981 12.5645C9.86847 10.1718 10.342 8.15333 10.7181 6.80766C11.4099 6.18288 12.152 5.62333 12.9379 5.14273C12.9278 5.23542 12.9076 5.33154 12.8707 5.42422C12.8371 5.51004 11.8196 8.29064 11.3326 12.1629C11.2588 12.7774 11.195 13.4227 11.1547 14.0853C11.0909 15.0671 11.0673 16.0866 11.1076 17.1371C11.1177 17.446 11.1345 17.7515 11.158 18.0605C11.1782 18.366 11.205 18.6715 11.2386 18.9736V18.9805C11.3394 19.9485 11.5006 20.9303 11.7289 21.9018C11.8632 22.4717 12.0177 23.0381 12.2024 23.6011C12.6726 25.0532 13.3106 26.4675 14.1636 27.7994C14.3785 28.1393 14.6103 28.4723 14.8554 28.7984C14.9058 28.8671 14.9427 28.946 14.9696 29.0318V29.0318Z" fill="url(#paint6_linear_44_966)"/>
<path d="M27.123 7.74018C25.8066 8.44048 24.5372 9.07212 23.3182 9.64197C22.7338 9.9166 22.1596 10.1775 21.5988 10.4281C20.0775 11.1009 18.6435 11.6776 17.307 12.1685C17.0182 12.275 16.7361 12.3779 16.4573 12.4775C16.2559 12.5496 16.0577 12.6182 15.8663 12.6835L15.6111 12.7727C13.942 13.3357 12.4476 13.7648 11.1581 14.0841C10.5402 14.242 9.96928 14.369 9.4454 14.4788C7.59503 14.8633 6.34914 15.0006 5.82861 15.0418C5.98645 14.3827 6.18794 13.7305 6.42973 13.0954C6.67152 13.0679 6.98384 13.0302 7.3566 12.9753C7.951 12.8894 8.70996 12.7556 9.6066 12.5667C10.1338 12.4535 10.7148 12.3196 11.3394 12.1617C11.4335 12.1411 11.5275 12.117 11.6215 12.0896C12.7062 11.8081 13.9958 11.4373 15.4667 10.943C15.742 10.8469 16.0275 10.7508 16.3197 10.6478C16.5984 10.5482 16.8805 10.4453 17.1726 10.3388C18.4017 9.88913 19.735 9.36048 21.1555 8.73913C21.7197 8.4954 22.3006 8.23451 22.8917 7.95988C23.9596 7.46555 25.0711 6.91973 26.223 6.32242C26.5622 6.75496 26.8644 7.22869 27.1264 7.74018H27.123Z" fill="url(#paint7_linear_44_966)"/>
<path d="M27.543 17.1914C27.4926 17.3596 27.4389 17.5244 27.3852 17.6926C27.2374 18.132 27.0729 18.568 26.8882 18.9936C26.8647 19.0554 26.8411 19.1138 26.8143 19.1722C25.9076 19.3266 25.0244 19.5017 24.1714 19.6871C24.0169 19.7214 23.8691 19.7523 23.718 19.7866C23.6374 19.8038 23.5568 19.8244 23.4762 19.8416C23.1001 19.9274 22.7273 20.0166 22.3647 20.1093C22.2538 20.1333 22.1464 20.1608 22.0356 20.1883C20.5814 20.5556 19.2281 20.9538 17.9889 21.3623C17.7035 21.455 17.4281 21.5477 17.1594 21.6369C16.874 21.7365 16.5986 21.8326 16.3333 21.9287C16.1822 21.9836 16.0344 22.0351 15.89 22.0901C14.6508 22.5466 13.5661 22.9929 12.6393 23.4014C12.4915 23.4701 12.3438 23.5319 12.2027 23.6005C12.0583 23.6657 11.9173 23.7275 11.7796 23.7928C11.3531 23.9884 10.9535 24.1807 10.5841 24.366C9.29786 25.008 8.35421 25.5504 7.79674 25.8868C7.45085 25.4542 7.13518 24.9839 6.85645 24.4759C7.33331 24.1738 8.43816 23.501 10.1106 22.6668C10.4632 22.4917 10.8426 22.3098 11.2456 22.121C11.4035 22.0489 11.5647 21.9768 11.7292 21.9013C12.9482 21.3451 14.3788 20.7513 15.9908 20.1711C16.0546 20.1471 16.1217 20.123 16.1856 20.099C16.4609 20.0029 16.7363 19.9033 17.0184 19.8072C17.2904 19.7145 17.5691 19.6219 17.8512 19.5326C19.2012 19.0932 20.662 18.6675 22.2203 18.283C22.771 18.1457 23.3318 18.0153 23.9061 17.8883C24.0874 17.8471 24.2721 17.8093 24.4568 17.7716C25.4509 17.5587 26.4818 17.363 27.543 17.1914V17.1914Z" fill="url(#paint8_linear_44_966)"/>
<path opacity="0.16" d="M28.1775 13.7356L27.6099 13.4472C27.5864 13.4369 27.5629 13.4232 27.5361 13.4163C27.4655 13.3888 27.3917 13.3751 27.3144 13.3751C27.1129 13.3717 26.8946 13.4506 26.6931 13.5914C26.5017 13.7321 26.3271 13.9278 26.1928 14.1715L25.4909 15.4691C25.3969 15.4554 25.3029 15.4485 25.2088 15.4417C24.8126 15.4176 24.3961 15.4451 23.973 15.5241C23.9126 15.5344 23.8487 15.5447 23.7883 15.5584L23.6943 14.7311L23.6842 14.6418L23.6473 14.302C23.617 14.0445 23.5129 13.8523 23.3551 13.7356C23.3249 13.7081 23.2879 13.6875 23.251 13.6703C23.2443 13.6669 23.2342 13.6635 23.2275 13.66C23.0529 13.5776 22.8413 13.5742 22.6163 13.6635C22.5861 13.6772 22.5525 13.6909 22.5223 13.7047L22.1529 13.89L21.2663 14.3294C21.0245 14.4496 20.8129 14.6556 20.6618 14.8959C20.4838 15.1705 20.3797 15.4932 20.3797 15.7953C20.3797 15.8433 20.3797 15.8879 20.3864 15.9326L20.5275 17.1959C20.0405 17.5906 19.5805 18.0403 19.164 18.5312C19.0633 18.6445 18.9693 18.7612 18.8752 18.8779L17.9584 18.4042C17.9148 18.3802 17.8678 18.363 17.8208 18.3527H17.8107C17.8107 18.3527 17.7805 18.3424 17.7637 18.3424C17.3473 18.2772 16.8334 18.5964 16.5413 19.1388L16.1652 19.8426L15.9905 20.1721L15.7756 20.5738C15.4566 21.1711 15.5103 21.8302 15.8898 22.0911C15.9133 22.1082 15.9368 22.122 15.9637 22.1357L16.3633 22.3417L16.4036 22.3623L16.8838 22.6094C16.7159 23.1141 16.5917 23.6256 16.5077 24.1405C16.4708 24.343 16.4405 24.5421 16.4204 24.7447L15.2752 25.3317C14.9864 25.4793 14.7446 25.747 14.5868 26.056C14.4659 26.2894 14.3954 26.5503 14.3887 26.7975C14.3887 26.8524 14.3887 26.9073 14.3954 26.9623L14.4793 27.7141L14.5499 28.3526C14.5499 28.3526 14.5532 28.3697 14.5532 28.38C14.5935 28.665 14.7279 28.8744 14.9193 28.9773C14.9327 28.9842 14.9428 28.9911 14.9562 28.9979C14.9764 29.0082 14.9965 29.0151 15.0167 29.022C15.02 29.022 15.0267 29.0254 15.0301 29.0254C15.0704 29.0426 15.1107 29.0494 15.1543 29.0529C15.3088 29.0769 15.4834 29.0426 15.6648 28.9533C15.6648 28.9533 15.6749 28.9533 15.6782 28.9465L15.7118 28.9259H15.7152L16.82 28.3526C16.8267 28.3732 16.8368 28.3903 16.8435 28.4109C16.8805 28.5002 16.9174 28.586 16.9577 28.6684C17.1961 28.5997 17.4379 28.5242 17.6797 28.435C17.9517 28.3354 18.2237 28.229 18.489 28.1088C18.8954 27.9269 19.295 27.7244 19.6846 27.4944C19.9096 27.3673 20.1312 27.23 20.3495 27.0859C20.5543 26.952 20.7558 26.8112 20.954 26.667C20.8163 26.5847 20.6887 26.4851 20.5745 26.3615C20.3999 26.1865 20.2555 25.9667 20.1446 25.7127C20.0338 25.4587 19.9599 25.1703 19.923 24.8476C19.9096 24.7275 19.9029 24.6073 19.8995 24.4838C19.8995 24.319 19.9062 24.1542 19.9264 23.986C20.0674 22.5957 20.8834 21.1573 22.0152 20.3369C22.1293 20.2545 22.2435 20.1756 22.3644 20.1103C22.4282 20.0691 22.492 20.0348 22.5592 20.0005C22.5793 19.9902 22.5961 19.9799 22.6163 19.973C22.8346 19.8666 23.0495 19.7876 23.2577 19.7396C23.3618 19.7121 23.4626 19.695 23.5633 19.6812C23.6204 19.6744 23.6775 19.6709 23.7312 19.6675C23.8823 19.6572 24.0301 19.6641 24.1711 19.6881C24.9402 19.7979 25.548 20.3232 25.8099 21.1676C26.0551 20.7523 26.2801 20.3232 26.4883 19.8872C26.6025 19.6538 26.7099 19.4135 26.814 19.1732C26.8409 19.1148 26.8644 19.0565 26.8879 18.9947C27.0726 18.569 27.2372 18.133 27.3849 17.6936C27.4387 17.5254 27.4924 17.3606 27.5428 17.1924C27.8853 16.0596 28.107 14.8993 28.1876 13.7424L28.1775 13.7356V13.7356Z" fill="black"/>
<path d="M36.2476 20.6142L33.9606 19.5534C33.87 19.4813 33.7625 19.4367 33.6416 19.423C33.4804 19.3955 33.2991 19.4298 33.111 19.526L31.9658 20.1061C31.7308 19.5122 31.4084 19.0007 31.0222 18.5854L31.2136 18.2352L31.7241 17.2912C31.7845 17.1813 31.8315 17.0681 31.8651 16.9582L32.9834 16.4055C32.9599 16.3952 32.9364 16.3815 32.9095 16.3746L31.4319 15.7052L31.4117 15.6949L30.5352 15.2521C30.092 15.0255 29.4573 15.3482 29.1147 15.9764L28.7285 16.6939L28.5908 16.9479L28.4162 17.2706C28.2752 17.2534 28.1341 17.2397 27.9897 17.2397C27.7479 17.2294 27.4961 17.2397 27.2375 17.2706L27.9897 16.9101L28.6009 16.6184H28.6076L27.9897 16.3231L26.1931 15.4752H26.183C25.9782 15.3654 25.7162 15.3722 25.4442 15.5061L24.5375 15.9558L24.1882 16.1309C23.9431 16.2545 23.7282 16.4639 23.5737 16.711C23.3755 17.0234 23.2714 17.3976 23.3084 17.7375L23.4494 18.9973C22.8483 19.4848 22.2942 20.0546 21.8005 20.6794L20.8804 20.2091C20.4371 19.9791 19.8024 20.3086 19.4632 20.9403L18.6976 22.3752C18.4121 22.9073 18.4289 23.4909 18.7009 23.7964C18.7547 23.8582 18.8151 23.9063 18.8856 23.9406L19.8024 24.4109C19.5741 25.1146 19.4162 25.8321 19.339 26.5461L18.1938 27.1331C18.1703 27.1469 18.1435 27.1606 18.1199 27.1778C18.1132 27.1778 18.1065 27.1812 18.0998 27.1881C17.8513 27.3425 17.6397 27.5897 17.4987 27.8712C17.3543 28.1527 17.2838 28.4719 17.3173 28.7637L17.4718 30.154C17.502 30.4321 17.6196 30.6381 17.7942 30.7548C17.8379 30.7857 17.8815 30.8097 17.9319 30.8269L20.2894 31.9425V31.9357L20.1114 30.9195C20.2793 31.2079 20.4741 31.4688 20.689 31.6988L20.5244 32.0112L19.9871 33.0239C19.6479 33.6658 19.7352 34.3661 20.1785 34.5858L21.1793 35.0836C21.2095 35.1007 21.2431 35.1145 21.2767 35.1248H21.28L22.6267 35.7427L22.3681 34.6579C22.452 34.5583 22.5259 34.4485 22.5931 34.3215L23.0901 33.3809L23.2882 33.0033C23.8255 33.0582 24.3998 33.017 24.9908 32.8797L25.1319 34.1395C25.142 34.2494 25.1688 34.3386 25.2058 34.421V34.4279C25.2595 34.5549 25.3401 34.651 25.4408 34.7197C25.5114 34.7712 25.592 34.8055 25.6793 34.8227L27.8991 35.8834C27.8991 35.8834 27.9125 35.8903 27.9192 35.8937L27.7043 33.9267C27.9293 33.7551 28.1173 33.5079 28.2349 33.2401C28.3591 32.9758 28.4162 32.6909 28.386 32.43L28.245 31.1736C28.8461 30.6758 29.4002 30.0991 29.8938 29.4709L30.8106 29.9172C31.2505 30.1334 31.8852 29.7936 32.2244 29.1619L32.9901 27.7339C33.3293 27.1022 33.2453 26.4157 32.802 26.1994L31.8886 25.7531C32.117 25.0563 32.2748 24.3491 32.3554 23.6488L33.4972 23.0584C34.0043 22.8009 34.377 22.183 34.3871 21.6234L36.2576 20.621C36.2576 20.621 36.2442 20.6142 36.2408 20.6142H36.2476ZM23.3185 27.9501C23.07 27.6103 22.902 27.1743 22.845 26.6491C22.7744 25.9969 22.8752 25.3034 23.1136 24.6409C23.4058 23.8204 23.9095 23.0481 24.5375 22.4748C24.8297 22.2001 25.1453 21.9736 25.4845 21.8019C26.445 21.3145 27.355 21.3728 27.9897 21.8603C28.2584 22.0663 28.48 22.3478 28.6311 22.6979C28.7453 22.9519 28.8226 23.2403 28.8595 23.563C29.061 25.3789 27.8789 27.5451 26.22 28.4033C25.9815 28.5269 25.7464 28.6161 25.5181 28.671C24.6114 28.901 23.8054 28.623 23.3185 27.9501V27.9501Z" fill="url(#paint9_linear_44_966)"/>
<path style="mix-blend-mode:overlay" d="M28.48 35.9624C28.2718 36.0173 28.077 35.9898 27.9259 35.8937C27.9191 35.8903 27.9124 35.8869 27.9057 35.8834L25.6859 34.8227C25.5986 34.8055 25.518 34.7712 25.4475 34.7197L25.1587 35.2655L25.2124 34.4279V34.421L25.2729 33.4427L28.2415 33.2401H28.3053C28.3053 33.2401 28.4061 34.7369 28.48 35.9624Z" fill="url(#paint10_linear_44_966)"/>
<path style="mix-blend-mode:overlay" d="M23.1407 32.8561L23.0971 33.3779L22.8821 35.8667L22.6336 35.7431L21.287 35.1252H21.2836C21.2501 35.1149 21.2165 35.1012 21.1862 35.084L20.1855 34.5862C19.7422 34.3665 19.6549 33.6662 19.9941 33.0243L20.5314 32.0116C20.4844 32.0082 20.4374 31.9979 20.3937 31.9807L20.6959 31.6992L21.0889 31.8846H21.0922L23.1441 32.8561H23.1407Z" fill="url(#paint11_linear_44_966)"/>
<path style="mix-blend-mode:overlay" d="M21.7937 27.7037L20.5076 29.2691L19.9602 29.0151L17.502 27.8719C17.643 27.5905 17.8546 27.3433 18.1031 27.1888C18.1098 27.182 18.1165 27.1785 18.1232 27.1785C18.1467 27.1614 18.1736 27.1476 18.1971 27.1339L19.3423 26.5469L21.7937 27.7037V27.7037Z" fill="url(#paint12_linear_44_966)"/>
<path style="mix-blend-mode:overlay" d="M23.1944 21.312L21.3373 25.095L19.8059 24.4118L18.7044 23.8008C18.4324 23.4918 18.4156 22.9082 18.7011 22.3762L19.4668 20.9412C19.8059 20.3096 20.4406 19.98 20.8839 20.21L21.8041 20.6803L23.1877 21.3085H23.1977L23.1944 21.312Z" fill="url(#paint13_linear_44_966)"/>
<path style="mix-blend-mode:overlay" d="M26.2164 17.94V19.6564L25.9007 20.1542L23.4492 18.9973L23.3081 17.7374C23.2712 17.3976 23.3753 17.0234 23.5734 16.711L26.035 17.8542L26.2164 17.94V17.94Z" fill="url(#paint14_linear_44_966)"/>
<path style="mix-blend-mode:overlay" d="M33.6047 16.9101L31.2137 18.2352L30.8644 18.4275L29.0678 17.6894L28.5909 16.9479L28.5674 16.9101L28.6245 16.6286C28.6614 16.6458 28.6984 16.6664 28.7286 16.6939L29.1148 15.9764C29.4573 15.3482 30.092 15.0255 30.5353 15.2521L31.4118 15.6949L31.4319 15.7052L32.9095 16.3746C32.9364 16.3815 32.9599 16.3952 32.9834 16.4055L33.551 16.6939L33.6047 16.9101V16.9101Z" fill="url(#paint15_linear_44_966)"/>
<path d="M36.8353 22.6148L36.6842 21.2588C36.6473 20.9396 36.4894 20.7164 36.2644 20.6203C36.2577 20.6169 36.251 20.6135 36.2477 20.6135C36.0529 20.5379 35.8111 20.5517 35.5592 20.6787L34.4141 21.2623C34.179 20.6684 33.86 20.1569 33.4704 19.7381L33.6417 19.4223L34.1756 18.4439C34.5148 17.8191 34.4309 17.1326 33.9876 16.9129L33.551 16.6932L32.9835 16.4048C32.96 16.3945 32.9365 16.3808 32.9096 16.3739C32.473 16.216 31.8887 16.5387 31.5663 17.1291L30.8644 18.4267C30.3271 18.3581 29.7529 18.389 29.1618 18.516L29.0678 17.6887L29.0208 17.2596C28.9906 17.0021 28.8865 16.8099 28.7286 16.6932C28.6984 16.6657 28.6615 16.6451 28.6245 16.6279C28.6178 16.6245 28.6077 16.6211 28.601 16.6176C28.4264 16.5352 28.2148 16.5318 27.9898 16.6211C27.9596 16.6348 27.926 16.6485 27.8958 16.6623L26.6398 17.287C26.398 17.4072 26.1865 17.6132 26.0353 17.8534C25.8305 18.1693 25.723 18.5469 25.76 18.8902L25.901 20.1534C25.4141 20.5482 24.954 20.9979 24.5376 21.4888C24.4368 21.6021 24.3428 21.7188 24.2488 21.8355L23.332 21.3618C23.2883 21.3378 23.2413 21.3206 23.1943 21.3103H23.1842C22.7577 21.2108 22.2171 21.5334 21.9148 22.0964L21.1491 23.5314C20.81 24.1664 20.8939 24.8702 21.3372 25.0933L21.7771 25.3199L22.2574 25.567C22.0256 26.2708 21.8712 26.9882 21.7939 27.7023L20.6488 28.2893C20.36 28.4369 20.1182 28.7046 19.9603 29.0136C19.8394 29.247 19.7689 29.5079 19.7622 29.7551C19.7622 29.81 19.7622 29.8649 19.7689 29.9199L19.9234 31.3102C19.957 31.6088 20.0947 31.8285 20.2928 31.9349C20.323 31.9555 20.3566 31.9693 20.3902 31.9796C20.4338 31.9967 20.4809 32.007 20.5279 32.0105C20.6857 32.0345 20.8671 32.0002 21.0518 31.904L21.0853 31.8835H21.0887L22.1935 31.3102C22.432 31.9143 22.751 32.4327 23.1406 32.8549L22.4421 34.18C22.1029 34.822 22.1868 35.5223 22.6301 35.742L22.8786 35.8655L23.6309 36.2397C24.0741 36.4629 24.7088 36.1196 25.048 35.4776L25.1588 35.2648L25.4477 34.719L25.7465 34.156C26.2838 34.2143 26.8547 34.1732 27.4491 34.0358L27.5868 35.2957C27.6171 35.5669 27.7346 35.7694 27.9059 35.8827C27.9126 35.8861 27.9193 35.8896 27.926 35.893C28.0771 35.9891 28.2719 36.0166 28.4801 35.9617C28.554 35.9411 28.6312 35.9102 28.7118 35.869L29.9644 35.2064C30.5152 34.9146 30.9081 34.1903 30.8409 33.5827L30.7033 32.3297C31.301 31.832 31.8551 31.2552 32.3521 30.6236L33.2656 31.0733C33.7088 31.2896 34.3435 30.9497 34.6827 30.3181L35.4484 28.89C35.7876 28.2584 35.7036 27.5718 35.2603 27.3555L34.3435 26.9058C34.5753 26.2124 34.7331 25.5018 34.8103 24.8015L35.9555 24.2145C36.5096 23.933 36.9025 23.2155 36.8353 22.6148V22.6148ZM31.3111 24.7191C31.5126 26.5351 30.3305 28.6978 28.6715 29.5594C27.3047 30.2666 26.0387 29.8581 25.5182 28.6703C25.4074 28.4163 25.3335 28.1279 25.2965 27.8052C25.2663 27.5237 25.2663 27.2354 25.2999 26.9436C25.4644 25.337 26.5256 23.6721 27.9327 22.9581C27.9529 22.9478 27.9697 22.9375 27.9898 22.9306C28.2081 22.8242 28.423 22.7452 28.6312 22.6972C29.998 22.3608 31.1365 23.1606 31.3111 24.7191V24.7191Z" fill="url(#paint16_linear_44_966)"/>
</g>
</g>
<defs>
<linearGradient id="paint0_linear_44_966" x1="15.7187" y1="28.0632" x2="12.8253" y2="2.64673" gradientUnits="userSpaceOnUse">
<stop stop-color="#888BCB"/>
<stop offset="1" stop-color="#383DA9"/>
</linearGradient>
<linearGradient id="paint1_linear_44_966" x1="2.85004" y1="19.3987" x2="13.4485" y2="19.3987" gradientUnits="userSpaceOnUse">
<stop stop-color="#6B5656"/>
<stop offset="1" stop-color="#353133"/>
</linearGradient>
<linearGradient id="paint2_linear_44_966" x1="18.2407" y1="28.6674" x2="15.3858" y2="3.58029" gradientUnits="userSpaceOnUse">
<stop stop-color="#AEB2DC"/>
<stop offset="1" stop-color="#6064BA"/>
</linearGradient>
<linearGradient id="paint3_linear_44_966" x1="14.9229" y1="16.12" x2="18.4893" y2="16.12" gradientUnits="userSpaceOnUse">
<stop stop-color="#EBECF6"/>
<stop offset="1" stop-color="#AEB2DC"/>
</linearGradient>
<linearGradient id="paint4_linear_44_966" x1="5.42236" y1="16.0856" x2="28.2313" y2="16.0856" gradientUnits="userSpaceOnUse">
<stop stop-color="#EBECF6"/>
<stop offset="1" stop-color="#AEB2DC"/>
</linearGradient>
<linearGradient id="paint5_linear_44_966" x1="18.711" y1="15.1351" x2="23.9767" y2="15.1351" gradientUnits="userSpaceOnUse">
<stop stop-color="#EBECF6"/>
<stop offset="1" stop-color="#AEB2DC"/>
</linearGradient>
<linearGradient id="paint6_linear_44_966" x1="9.3916" y1="17.0993" x2="14.9696" y2="17.0993" gradientUnits="userSpaceOnUse">
<stop stop-color="#EBECF6"/>
<stop offset="1" stop-color="#AEB2DC"/>
</linearGradient>
<linearGradient id="paint7_linear_44_966" x1="5.8219" y1="10.6821" x2="27.123" y2="10.6821" gradientUnits="userSpaceOnUse">
<stop stop-color="#EBECF6"/>
<stop offset="1" stop-color="#AEB2DC"/>
</linearGradient>
<linearGradient id="paint8_linear_44_966" x1="6.85645" y1="21.5374" x2="27.543" y2="21.5374" gradientUnits="userSpaceOnUse">
<stop stop-color="#EBECF6"/>
<stop offset="1" stop-color="#AEB2DC"/>
</linearGradient>
<linearGradient id="paint9_linear_44_966" x1="28.0099" y1="35.8834" x2="25.6811" y2="15.4144" gradientUnits="userSpaceOnUse">
<stop stop-color="#888BCB"/>
<stop offset="1" stop-color="#383DA9"/>
</linearGradient>
<linearGradient id="paint10_linear_44_966" x1="26.9385" y1="36.1478" x2="26.6124" y2="33.2898" gradientUnits="userSpaceOnUse">
<stop stop-color="#6B5656"/>
<stop offset="1" stop-color="#353133"/>
</linearGradient>
<linearGradient id="paint11_linear_44_966" x1="21.7471" y1="35.9937" x2="21.2526" y2="31.6364" gradientUnits="userSpaceOnUse">
<stop stop-color="#6B5656"/>
<stop offset="1" stop-color="#353133"/>
</linearGradient>
<linearGradient id="paint12_linear_44_966" x1="19.8191" y1="29.3481" x2="19.4965" y2="26.5278" gradientUnits="userSpaceOnUse">
<stop stop-color="#6B5656"/>
<stop offset="1" stop-color="#353133"/>
</linearGradient>
<linearGradient id="paint13_linear_44_966" x1="21.1526" y1="25.1156" x2="20.5844" y2="20.1304" gradientUnits="userSpaceOnUse">
<stop stop-color="#6B5656"/>
<stop offset="1" stop-color="#353133"/>
</linearGradient>
<linearGradient id="paint14_linear_44_966" x1="25.0242" y1="20.2537" x2="24.6103" y2="16.5929" gradientUnits="userSpaceOnUse">
<stop stop-color="#6B5656"/>
<stop offset="1" stop-color="#353133"/>
</linearGradient>
<linearGradient id="paint15_linear_44_966" x1="31.2472" y1="18.3828" x2="30.872" y2="15.0994" gradientUnits="userSpaceOnUse">
<stop stop-color="#6B5656"/>
<stop offset="1" stop-color="#353133"/>
</linearGradient>
<linearGradient id="paint16_linear_44_966" x1="29.3904" y1="35.7701" x2="27.2139" y2="16.6377" gradientUnits="userSpaceOnUse">
<stop stop-color="#AEB2DC"/>
<stop offset="1" stop-color="#6064BA"/>
</linearGradient>
<clipPath id="clip0_44_966">
<rect width="40" height="40" fill="white"/>
</clipPath>
<clipPath id="clip1_44_966">
<rect width="45" height="46" fill="white" transform="translate(-3 -3)"/>
</clipPath>
</defs>
</svg>
