<svg width="28" height="21" viewBox="0 0 28 21" fill="none" xmlns="http://www.w3.org/2000/svg">
<path d="M0.234939 20.6476C0.148672 20.6292 0.0697474 20.5925 0 20.543L0.234939 20.6476Z" fill="url(#paint0_linear_1722_90133)"/>
<path d="M17.6174 2.08392L15.3634 3.11729V11.8008C15.3634 11.9807 15.2533 12.1441 15.0881 12.212L8.15925 15.0312L7.58108 15.2662L7.29474 17.5789L4.91966 16.1876C4.7765 16.1178 4.67188 15.9692 4.67188 15.7893V5.00047C4.67188 4.93623 4.68656 4.87382 4.71409 4.81692C4.75814 4.71597 4.84257 4.63338 4.94903 4.58932L14.7522 0.599038C14.9064 0.536633 15.0679 0.567836 15.1872 0.657773L17.5751 2.06006C17.588 2.06741 17.6027 2.07475 17.6155 2.08392H17.6174Z" fill="url(#paint1_linear_1722_90133)"/>
<path d="M8.15925 6.85193V17.4792L7.7426 17.6481C7.58108 17.7142 7.41405 17.6775 7.29474 17.5802L4.91966 16.1871C4.7765 16.1173 4.67188 15.9687 4.67188 15.7888V4.99995C4.67188 4.93571 4.68656 4.87331 4.71409 4.81641L7.17177 6.26825L8.15925 6.85193V6.85193Z" fill="url(#paint2_linear_1722_90133)"/>
<path d="M17.8225 2.45813V13.247C17.8225 13.4287 17.7142 13.5902 17.5472 13.6581L13.2431 15.4091L8.15883 17.4795L7.74218 17.6484C7.58066 17.7145 7.41364 17.6777 7.29433 17.5805C7.19705 17.4997 7.13281 17.3786 7.13281 17.2372V6.44842C7.13281 6.38601 7.14566 6.3236 7.17136 6.26854C7.21541 6.16576 7.29984 6.08132 7.40813 6.03727L17.2131 2.04699C17.338 1.99559 17.4683 2.00661 17.5766 2.05984C17.5894 2.06718 17.6041 2.07452 17.6169 2.0837C17.7381 2.15895 17.8225 2.29477 17.8225 2.45813V2.45813Z" fill="url(#paint3_linear_1722_90133)"/>
<path d="M4.67176 7.83605L7.13311 9.3191L14.0032 6.50717C14.4547 6.32179 14.9503 6.65401 14.9503 7.14224V7.8544C14.9503 8.32978 14.6622 8.75745 14.2216 8.93732L7.13127 11.8282L4.66992 10.402V7.83605H4.67176Z" fill="#D8DAEE"/>
<path style="mix-blend-mode:overlay" opacity="0.51" d="M4.67188 7.83594V10.4019L7.13322 11.8262V9.31715L4.67188 7.83594Z" fill="url(#paint4_linear_1722_90133)"/>
<path opacity="0.16" d="M17.8223 6.62891V13.2476C17.8223 13.4293 17.714 13.5908 17.5469 13.6587L13.2428 15.4097C13.1767 15.195 13.1216 14.9711 13.0794 14.7398C13.0519 14.5985 13.0317 14.4553 13.0152 14.3085C12.9987 14.1598 12.9877 14.0148 12.9803 13.8661C12.9509 13.2145 13.0189 12.5611 13.1749 11.9242C13.1951 11.8453 13.2153 11.7664 13.2373 11.6874C13.3034 11.4525 13.3804 11.2212 13.4685 10.9918C13.6246 10.5917 13.8154 10.2062 14.0375 9.83729C14.3514 9.31235 14.7277 8.82044 15.1535 8.38177C15.2875 8.24411 15.4251 8.11196 15.5683 7.98531C15.906 7.68613 16.2695 7.41815 16.6531 7.18872C16.9633 7.0015 17.2881 6.83998 17.624 6.70416C17.6901 6.67846 17.7562 6.65277 17.8223 6.62891V6.62891Z" fill="black"/>
<path d="M26.14 11.8896C26.1381 11.9978 26.1326 12.108 26.1235 12.2163C26.1106 12.3961 26.0904 12.576 26.0629 12.7559C26.0188 13.0404 25.9583 13.3267 25.8812 13.6094C25.872 13.6442 25.8628 13.681 25.8518 13.7158C25.839 13.7654 25.8224 13.8168 25.8078 13.8663C25.7839 13.9453 25.7564 14.0242 25.7307 14.1049C25.6591 14.3142 25.5765 14.5216 25.4884 14.7272C25.4755 14.7565 25.4645 14.7841 25.4517 14.8116C25.4003 14.9272 25.3489 15.0429 25.292 15.153C25.2406 15.2595 25.1874 15.3641 25.1323 15.4669C25.0993 15.5274 25.0662 15.5862 25.0314 15.6449C25.0093 15.6853 24.9855 15.7257 24.9616 15.766C24.8882 15.8909 24.8111 16.0138 24.7322 16.1331C24.6459 16.2671 24.556 16.3974 24.4605 16.5241C24.2807 16.7737 24.0843 17.0105 23.8787 17.2381C23.7098 17.4271 23.5318 17.6052 23.3464 17.7759C23.251 17.8658 23.1537 17.9502 23.0546 18.031C22.9041 18.1613 22.7481 18.2806 22.5884 18.3944C22.4911 18.4642 22.392 18.5321 22.2929 18.5963C22.2874 18.6 22.2818 18.6037 22.2763 18.6073C22.1736 18.6716 22.0708 18.734 21.968 18.7909C21.7771 18.901 21.5807 18.9983 21.3825 19.0845C21.254 19.1414 21.12 19.1928 20.9879 19.2406C20.8887 19.2754 20.7896 19.3066 20.6923 19.3342C20.6722 19.3415 20.6538 19.347 20.6336 19.3525C20.6189 19.3562 20.6042 19.3617 20.5896 19.3654C20.3913 19.4186 20.1968 19.4608 20.0022 19.4883C19.9306 19.4994 19.8609 19.5085 19.7911 19.514C19.7783 19.5159 19.7654 19.5177 19.7526 19.5177C19.7324 19.5196 19.7122 19.5214 19.692 19.5232C19.6828 19.5251 19.6718 19.5269 19.6627 19.5269C19.4094 19.5452 19.1616 19.5416 18.9193 19.5196C18.8055 19.5085 18.6917 19.492 18.5816 19.47L18.7706 19.8628C18.7706 19.8628 18.7688 19.8609 18.7669 19.8609L17.5354 19.1268H17.5335C17.0086 18.868 16.5424 18.4935 16.1569 18.0218C15.9881 17.8162 15.8339 17.5905 15.6981 17.3482C15.4172 16.8526 15.2117 16.2855 15.096 15.6559C15.0685 15.5146 15.0483 15.3696 15.0318 15.2246C15.0153 15.0759 15.0043 14.9309 14.9969 14.7822C14.9675 14.1306 15.0355 13.4772 15.1915 12.8403C15.2686 12.5228 15.3677 12.2126 15.4851 11.9079C15.6412 11.5078 15.832 11.1223 16.0541 10.7534C16.3313 10.2872 16.6598 9.84852 17.0288 9.44839C17.2031 9.25567 17.3904 9.07396 17.5849 8.90143C17.9226 8.60225 18.2861 8.33427 18.6697 8.10484C18.9799 7.91762 19.3047 7.7561 19.6406 7.62028C19.7801 7.56521 19.9214 7.51198 20.0628 7.4661C20.2078 7.41838 20.3509 7.378 20.4923 7.34312C20.8318 7.25686 21.1659 7.20546 21.4908 7.1816C21.8872 7.15591 22.269 7.17242 22.6324 7.23299C22.8876 7.27521 23.1353 7.33762 23.3721 7.42021C23.3831 7.42388 23.3941 7.42755 23.4033 7.43122C23.607 7.50464 23.8034 7.59274 23.9907 7.69553L23.998 7.6992L24.2421 7.84604L24.2586 7.85705L25.839 8.80415L25.1617 8.67199C25.3269 8.87756 25.4737 9.10333 25.6022 9.34744C25.7509 9.63377 25.872 9.94397 25.9601 10.278C26.0243 10.513 26.0721 10.7607 26.1033 11.0195C26.1069 11.0489 26.1106 11.0783 26.1125 11.1076C26.1235 11.2196 26.1326 11.3334 26.1381 11.449C26.1437 11.5959 26.1455 11.7427 26.14 11.8896V11.8896Z" fill="url(#paint5_linear_1722_90133)"/>
<path style="mix-blend-mode:overlay" opacity="0.51" d="M19.826 20.4161C19.8077 20.4106 19.7893 20.4051 19.7709 20.3977C19.7416 20.3885 19.714 20.3775 19.6865 20.3665C19.3598 20.2399 19.0533 20.0728 18.7706 19.8636C18.7688 19.8636 18.7688 19.8618 18.7669 19.8618L17.5354 19.1276H17.5335C17.0086 18.8688 16.5424 18.4944 16.1569 18.0226C15.9881 17.8171 15.8339 17.5913 15.6981 17.349C15.4172 16.8535 15.2117 16.2863 15.096 15.6567C15.0685 15.5154 15.0483 15.3704 15.0318 15.2254C15.0153 15.0767 15.0043 14.9317 14.9969 14.7831C14.9675 14.1315 15.0355 13.478 15.1915 12.8411C15.2686 12.5236 15.3677 12.2134 15.4851 11.9087C15.6412 11.5086 15.832 11.1232 16.0541 10.7542C16.3313 10.288 16.6598 9.84935 17.0288 9.44922L19.0056 10.3982L19.0863 11.393L19.1928 12.687L19.2662 13.5698L19.3837 15.0198L19.4552 15.8972L19.5764 17.3711L19.6498 18.2576L19.7434 19.4102L19.7526 19.5185L19.826 20.4161V20.4161Z" fill="url(#paint6_linear_1722_90133)"/>
<path d="M27.9806 12.8351C27.9806 12.8865 27.9806 12.9379 27.9769 12.9911C27.9751 13.0994 27.9696 13.2095 27.9604 13.3178C27.92 13.8703 27.8117 14.4246 27.6447 14.9679C27.6208 15.0468 27.5933 15.1258 27.5676 15.2065C27.5437 15.2781 27.518 15.3497 27.4905 15.4213C27.4575 15.5057 27.4244 15.5901 27.3895 15.6746C27.3694 15.7259 27.3473 15.7773 27.3253 15.8287C27.3125 15.8581 27.3014 15.8856 27.2886 15.9132C27.2372 16.0288 27.1858 16.1444 27.1289 16.2546C27.028 16.4638 26.9178 16.6694 26.7985 16.8676C26.7251 16.9924 26.648 17.1154 26.5691 17.2347C26.314 17.6275 26.0276 17.9964 25.7156 18.3396C25.5467 18.5287 25.3687 18.7067 25.1833 18.8774C24.941 19.1032 24.6896 19.3088 24.4253 19.496C24.328 19.5657 24.2289 19.6336 24.1298 19.6979C24.0215 19.7658 23.9132 19.8319 23.8049 19.8924C23.614 20.0026 23.4176 20.0998 23.2194 20.1861C23.0909 20.243 22.9569 20.2944 22.8248 20.3421C22.7055 20.3843 22.588 20.421 22.4705 20.4541C22.4558 20.4578 22.4412 20.4633 22.4265 20.4669C22.2282 20.5202 22.0337 20.5624 21.8391 20.5899C21.7345 20.6064 21.6317 20.6174 21.5289 20.6248C21.5198 20.6266 21.5087 20.6285 21.4996 20.6285C21.2463 20.6468 20.9985 20.6431 20.7562 20.6211C20.624 20.6083 20.4919 20.5881 20.3634 20.5624C20.1799 20.5257 20 20.4779 19.8275 20.4155C19.8091 20.41 19.7908 20.4045 19.7724 20.3972C19.743 20.388 19.7155 20.377 19.688 20.366C19.3613 20.2393 19.0547 20.0723 18.7721 19.8631C18.7702 19.8631 18.7702 19.8612 18.7684 19.8612C18.4839 19.6538 18.2233 19.406 17.9938 19.1234C17.825 18.9178 17.6708 18.692 17.535 18.4498C17.2541 17.9542 17.0486 17.387 16.9329 16.7575C16.9054 16.6161 16.8852 16.473 16.8687 16.3261C16.8522 16.1775 16.8412 16.0325 16.8338 15.8838C16.8045 15.2322 16.8724 14.5788 17.0284 13.9419C17.0486 13.863 17.0688 13.784 17.0908 13.7051C17.1569 13.4702 17.234 13.2389 17.3221 13.0095C17.4781 12.6093 17.669 12.2239 17.8911 11.855C18.2049 11.33 18.5812 10.8381 19.007 10.3994C19.141 10.2618 19.2787 10.1296 19.4218 10.003C19.7595 9.70381 20.123 9.43583 20.5066 9.2064C20.8168 9.01918 21.1416 8.85766 21.4775 8.72184C21.617 8.66677 21.7584 8.61355 21.8997 8.56766C22.0447 8.51994 22.1879 8.47956 22.3292 8.44468C22.6688 8.35842 23.0028 8.30702 23.3277 8.28316C23.7241 8.25747 24.1059 8.27399 24.4693 8.33456C24.7245 8.37677 24.9723 8.43918 25.209 8.52177C25.22 8.52544 25.2311 8.52912 25.2402 8.53279C25.4495 8.60804 25.6495 8.69798 25.8404 8.80443C26.2846 9.04855 26.6756 9.37526 26.9986 9.77172C27.061 9.84881 27.1216 9.92957 27.1766 10.014C27.2335 10.0966 27.2886 10.181 27.34 10.2691C27.3749 10.3279 27.4079 10.3884 27.4391 10.449C27.6942 10.9372 27.8649 11.4989 27.9402 12.1211C27.9475 12.1835 27.9549 12.2478 27.9585 12.3138C27.9659 12.3928 27.9714 12.4717 27.9751 12.5506C27.9787 12.646 27.9806 12.7397 27.9806 12.8351V12.8351Z" fill="url(#paint7_linear_1722_90133)"/>
<path d="M23.2196 20.1866C23.0893 20.2435 22.9572 20.2949 22.8232 20.3426C22.7057 20.3849 22.5864 20.4216 22.4708 20.4546C22.4561 20.4601 22.4414 20.4638 22.4267 20.4674L22.4157 20.3316L22.3533 19.5571L22.2523 18.2906L22.1826 17.4298L22.1679 17.2334L22.0963 16.3579L22.0871 16.2349L21.9899 15.0345L21.9201 14.1626L21.8155 12.854L21.7458 11.9785L21.4814 8.72051C21.6209 8.66545 21.7623 8.61222 21.9054 8.56634C22.0504 8.51861 22.1918 8.47823 22.3331 8.44336L22.579 11.6903L22.647 12.5658L22.7461 13.8818L22.814 14.7537L22.8709 15.5172L22.9131 16.0862L22.981 16.9617L23.1425 19.0798L23.227 20.1866H23.2196Z" fill="url(#paint8_linear_1722_90133)"/>
<path d="M27.9742 12.5527C27.9816 12.6995 27.9816 12.8463 27.9779 12.9932L16.9321 16.7595C16.9064 16.62 16.8844 16.475 16.8679 16.3282C16.8514 16.1814 16.8403 16.0345 16.833 15.8877L27.9394 12.125C27.9559 12.2645 27.9669 12.4077 27.9742 12.5545V12.5527Z" fill="url(#paint9_linear_1722_90133)"/>
<path d="M25.8986 14.1694C25.9041 14.5328 25.8931 14.909 25.8656 15.3C25.8509 15.5111 25.8325 15.7295 25.8069 15.9516C25.7995 16.0195 25.7922 16.0837 25.783 16.1498C25.783 16.17 25.7793 16.1884 25.7757 16.2067C25.6674 17.0492 25.4765 17.9412 25.1828 18.8773C24.9424 19.1031 24.6891 19.3068 24.4248 19.4959C24.3275 19.5656 24.2302 19.6317 24.1292 19.6959C24.1348 19.6537 24.1439 19.6097 24.1604 19.5638C24.1861 19.4922 24.2137 19.4188 24.2394 19.349C24.4541 18.7378 24.623 18.145 24.7478 17.5668C24.8304 17.1924 24.8946 16.8271 24.9424 16.4692C24.946 16.4453 24.9497 16.4215 24.9515 16.3994C24.9919 16.0892 25.0231 15.7846 25.0415 15.4891C25.0763 14.9659 25.0782 14.4649 25.0525 13.9876C25.0451 13.8371 25.0341 13.694 25.0213 13.5508C25.0176 13.4957 25.0139 13.4425 25.0084 13.3875C25.0011 13.2994 24.9901 13.2094 24.9809 13.1231V13.1195C24.9222 12.6257 24.8359 12.1614 24.7368 11.7319C24.6689 11.4474 24.5973 11.1776 24.5202 10.9243C24.0301 9.34027 23.3896 8.40052 23.3749 8.37849C23.3528 8.34912 23.3382 8.31608 23.3271 8.28121C23.7236 8.25551 24.1054 8.27203 24.467 8.3326C24.7258 8.81349 25.0763 9.56787 25.3682 10.5517C25.4232 10.7371 25.4728 10.9298 25.5242 11.1317C25.5425 11.2051 25.5609 11.2785 25.5774 11.3574C25.6784 11.7998 25.7628 12.2954 25.8215 12.8368C25.8362 12.98 25.8491 13.1213 25.8601 13.2663C25.8711 13.4095 25.8803 13.5526 25.8858 13.7013C25.8931 13.8555 25.895 14.0097 25.8968 14.1694H25.8986Z" fill="url(#paint10_linear_1722_90133)"/>
<path d="M21.4991 20.6269C21.244 20.6471 20.9962 20.6434 20.7557 20.6196C20.6236 20.6067 20.4914 20.5865 20.3629 20.5608C20.284 20.4378 20.2088 20.313 20.1372 20.1846C19.8215 19.6321 19.5608 19.0319 19.3553 18.395C19.269 18.1307 19.1919 17.859 19.124 17.5819C19.0084 17.1047 18.9184 16.6109 18.8597 16.097C18.8432 15.9502 18.8285 15.8052 18.8175 15.6583C18.8065 15.5115 18.7955 15.3665 18.79 15.2178C18.7789 14.9975 18.7734 14.7755 18.7734 14.5534C18.7734 14.2634 18.7808 13.9679 18.7973 13.6687C18.801 13.5677 18.8083 13.4704 18.8157 13.3695C18.8322 13.1584 18.8524 12.9528 18.8744 12.7509C19.0065 11.6075 19.2378 10.642 19.4214 9.99776C19.7591 9.69858 20.1225 9.43244 20.5061 9.20117C20.5006 9.24522 20.4914 9.29111 20.4731 9.33516C20.4566 9.37554 19.9591 10.7062 19.7224 12.5564C19.6857 12.8501 19.6545 13.1584 19.6361 13.476C19.6049 13.9458 19.5939 14.4322 19.6122 14.9351C19.6177 15.082 19.6251 15.2288 19.6361 15.3775C19.6453 15.5243 19.6581 15.6693 19.6746 15.8143V15.818C19.7242 16.2805 19.8031 16.7504 19.9151 17.2148C19.9812 17.4864 20.0564 17.7581 20.1464 18.0279C20.3758 18.7217 20.6878 19.399 21.1045 20.0359C21.2091 20.1992 21.3229 20.3571 21.4422 20.5131C21.4661 20.5461 21.4844 20.5828 21.4973 20.6251L21.4991 20.6269Z" fill="url(#paint11_linear_1722_90133)"/>
<path d="M27.4392 10.4488C26.7949 10.7828 26.1745 11.0857 25.5798 11.3592C25.2953 11.4913 25.0127 11.6161 24.7392 11.7336C23.9958 12.0548 23.2947 12.3301 22.6413 12.5669C22.4999 12.6183 22.3623 12.6678 22.2265 12.7156C22.1292 12.7504 22.0319 12.7816 21.9365 12.8147L21.8116 12.8569C20.9949 13.1267 20.2662 13.3304 19.6348 13.4846C19.3338 13.5599 19.0529 13.6223 18.7978 13.6737C17.8929 13.8572 17.2854 13.9215 17.0303 13.9416C17.1074 13.6259 17.2065 13.3158 17.3239 13.0111C17.4414 12.9982 17.5938 12.9799 17.7773 12.9523C18.0691 12.9101 18.4381 12.8477 18.8767 12.7559C19.1337 12.7027 19.4182 12.6385 19.7229 12.5632C19.7688 12.5522 19.8147 12.5412 19.8605 12.5283C20.3892 12.3944 21.0206 12.2163 21.7401 11.9795C21.8759 11.9337 22.0154 11.8878 22.1567 11.84C22.2925 11.7923 22.432 11.7446 22.5734 11.6914C23.1736 11.4766 23.8251 11.2233 24.5189 10.926C24.7943 10.8085 25.0788 10.6837 25.3688 10.5534C25.89 10.3166 26.4333 10.056 26.9968 9.77148C27.1638 9.97889 27.3107 10.2047 27.4373 10.4488H27.4392Z" fill="url(#paint12_linear_1722_90133)"/>
<path d="M27.6439 14.9668C27.62 15.0476 27.5925 15.1265 27.5668 15.2072C27.4952 15.4165 27.4145 15.6257 27.3245 15.8295C27.3135 15.8588 27.3007 15.8864 27.2878 15.9139C26.8455 15.9873 26.4123 16.0717 25.9956 16.1598C25.9204 16.1764 25.847 16.191 25.7735 16.2076C25.735 16.2149 25.6946 16.2259 25.6561 16.2333C25.4725 16.2736 25.2908 16.3177 25.1128 16.3617C25.0577 16.3728 25.0063 16.3856 24.9513 16.4003C24.2409 16.5765 23.5783 16.7655 22.9745 16.9619C22.835 17.006 22.701 17.05 22.5688 17.0941C22.4293 17.1418 22.2954 17.1877 22.165 17.2336C22.0916 17.2593 22.0182 17.285 21.9485 17.3107C21.3428 17.5291 20.8123 17.742 20.3589 17.9384C20.2874 17.9714 20.2139 18.0008 20.146 18.0338C20.0763 18.0651 20.0065 18.0944 19.9386 18.1256C19.7294 18.2192 19.5348 18.311 19.355 18.3991C18.7272 18.7056 18.2647 18.9644 17.993 19.1259C17.8242 18.9185 17.67 18.6946 17.5342 18.4505C17.7673 18.3055 18.3069 17.9843 19.1237 17.586C19.2962 17.5016 19.4816 17.4153 19.678 17.3254C19.7551 17.2905 19.834 17.2556 19.9148 17.2207C20.5113 16.9546 21.2106 16.6701 21.998 16.3929C22.0292 16.3819 22.0623 16.3691 22.0935 16.3581C22.2274 16.3122 22.3633 16.2645 22.5009 16.2186C22.6331 16.1745 22.7707 16.1305 22.9084 16.0864C23.5673 15.8772 24.2813 15.6734 25.043 15.4899C25.3129 15.4238 25.5863 15.3614 25.8672 15.3009C25.9553 15.2807 26.0452 15.2623 26.137 15.2458C26.6234 15.1448 27.1263 15.0512 27.6457 14.9686L27.6439 14.9668Z" fill="url(#paint13_linear_1722_90133)"/>
<defs>
<linearGradient id="paint0_linear_1722_90133" x1="0" y1="20.5944" x2="0.234939" y2="20.5944" gradientUnits="userSpaceOnUse">
<stop stop-color="#EBECF6"/>
<stop offset="1" stop-color="#AEB2DC"/>
</linearGradient>
<linearGradient id="paint1_linear_1722_90133" x1="4.67187" y1="9.07335" x2="17.6174" y2="9.07335" gradientUnits="userSpaceOnUse">
<stop stop-color="#AEB2DC"/>
<stop offset="1" stop-color="#6064BA"/>
</linearGradient>
<linearGradient id="paint2_linear_1722_90133" x1="4.67188" y1="11.2479" x2="8.15925" y2="11.2479" gradientUnits="userSpaceOnUse">
<stop stop-color="#888BCB"/>
<stop offset="1" stop-color="#383DA9"/>
</linearGradient>
<linearGradient id="paint3_linear_1722_90133" x1="7.13281" y1="9.84768" x2="17.8225" y2="9.84768" gradientUnits="userSpaceOnUse">
<stop stop-color="#888BCB"/>
<stop offset="1" stop-color="#383DA9"/>
</linearGradient>
<linearGradient id="paint4_linear_1722_90133" x1="4.67188" y1="9.83108" x2="7.13322" y2="9.83108" gradientUnits="userSpaceOnUse">
<stop stop-color="#6B5656"/>
<stop offset="1" stop-color="#353133"/>
</linearGradient>
<linearGradient id="paint5_linear_1722_90133" x1="21.287" y1="19.582" x2="19.9251" y2="7.35046" gradientUnits="userSpaceOnUse">
<stop stop-color="#888BCB"/>
<stop offset="1" stop-color="#383DA9"/>
</linearGradient>
<linearGradient id="paint6_linear_1722_90133" x1="14.9896" y1="14.9317" x2="19.826" y2="14.9317" gradientUnits="userSpaceOnUse">
<stop stop-color="#6B5656"/>
<stop offset="1" stop-color="#353133"/>
</linearGradient>
<linearGradient id="paint7_linear_1722_90133" x1="23.0982" y1="20.4522" x2="21.762" y2="8.45203" gradientUnits="userSpaceOnUse">
<stop stop-color="#AEB2DC"/>
<stop offset="1" stop-color="#6064BA"/>
</linearGradient>
<linearGradient id="paint8_linear_1722_90133" x1="21.4778" y1="14.4563" x2="23.2196" y2="14.4563" gradientUnits="userSpaceOnUse">
<stop stop-color="#EBECF6"/>
<stop offset="1" stop-color="#AEB2DC"/>
</linearGradient>
<linearGradient id="paint9_linear_1722_90133" x1="16.833" y1="14.4413" x2="27.9797" y2="14.4413" gradientUnits="userSpaceOnUse">
<stop stop-color="#EBECF6"/>
<stop offset="1" stop-color="#AEB2DC"/>
</linearGradient>
<linearGradient id="paint10_linear_1722_90133" x1="23.3271" y1="13.984" x2="25.9005" y2="13.984" gradientUnits="userSpaceOnUse">
<stop stop-color="#EBECF6"/>
<stop offset="1" stop-color="#AEB2DC"/>
</linearGradient>
<linearGradient id="paint11_linear_1722_90133" x1="18.7734" y1="14.9241" x2="21.4991" y2="14.9241" gradientUnits="userSpaceOnUse">
<stop stop-color="#EBECF6"/>
<stop offset="1" stop-color="#AEB2DC"/>
</linearGradient>
<linearGradient id="paint12_linear_1722_90133" x1="17.0303" y1="11.8547" x2="27.4392" y2="11.8547" gradientUnits="userSpaceOnUse">
<stop stop-color="#EBECF6"/>
<stop offset="1" stop-color="#AEB2DC"/>
</linearGradient>
<linearGradient id="paint13_linear_1722_90133" x1="17.5342" y1="17.0464" x2="27.6439" y2="17.0464" gradientUnits="userSpaceOnUse">
<stop stop-color="#EBECF6"/>
<stop offset="1" stop-color="#AEB2DC"/>
</linearGradient>
</defs>
</svg>
