<svg width="50" height="50" viewBox="0 0 50 50" fill="none" xmlns="http://www.w3.org/2000/svg">
<mask id="mask0_257_63" style="mask-type:luminance" maskUnits="userSpaceOnUse" x="1" y="8" width="48" height="34">
<path d="M1 8H49V42H1V8Z" fill="white"/>
</mask>
<g mask="url(#mask0_257_63)">
<path d="M48.5203 15.3384C48.5203 15.3384 48.0508 12.0084 46.6125 10.5414C44.7891 8.6163 42.7406 8.60686 41.8055 8.49352C35.0852 8.00635 25.0094 8.00635 25.0094 8.00635H24.9906C24.9906 8.00635 14.9148 8.00635 8.19453 8.49352C7.25938 8.60686 5.21094 8.6163 3.3875 10.5414C1.94922 12.0084 1.47969 15.3384 1.47969 15.3384C1.47969 15.3384 1 19.2452 1 23.1576V26.8236C1 30.7352 1.47969 34.6428 1.47969 34.6428C1.47969 34.6428 1.94922 37.9728 3.3875 39.439C5.21563 41.3641 7.61172 41.3027 8.67891 41.5066C12.518 41.8749 25 41.9938 25 41.9938C25 41.9938 35.0852 41.9796 41.8055 41.4877C42.7453 41.3736 44.7891 41.3641 46.6125 39.439C48.0508 37.9728 48.5203 34.6428 48.5203 34.6428C48.5203 34.6428 49 30.7305 49 26.8236V23.1576C49 19.2452 48.5203 15.3384 48.5203 15.3384ZM20.0422 31.2649V17.6893L33.0125 24.5011L20.0422 31.2649Z" fill="#E91D00"/>
</g>
<path d="M20.0422 17.6892V31.2648L33.0125 24.501L20.0422 17.6892Z" fill="white"/>
</svg>
