<svg width="50" height="50" viewBox="0 0 50 50" fill="none" xmlns="http://www.w3.org/2000/svg">
<mask id="mask0_257_75" style="mask-type:luminance" maskUnits="userSpaceOnUse" x="1" y="8" width="48" height="34">
<path d="M1 8H49V42H1V8Z" fill="white"/>
</mask>
<g mask="url(#mask0_257_75)">
<path d="M40.3561 42.0016H9.65295C4.8967 42.0016 1.02795 38.1477 1.02795 33.4115V16.5894C1.02795 11.8524 4.8967 7.99927 9.65295 7.99927H40.3561C45.1123 7.99927 48.9811 11.8524 48.9811 16.5894V33.4115C48.9811 38.1477 45.1123 42.0016 40.3561 42.0016ZM9.65295 9.90291C5.95139 9.90291 2.93967 12.9025 2.93967 16.5894V33.4115C2.93967 37.0984 5.95139 40.098 9.65295 40.098H40.3561C44.0584 40.098 47.0701 37.0984 47.0701 33.4115V16.5894C47.0701 12.9025 44.0584 9.90291 40.3561 9.90291H9.65295ZM20.9108 32.5843C20.5006 32.5843 20.0912 32.4772 19.7178 32.262C18.9709 31.8325 18.5248 31.0636 18.5248 30.2046V18.4627C18.5248 17.6037 18.9709 16.8348 19.7178 16.4053C20.4647 15.9758 21.3569 15.975 22.1037 16.4053L32.3139 22.2754C33.0608 22.705 33.5069 23.4746 33.5069 24.3337C33.5069 25.1927 33.0608 25.9616 32.3139 26.3919L22.1037 32.262C21.7303 32.4772 21.3201 32.5843 20.9108 32.5843ZM20.9131 17.9889C20.8037 17.9889 20.717 18.0286 20.6733 18.0534C20.6022 18.0946 20.4358 18.2165 20.4358 18.4627V30.2046C20.4358 30.4508 20.6022 30.5727 20.6733 30.6139C20.7444 30.6543 20.9342 30.7366 21.1483 30.6139L31.3576 24.743C31.5717 24.6195 31.5951 24.4152 31.5951 24.3337C31.5951 24.2513 31.5717 24.0471 31.3576 23.9243L21.1483 18.0534C21.0639 18.0053 20.9834 17.9889 20.9131 17.9889Z" fill="white"/>
</g>
</svg>
