<svg width="296" height="91" viewBox="0 0 296 91" fill="none" xmlns="http://www.w3.org/2000/svg">
<path d="M117.56 34.352C119.352 34.352 120.931 34.1387 122.296 33.712C123.683 33.264 124.835 32.6453 125.752 31.856C126.691 31.0453 127.395 30.0853 127.864 28.976C128.333 27.8667 128.568 26.64 128.568 25.296C128.568 22.5653 127.672 20.5067 125.88 19.12C124.088 17.7333 121.4 17.04 117.816 17.04H111.032V34.352H117.56ZM138.744 58H133.24C132.109 58 131.277 57.5627 130.744 56.688L118.84 40.304C118.477 39.792 118.083 39.4293 117.656 39.216C117.251 38.9813 116.611 38.864 115.736 38.864H111.032V58H104.856V12.144H117.816C120.717 12.144 123.224 12.4427 125.336 13.04C127.448 13.616 129.187 14.4587 130.552 15.568C131.939 16.6773 132.963 18.0213 133.624 19.6C134.285 21.1573 134.616 22.9067 134.616 24.848C134.616 26.4693 134.36 27.984 133.848 29.392C133.336 30.8 132.589 32.0693 131.608 33.2C130.648 34.3093 129.464 35.2587 128.056 36.048C126.669 36.8373 125.091 37.4347 123.32 37.84C124.109 38.288 124.792 38.9387 125.368 39.792L138.744 58ZM163.271 38.256C163.271 36.9333 163.079 35.728 162.695 34.64C162.332 33.5307 161.788 32.5813 161.063 31.792C160.359 30.9813 159.495 30.3627 158.471 29.936C157.447 29.488 156.284 29.264 154.983 29.264C152.252 29.264 150.087 30.064 148.487 31.664C146.908 33.2427 145.927 35.44 145.543 38.256H163.271ZM167.879 53.456C167.175 54.3093 166.332 55.056 165.351 55.696C164.369 56.3147 163.313 56.8267 162.183 57.232C161.073 57.6373 159.921 57.936 158.727 58.128C157.532 58.3413 156.348 58.448 155.175 58.448C152.935 58.448 150.865 58.0747 148.967 57.328C147.089 56.56 145.457 55.4507 144.071 54C142.705 52.528 141.639 50.7147 140.871 48.56C140.103 46.4053 139.719 43.9307 139.719 41.136C139.719 38.8747 140.06 36.7627 140.743 34.8C141.447 32.8373 142.449 31.1413 143.751 29.712C145.052 28.2613 146.641 27.1307 148.519 26.32C150.396 25.488 152.508 25.072 154.855 25.072C156.796 25.072 158.588 25.4027 160.231 26.064C161.895 26.704 163.324 27.6427 164.519 28.88C165.735 30.096 166.684 31.6107 167.367 33.424C168.049 35.216 168.391 37.264 168.391 39.568C168.391 40.464 168.295 41.0613 168.103 41.36C167.911 41.6587 167.548 41.808 167.015 41.808H145.351C145.415 43.856 145.692 45.6373 146.183 47.152C146.695 48.6667 147.399 49.936 148.295 50.96C149.191 51.9627 150.257 52.72 151.495 53.232C152.732 53.7227 154.119 53.968 155.655 53.968C157.084 53.968 158.311 53.808 159.335 53.488C160.38 53.1467 161.276 52.784 162.023 52.4C162.769 52.016 163.388 51.664 163.879 51.344C164.391 51.0027 164.828 50.832 165.191 50.832C165.66 50.832 166.023 51.0133 166.279 51.376L167.879 53.456ZM192.955 43.408C190.331 43.4933 188.091 43.7067 186.235 44.048C184.4 44.368 182.896 44.7947 181.723 45.328C180.571 45.8613 179.728 46.4907 179.195 47.216C178.683 47.9413 178.427 48.752 178.427 49.648C178.427 50.5013 178.566 51.2373 178.843 51.856C179.12 52.4747 179.494 52.9867 179.963 53.392C180.454 53.776 181.019 54.064 181.659 54.256C182.32 54.4267 183.024 54.512 183.771 54.512C184.774 54.512 185.691 54.416 186.523 54.224C187.355 54.0107 188.134 53.712 188.859 53.328C189.606 52.944 190.31 52.4853 190.971 51.952C191.654 51.4187 192.315 50.8107 192.955 50.128V43.408ZM174.555 30.16C176.347 28.432 178.278 27.1413 180.347 26.288C182.416 25.4347 184.71 25.008 187.227 25.008C189.04 25.008 190.651 25.3067 192.059 25.904C193.467 26.5013 194.651 27.3333 195.611 28.4C196.571 29.4667 197.296 30.7573 197.787 32.272C198.278 33.7867 198.523 35.4507 198.523 37.264V58H195.995C195.44 58 195.014 57.9147 194.715 57.744C194.416 57.552 194.182 57.1893 194.011 56.656L193.371 53.584C192.518 54.3733 191.686 55.0773 190.875 55.696C190.064 56.2933 189.211 56.8053 188.315 57.232C187.419 57.6373 186.459 57.9467 185.435 58.16C184.432 58.3947 183.312 58.512 182.075 58.512C180.816 58.512 179.632 58.3413 178.523 58C177.414 57.6373 176.443 57.104 175.611 56.4C174.8 55.696 174.15 54.8107 173.659 53.744C173.19 52.656 172.955 51.376 172.955 49.904C172.955 48.624 173.307 47.3973 174.011 46.224C174.715 45.0293 175.856 43.9733 177.435 43.056C179.014 42.1387 181.072 41.392 183.611 40.816C186.15 40.2187 189.264 39.8773 192.955 39.792V37.264C192.955 34.7467 192.411 32.848 191.323 31.568C190.235 30.2667 188.646 29.616 186.555 29.616C185.147 29.616 183.963 29.7973 183.003 30.16C182.064 30.5013 181.243 30.896 180.539 31.344C179.856 31.7707 179.259 32.1653 178.747 32.528C178.256 32.8693 177.766 33.04 177.275 33.04C176.891 33.04 176.56 32.944 176.283 32.752C176.006 32.5387 175.771 32.2827 175.579 31.984L174.555 30.16ZM213.088 10.864V58H207.391V10.864H213.088ZM260.068 28.016C260.068 28.4213 259.993 28.816 259.844 29.2C259.716 29.584 259.534 29.9147 259.3 30.192L241.732 53.552H259.46V58H235.044V55.632C235.044 55.3547 235.108 55.0347 235.236 54.672C235.364 54.288 235.556 53.9253 235.812 53.584L253.476 30.064H236.036V25.584H260.068V28.016ZM287.708 38.256C287.708 36.9333 287.516 35.728 287.132 34.64C286.769 33.5307 286.225 32.5813 285.5 31.792C284.796 30.9813 283.932 30.3627 282.908 29.936C281.884 29.488 280.721 29.264 279.42 29.264C276.689 29.264 274.524 30.064 272.924 31.664C271.345 33.2427 270.364 35.44 269.98 38.256H287.708ZM292.316 53.456C291.612 54.3093 290.769 55.056 289.788 55.696C288.807 56.3147 287.751 56.8267 286.62 57.232C285.511 57.6373 284.359 57.936 283.164 58.128C281.969 58.3413 280.785 58.448 279.612 58.448C277.372 58.448 275.303 58.0747 273.404 57.328C271.527 56.56 269.895 55.4507 268.508 54C267.143 52.528 266.076 50.7147 265.308 48.56C264.54 46.4053 264.156 43.9307 264.156 41.136C264.156 38.8747 264.497 36.7627 265.18 34.8C265.884 32.8373 266.887 31.1413 268.188 29.712C269.489 28.2613 271.079 27.1307 272.956 26.32C274.833 25.488 276.945 25.072 279.292 25.072C281.233 25.072 283.025 25.4027 284.668 26.064C286.332 26.704 287.761 27.6427 288.956 28.88C290.172 30.096 291.121 31.6107 291.804 33.424C292.487 35.216 292.828 37.264 292.828 39.568C292.828 40.464 292.732 41.0613 292.54 41.36C292.348 41.6587 291.985 41.808 291.452 41.808H269.788C269.852 43.856 270.129 45.6373 270.62 47.152C271.132 48.6667 271.836 49.936 272.732 50.96C273.628 51.9627 274.695 52.72 275.932 53.232C277.169 53.7227 278.556 53.968 280.092 53.968C281.521 53.968 282.748 53.808 283.772 53.488C284.817 53.1467 285.713 52.784 286.46 52.4C287.207 52.016 287.825 51.664 288.316 51.344C288.828 51.0027 289.265 50.832 289.628 50.832C290.097 50.832 290.46 51.0133 290.716 51.376L292.316 53.456Z" fill="white"/>
<path d="M228.341 25.584V58H222.645V25.584H228.341ZM229.557 15.408C229.557 15.9627 229.439 16.4853 229.205 16.976C228.991 17.4453 228.693 17.872 228.309 18.256C227.946 18.6187 227.509 18.9067 226.997 19.12C226.506 19.3333 225.983 19.44 225.429 19.44C224.874 19.44 224.351 19.3333 223.861 19.12C223.391 18.9067 222.975 18.6187 222.613 18.256C222.25 17.872 221.962 17.4453 221.749 16.976C221.535 16.4853 221.429 15.9627 221.429 15.408C221.429 14.8533 221.535 14.3307 221.749 13.84C221.962 13.328 222.25 12.8907 222.613 12.528C222.975 12.144 223.391 11.8453 223.861 11.632C224.351 11.4187 224.874 11.312 225.429 11.312C225.983 11.312 226.506 11.4187 226.997 11.632C227.509 11.8453 227.946 12.144 228.309 12.528C228.693 12.8907 228.991 13.328 229.205 13.84C229.439 14.3307 229.557 14.8533 229.557 15.408Z" fill="#F79C0B"/>
<path d="M84.4747 32.8716C84.4747 47.1762 72.8181 58.7688 58.4386 58.7688L33.8144 24.4478L21.2803 6.97437H58.4386C72.8181 6.97437 84.4747 18.567 84.4747 32.8716Z" fill="#3A1BB6"/>
<path d="M84.4748 84.3855L6.21484 6.97437V84.3855H84.4748Z" fill="#009BE5"/>
<path d="M62.6818 62.8296L6.21484 84.3854L41.1235 41.5039L62.6818 62.8296Z" fill="#0087D9"/>
<path d="M6.21484 84.3854L21.2804 21.876L41.1235 41.5039L6.21484 84.3854Z" fill="#006FCB"/>
<path d="M6.21484 84.3855V6.97437L21.2804 21.8761L6.21484 84.3855Z" fill="#0047BD"/>
<path d="M58.4387 58.7688L29.2248 6.97437H6.21484L58.4387 58.7688Z" fill="#3A1BB6"/>
<path d="M58.4387 58.7688L29.2248 6.97437H6.21484L58.4387 58.7688Z" fill="black" fill-opacity="0.1"/>
<path d="M109.412 72.537C109.37 72.607 109.323 72.6607 109.272 72.698C109.225 72.7307 109.167 72.747 109.097 72.747C109.018 72.747 108.924 72.7073 108.817 72.628C108.71 72.5487 108.574 72.4623 108.411 72.369C108.252 72.271 108.059 72.1823 107.83 72.103C107.606 72.0237 107.333 71.984 107.011 71.984C106.708 71.984 106.439 72.026 106.206 72.11C105.977 72.1893 105.784 72.299 105.625 72.439C105.471 72.579 105.354 72.7447 105.275 72.936C105.196 73.1227 105.156 73.3257 105.156 73.545C105.156 73.825 105.224 74.0583 105.359 74.245C105.499 74.427 105.681 74.5833 105.905 74.714C106.134 74.8447 106.39 74.959 106.675 75.057C106.964 75.1503 107.258 75.2483 107.557 75.351C107.86 75.4537 108.154 75.5703 108.439 75.701C108.728 75.827 108.985 75.988 109.209 76.184C109.438 76.38 109.62 76.6203 109.755 76.905C109.895 77.1897 109.965 77.5397 109.965 77.955C109.965 78.3937 109.89 78.8067 109.741 79.194C109.592 79.5767 109.372 79.9103 109.083 80.195C108.798 80.4797 108.446 80.7037 108.026 80.867C107.611 81.0303 107.137 81.112 106.605 81.112C105.952 81.112 105.359 80.9953 104.827 80.762C104.295 80.524 103.84 80.2043 103.462 79.803L103.854 79.159C103.891 79.1077 103.936 79.0657 103.987 79.033C104.043 78.9957 104.104 78.977 104.169 78.977C104.23 78.977 104.297 79.0027 104.372 79.054C104.451 79.1007 104.54 79.1613 104.638 79.236C104.736 79.3107 104.848 79.3923 104.974 79.481C105.1 79.5697 105.242 79.6513 105.401 79.726C105.564 79.8007 105.749 79.8637 105.954 79.915C106.159 79.9617 106.39 79.985 106.647 79.985C106.969 79.985 107.256 79.9407 107.508 79.852C107.76 79.7633 107.972 79.6397 108.145 79.481C108.322 79.3177 108.458 79.124 108.551 78.9C108.644 78.676 108.691 78.4263 108.691 78.151C108.691 77.8477 108.621 77.6003 108.481 77.409C108.346 77.213 108.166 77.0497 107.942 76.919C107.718 76.7883 107.461 76.6787 107.172 76.59C106.883 76.4967 106.589 76.4033 106.29 76.31C105.991 76.212 105.697 76.1 105.408 75.974C105.119 75.848 104.862 75.6847 104.638 75.484C104.414 75.2833 104.232 75.0337 104.092 74.735C103.957 74.4317 103.889 74.0583 103.889 73.615C103.889 73.2603 103.957 72.9173 104.092 72.586C104.232 72.2547 104.433 71.9607 104.694 71.704C104.96 71.4473 105.284 71.242 105.667 71.088C106.054 70.934 106.498 70.857 106.997 70.857C107.557 70.857 108.066 70.9457 108.523 71.123C108.985 71.3003 109.391 71.557 109.741 71.893L109.412 72.537ZM114.959 70.689V76.758H115.281C115.374 76.758 115.451 76.7463 115.512 76.723C115.577 76.695 115.645 76.6413 115.715 76.562L117.955 74.161C118.02 74.0817 118.088 74.021 118.158 73.979C118.232 73.9323 118.33 73.909 118.452 73.909H119.579L116.968 76.688C116.842 76.8467 116.706 76.9703 116.562 77.059C116.646 77.115 116.72 77.1803 116.786 77.255C116.856 77.325 116.921 77.4067 116.982 77.5L119.754 81H118.641C118.533 81 118.44 80.9837 118.361 80.951C118.286 80.9137 118.221 80.8483 118.165 80.755L115.834 77.85C115.764 77.752 115.694 77.689 115.624 77.661C115.558 77.6283 115.456 77.612 115.316 77.612H114.959V81H113.706V70.689H114.959ZM129.173 73.909L125.218 83.093C125.176 83.1863 125.122 83.261 125.057 83.317C124.996 83.373 124.901 83.401 124.77 83.401H123.846L125.141 80.587L122.215 73.909H123.293C123.4 73.909 123.484 73.937 123.545 73.993C123.61 74.0443 123.655 74.1027 123.678 74.168L125.575 78.634C125.65 78.83 125.713 79.0353 125.764 79.25C125.829 79.0307 125.899 78.823 125.974 78.627L127.815 74.168C127.843 74.0933 127.89 74.0327 127.955 73.986C128.025 73.9347 128.102 73.909 128.186 73.909H129.173ZM136.521 75.078C136.465 75.1807 136.378 75.232 136.262 75.232C136.192 75.232 136.112 75.2063 136.024 75.155C135.935 75.1037 135.825 75.0477 135.695 74.987C135.569 74.9217 135.417 74.8633 135.24 74.812C135.062 74.756 134.852 74.728 134.61 74.728C134.4 74.728 134.211 74.756 134.043 74.812C133.875 74.8633 133.73 74.9357 133.609 75.029C133.492 75.1223 133.401 75.232 133.336 75.358C133.275 75.4793 133.245 75.6123 133.245 75.757C133.245 75.939 133.296 76.0907 133.399 76.212C133.506 76.3333 133.646 76.4383 133.819 76.527C133.991 76.6157 134.187 76.695 134.407 76.765C134.626 76.8303 134.85 76.9027 135.079 76.982C135.312 77.0567 135.538 77.1407 135.758 77.234C135.977 77.3273 136.173 77.444 136.346 77.584C136.518 77.724 136.656 77.8967 136.759 78.102C136.866 78.3027 136.92 78.5453 136.92 78.83C136.92 79.1567 136.861 79.46 136.745 79.74C136.628 80.0153 136.455 80.2557 136.227 80.461C135.998 80.6617 135.718 80.8203 135.387 80.937C135.055 81.0537 134.673 81.112 134.239 81.112C133.744 81.112 133.296 81.0327 132.895 80.874C132.493 80.7107 132.153 80.503 131.873 80.251L132.167 79.775C132.204 79.7143 132.248 79.6677 132.3 79.635C132.351 79.6023 132.416 79.586 132.496 79.586C132.58 79.586 132.668 79.6187 132.762 79.684C132.855 79.7493 132.967 79.8217 133.098 79.901C133.233 79.9803 133.396 80.0527 133.588 80.118C133.779 80.1833 134.017 80.216 134.302 80.216C134.544 80.216 134.757 80.1857 134.939 80.125C135.121 80.0597 135.272 79.9733 135.394 79.866C135.515 79.7587 135.604 79.635 135.66 79.495C135.72 79.355 135.751 79.2057 135.751 79.047C135.751 78.851 135.697 78.69 135.59 78.564C135.487 78.4333 135.349 78.3237 135.177 78.235C135.004 78.1417 134.806 78.0623 134.582 77.997C134.362 77.927 134.136 77.8547 133.903 77.78C133.674 77.7053 133.448 77.6213 133.224 77.528C133.004 77.43 132.808 77.3087 132.636 77.164C132.463 77.0193 132.323 76.842 132.216 76.632C132.113 76.4173 132.062 76.1583 132.062 75.855C132.062 75.5843 132.118 75.3253 132.23 75.078C132.342 74.826 132.505 74.6067 132.72 74.42C132.934 74.2287 133.198 74.077 133.511 73.965C133.823 73.853 134.18 73.797 134.582 73.797C135.048 73.797 135.466 73.8717 135.835 74.021C136.208 74.1657 136.53 74.3663 136.801 74.623L136.521 75.078ZM145.433 76.681C145.433 76.3917 145.391 76.128 145.307 75.89C145.228 75.6473 145.109 75.4397 144.95 75.267C144.796 75.0897 144.607 74.9543 144.383 74.861C144.159 74.763 143.905 74.714 143.62 74.714C143.023 74.714 142.549 74.889 142.199 75.239C141.854 75.5843 141.639 76.065 141.555 76.681H145.433ZM146.441 80.006C146.287 80.1927 146.103 80.356 145.888 80.496C145.674 80.6313 145.443 80.7433 145.195 80.832C144.953 80.9207 144.701 80.986 144.439 81.028C144.178 81.0747 143.919 81.098 143.662 81.098C143.172 81.098 142.72 81.0163 142.304 80.853C141.894 80.685 141.537 80.4423 141.233 80.125C140.935 79.803 140.701 79.4063 140.533 78.935C140.365 78.4637 140.281 77.9223 140.281 77.311C140.281 76.8163 140.356 76.3543 140.505 75.925C140.659 75.4957 140.879 75.1247 141.163 74.812C141.448 74.4947 141.796 74.2473 142.206 74.07C142.617 73.888 143.079 73.797 143.592 73.797C144.017 73.797 144.409 73.8693 144.768 74.014C145.132 74.154 145.445 74.3593 145.706 74.63C145.972 74.896 146.18 75.2273 146.329 75.624C146.479 76.016 146.553 76.464 146.553 76.968C146.553 77.164 146.532 77.2947 146.49 77.36C146.448 77.4253 146.369 77.458 146.252 77.458H141.513C141.527 77.906 141.588 78.2957 141.695 78.627C141.807 78.9583 141.961 79.236 142.157 79.46C142.353 79.6793 142.587 79.845 142.857 79.957C143.128 80.0643 143.431 80.118 143.767 80.118C144.08 80.118 144.348 80.083 144.572 80.013C144.801 79.9383 144.997 79.859 145.16 79.775C145.324 79.691 145.459 79.614 145.566 79.544C145.678 79.4693 145.774 79.432 145.853 79.432C145.956 79.432 146.035 79.4717 146.091 79.551L146.441 80.006ZM155.259 75.169C155.221 75.2203 155.184 75.26 155.147 75.288C155.109 75.316 155.058 75.33 154.993 75.33C154.923 75.33 154.846 75.302 154.762 75.246C154.678 75.1853 154.573 75.12 154.447 75.05C154.325 74.98 154.174 74.917 153.992 74.861C153.814 74.8003 153.595 74.77 153.334 74.77C152.984 74.77 152.676 74.833 152.41 74.959C152.144 75.0803 151.92 75.2577 151.738 75.491C151.56 75.7243 151.425 76.0067 151.332 76.338C151.243 76.6693 151.199 77.0403 151.199 77.451C151.199 77.8803 151.248 78.263 151.346 78.599C151.444 78.9303 151.581 79.2103 151.759 79.439C151.941 79.663 152.158 79.8357 152.41 79.957C152.666 80.0737 152.953 80.132 153.271 80.132C153.574 80.132 153.824 80.097 154.02 80.027C154.216 79.9523 154.377 79.8707 154.503 79.782C154.633 79.6933 154.741 79.614 154.825 79.544C154.913 79.4693 155 79.432 155.084 79.432C155.186 79.432 155.266 79.4717 155.322 79.551L155.672 80.006C155.518 80.1973 155.343 80.3607 155.147 80.496C154.951 80.6313 154.738 80.7457 154.51 80.839C154.286 80.9277 154.05 80.993 153.803 81.035C153.555 81.077 153.303 81.098 153.047 81.098C152.603 81.098 152.19 81.0163 151.808 80.853C151.43 80.6897 151.101 80.454 150.821 80.146C150.541 79.8333 150.321 79.4507 150.163 78.998C150.004 78.5453 149.925 78.0297 149.925 77.451C149.925 76.9237 149.997 76.436 150.142 75.988C150.291 75.54 150.506 75.155 150.786 74.833C151.07 74.5063 151.418 74.252 151.829 74.07C152.244 73.888 152.72 73.797 153.257 73.797C153.756 73.797 154.195 73.8787 154.573 74.042C154.955 74.2007 155.294 74.427 155.588 74.721L155.259 75.169ZM165.08 73.909V81H164.338C164.161 81 164.049 80.9137 164.002 80.741L163.904 79.978C163.596 80.3187 163.251 80.594 162.868 80.804C162.486 81.0093 162.047 81.112 161.552 81.112C161.165 81.112 160.822 81.049 160.523 80.923C160.229 80.7923 159.982 80.6103 159.781 80.377C159.581 80.1437 159.429 79.8613 159.326 79.53C159.228 79.1987 159.179 78.8323 159.179 78.431V73.909H160.425V78.431C160.425 78.9677 160.547 79.383 160.789 79.677C161.037 79.971 161.412 80.118 161.916 80.118C162.285 80.118 162.628 80.0317 162.945 79.859C163.267 79.6817 163.564 79.439 163.834 79.131V73.909H165.08ZM170.479 75.33C170.703 74.8447 170.978 74.4667 171.305 74.196C171.632 73.9207 172.031 73.783 172.502 73.783C172.651 73.783 172.794 73.7993 172.929 73.832C173.069 73.8647 173.193 73.916 173.3 73.986L173.209 74.917C173.181 75.0337 173.111 75.092 172.999 75.092C172.934 75.092 172.838 75.078 172.712 75.05C172.586 75.022 172.444 75.008 172.285 75.008C172.061 75.008 171.86 75.0407 171.683 75.106C171.51 75.1713 171.354 75.2693 171.214 75.4C171.079 75.526 170.955 75.6847 170.843 75.876C170.736 76.0627 170.638 76.2773 170.549 76.52V81H169.296V73.909H170.01C170.145 73.909 170.239 73.9347 170.29 73.986C170.341 74.0373 170.376 74.126 170.395 74.252L170.479 75.33ZM181.094 76.681C181.094 76.3917 181.052 76.128 180.968 75.89C180.889 75.6473 180.77 75.4397 180.611 75.267C180.457 75.0897 180.268 74.9543 180.044 74.861C179.82 74.763 179.566 74.714 179.281 74.714C178.684 74.714 178.21 74.889 177.86 75.239C177.515 75.5843 177.3 76.065 177.216 76.681H181.094ZM182.102 80.006C181.948 80.1927 181.764 80.356 181.549 80.496C181.335 80.6313 181.104 80.7433 180.856 80.832C180.614 80.9207 180.362 80.986 180.1 81.028C179.839 81.0747 179.58 81.098 179.323 81.098C178.833 81.098 178.381 81.0163 177.965 80.853C177.555 80.685 177.198 80.4423 176.894 80.125C176.596 79.803 176.362 79.4063 176.194 78.935C176.026 78.4637 175.942 77.9223 175.942 77.311C175.942 76.8163 176.017 76.3543 176.166 75.925C176.32 75.4957 176.54 75.1247 176.824 74.812C177.109 74.4947 177.457 74.2473 177.867 74.07C178.278 73.888 178.74 73.797 179.253 73.797C179.678 73.797 180.07 73.8693 180.429 74.014C180.793 74.154 181.106 74.3593 181.367 74.63C181.633 74.896 181.841 75.2273 181.99 75.624C182.14 76.016 182.214 76.464 182.214 76.968C182.214 77.164 182.193 77.2947 182.151 77.36C182.109 77.4253 182.03 77.458 181.913 77.458H177.174C177.188 77.906 177.249 78.2957 177.356 78.627C177.468 78.9583 177.622 79.236 177.818 79.46C178.014 79.6793 178.248 79.845 178.518 79.957C178.789 80.0643 179.092 80.118 179.428 80.118C179.741 80.118 180.009 80.083 180.233 80.013C180.462 79.9383 180.658 79.859 180.821 79.775C180.985 79.691 181.12 79.614 181.227 79.544C181.339 79.4693 181.435 79.432 181.514 79.432C181.617 79.432 181.696 79.4717 181.752 79.551L182.102 80.006ZM198.46 72.11H195.212V81H193.861V72.11H190.606V70.969H198.46V72.11ZM204.932 76.681C204.932 76.3917 204.89 76.128 204.806 75.89C204.726 75.6473 204.607 75.4397 204.449 75.267C204.295 75.0897 204.106 74.9543 203.882 74.861C203.658 74.763 203.403 74.714 203.119 74.714C202.521 74.714 202.048 74.889 201.698 75.239C201.352 75.5843 201.138 76.065 201.054 76.681H204.932ZM205.94 80.006C205.786 80.1927 205.601 80.356 205.387 80.496C205.172 80.6313 204.941 80.7433 204.694 80.832C204.451 80.9207 204.199 80.986 203.938 81.028C203.676 81.0747 203.417 81.098 203.161 81.098C202.671 81.098 202.218 81.0163 201.803 80.853C201.392 80.685 201.035 80.4423 200.732 80.125C200.433 79.803 200.2 79.4063 200.032 78.935C199.864 78.4637 199.78 77.9223 199.78 77.311C199.78 76.8163 199.854 76.3543 200.004 75.925C200.158 75.4957 200.377 75.1247 200.662 74.812C200.946 74.4947 201.294 74.2473 201.705 74.07C202.115 73.888 202.577 73.797 203.091 73.797C203.515 73.797 203.907 73.8693 204.267 74.014C204.631 74.154 204.943 74.3593 205.205 74.63C205.471 74.896 205.678 75.2273 205.828 75.624C205.977 76.016 206.052 76.464 206.052 76.968C206.052 77.164 206.031 77.2947 205.989 77.36C205.947 77.4253 205.867 77.458 205.751 77.458H201.012C201.026 77.906 201.086 78.2957 201.194 78.627C201.306 78.9583 201.46 79.236 201.656 79.46C201.852 79.6793 202.085 79.845 202.356 79.957C202.626 80.0643 202.93 80.118 203.266 80.118C203.578 80.118 203.847 80.083 204.071 80.013C204.299 79.9383 204.495 79.859 204.659 79.775C204.822 79.691 204.957 79.614 205.065 79.544C205.177 79.4693 205.272 79.432 205.352 79.432C205.454 79.432 205.534 79.4717 205.59 79.551L205.94 80.006ZM214.757 75.169C214.72 75.2203 214.682 75.26 214.645 75.288C214.608 75.316 214.556 75.33 214.491 75.33C214.421 75.33 214.344 75.302 214.26 75.246C214.176 75.1853 214.071 75.12 213.945 75.05C213.824 74.98 213.672 74.917 213.49 74.861C213.313 74.8003 213.093 74.77 212.832 74.77C212.482 74.77 212.174 74.833 211.908 74.959C211.642 75.0803 211.418 75.2577 211.236 75.491C211.059 75.7243 210.923 76.0067 210.83 76.338C210.741 76.6693 210.697 77.0403 210.697 77.451C210.697 77.8803 210.746 78.263 210.844 78.599C210.942 78.9303 211.08 79.2103 211.257 79.439C211.439 79.663 211.656 79.8357 211.908 79.957C212.165 80.0737 212.452 80.132 212.769 80.132C213.072 80.132 213.322 80.097 213.518 80.027C213.714 79.9523 213.875 79.8707 214.001 79.782C214.132 79.6933 214.239 79.614 214.323 79.544C214.412 79.4693 214.498 79.432 214.582 79.432C214.685 79.432 214.764 79.4717 214.82 79.551L215.17 80.006C215.016 80.1973 214.841 80.3607 214.645 80.496C214.449 80.6313 214.237 80.7457 214.008 80.839C213.784 80.9277 213.548 80.993 213.301 81.035C213.054 81.077 212.802 81.098 212.545 81.098C212.102 81.098 211.689 81.0163 211.306 80.853C210.928 80.6897 210.599 80.454 210.319 80.146C210.039 79.8333 209.82 79.4507 209.661 78.998C209.502 78.5453 209.423 78.0297 209.423 77.451C209.423 76.9237 209.495 76.436 209.64 75.988C209.789 75.54 210.004 75.155 210.284 74.833C210.569 74.5063 210.916 74.252 211.327 74.07C211.742 73.888 212.218 73.797 212.755 73.797C213.254 73.797 213.693 73.8787 214.071 74.042C214.454 74.2007 214.792 74.427 215.086 74.721L214.757 75.169ZM220.001 74.854C220.304 74.532 220.64 74.2753 221.009 74.084C221.377 73.8927 221.802 73.797 222.283 73.797C222.67 73.797 223.011 73.8623 223.305 73.993C223.603 74.119 223.851 74.301 224.047 74.539C224.247 74.7723 224.399 75.0547 224.502 75.386C224.604 75.7173 224.656 76.0837 224.656 76.485V81H223.403V76.485C223.403 75.9483 223.279 75.533 223.032 75.239C222.789 74.9403 222.418 74.791 221.919 74.791C221.55 74.791 221.205 74.8797 220.883 75.057C220.565 75.2343 220.271 75.4747 220.001 75.778V81H218.748V70.689H220.001V74.854ZM229.97 74.938C230.124 74.7653 230.288 74.609 230.46 74.469C230.633 74.329 230.815 74.21 231.006 74.112C231.202 74.0093 231.408 73.9323 231.622 73.881C231.842 73.825 232.077 73.797 232.329 73.797C232.717 73.797 233.057 73.8623 233.351 73.993C233.65 74.119 233.897 74.301 234.093 74.539C234.294 74.7723 234.446 75.0547 234.548 75.386C234.651 75.7173 234.702 76.0837 234.702 76.485V81H233.449V76.485C233.449 75.9483 233.326 75.533 233.078 75.239C232.836 74.9403 232.465 74.791 231.965 74.791C231.597 74.791 231.251 74.8797 230.929 75.057C230.612 75.2343 230.318 75.4747 230.047 75.778V81H228.794V73.909H229.543C229.721 73.909 229.83 73.9953 229.872 74.168L229.97 74.938ZM241.83 73.797C242.348 73.797 242.815 73.8833 243.23 74.056C243.645 74.2287 244 74.4737 244.294 74.791C244.588 75.1083 244.812 75.4933 244.966 75.946C245.125 76.394 245.204 76.8957 245.204 77.451C245.204 78.011 245.125 78.515 244.966 78.963C244.812 79.411 244.588 79.7937 244.294 80.111C244 80.4283 243.645 80.6733 243.23 80.846C242.815 81.014 242.348 81.098 241.83 81.098C241.307 81.098 240.836 81.014 240.416 80.846C240.001 80.6733 239.646 80.4283 239.352 80.111C239.058 79.7937 238.832 79.411 238.673 78.963C238.519 78.515 238.442 78.011 238.442 77.451C238.442 76.8957 238.519 76.394 238.673 75.946C238.832 75.4933 239.058 75.1083 239.352 74.791C239.646 74.4737 240.001 74.2287 240.416 74.056C240.836 73.8833 241.307 73.797 241.83 73.797ZM241.83 80.125C242.53 80.125 243.053 79.8917 243.398 79.425C243.743 78.9537 243.916 78.298 243.916 77.458C243.916 76.6133 243.743 75.9553 243.398 75.484C243.053 75.0127 242.53 74.777 241.83 74.777C241.475 74.777 241.165 74.8377 240.899 74.959C240.638 75.0803 240.418 75.2553 240.241 75.484C240.068 75.7127 239.938 75.995 239.849 76.331C239.765 76.6623 239.723 77.038 239.723 77.458C239.723 78.298 239.896 78.9537 240.241 79.425C240.591 79.8917 241.121 80.125 241.83 80.125ZM250.312 70.689V81H249.066V70.689H250.312ZM257.562 73.797C258.08 73.797 258.547 73.8833 258.962 74.056C259.377 74.2287 259.732 74.4737 260.026 74.791C260.32 75.1083 260.544 75.4933 260.698 75.946C260.857 76.394 260.936 76.8957 260.936 77.451C260.936 78.011 260.857 78.515 260.698 78.963C260.544 79.411 260.32 79.7937 260.026 80.111C259.732 80.4283 259.377 80.6733 258.962 80.846C258.547 81.014 258.08 81.098 257.562 81.098C257.039 81.098 256.568 81.014 256.148 80.846C255.733 80.6733 255.378 80.4283 255.084 80.111C254.79 79.7937 254.564 79.411 254.405 78.963C254.251 78.515 254.174 78.011 254.174 77.451C254.174 76.8957 254.251 76.394 254.405 75.946C254.564 75.4933 254.79 75.1083 255.084 74.791C255.378 74.4737 255.733 74.2287 256.148 74.056C256.568 73.8833 257.039 73.797 257.562 73.797ZM257.562 80.125C258.262 80.125 258.785 79.8917 259.13 79.425C259.475 78.9537 259.648 78.298 259.648 77.458C259.648 76.6133 259.475 75.9553 259.13 75.484C258.785 75.0127 258.262 74.777 257.562 74.777C257.207 74.777 256.897 74.8377 256.631 74.959C256.37 75.0803 256.15 75.2553 255.973 75.484C255.8 75.7127 255.67 75.995 255.581 76.331C255.497 76.6623 255.455 77.038 255.455 77.458C255.455 78.298 255.628 78.9537 255.973 79.425C256.323 79.8917 256.853 80.125 257.562 80.125ZM267.186 77.535C267.438 77.535 267.66 77.5 267.851 77.43C268.043 77.36 268.204 77.262 268.334 77.136C268.465 77.01 268.563 76.8607 268.628 76.688C268.694 76.5107 268.726 76.317 268.726 76.107C268.726 75.673 268.593 75.3277 268.327 75.071C268.066 74.8143 267.686 74.686 267.186 74.686C266.682 74.686 266.297 74.8143 266.031 75.071C265.77 75.3277 265.639 75.673 265.639 76.107C265.639 76.317 265.672 76.5107 265.737 76.688C265.807 76.8607 265.908 77.01 266.038 77.136C266.169 77.262 266.33 77.36 266.521 77.43C266.713 77.5 266.934 77.535 267.186 77.535ZM269.433 81.385C269.433 81.2123 269.384 81.0723 269.286 80.965C269.188 80.8577 269.055 80.7737 268.887 80.713C268.724 80.6523 268.533 80.6103 268.313 80.587C268.094 80.559 267.861 80.538 267.613 80.524C267.371 80.51 267.123 80.496 266.871 80.482C266.619 80.468 266.377 80.4447 266.143 80.412C265.882 80.5333 265.667 80.6873 265.499 80.874C265.336 81.056 265.254 81.2707 265.254 81.518C265.254 81.6767 265.294 81.8237 265.373 81.959C265.457 82.099 265.583 82.218 265.751 82.316C265.919 82.4187 266.129 82.498 266.381 82.554C266.638 82.6147 266.939 82.645 267.284 82.645C267.62 82.645 267.921 82.6147 268.187 82.554C268.453 82.4933 268.677 82.407 268.859 82.295C269.046 82.183 269.188 82.05 269.286 81.896C269.384 81.742 269.433 81.5717 269.433 81.385ZM270.7 74.189V74.651C270.7 74.805 270.602 74.903 270.406 74.945L269.601 75.05C269.76 75.358 269.839 75.6987 269.839 76.072C269.839 76.4173 269.772 76.7323 269.636 77.017C269.506 77.297 269.324 77.5373 269.09 77.738C268.857 77.9387 268.577 78.0927 268.25 78.2C267.924 78.3073 267.569 78.361 267.186 78.361C266.855 78.361 266.542 78.3213 266.248 78.242C266.099 78.3353 265.985 78.4357 265.905 78.543C265.826 78.6457 265.786 78.7507 265.786 78.858C265.786 79.026 265.854 79.1543 265.989 79.243C266.129 79.327 266.311 79.3877 266.535 79.425C266.759 79.4623 267.014 79.4857 267.298 79.495C267.588 79.5043 267.882 79.5207 268.18 79.544C268.484 79.5627 268.778 79.5977 269.062 79.649C269.352 79.7003 269.608 79.7843 269.832 79.901C270.056 80.0177 270.236 80.1787 270.371 80.384C270.511 80.5893 270.581 80.8553 270.581 81.182C270.581 81.4853 270.504 81.7793 270.35 82.064C270.201 82.3487 269.984 82.6007 269.699 82.82C269.415 83.044 269.065 83.2213 268.649 83.352C268.239 83.4873 267.774 83.555 267.256 83.555C266.738 83.555 266.286 83.5037 265.898 83.401C265.511 83.2983 265.189 83.1607 264.932 82.988C264.676 82.8153 264.482 82.6147 264.351 82.386C264.225 82.162 264.162 81.9263 264.162 81.679C264.162 81.329 264.272 81.0327 264.491 80.79C264.711 80.5473 265.012 80.3537 265.394 80.209C265.184 80.1157 265.016 79.992 264.89 79.838C264.769 79.6793 264.708 79.467 264.708 79.201C264.708 79.0983 264.727 78.9933 264.764 78.886C264.802 78.774 264.858 78.6643 264.932 78.557C265.012 78.445 265.107 78.34 265.219 78.242C265.331 78.144 265.462 78.0577 265.611 77.983C265.261 77.787 264.988 77.528 264.792 77.206C264.596 76.8793 264.498 76.5013 264.498 76.072C264.498 75.7267 264.564 75.414 264.694 75.134C264.83 74.8493 265.016 74.609 265.254 74.413C265.492 74.2123 265.775 74.0583 266.101 73.951C266.433 73.8437 266.794 73.79 267.186 73.79C267.494 73.79 267.781 73.825 268.047 73.895C268.313 73.9603 268.556 74.0583 268.775 74.189H270.7ZM275.545 73.909V81H274.299V73.909H275.545ZM275.811 71.683C275.811 71.8043 275.785 71.9187 275.734 72.026C275.687 72.1287 275.622 72.222 275.538 72.306C275.458 72.3853 275.363 72.4483 275.251 72.495C275.143 72.5417 275.029 72.565 274.908 72.565C274.786 72.565 274.672 72.5417 274.565 72.495C274.462 72.4483 274.371 72.3853 274.292 72.306C274.212 72.222 274.149 72.1287 274.103 72.026C274.056 71.9187 274.033 71.8043 274.033 71.683C274.033 71.5617 274.056 71.4473 274.103 71.34C274.149 71.228 274.212 71.1323 274.292 71.053C274.371 70.969 274.462 70.9037 274.565 70.857C274.672 70.8103 274.786 70.787 274.908 70.787C275.029 70.787 275.143 70.8103 275.251 70.857C275.363 70.9037 275.458 70.969 275.538 71.053C275.622 71.1323 275.687 71.228 275.734 71.34C275.785 71.4473 275.811 71.5617 275.811 71.683ZM284.578 76.681C284.578 76.3917 284.536 76.128 284.452 75.89C284.373 75.6473 284.254 75.4397 284.095 75.267C283.941 75.0897 283.752 74.9543 283.528 74.861C283.304 74.763 283.05 74.714 282.765 74.714C282.168 74.714 281.694 74.889 281.344 75.239C280.999 75.5843 280.784 76.065 280.7 76.681H284.578ZM285.586 80.006C285.432 80.1927 285.248 80.356 285.033 80.496C284.818 80.6313 284.587 80.7433 284.34 80.832C284.097 80.9207 283.845 80.986 283.584 81.028C283.323 81.0747 283.064 81.098 282.807 81.098C282.317 81.098 281.864 81.0163 281.449 80.853C281.038 80.685 280.681 80.4423 280.378 80.125C280.079 79.803 279.846 79.4063 279.678 78.935C279.51 78.4637 279.426 77.9223 279.426 77.311C279.426 76.8163 279.501 76.3543 279.65 75.925C279.804 75.4957 280.023 75.1247 280.308 74.812C280.593 74.4947 280.94 74.2473 281.351 74.07C281.762 73.888 282.224 73.797 282.737 73.797C283.162 73.797 283.554 73.8693 283.913 74.014C284.277 74.154 284.59 74.3593 284.851 74.63C285.117 74.896 285.325 75.2273 285.474 75.624C285.623 76.016 285.698 76.464 285.698 76.968C285.698 77.164 285.677 77.2947 285.635 77.36C285.593 77.4253 285.514 77.458 285.397 77.458H280.658C280.672 77.906 280.733 78.2957 280.84 78.627C280.952 78.9583 281.106 79.236 281.302 79.46C281.498 79.6793 281.731 79.845 282.002 79.957C282.273 80.0643 282.576 80.118 282.912 80.118C283.225 80.118 283.493 80.083 283.717 80.013C283.946 79.9383 284.142 79.859 284.305 79.775C284.468 79.691 284.604 79.614 284.711 79.544C284.823 79.4693 284.919 79.432 284.998 79.432C285.101 79.432 285.18 79.4717 285.236 79.551L285.586 80.006ZM293.598 75.078C293.542 75.1807 293.456 75.232 293.339 75.232C293.269 75.232 293.19 75.2063 293.101 75.155C293.013 75.1037 292.903 75.0477 292.772 74.987C292.646 74.9217 292.495 74.8633 292.317 74.812C292.14 74.756 291.93 74.728 291.687 74.728C291.477 74.728 291.288 74.756 291.12 74.812C290.952 74.8633 290.808 74.9357 290.686 75.029C290.57 75.1223 290.479 75.232 290.413 75.358C290.353 75.4793 290.322 75.6123 290.322 75.757C290.322 75.939 290.374 76.0907 290.476 76.212C290.584 76.3333 290.724 76.4383 290.896 76.527C291.069 76.6157 291.265 76.695 291.484 76.765C291.704 76.8303 291.928 76.9027 292.156 76.982C292.39 77.0567 292.616 77.1407 292.835 77.234C293.055 77.3273 293.251 77.444 293.423 77.584C293.596 77.724 293.734 77.8967 293.836 78.102C293.944 78.3027 293.997 78.5453 293.997 78.83C293.997 79.1567 293.939 79.46 293.822 79.74C293.706 80.0153 293.533 80.2557 293.304 80.461C293.076 80.6617 292.796 80.8203 292.464 80.937C292.133 81.0537 291.75 81.112 291.316 81.112C290.822 81.112 290.374 81.0327 289.972 80.874C289.571 80.7107 289.23 80.503 288.95 80.251L289.244 79.775C289.282 79.7143 289.326 79.6677 289.377 79.635C289.429 79.6023 289.494 79.586 289.573 79.586C289.657 79.586 289.746 79.6187 289.839 79.684C289.933 79.7493 290.045 79.8217 290.175 79.901C290.311 79.9803 290.474 80.0527 290.665 80.118C290.857 80.1833 291.095 80.216 291.379 80.216C291.622 80.216 291.834 80.1857 292.016 80.125C292.198 80.0597 292.35 79.9733 292.471 79.866C292.593 79.7587 292.681 79.635 292.737 79.495C292.798 79.355 292.828 79.2057 292.828 79.047C292.828 78.851 292.775 78.69 292.667 78.564C292.565 78.4333 292.427 78.3237 292.254 78.235C292.082 78.1417 291.883 78.0623 291.659 77.997C291.44 77.927 291.214 77.8547 290.98 77.78C290.752 77.7053 290.525 77.6213 290.301 77.528C290.082 77.43 289.886 77.3087 289.713 77.164C289.541 77.0193 289.401 76.842 289.293 76.632C289.191 76.4173 289.139 76.1583 289.139 75.855C289.139 75.5843 289.195 75.3253 289.307 75.078C289.419 74.826 289.583 74.6067 289.797 74.42C290.012 74.2287 290.276 74.077 290.588 73.965C290.901 73.853 291.258 73.797 291.659 73.797C292.126 73.797 292.544 73.8717 292.912 74.021C293.286 74.1657 293.608 74.3663 293.878 74.623L293.598 75.078Z" fill="white"/>
</svg>
