<svg width="54" height="54" viewBox="0 0 54 54" fill="none" xmlns="http://www.w3.org/2000/svg">
<g clip-path="url(#clip0_508_1270)">
<path d="M50.5 19.3676C50.5 27.856 43.5829 34.7352 35.05 34.7352L20.4379 14.3689L13 4H35.05C43.5829 4 50.5 10.8791 50.5 19.3676Z" fill="#0047BD"/>
<path d="M50 49.5011L4 4V49.5011H50Z" fill="#009BE5"/>
<g filter="url(#filter0_d_508_1270)">
<path d="M37.1904 36.8308L4 49.501L24.5187 24.2959L37.1904 36.8308Z" fill="#0087D9"/>
</g>
<g filter="url(#filter1_d_508_1270)">
<path d="M4 49.501L12.8553 12.7589L24.5187 24.2959L4 49.501Z" fill="#006FCB"/>
</g>
<g filter="url(#filter2_d_508_1270)">
<path d="M4 49.5011V4L12.8553 12.759L4 49.5011Z" fill="#0047BD"/>
</g>
<path d="M34.99 34.7352L17.6543 4H4L34.99 34.7352Z" fill="#3A1BB6"/>
<path d="M34.99 34.7352L17.6543 4H4L34.99 34.7352Z" fill="#112F63"/>
</g>
<defs>
<filter id="filter0_d_508_1270" x="1" y="22.2959" width="41.1904" height="33.2051" filterUnits="userSpaceOnUse" color-interpolation-filters="sRGB">
<feFlood flood-opacity="0" result="BackgroundImageFix"/>
<feColorMatrix in="SourceAlpha" type="matrix" values="0 0 0 0 0 0 0 0 0 0 0 0 0 0 0 0 0 0 127 0" result="hardAlpha"/>
<feOffset dx="1" dy="2"/>
<feGaussianBlur stdDeviation="2"/>
<feComposite in2="hardAlpha" operator="out"/>
<feColorMatrix type="matrix" values="0 0 0 0 0 0 0 0 0 0 0 0 0 0 0 0 0 0 0.3 0"/>
<feBlend mode="normal" in2="BackgroundImageFix" result="effect1_dropShadow_508_1270"/>
<feBlend mode="normal" in="SourceGraphic" in2="effect1_dropShadow_508_1270" result="shape"/>
</filter>
<filter id="filter1_d_508_1270" x="1" y="10.7589" width="28.5188" height="44.7421" filterUnits="userSpaceOnUse" color-interpolation-filters="sRGB">
<feFlood flood-opacity="0" result="BackgroundImageFix"/>
<feColorMatrix in="SourceAlpha" type="matrix" values="0 0 0 0 0 0 0 0 0 0 0 0 0 0 0 0 0 0 127 0" result="hardAlpha"/>
<feOffset dx="1" dy="2"/>
<feGaussianBlur stdDeviation="2"/>
<feComposite in2="hardAlpha" operator="out"/>
<feColorMatrix type="matrix" values="0 0 0 0 0 0 0 0 0 0 0 0 0 0 0 0 0 0 0.3 0"/>
<feBlend mode="normal" in2="BackgroundImageFix" result="effect1_dropShadow_508_1270"/>
<feBlend mode="normal" in="SourceGraphic" in2="effect1_dropShadow_508_1270" result="shape"/>
</filter>
<filter id="filter2_d_508_1270" x="2" y="4" width="12.8552" height="50.5011" filterUnits="userSpaceOnUse" color-interpolation-filters="sRGB">
<feFlood flood-opacity="0" result="BackgroundImageFix"/>
<feColorMatrix in="SourceAlpha" type="matrix" values="0 0 0 0 0 0 0 0 0 0 0 0 0 0 0 0 0 0 127 0" result="hardAlpha"/>
<feOffset dy="3"/>
<feGaussianBlur stdDeviation="1"/>
<feComposite in2="hardAlpha" operator="out"/>
<feColorMatrix type="matrix" values="0 0 0 0 0 0 0 0 0 0 0 0 0 0 0 0 0 0 0.25 0"/>
<feBlend mode="normal" in2="BackgroundImageFix" result="effect1_dropShadow_508_1270"/>
<feBlend mode="normal" in="SourceGraphic" in2="effect1_dropShadow_508_1270" result="shape"/>
</filter>
<clipPath id="clip0_508_1270">
<rect width="54" height="54" fill="white"/>
</clipPath>
</defs>
</svg>
