<svg width="263" height="83" viewBox="0 0 263 83" fill="none" xmlns="http://www.w3.org/2000/svg">
<path d="M84.56 26.352C86.352 26.352 87.9307 26.1387 89.296 25.712C90.6827 25.264 91.8347 24.6453 92.752 23.856C93.6907 23.0453 94.3947 22.0853 94.864 20.976C95.3333 19.8667 95.568 18.64 95.568 17.296C95.568 14.5653 94.672 12.5067 92.88 11.12C91.088 9.73333 88.4 9.04 84.816 9.04H78.032V26.352H84.56ZM105.744 50H100.24C99.1093 50 98.2773 49.5627 97.744 48.688L85.84 32.304C85.4773 31.792 85.0827 31.4293 84.656 31.216C84.2507 30.9813 83.6107 30.864 82.736 30.864H78.032V50H71.856V4.144H84.816C87.7173 4.144 90.224 4.44266 92.336 5.04C94.448 5.616 96.1867 6.45867 97.552 7.568C98.9387 8.67733 99.9627 10.0213 100.624 11.6C101.285 13.1573 101.616 14.9067 101.616 16.848C101.616 18.4693 101.36 19.984 100.848 21.392C100.336 22.8 99.5893 24.0693 98.608 25.2C97.648 26.3093 96.464 27.2587 95.056 28.048C93.6693 28.8373 92.0907 29.4347 90.32 29.84C91.1093 30.288 91.792 30.9387 92.368 31.792L105.744 50ZM130.271 30.256C130.271 28.9333 130.079 27.728 129.695 26.64C129.332 25.5307 128.788 24.5813 128.063 23.792C127.359 22.9813 126.495 22.3627 125.471 21.936C124.447 21.488 123.284 21.264 121.983 21.264C119.252 21.264 117.087 22.064 115.487 23.664C113.908 25.2427 112.927 27.44 112.543 30.256H130.271ZM134.879 45.456C134.175 46.3093 133.332 47.056 132.351 47.696C131.369 48.3147 130.313 48.8267 129.183 49.232C128.073 49.6373 126.921 49.936 125.727 50.128C124.532 50.3413 123.348 50.448 122.175 50.448C119.935 50.448 117.865 50.0747 115.967 49.328C114.089 48.56 112.457 47.4507 111.071 46C109.705 44.528 108.639 42.7147 107.871 40.56C107.103 38.4053 106.719 35.9307 106.719 33.136C106.719 30.8747 107.06 28.7627 107.743 26.8C108.447 24.8373 109.449 23.1413 110.751 21.712C112.052 20.2613 113.641 19.1307 115.519 18.32C117.396 17.488 119.508 17.072 121.855 17.072C123.796 17.072 125.588 17.4027 127.231 18.064C128.895 18.704 130.324 19.6427 131.519 20.88C132.735 22.096 133.684 23.6107 134.367 25.424C135.049 27.216 135.391 29.264 135.391 31.568C135.391 32.464 135.295 33.0613 135.103 33.36C134.911 33.6587 134.548 33.808 134.015 33.808H112.351C112.415 35.856 112.692 37.6373 113.183 39.152C113.695 40.6667 114.399 41.936 115.295 42.96C116.191 43.9627 117.257 44.72 118.495 45.232C119.732 45.7227 121.119 45.968 122.655 45.968C124.084 45.968 125.311 45.808 126.335 45.488C127.38 45.1467 128.276 44.784 129.023 44.4C129.769 44.016 130.388 43.664 130.879 43.344C131.391 43.0027 131.828 42.832 132.191 42.832C132.66 42.832 133.023 43.0133 133.279 43.376L134.879 45.456ZM159.955 35.408C157.331 35.4933 155.091 35.7067 153.235 36.048C151.4 36.368 149.896 36.7947 148.723 37.328C147.571 37.8613 146.728 38.4907 146.195 39.216C145.683 39.9413 145.427 40.752 145.427 41.648C145.427 42.5013 145.566 43.2373 145.843 43.856C146.12 44.4747 146.494 44.9867 146.963 45.392C147.454 45.776 148.019 46.064 148.659 46.256C149.32 46.4267 150.024 46.512 150.771 46.512C151.774 46.512 152.691 46.416 153.523 46.224C154.355 46.0107 155.134 45.712 155.859 45.328C156.606 44.944 157.31 44.4853 157.971 43.952C158.654 43.4187 159.315 42.8107 159.955 42.128V35.408ZM141.555 22.16C143.347 20.432 145.278 19.1413 147.347 18.288C149.416 17.4347 151.71 17.008 154.227 17.008C156.04 17.008 157.651 17.3067 159.059 17.904C160.467 18.5013 161.651 19.3333 162.611 20.4C163.571 21.4667 164.296 22.7573 164.787 24.272C165.278 25.7867 165.523 27.4507 165.523 29.264V50H162.995C162.44 50 162.014 49.9147 161.715 49.744C161.416 49.552 161.182 49.1893 161.011 48.656L160.371 45.584C159.518 46.3733 158.686 47.0773 157.875 47.696C157.064 48.2933 156.211 48.8053 155.315 49.232C154.419 49.6373 153.459 49.9467 152.435 50.16C151.432 50.3947 150.312 50.512 149.075 50.512C147.816 50.512 146.632 50.3413 145.523 50C144.414 49.6373 143.443 49.104 142.611 48.4C141.8 47.696 141.15 46.8107 140.659 45.744C140.19 44.656 139.955 43.376 139.955 41.904C139.955 40.624 140.307 39.3973 141.011 38.224C141.715 37.0293 142.856 35.9733 144.435 35.056C146.014 34.1387 148.072 33.392 150.611 32.816C153.15 32.2187 156.264 31.8773 159.955 31.792V29.264C159.955 26.7467 159.411 24.848 158.323 23.568C157.235 22.2667 155.646 21.616 153.555 21.616C152.147 21.616 150.963 21.7973 150.003 22.16C149.064 22.5013 148.243 22.896 147.539 23.344C146.856 23.7707 146.259 24.1653 145.747 24.528C145.256 24.8693 144.766 25.04 144.275 25.04C143.891 25.04 143.56 24.944 143.283 24.752C143.006 24.5387 142.771 24.2827 142.579 23.984L141.555 22.16ZM179.763 4.337V50H174.244V4.337H179.763ZM194.703 18.0905V50H189.096V18.0905H194.703ZM195.9 8.0735C195.9 8.6195 195.785 9.134 195.554 9.617C195.344 10.079 195.05 10.499 194.672 10.877C194.315 11.234 193.884 11.5175 193.38 11.7275C192.897 11.9375 192.383 12.0425 191.837 12.0425C191.291 12.0425 190.776 11.9375 190.293 11.7275C189.831 11.5175 189.422 11.234 189.065 10.877C188.708 10.499 188.424 10.079 188.214 9.617C188.004 9.134 187.899 8.6195 187.899 8.0735C187.899 7.5275 188.004 7.013 188.214 6.53C188.424 6.026 188.708 5.5955 189.065 5.2385C189.422 4.8605 189.831 4.5665 190.293 4.3565C190.776 4.1465 191.291 4.0415 191.837 4.0415C192.383 4.0415 192.897 4.1465 193.38 4.3565C193.884 4.5665 194.315 4.8605 194.672 5.2385C195.05 5.5955 195.344 6.026 195.554 6.53C195.785 7.013 195.9 7.5275 195.9 8.0735ZM226.355 20.016C226.355 20.4213 226.28 20.816 226.131 21.2C226.003 21.584 225.821 21.9147 225.587 22.192L208.019 45.552H225.747V50H201.331V47.632C201.331 47.3547 201.395 47.0347 201.523 46.672C201.651 46.288 201.843 45.9253 202.099 45.584L219.763 22.064H202.323V17.584H226.355V20.016ZM253.995 30.256C253.995 28.9333 253.803 27.728 253.419 26.64C253.056 25.5307 252.512 24.5813 251.787 23.792C251.083 22.9813 250.219 22.3627 249.195 21.936C248.171 21.488 247.008 21.264 245.707 21.264C242.976 21.264 240.811 22.064 239.211 23.664C237.632 25.2427 236.651 27.44 236.267 30.256H253.995ZM258.603 45.456C257.899 46.3093 257.056 47.056 256.075 47.696C255.094 48.3147 254.038 48.8267 252.907 49.232C251.798 49.6373 250.646 49.936 249.451 50.128C248.256 50.3413 247.072 50.448 245.899 50.448C243.659 50.448 241.59 50.0747 239.691 49.328C237.814 48.56 236.182 47.4507 234.795 46C233.43 44.528 232.363 42.7147 231.595 40.56C230.827 38.4053 230.443 35.9307 230.443 33.136C230.443 30.8747 230.784 28.7627 231.467 26.8C232.171 24.8373 233.174 23.1413 234.475 21.712C235.776 20.2613 237.366 19.1307 239.243 18.32C241.12 17.488 243.232 17.072 245.579 17.072C247.52 17.072 249.312 17.4027 250.955 18.064C252.619 18.704 254.048 19.6427 255.243 20.88C256.459 22.096 257.408 23.6107 258.091 25.424C258.774 27.216 259.115 29.264 259.115 31.568C259.115 32.464 259.019 33.0613 258.827 33.36C258.635 33.6587 258.272 33.808 257.739 33.808H236.075C236.139 35.856 236.416 37.6373 236.907 39.152C237.419 40.6667 238.123 41.936 239.019 42.96C239.915 43.9627 240.982 44.72 242.219 45.232C243.456 45.7227 244.843 45.968 246.379 45.968C247.808 45.968 249.035 45.808 250.059 45.488C251.104 45.1467 252 44.784 252.747 44.4C253.494 44.016 254.112 43.664 254.603 43.344C255.115 43.0027 255.552 42.832 255.915 42.832C256.384 42.832 256.747 43.0133 257.003 43.376L258.603 45.456Z" fill="#1E1E1E"/>
<g clip-path="url(#clip0_283_19)">
<path d="M50.5 19.3676C50.5 27.856 43.5829 34.7352 35.05 34.7352L20.4379 14.3689L13 4H35.05C43.5829 4 50.5 10.8791 50.5 19.3676Z" fill="#0047BD"/>
<path d="M50 49.5011L4 4V49.5011H50Z" fill="#009BE5"/>
<g filter="url(#filter0_d_283_19)">
<path d="M37.1904 36.8308L4 49.501L24.5187 24.2959L37.1904 36.8308Z" fill="#0087D9"/>
</g>
<g filter="url(#filter1_d_283_19)">
<path d="M4 49.501L12.8553 12.7589L24.5187 24.2959L4 49.501Z" fill="#006FCB"/>
</g>
<g filter="url(#filter2_d_283_19)">
<path d="M4 49.5011V4L12.8553 12.759L4 49.5011Z" fill="#0047BD"/>
</g>
<path d="M34.99 34.7352L17.6543 4H4L34.99 34.7352Z" fill="#3A1BB6"/>
<path d="M34.99 34.7352L17.6543 4H4L34.99 34.7352Z" fill="#112F63"/>
</g>
<path d="M11.6379 63.1276C11.5813 63.2219 11.5185 63.2942 11.4493 63.3445C11.3865 63.3885 11.3079 63.4105 11.2136 63.4105C11.1067 63.4105 10.981 63.357 10.8364 63.2502C10.6918 63.1433 10.5095 63.027 10.2894 62.9012C10.0757 62.7692 9.81478 62.6498 9.50674 62.5429C9.20497 62.436 8.8372 62.3826 8.40342 62.3826C7.99478 62.3826 7.6333 62.4392 7.31896 62.5523C7.01092 62.6592 6.75002 62.8069 6.53627 62.9955C6.32881 63.1842 6.17164 63.4073 6.06477 63.6651C5.95789 63.9166 5.90446 64.19 5.90446 64.4855C5.90446 64.8627 5.99561 65.177 6.17793 65.4285C6.36653 65.6737 6.61171 65.8843 6.91347 66.0603C7.22152 66.2363 7.56729 66.3904 7.95078 66.5224C8.34055 66.6481 8.73661 66.7801 9.13896 66.9185C9.5476 67.0568 9.94366 67.2139 10.3272 67.39C10.7169 67.5597 11.0627 67.7766 11.3645 68.0406C11.6725 68.3047 11.9177 68.6284 12.1 69.0119C12.2886 69.3954 12.3829 69.8669 12.3829 70.4264C12.3829 71.0174 12.2823 71.5738 12.0811 72.0955C11.88 72.6111 11.5845 73.0606 11.1947 73.444C10.8112 73.8275 10.3366 74.1293 9.77078 74.3493C9.21126 74.5694 8.57316 74.6794 7.85648 74.6794C6.97634 74.6794 6.17793 74.5222 5.46124 74.2079C4.74456 73.8873 4.13161 73.4566 3.62238 72.916L4.15047 72.0484C4.20076 71.9792 4.26048 71.9227 4.32964 71.8787C4.40508 71.8284 4.4868 71.8032 4.57482 71.8032C4.65655 71.8032 4.7477 71.8378 4.84829 71.9069C4.95516 71.9698 5.07461 72.0515 5.20663 72.1521C5.33865 72.2527 5.48953 72.3627 5.65927 72.4822C5.82902 72.6016 6.02076 72.7116 6.23451 72.8122C6.45454 72.9128 6.70287 72.9977 6.97948 73.0668C7.2561 73.1297 7.56729 73.1611 7.91306 73.1611C8.34684 73.1611 8.73347 73.1014 9.07295 72.982C9.41244 72.8625 9.69848 72.6959 9.93109 72.4822C10.17 72.2621 10.3523 72.0012 10.478 71.6995C10.6038 71.3977 10.6666 71.0614 10.6666 70.6905C10.6666 70.2818 10.5723 69.9486 10.3837 69.6909C10.2014 69.4268 9.95938 69.2068 9.65762 69.0308C9.35586 68.8548 9.01009 68.707 8.62031 68.5876C8.23054 68.4618 7.83447 68.3361 7.43212 68.2104C7.02978 68.0783 6.63371 67.9275 6.24394 67.7577C5.85416 67.588 5.50839 67.368 5.20663 67.0976C4.90487 66.8273 4.65969 66.491 4.47109 66.0886C4.28877 65.68 4.19762 65.177 4.19762 64.5798C4.19762 64.102 4.28877 63.6399 4.47109 63.1936C4.65969 62.7472 4.93002 62.3512 5.28207 62.0054C5.64041 61.6596 6.07734 61.383 6.59285 61.1755C7.11465 60.9681 7.71188 60.8644 8.38456 60.8644C9.13896 60.8644 9.82421 60.9838 10.4403 61.2227C11.0627 61.4616 11.6096 61.8074 12.0811 62.26L11.6379 63.1276ZM19.1099 60.638V68.8139H19.5437C19.6694 68.8139 19.7732 68.7982 19.8549 68.7667C19.9429 68.729 20.0341 68.6567 20.1284 68.5499L23.146 65.3153C23.234 65.2085 23.3252 65.1267 23.4195 65.0702C23.52 65.0073 23.6521 64.9759 23.8155 64.9759H25.3338L21.8163 68.7196C21.6466 68.9333 21.4643 69.0999 21.2694 69.2194C21.3826 69.2948 21.4831 69.3828 21.5712 69.4834C21.6655 69.5777 21.7535 69.6877 21.8352 69.8135L25.5695 74.5285H24.0701C23.9255 74.5285 23.7998 74.5065 23.6929 74.4625C23.5923 74.4122 23.5043 74.3242 23.4289 74.1985L20.2887 70.285C20.1944 70.153 20.1001 70.0681 20.0058 70.0304C19.9178 69.9864 19.7795 69.9644 19.5908 69.9644H19.1099V74.5285H17.4219V60.638H19.1099ZM38.2588 64.9759L32.9308 77.3481C32.8743 77.4738 32.802 77.5744 32.7139 77.6499C32.6322 77.7253 32.5033 77.763 32.3273 77.763H31.0825L32.8271 73.9721L28.8853 64.9759H30.3376C30.4822 64.9759 30.5953 65.0136 30.6771 65.089C30.7651 65.1582 30.8248 65.2368 30.8562 65.3248L33.4118 71.3411C33.5124 71.6052 33.5972 71.8818 33.6664 72.171C33.7544 71.8755 33.8487 71.5958 33.9493 71.3317L36.4294 65.3248C36.4671 65.2242 36.53 65.1425 36.618 65.0796C36.7123 65.0104 36.816 64.9759 36.9292 64.9759H38.2588ZM48.1573 66.5507C48.0818 66.689 47.9655 66.7581 47.8084 66.7581C47.7141 66.7581 47.6072 66.7236 47.4877 66.6544C47.3683 66.5853 47.2206 66.5098 47.0445 66.4281C46.8748 66.3401 46.6705 66.2615 46.4316 66.1923C46.1927 66.1169 45.9098 66.0792 45.5829 66.0792C45.3 66.0792 45.0454 66.1169 44.819 66.1923C44.5927 66.2615 44.3978 66.3589 44.2344 66.4847C44.0772 66.6104 43.9546 66.7581 43.8666 66.9279C43.7849 67.0913 43.744 67.2705 43.744 67.4654C43.744 67.7106 43.8132 67.9149 43.9515 68.0783C44.0961 68.2418 44.2847 68.3833 44.5173 68.5027C44.7499 68.6221 45.0139 68.729 45.3094 68.8233C45.6049 68.9113 45.9066 69.0088 46.2147 69.1157C46.529 69.2162 46.8339 69.3294 47.1294 69.4551C47.4249 69.5809 47.6889 69.738 47.9215 69.9266C48.1541 70.1152 48.3396 70.3478 48.4779 70.6245C48.6225 70.8948 48.6948 71.2217 48.6948 71.6052C48.6948 72.0453 48.6162 72.4539 48.459 72.8311C48.3019 73.202 48.0693 73.5258 47.7612 73.8024C47.4532 74.0727 47.076 74.2865 46.6296 74.4436C46.1833 74.6008 45.6677 74.6794 45.0831 74.6794C44.4167 74.6794 43.8132 74.5725 43.2725 74.3588C42.7319 74.1387 42.2729 73.859 41.8957 73.5195L42.2918 72.8782C42.3421 72.7965 42.4018 72.7337 42.471 72.6896C42.5401 72.6456 42.6281 72.6236 42.735 72.6236C42.8482 72.6236 42.9676 72.6676 43.0933 72.7557C43.2191 72.8437 43.37 72.9411 43.546 73.048C43.7283 73.1549 43.9483 73.2523 44.2061 73.3403C44.4638 73.4283 44.7845 73.4723 45.168 73.4723C45.4949 73.4723 45.7809 73.4315 46.0261 73.3497C46.2713 73.2617 46.4756 73.1454 46.639 73.0008C46.8025 72.8562 46.9219 72.6896 46.9974 72.501C47.0791 72.3124 47.12 72.1113 47.12 71.8975C47.12 71.6335 47.0477 71.4166 46.9031 71.2468C46.7648 71.0708 46.5793 70.9231 46.3467 70.8036C46.1141 70.6779 45.8469 70.571 45.5452 70.483C45.2497 70.3887 44.9448 70.2913 44.6304 70.1907C44.3224 70.0901 44.0175 69.9769 43.7157 69.8512C43.4202 69.7192 43.1562 69.5557 42.9236 69.3608C42.691 69.1659 42.5024 68.9271 42.3578 68.6442C42.2195 68.355 42.1503 68.0061 42.1503 67.5974C42.1503 67.2328 42.2258 66.8839 42.3767 66.5507C42.5275 66.2112 42.7476 65.9157 43.0368 65.6643C43.3259 65.4065 43.6811 65.2022 44.1024 65.0513C44.5236 64.9004 45.0045 64.825 45.5452 64.825C46.1738 64.825 46.7365 64.9256 47.2331 65.1267C47.7361 65.3216 48.1699 65.592 48.5345 65.9377L48.1573 66.5507ZM60.1639 68.7102C60.1639 68.3204 60.1074 67.9652 59.9942 67.6446C59.8873 67.3177 59.727 67.0379 59.5133 66.8053C59.3058 66.5664 59.0512 66.3841 58.7494 66.2583C58.4477 66.1263 58.105 66.0603 57.7216 66.0603C56.9169 66.0603 56.2788 66.2961 55.8073 66.7676C55.342 67.2328 55.0529 67.8803 54.9397 68.7102H60.1639ZM61.5219 73.1894C61.3144 73.4409 61.0661 73.6609 60.7769 73.8495C60.4877 74.0319 60.1765 74.1827 59.8433 74.3022C59.5164 74.4216 59.1769 74.5096 58.8249 74.5662C58.4728 74.6291 58.1239 74.6605 57.7781 74.6605C57.118 74.6605 56.5082 74.5505 55.9487 74.3305C55.3955 74.1042 54.9145 73.7772 54.5059 73.3497C54.1036 72.916 53.7892 72.3816 53.5629 71.7466C53.3366 71.1117 53.2234 70.3824 53.2234 69.5589C53.2234 68.8925 53.324 68.2701 53.5252 67.6917C53.7326 67.1133 54.0281 66.6135 54.4116 66.1923C54.7951 65.7648 55.2635 65.4316 55.8167 65.1928C56.3699 64.9476 56.9923 64.825 57.6838 64.825C58.2559 64.825 58.784 64.9224 59.2681 65.1173C59.7585 65.3059 60.1797 65.5825 60.5317 65.9472C60.8901 66.3055 61.1698 66.7519 61.371 67.2862C61.5722 67.8143 61.6728 68.4178 61.6728 69.0968C61.6728 69.3608 61.6445 69.5369 61.5879 69.6249C61.5313 69.7129 61.4244 69.7569 61.2673 69.7569H54.8831C54.902 70.3604 54.9837 70.8854 55.1283 71.3317C55.2792 71.7781 55.4866 72.1521 55.7507 72.4539C56.0147 72.7494 56.3291 72.9725 56.6937 73.1234C57.0583 73.268 57.4669 73.3403 57.9196 73.3403C58.3408 73.3403 58.7023 73.2932 59.004 73.1989C59.3121 73.0983 59.5761 72.9914 59.7962 72.8782C60.0162 72.7651 60.1985 72.6614 60.3431 72.5671C60.494 72.4665 60.6229 72.4162 60.7297 72.4162C60.8681 72.4162 60.9749 72.4696 61.0504 72.5765L61.5219 73.1894ZM73.4003 66.6733C73.3501 66.7424 73.2998 66.7959 73.2495 66.8336C73.1992 66.8713 73.13 66.8902 73.042 66.8902C72.9477 66.8902 72.844 66.8524 72.7308 66.777C72.6177 66.6953 72.4762 66.6073 72.3065 66.513C72.143 66.4187 71.9387 66.3338 71.6935 66.2583C71.4546 66.1766 71.1591 66.1358 70.8071 66.1358C70.3356 66.1358 69.9207 66.2206 69.5623 66.3904C69.204 66.5538 68.9022 66.7927 68.657 67.1071C68.4181 67.4214 68.2358 67.8017 68.1101 68.2481C67.9906 68.6944 67.9309 69.1942 67.9309 69.7475C67.9309 70.3258 67.9969 70.8414 68.1289 71.294C68.261 71.7404 68.4464 72.1176 68.6853 72.4256C68.9305 72.7274 69.2228 72.96 69.5623 73.1234C69.9081 73.2806 70.2947 73.3592 70.7222 73.3592C71.1308 73.3592 71.4672 73.312 71.7312 73.2177C71.9953 73.1171 72.2122 73.0071 72.3819 72.8877C72.5579 72.7682 72.7025 72.6614 72.8157 72.5671C72.9351 72.4665 73.0514 72.4162 73.1646 72.4162C73.3029 72.4162 73.4098 72.4696 73.4852 72.5765L73.9567 73.1894C73.7493 73.4472 73.5135 73.6672 73.2495 73.8495C72.9854 74.0319 72.6994 74.1859 72.3913 74.3116C72.0896 74.4311 71.7721 74.5191 71.4389 74.5757C71.1057 74.6322 70.7662 74.6605 70.4205 74.6605C69.8232 74.6605 69.2668 74.5505 68.7513 74.3305C68.2421 74.1104 67.7989 73.793 67.4217 73.378C67.0445 72.9568 66.749 72.4413 66.5353 71.8315C66.3215 71.2217 66.2146 70.527 66.2146 69.7475C66.2146 69.0371 66.3121 68.3801 66.507 67.7766C66.7082 67.1731 66.9973 66.6544 67.3745 66.2206C67.758 65.7806 68.2264 65.4379 68.7796 65.1928C69.3391 64.9476 69.9804 64.825 70.7034 64.825C71.376 64.825 71.967 64.935 72.4762 65.155C72.9917 65.3688 73.4475 65.6737 73.8436 66.0697L73.4003 66.6733ZM86.6314 64.9759V74.5285H85.6319C85.393 74.5285 85.2421 74.4122 85.1792 74.1796L85.0472 73.1517C84.6323 73.6106 84.1671 73.9816 83.6516 74.2645C83.136 74.5411 82.5451 74.6794 81.8787 74.6794C81.3569 74.6794 80.8948 74.5945 80.4925 74.4248C80.0964 74.2487 79.7632 74.0036 79.4929 73.6892C79.2226 73.3749 79.0183 72.9945 78.8799 72.5482C78.7479 72.1018 78.6819 71.6083 78.6819 71.0677V64.9759H80.3605V71.0677C80.3605 71.7906 80.5239 72.3502 80.8508 72.7462C81.184 73.1423 81.6901 73.3403 82.3691 73.3403C82.8657 73.3403 83.3278 73.224 83.7553 72.9914C84.1891 72.7525 84.5883 72.4256 84.9529 72.0107V64.9759H86.6314ZM93.9042 66.8902C94.206 66.2363 94.5769 65.7271 95.017 65.3625C95.457 64.9916 95.9946 64.8061 96.6295 64.8061C96.8307 64.8061 97.0224 64.8281 97.2047 64.8721C97.3933 64.9161 97.5599 64.9853 97.7045 65.0796L97.5819 66.3338C97.5442 66.491 97.4499 66.5695 97.299 66.5695C97.211 66.5695 97.0822 66.5507 96.9124 66.513C96.7427 66.4752 96.5509 66.4564 96.3372 66.4564C96.0354 66.4564 95.7651 66.5004 95.5262 66.5884C95.2936 66.6764 95.083 66.8084 94.8944 66.9845C94.7121 67.1542 94.5455 67.368 94.3946 67.6257C94.25 67.8772 94.118 68.1664 93.9985 68.4933V74.5285H92.3105V64.9759H93.2724C93.4547 64.9759 93.5805 65.0104 93.6496 65.0796C93.7188 65.1487 93.7659 65.2682 93.7911 65.4379L93.9042 66.8902ZM108.205 68.7102C108.205 68.3204 108.148 67.9652 108.035 67.6446C107.928 67.3177 107.768 67.0379 107.554 66.8053C107.347 66.5664 107.092 66.3841 106.79 66.2583C106.489 66.1263 106.146 66.0603 105.763 66.0603C104.958 66.0603 104.32 66.2961 103.848 66.7676C103.383 67.2328 103.094 67.8803 102.981 68.7102H108.205ZM109.563 73.1894C109.355 73.4409 109.107 73.6609 108.818 73.8495C108.529 74.0319 108.217 74.1827 107.884 74.3022C107.557 74.4216 107.218 74.5096 106.866 74.5662C106.514 74.6291 106.165 74.6605 105.819 74.6605C105.159 74.6605 104.549 74.5505 103.99 74.3305C103.436 74.1042 102.956 73.7772 102.547 73.3497C102.145 72.916 101.83 72.3816 101.604 71.7466C101.378 71.1117 101.264 70.3824 101.264 69.5589C101.264 68.8925 101.365 68.2701 101.566 67.6917C101.774 67.1133 102.069 66.6135 102.453 66.1923C102.836 65.7648 103.304 65.4316 103.858 65.1928C104.411 64.9476 105.033 64.825 105.725 64.825C106.297 64.825 106.825 64.9224 107.309 65.1173C107.799 65.3059 108.221 65.5825 108.573 65.9472C108.931 66.3055 109.211 66.7519 109.412 67.2862C109.613 67.8143 109.714 68.4178 109.714 69.0968C109.714 69.3608 109.685 69.5369 109.629 69.6249C109.572 69.7129 109.465 69.7569 109.308 69.7569H102.924C102.943 70.3604 103.025 70.8854 103.169 71.3317C103.32 71.7781 103.528 72.1521 103.792 72.4539C104.056 72.7494 104.37 72.9725 104.735 73.1234C105.099 73.268 105.508 73.3403 105.961 73.3403C106.382 73.3403 106.743 73.2932 107.045 73.1989C107.353 73.0983 107.617 72.9914 107.837 72.8782C108.057 72.7651 108.239 72.6614 108.384 72.5671C108.535 72.4665 108.664 72.4162 108.771 72.4162C108.909 72.4162 109.016 72.4696 109.091 72.5765L109.563 73.1894ZM131.599 62.5523H127.224V74.5285H125.404V62.5523H121.019V61.0152H131.599V62.5523ZM140.317 68.7102C140.317 68.3204 140.261 67.9652 140.147 67.6446C140.041 67.3177 139.88 67.0379 139.667 66.8053C139.459 66.5664 139.204 66.3841 138.903 66.2583C138.601 66.1263 138.258 66.0603 137.875 66.0603C137.07 66.0603 136.432 66.2961 135.96 66.7676C135.495 67.2328 135.206 67.8803 135.093 68.7102H140.317ZM141.675 73.1894C141.468 73.4409 141.219 73.6609 140.93 73.8495C140.641 74.0319 140.33 74.1827 139.997 74.3022C139.67 74.4216 139.33 74.5096 138.978 74.5662C138.626 74.6291 138.277 74.6605 137.931 74.6605C137.271 74.6605 136.661 74.5505 136.102 74.3305C135.549 74.1042 135.068 73.7772 134.659 73.3497C134.257 72.916 133.942 72.3816 133.716 71.7466C133.49 71.1117 133.377 70.3824 133.377 69.5589C133.377 68.8925 133.477 68.2701 133.678 67.6917C133.886 67.1133 134.181 66.6135 134.565 66.1923C134.948 65.7648 135.417 65.4316 135.97 65.1928C136.523 64.9476 137.146 64.825 137.837 64.825C138.409 64.825 138.937 64.9224 139.421 65.1173C139.912 65.3059 140.333 65.5825 140.685 65.9472C141.043 66.3055 141.323 66.7519 141.524 67.2862C141.725 67.8143 141.826 68.4178 141.826 69.0968C141.826 69.3608 141.798 69.5369 141.741 69.6249C141.685 69.7129 141.578 69.7569 141.42 69.7569H135.036C135.055 70.3604 135.137 70.8854 135.282 71.3317C135.432 71.7781 135.64 72.1521 135.904 72.4539C136.168 72.7494 136.482 72.9725 136.847 73.1234C137.212 73.268 137.62 73.3403 138.073 73.3403C138.494 73.3403 138.856 73.2932 139.157 73.1989C139.465 73.0983 139.729 72.9914 139.949 72.8782C140.169 72.7651 140.352 72.6614 140.496 72.5671C140.647 72.4665 140.776 72.4162 140.883 72.4162C141.021 72.4162 141.128 72.4696 141.204 72.5765L141.675 73.1894ZM153.554 66.6733C153.503 66.7424 153.453 66.7959 153.403 66.8336C153.352 66.8713 153.283 66.8902 153.195 66.8902C153.101 66.8902 152.997 66.8524 152.884 66.777C152.771 66.6953 152.629 66.6073 152.46 66.513C152.296 66.4187 152.092 66.3338 151.847 66.2583C151.608 66.1766 151.312 66.1358 150.96 66.1358C150.489 66.1358 150.074 66.2206 149.716 66.3904C149.357 66.5538 149.055 66.7927 148.81 67.1071C148.571 67.4214 148.389 67.8017 148.263 68.2481C148.144 68.6944 148.084 69.1942 148.084 69.7475C148.084 70.3258 148.15 70.8414 148.282 71.294C148.414 71.7404 148.6 72.1176 148.839 72.4256C149.084 72.7274 149.376 72.96 149.716 73.1234C150.061 73.2806 150.448 73.3592 150.875 73.3592C151.284 73.3592 151.62 73.312 151.884 73.2177C152.149 73.1171 152.365 73.0071 152.535 72.8877C152.711 72.7682 152.856 72.6614 152.969 72.5671C153.088 72.4665 153.205 72.4162 153.318 72.4162C153.456 72.4162 153.563 72.4696 153.638 72.5765L154.11 73.1894C153.902 73.4472 153.667 73.6672 153.403 73.8495C153.139 74.0319 152.853 74.1859 152.545 74.3116C152.243 74.4311 151.925 74.5191 151.592 74.5757C151.259 74.6322 150.919 74.6605 150.574 74.6605C149.976 74.6605 149.42 74.5505 148.905 74.3305C148.395 74.1104 147.952 73.793 147.575 73.378C147.198 72.9568 146.902 72.4413 146.689 71.8315C146.475 71.2217 146.368 70.527 146.368 69.7475C146.368 69.0371 146.465 68.3801 146.66 67.7766C146.861 67.1731 147.151 66.6544 147.528 66.2206C147.911 65.7806 148.38 65.4379 148.933 65.1928C149.492 64.9476 150.134 64.825 150.857 64.825C151.529 64.825 152.12 64.935 152.629 65.155C153.145 65.3688 153.601 65.6737 153.997 66.0697L153.554 66.6733ZM160.617 66.2489C161.026 65.8151 161.479 65.4694 161.975 65.2116C162.472 64.9539 163.044 64.825 163.692 64.825C164.213 64.825 164.672 64.913 165.068 65.089C165.471 65.2588 165.804 65.5039 166.068 65.8246C166.338 66.1389 166.543 66.5192 166.681 66.9656C166.819 67.412 166.888 67.9055 166.888 68.4461V74.5285H165.2V68.4461C165.2 67.7231 165.034 67.1636 164.701 66.7676C164.374 66.3652 163.874 66.164 163.201 66.164C162.705 66.164 162.239 66.2835 161.806 66.5224C161.378 66.7613 160.982 67.085 160.617 67.4937V74.5285H158.929V60.638H160.617V66.2489ZM174.048 66.3621C174.255 66.1295 174.476 65.9189 174.708 65.7303C174.941 65.5417 175.186 65.3814 175.444 65.2493C175.708 65.111 175.984 65.0073 176.274 64.9381C176.569 64.8627 176.886 64.825 177.226 64.825C177.748 64.825 178.207 64.913 178.603 65.089C179.005 65.2588 179.338 65.5039 179.602 65.8246C179.873 66.1389 180.077 66.5192 180.215 66.9656C180.354 67.412 180.423 67.9055 180.423 68.4461V74.5285H178.735V68.4461C178.735 67.7231 178.568 67.1636 178.235 66.7676C177.908 66.3652 177.408 66.164 176.736 66.164C176.239 66.164 175.774 66.2835 175.34 66.5224C174.912 66.7613 174.516 67.085 174.152 67.4937V74.5285H172.464V64.9759H173.473C173.712 64.9759 173.859 65.0922 173.916 65.3248L174.048 66.3621ZM190.025 64.825C190.723 64.825 191.351 64.9413 191.911 65.1739C192.47 65.4065 192.948 65.7366 193.344 66.164C193.74 66.5915 194.042 67.1102 194.249 67.72C194.463 68.3235 194.57 68.9993 194.57 69.7475C194.57 70.5019 194.463 71.1808 194.249 71.7844C194.042 72.3879 193.74 72.9034 193.344 73.3309C192.948 73.7584 192.47 74.0884 191.911 74.321C191.351 74.5474 190.723 74.6605 190.025 74.6605C189.321 74.6605 188.686 74.5474 188.12 74.321C187.56 74.0884 187.083 73.7584 186.687 73.3309C186.29 72.9034 185.986 72.3879 185.772 71.7844C185.564 71.1808 185.461 70.5019 185.461 69.7475C185.461 68.9993 185.564 68.3235 185.772 67.72C185.986 67.1102 186.29 66.5915 186.687 66.164C187.083 65.7366 187.56 65.4065 188.12 65.1739C188.686 64.9413 189.321 64.825 190.025 64.825ZM190.025 73.3497C190.968 73.3497 191.672 73.0354 192.137 72.4067C192.602 71.7718 192.835 70.8885 192.835 69.7569C192.835 68.619 192.602 67.7326 192.137 67.0976C191.672 66.4627 190.968 66.1452 190.025 66.1452C189.547 66.1452 189.129 66.2269 188.771 66.3904C188.418 66.5538 188.123 66.7896 187.884 67.0976C187.652 67.4057 187.475 67.786 187.356 68.2387C187.243 68.685 187.186 69.1911 187.186 69.7569C187.186 70.8885 187.419 71.7718 187.884 72.4067C188.356 73.0354 189.069 73.3497 190.025 73.3497ZM201.452 60.638V74.5285H199.773V60.638H201.452ZM211.218 64.825C211.916 64.825 212.545 64.9413 213.104 65.1739C213.664 65.4065 214.141 65.7366 214.537 66.164C214.933 66.5915 215.235 67.1102 215.443 67.72C215.656 68.3235 215.763 68.9993 215.763 69.7475C215.763 70.5019 215.656 71.1808 215.443 71.7844C215.235 72.3879 214.933 72.9034 214.537 73.3309C214.141 73.7584 213.664 74.0884 213.104 74.321C212.545 74.5474 211.916 74.6605 211.218 74.6605C210.514 74.6605 209.879 74.5474 209.313 74.321C208.754 74.0884 208.276 73.7584 207.88 73.3309C207.484 72.9034 207.179 72.3879 206.965 71.7844C206.758 71.1808 206.654 70.5019 206.654 69.7475C206.654 68.9993 206.758 68.3235 206.965 67.72C207.179 67.1102 207.484 66.5915 207.88 66.164C208.276 65.7366 208.754 65.4065 209.313 65.1739C209.879 64.9413 210.514 64.825 211.218 64.825ZM211.218 73.3497C212.161 73.3497 212.865 73.0354 213.33 72.4067C213.796 71.7718 214.028 70.8885 214.028 69.7569C214.028 68.619 213.796 67.7326 213.33 67.0976C212.865 66.4627 212.161 66.1452 211.218 66.1452C210.74 66.1452 210.322 66.2269 209.964 66.3904C209.612 66.5538 209.316 66.7896 209.077 67.0976C208.845 67.4057 208.669 67.786 208.549 68.2387C208.436 68.685 208.38 69.1911 208.38 69.7569C208.38 70.8885 208.612 71.7718 209.077 72.4067C209.549 73.0354 210.262 73.3497 211.218 73.3497ZM224.183 69.8606C224.523 69.8606 224.822 69.8135 225.079 69.7192C225.337 69.6249 225.554 69.4929 225.73 69.3231C225.906 69.1534 226.038 68.9522 226.126 68.7196C226.214 68.4807 226.258 68.2198 226.258 67.9369C226.258 67.3522 226.079 66.887 225.721 66.5412C225.369 66.1955 224.856 66.0226 224.183 66.0226C223.505 66.0226 222.986 66.1955 222.628 66.5412C222.275 66.887 222.099 67.3522 222.099 67.9369C222.099 68.2198 222.143 68.4807 222.231 68.7196C222.326 68.9522 222.461 69.1534 222.637 69.3231C222.813 69.4929 223.03 69.6249 223.288 69.7192C223.545 69.8135 223.844 69.8606 224.183 69.8606ZM227.211 75.0472C227.211 74.8145 227.145 74.6259 227.013 74.4814C226.88 74.3368 226.701 74.2236 226.475 74.1419C226.255 74.0601 225.997 74.0036 225.702 73.9721C225.406 73.9344 225.092 73.9061 224.759 73.8873C224.432 73.8684 224.099 73.8495 223.759 73.8307C223.42 73.8118 223.093 73.7804 222.778 73.7364C222.426 73.8998 222.137 74.1073 221.911 74.3588C221.691 74.6039 221.581 74.8931 221.581 75.2263C221.581 75.4401 221.634 75.6381 221.741 75.8204C221.854 76.009 222.024 76.1693 222.25 76.3014C222.477 76.4397 222.76 76.5465 223.099 76.622C223.445 76.7037 223.85 76.7446 224.316 76.7446C224.768 76.7446 225.174 76.7037 225.532 76.622C225.89 76.5402 226.192 76.4239 226.437 76.2731C226.689 76.1222 226.88 75.943 227.013 75.7356C227.145 75.5281 227.211 75.2986 227.211 75.0472ZM228.917 65.3531V65.9754C228.917 66.1829 228.785 66.3149 228.521 66.3715L227.437 66.513C227.651 66.9279 227.757 67.3868 227.757 67.8897C227.757 68.355 227.666 68.7793 227.484 69.1628C227.308 69.54 227.063 69.8638 226.748 70.1341C226.434 70.4044 226.057 70.6119 225.617 70.7565C225.177 70.9011 224.699 70.9734 224.183 70.9734C223.737 70.9734 223.316 70.9199 222.92 70.8131C222.719 70.9388 222.565 71.074 222.458 71.2186C222.351 71.3569 222.297 71.4983 222.297 71.6429C222.297 71.8692 222.389 72.0421 222.571 72.1616C222.76 72.2747 223.005 72.3564 223.306 72.4067C223.608 72.457 223.951 72.4885 224.334 72.501C224.724 72.5136 225.12 72.5356 225.523 72.5671C225.931 72.5922 226.327 72.6393 226.711 72.7085C227.101 72.7777 227.446 72.8908 227.748 73.048C228.05 73.2052 228.292 73.422 228.474 73.6987C228.663 73.9753 228.757 74.3336 228.757 74.7737C228.757 75.1823 228.653 75.5784 228.446 75.9619C228.245 76.3454 227.952 76.6848 227.569 76.9803C227.185 77.2821 226.714 77.521 226.154 77.697C225.601 77.8793 224.976 77.9705 224.278 77.9705C223.58 77.9705 222.97 77.9013 222.448 77.763C221.927 77.6247 221.493 77.4392 221.147 77.2066C220.801 76.974 220.54 76.7037 220.364 76.3957C220.195 76.0939 220.11 75.7764 220.11 75.4432C220.11 74.9717 220.257 74.5725 220.553 74.2456C220.848 73.9187 221.254 73.6578 221.769 73.4629C221.486 73.3372 221.26 73.1706 221.09 72.9631C220.927 72.7494 220.845 72.4633 220.845 72.105C220.845 71.9667 220.87 71.8252 220.921 71.6806C220.971 71.5297 221.046 71.382 221.147 71.2374C221.254 71.0865 221.383 70.9451 221.534 70.8131C221.685 70.681 221.861 70.5647 222.062 70.4642C221.59 70.2001 221.222 69.8512 220.958 69.4174C220.694 68.9773 220.562 68.4681 220.562 67.8897C220.562 67.4245 220.65 67.0033 220.826 66.6261C221.009 66.2426 221.26 65.9189 221.581 65.6548C221.901 65.3845 222.282 65.177 222.722 65.0324C223.168 64.8878 223.655 64.8155 224.183 64.8155C224.598 64.8155 224.985 64.8627 225.343 64.957C225.702 65.045 226.029 65.177 226.324 65.3531H228.917ZM235.444 64.9759V74.5285H233.765V64.9759H235.444ZM235.802 61.9771C235.802 62.1406 235.767 62.2946 235.698 62.4392C235.635 62.5775 235.547 62.7032 235.434 62.8164C235.327 62.9233 235.198 63.0081 235.047 63.071C234.903 63.1339 234.749 63.1653 234.585 63.1653C234.422 63.1653 234.268 63.1339 234.123 63.071C233.985 63.0081 233.862 62.9233 233.756 62.8164C233.649 62.7032 233.564 62.5775 233.501 62.4392C233.438 62.2946 233.407 62.1406 233.407 61.9771C233.407 61.8136 233.438 61.6596 233.501 61.515C233.564 61.3642 233.649 61.2353 233.756 61.1284C233.862 61.0152 233.985 60.9272 234.123 60.8644C234.268 60.8015 234.422 60.7701 234.585 60.7701C234.749 60.7701 234.903 60.8015 235.047 60.8644C235.198 60.9272 235.327 61.0152 235.434 61.1284C235.547 61.2353 235.635 61.3642 235.698 61.515C235.767 61.6596 235.802 61.8136 235.802 61.9771ZM247.613 68.7102C247.613 68.3204 247.556 67.9652 247.443 67.6446C247.336 67.3177 247.176 67.0379 246.962 66.8053C246.755 66.5664 246.5 66.3841 246.198 66.2583C245.896 66.1263 245.554 66.0603 245.17 66.0603C244.366 66.0603 243.728 66.2961 243.256 66.7676C242.791 67.2328 242.502 67.8803 242.388 68.7102H247.613ZM248.971 73.1894C248.763 73.4409 248.515 73.6609 248.226 73.8495C247.937 74.0319 247.625 74.1827 247.292 74.3022C246.965 74.4216 246.626 74.5096 246.274 74.5662C245.922 74.6291 245.573 74.6605 245.227 74.6605C244.567 74.6605 243.957 74.5505 243.398 74.3305C242.844 74.1042 242.363 73.7772 241.955 73.3497C241.552 72.916 241.238 72.3816 241.012 71.7466C240.785 71.1117 240.672 70.3824 240.672 69.5589C240.672 68.8925 240.773 68.2701 240.974 67.6917C241.181 67.1133 241.477 66.6135 241.86 66.1923C242.244 65.7648 242.712 65.4316 243.265 65.1928C243.819 64.9476 244.441 64.825 245.133 64.825C245.705 64.825 246.233 64.9224 246.717 65.1173C247.207 65.3059 247.628 65.5825 247.981 65.9472C248.339 66.3055 248.619 66.7519 248.82 67.2862C249.021 67.8143 249.122 68.4178 249.122 69.0968C249.122 69.3608 249.093 69.5369 249.037 69.6249C248.98 69.7129 248.873 69.7569 248.716 69.7569H242.332C242.351 70.3604 242.432 70.8854 242.577 71.3317C242.728 71.7781 242.935 72.1521 243.199 72.4539C243.464 72.7494 243.778 72.9725 244.142 73.1234C244.507 73.268 244.916 73.3403 245.368 73.3403C245.79 73.3403 246.151 73.2932 246.453 73.1989C246.761 73.0983 247.025 72.9914 247.245 72.8782C247.465 72.7651 247.647 72.6614 247.792 72.5671C247.943 72.4665 248.072 72.4162 248.179 72.4162C248.317 72.4162 248.424 72.4696 248.499 72.5765L248.971 73.1894ZM259.765 66.5507C259.689 66.689 259.573 66.7581 259.416 66.7581C259.321 66.7581 259.215 66.7236 259.095 66.6544C258.976 66.5853 258.828 66.5098 258.652 66.4281C258.482 66.3401 258.278 66.2615 258.039 66.1923C257.8 66.1169 257.517 66.0792 257.19 66.0792C256.907 66.0792 256.653 66.1169 256.426 66.1923C256.2 66.2615 256.005 66.3589 255.842 66.4847C255.685 66.6104 255.562 66.7581 255.474 66.9279C255.392 67.0913 255.351 67.2705 255.351 67.4654C255.351 67.7106 255.421 67.9149 255.559 68.0783C255.703 68.2418 255.892 68.3833 256.125 68.5027C256.357 68.6221 256.621 68.729 256.917 68.8233C257.212 68.9113 257.514 69.0088 257.822 69.1157C258.136 69.2162 258.441 69.3294 258.737 69.4551C259.032 69.5809 259.296 69.738 259.529 69.9266C259.762 70.1152 259.947 70.3478 260.085 70.6245C260.23 70.8948 260.302 71.2217 260.302 71.6052C260.302 72.0453 260.224 72.4539 260.066 72.8311C259.909 73.202 259.677 73.5258 259.369 73.8024C259.061 74.0727 258.683 74.2865 258.237 74.4436C257.791 74.6008 257.275 74.6794 256.69 74.6794C256.024 74.6794 255.421 74.5725 254.88 74.3588C254.339 74.1387 253.88 73.859 253.503 73.5195L253.899 72.8782C253.949 72.7965 254.009 72.7337 254.078 72.6896C254.148 72.6456 254.236 72.6236 254.342 72.6236C254.456 72.6236 254.575 72.6676 254.701 72.7557C254.826 72.8437 254.977 72.9411 255.153 73.048C255.336 73.1549 255.556 73.2523 255.813 73.3403C256.071 73.4283 256.392 73.4723 256.775 73.4723C257.102 73.4723 257.388 73.4315 257.633 73.3497C257.879 73.2617 258.083 73.1454 258.246 73.0008C258.41 72.8562 258.529 72.6896 258.605 72.501C258.687 72.3124 258.727 72.1113 258.727 71.8975C258.727 71.6335 258.655 71.4166 258.51 71.2468C258.372 71.0708 258.187 70.9231 257.954 70.8036C257.722 70.6779 257.454 70.571 257.153 70.483C256.857 70.3887 256.552 70.2913 256.238 70.1907C255.93 70.0901 255.625 69.9769 255.323 69.8512C255.028 69.7192 254.764 69.5557 254.531 69.3608C254.298 69.1659 254.11 68.9271 253.965 68.6442C253.827 68.355 253.758 68.0061 253.758 67.5974C253.758 67.2328 253.833 66.8839 253.984 66.5507C254.135 66.2112 254.355 65.9157 254.644 65.6643C254.933 65.4065 255.289 65.2022 255.71 65.0513C256.131 64.9004 256.612 64.825 257.153 64.825C257.781 64.825 258.344 64.9256 258.841 65.1267C259.343 65.3216 259.777 65.592 260.142 65.9377L259.765 66.5507Z" fill="#1E1E1E"/>
<defs>
<filter id="filter0_d_283_19" x="1" y="22.2959" width="41.1904" height="33.2051" filterUnits="userSpaceOnUse" color-interpolation-filters="sRGB">
<feFlood flood-opacity="0" result="BackgroundImageFix"/>
<feColorMatrix in="SourceAlpha" type="matrix" values="0 0 0 0 0 0 0 0 0 0 0 0 0 0 0 0 0 0 127 0" result="hardAlpha"/>
<feOffset dx="1" dy="2"/>
<feGaussianBlur stdDeviation="2"/>
<feComposite in2="hardAlpha" operator="out"/>
<feColorMatrix type="matrix" values="0 0 0 0 0 0 0 0 0 0 0 0 0 0 0 0 0 0 0.3 0"/>
<feBlend mode="normal" in2="BackgroundImageFix" result="effect1_dropShadow_283_19"/>
<feBlend mode="normal" in="SourceGraphic" in2="effect1_dropShadow_283_19" result="shape"/>
</filter>
<filter id="filter1_d_283_19" x="1" y="10.7589" width="28.5187" height="44.7421" filterUnits="userSpaceOnUse" color-interpolation-filters="sRGB">
<feFlood flood-opacity="0" result="BackgroundImageFix"/>
<feColorMatrix in="SourceAlpha" type="matrix" values="0 0 0 0 0 0 0 0 0 0 0 0 0 0 0 0 0 0 127 0" result="hardAlpha"/>
<feOffset dx="1" dy="2"/>
<feGaussianBlur stdDeviation="2"/>
<feComposite in2="hardAlpha" operator="out"/>
<feColorMatrix type="matrix" values="0 0 0 0 0 0 0 0 0 0 0 0 0 0 0 0 0 0 0.3 0"/>
<feBlend mode="normal" in2="BackgroundImageFix" result="effect1_dropShadow_283_19"/>
<feBlend mode="normal" in="SourceGraphic" in2="effect1_dropShadow_283_19" result="shape"/>
</filter>
<filter id="filter2_d_283_19" x="2" y="4" width="12.8553" height="50.501" filterUnits="userSpaceOnUse" color-interpolation-filters="sRGB">
<feFlood flood-opacity="0" result="BackgroundImageFix"/>
<feColorMatrix in="SourceAlpha" type="matrix" values="0 0 0 0 0 0 0 0 0 0 0 0 0 0 0 0 0 0 127 0" result="hardAlpha"/>
<feOffset dy="3"/>
<feGaussianBlur stdDeviation="1"/>
<feComposite in2="hardAlpha" operator="out"/>
<feColorMatrix type="matrix" values="0 0 0 0 0 0 0 0 0 0 0 0 0 0 0 0 0 0 0.25 0"/>
<feBlend mode="normal" in2="BackgroundImageFix" result="effect1_dropShadow_283_19"/>
<feBlend mode="normal" in="SourceGraphic" in2="effect1_dropShadow_283_19" result="shape"/>
</filter>
<clipPath id="clip0_283_19">
<rect width="54" height="54" fill="white"/>
</clipPath>
</defs>
</svg>
