<svg width="263" height="83" viewBox="0 0 263 83" fill="none" xmlns="http://www.w3.org/2000/svg">
<path d="M84.56 26.352C86.352 26.352 87.9307 26.1387 89.296 25.712C90.6827 25.264 91.8347 24.6453 92.752 23.856C93.6907 23.0453 94.3947 22.0853 94.864 20.976C95.3333 19.8667 95.568 18.64 95.568 17.296C95.568 14.5653 94.672 12.5067 92.88 11.12C91.088 9.73333 88.4 9.04 84.816 9.04H78.032V26.352H84.56ZM105.744 50H100.24C99.1093 50 98.2773 49.5627 97.744 48.688L85.84 32.304C85.4773 31.792 85.0827 31.4293 84.656 31.216C84.2507 30.9813 83.6107 30.864 82.736 30.864H78.032V50H71.856V4.144H84.816C87.7173 4.144 90.224 4.44266 92.336 5.04C94.448 5.616 96.1867 6.45867 97.552 7.568C98.9387 8.67733 99.9627 10.0213 100.624 11.6C101.285 13.1573 101.616 14.9067 101.616 16.848C101.616 18.4693 101.36 19.984 100.848 21.392C100.336 22.8 99.5893 24.0693 98.608 25.2C97.648 26.3093 96.464 27.2587 95.056 28.048C93.6693 28.8373 92.0907 29.4347 90.32 29.84C91.1093 30.288 91.792 30.9387 92.368 31.792L105.744 50ZM130.271 30.256C130.271 28.9333 130.079 27.728 129.695 26.64C129.332 25.5307 128.788 24.5813 128.063 23.792C127.359 22.9813 126.495 22.3627 125.471 21.936C124.447 21.488 123.284 21.264 121.983 21.264C119.252 21.264 117.087 22.064 115.487 23.664C113.908 25.2427 112.927 27.44 112.543 30.256H130.271ZM134.879 45.456C134.175 46.3093 133.332 47.056 132.351 47.696C131.369 48.3147 130.313 48.8267 129.183 49.232C128.073 49.6373 126.921 49.936 125.727 50.128C124.532 50.3413 123.348 50.448 122.175 50.448C119.935 50.448 117.865 50.0747 115.967 49.328C114.089 48.56 112.457 47.4507 111.071 46C109.705 44.528 108.639 42.7147 107.871 40.56C107.103 38.4053 106.719 35.9307 106.719 33.136C106.719 30.8747 107.06 28.7627 107.743 26.8C108.447 24.8373 109.449 23.1413 110.751 21.712C112.052 20.2613 113.641 19.1307 115.519 18.32C117.396 17.488 119.508 17.072 121.855 17.072C123.796 17.072 125.588 17.4027 127.231 18.064C128.895 18.704 130.324 19.6427 131.519 20.88C132.735 22.096 133.684 23.6107 134.367 25.424C135.049 27.216 135.391 29.264 135.391 31.568C135.391 32.464 135.295 33.0613 135.103 33.36C134.911 33.6587 134.548 33.808 134.015 33.808H112.351C112.415 35.856 112.692 37.6373 113.183 39.152C113.695 40.6667 114.399 41.936 115.295 42.96C116.191 43.9627 117.257 44.72 118.495 45.232C119.732 45.7227 121.119 45.968 122.655 45.968C124.084 45.968 125.311 45.808 126.335 45.488C127.38 45.1467 128.276 44.784 129.023 44.4C129.769 44.016 130.388 43.664 130.879 43.344C131.391 43.0027 131.828 42.832 132.191 42.832C132.66 42.832 133.023 43.0133 133.279 43.376L134.879 45.456ZM159.955 35.408C157.331 35.4933 155.091 35.7067 153.235 36.048C151.4 36.368 149.896 36.7947 148.723 37.328C147.571 37.8613 146.728 38.4907 146.195 39.216C145.683 39.9413 145.427 40.752 145.427 41.648C145.427 42.5013 145.566 43.2373 145.843 43.856C146.12 44.4747 146.494 44.9867 146.963 45.392C147.454 45.776 148.019 46.064 148.659 46.256C149.32 46.4267 150.024 46.512 150.771 46.512C151.774 46.512 152.691 46.416 153.523 46.224C154.355 46.0107 155.134 45.712 155.859 45.328C156.606 44.944 157.31 44.4853 157.971 43.952C158.654 43.4187 159.315 42.8107 159.955 42.128V35.408ZM141.555 22.16C143.347 20.432 145.278 19.1413 147.347 18.288C149.416 17.4347 151.71 17.008 154.227 17.008C156.04 17.008 157.651 17.3067 159.059 17.904C160.467 18.5013 161.651 19.3333 162.611 20.4C163.571 21.4667 164.296 22.7573 164.787 24.272C165.278 25.7867 165.523 27.4507 165.523 29.264V50H162.995C162.44 50 162.014 49.9147 161.715 49.744C161.416 49.552 161.182 49.1893 161.011 48.656L160.371 45.584C159.518 46.3733 158.686 47.0773 157.875 47.696C157.064 48.2933 156.211 48.8053 155.315 49.232C154.419 49.6373 153.459 49.9467 152.435 50.16C151.432 50.3947 150.312 50.512 149.075 50.512C147.816 50.512 146.632 50.3413 145.523 50C144.414 49.6373 143.443 49.104 142.611 48.4C141.8 47.696 141.15 46.8107 140.659 45.744C140.19 44.656 139.955 43.376 139.955 41.904C139.955 40.624 140.307 39.3973 141.011 38.224C141.715 37.0293 142.856 35.9733 144.435 35.056C146.014 34.1387 148.072 33.392 150.611 32.816C153.15 32.2187 156.264 31.8773 159.955 31.792V29.264C159.955 26.7467 159.411 24.848 158.323 23.568C157.235 22.2667 155.646 21.616 153.555 21.616C152.147 21.616 150.963 21.7973 150.003 22.16C149.064 22.5013 148.243 22.896 147.539 23.344C146.856 23.7707 146.259 24.1653 145.747 24.528C145.256 24.8693 144.766 25.04 144.275 25.04C143.891 25.04 143.56 24.944 143.283 24.752C143.006 24.5387 142.771 24.2827 142.579 23.984L141.555 22.16ZM179.763 4.337V50H174.244V4.337H179.763ZM194.703 18.0905V50H189.096V18.0905H194.703ZM195.9 8.0735C195.9 8.6195 195.785 9.134 195.554 9.617C195.344 10.079 195.05 10.499 194.672 10.877C194.315 11.234 193.884 11.5175 193.38 11.7275C192.897 11.9375 192.383 12.0425 191.837 12.0425C191.291 12.0425 190.776 11.9375 190.293 11.7275C189.831 11.5175 189.422 11.234 189.065 10.877C188.708 10.499 188.424 10.079 188.214 9.617C188.004 9.134 187.899 8.6195 187.899 8.0735C187.899 7.5275 188.004 7.013 188.214 6.53C188.424 6.026 188.708 5.5955 189.065 5.2385C189.422 4.8605 189.831 4.5665 190.293 4.3565C190.776 4.1465 191.291 4.0415 191.837 4.0415C192.383 4.0415 192.897 4.1465 193.38 4.3565C193.884 4.5665 194.315 4.8605 194.672 5.2385C195.05 5.5955 195.344 6.026 195.554 6.53C195.785 7.013 195.9 7.5275 195.9 8.0735ZM226.355 20.016C226.355 20.4213 226.28 20.816 226.131 21.2C226.003 21.584 225.821 21.9147 225.587 22.192L208.019 45.552H225.747V50H201.331V47.632C201.331 47.3547 201.395 47.0347 201.523 46.672C201.651 46.288 201.843 45.9253 202.099 45.584L219.763 22.064H202.323V17.584H226.355V20.016ZM253.995 30.256C253.995 28.9333 253.803 27.728 253.419 26.64C253.056 25.5307 252.512 24.5813 251.787 23.792C251.083 22.9813 250.219 22.3627 249.195 21.936C248.171 21.488 247.008 21.264 245.707 21.264C242.976 21.264 240.811 22.064 239.211 23.664C237.632 25.2427 236.651 27.44 236.267 30.256H253.995ZM258.603 45.456C257.899 46.3093 257.056 47.056 256.075 47.696C255.094 48.3147 254.038 48.8267 252.907 49.232C251.798 49.6373 250.646 49.936 249.451 50.128C248.256 50.3413 247.072 50.448 245.899 50.448C243.659 50.448 241.59 50.0747 239.691 49.328C237.814 48.56 236.182 47.4507 234.795 46C233.43 44.528 232.363 42.7147 231.595 40.56C230.827 38.4053 230.443 35.9307 230.443 33.136C230.443 30.8747 230.784 28.7627 231.467 26.8C232.171 24.8373 233.174 23.1413 234.475 21.712C235.776 20.2613 237.366 19.1307 239.243 18.32C241.12 17.488 243.232 17.072 245.579 17.072C247.52 17.072 249.312 17.4027 250.955 18.064C252.619 18.704 254.048 19.6427 255.243 20.88C256.459 22.096 257.408 23.6107 258.091 25.424C258.774 27.216 259.115 29.264 259.115 31.568C259.115 32.464 259.019 33.0613 258.827 33.36C258.635 33.6587 258.272 33.808 257.739 33.808H236.075C236.139 35.856 236.416 37.6373 236.907 39.152C237.419 40.6667 238.123 41.936 239.019 42.96C239.915 43.9627 240.982 44.72 242.219 45.232C243.456 45.7227 244.843 45.968 246.379 45.968C247.808 45.968 249.035 45.808 250.059 45.488C251.104 45.1467 252 44.784 252.747 44.4C253.494 44.016 254.112 43.664 254.603 43.344C255.115 43.0027 255.552 42.832 255.915 42.832C256.384 42.832 256.747 43.0133 257.003 43.376L258.603 45.456Z" fill="#1E1E1E"/>
<g clip-path="url(#clip0_283_19)">
<path d="M50.5 19.3676C50.5 27.856 43.5829 34.7352 35.05 34.7352L20.4379 14.3689L13 4H35.05C43.5829 4 50.5 10.8791 50.5 19.3676Z" fill="#0047BD"/>
<path d="M50 49.5011L4 4V49.5011H50Z" fill="#009BE5"/>
<g filter="url(#filter0_d_283_19)">
<path d="M37.1904 36.8308L4 49.501L24.5187 24.2959L37.1904 36.8308Z" fill="#0087D9"/>
</g>
<g filter="url(#filter1_d_283_19)">
<path d="M4 49.501L12.8553 12.7589L24.5187 24.2959L4 49.501Z" fill="#006FCB"/>
</g>
<g filter="url(#filter2_d_283_19)">
<path d="M4 49.5011V4L12.8553 12.759L4 49.5011Z" fill="#0047BD"/>
</g>
<path d="M34.99 34.7352L17.6543 4H4L34.99 34.7352Z" fill="#3A1BB6"/>
<path d="M34.99 34.7352L17.6543 4H4L34.99 34.7352Z" fill="#112F63"/>
</g>
<path d="M9.9445 66.4915C9.8685 66.6308 9.75133 66.7005 9.593 66.7005C9.498 66.7005 9.39033 66.6657 9.27 66.596C9.14967 66.5263 9.00083 66.4503 8.8235 66.368C8.6525 66.2793 8.44667 66.2002 8.206 66.1305C7.96533 66.0545 7.68033 66.0165 7.351 66.0165C7.066 66.0165 6.8095 66.0545 6.5815 66.1305C6.3535 66.2002 6.15717 66.2983 5.9925 66.425C5.83417 66.5517 5.71067 66.7005 5.622 66.8715C5.53967 67.0362 5.4985 67.2167 5.4985 67.413C5.4985 67.66 5.56817 67.8658 5.7075 68.0305C5.85317 68.1952 6.04317 68.3377 6.2775 68.458C6.51183 68.5783 6.77783 68.686 7.0755 68.781C7.37317 68.8697 7.67717 68.9678 7.9875 69.0755C8.30417 69.1768 8.61133 69.2908 8.909 69.4175C9.20667 69.5442 9.47267 69.7025 9.707 69.8925C9.94133 70.0825 10.1282 70.3168 10.2675 70.5955C10.4132 70.8678 10.486 71.1972 10.486 71.5835C10.486 72.0268 10.4068 72.4385 10.2485 72.8185C10.0902 73.1922 9.85583 73.5183 9.5455 73.797C9.23517 74.0693 8.85517 74.2847 8.4055 74.443C7.95583 74.6013 7.4365 74.6805 6.8475 74.6805C6.17617 74.6805 5.56817 74.5728 5.0235 74.3575C4.47883 74.1358 4.0165 73.854 3.6365 73.512L4.0355 72.866C4.08617 72.7837 4.14633 72.7203 4.216 72.676C4.28567 72.6317 4.37433 72.6095 4.482 72.6095C4.596 72.6095 4.71633 72.6538 4.843 72.7425C4.96967 72.8312 5.12167 72.9293 5.299 73.037C5.48267 73.1447 5.70433 73.2428 5.964 73.3315C6.22367 73.4202 6.54667 73.4645 6.933 73.4645C7.26233 73.4645 7.5505 73.4233 7.7975 73.341C8.0445 73.2523 8.25033 73.1352 8.415 72.9895C8.57967 72.8438 8.7 72.676 8.776 72.486C8.85833 72.296 8.8995 72.0933 8.8995 71.878C8.8995 71.612 8.82667 71.3935 8.681 71.2225C8.54167 71.0452 8.35483 70.8963 8.1205 70.776C7.88617 70.6493 7.617 70.5417 7.313 70.453C7.01533 70.358 6.70817 70.2598 6.3915 70.1585C6.08117 70.0572 5.774 69.9432 5.47 69.8165C5.17233 69.6835 4.90633 69.5188 4.672 69.3225C4.43767 69.1262 4.24767 68.8855 4.102 68.6005C3.96267 68.3092 3.893 67.9577 3.893 67.546C3.893 67.1787 3.969 66.8272 4.121 66.4915C4.273 66.1495 4.49467 65.8518 4.786 65.5985C5.07733 65.3388 5.43517 65.133 5.8595 64.981C6.28383 64.829 6.76833 64.753 7.313 64.753C7.94633 64.753 8.51317 64.8543 9.0135 65.057C9.52017 65.2533 9.95717 65.5257 10.3245 65.874L9.9445 66.4915ZM17.2997 60.535V68.7715H17.7367C17.8634 68.7715 17.9679 68.7557 18.0502 68.724C18.1389 68.686 18.2307 68.6132 18.3257 68.5055L21.3657 65.247C21.4544 65.1393 21.5462 65.057 21.6412 65C21.7426 64.9367 21.8756 64.905 22.0402 64.905H23.5697L20.0262 68.6765C19.8552 68.8918 19.6716 69.0597 19.4752 69.18C19.5892 69.256 19.6906 69.3447 19.7792 69.446C19.8742 69.541 19.9629 69.6518 20.0452 69.7785L23.8072 74.5285H22.2967C22.1511 74.5285 22.0244 74.5063 21.9167 74.462C21.8154 74.4113 21.7267 74.3227 21.6507 74.196L18.4872 70.2535C18.3922 70.1205 18.2972 70.035 18.2022 69.997C18.1136 69.9527 17.9742 69.9305 17.7842 69.9305H17.2997V74.5285H15.5992V60.535H17.2997ZM36.5907 64.905L31.2232 77.369C31.1662 77.4957 31.0933 77.597 31.0047 77.673C30.9223 77.749 30.7925 77.787 30.6152 77.787H29.3612L31.1187 73.968L27.1477 64.905H28.6107C28.7563 64.905 28.8703 64.943 28.9527 65.019C29.0413 65.0887 29.1015 65.1678 29.1332 65.2565L31.7077 71.3175C31.809 71.5835 31.8945 71.8622 31.9642 72.1535C32.0528 71.8558 32.1478 71.574 32.2492 71.308L34.7477 65.2565C34.7857 65.1552 34.849 65.0728 34.9377 65.0095C35.0327 64.9398 35.1372 64.905 35.2512 64.905H36.5907ZM46.5625 66.4915C46.4865 66.6308 46.3694 66.7005 46.211 66.7005C46.116 66.7005 46.0084 66.6657 45.888 66.596C45.7677 66.5263 45.6189 66.4503 45.4415 66.368C45.2705 66.2793 45.0647 66.2002 44.824 66.1305C44.5834 66.0545 44.2984 66.0165 43.969 66.0165C43.684 66.0165 43.4275 66.0545 43.1995 66.1305C42.9715 66.2002 42.7752 66.2983 42.6105 66.425C42.4522 66.5517 42.3287 66.7005 42.24 66.8715C42.1577 67.0362 42.1165 67.2167 42.1165 67.413C42.1165 67.66 42.1862 67.8658 42.3255 68.0305C42.4712 68.1952 42.6612 68.3377 42.8955 68.458C43.1299 68.5783 43.3959 68.686 43.6935 68.781C43.9912 68.8697 44.2952 68.9678 44.6055 69.0755C44.9222 69.1768 45.2294 69.2908 45.527 69.4175C45.8247 69.5442 46.0907 69.7025 46.325 69.8925C46.5594 70.0825 46.7462 70.3168 46.8855 70.5955C47.0312 70.8678 47.104 71.1972 47.104 71.5835C47.104 72.0268 47.0249 72.4385 46.8665 72.8185C46.7082 73.1922 46.4739 73.5183 46.1635 73.797C45.8532 74.0693 45.4732 74.2847 45.0235 74.443C44.5739 74.6013 44.0545 74.6805 43.4655 74.6805C42.7942 74.6805 42.1862 74.5728 41.6415 74.3575C41.0969 74.1358 40.6345 73.854 40.2545 73.512L40.6535 72.866C40.7042 72.7837 40.7644 72.7203 40.834 72.676C40.9037 72.6317 40.9924 72.6095 41.1 72.6095C41.214 72.6095 41.3344 72.6538 41.461 72.7425C41.5877 72.8312 41.7397 72.9293 41.917 73.037C42.1007 73.1447 42.3224 73.2428 42.582 73.3315C42.8417 73.4202 43.1647 73.4645 43.551 73.4645C43.8804 73.4645 44.1685 73.4233 44.4155 73.341C44.6625 73.2523 44.8684 73.1352 45.033 72.9895C45.1977 72.8438 45.318 72.676 45.394 72.486C45.4764 72.296 45.5175 72.0933 45.5175 71.878C45.5175 71.612 45.4447 71.3935 45.299 71.2225C45.1597 71.0452 44.9729 70.8963 44.7385 70.776C44.5042 70.6493 44.235 70.5417 43.931 70.453C43.6334 70.358 43.3262 70.2598 43.0095 70.1585C42.6992 70.0572 42.392 69.9432 42.088 69.8165C41.7904 69.6835 41.5244 69.5188 41.29 69.3225C41.0557 69.1262 40.8657 68.8855 40.72 68.6005C40.5807 68.3092 40.511 67.9577 40.511 67.546C40.511 67.1787 40.587 66.8272 40.739 66.4915C40.891 66.1495 41.1127 65.8518 41.404 65.5985C41.6954 65.3388 42.0532 65.133 42.4775 64.981C42.9019 64.829 43.3864 64.753 43.931 64.753C44.5644 64.753 45.1312 64.8543 45.6315 65.057C46.1382 65.2533 46.5752 65.5257 46.9425 65.874L46.5625 66.4915ZM58.6583 68.667C58.6583 68.2743 58.6013 67.9165 58.4873 67.5935C58.3796 67.2642 58.2181 66.9823 58.0028 66.748C57.7938 66.5073 57.5373 66.3237 57.2333 66.197C56.9293 66.064 56.5841 65.9975 56.1978 65.9975C55.3871 65.9975 54.7443 66.235 54.2693 66.71C53.8006 67.1787 53.5093 67.831 53.3953 68.667H58.6583ZM60.0263 73.1795C59.8173 73.4328 59.5671 73.6545 59.2758 73.8445C58.9844 74.0282 58.6709 74.1802 58.3353 74.3005C58.0059 74.4208 57.6639 74.5095 57.3093 74.5665C56.9546 74.6298 56.6031 74.6615 56.2548 74.6615C55.5898 74.6615 54.9754 74.5507 54.4118 74.329C53.8544 74.101 53.3699 73.7717 52.9583 73.341C52.5529 72.904 52.2363 72.3657 52.0083 71.726C51.7803 71.0863 51.6663 70.3517 51.6663 69.522C51.6663 68.8507 51.7676 68.2237 51.9703 67.641C52.1793 67.0583 52.4769 66.5548 52.8633 66.1305C53.2496 65.6998 53.7214 65.3642 54.2788 65.1235C54.8361 64.8765 55.4631 64.753 56.1598 64.753C56.7361 64.753 57.2681 64.8512 57.7558 65.0475C58.2498 65.2375 58.6741 65.5162 59.0288 65.8835C59.3898 66.2445 59.6716 66.6942 59.8743 67.2325C60.0769 67.7645 60.1783 68.3725 60.1783 69.0565C60.1783 69.3225 60.1498 69.4998 60.0928 69.5885C60.0358 69.6772 59.9281 69.7215 59.7698 69.7215H53.3383C53.3573 70.3295 53.4396 70.8583 53.5853 71.308C53.7373 71.7577 53.9463 72.1345 54.2123 72.4385C54.4783 72.7362 54.7949 72.961 55.1623 73.113C55.5296 73.2587 55.9413 73.3315 56.3973 73.3315C56.8216 73.3315 57.1858 73.284 57.4898 73.189C57.8001 73.0877 58.0661 72.98 58.2878 72.866C58.5094 72.752 58.6931 72.6475 58.8388 72.5525C58.9908 72.4512 59.1206 72.4005 59.2283 72.4005C59.3676 72.4005 59.4753 72.4543 59.5513 72.562L60.0263 73.1795ZM71.9929 66.615C71.9422 66.6847 71.8915 66.7385 71.8409 66.7765C71.7902 66.8145 71.7205 66.8335 71.6319 66.8335C71.5369 66.8335 71.4324 66.7955 71.3184 66.7195C71.2044 66.6372 71.0619 66.5485 70.8909 66.4535C70.7262 66.3585 70.5204 66.273 70.2734 66.197C70.0327 66.1147 69.735 66.0735 69.3804 66.0735C68.9054 66.0735 68.4874 66.159 68.1264 66.33C67.7654 66.4947 67.4614 66.7353 67.2144 67.052C66.9737 67.3687 66.79 67.7518 66.6634 68.2015C66.543 68.6512 66.4829 69.1547 66.4829 69.712C66.4829 70.2947 66.5494 70.814 66.6824 71.27C66.8154 71.7197 67.0022 72.0997 67.2429 72.41C67.4899 72.714 67.7844 72.9483 68.1264 73.113C68.4747 73.2713 68.8642 73.3505 69.2949 73.3505C69.7065 73.3505 70.0454 73.303 70.3114 73.208C70.5774 73.1067 70.7959 72.9958 70.9669 72.8755C71.1442 72.7552 71.2899 72.6475 71.4039 72.5525C71.5242 72.4512 71.6414 72.4005 71.7554 72.4005C71.8947 72.4005 72.0024 72.4543 72.0784 72.562L72.5534 73.1795C72.3444 73.4392 72.1069 73.6608 71.8409 73.8445C71.5749 74.0282 71.2867 74.1833 70.9764 74.31C70.6724 74.4303 70.3525 74.519 70.0169 74.576C69.6812 74.633 69.3392 74.6615 68.9909 74.6615C68.3892 74.6615 67.8287 74.5507 67.3094 74.329C66.7964 74.1073 66.3499 73.7875 65.9699 73.3695C65.5899 72.9452 65.2922 72.4258 65.0769 71.8115C64.8615 71.1972 64.7539 70.4973 64.7539 69.712C64.7539 68.9963 64.852 68.3345 65.0484 67.7265C65.251 67.1185 65.5424 66.596 65.9224 66.159C66.3087 65.7157 66.7805 65.3705 67.3379 65.1235C67.9015 64.8765 68.5475 64.753 69.2759 64.753C69.9535 64.753 70.5489 64.8638 71.0619 65.0855C71.5812 65.3008 72.0404 65.608 72.4394 66.007L71.9929 66.615ZM85.3221 64.905V74.5285H84.3151C84.0744 74.5285 83.9224 74.4113 83.8591 74.177L83.7261 73.1415C83.3081 73.6038 82.8394 73.9775 82.3201 74.2625C81.8008 74.5412 81.2054 74.6805 80.5341 74.6805C80.0084 74.6805 79.5429 74.595 79.1376 74.424C78.7386 74.2467 78.4029 73.9997 78.1306 73.683C77.8583 73.3663 77.6524 72.9832 77.5131 72.5335C77.3801 72.0838 77.3136 71.5867 77.3136 71.042V64.905H79.0046V71.042C79.0046 71.7703 79.1693 72.334 79.4986 72.733C79.8343 73.132 80.3441 73.3315 81.0281 73.3315C81.5284 73.3315 81.9939 73.2143 82.4246 72.98C82.8616 72.7393 83.2638 72.41 83.6311 71.992V64.905H85.3221ZM92.6488 66.8335C92.9528 66.1748 93.3265 65.6618 93.7698 65.2945C94.2132 64.9208 94.7547 64.734 95.3943 64.734C95.597 64.734 95.7902 64.7562 95.9738 64.8005C96.1638 64.8448 96.3317 64.9145 96.4773 65.0095L96.3538 66.273C96.3158 66.4313 96.2208 66.5105 96.0688 66.5105C95.9802 66.5105 95.8503 66.4915 95.6793 66.4535C95.5083 66.4155 95.3152 66.3965 95.0998 66.3965C94.7958 66.3965 94.5235 66.4408 94.2828 66.5295C94.0485 66.6182 93.8363 66.7512 93.6463 66.9285C93.4627 67.0995 93.2948 67.3148 93.1428 67.5745C92.9972 67.8278 92.8642 68.1192 92.7438 68.4485V74.5285H91.0433V64.905H92.0123C92.196 64.905 92.3227 64.9398 92.3923 65.0095C92.462 65.0792 92.5095 65.1995 92.5348 65.3705L92.6488 66.8335ZM107.056 68.667C107.056 68.2743 106.999 67.9165 106.885 67.5935C106.777 67.2642 106.615 66.9823 106.4 66.748C106.191 66.5073 105.935 66.3237 105.631 66.197C105.327 66.064 104.981 65.9975 104.595 65.9975C103.784 65.9975 103.142 66.235 102.667 66.71C102.198 67.1787 101.907 67.831 101.793 68.667H107.056ZM108.424 73.1795C108.215 73.4328 107.964 73.6545 107.673 73.8445C107.382 74.0282 107.068 74.1802 106.733 74.3005C106.403 74.4208 106.061 74.5095 105.707 74.5665C105.352 74.6298 105 74.6615 104.652 74.6615C103.987 74.6615 103.373 74.5507 102.809 74.329C102.252 74.101 101.767 73.7717 101.356 73.341C100.95 72.904 100.634 72.3657 100.406 71.726C100.178 71.0863 100.064 70.3517 100.064 69.522C100.064 68.8507 100.165 68.2237 100.368 67.641C100.577 67.0583 100.874 66.5548 101.261 66.1305C101.647 65.6998 102.119 65.3642 102.676 65.1235C103.233 64.8765 103.86 64.753 104.557 64.753C105.133 64.753 105.665 64.8512 106.153 65.0475C106.647 65.2375 107.071 65.5162 107.426 65.8835C107.787 66.2445 108.069 66.6942 108.272 67.2325C108.474 67.7645 108.576 68.3725 108.576 69.0565C108.576 69.3225 108.547 69.4998 108.49 69.5885C108.433 69.6772 108.325 69.7215 108.167 69.7215H101.736C101.755 70.3295 101.837 70.8583 101.983 71.308C102.135 71.7577 102.344 72.1345 102.61 72.4385C102.876 72.7362 103.192 72.961 103.56 73.113C103.927 73.2587 104.339 73.3315 104.795 73.3315C105.219 73.3315 105.583 73.284 105.887 73.189C106.197 73.0877 106.463 72.98 106.685 72.866C106.907 72.752 107.09 72.6475 107.236 72.5525C107.388 72.4512 107.518 72.4005 107.626 72.4005C107.765 72.4005 107.873 72.4543 107.949 72.562L108.424 73.1795ZM124.548 74.6805C123.788 74.6805 123.203 74.4683 122.791 74.044C122.386 73.6197 122.183 73.0085 122.183 72.2105V66.3205H121.024C120.923 66.3205 120.837 66.292 120.767 66.235C120.698 66.1717 120.663 66.0767 120.663 65.95V65.2755L122.24 65.076L122.629 62.1025C122.648 62.0075 122.69 61.9315 122.753 61.8745C122.823 61.8112 122.911 61.7795 123.019 61.7795H123.874V65.095H126.657V66.3205H123.874V72.0965C123.874 72.5018 123.972 72.8027 124.168 72.999C124.365 73.1953 124.618 73.2935 124.928 73.2935C125.106 73.2935 125.258 73.2713 125.384 73.227C125.517 73.1763 125.631 73.1225 125.726 73.0655C125.821 73.0085 125.901 72.9578 125.964 72.9135C126.034 72.8628 126.094 72.8375 126.144 72.8375C126.233 72.8375 126.312 72.8913 126.382 72.999L126.876 73.8065C126.585 74.0788 126.233 74.2942 125.821 74.4525C125.41 74.6045 124.985 74.6805 124.548 74.6805ZM137.829 68.667C137.829 68.2743 137.772 67.9165 137.658 67.5935C137.55 67.2642 137.389 66.9823 137.173 66.748C136.964 66.5073 136.708 66.3237 136.404 66.197C136.1 66.064 135.755 65.9975 135.368 65.9975C134.558 65.9975 133.915 66.235 133.44 66.71C132.971 67.1787 132.68 67.831 132.566 68.667H137.829ZM139.197 73.1795C138.988 73.4328 138.738 73.6545 138.446 73.8445C138.155 74.0282 137.842 74.1802 137.506 74.3005C137.177 74.4208 136.835 74.5095 136.48 74.5665C136.125 74.6298 135.774 74.6615 135.425 74.6615C134.76 74.6615 134.146 74.5507 133.582 74.329C133.025 74.101 132.541 73.7717 132.129 73.341C131.724 72.904 131.407 72.3657 131.179 71.726C130.951 71.0863 130.837 70.3517 130.837 69.522C130.837 68.8507 130.938 68.2237 131.141 67.641C131.35 67.0583 131.648 66.5548 132.034 66.1305C132.42 65.6998 132.892 65.3642 133.449 65.1235C134.007 64.8765 134.634 64.753 135.33 64.753C135.907 64.753 136.439 64.8512 136.926 65.0475C137.42 65.2375 137.845 65.5162 138.199 65.8835C138.56 66.2445 138.842 66.6942 139.045 67.2325C139.248 67.7645 139.349 68.3725 139.349 69.0565C139.349 69.3225 139.32 69.4998 139.263 69.5885C139.206 69.6772 139.099 69.7215 138.94 69.7215H132.509C132.528 70.3295 132.61 70.8583 132.756 71.308C132.908 71.7577 133.117 72.1345 133.383 72.4385C133.649 72.7362 133.966 72.961 134.333 73.113C134.7 73.2587 135.112 73.3315 135.568 73.3315C135.992 73.3315 136.356 73.284 136.66 73.189C136.971 73.0877 137.237 72.98 137.458 72.866C137.68 72.752 137.864 72.6475 138.009 72.5525C138.161 72.4512 138.291 72.4005 138.399 72.4005C138.538 72.4005 138.646 72.4543 138.722 72.562L139.197 73.1795ZM151.163 66.615C151.113 66.6847 151.062 66.7385 151.011 66.7765C150.961 66.8145 150.891 66.8335 150.802 66.8335C150.707 66.8335 150.603 66.7955 150.489 66.7195C150.375 66.6372 150.232 66.5485 150.061 66.4535C149.897 66.3585 149.691 66.273 149.444 66.197C149.203 66.1147 148.906 66.0735 148.551 66.0735C148.076 66.0735 147.658 66.159 147.297 66.33C146.936 66.4947 146.632 66.7353 146.385 67.052C146.144 67.3687 145.961 67.7518 145.834 68.2015C145.714 68.6512 145.653 69.1547 145.653 69.712C145.653 70.2947 145.72 70.814 145.853 71.27C145.986 71.7197 146.173 72.0997 146.413 72.41C146.66 72.714 146.955 72.9483 147.297 73.113C147.645 73.2713 148.035 73.3505 148.465 73.3505C148.877 73.3505 149.216 73.303 149.482 73.208C149.748 73.1067 149.966 72.9958 150.137 72.8755C150.315 72.7552 150.46 72.6475 150.574 72.5525C150.695 72.4512 150.812 72.4005 150.926 72.4005C151.065 72.4005 151.173 72.4543 151.249 72.562L151.724 73.1795C151.515 73.4392 151.277 73.6608 151.011 73.8445C150.745 74.0282 150.457 74.1833 150.147 74.31C149.843 74.4303 149.523 74.519 149.187 74.576C148.852 74.633 148.51 74.6615 148.161 74.6615C147.56 74.6615 146.999 74.5507 146.48 74.329C145.967 74.1073 145.52 73.7875 145.14 73.3695C144.76 72.9452 144.463 72.4258 144.247 71.8115C144.032 71.1972 143.924 70.4973 143.924 69.712C143.924 68.9963 144.023 68.3345 144.219 67.7265C144.422 67.1185 144.713 66.596 145.093 66.159C145.479 65.7157 145.951 65.3705 146.508 65.1235C147.072 64.8765 147.718 64.753 148.446 64.753C149.124 64.753 149.719 64.8638 150.232 65.0855C150.752 65.3008 151.211 65.608 151.61 66.007L151.163 66.615ZM158.28 66.1875C158.691 65.7505 159.147 65.4022 159.648 65.1425C160.148 64.8828 160.724 64.753 161.377 64.753C161.902 64.753 162.365 64.8417 162.764 65.019C163.169 65.19 163.505 65.437 163.771 65.76C164.043 66.0767 164.249 66.4598 164.388 66.9095C164.528 67.3592 164.597 67.8563 164.597 68.401V74.5285H162.897V68.401C162.897 67.6727 162.729 67.109 162.393 66.71C162.064 66.3047 161.56 66.102 160.883 66.102C160.382 66.102 159.914 66.2223 159.477 66.463C159.046 66.7037 158.647 67.0298 158.28 67.4415V74.5285H156.579V60.535H158.28V66.1875ZM171.81 66.3015C172.019 66.0672 172.241 65.855 172.475 65.665C172.709 65.475 172.956 65.3135 173.216 65.1805C173.482 65.0412 173.761 64.9367 174.052 64.867C174.35 64.791 174.669 64.753 175.011 64.753C175.537 64.753 175.999 64.8417 176.398 65.019C176.804 65.19 177.139 65.437 177.405 65.76C177.678 66.0767 177.884 66.4598 178.023 66.9095C178.162 67.3592 178.232 67.8563 178.232 68.401V74.5285H176.531V68.401C176.531 67.6727 176.364 67.109 176.028 66.71C175.699 66.3047 175.195 66.102 174.517 66.102C174.017 66.102 173.548 66.2223 173.111 66.463C172.681 66.7037 172.282 67.0298 171.914 67.4415V74.5285H170.214V64.905H171.23C171.471 64.905 171.62 65.0222 171.677 65.2565L171.81 66.3015ZM187.905 64.753C188.608 64.753 189.242 64.8702 189.805 65.1045C190.369 65.3388 190.85 65.6713 191.249 66.102C191.648 66.5327 191.952 67.0552 192.161 67.6695C192.377 68.2775 192.484 68.9583 192.484 69.712C192.484 70.472 192.377 71.156 192.161 71.764C191.952 72.372 191.648 72.8913 191.249 73.322C190.85 73.7527 190.369 74.0852 189.805 74.3195C189.242 74.5475 188.608 74.6615 187.905 74.6615C187.196 74.6615 186.556 74.5475 185.986 74.3195C185.423 74.0852 184.941 73.7527 184.542 73.322C184.143 72.8913 183.836 72.372 183.621 71.764C183.412 71.156 183.307 70.472 183.307 69.712C183.307 68.9583 183.412 68.2775 183.621 67.6695C183.836 67.0552 184.143 66.5327 184.542 66.102C184.941 65.6713 185.423 65.3388 185.986 65.1045C186.556 64.8702 187.196 64.753 187.905 64.753ZM187.905 73.341C188.855 73.341 189.565 73.0243 190.033 72.391C190.502 71.7513 190.736 70.8615 190.736 69.7215C190.736 68.5752 190.502 67.6822 190.033 67.0425C189.565 66.4028 188.855 66.083 187.905 66.083C187.424 66.083 187.003 66.1653 186.642 66.33C186.287 66.4947 185.989 66.7322 185.749 67.0425C185.514 67.3528 185.337 67.736 185.217 68.192C185.103 68.6417 185.046 69.1515 185.046 69.7215C185.046 70.8615 185.28 71.7513 185.749 72.391C186.224 73.0243 186.943 73.341 187.905 73.341ZM199.417 60.535V74.5285H197.726V60.535H199.417ZM209.256 64.753C209.959 64.753 210.592 64.8702 211.156 65.1045C211.719 65.3388 212.201 65.6713 212.6 66.102C212.999 66.5327 213.303 67.0552 213.512 67.6695C213.727 68.2775 213.835 68.9583 213.835 69.712C213.835 70.472 213.727 71.156 213.512 71.764C213.303 72.372 212.999 72.8913 212.6 73.322C212.201 73.7527 211.719 74.0852 211.156 74.3195C210.592 74.5475 209.959 74.6615 209.256 74.6615C208.546 74.6615 207.907 74.5475 207.337 74.3195C206.773 74.0852 206.292 73.7527 205.893 73.322C205.494 72.8913 205.187 72.372 204.971 71.764C204.762 71.156 204.658 70.472 204.658 69.712C204.658 68.9583 204.762 68.2775 204.971 67.6695C205.187 67.0552 205.494 66.5327 205.893 66.102C206.292 65.6713 206.773 65.3388 207.337 65.1045C207.907 64.8702 208.546 64.753 209.256 64.753ZM209.256 73.341C210.206 73.341 210.915 73.0243 211.384 72.391C211.852 71.7513 212.087 70.8615 212.087 69.7215C212.087 68.5752 211.852 67.6822 211.384 67.0425C210.915 66.4028 210.206 66.083 209.256 66.083C208.774 66.083 208.353 66.1653 207.992 66.33C207.638 66.4947 207.34 66.7322 207.099 67.0425C206.865 67.3528 206.688 67.736 206.567 68.192C206.453 68.6417 206.396 69.1515 206.396 69.7215C206.396 70.8615 206.631 71.7513 207.099 72.391C207.574 73.0243 208.293 73.341 209.256 73.341ZM222.317 69.826C222.659 69.826 222.96 69.7785 223.22 69.6835C223.479 69.5885 223.698 69.4555 223.875 69.2845C224.053 69.1135 224.186 68.9108 224.274 68.6765C224.363 68.4358 224.407 68.173 224.407 67.888C224.407 67.299 224.227 66.8303 223.866 66.482C223.511 66.1337 222.995 65.9595 222.317 65.9595C221.633 65.9595 221.111 66.1337 220.75 66.482C220.395 66.8303 220.218 67.299 220.218 67.888C220.218 68.173 220.262 68.4358 220.351 68.6765C220.446 68.9108 220.582 69.1135 220.759 69.2845C220.937 69.4555 221.155 69.5885 221.415 69.6835C221.674 69.7785 221.975 69.826 222.317 69.826ZM225.367 75.051C225.367 74.8167 225.3 74.6267 225.167 74.481C225.034 74.3353 224.854 74.2213 224.626 74.139C224.404 74.0567 224.144 73.9997 223.847 73.968C223.549 73.93 223.232 73.9015 222.897 73.8825C222.567 73.8635 222.232 73.8445 221.89 73.8255C221.548 73.8065 221.218 73.7748 220.902 73.7305C220.547 73.8952 220.256 74.1042 220.028 74.3575C219.806 74.6045 219.695 74.8958 219.695 75.2315C219.695 75.4468 219.749 75.6463 219.857 75.83C219.971 76.02 220.142 76.1815 220.37 76.3145C220.598 76.4538 220.883 76.5615 221.225 76.6375C221.573 76.7198 221.982 76.761 222.45 76.761C222.906 76.761 223.315 76.7198 223.676 76.6375C224.037 76.5552 224.341 76.438 224.588 76.286C224.841 76.134 225.034 75.9535 225.167 75.7445C225.3 75.5355 225.367 75.3043 225.367 75.051ZM227.086 65.285V65.912C227.086 66.121 226.953 66.254 226.687 66.311L225.595 66.4535C225.81 66.8715 225.918 67.3338 225.918 67.8405C225.918 68.3092 225.826 68.7367 225.642 69.123C225.465 69.503 225.218 69.8292 224.901 70.1015C224.585 70.3738 224.205 70.5828 223.761 70.7285C223.318 70.8742 222.837 70.947 222.317 70.947C221.868 70.947 221.443 70.8932 221.044 70.7855C220.842 70.9122 220.686 71.0483 220.579 71.194C220.471 71.3333 220.417 71.4758 220.417 71.6215C220.417 71.8495 220.509 72.0237 220.693 72.144C220.883 72.258 221.13 72.3403 221.434 72.391C221.738 72.4417 222.083 72.4733 222.469 72.486C222.862 72.4987 223.261 72.5208 223.666 72.5525C224.078 72.5778 224.477 72.6253 224.863 72.695C225.256 72.7647 225.604 72.8787 225.908 73.037C226.212 73.1953 226.456 73.4138 226.64 73.6925C226.83 73.9712 226.925 74.3322 226.925 74.7755C226.925 75.1872 226.82 75.5862 226.611 75.9725C226.409 76.3588 226.114 76.7008 225.728 76.9985C225.341 77.3025 224.866 77.5432 224.303 77.7205C223.745 77.9042 223.115 77.996 222.412 77.996C221.709 77.996 221.095 77.9263 220.569 77.787C220.044 77.6477 219.607 77.4608 219.258 77.2265C218.91 76.9922 218.647 76.7198 218.47 76.4095C218.299 76.1055 218.213 75.7857 218.213 75.45C218.213 74.975 218.362 74.5728 218.66 74.2435C218.957 73.9142 219.366 73.6513 219.885 73.455C219.6 73.3283 219.372 73.1605 219.201 72.9515C219.037 72.7362 218.954 72.448 218.954 72.087C218.954 71.9477 218.98 71.8052 219.03 71.6595C219.081 71.5075 219.157 71.3587 219.258 71.213C219.366 71.061 219.496 70.9185 219.648 70.7855C219.8 70.6525 219.977 70.5353 220.18 70.434C219.705 70.168 219.334 69.8165 219.068 69.3795C218.802 68.9362 218.669 68.4232 218.669 67.8405C218.669 67.3718 218.758 66.9475 218.935 66.5675C219.119 66.1812 219.372 65.855 219.695 65.589C220.018 65.3167 220.401 65.1077 220.845 64.962C221.294 64.8163 221.785 64.7435 222.317 64.7435C222.735 64.7435 223.125 64.791 223.486 64.886C223.847 64.9747 224.176 65.1077 224.474 65.285H227.086ZM233.661 64.905V74.5285H231.97V64.905H233.661ZM234.022 61.884C234.022 62.0487 233.987 62.2038 233.917 62.3495C233.854 62.4888 233.765 62.6155 233.651 62.7295C233.544 62.8372 233.414 62.9227 233.262 62.986C233.116 63.0493 232.961 63.081 232.796 63.081C232.632 63.081 232.477 63.0493 232.331 62.986C232.192 62.9227 232.068 62.8372 231.96 62.7295C231.853 62.6155 231.767 62.4888 231.704 62.3495C231.641 62.2038 231.609 62.0487 231.609 61.884C231.609 61.7193 231.641 61.5642 231.704 61.4185C231.767 61.2665 231.853 61.1367 231.96 61.029C232.068 60.915 232.192 60.8263 232.331 60.763C232.477 60.6997 232.632 60.668 232.796 60.668C232.961 60.668 233.116 60.6997 233.262 60.763C233.414 60.8263 233.544 60.915 233.651 61.029C233.765 61.1367 233.854 61.2665 233.917 61.4185C233.987 61.5642 234.022 61.7193 234.022 61.884ZM245.92 68.667C245.92 68.2743 245.863 67.9165 245.749 67.5935C245.642 67.2642 245.48 66.9823 245.265 66.748C245.056 66.5073 244.799 66.3237 244.495 66.197C244.191 66.064 243.846 65.9975 243.46 65.9975C242.649 65.9975 242.006 66.235 241.531 66.71C241.063 67.1787 240.771 67.831 240.657 68.667H245.92ZM247.288 73.1795C247.079 73.4328 246.829 73.6545 246.538 73.8445C246.247 74.0282 245.933 74.1802 245.597 74.3005C245.268 74.4208 244.926 74.5095 244.571 74.5665C244.217 74.6298 243.865 74.6615 243.517 74.6615C242.852 74.6615 242.238 74.5507 241.674 74.329C241.117 74.101 240.632 73.7717 240.22 73.341C239.815 72.904 239.498 72.3657 239.27 71.726C239.042 71.0863 238.928 70.3517 238.928 69.522C238.928 68.8507 239.03 68.2237 239.232 67.641C239.441 67.0583 239.739 66.5548 240.125 66.1305C240.512 65.6998 240.984 65.3642 241.541 65.1235C242.098 64.8765 242.725 64.753 243.422 64.753C243.998 64.753 244.53 64.8512 245.018 65.0475C245.512 65.2375 245.936 65.5162 246.291 65.8835C246.652 66.2445 246.934 66.6942 247.136 67.2325C247.339 67.7645 247.44 68.3725 247.44 69.0565C247.44 69.3225 247.412 69.4998 247.355 69.5885C247.298 69.6772 247.19 69.7215 247.032 69.7215H240.6C240.619 70.3295 240.702 70.8583 240.847 71.308C240.999 71.7577 241.208 72.1345 241.474 72.4385C241.74 72.7362 242.057 72.961 242.424 73.113C242.792 73.2587 243.203 73.3315 243.659 73.3315C244.084 73.3315 244.448 73.284 244.752 73.189C245.062 73.0877 245.328 72.98 245.55 72.866C245.772 72.752 245.955 72.6475 246.101 72.5525C246.253 72.4512 246.383 72.4005 246.49 72.4005C246.63 72.4005 246.737 72.4543 246.813 72.562L247.288 73.1795ZM258.162 66.4915C258.086 66.6308 257.969 66.7005 257.811 66.7005C257.716 66.7005 257.608 66.6657 257.488 66.596C257.368 66.5263 257.219 66.4503 257.041 66.368C256.87 66.2793 256.665 66.2002 256.424 66.1305C256.183 66.0545 255.898 66.0165 255.569 66.0165C255.284 66.0165 255.027 66.0545 254.799 66.1305C254.571 66.2002 254.375 66.2983 254.21 66.425C254.052 66.5517 253.929 66.7005 253.84 66.8715C253.758 67.0362 253.716 67.2167 253.716 67.413C253.716 67.66 253.786 67.8658 253.925 68.0305C254.071 68.1952 254.261 68.3377 254.495 68.458C254.73 68.5783 254.996 68.686 255.293 68.781C255.591 68.8697 255.895 68.9678 256.205 69.0755C256.522 69.1768 256.829 69.2908 257.127 69.4175C257.425 69.5442 257.691 69.7025 257.925 69.8925C258.159 70.0825 258.346 70.3168 258.485 70.5955C258.631 70.8678 258.704 71.1972 258.704 71.5835C258.704 72.0268 258.625 72.4385 258.466 72.8185C258.308 73.1922 258.074 73.5183 257.763 73.797C257.453 74.0693 257.073 74.2847 256.623 74.443C256.174 74.6013 255.654 74.6805 255.065 74.6805C254.394 74.6805 253.786 74.5728 253.241 74.3575C252.697 74.1358 252.234 73.854 251.854 73.512L252.253 72.866C252.304 72.7837 252.364 72.7203 252.434 72.676C252.504 72.6317 252.592 72.6095 252.7 72.6095C252.814 72.6095 252.934 72.6538 253.061 72.7425C253.188 72.8312 253.34 72.9293 253.517 73.037C253.701 73.1447 253.922 73.2428 254.182 73.3315C254.442 73.4202 254.765 73.4645 255.151 73.4645C255.48 73.4645 255.768 73.4233 256.015 73.341C256.262 73.2523 256.468 73.1352 256.633 72.9895C256.798 72.8438 256.918 72.676 256.994 72.486C257.076 72.296 257.117 72.0933 257.117 71.878C257.117 71.612 257.045 71.3935 256.899 71.2225C256.76 71.0452 256.573 70.8963 256.338 70.776C256.104 70.6493 255.835 70.5417 255.531 70.453C255.233 70.358 254.926 70.2598 254.609 70.1585C254.299 70.0572 253.992 69.9432 253.688 69.8165C253.39 69.6835 253.124 69.5188 252.89 69.3225C252.656 69.1262 252.466 68.8855 252.32 68.6005C252.181 68.3092 252.111 67.9577 252.111 67.546C252.111 67.1787 252.187 66.8272 252.339 66.4915C252.491 66.1495 252.713 65.8518 253.004 65.5985C253.295 65.3388 253.653 65.133 254.077 64.981C254.502 64.829 254.986 64.753 255.531 64.753C256.164 64.753 256.731 64.8543 257.231 65.057C257.738 65.2533 258.175 65.5257 258.542 65.874L258.162 66.4915Z" fill="#1E1E1E"/>
<defs>
<filter id="filter0_d_283_19" x="1" y="22.2959" width="41.1904" height="33.2051" filterUnits="userSpaceOnUse" color-interpolation-filters="sRGB">
<feFlood flood-opacity="0" result="BackgroundImageFix"/>
<feColorMatrix in="SourceAlpha" type="matrix" values="0 0 0 0 0 0 0 0 0 0 0 0 0 0 0 0 0 0 127 0" result="hardAlpha"/>
<feOffset dx="1" dy="2"/>
<feGaussianBlur stdDeviation="2"/>
<feComposite in2="hardAlpha" operator="out"/>
<feColorMatrix type="matrix" values="0 0 0 0 0 0 0 0 0 0 0 0 0 0 0 0 0 0 0.3 0"/>
<feBlend mode="normal" in2="BackgroundImageFix" result="effect1_dropShadow_283_19"/>
<feBlend mode="normal" in="SourceGraphic" in2="effect1_dropShadow_283_19" result="shape"/>
</filter>
<filter id="filter1_d_283_19" x="1" y="10.7589" width="28.5188" height="44.7421" filterUnits="userSpaceOnUse" color-interpolation-filters="sRGB">
<feFlood flood-opacity="0" result="BackgroundImageFix"/>
<feColorMatrix in="SourceAlpha" type="matrix" values="0 0 0 0 0 0 0 0 0 0 0 0 0 0 0 0 0 0 127 0" result="hardAlpha"/>
<feOffset dx="1" dy="2"/>
<feGaussianBlur stdDeviation="2"/>
<feComposite in2="hardAlpha" operator="out"/>
<feColorMatrix type="matrix" values="0 0 0 0 0 0 0 0 0 0 0 0 0 0 0 0 0 0 0.3 0"/>
<feBlend mode="normal" in2="BackgroundImageFix" result="effect1_dropShadow_283_19"/>
<feBlend mode="normal" in="SourceGraphic" in2="effect1_dropShadow_283_19" result="shape"/>
</filter>
<filter id="filter2_d_283_19" x="2" y="4" width="12.8552" height="50.501" filterUnits="userSpaceOnUse" color-interpolation-filters="sRGB">
<feFlood flood-opacity="0" result="BackgroundImageFix"/>
<feColorMatrix in="SourceAlpha" type="matrix" values="0 0 0 0 0 0 0 0 0 0 0 0 0 0 0 0 0 0 127 0" result="hardAlpha"/>
<feOffset dy="3"/>
<feGaussianBlur stdDeviation="1"/>
<feComposite in2="hardAlpha" operator="out"/>
<feColorMatrix type="matrix" values="0 0 0 0 0 0 0 0 0 0 0 0 0 0 0 0 0 0 0.25 0"/>
<feBlend mode="normal" in2="BackgroundImageFix" result="effect1_dropShadow_283_19"/>
<feBlend mode="normal" in="SourceGraphic" in2="effect1_dropShadow_283_19" result="shape"/>
</filter>
<clipPath id="clip0_283_19">
<rect width="54" height="54" fill="white"/>
</clipPath>
</defs>
</svg>
