<svg width="16" height="12" viewBox="0 0 16 12" fill="none" xmlns="http://www.w3.org/2000/svg">
<path d="M15.4426 5.7C13.9276 2.1825 11.0776 0 8.00261 0C4.92761 0 2.07761 2.1825 0.562614 5.7C0.521316 5.79462 0.5 5.89676 0.5 6C0.5 6.10324 0.521316 6.20538 0.562614 6.3C2.07761 9.8175 4.92761 12 8.00261 12C11.0776 12 13.9276 9.8175 15.4426 6.3C15.4839 6.20538 15.5052 6.10324 15.5052 6C15.5052 5.89676 15.4839 5.79462 15.4426 5.7ZM8.00261 10.5C5.62511 10.5 3.37511 8.7825 2.07761 6C3.37511 3.2175 5.62511 1.5 8.00261 1.5C10.3801 1.5 12.6301 3.2175 13.9276 6C12.6301 8.7825 10.3801 10.5 8.00261 10.5ZM8.00261 3C7.40927 3 6.82925 3.17595 6.3359 3.50559C5.84256 3.83524 5.45804 4.30377 5.23097 4.85195C5.00391 5.40013 4.9445 6.00333 5.06026 6.58527C5.17601 7.16721 5.46174 7.70176 5.88129 8.12132C6.30085 8.54088 6.8354 8.8266 7.41734 8.94236C7.99929 9.05811 8.60249 8.9987 9.15066 8.77164C9.69884 8.54458 10.1674 8.16006 10.497 7.66671C10.8267 7.17336 11.0026 6.59334 11.0026 6C11.0026 5.20435 10.6865 4.44129 10.1239 3.87868C9.56133 3.31607 8.79826 3 8.00261 3ZM8.00261 7.5C7.70594 7.5 7.41593 7.41203 7.16926 7.2472C6.92258 7.08238 6.73033 6.84811 6.61679 6.57403C6.50326 6.29994 6.47356 5.99834 6.53144 5.70736C6.58931 5.41639 6.73217 5.14912 6.94195 4.93934C7.15173 4.72956 7.41901 4.5867 7.70998 4.52882C8.00095 4.47094 8.30255 4.50065 8.57664 4.61418C8.85073 4.72771 9.085 4.91997 9.24982 5.16665C9.41464 5.41332 9.50261 5.70333 9.50261 6C9.50261 6.39782 9.34458 6.77936 9.06327 7.06066C8.78197 7.34196 8.40044 7.5 8.00261 7.5Z" fill="#CDCDD2"/>
</svg>
