<svg width="23" height="23" viewBox="0 0 23 23" fill="none" xmlns="http://www.w3.org/2000/svg">
<g clip-path="url(#clip0_1202_75005)">
<path d="M5.09728 13.8989L4.29669 16.8876L1.37052 16.9495C0.496027 15.3275 0 13.4717 0 11.4997C0 9.5927 0.463773 7.79439 1.28584 6.21094H1.28647L3.89158 6.68855L5.03278 9.27802C4.79393 9.97436 4.66374 10.7219 4.66374 11.4997C4.66383 12.3439 4.81675 13.1527 5.09728 13.8989Z" fill="#FBBB00"/>
<path d="M22.7962 9.35156C22.9283 10.0472 22.9972 10.7657 22.9972 11.4999C22.9972 12.3232 22.9106 13.1263 22.7457 13.901C22.1859 16.5372 20.7231 18.8391 18.6967 20.468L18.6961 20.4674L15.4148 20.3L14.9504 17.4009C16.295 16.6124 17.3458 15.3783 17.8994 13.901H11.75V9.35156H22.7962Z" fill="#518EF8"/>
<path d="M18.6955 20.4677L18.6962 20.4683C16.7254 22.0524 14.2219 23.0002 11.4967 23.0002C7.11719 23.0002 3.30956 20.5523 1.36719 16.9501L5.09395 13.8994C6.06512 16.4913 8.56542 18.3364 11.4967 18.3364C12.7566 18.3364 13.937 17.9958 14.9498 17.4012L18.6955 20.4677Z" fill="#28B446"/>
<path d="M18.8436 2.64752L15.1181 5.69753C14.0699 5.0423 12.8307 4.66379 11.5032 4.66379C8.50563 4.66379 5.95856 6.5935 5.03604 9.27834L1.28969 6.21126H1.28906C3.203 2.52115 7.05865 0 11.5032 0C14.2935 0 16.852 0.993941 18.8436 2.64752Z" fill="#F14336"/>
</g>
<defs>
<clipPath id="clip0_1202_75005">
<rect width="23" height="23" fill="white"/>
</clipPath>
</defs>
</svg>
