<svg width="23" height="23" viewBox="0 0 23 23" fill="none" xmlns="http://www.w3.org/2000/svg">
<g clip-path="url(#clip0_1202_75015)">
<path d="M12.2188 10.7812H23V0.71875C23 0.528126 22.9243 0.345309 22.7895 0.210517C22.6547 0.0757252 22.4719 0 22.2812 0L12.2188 0V10.7812Z" fill="#4CAF50"/>
<path d="M10.7812 10.7812V0H0.71875C0.528126 0 0.345309 0.0757252 0.210517 0.210517C0.0757252 0.345309 0 0.528126 0 0.71875L0 10.7812H10.7812Z" fill="#F44336"/>
<path d="M10.7812 12.2188H0V22.2812C0 22.4719 0.0757252 22.6547 0.210517 22.7895C0.345309 22.9243 0.528126 23 0.71875 23H10.7812V12.2188Z" fill="#2196F3"/>
<path d="M12.2188 12.2188V23H22.2812C22.4719 23 22.6547 22.9243 22.7895 22.7895C22.9243 22.6547 23 22.4719 23 22.2812V12.2188H12.2188Z" fill="#FFC107"/>
</g>
<defs>
<clipPath id="clip0_1202_75015">
<rect width="23" height="23" fill="white"/>
</clipPath>
</defs>
</svg>
