<svg width="200" height="200" viewBox="0 0 200 200" fill="none" xmlns="http://www.w3.org/2000/svg">
<path d="M127.243 101.911C131.87 101.25 135.097 96.887 134.449 92.1656C133.801 87.4442 129.524 84.1526 124.896 84.8136C120.269 85.4746 117.042 89.838 117.69 94.5594C118.338 99.2808 122.615 102.572 127.243 101.911Z" fill="white"/>
<path d="M77.4174 135.472H76.6801V131.89H78.6707C79.4466 131.89 80.075 131.249 80.075 130.457V121.861C80.075 121.069 79.4466 120.428 78.6707 120.428H72.899V121.861C72.899 122.652 72.2705 123.293 71.4946 123.293H77.2664V129.024H75.2758C74.4999 129.024 73.8714 129.666 73.8714 130.457V136.905C73.8714 137.696 74.4999 138.337 75.2758 138.337H77.4174C78.9656 138.337 80.226 139.623 80.226 141.203V186.005C81.1564 186.223 82.0937 186.42 83.0346 186.606V141.203C83.0346 138.044 80.5139 135.472 77.4174 135.472Z" fill="white"/>
<path d="M55.4256 138.337H57.5672C58.3431 138.337 58.9716 137.696 58.9716 136.905V130.457C58.9716 129.666 58.3431 129.024 57.5672 129.024H55.5766V123.293H61.3484C60.5725 123.293 59.944 122.652 59.944 121.861V120.428H54.1723C53.3964 120.428 52.768 121.069 52.768 121.861V130.457C52.768 131.249 53.3964 131.89 54.1723 131.89H56.1629V135.472H55.4256C52.3291 135.472 49.8083 138.044 49.8083 141.203V172.179C50.7317 172.841 51.6691 173.486 52.617 174.109V141.203C52.617 139.623 53.8774 138.337 55.4256 138.337Z" fill="white"/>
<path d="M61.345 123.29H71.5018C72.2776 123.29 72.9061 122.649 72.9061 121.857V76.4822L72.8323 76.7043C72.6393 77.2845 72.1056 77.6785 71.5018 77.6785H70.0974V120.424H62.7493V77.6785H61.345C60.7446 77.6785 60.2075 77.2881 60.0144 76.7043L59.9407 76.4822V121.857C59.9407 122.649 60.5691 123.29 61.345 123.29Z" fill="white"/>
<path d="M61.3449 77.6785H71.5017C72.102 77.6785 72.6392 77.2881 72.8323 76.7042L72.906 76.4821L78.9867 58.1824C79.1096 57.8099 79.078 57.4016 78.8989 57.0542L71.8773 43.436C71.6351 42.9667 71.1576 42.6694 70.6345 42.6694H62.2121C61.689 42.6694 61.2115 42.9631 60.9693 43.436L53.9477 57.0542C53.7686 57.4016 53.737 57.8099 53.8599 58.1824L59.9406 76.4821L60.0143 76.7042C60.2074 77.2845 60.7411 77.6785 61.3449 77.6785ZM63.0582 45.5349H69.7849L76.1324 57.8422L70.4941 74.8094H62.3525L56.7142 57.8422L63.0617 45.5349H63.0582Z" fill="white"/>
<path d="M162.754 85.1322L151.52 83.7675C151.278 83.0941 151.007 82.4315 150.712 81.7832L157.713 72.7103C158.152 72.1408 158.106 71.3242 157.604 70.812L148.174 61.1911C147.672 60.6789 146.872 60.6287 146.313 61.0801L137.421 68.2223C136.785 67.9214 136.136 67.6492 135.476 67.3984L134.138 55.9365C134.054 55.2166 133.453 54.6721 132.744 54.6721H119.41C118.697 54.6721 118.101 55.213 118.016 55.9365L116.679 67.3984C116.022 67.6456 115.369 67.9214 114.734 68.2223L105.841 61.0801C105.283 60.6287 104.482 60.6789 103.98 61.1911L94.5501 70.812C94.048 71.3242 93.9989 72.1408 94.4412 72.7103L101.442 81.7832C101.15 82.4315 100.88 83.0941 100.634 83.7675L89.3997 85.1322C88.694 85.2182 88.1604 85.8307 88.1604 86.5542V100.158C88.1604 100.885 88.694 101.494 89.3997 101.58L100.634 102.945C100.877 103.618 101.147 104.281 101.442 104.929L94.4412 114.002C94.0024 114.571 94.048 115.388 94.5501 115.9L103.98 125.521C104.482 126.033 105.283 126.084 105.841 125.632L114.734 118.49C115.369 118.791 116.019 119.063 116.679 119.314L118.016 130.776C118.101 131.496 118.701 132.04 119.41 132.04H132.744C133.457 132.04 134.054 131.499 134.138 130.776L135.476 119.314C136.132 119.067 136.785 118.791 137.421 118.494L146.313 125.636C146.872 126.084 147.672 126.037 148.174 125.525L157.604 115.904C158.106 115.392 158.155 114.575 157.713 114.006L150.712 104.933C151.007 104.284 151.274 103.622 151.52 102.948L162.754 101.584C163.46 101.498 163.994 100.885 163.994 100.162V86.5578C163.994 85.8307 163.46 85.2218 162.754 85.1358V85.1322ZM161.185 98.8865L150.319 100.208C149.779 100.273 149.326 100.652 149.154 101.179C148.785 102.307 148.336 103.414 147.816 104.474C147.57 104.972 147.63 105.567 147.967 106.004L154.736 114.779L147.072 122.598L138.47 115.693C138.042 115.349 137.459 115.288 136.971 115.539C135.935 116.069 134.847 116.531 133.741 116.903C133.225 117.079 132.853 117.541 132.79 118.092L131.494 129.178H120.653L119.357 118.092C119.294 117.541 118.922 117.079 118.406 116.903C117.3 116.531 116.215 116.069 115.176 115.539C114.692 115.288 114.105 115.349 113.677 115.693L105.079 122.598L97.4149 114.779L104.184 106.004C104.521 105.567 104.58 104.972 104.335 104.474C103.815 103.418 103.366 102.307 102.997 101.179C102.825 100.652 102.372 100.273 101.831 100.208L90.9655 98.8865V87.8258L101.831 86.5041C102.372 86.4396 102.825 86.0599 102.997 85.5334C103.366 84.4051 103.815 83.2983 104.335 82.2381C104.58 81.7402 104.521 81.1456 104.184 80.7086L97.4149 71.9367L105.079 64.1175L113.677 71.0233C114.105 71.3671 114.688 71.428 115.176 71.1773C116.215 70.6472 117.3 70.1851 118.406 69.8126C118.922 69.6371 119.294 69.175 119.357 68.6234L120.653 57.5376H131.494L132.79 68.6234C132.853 69.175 133.225 69.6371 133.741 69.8126C134.847 70.1851 135.932 70.6472 136.971 71.1773C137.459 71.428 138.042 71.3671 138.47 71.0233L147.072 64.1175L154.736 71.9367L147.967 80.7086C147.63 81.1456 147.57 81.7402 147.816 82.2381C148.336 83.2983 148.788 84.4051 149.154 85.5334C149.326 86.0599 149.779 86.4396 150.319 86.5041L161.185 87.8258V98.8865Z" fill="white"/>
<path d="M126.074 75.4111C116.373 75.4111 108.484 83.4631 108.484 93.3562C108.484 103.249 116.377 111.301 126.074 111.301C135.77 111.301 143.663 103.249 143.663 93.3562C143.663 83.4631 135.77 75.4111 126.074 75.4111ZM126.074 108.436C117.921 108.436 111.293 101.67 111.293 93.3562C111.293 85.0427 117.925 78.2766 126.074 78.2766C134.222 78.2766 140.854 85.0427 140.854 93.3562C140.854 101.67 134.222 108.436 126.074 108.436Z" fill="white"/>
<path d="M122.584 15.6837C122.433 15.6837 122.275 15.6622 122.124 15.6192C119.227 14.8169 116.257 14.165 113.294 13.6815C112.336 13.5239 111.686 12.6069 111.837 11.6291C111.992 10.6512 112.89 9.98857 113.849 10.1426C116.935 10.6476 120.031 11.3246 123.047 12.1628C123.981 12.4206 124.536 13.4057 124.28 14.362C124.069 15.1608 123.36 15.6837 122.587 15.6837H122.584Z" fill="white"/>
<path d="M99.7215 190.034C76.0236 190.034 53.744 180.617 36.987 163.521C20.2299 146.425 11 123.695 11 99.517C11 75.3395 20.2299 52.6091 36.987 35.5129C53.744 18.4167 76.0236 9 99.7215 9C100.691 9 101.477 9.80234 101.477 10.7909C101.477 11.7795 100.691 12.5819 99.7215 12.5819C76.961 12.5819 55.5626 21.626 39.4691 38.0453C23.3756 54.4645 14.5108 76.2959 14.5108 99.517C14.5108 122.738 23.3756 144.57 39.4691 160.989C55.5626 177.408 76.961 186.452 99.7215 186.452C122.482 186.452 143.88 177.408 159.974 160.989C176.068 144.57 184.932 122.738 184.932 99.517C184.932 83.2268 180.491 67.3484 172.086 53.5941C163.91 40.2123 152.334 29.3378 138.611 22.1418C137.747 21.6905 137.41 20.6088 137.852 19.7312C138.295 18.8501 139.355 18.5027 140.215 18.9576C154.504 26.4472 166.557 37.7695 175.067 51.6993C183.819 66.0231 188.443 82.557 188.443 99.517C188.443 123.695 179.213 146.425 162.456 163.521C145.699 180.617 123.419 190.034 99.7215 190.034Z" fill="white"/>
<path d="M133.351 16.6723C133.351 17.9296 132.351 18.9504 131.119 18.9504C129.886 18.9504 128.886 17.9296 128.886 16.6723C128.886 15.4151 129.886 14.3943 131.119 14.3943C132.351 14.3943 133.351 15.4151 133.351 16.6723Z" fill="white"/>
</svg>
