<svg width="200" height="200" viewBox="0 0 200 200" fill="none" xmlns="http://www.w3.org/2000/svg">
<path d="M13.8493 107.593C13.354 107.593 12.9519 107.996 12.9519 108.492C12.9519 108.988 13.354 109.39 13.8493 109.39H50.4793C50.2459 108.794 50.0198 108.197 49.8116 107.593H13.8493Z" fill="white"/>
<path d="M13.8493 119.041H55.4762C55.0849 118.448 54.7116 117.848 54.3454 117.244H13.8493C13.354 117.244 12.9519 117.646 12.9519 118.142C12.9519 118.168 12.9555 118.193 12.9591 118.214C12.977 118.297 12.995 118.376 13.0129 118.459C13.1422 118.797 13.4652 119.041 13.8493 119.041Z" fill="white"/>
<path d="M62.1388 127.207C62.0347 127.103 61.9342 126.995 61.8301 126.891H15.2063C15.3966 127.491 15.5868 128.092 15.7878 128.688H63.6824C63.1619 128.207 62.645 127.714 62.1388 127.207Z" fill="white"/>
<path d="M74.7604 136.538H18.8643C19.1335 137.142 19.4099 137.739 19.6935 138.336H78.5261C77.2481 137.789 75.9881 137.189 74.7568 136.538H74.7604Z" fill="white"/>
<path d="M90.4335 147.088C90.4335 146.592 90.0314 146.189 89.5361 146.189H23.9116C24.2778 146.793 24.6475 147.393 25.028 147.986H89.5361C90.0314 147.986 90.4335 147.584 90.4335 147.088Z" fill="white"/>
<path d="M90.4334 156.735C90.4334 156.239 90.0313 155.836 89.5359 155.836H30.6531C31.1377 156.44 31.6295 157.04 32.1321 157.633H89.5359C90.0313 157.633 90.4334 157.231 90.4334 156.735Z" fill="white"/>
<path d="M90.4335 166.386C90.4335 165.89 90.0315 165.487 89.5361 165.487H39.624C40.2809 166.095 40.9415 166.695 41.6163 167.284H89.5361C90.0315 167.284 90.4335 166.882 90.4335 166.386Z" fill="white"/>
<path d="M90.4334 176.033C90.4334 175.537 90.0314 175.134 89.536 175.134H52.0481C53.0102 175.753 53.9866 176.349 54.9737 176.931H89.536C90.0314 176.931 90.4334 176.529 90.4334 176.033Z" fill="white"/>
<path d="M153.879 131.715C152.522 131.715 151.248 132.243 150.289 133.203L142 141.502C141.042 142.462 140.514 143.738 140.514 145.096C140.514 146.455 141.042 147.731 142 148.691L159.587 166.299C165.025 161.386 169.853 155.811 173.949 149.701L157.469 133.199C156.51 132.239 155.236 131.711 153.879 131.711V131.715Z" fill="white"/>
<path d="M62.0599 80.79C61.0332 84.8481 60.6922 88.9887 60.9938 93.0575H98.8693C99.6627 93.0575 100.305 93.7009 100.305 94.4953C100.305 95.2896 99.6627 95.933 98.8693 95.933H61.324C61.9271 99.9299 63.1584 103.815 64.982 107.438H98.8729C99.6663 107.438 100.309 108.082 100.309 108.876C100.309 109.671 99.6663 110.314 98.8729 110.314H66.5866C68.123 112.808 69.9538 115.145 72.0754 117.265C73.7769 118.969 75.6113 120.486 77.5497 121.819H98.8729C99.6663 121.819 100.309 122.463 100.309 123.257C100.309 124.052 99.6663 124.695 98.8729 124.695H82.5036C87.6083 127.161 93.2406 128.465 99.0775 128.465C103.482 128.465 107.793 127.721 111.915 126.251V80.7936H62.0599V80.79Z" fill="white"/>
<path d="M100.958 142.49V189.199C101.921 189.188 102.875 189.167 103.83 189.123V142.303C102.879 142.39 101.921 142.454 100.958 142.49Z" fill="white"/>
<path d="M46.9184 92.6262H11.4515C11.3725 93.5823 11.3007 94.5384 11.2505 95.5017H47.1302C47.0332 94.5456 46.9614 93.5859 46.9184 92.6262Z" fill="white"/>
<path d="M47.1301 95.5016C47.5429 99.6027 48.4332 103.664 49.808 107.593C50.0198 108.197 50.2424 108.793 50.4757 109.39C51.5311 112.089 52.8234 114.717 54.3455 117.24C54.7081 117.844 55.085 118.444 55.4763 119.037C57.3035 121.805 59.425 124.436 61.8302 126.887C61.9343 126.992 62.0348 127.099 62.1389 127.204C62.645 127.71 63.162 128.199 63.6825 128.685C67.0604 131.808 70.783 134.435 74.7605 136.535C75.9918 137.185 77.2518 137.785 78.5297 138.332C84.9375 141.078 91.8944 142.519 99.0739 142.519C99.7057 142.519 100.334 142.505 100.959 142.483C101.921 142.451 102.879 142.383 103.83 142.296C112.747 141.495 121.219 138.454 128.621 133.357L137.994 142.742C138.371 141.516 139.039 140.395 139.972 139.46L148.261 131.161C149.191 130.23 150.314 129.558 151.538 129.181L142.165 119.796C148.871 110.023 152.062 98.1578 151.165 86.2497C150.228 73.7989 144.847 62.0706 136.016 53.2285C126.152 43.3513 113.031 37.9094 99.0775 37.9094C85.1241 37.9094 72.0071 43.3513 62.1389 53.2285C51.3445 64.0367 46.2721 78.432 46.9183 92.6153C46.9614 93.575 47.0332 94.5347 47.1301 95.4908V95.5016ZM139.373 140.064L129.795 130.475C129.519 130.198 129.149 130.054 128.779 130.054C128.485 130.054 128.19 130.144 127.939 130.327C119.51 136.427 109.527 139.651 99.0703 139.651C85.8851 139.651 73.4897 134.511 64.1671 125.176C44.9188 105.904 44.9188 74.5466 64.1671 55.2737C73.4897 45.9392 85.8887 40.7957 99.0739 40.7957C112.259 40.7957 124.655 45.9356 133.981 55.2737C142.327 63.6305 147.41 74.7119 148.297 86.4762C149.176 98.1183 145.917 109.714 139.128 119.124C138.716 119.695 138.78 120.482 139.276 120.982L148.853 130.572L139.373 140.068V140.064Z" fill="white"/>
<path d="M128.115 61.1504C120.358 53.383 110.048 49.1094 99.0775 49.1094C88.1072 49.1094 77.7974 53.3866 70.0399 61.1504C64.9604 66.2364 61.4963 72.3324 59.6404 78.8022C59.8629 78.2739 60.3763 77.918 60.9614 77.918H62.925C64.745 72.5301 67.7927 67.4729 72.0717 63.1848C79.2871 55.9602 88.8754 51.9848 99.0775 51.9848C109.28 51.9848 118.871 55.9638 126.083 63.1848C140.974 78.0942 140.974 102.356 126.083 117.265C122.763 120.59 118.94 123.225 114.786 125.101V127.247C114.786 127.84 114.42 128.375 113.867 128.587C109.14 130.413 104.161 131.337 99.0775 131.337C88.1108 131.337 77.7974 127.06 70.0435 119.296C77.801 127.063 88.1108 131.337 99.0811 131.337C110.051 131.337 120.361 127.06 128.119 119.296C144.129 103.265 144.129 77.1776 128.119 61.1468L128.115 61.1504Z" fill="white"/>
<path d="M59.3892 100.735C60.9471 106.669 63.8476 112.319 68.0872 117.201C63.9158 112.395 60.9758 106.745 59.3892 100.735Z" fill="white"/>
<path d="M68.9379 118.146C68.7009 117.891 68.4712 117.636 68.2415 117.373C68.4712 117.632 68.7009 117.891 68.9379 118.146Z" fill="white"/>
<path d="M153.879 128.839C153.071 128.839 152.285 128.961 151.535 129.191C150.311 129.569 149.191 130.237 148.257 131.172L139.968 139.471C139.039 140.402 138.367 141.527 137.99 142.753C137.761 143.504 137.639 144.291 137.639 145.1C137.639 147.228 138.464 149.226 139.968 150.729L157.418 168.201C158.151 167.579 158.876 166.95 159.59 166.307L142.004 148.698C141.045 147.738 140.518 146.462 140.518 145.104C140.518 143.745 141.045 142.469 142.004 141.509L150.293 133.21C151.251 132.25 152.525 131.722 153.882 131.722C155.239 131.722 156.514 132.25 157.472 133.21L173.953 149.711C174.498 148.899 175.026 148.072 175.547 147.239L159.504 131.175C158.003 129.673 156.007 128.843 153.882 128.843L153.879 128.839Z" fill="white"/>
<path d="M99.074 131.337C104.161 131.337 109.136 130.414 113.864 128.588C114.417 128.376 114.783 127.84 114.783 127.247V79.3523C114.783 78.5579 114.14 77.9146 113.347 77.9146H60.9579C60.3728 77.9146 59.8559 78.2704 59.6369 78.7988C59.6153 78.8527 59.5938 78.903 59.5759 78.9569C57.6302 85.8257 57.5369 92.9497 59.12 99.6639C59.1702 99.876 59.2205 100.088 59.2743 100.3C59.3102 100.444 59.3461 100.588 59.3856 100.731C60.9723 106.741 63.9123 112.391 68.0836 117.197C68.1338 117.258 68.1877 117.316 68.2379 117.373C68.4677 117.632 68.6974 117.891 68.9344 118.146C69.0062 118.225 69.078 118.304 69.1533 118.38C69.4441 118.689 69.7349 118.994 70.0364 119.296C77.7903 127.06 88.1001 131.337 99.0704 131.337H99.074ZM111.915 126.248C107.794 127.718 103.479 128.465 99.0776 128.462C93.2442 128.462 87.6083 127.157 82.5037 124.691H82.2631C80.5867 123.861 78.9606 122.905 77.3954 121.816H77.5498C75.6077 120.482 73.7734 118.966 72.0754 117.262C69.9574 115.141 68.1231 112.805 66.5867 110.31H66.4897C65.9082 109.369 65.3733 108.413 64.8815 107.435H64.9856C63.1656 103.812 61.9343 99.9263 61.3277 95.9294H61.1948C61.0477 94.9733 60.9328 94.0172 60.8574 93.0539H61.001C60.6959 88.9887 61.0369 84.848 62.0671 80.7864H111.922V126.244L111.915 126.248Z" fill="white"/>
<path d="M123.43 16.0486C123.276 16.0486 123.115 16.027 122.96 15.9839C120.002 15.1787 116.965 14.5246 113.932 14.0393C112.952 13.8812 112.288 12.961 112.442 11.9798C112.6 10.9985 113.519 10.3336 114.499 10.4881C117.658 10.9949 120.824 11.6779 123.904 12.5153C124.863 12.7741 125.426 13.7626 125.164 14.7223C124.945 15.5238 124.224 16.0486 123.434 16.0486H123.43Z" fill="white"/>
<path d="M100.05 191.007C75.8195 191.007 53.0388 181.557 35.9049 164.402C18.771 147.246 9.3335 124.436 9.3335 100.174C9.3335 75.9124 18.771 53.1027 35.9049 35.9469C53.0388 18.7911 75.8195 9.34521 100.05 9.34521C101.041 9.34521 101.845 10.1503 101.845 11.1424C101.845 12.1344 101.041 12.9396 100.05 12.9396C76.7779 12.9396 54.8983 22.0153 38.4429 38.4917C21.9874 54.9682 12.9233 76.8757 12.9233 100.178C12.9233 123.48 21.9874 145.387 38.4429 161.864C54.8983 178.34 76.7779 187.416 100.05 187.416C123.323 187.416 145.202 178.34 161.658 161.864C178.113 145.387 187.177 123.48 187.177 100.178C187.177 83.8308 182.636 67.8971 174.043 54.0948C165.682 40.6663 153.847 29.7539 139.814 22.5329C138.931 22.08 138.586 20.9945 139.039 20.1139C139.491 19.2297 140.575 18.8846 141.455 19.3375C156.065 26.8533 168.389 38.215 177.09 52.1934C186.04 66.5671 190.767 83.1586 190.767 100.178C190.767 124.44 181.33 147.249 164.196 164.405C147.062 181.561 124.281 191.01 100.05 191.01V191.007Z" fill="white"/>
<path d="M134.437 17.0406C134.437 18.3023 133.414 19.3266 132.154 19.3266C130.894 19.3266 129.871 18.3023 129.871 17.0406C129.871 15.779 130.894 14.7546 132.154 14.7546C133.414 14.7546 134.437 15.779 134.437 17.0406Z" fill="white"/>
</svg>
