<svg width="340" height="340" viewBox="0 0 340 340" fill="none" xmlns="http://www.w3.org/2000/svg">
<path d="M5.00013 229.45V218.58L16.1901 217.56L180.34 122.79C189.28 117.63 203.79 117.63 212.73 122.79L327.61 189.11L335.78 188.36V199.33C335.77 202.71 333.53 206.08 329.07 208.66L160.43 306.02C151.49 311.18 136.98 311.18 128.04 306.02L11.7101 238.84C7.22013 236.25 4.98013 232.84 5.00013 229.44V229.45Z" fill="url(#paint0_linear_201_1314)"/>
<path d="M329.08 197.74L160.44 295.1C151.5 300.26 136.99 300.26 128.05 295.1L11.7101 227.93C2.77013 222.77 2.77013 214.39 11.7101 209.23L180.35 111.87C189.29 106.71 203.8 106.71 212.74 111.87L329.08 179.04C338.02 184.2 338.02 192.58 329.08 197.74Z" fill="url(#paint1_linear_201_1314)"/>
<path d="M212.682 71.8299L205.879 67.8787C203.566 66.568 200.559 66.6836 197.263 68.5725C195.47 69.5941 198.439 60.4194 198.439 60.4194L191.076 56.1791C190.459 55.8128 189.649 55.8128 188.744 56.3333L143.371 82.5273C141.425 83.6452 139.864 86.652 139.864 89.2348V102.958L147.226 107.199C147.226 107.199 148.884 101.898 153.317 98.2552C156.131 99.8743 157.904 103.614 157.904 108.933C157.904 118.667 151.987 129.981 144.682 134.202C142.986 135.185 141.367 135.686 139.864 135.763V149.718C139.864 151.029 140.268 151.973 140.924 152.455L148.364 156.753L152.932 153.207C152.932 153.322 152.932 153.457 152.932 153.573C152.932 158.912 154.724 162.651 157.538 164.27L157.731 164.386C157.731 164.386 157.75 164.386 157.77 164.405L164.863 168.511L212.76 71.8299H212.682Z" fill="url(#paint2_linear_201_1314)"/>
<path d="M173.151 113.347C177.102 87.1337 156.343 101.667 156.343 101.667C157.307 103.575 157.866 106.003 157.866 108.952C157.866 118.686 151.949 130 144.644 134.221C142.947 135.204 141.328 135.705 139.825 135.782L147.188 140.023C150.233 141.777 169.219 139.56 173.17 113.347H173.151Z" fill="url(#paint3_linear_201_1314)"/>
<path d="M205.878 67.8786C204.124 66.8764 201.946 66.7029 199.576 67.5124V77.0533C199.576 77.0533 206.707 74.856 211.988 71.4059L205.898 67.8594L205.878 67.8786Z" fill="url(#paint4_linear_201_1314)"/>
<path d="M204.587 72.813C202.795 73.8346 201.099 75.2994 199.557 77.0534V63.2144C199.557 60.6316 197.976 59.4366 196.049 60.5545L150.677 86.7485C148.73 87.8664 147.169 90.8732 147.169 93.456V107.179C148.672 105.541 150.291 104.153 151.987 103.17C159.292 98.9492 165.21 103.421 165.21 113.174C165.21 122.927 159.292 134.221 151.987 138.443C150.291 139.426 148.672 139.927 147.169 140.004V153.959C147.169 156.541 148.749 157.736 150.677 156.618L161.22 150.528C160.584 152.976 160.218 155.443 160.218 157.833C160.218 167.566 166.135 172.038 173.44 167.836C180.745 163.615 186.662 152.301 186.662 142.567C186.662 140.177 186.296 138.134 185.66 136.419L196.029 130.424C197.976 129.307 199.537 126.3 199.537 123.717V109.666C201.099 109.627 202.795 109.126 204.568 108.085C211.873 103.864 217.79 92.5501 217.79 82.8165C217.79 73.0829 211.873 68.6112 204.568 72.813H204.587Z" fill="url(#paint5_linear_201_1314)"/>
<path d="M157.326 160.859L150.156 156.715C148.306 155.578 145.973 155.404 143.429 156.349C142.388 156.734 141.348 157.293 140.365 157.968L142.523 149.024L135.141 144.745C134.544 144.418 133.753 144.456 132.905 144.938L123.461 150.393L125.427 136.92L119.298 133.335C117.235 131.909 114.537 131.697 111.569 133.007C103.627 136.496 96.92 148.658 96.92 159.028C96.92 161.399 97.2669 163.442 97.903 165.157L87.4177 171.209C85.5095 172.308 83.9675 175.257 83.9675 177.801V238.439C83.9675 239.865 84.4494 240.867 85.2204 241.272L92.6025 245.532L157.326 160.84V160.859Z" fill="url(#paint6_linear_201_1314)"/>
<path d="M150.156 156.715C148.306 155.578 145.974 155.404 143.429 156.349C142.793 156.58 142.157 156.908 141.521 157.274L143.719 165.812L154.609 164.425L157.326 160.859L150.156 156.715Z" fill="url(#paint7_linear_201_1314)"/>
<path d="M129.764 155.269L141.714 152.32L142.504 149.044L135.122 144.765C134.524 144.437 133.734 144.475 132.886 144.957L130.592 146.287L129.764 155.269Z" fill="url(#paint8_linear_201_1314)"/>
<path d="M96.9006 159.028C96.9006 161.399 97.2476 163.442 97.8836 165.157L105.246 169.417L125.408 136.92L119.278 133.335C117.216 131.909 114.517 131.697 111.549 133.007C103.608 136.496 96.9006 148.658 96.9006 159.028Z" fill="url(#paint9_linear_201_1314)"/>
<path d="M150.773 160.608C148.248 161.553 145.839 163.403 143.699 165.812V151.839C143.699 149.294 142.157 148.119 140.249 149.236L129.764 155.289C130.631 151.935 130.978 148.523 130.593 145.382C129.687 138.057 124.83 134.704 118.912 137.306C110.971 140.794 104.264 152.956 104.264 163.326C104.264 165.697 104.611 167.74 105.247 169.455L94.7614 175.508C92.8532 176.606 91.3113 179.555 91.3113 182.099V242.737C91.3113 245.281 92.8532 246.457 94.7614 245.339L140.23 219.087C142.138 217.988 143.68 215.039 143.68 212.495V198.521C145.222 198.483 146.918 197.962 148.691 196.941C156.459 192.45 162.685 179.921 161.856 169.802C161.239 162.266 156.613 158.45 150.734 160.647L150.773 160.608Z" fill="url(#paint10_linear_201_1314)"/>
<path d="M247.897 168.877C247.897 156.136 243.907 146.942 237.489 142.509C236.679 141.95 235.85 141.468 234.964 141.064L225.982 135.917C220.084 132.467 212.393 132.756 203.951 137.633C185.428 148.33 170.414 177.011 170.414 201.701C170.414 214.962 174.75 224.368 181.612 228.589C181.978 228.801 191.943 234.429 191.943 234.429C197.88 238.111 205.724 237.899 214.34 232.926C217.713 230.979 220.97 228.435 224.035 225.428L238.356 205.537C244.235 194.088 247.878 180.981 247.878 168.838L247.897 168.877Z" fill="url(#paint11_linear_201_1314)"/>
<path d="M247.897 168.877C247.897 156.136 243.907 146.942 237.489 142.509C236.679 141.95 235.85 141.468 234.964 141.064L225.982 135.917C220.084 132.467 212.393 132.756 203.951 137.633C185.428 148.33 170.414 177.011 170.414 201.701C170.414 214.962 174.75 224.368 181.612 228.589C181.978 228.801 191.943 234.429 191.943 234.429C197.88 238.111 205.724 237.899 214.34 232.926C217.713 230.979 220.97 228.435 224.035 225.428L238.356 205.537C244.235 194.088 247.878 180.981 247.878 168.838L247.897 168.877Z" fill="url(#paint12_linear_201_1314)"/>
<path d="M241.157 199.628C252.289 173.465 249.316 147.151 234.515 140.853C219.715 134.555 198.692 150.659 187.56 176.822C176.427 202.985 179.401 229.299 194.201 235.597C209.002 241.894 230.025 225.791 241.157 199.628Z" fill="url(#paint13_linear_201_1314)"/>
<path d="M214.359 143.511L242.847 148.195C241.343 145.824 239.532 143.916 237.489 142.49C236.679 141.931 235.85 141.449 234.964 141.044L225.982 135.898C220.122 132.467 212.451 132.737 204.067 137.555L214.359 143.492V143.511Z" fill="url(#paint14_linear_201_1314)"/>
<path d="M242.866 148.214C236.949 138.943 226.406 136.572 214.379 143.53V188.247L242.866 148.214Z" fill="url(#paint15_linear_201_1314)"/>
<path d="M70 173.696L54.5 152L39 191.467L46.419 187.213V208L62.581 198.738V177.95L70 173.696Z" fill="url(#paint16_linear_201_1314)"/>
<path d="M218 62.292L232.991 84L248 44.5274L240.816 48.7801V28L225.184 37.2592V58.0393L218 62.292Z" fill="url(#paint17_linear_201_1314)"/>
<defs>
<linearGradient id="paint0_linear_201_1314" x1="335.78" y1="214.405" x2="5" y2="214.405" gradientUnits="userSpaceOnUse">
<stop stop-color="#69B5D9"/>
<stop offset="1" stop-color="#CBEBFF"/>
</linearGradient>
<linearGradient id="paint1_linear_201_1314" x1="170.395" y1="108" x2="170.395" y2="298.97" gradientUnits="userSpaceOnUse">
<stop stop-color="#69B5D9"/>
<stop offset="1" stop-color="#CBEBFF"/>
</linearGradient>
<linearGradient id="paint2_linear_201_1314" x1="212.76" y1="112.216" x2="139.864" y2="112.216" gradientUnits="userSpaceOnUse">
<stop stop-color="#A8FFA8"/>
<stop offset="1" stop-color="#40FF40"/>
</linearGradient>
<linearGradient id="paint3_linear_201_1314" x1="156.738" y1="97.6488" x2="156.738" y2="140.478" gradientUnits="userSpaceOnUse">
<stop stop-color="#A8FFA8"/>
<stop offset="1" stop-color="#40FF40"/>
</linearGradient>
<linearGradient id="paint4_linear_201_1314" x1="211.988" y1="72.0272" x2="199.576" y2="72.0272" gradientUnits="userSpaceOnUse">
<stop stop-color="#40FF40"/>
<stop offset="1" stop-color="#A8FFA8"/>
</linearGradient>
<linearGradient id="paint5_linear_201_1314" x1="182.48" y1="60.1351" x2="182.48" y2="169.415" gradientUnits="userSpaceOnUse">
<stop stop-color="#03EE03"/>
<stop offset="1" stop-color="#008000"/>
</linearGradient>
<linearGradient id="paint6_linear_201_1314" x1="83.9675" y1="189.733" x2="157.326" y2="189.733" gradientUnits="userSpaceOnUse">
<stop stop-color="#0047BD"/>
<stop offset="1" stop-color="#112F63"/>
</linearGradient>
<linearGradient id="paint7_linear_201_1314" x1="141.521" y1="160.855" x2="157.326" y2="160.855" gradientUnits="userSpaceOnUse">
<stop stop-color="#0047BD"/>
<stop offset="1" stop-color="#112F63"/>
</linearGradient>
<linearGradient id="paint8_linear_201_1314" x1="129.764" y1="149.995" x2="142.504" y2="149.995" gradientUnits="userSpaceOnUse">
<stop stop-color="#0047BD"/>
<stop offset="1" stop-color="#112F63"/>
</linearGradient>
<linearGradient id="paint9_linear_201_1314" x1="96.9006" y1="151.072" x2="125.408" y2="151.072" gradientUnits="userSpaceOnUse">
<stop stop-color="#0047BD"/>
<stop offset="1" stop-color="#112F63"/>
</linearGradient>
<linearGradient id="paint10_linear_201_1314" x1="161.93" y1="191.097" x2="91.3113" y2="191.097" gradientUnits="userSpaceOnUse">
<stop stop-color="#0049BD"/>
<stop offset="1" stop-color="#0087D9"/>
</linearGradient>
<linearGradient id="paint11_linear_201_1314" x1="170.414" y1="185.281" x2="247.897" y2="185.281" gradientUnits="userSpaceOnUse">
<stop stop-color="#888BCB"/>
<stop offset="1" stop-color="#383DA9"/>
</linearGradient>
<linearGradient id="paint12_linear_201_1314" x1="170.414" y1="185.281" x2="247.897" y2="185.281" gradientUnits="userSpaceOnUse">
<stop stop-color="#008000"/>
<stop offset="1" stop-color="#03EE03"/>
</linearGradient>
<linearGradient id="paint13_linear_201_1314" x1="234.515" y1="140.853" x2="194.201" y2="235.597" gradientUnits="userSpaceOnUse">
<stop stop-color="#A8FFA8"/>
<stop offset="1" stop-color="#40FF40"/>
</linearGradient>
<linearGradient id="paint14_linear_201_1314" x1="242.847" y1="140.893" x2="204.067" y2="140.893" gradientUnits="userSpaceOnUse">
<stop stop-color="#0049BD"/>
<stop offset="1" stop-color="#0087D9"/>
</linearGradient>
<linearGradient id="paint15_linear_201_1314" x1="228.622" y1="139.502" x2="228.622" y2="188.247" gradientUnits="userSpaceOnUse">
<stop stop-color="#0087D9"/>
<stop offset="1" stop-color="#0049BD"/>
</linearGradient>
<linearGradient id="paint16_linear_201_1314" x1="54.5" y1="152" x2="54.5" y2="208" gradientUnits="userSpaceOnUse">
<stop stop-color="#7ADB7A"/>
<stop offset="1" stop-color="#03EE03"/>
</linearGradient>
<linearGradient id="paint17_linear_201_1314" x1="218" y1="56.4444" x2="248" y2="56.4444" gradientUnits="userSpaceOnUse">
<stop stop-color="#0047BD"/>
<stop offset="1" stop-color="#112F63"/>
</linearGradient>
</defs>
</svg>
