<svg width="200" height="200" viewBox="0 0 200 200" fill="none" xmlns="http://www.w3.org/2000/svg">
<path d="M87.362 104.579L99.8423 97.9305L112.323 104.579L109.939 90.4979L120.035 80.5234L106.081 78.4683L99.8423 65.6582L93.6003 78.4683L79.6494 80.5234L89.7459 90.4979L87.362 104.579Z" fill="white"/>
<path d="M75.3769 116.71H67.2425C61.5543 116.71 55.5177 113.154 49.7781 106.427C44.8968 100.704 41.4201 94.1525 39.7917 89.9346C36.7844 82.134 37.2465 74.6977 41.0937 68.9932C44.255 64.3032 49.5214 61.2559 55.5213 60.5312C55.459 59.5427 55.4113 58.5504 55.371 57.5544C48.4542 58.3349 42.3479 61.8616 38.6695 67.3172C34.2612 73.8578 33.6891 82.2715 37.0595 91.016C38.7758 95.4644 42.4323 102.362 47.5557 108.371C53.8673 115.774 60.6741 119.684 67.2388 119.684H78.1604C77.2142 118.754 76.2827 117.762 75.3732 116.71H75.3769Z" fill="white"/>
<path d="M46.8441 72.9732C44.3356 76.6932 44.1376 81.8068 46.2794 87.3701C49.3637 95.3713 59.0054 109.66 67.2424 109.66H70.1544C69.5419 108.702 68.9404 107.709 68.3537 106.687H67.2424C64.5909 106.687 60.9344 104.175 57.2083 99.7937C53.8306 95.8247 50.6913 90.6479 49.0116 86.2887C47.2329 81.6693 47.3209 77.5368 49.2646 74.6492C50.7793 72.4009 53.4235 70.9181 56.5335 70.5093C56.3941 69.5319 56.2658 68.5508 56.1521 67.5623C52.2206 68.0863 48.8319 70.0224 46.8441 72.9732Z" fill="white"/>
<path d="M153.721 87.3665C155.866 81.8032 155.664 76.6933 153.156 72.9695C151.168 70.0188 147.779 68.0826 143.848 67.5586C143.731 68.5471 143.606 69.5282 143.467 70.5056C146.573 70.9181 149.217 72.3972 150.735 74.6456C152.679 77.5294 152.771 81.6619 150.988 86.285C149.309 90.6442 146.166 95.821 142.792 99.79C139.066 104.172 135.409 106.684 132.758 106.684H131.646C131.06 107.706 130.458 108.698 129.846 109.657H132.758C140.995 109.657 150.636 95.3677 153.721 87.3665Z" fill="white"/>
<path d="M144.475 60.5312C150.475 61.2559 155.741 64.3032 158.903 68.9932C162.746 74.6977 163.208 82.134 160.205 89.9346C158.58 94.1525 155.103 100.701 150.218 106.427C144.482 113.154 138.442 116.71 132.758 116.71H124.623C123.714 117.762 122.782 118.754 121.836 119.684H132.758C139.322 119.684 146.129 115.77 152.441 108.371C157.564 102.362 161.224 95.4644 162.937 91.016C166.307 82.2753 165.735 73.8578 161.327 67.3172C157.648 61.8616 151.546 58.3349 144.625 57.5544C144.585 58.5504 144.537 59.5427 144.475 60.5312Z" fill="white"/>
<path d="M94.0477 158.348V128.915C93.0612 128.688 92.082 128.406 91.1138 128.067V158.348H94.0477Z" fill="white"/>
<path d="M105.952 128.918V158.351H108.886V128.071C107.918 128.413 106.939 128.692 105.952 128.918Z" fill="white"/>
<path d="M70.6349 173.499C71.3684 166.661 77.1006 161.325 84.0394 161.325H115.961C122.9 161.325 128.632 166.665 129.365 173.499H132.31C131.566 165.019 124.521 158.352 115.961 158.352H84.0394C75.4832 158.352 68.4344 165.022 67.6899 173.499H70.6349Z" fill="white"/>
<path d="M94.0478 128.918C96.0062 129.372 97.994 129.606 100 129.606C102.006 129.606 103.994 129.372 105.952 128.918C106.939 128.692 107.918 128.409 108.886 128.071C113.438 126.473 117.794 123.645 121.832 119.683C122.778 118.754 123.71 117.762 124.62 116.71C126.442 114.603 128.188 112.247 129.842 109.657C130.454 108.698 131.056 107.706 131.643 106.684C131.716 106.557 131.789 106.435 131.859 106.308C137.617 96.1442 141.574 83.8136 143.463 70.5055C143.602 69.5281 143.731 68.547 143.844 67.5585C144.116 65.2395 144.325 62.8945 144.471 60.5272C144.534 59.5387 144.581 58.5464 144.622 57.5505C144.688 55.8447 144.724 54.1315 144.724 52.4108C144.724 51.5895 144.068 50.9243 143.257 50.9243H56.7353C55.9248 50.9243 55.2683 51.5895 55.2683 52.4108C55.2683 54.1315 55.305 55.8447 55.371 57.5505C55.4113 58.5464 55.459 59.5387 55.5214 60.5272C55.6681 62.8945 55.8771 65.2395 56.1485 67.5585C56.2659 68.547 56.3905 69.5281 56.5299 70.5055C58.415 83.8173 62.3758 96.1442 68.1337 106.308C68.207 106.435 68.2804 106.557 68.3501 106.684C68.9368 107.706 69.5383 108.698 70.1508 109.657C71.8048 112.247 73.5505 114.599 75.3732 116.71C76.2827 117.762 77.2143 118.754 78.1605 119.683C82.1983 123.641 86.5552 126.473 91.1065 128.071C92.0747 128.413 93.0539 128.692 94.0405 128.918H94.0478ZM70.6825 104.833C62.8416 90.986 58.4333 72.9508 58.2133 53.9011H141.787C141.57 72.9471 137.162 90.9823 129.318 104.833C121.356 118.892 110.944 126.636 100 126.636C89.0564 126.636 78.6446 118.895 70.6825 104.833Z" fill="white"/>
<path d="M136.172 173.499H63.8244C63.0139 173.499 62.3574 174.164 62.3574 174.986V183.804C63.3256 184.25 64.3048 184.681 65.2914 185.094V176.476H134.705V185.094C135.691 184.681 136.671 184.254 137.639 183.804V174.986C137.639 174.164 136.982 173.499 136.172 173.499Z" fill="white"/>
<path d="M123.882 13.0183C123.725 13.0183 123.56 12.996 123.402 12.9514C120.376 12.1189 117.274 11.4426 114.178 10.9409C113.177 10.7773 112.499 9.82597 112.656 8.81142C112.818 7.79687 113.76 7.10935 114.758 7.26915C117.981 7.79315 121.216 8.49553 124.366 9.36515C125.342 9.63272 125.921 10.6547 125.654 11.647C125.43 12.4757 124.693 13.0183 123.886 13.0183H123.882Z" fill="white"/>
<path d="M99.9999 193.913C75.2447 193.913 51.9711 184.143 34.4664 166.405C16.9618 148.667 7.32007 125.083 7.32007 99.9983C7.32007 74.9133 16.9618 51.3297 34.4664 33.5918C51.9711 15.8539 75.2447 6.08374 99.9999 6.08374C101.012 6.08374 101.834 6.91619 101.834 7.94189C101.834 8.96759 101.012 9.80004 99.9999 9.80004C76.2239 9.80004 53.8708 19.1837 37.0593 36.2192C20.2478 53.2547 10.9875 75.9055 10.9875 99.9983C10.9875 124.091 20.2478 146.742 37.0593 163.777C53.8708 180.813 76.2239 190.197 99.9999 190.197C123.776 190.197 146.129 180.813 162.94 163.777C179.752 146.742 189.012 124.091 189.012 99.9983C189.012 83.0966 184.373 66.6222 175.593 52.3516C167.052 38.4676 154.96 27.1849 140.624 19.7188C139.722 19.2506 139.37 18.1283 139.832 17.2178C140.294 16.3036 141.402 15.9431 142.3 16.415C157.227 24.1858 169.817 35.933 178.707 50.3857C187.85 65.2472 192.68 82.4016 192.68 99.9983C192.68 125.083 183.038 148.667 165.533 166.405C148.029 184.143 124.755 193.913 99.9999 193.913Z" fill="white"/>
<path d="M135.13 14.044C135.13 15.3484 134.085 16.4076 132.798 16.4076C131.511 16.4076 130.465 15.3484 130.465 14.044C130.465 12.7396 131.511 11.6804 132.798 11.6804C134.085 11.6804 135.13 12.7396 135.13 14.044Z" fill="white"/>
</svg>
