<svg width="235" height="396" viewBox="0 0 235 396" fill="none" xmlns="http://www.w3.org/2000/svg">
<g clip-path="url(#clip0_179_846)">
<g filter="url(#filter0_d_179_846)">
<path d="M18.8535 292.357L20.646 325.033L19.2603 325.109L17.4677 292.433L18.8535 292.357Z" fill="#407BFF"/>
<path d="M17.3376 264.652L18.2612 281.489L16.8755 281.565L15.9519 264.728L17.3376 264.652Z" fill="#407BFF"/>
<path d="M46.5613 387.328H209.256C219.72 387.328 227.797 378.765 227.228 368.314L208.479 26.7573C207.91 16.2931 198.875 7.74414 188.425 7.74414H25.744C15.2798 7.74414 7.20265 16.307 7.77166 26.7573L26.5073 368.328C27.0763 378.792 36.111 387.341 46.5613 387.341V387.328Z" fill="#407BFF"/>
<path opacity="0.8" d="M56.4009 387.328H209.256C219.72 387.328 227.797 378.765 227.228 368.314L208.479 26.7573C207.91 16.2931 198.875 7.74414 188.425 7.74414H35.5697C25.1056 7.74414 17.0284 16.307 17.5974 26.7573L36.333 368.328C36.9021 378.792 45.9368 387.341 56.3871 387.341L56.4009 387.328Z" fill="white"/>
</g>
<path d="M175.16 69.655H131.263C126.85 69.655 123.436 66.0466 123.672 61.6195C123.908 57.2062 127.724 53.584 132.137 53.584H176.034C180.448 53.584 183.862 57.1923 183.626 61.6195C183.39 66.0328 179.573 69.655 175.16 69.655Z" fill="white"/>
<path d="M183.639 61.6194C183.195 69.5993 176.381 76.0666 168.401 76.0666C160.421 76.0666 154.301 69.5993 154.745 61.6194C155.189 53.6394 162.003 47.1721 169.983 47.1721C177.963 47.1721 184.083 53.6394 183.639 61.6194Z" fill="#407BFF"/>
<path d="M178.002 121.018H134.105C129.692 121.018 126.278 117.41 126.513 112.983C126.749 108.569 130.566 104.947 134.979 104.947H178.876C183.289 104.947 186.703 108.556 186.467 112.983C186.231 117.396 182.415 121.018 178.002 121.018Z" fill="white"/>
<path d="M162.424 123.069C168.303 117.35 168.68 108.203 163.265 102.638C157.851 97.0721 148.697 97.1963 142.818 102.915C136.94 108.634 136.563 117.781 141.977 123.347C147.391 128.912 156.546 128.788 162.424 123.069Z" fill="#407BFF"/>
<path opacity="0.3" d="M162.424 123.069C168.303 117.35 168.68 108.203 163.265 102.638C157.851 97.0721 148.697 97.1963 142.818 102.915C136.94 108.634 136.563 117.781 141.977 123.347C147.391 128.912 156.546 128.788 162.424 123.069Z" fill="#FAFAFA"/>
<path d="M145.722 223.745H189.619C194.032 223.745 197.849 220.136 198.085 215.709C198.321 211.296 194.906 207.674 190.493 207.674H146.596C142.183 207.674 138.367 211.282 138.131 215.709C137.895 220.122 141.309 223.745 145.722 223.745Z" fill="white"/>
<path d="M162.373 225.803C168.252 220.084 168.628 210.936 163.214 205.371C157.8 199.805 148.646 199.93 142.767 205.648C136.889 211.367 136.512 220.515 141.926 226.08C147.34 231.645 156.494 231.521 162.373 225.803Z" fill="#407BFF"/>
<path opacity="0.7" d="M162.373 225.803C168.252 220.084 168.628 210.936 163.214 205.371C157.8 199.805 148.646 199.93 142.767 205.648C136.889 211.367 136.512 220.515 141.926 226.08C147.34 231.645 156.494 231.521 162.373 225.803Z" fill="#FAFAFA"/>
<path d="M186.415 275.108H142.518C138.105 275.108 134.691 271.5 134.927 267.072C135.163 262.659 138.979 259.037 143.393 259.037H187.29C191.703 259.037 195.117 262.645 194.881 267.072C194.645 271.486 190.829 275.108 186.415 275.108Z" fill="white"/>
<path d="M194.895 267.073C194.451 275.053 187.636 281.52 179.656 281.52C171.676 281.52 165.556 275.053 166 267.073C166.444 259.093 173.259 252.625 181.252 252.625C189.246 252.625 195.353 259.093 194.909 267.073H194.895Z" fill="#407BFF"/>
<path d="M136.92 172.381H180.817C185.23 172.381 189.046 168.773 189.282 164.346C189.518 159.933 186.104 156.31 181.691 156.31H137.794C133.381 156.31 129.564 159.919 129.328 164.346C129.092 168.759 132.507 172.381 136.92 172.381Z" fill="white"/>
<path d="M129.328 164.346C128.884 172.326 135.005 178.793 142.985 178.793C150.965 178.793 157.793 172.326 158.223 164.346C158.667 156.366 152.547 149.899 144.567 149.899C136.587 149.899 129.759 156.366 129.328 164.346Z" fill="#407BFF"/>
<path opacity="0.7" d="M129.328 164.346C128.884 172.326 135.005 178.793 142.985 178.793C150.965 178.793 157.793 172.326 158.223 164.346C158.667 156.366 152.547 149.899 144.567 149.899C136.587 149.899 129.759 156.366 129.328 164.346Z" fill="#FAFAFA"/>
<path d="M101.325 59.2185H36.2639C34.5014 59.2185 33.1274 57.7752 33.2246 56.0126C33.3217 54.2501 34.8483 52.8068 36.6109 52.8068H101.672C103.435 52.8068 104.808 54.2501 104.711 56.0126C104.614 57.7752 103.088 59.2185 101.325 59.2185Z" fill="white"/>
<path d="M79.647 70.4596H35.6531C33.8905 70.4596 32.5166 69.0163 32.6137 67.2537C32.7109 65.4912 34.2375 64.0479 36 64.0479H79.994C81.7565 64.0479 83.1305 65.4912 83.0333 67.2537C82.9362 69.0163 81.4096 70.4596 79.647 70.4596Z" fill="white"/>
<path d="M112.608 264.672H55.7766C54.0141 264.672 52.6401 263.228 52.7373 261.466C52.8344 259.703 54.361 258.26 56.1236 258.26H112.955C114.717 258.26 116.091 259.703 115.994 261.466C115.897 263.228 114.37 264.672 112.608 264.672Z" fill="white"/>
<path d="M83.2421 275.913H55.1526C53.3901 275.913 52.0161 274.47 52.1132 272.707C52.2104 270.945 53.737 269.501 55.4995 269.501H83.5891C85.3516 269.501 86.7256 270.945 86.6284 272.707C86.5313 274.47 85.0046 275.913 83.2421 275.913Z" fill="white"/>
<path d="M104.489 115.397H39.4278C37.6653 115.397 36.1387 116.841 36.0415 118.603C35.9444 120.366 37.3044 121.809 39.0809 121.809H104.142C105.905 121.809 107.431 120.366 107.528 118.603C107.625 116.841 106.265 115.397 104.489 115.397Z" fill="white"/>
<path d="M84.0458 104.156H40.0518C38.2893 104.156 36.7627 105.599 36.6655 107.362C36.5684 109.125 37.9285 110.568 39.7049 110.568H83.6988C85.4614 110.568 86.988 109.125 87.0851 107.362C87.1823 105.599 85.8222 104.156 84.0458 104.156Z" fill="white"/>
<path d="M75.2614 161.945H41.8982C40.1356 161.945 38.7617 160.502 38.8589 158.739C38.956 156.977 40.4826 155.533 42.2451 155.533H75.6084C77.3709 155.533 78.7449 156.977 78.6477 158.739C78.5506 160.502 77.024 161.945 75.2614 161.945Z" fill="white"/>
<path d="M106.959 161.945H87.3078C85.5453 161.945 84.1714 160.502 84.2685 158.739C84.3657 156.977 85.8923 155.533 87.6548 155.533H107.306C109.069 155.533 110.443 156.977 110.346 158.739C110.249 160.502 108.722 161.945 106.959 161.945Z" fill="white"/>
<path d="M85.2818 173.186H41.2878C39.5253 173.186 38.1514 171.743 38.2485 169.98C38.3457 168.218 39.8723 166.775 41.6348 166.775H85.6288C87.3913 166.775 88.7652 168.218 88.6681 169.98C88.571 171.743 87.0443 173.186 85.2818 173.186Z" fill="white"/>
<path d="M127.79 320.962H52.8891C50.4188 320.962 48.5036 318.936 48.6423 316.465C48.7811 313.995 50.9045 311.969 53.3748 311.969H128.289C130.76 311.969 132.675 313.995 132.536 316.465C132.397 318.936 130.274 320.962 127.804 320.962H127.79Z" fill="white"/>
<path d="M194.614 320.962H148.622C146.151 320.962 144.236 318.936 144.375 316.465C144.514 313.995 146.637 311.969 149.107 311.969H195.1C197.57 311.969 199.485 313.995 199.346 316.465C199.208 318.936 197.084 320.962 194.614 320.962Z" fill="white"/>
<path d="M109.054 336.686H52.0146C49.5442 336.686 47.6291 334.66 47.7678 332.189C47.9066 329.719 50.03 327.693 52.5003 327.693H109.54C112.01 327.693 113.925 329.719 113.787 332.189C113.648 334.66 111.524 336.686 109.054 336.686Z" fill="white"/>
<path d="M170.993 352.41H51.1547C48.6844 352.41 46.7692 350.384 46.908 347.913C47.0468 345.443 49.1701 343.417 51.6404 343.417H171.479C173.949 343.417 175.864 345.443 175.726 347.913C175.587 350.384 173.464 352.41 170.993 352.41Z" fill="white"/>
<path d="M75.7611 218.124H56.4981C54.7356 218.124 53.209 219.567 53.1118 221.33C53.0147 223.092 54.3748 224.536 56.1512 224.536H75.4141C77.1767 224.536 78.7033 223.092 78.8004 221.33C78.8976 219.567 77.5375 218.124 75.7611 218.124Z" fill="white"/>
<path d="M110.138 218.124H87.8077C86.0452 218.124 84.5185 219.567 84.4214 221.33C84.3243 223.092 85.6843 224.536 87.4607 224.536H109.791C111.553 224.536 113.08 223.092 113.177 221.33C113.274 219.567 111.914 218.124 110.138 218.124Z" fill="white"/>
<path d="M101.131 206.883H57.1368C55.3743 206.883 53.8476 208.326 53.7505 210.089C53.6534 211.851 55.0134 213.295 56.7898 213.295H100.784C102.546 213.295 104.073 211.851 104.17 210.089C104.267 208.326 102.907 206.883 101.131 206.883Z" fill="white"/>
</g>
<defs>
<filter id="filter0_d_179_846" x="3.74316" y="7.74414" width="227.513" height="387.597" filterUnits="userSpaceOnUse" color-interpolation-filters="sRGB">
<feFlood flood-opacity="0" result="BackgroundImageFix"/>
<feColorMatrix in="SourceAlpha" type="matrix" values="0 0 0 0 0 0 0 0 0 0 0 0 0 0 0 0 0 0 127 0" result="hardAlpha"/>
<feOffset dy="4"/>
<feGaussianBlur stdDeviation="2"/>
<feComposite in2="hardAlpha" operator="out"/>
<feColorMatrix type="matrix" values="0 0 0 0 0 0 0 0 0 0 0 0 0 0 0 0 0 0 0.25 0"/>
<feBlend mode="normal" in2="BackgroundImageFix" result="effect1_dropShadow_179_846"/>
<feBlend mode="normal" in="SourceGraphic" in2="effect1_dropShadow_179_846" result="shape"/>
</filter>
<clipPath id="clip0_179_846">
<rect width="235" height="395.071" fill="white" transform="matrix(-1 0 0 1 235 0)"/>
</clipPath>
</defs>
</svg>
