<svg width="41" height="45" viewBox="0 0 41 45" fill="none" xmlns="http://www.w3.org/2000/svg">
<g clip-path="url(#clip0_184_1115)">
<path d="M39.1943 21.4231C40.0704 10.8344 32.1968 1.54025 21.608 0.664117C11.0193 -0.212016 1.72521 7.6616 0.849076 18.2503C-0.0270578 28.8391 7.84656 38.1332 18.4353 39.0093C29.024 39.8854 38.3181 32.0118 39.1943 21.4231Z" fill="#FFB800"/>
<path d="M32.3359 19.5908C32.3359 20.3879 32.2595 21.1669 32.1151 21.9223C31.5485 24.8787 29.9252 27.4574 27.6534 29.2557C25.9968 30.5652 23.993 31.4594 21.8031 31.7747C21.3254 31.8469 20.8394 31.8871 20.3437 31.8996C20.2353 31.9024 20.1284 31.9052 20.0201 31.9052C19.2605 31.9052 18.519 31.8358 17.7983 31.7052C16.8901 31.54 16.0153 31.2734 15.1877 30.9193C14.86 30.779 14.5392 30.6249 14.2267 30.4582C11.144 28.8127 8.84579 25.8938 8.03066 22.4056C7.8793 21.7585 7.77932 21.0905 7.73488 20.4073C7.71683 20.1379 7.7085 19.8657 7.7085 19.5922C7.7085 12.7921 13.2214 7.28058 20.0215 7.28058C21.8906 7.28058 23.6625 7.69717 25.2497 8.44147C25.8621 8.72892 26.4467 9.06497 26.9994 9.44546C30.1252 11.5978 32.2067 15.1569 32.3303 19.2075C32.3345 19.3353 32.3359 19.463 32.3359 19.5908Z" fill="white"/>
<path d="M20.0211 33.4063C12.4045 33.4063 6.20703 27.2088 6.20703 19.5908C6.20703 11.9727 12.4045 5.77667 20.0211 5.77667C27.6378 5.77667 33.8366 11.9727 33.8366 19.5908C33.8366 27.2088 27.6406 33.4063 20.0211 33.4063ZM20.0211 6.06967C12.5642 6.06967 6.50003 12.1352 6.50003 19.5908C6.50003 27.0463 12.5656 33.1119 20.0211 33.1119C27.4767 33.1119 33.5436 27.0463 33.5436 19.5908C33.5436 12.1352 27.4781 6.06967 20.0211 6.06967Z" fill="#D9D9D9"/>
<path d="M2.22461 36.6459L6.24192 44.4015C6.24192 44.4015 20.5073 36.5071 33.5271 44.4015L37.8208 36.6459C37.8208 36.6459 22.7236 26.6742 2.226 36.6459H2.22461Z" fill="#0047BD"/>
<path d="M10.4328 39.4929C10.2537 39.6206 9.90792 39.8275 9.53577 39.9428C9.02059 40.1011 8.60539 40.0872 8.25128 39.9108C7.90135 39.7414 7.61529 39.404 7.45976 38.961C7.09872 37.9668 7.63057 37.1239 8.65121 36.8114C9.05114 36.6892 9.38163 36.6795 9.55382 36.71C9.5566 36.9086 9.56076 37.1072 9.56493 37.3058C9.37746 37.2808 9.15112 37.2808 8.81785 37.3835C8.24295 37.5599 7.92079 38.0292 8.14436 38.6833C8.35682 39.3054 8.8484 39.547 9.37885 39.3832C9.52744 39.3373 9.6413 39.2832 9.68574 39.2415C9.62186 39.0277 9.55937 38.8152 9.4955 38.6028C9.34414 38.6472 9.19417 38.693 9.0428 38.7402C8.98726 38.5611 8.93171 38.382 8.87617 38.2028C9.24554 38.0876 9.61492 37.9793 9.98707 37.8765C10.1357 38.4153 10.2856 38.9555 10.4356 39.4943L10.4328 39.4929Z" fill="white"/>
<path d="M10.8742 36.2378C11.0172 36.8322 11.1603 37.4265 11.3033 38.0222C11.4324 38.5555 11.6866 38.7804 12.024 38.7041C12.3684 38.6277 12.5059 38.3291 12.392 37.7778C12.267 37.1793 12.1434 36.5808 12.0185 35.9809C12.2545 35.9323 12.492 35.8851 12.728 35.8407C12.8377 36.4253 12.9474 37.0113 13.0585 37.5973C13.2363 38.5666 12.8725 39.1054 12.1282 39.2706C11.4088 39.4331 10.8756 39.1179 10.6145 38.1347C10.4646 37.5612 10.316 36.9877 10.166 36.4142C10.4021 36.3531 10.6382 36.2934 10.8742 36.2365V36.2378Z" fill="white"/>
<path d="M14.303 37.9751C14.2739 38.2556 14.2475 38.5361 14.2211 38.8152C13.9948 38.8513 13.7684 38.8902 13.5435 38.9305C13.649 37.832 13.7809 36.7323 13.942 35.6325C14.2544 35.5839 14.5683 35.5394 14.8821 35.4991C15.3459 36.5101 15.7819 37.5293 16.1902 38.5555C15.9541 38.5791 15.7181 38.6069 15.482 38.6347C15.3737 38.3736 15.264 38.1125 15.1529 37.8515C14.8696 37.889 14.5849 37.9279 14.3016 37.9723L14.303 37.9751ZM14.9862 37.3321C14.8946 37.1169 14.8002 36.9017 14.7057 36.6878C14.6252 36.5073 14.5377 36.2809 14.4641 36.1004C14.4613 36.1004 14.4586 36.1004 14.4544 36.1004C14.435 36.2948 14.4225 36.5392 14.4002 36.7295C14.3725 36.9614 14.3447 37.1933 14.3197 37.4252C14.5419 37.3919 14.7641 37.3599 14.9862 37.3307V37.3321Z" fill="white"/>
<path d="M16.2968 35.3894C16.5245 35.3311 16.8675 35.2741 17.2508 35.2491C17.7243 35.2186 18.0604 35.2755 18.2923 35.4463C18.4867 35.5907 18.595 35.8101 18.6047 36.1031C18.6158 36.51 18.3464 36.7961 18.0895 36.9072C18.0895 36.9127 18.0895 36.9169 18.0895 36.9211C18.3061 37.0016 18.4311 37.2099 18.5172 37.5015C18.6228 37.857 18.7269 38.2708 18.7852 38.3916C18.5603 38.3972 18.3339 38.4055 18.109 38.4166C18.0576 38.3291 17.9757 38.0722 17.8673 37.6848C17.7674 37.2918 17.6299 37.1904 17.3508 37.2043C17.2813 37.2085 17.2133 37.2127 17.1439 37.2182C17.173 37.6348 17.2036 38.0514 17.2327 38.468C17.0147 38.4833 16.7967 38.5013 16.5787 38.5208C16.4843 37.4765 16.3898 36.4323 16.2954 35.3894H16.2968ZM17.1078 36.6989C17.1994 36.6919 17.2897 36.6864 17.3813 36.6808C17.7271 36.6586 17.9229 36.4711 17.9104 36.192C17.8965 35.899 17.6938 35.7615 17.366 35.7768C17.1939 35.7879 17.0967 35.8088 17.0453 35.8226C17.0661 36.1143 17.0869 36.4073 17.1078 36.7003V36.6989Z" fill="white"/>
<path d="M19.874 37.5626C19.8018 37.8348 19.731 38.107 19.6616 38.3805C19.4324 38.3805 19.2047 38.3833 18.9756 38.3875C19.2519 37.3196 19.5546 36.2545 19.8851 35.1936C20.2004 35.195 20.517 35.2005 20.8322 35.2103C21.1307 36.2823 21.4001 37.3571 21.6431 38.4347C21.4071 38.4208 21.1696 38.4097 20.9322 38.4013C20.8669 38.1264 20.7989 37.8514 20.7308 37.5765C20.4448 37.5682 20.1601 37.5626 19.874 37.5612V37.5626ZM20.6475 37.0363C20.5906 36.81 20.5322 36.5822 20.4725 36.3559C20.4212 36.1656 20.3698 35.9282 20.3267 35.7379C20.3239 35.7379 20.3212 35.7379 20.317 35.7379C20.267 35.9268 20.217 36.167 20.1643 36.3503C20.1004 36.5753 20.0365 36.8003 19.9754 37.0252C20.199 37.0266 20.4239 37.0308 20.6475 37.0363Z" fill="white"/>
<path d="M22.0332 38.4582C22.1054 37.3987 22.1762 36.3378 22.2484 35.2783C22.5289 35.2977 22.8094 35.3199 23.09 35.3449C23.276 35.7532 23.4538 36.1614 23.626 36.5711C23.7732 36.9252 23.9079 37.3404 23.9967 37.7125C24.0009 37.7125 24.0051 37.7125 24.0106 37.7125C24.0176 37.289 24.0551 36.8613 24.112 36.3864C24.1495 36.0781 24.187 35.7698 24.2231 35.4616C24.4439 35.4879 24.6633 35.5171 24.8827 35.5477C24.7369 36.6002 24.5911 37.6514 24.4453 38.704C24.2161 38.6721 23.9856 38.6429 23.7551 38.6151C23.5954 38.1833 23.4288 37.7528 23.2552 37.3237C23.1108 36.9668 22.9483 36.5391 22.8261 36.1545C22.8219 36.1545 22.8164 36.1573 22.8122 36.1587C22.7956 36.5794 22.7664 37.0279 22.722 37.5459C22.6942 37.8639 22.6678 38.1833 22.64 38.5027C22.4387 38.486 22.2359 38.4707 22.0332 38.4568V38.4582Z" fill="white"/>
<path d="M26.0088 36.3379C25.7311 36.2893 25.452 36.2448 25.1729 36.2032C25.202 36.0032 25.2326 35.8032 25.2617 35.6047C26.0741 35.7255 26.8823 35.8727 27.6863 36.0476C27.6432 36.2448 27.6016 36.442 27.5585 36.6392C27.278 36.5781 26.9961 36.5212 26.7142 36.467C26.5518 37.3127 26.3893 38.157 26.2268 39.0027C26.0088 38.961 25.7894 38.9207 25.5714 38.8832C25.7172 38.0348 25.863 37.1877 26.0102 36.3393L26.0088 36.3379Z" fill="white"/>
<path d="M29.4209 38.3735C29.0584 38.2721 28.696 38.1763 28.3308 38.0861C28.2697 38.3305 28.21 38.5762 28.1489 38.8206C28.5474 38.9192 28.9446 39.0248 29.3403 39.1372C29.2862 39.3275 29.232 39.5163 29.1778 39.7052C28.5738 39.533 27.967 39.3775 27.356 39.2386C27.5906 38.2027 27.8267 37.1668 28.0614 36.1309C28.7057 36.2767 29.3486 36.4405 29.986 36.6224C29.9319 36.8127 29.8791 37.0015 29.8249 37.1904C29.4278 37.0779 29.0293 36.9724 28.6293 36.8738C28.5766 37.0876 28.5238 37.3029 28.4696 37.5167C28.8404 37.6084 29.2098 37.7056 29.5778 37.8097C29.525 37.9972 29.4722 38.186 29.4195 38.3735H29.4209Z" fill="white"/>
<path d="M31.7428 39.1109C31.3859 38.9845 31.029 38.8637 30.6694 38.7484C30.593 38.9887 30.5152 39.2289 30.4388 39.4691C30.8318 39.5955 31.222 39.7274 31.6122 39.8677C31.5456 40.0524 31.4789 40.2384 31.4123 40.4231C30.8179 40.2093 30.2194 40.0121 29.6182 39.8316C29.9223 38.8137 30.2278 37.7958 30.5319 36.7794C31.1679 36.9696 31.8011 37.1779 32.4288 37.4015C32.3621 37.5875 32.2954 37.7722 32.2302 37.9583C31.84 37.8181 31.447 37.6847 31.0526 37.5584C30.986 37.7681 30.9179 37.9791 30.8499 38.1888C31.2151 38.3055 31.5789 38.4291 31.94 38.5582C31.8747 38.7429 31.8094 38.9262 31.7428 39.1109Z" fill="white"/>
<path d="M36.9726 18.6035L32.1165 21.9209L17.7997 31.7024C16.8916 31.5372 16.0167 31.2706 15.1891 30.9165C14.8614 30.7762 14.5406 30.6221 14.2282 30.4554C11.1454 28.8099 8.84723 25.891 8.03211 22.4028C7.88075 21.7557 7.78076 21.0877 7.73633 20.4045L25.2498 8.43869L28.5075 6.21271C29.2157 5.72947 30.1808 5.91138 30.664 6.61819L37.3781 16.4455C37.8613 17.1537 37.6794 18.1188 36.9726 18.6021V18.6035Z" fill="#6BC183"/>
<path d="M18.8164 19.3365H22.6351M18.8164 17.4272H22.6351M21.8168 23.7009L18.8164 21.246L19.6347 21.2459C22.0594 21.2459 22.0594 17.4272 19.6347 17.4272" stroke="#2B9E51" stroke-width="0.545534" stroke-linecap="round" stroke-linejoin="round"/>
<path d="M33.6942 18.2743L32.3306 19.2061L15.7864 30.6873C10.6707 28.4822 9.28346 25.5938 8.46973 22.1042L26.9996 9.44402L27.3871 9.18018C27.3871 9.18018 28.5868 10.6146 29.9532 9.08575L34.476 15.7054C34.476 15.7054 32.65 16.608 33.6942 18.2743Z" stroke="#2B9E51" stroke-width="0.930383" stroke-miterlimit="10"/>
<path d="M27.7105 16.8745C28.5456 16.8745 29.2227 16.1975 29.2227 15.3623C29.2227 14.5271 28.5456 13.8501 27.7105 13.8501C26.8753 13.8501 26.1982 14.5271 26.1982 15.3623C26.1982 16.1975 26.8753 16.8745 27.7105 16.8745Z" stroke="#2B9E51" stroke-width="0.620718" stroke-miterlimit="10"/>
<path d="M13.4077 23.6219C14.2437 23.6219 14.9199 24.2996 14.9199 25.1342C14.9199 25.9687 14.2423 26.6464 13.4077 26.6464C12.5732 26.6464 11.8955 25.9687 11.8955 25.1342C11.8955 24.2996 12.5732 23.6219 13.4077 23.6219Z" stroke="#2B9E51" stroke-width="0.620718" stroke-miterlimit="10"/>
</g>
<defs>
<clipPath id="clip0_184_1115">
<rect width="40.0454" height="45" fill="white"/>
</clipPath>
</defs>
</svg>
