<svg width="45" height="38" viewBox="0 0 45 38" fill="none" xmlns="http://www.w3.org/2000/svg">
<path d="M26.7925 15.8492H1.13672V36.7759H26.7925V15.8492Z" fill="#407BFF"/>
<path d="M25.1426 12.5194H25.1182L25.1059 12.4827L13.9613 12.5011L2.82284 12.4827L2.81062 12.5194H2.78618L1.13037 15.8493H26.7923L25.1426 12.5194Z" fill="#0047BD"/>
<path d="M15.7579 15.8492H12.1714V24.5254H15.7579V15.8492Z" fill="#BAD7FF"/>
<path d="M15.263 12.5011H15.0309H12.8985H12.6663L12.1714 15.8494H15.7579L15.263 12.5011Z" fill="#99AFCE"/>
<path d="M25.2956 34.5641H19.3262V35.7372H25.2956V34.5641Z" fill="#BAD7FF"/>
<path d="M21.9591 30.5376L21.0059 29.5661L20.0283 30.5376H20.3277V34.228H21.6658V30.5376H21.9591Z" fill="#BAD7FF"/>
<path d="M24.5804 31.4542L23.8594 30.721L23.1323 31.4542H23.3523V34.2281H24.3604V31.4542H24.5804Z" fill="#BAD7FF"/>
<path d="M6.14667 17.499H2.04688V18.2811H6.14667V17.499Z" fill="#BAD7FF"/>
<path d="M10.0021 17.499H6.86768V18.2811H10.0021V17.499Z" fill="#BAD7FF"/>
<path d="M4.33812 19.1303H2.04688V19.9124H4.33812V19.1303Z" fill="#BAD7FF"/>
<path d="M10.0022 19.1303H7.71094V19.9124H10.0022V19.1303Z" fill="#BAD7FF"/>
<path d="M7.16673 19.1303H4.87549V19.9124H7.16673V19.1303Z" fill="#BAD7FF"/>
<path d="M21.7396 2.74957H6.18359V15.44H21.7396V2.74957Z" fill="#407BFF"/>
<path d="M20.7437 0.733058H20.7253L20.7192 0.708618L13.9616 0.720838L7.21007 0.708618L7.20396 0.733058H7.18563L6.18359 2.74935H21.7457L20.7437 0.733058Z" fill="#0047BD"/>
<path d="M15.0487 2.74957H12.8735V8.01026H15.0487V2.74957Z" fill="#BAD7FF"/>
<path d="M14.7493 0.72113H14.6088H13.3135H13.1729L12.8735 2.74964H15.0487L14.7493 0.72113Z" fill="#99AFCE"/>
<path d="M20.829 14.1019H17.2119V14.8167H20.829V14.1019Z" fill="#BAD7FF"/>
<path d="M18.8125 11.6579L18.2321 11.0652L17.6455 11.6579H17.8227V13.8941H18.6353V11.6579H18.8125Z" fill="#BAD7FF"/>
<path d="M20.4013 12.2139L19.9675 11.7678L19.5215 12.2139H19.6559V13.8941H20.2669V12.2139H20.4013Z" fill="#BAD7FF"/>
<path d="M9.22602 3.75153H6.73926V4.2281H9.22602V3.75153Z" fill="#BAD7FF"/>
<path d="M11.5599 3.75153H9.65967V4.2281H11.5599V3.75153Z" fill="#BAD7FF"/>
<path d="M8.12622 4.74152H6.73926V5.21809H8.12622V4.74152Z" fill="#BAD7FF"/>
<path d="M11.5603 4.74152H10.1733V5.21809H11.5603V4.74152Z" fill="#BAD7FF"/>
<path d="M9.84302 4.74152H8.45605V5.21809H9.84302V4.74152Z" fill="#BAD7FF"/>
<path d="M43.8694 31.9367L32.5659 36.7453L34.0506 24.5497L43.8694 31.9367Z" fill="#FFB800"/>
<path d="M35.9449 28.6008L39.672 31.4053C45.7086 23.3829 44.0895 11.945 36.061 5.91447C33.0976 3.68432 29.6699 2.5051 26.2239 2.30347L25.2891 6.93483C28.0691 6.96538 30.8675 7.84522 33.2565 9.64766C39.2259 14.1385 40.4296 22.6436 35.9388 28.613L35.9449 28.6008Z" fill="#FFB800"/>
</svg>
