<svg width="44" height="32" viewBox="0 0 44 32" fill="none" xmlns="http://www.w3.org/2000/svg">
<rect x="6.00586" width="39.1111" height="23.1111" rx="3" transform="rotate(13.8226 6.00586 0)" fill="#0047BD" fill-opacity="0.7"/>
<rect x="0.484375" y="8.88892" width="39.1111" height="23.1111" rx="2" fill="#FFB800"/>
<path d="M30.0399 23.7407L31.0769 24.7777L33.4102 22.4444M35.7436 24C35.7436 26.5451 32.9674 28.3962 31.9573 28.9855C31.8425 29.0524 31.7851 29.0859 31.7041 29.1033C31.6413 29.1168 31.5496 29.1168 31.4867 29.1033C31.4057 29.0859 31.3483 29.0524 31.2335 28.9855C30.2234 28.3962 27.4473 26.5451 27.4473 24V21.5202C27.4473 21.1056 27.4473 20.8984 27.5151 20.7202C27.575 20.5628 27.6723 20.4223 27.7986 20.311C27.9417 20.1849 28.1358 20.1121 28.5239 19.9666L31.3041 18.924C31.4119 18.8836 31.4658 18.8634 31.5213 18.8554C31.5704 18.8483 31.6204 18.8483 31.6696 18.8554C31.725 18.8634 31.7789 18.8836 31.8867 18.924L34.6669 19.9666C35.0551 20.1121 35.2492 20.1849 35.3922 20.311C35.5185 20.4223 35.6159 20.5628 35.6758 20.7202C35.7436 20.8984 35.7436 21.1056 35.7436 21.5202V24Z" stroke="#0047BD" stroke-linecap="round" stroke-linejoin="round"/>
<rect x="0.484375" y="12.4445" width="39.1111" height="3.55556" fill="#EEEEEE"/>
<circle cx="6.70671" cy="27.5556" r="2.66667" fill="#2678FF"/>
<g style="mix-blend-mode:hard-light">
<circle cx="10.2624" cy="27.5556" r="2.66667" fill="#0047BD"/>
</g>
</svg>
