<svg width="33" height="47" viewBox="0 0 33 47" fill="none" xmlns="http://www.w3.org/2000/svg">
<path d="M31.8095 42.0385L25.6237 40.1342L22.2265 45.6398L14.0786 23.9574L23.6616 20.3561L31.8095 42.0385Z" fill="#0047BD"/>
<path d="M1.53369 42.0385L7.71602 40.1342L11.1132 45.6398L19.2611 23.9574L9.68158 20.3561L1.53369 42.0385Z" fill="#0047BD"/>
<path d="M31.8091 16.7753C31.8091 17.2718 31.0405 17.7274 30.9929 18.2137C30.9453 18.7068 31.6118 19.3019 31.5166 19.7814C31.4214 20.2677 30.5781 20.5636 30.4352 21.0328C30.2924 21.5055 30.8297 22.2231 30.6393 22.6753C30.4488 23.131 29.5647 23.2569 29.3334 23.6887C29.0988 24.124 29.4865 24.93 29.2144 25.338C28.939 25.7461 28.048 25.6985 27.7351 26.076C27.4223 26.4568 27.6433 27.324 27.2965 27.6709C26.9496 28.0177 26.0824 27.7967 25.7016 28.1095C25.3207 28.4224 25.3717 29.3134 24.9602 29.5888C24.5522 29.8609 23.7462 29.4766 23.3109 29.7078C22.879 29.9391 22.7532 30.8266 22.2975 31.0137C21.8453 31.2007 21.1311 30.6634 20.655 30.8096C20.1858 30.9525 19.8899 31.7958 19.4036 31.891C18.9241 31.9862 18.329 31.3197 17.8359 31.3673C17.3496 31.4149 16.8939 32.1835 16.3975 32.1835C15.901 32.1835 15.4453 31.4149 14.959 31.3673C14.4659 31.3197 13.8674 31.9862 13.3913 31.891C12.905 31.7958 12.6092 30.9525 12.1399 30.8096C11.6672 30.6668 10.9497 31.2041 10.4974 31.0137C10.0417 30.8232 9.91587 29.9391 9.48399 29.7078C9.04871 29.4732 8.24277 29.8609 7.83469 29.5888C7.42662 29.3134 7.47423 28.4224 7.09336 28.1095C6.71249 27.7967 5.84533 28.0177 5.49847 27.6709C5.1516 27.3206 5.37264 26.4568 5.05978 26.076C4.74693 25.6951 3.85596 25.7461 3.58051 25.3346C3.30846 24.9266 3.69274 24.1206 3.46149 23.6853C3.23025 23.2535 2.34609 23.1276 2.15565 22.6719C1.96862 22.2197 2.50592 21.5055 2.35969 21.0328C2.21687 20.5636 1.37351 20.2677 1.27829 19.7814C1.18308 19.3019 1.8496 18.7068 1.80199 18.2137C1.75438 17.7274 0.98584 17.2718 0.98584 16.7753C0.98584 16.2788 1.75438 15.8231 1.80199 15.3368C1.8496 14.8437 1.18308 14.2486 1.27829 13.7691C1.37351 13.2828 2.21687 12.987 2.35969 12.5177C2.50252 12.045 1.96522 11.3275 2.15565 10.8752C2.34609 10.4195 3.23025 10.2937 3.46149 9.8618C3.69614 9.42652 3.30846 8.62057 3.58051 8.2125C3.85596 7.80102 4.74693 7.85203 5.05978 7.47116C5.37264 7.09029 5.1516 6.22654 5.49847 5.87627C5.84533 5.52941 6.71249 5.75045 7.09336 5.43759C7.47423 5.12474 7.42322 4.23377 7.83129 3.95832C8.23937 3.68627 9.04531 4.07054 9.48059 3.8393C9.91247 3.60806 10.0383 2.7205 10.494 2.53346C10.9463 2.34643 11.6604 2.88373 12.1365 2.7375C12.6058 2.59467 12.9016 1.75132 13.3879 1.6561C13.8674 1.56088 14.4625 2.22741 14.9556 2.1798C15.4419 2.13219 15.8976 1.36365 16.3941 1.36365C16.8905 1.36365 17.3462 2.13219 17.8325 2.1798C18.3256 2.22741 18.9241 1.56088 19.4002 1.6561C19.8865 1.75132 20.1824 2.59467 20.6516 2.7375C21.1243 2.88032 21.8419 2.34643 22.2941 2.53346C22.7498 2.7239 22.8756 3.60806 23.3075 3.8393C23.7428 4.07054 24.5487 3.68627 24.9568 3.95832C25.3649 4.23377 25.3173 5.12474 25.6982 5.43759C26.079 5.75045 26.9428 5.52941 27.2931 5.87627C27.6399 6.22314 27.4189 7.09029 27.7317 7.47116C28.0446 7.85203 28.9356 7.80102 29.211 8.2125C29.4831 8.62057 29.0988 9.42652 29.33 9.8618C29.5613 10.2937 30.4488 10.4195 30.6359 10.8752C30.8229 11.3275 30.289 12.0416 30.4318 12.5177C30.5747 12.987 31.418 13.2828 31.5132 13.7691C31.6084 14.2486 30.9419 14.8437 30.9895 15.3368C31.0371 15.8231 31.8057 16.2788 31.8057 16.7753H31.8091Z" fill="#FFB800"/>
<path d="M16.3939 3.91077C9.28997 3.91077 3.53271 9.66802 3.53271 16.7719C3.53271 23.8758 9.28997 29.6331 16.3939 29.6331C23.4978 29.6331 29.255 23.8758 29.255 16.7719C29.255 9.66802 23.4978 3.91077 16.3939 3.91077ZM16.3939 25.974C11.3133 25.974 7.19178 21.8524 7.19178 16.7719C7.19178 11.6914 11.3099 7.56984 16.3939 7.56984C21.4778 7.56984 25.5959 11.6914 25.5959 16.7719C25.5959 21.8524 21.4744 25.974 16.3939 25.974Z" fill="#EEEEEE"/>
</svg>
