<svg width="135" height="110" viewBox="0 0 135 110" fill="none" xmlns="http://www.w3.org/2000/svg">
<g clip-path="url(#clip0_419_332)">
<path d="M107.335 20.6099C106.636 28.304 104.647 36.4171 101.526 44.2451C97.6671 53.9254 92.3948 62.4518 86.2789 68.9025L85.9395 68.6066C92.0258 62.187 97.2742 53.6982 101.117 44.0579C104.59 35.3461 106.656 26.2802 107.094 17.8442L107.527 17.9168C107.481 18.8078 107.417 19.7055 107.335 20.6099Z" fill="#F2F2F2"/>
<path d="M110.117 65.2959C101.526 78.96 91.1047 88.7231 80.771 92.7864L80.562 92.4032C90.8242 88.3679 101.185 78.6549 109.736 65.0532L110.117 65.2959Z" fill="#F2F2F2"/>
<path d="M107.126 30.1895C106.428 37.8836 104.438 45.9967 101.318 53.8247C97.4586 63.505 92.1863 72.0314 86.0704 78.4821L85.731 78.1862C91.8173 71.7666 97.0657 63.2778 100.909 53.6375C104.382 44.9257 106.447 35.8598 106.885 27.4238L107.319 27.4964C107.273 28.3874 107.209 29.2851 107.126 30.1895Z" fill="#F2F2F2"/>
<path d="M10.6908 49.9426H5.05456C4.93415 49.9429 4.81523 49.9159 4.70675 49.8636C4.59826 49.8114 4.50301 49.7353 4.42815 49.6409C4.3542 49.549 4.30202 49.4416 4.27554 49.3266C4.24906 49.2117 4.24896 49.0923 4.27525 48.9773C4.81204 46.6091 4.77832 44.1473 4.17686 41.7947C4.13882 41.6398 4.14802 41.4771 4.20327 41.3275C4.25853 41.1778 4.35731 41.0482 4.48691 40.9551C7.38505 38.8711 9.66743 38.9316 11.2707 41.1352C11.343 41.2356 11.391 41.3515 11.411 41.4736C11.8393 44.0485 11.8631 46.6744 11.4812 49.2566C11.4547 49.4472 11.36 49.6217 11.2147 49.7478C11.0693 49.874 10.8832 49.9432 10.6908 49.9426Z" fill="#E6E6E6"/>
<path d="M8.94345 44.2991H7.00459C6.89738 44.2991 6.79455 44.2565 6.71874 44.1807C6.64293 44.1049 6.60034 44.0021 6.60034 43.8949C6.60034 43.7877 6.64293 43.6849 6.71874 43.6091C6.79455 43.5333 6.89738 43.4907 7.00459 43.4907H8.94345C9.05052 43.4909 9.15313 43.5336 9.22876 43.6094C9.30439 43.6852 9.34686 43.7879 9.34686 43.8949C9.34686 44.002 9.30439 44.1046 9.22876 44.1804C9.15313 44.2562 9.05052 44.2989 8.94345 44.2991Z" fill="white"/>
<path d="M8.94345 45.7166H7.00459C6.89738 45.7166 6.79455 45.674 6.71874 45.5982C6.64293 45.5224 6.60034 45.4196 6.60034 45.3124C6.60034 45.2052 6.64293 45.1024 6.71874 45.0266C6.79455 44.9508 6.89738 44.9082 7.00459 44.9082H8.94345C9.05052 44.9084 9.15313 44.9511 9.22876 45.0269C9.30439 45.1027 9.34686 45.2053 9.34686 45.3124C9.34686 45.4194 9.30439 45.5221 9.22876 45.5979C9.15313 45.6737 9.05052 45.7163 8.94345 45.7166Z" fill="white"/>
<path d="M8.94345 47.1345H7.00459C6.89738 47.1345 6.79455 47.092 6.71874 47.0162C6.64293 46.9404 6.60034 46.8376 6.60034 46.7304C6.60034 46.6232 6.64293 46.5204 6.71874 46.4446C6.79455 46.3688 6.89738 46.3262 7.00459 46.3262H8.94345C9.05052 46.3264 9.15313 46.3691 9.22876 46.4449C9.30439 46.5206 9.34686 46.6233 9.34686 46.7304C9.34686 46.8374 9.30439 46.9401 9.22876 47.0159C9.15313 47.0916 9.05052 47.1343 8.94345 47.1345Z" fill="white"/>
<path d="M113.123 75.1033H107.487C107.366 75.1035 107.247 75.0765 107.139 75.0243C107.03 74.972 106.935 74.8959 106.86 74.8016C106.786 74.7097 106.734 74.6022 106.708 74.4873C106.681 74.3723 106.681 74.2529 106.707 74.1379C107.244 71.7698 107.21 69.3079 106.609 66.9554C106.571 66.8005 106.58 66.6377 106.635 66.4881C106.691 66.3385 106.789 66.2088 106.919 66.1158C109.817 64.0318 112.1 64.0922 113.703 66.2958C113.775 66.3963 113.823 66.5121 113.843 66.6342C114.271 69.2091 114.295 71.8351 113.913 74.4173C113.887 74.6079 113.792 74.7824 113.647 74.9085C113.501 75.0346 113.315 75.1038 113.123 75.1033Z" fill="#E6E6E6"/>
<path d="M111.376 69.4602H109.437C109.33 69.46 109.227 69.4173 109.152 69.3415C109.076 69.2658 109.033 69.1631 109.033 69.056C109.033 68.949 109.076 68.8463 109.152 68.7705C109.227 68.6948 109.33 68.6521 109.437 68.6519H111.376C111.483 68.6519 111.586 68.6944 111.662 68.7702C111.737 68.846 111.78 68.9488 111.78 69.056C111.78 69.1632 111.737 69.266 111.662 69.3418C111.586 69.4176 111.483 69.4602 111.376 69.4602Z" fill="white"/>
<path d="M111.376 70.8777H109.437C109.33 70.8775 109.227 70.8348 109.152 70.759C109.076 70.6832 109.033 70.5806 109.033 70.4735C109.033 70.3665 109.076 70.2638 109.152 70.188C109.227 70.1122 109.33 70.0696 109.437 70.0693H111.376C111.483 70.0693 111.586 70.1119 111.662 70.1877C111.737 70.2635 111.78 70.3663 111.78 70.4735C111.78 70.5807 111.737 70.6835 111.662 70.7593C111.586 70.8351 111.483 70.8777 111.376 70.8777Z" fill="white"/>
<path d="M111.376 72.2952H109.437C109.33 72.295 109.227 72.2523 109.152 72.1765C109.076 72.1007 109.033 71.9981 109.033 71.891C109.033 71.784 109.076 71.6813 109.152 71.6055C109.227 71.5297 109.33 71.487 109.437 71.4868H111.376C111.483 71.4868 111.586 71.5294 111.662 71.6052C111.737 71.681 111.78 71.7838 111.78 71.891C111.78 71.9982 111.737 72.101 111.662 72.1768C111.586 72.2526 111.483 72.2952 111.376 72.2952Z" fill="white"/>
<path d="M134.45 109.568C134.45 109.596 134.445 109.623 134.434 109.649C134.424 109.675 134.408 109.698 134.389 109.718C134.369 109.737 134.346 109.753 134.32 109.763C134.294 109.774 134.267 109.779 134.239 109.779H0.21089C0.154959 109.779 0.10132 109.757 0.0617706 109.717C0.0222211 109.678 0 109.624 0 109.568C0 109.512 0.0222211 109.459 0.0617706 109.419C0.10132 109.38 0.154959 109.357 0.21089 109.357H134.239C134.267 109.357 134.294 109.363 134.32 109.373C134.346 109.384 134.369 109.399 134.389 109.419C134.408 109.439 134.424 109.462 134.434 109.487C134.445 109.513 134.45 109.541 134.45 109.568Z" fill="#CCCCCC"/>
<path d="M35.3556 96.6582L35.0041 91.7699C32.7014 90.619 30.1526 90.0475 27.5789 90.105C31.1997 92.9034 30.9097 98.4963 33.4173 102.324C34.2086 103.512 35.257 104.506 36.485 105.234C37.713 105.961 39.0889 106.403 40.511 106.527L43.5244 108.26C43.8691 105.983 43.7158 103.657 43.075 101.444C42.4343 99.2309 41.3212 97.1831 39.8127 95.4416C38.9567 94.473 37.9822 93.616 36.912 92.8909C36.2533 94.7817 35.3556 96.6582 35.3556 96.6582Z" fill="#F2F2F2"/>
<path d="M99.0945 97.3667L99.446 92.4784C101.749 91.3275 104.298 90.756 106.871 90.8135C103.25 93.6119 103.54 99.2048 101.033 103.032C100.242 104.22 99.1931 105.215 97.9651 105.942C96.7372 106.67 95.3612 107.112 93.9392 107.236L90.9257 108.969C90.581 106.691 90.7343 104.365 91.3751 102.152C92.0159 99.9394 93.1289 97.8916 94.6374 96.15C95.4934 95.1814 96.468 94.3245 97.5381 93.5994C98.1968 95.4902 99.0945 97.3667 99.0945 97.3667Z" fill="#F2F2F2"/>
<path d="M65.6301 42.2019C67.4897 42.2019 68.9972 40.6947 68.9972 38.8353C68.9972 36.976 67.4897 35.4688 65.6301 35.4688C63.7705 35.4688 62.2629 36.976 62.2629 38.8353C62.2629 40.6947 63.7705 42.2019 65.6301 42.2019Z" fill="#474BA1"/>
<path d="M67.3585 37.4322C67.3079 37.3839 67.2406 37.3569 67.1706 37.3569C67.1005 37.3569 67.0332 37.3839 66.9826 37.4322C66.2681 38.0019 65.6264 38.6573 65.0719 39.3835C64.9357 39.1202 64.7996 38.8568 64.6634 38.5934C64.5063 38.2894 64.0474 38.558 64.2044 38.8617C64.4035 39.2469 64.6026 39.6322 64.8017 40.0174C64.8258 40.0567 64.8595 40.0892 64.8997 40.1118C64.9399 40.1343 64.9852 40.1462 65.0313 40.1462C65.0774 40.1462 65.1227 40.1343 65.1629 40.1118C65.2031 40.0892 65.2368 40.0567 65.2608 40.0174C65.8518 39.1853 66.5581 38.4414 67.3585 37.8081C67.408 37.758 67.4357 37.6905 67.4357 37.6201C67.4357 37.5498 67.408 37.4822 67.3585 37.4322Z" fill="white"/>
<path d="M50.5639 48.3818L45.4863 40.4091L51.366 37.2607L52.9093 43.3436L63.7825 49.2182C64.2118 49.0638 64.6768 49.0375 65.1207 49.1427C65.5647 49.2479 65.9684 49.4799 66.2827 49.8106C66.597 50.1412 66.8084 50.5561 66.8909 51.0048C66.9734 51.4534 66.9236 51.9163 66.7476 52.3372C66.5715 52.758 66.2768 53.1185 65.8993 53.3747C65.5219 53.631 65.078 53.7719 64.6219 53.7802C64.1657 53.7886 63.717 53.6641 63.3303 53.4219C62.9437 53.1797 62.636 52.8303 62.4445 52.4162L50.5639 48.3818Z" fill="#A0616A"/>
<path d="M41.7767 30.8468C40.1813 33.1888 45.8509 41.7019 45.8509 41.7019C46.1271 41.1066 48.7674 47.7911 49.2096 47.3963C50.4665 46.274 52.4339 43.1479 53.5276 43.0086C54.153 42.9289 52.0771 38.4941 52.0771 38.4941C52.0771 38.4941 51.1283 35.8753 49.8409 32.5301C49.4945 31.5777 48.9126 30.7283 48.1496 30.0611C47.3865 29.3939 46.467 28.9306 45.4767 28.7143C45.4767 28.7143 43.3721 28.5048 41.7767 30.8468Z" fill="#3F3D56"/>
<path d="M41.8545 107.151L44.2659 107.15L45.4131 97.8506L41.854 97.8508L41.8545 107.151Z" fill="#A0616A"/>
<path d="M41.2393 106.363L41.918 106.363L44.568 105.286L45.9883 106.363H45.9885C46.7911 106.363 47.5609 106.682 48.1284 107.249C48.696 107.817 49.0148 108.586 49.0149 109.389V109.487L41.2394 109.487L41.2393 106.363Z" fill="#2F2E41"/>
<path d="M53.0575 107.151L55.4689 107.15L56.6162 97.8506L53.0571 97.8508L53.0575 107.151Z" fill="#A0616A"/>
<path d="M52.4424 106.363L53.1211 106.363L55.7711 105.286L57.1914 106.363H57.1916C57.9942 106.363 58.764 106.682 59.3315 107.249C59.8991 107.817 60.218 108.586 60.218 109.389V109.487L52.4425 109.487L52.4424 106.363Z" fill="#2F2E41"/>
<path d="M54.1014 56.3076L38.4163 56.6997C35.4373 58.3174 35.3921 61.8188 36.3682 65.9759C36.3682 65.9759 36.0387 68.4468 36.6977 69.1057C37.3567 69.7646 37.6862 69.7646 37.3567 70.9177C37.0272 72.0707 38.7681 73.954 38.5566 74.1655C38.3452 74.3769 37.8509 75.5299 37.8509 75.5299L39.4984 84.9193C39.4984 84.9193 40.6517 101.227 40.9812 101.556C41.3107 101.886 41.6402 101.556 41.3107 102.38C40.9812 103.204 40.6517 102.874 40.9812 103.204C41.2731 103.518 41.5481 103.848 41.805 104.192H45.7882C45.7882 104.192 46.0885 102.545 46.0885 102.38C46.0885 102.215 46.418 101.227 46.418 101.062C46.418 100.898 46.1268 100.606 46.1268 100.606C46.0262 100.271 45.9582 99.9277 45.9238 99.5797C45.9238 99.2503 44.9353 86.5665 44.9353 86.5665L46.9123 70.094L51.6901 86.2371C51.6901 86.2371 51.6901 100.403 52.0196 100.733C52.3491 101.062 52.3491 100.898 52.1843 101.556C52.0196 102.215 51.3606 102.051 51.8548 102.545C52.3491 103.039 52.5138 102.215 52.3491 103.039L52.1843 103.863L57.1269 103.933C57.1269 103.933 57.7859 102.545 57.4564 102.051C57.1269 101.556 57.1467 101.691 57.5487 100.883C57.9507 100.074 58.1154 99.9092 57.9507 99.7445C57.7859 99.5797 57.7859 98.7036 57.7859 98.7036L56.9622 82.9426C56.9622 82.9426 56.7974 66.3054 56.7974 65.8112C56.785 65.5569 56.8318 65.3032 56.9343 65.0702V64.3994L56.3031 62.0225L54.1014 56.3076Z" fill="#2F2E41"/>
<path d="M44.6791 23.6984C47.3706 23.6984 49.5526 21.5168 49.5526 18.8258C49.5526 16.1347 47.3706 13.9531 44.6791 13.9531C41.9876 13.9531 39.8057 16.1347 39.8057 18.8258C39.8057 21.5168 41.9876 23.6984 44.6791 23.6984Z" fill="#A0616A"/>
<path d="M47.116 26.919C48.1659 27.5431 48.7939 28.6898 49.1545 29.8566C49.822 32.0168 50.2237 34.2503 50.3509 36.5077L50.7317 43.2659L55.448 57.6561C51.3606 61.1141 35.9966 58.442 35.9966 58.442C35.9966 58.442 35.525 58.2849 35.9966 57.8133C36.4682 57.3418 36.9274 57.7595 36.4557 57.288C35.9841 56.8164 36.3092 57.3418 36.4665 56.8702C36.6237 56.3987 36.4665 56.713 36.3092 56.5558C36.152 56.3987 37.5263 54.984 37.5263 54.984L36.2686 46.7239L34.6965 30.0627C36.583 27.7049 40.377 26.3151 40.377 26.3151L41.3573 24.5508L46.2589 24.9428L47.116 26.919Z" fill="#3F3D56"/>
<path d="M48.6964 16.2373C49.0752 16.5198 49.3558 16.9139 49.4988 17.3642C49.5537 16.6283 49.5572 15.8895 49.5092 15.1531C49.4518 14.6357 49.0874 14.5193 48.6655 14.3844C48.2845 14.2626 47.8536 14.1249 47.7377 13.6226C46.2057 12.1325 43.539 12.2077 41.7139 12.7274C40.7096 13.0134 40.1318 13.3809 40.0801 13.5962L40.0694 13.6405L40.0286 13.6609C39.2545 14.0479 39.1038 15.2699 39.1137 16.2269C39.1326 18.0299 39.7552 20.0777 40.106 20.2441C40.1246 20.2529 40.1293 20.2495 40.1373 20.2428C40.6655 19.8207 41.3099 20.2748 41.5931 20.5217C41.7601 19.4011 42.2979 18.3687 43.1206 17.5895C43.9432 16.8104 45.0033 16.3293 46.1315 16.2232C46.5 16.1876 46.8655 16.1263 47.2254 16.0398C47.4079 15.9926 47.5956 15.9679 47.7842 15.9665C48.1088 15.9615 48.4271 16.0561 48.6964 16.2373Z" fill="#2F2E41"/>
<path d="M78.9504 60.1904L88.3251 50.6722L90.795 43.0595L86.8204 41.4521C84.8514 43.4379 82.8246 49.5169 82.8246 49.5169L76.426 58.1032C76.3749 58.1222 76.324 58.1422 76.2738 58.166C75.9792 58.305 75.7254 58.5177 75.5371 58.7835C75.3487 59.0492 75.2321 59.3591 75.1986 59.6831C75.165 60.0071 75.2156 60.3342 75.3454 60.633C75.4752 60.9317 75.68 61.1919 75.9398 61.3884C76.1996 61.5849 76.5057 61.7111 76.8285 61.7548C77.1514 61.7984 77.48 61.7581 77.7827 61.6376C78.0854 61.5172 78.3519 61.3207 78.5564 61.0672C78.761 60.8137 78.8967 60.5117 78.9504 60.1904Z" fill="#FFB8B8"/>
<path d="M85.7361 42.3228L90.7626 43.7766L90.7813 43.773C92.6289 43.4143 94.0904 40.3444 94.9911 37.8322C95.2874 37.0035 95.258 36.0933 94.9088 35.2856C94.5596 34.4778 93.9166 33.8328 93.11 33.4808C92.5131 33.2252 91.8567 33.1416 91.2149 33.2395C90.573 33.3373 89.9713 33.6127 89.4778 34.0346L86.9717 36.1922L85.7361 42.3228Z" fill="#474BA1"/>
<path d="M81.4355 106.867L78.7322 106.867L77.4463 96.4424L81.4358 96.4426L81.4355 106.867Z" fill="#FFB8B8"/>
<path d="M82.1252 105.985L81.3643 105.985L78.3937 104.777L76.8015 105.985H76.8013C75.9016 105.985 75.0387 106.342 74.4024 106.979C73.7662 107.615 73.4088 108.477 73.4087 109.377V109.487L82.125 109.488L82.1252 105.985Z" fill="#2F2E41"/>
<path d="M93.4301 106.867L90.7268 106.867L89.4409 96.4424L93.4306 96.4426L93.4301 106.867Z" fill="#FFB8B8"/>
<path d="M94.1198 105.985L93.3589 105.985L90.3883 104.777L88.7962 105.985H88.796C87.8962 105.985 87.0333 106.342 86.3971 106.979C85.7608 107.615 85.4034 108.477 85.4033 109.377V109.487L94.1196 109.488L94.1198 105.985Z" fill="#2F2E41"/>
<path d="M97.552 61.9635C97.552 61.9635 97.8677 65.7506 97.0785 69.38C96.2894 73.0094 96.2894 83.2309 96.2894 83.2309L94.5533 103.149L89.3451 102.676L87.9247 69.38L82.8743 80.5837L83.3478 82.1617L82.7171 82.5562C82.7171 82.5562 83.1899 85.6333 82.8743 85.6333C82.5586 85.6333 81.7695 86.1067 81.7695 86.1067L82.4008 102.36L77.0348 102.202L75.1409 79.3213L77.1926 66.224L77.3504 63.6993L78.0606 63.7285L78.4223 62.6736L79.0865 60.8589L97.552 61.9635Z" fill="#2F2E41"/>
<path d="M97.8248 62.7586L97.8529 62.7192C99.3552 60.6163 97.0958 55.5632 96.755 54.8307L98.1903 54.365L97.8671 51.6181L97.714 50.3935L98.8109 49.2967L98.814 49.2693L99.4453 43.7464L100.363 40.0781C100.709 38.6913 100.68 37.2376 100.278 35.866C99.876 34.4944 99.1165 33.2544 98.077 32.2733L95.9553 30.2732L93.3768 26.4585H89.2186L87.7929 29.1511C86.4106 29.4705 85.1842 30.2647 84.3273 31.3952C83.4704 32.5257 83.0374 33.921 83.1036 35.3379L83.4267 42.3998L82.1617 51.1924L82.161 52.7837L80.7374 54.3655L81.0483 55.9195L79.9648 56.3838L79.4864 58.6157C79.2884 58.8769 77.9817 60.619 77.9817 61.0953C77.9817 61.1668 78.0345 61.2359 78.1478 61.3126C79.0383 61.9155 83.9605 63.1447 86.139 62.2731C88.4595 61.3454 97.6839 62.7371 97.7768 62.7513L97.8248 62.7586Z" fill="#474BA1"/>
<path d="M90.7606 25.2274C93.802 25.2274 96.2676 22.7623 96.2676 19.7214C96.2676 16.6805 93.802 14.2153 90.7606 14.2153C87.7192 14.2153 85.2537 16.6805 85.2537 19.7214C85.2537 22.7623 87.7192 25.2274 90.7606 25.2274Z" fill="#FFB8B8"/>
<path d="M90.2331 25.3164C91.0859 25.3077 91.9365 25.2262 92.7755 25.0727C93.6061 24.8814 95.4386 23.4646 95.938 22.6276C96.3091 22.0057 96.5318 21.0438 96.6533 20.3465C96.8174 19.4235 96.7858 18.4764 96.5605 17.5665C96.3353 16.6565 95.9213 15.8041 95.3456 15.0642C95.1237 14.7543 94.8221 14.5101 94.4727 14.3574C94.4418 14.3463 94.41 14.3365 94.378 14.3282C93.8716 14.2089 93.4124 13.941 93.0594 13.5588C92.9909 13.4814 92.9169 13.4091 92.838 13.3424C92.442 13.0254 91.9766 12.8066 91.4798 12.7039C90.6773 12.5112 89.5293 12.7526 88.0678 13.4222C87.3335 13.7586 86.5186 13.6648 85.8904 13.5454C85.8552 13.5395 85.8191 13.543 85.7856 13.5554C85.7522 13.5679 85.7225 13.5889 85.6997 13.6163C85.4404 13.8726 85.0937 14.0213 84.7292 14.0324C84.5062 14.048 84.2799 14.3631 84.0072 14.7735C83.9453 14.8667 83.8731 14.9754 83.8207 15.0417L83.8102 14.9171L83.6875 15.0596C83.4946 15.2835 83.3616 15.5526 83.3007 15.8417C83.2399 16.1309 83.2532 16.4307 83.3394 16.7134C83.4257 16.996 83.5821 17.2522 83.794 17.4582C84.006 17.6641 84.2666 17.8131 84.5516 17.8912C84.7778 17.9451 85.0088 17.9758 85.2412 17.9829C85.3821 17.9919 85.5278 18.0012 85.6677 18.0218C86.1172 18.1018 86.5383 18.297 86.8899 18.5883C87.2414 18.8796 87.5114 19.257 87.6735 19.6838C87.7118 19.7825 87.7722 19.871 87.8501 19.9425C87.9281 20.0141 88.0214 20.0668 88.1229 20.0966C88.2244 20.1264 88.3315 20.1325 88.4357 20.1143C88.5399 20.0962 88.6386 20.0543 88.7241 19.992C88.8663 19.8753 89.0347 19.7947 89.2148 19.757C89.3949 19.7194 89.5815 19.7259 89.7585 19.776C89.9125 19.8565 90.0341 19.9874 90.103 20.1469C90.1863 20.3244 90.3206 20.4731 90.4887 20.574C91.0621 20.8511 91.1344 22.1422 90.959 23.2246C90.79 24.2679 90.4221 25.029 90.0646 25.0754C89.7893 25.1111 89.7582 25.1315 89.7395 25.1808L89.7228 25.225L89.7548 25.265C89.9087 25.3164 90.0718 25.3339 90.2331 25.3164Z" fill="#2F2E41"/>
<path d="M85.6643 42.9118L83.0173 39.5396C80.321 40.2819 75.5367 44.5456 75.5367 44.5456L65.7115 48.8087C65.3835 48.7536 65.0469 48.7858 64.7354 48.9022C64.4239 49.0185 64.1485 49.2149 63.937 49.4714C63.7255 49.728 63.5854 50.0358 63.5307 50.3637C63.476 50.6916 63.5086 51.0282 63.6254 51.3395C63.7421 51.6508 63.9388 51.9259 64.1957 52.137C64.4526 52.3482 64.7605 52.4879 65.0886 52.5423C65.4166 52.5966 65.7532 52.5635 66.0645 52.4464C66.3757 52.3293 66.6506 52.1323 66.8614 51.8752L79.7323 48.2851L85.6643 42.9118Z" fill="#FFB8B8"/>
<path d="M85.0299 43.6829L89.2066 39.0277L89.4385 35.7291C89.4816 35.0814 89.3427 34.4345 89.0375 33.8616C88.7322 33.2886 88.2728 32.8124 87.7111 32.4869C86.9467 32.0507 86.0451 31.9209 85.1887 32.1239C84.3323 32.3269 83.5849 32.8474 83.0977 33.5803C81.6219 35.8042 80.0342 38.8109 80.8512 40.5061L80.8594 40.5233L85.0299 43.6829Z" fill="#474BA1"/>
<path d="M46.5339 61.1801L35.6785 55.6215C34.9063 55.2261 34.6506 54.1773 35.1083 53.2837L42.1863 39.4658C42.6441 38.5721 43.6447 38.1668 44.4168 38.5621L55.2722 44.1208C56.0444 44.5162 56.3001 45.5649 55.8424 46.4586L48.7644 60.2764C48.3066 61.1701 47.306 61.5755 46.5339 61.1801Z" fill="#E6E6E6"/>
<path d="M44.679 58.6248L37.3037 54.8482C36.5806 54.4779 36.341 53.4957 36.7697 52.6587L42.6499 41.1791C43.0787 40.3421 44.0158 39.9625 44.739 40.3328L53.6468 44.8942C54.37 45.2645 54.6095 46.2466 54.1808 47.0836L50.9863 53.32C49.0767 57.0481 47.9002 60.2743 44.679 58.6248Z" fill="white"/>
<path d="M48.3256 52.3558L41.7931 49.0107C41.7132 48.9538 41.6565 48.8701 41.6332 48.7748C41.61 48.6795 41.6218 48.5791 41.6665 48.4918C41.7112 48.4045 41.7858 48.3363 41.8767 48.2994C41.9676 48.2626 42.0687 48.2597 42.1616 48.2913L48.6941 51.6363C48.774 51.6932 48.8307 51.7769 48.854 51.8722C48.8772 51.9675 48.8654 52.0679 48.8207 52.1552C48.776 52.2425 48.7013 52.3108 48.6104 52.3476C48.5196 52.3844 48.4184 52.3873 48.3256 52.3558Z" fill="#474BA1"/>
<path d="M42.5558 51.1955L41.065 50.4321C40.9852 50.3752 40.9284 50.2915 40.9052 50.1962C40.882 50.1009 40.8938 50.0005 40.9385 49.9132C40.9832 49.8259 41.0578 49.7576 41.1487 49.7208C41.2396 49.684 41.3407 49.6811 41.4336 49.7126L42.9244 50.476C43.0042 50.5329 43.061 50.6167 43.0842 50.7119C43.1074 50.8072 43.0956 50.9076 43.0509 50.9949C43.0062 51.0822 42.9316 51.1505 42.8407 51.1873C42.7498 51.2241 42.6487 51.2271 42.5558 51.1955Z" fill="#474BA1"/>
<path d="M44.4679 53.9689L40.3368 51.8535C40.2569 51.7966 40.2001 51.7129 40.1769 51.6176C40.1537 51.5223 40.1655 51.4219 40.2102 51.3346C40.2549 51.2473 40.3295 51.179 40.4204 51.1422C40.5113 51.1054 40.6124 51.1025 40.7053 51.134L44.8365 53.2494C44.9163 53.3063 44.9731 53.3901 44.9963 53.4853C45.0195 53.5806 45.0077 53.6811 44.963 53.7683C44.9183 53.8556 44.8437 53.9239 44.7528 53.9607C44.6619 53.9976 44.5608 54.0005 44.4679 53.9689Z" fill="#474BA1"/>
<path d="M50.9108 47.3094L44.3783 43.9643C44.2984 43.9074 44.2417 43.8237 44.2184 43.7284C44.1952 43.6332 44.207 43.5327 44.2517 43.4454C44.2964 43.3582 44.371 43.2899 44.4619 43.253C44.5528 43.2162 44.6539 43.2133 44.7468 43.2449L51.2793 46.5899C51.3592 46.6468 51.4159 46.7305 51.4392 46.8258C51.4624 46.9211 51.4506 47.0215 51.4059 47.1088C51.3612 47.1961 51.2866 47.2644 51.1957 47.3012C51.1048 47.338 51.0036 47.3409 50.9108 47.3094Z" fill="#474BA1"/>
<path d="M45.1408 46.1491L43.65 45.3857C43.5701 45.3288 43.5134 45.2451 43.4901 45.1498C43.4669 45.0546 43.4787 44.9541 43.5234 44.8668C43.5681 44.7795 43.6428 44.7113 43.7337 44.6744C43.8246 44.6376 43.9257 44.6347 44.0185 44.6662L45.5093 45.4296C45.5892 45.4865 45.6459 45.5703 45.6692 45.6655C45.6924 45.7608 45.6806 45.8612 45.6359 45.9485C45.5912 46.0358 45.5166 46.1041 45.4257 46.1409C45.3348 46.1778 45.2336 46.1807 45.1408 46.1491Z" fill="#474BA1"/>
<path d="M47.0531 48.9225L42.922 46.8071C42.8421 46.7502 42.7854 46.6665 42.7621 46.5712C42.7389 46.4759 42.7507 46.3755 42.7954 46.2882C42.8401 46.2009 42.9147 46.1326 43.0056 46.0958C43.0965 46.059 43.1976 46.0561 43.2905 46.0876L47.4217 48.203C47.5015 48.2599 47.5583 48.3437 47.5815 48.439C47.6047 48.5342 47.5929 48.6347 47.5482 48.722C47.5035 48.8092 47.4289 48.8775 47.338 48.9144C47.2471 48.9512 47.146 48.9541 47.0531 48.9225Z" fill="#474BA1"/>
<path d="M37.5386 49.1504L35.0862 40.0221L41.6396 38.7817L41.2872 45.0473L49.8978 53.912C50.3537 53.8934 50.8051 54.0077 51.1971 54.2412C51.589 54.4746 51.9046 54.8171 52.1052 55.2267C52.3059 55.6364 52.383 56.0956 52.3272 56.5483C52.2714 57.001 52.085 57.4278 51.7908 57.7764C51.4966 58.1251 51.1073 58.3806 50.6704 58.5119C50.2335 58.6431 49.7678 58.6445 49.3301 58.5157C48.8924 58.3869 48.5017 58.1335 48.2055 57.7866C47.9094 57.4396 47.7206 57.0139 47.6622 56.5615L37.5386 49.1504Z" fill="#A0616A"/>
<path d="M34.4154 29.7874C32.1909 31.5432 35.046 41.3644 35.046 41.3644C35.4881 40.8794 36.0018 48.048 36.5421 47.8039C38.0777 47.1101 40.8923 44.7179 41.9774 44.9129C42.5979 45.0244 41.9478 40.1713 41.9478 40.1713C41.9478 40.1713 41.8282 37.3886 41.6035 33.8113C41.5587 32.7988 41.2584 31.8141 40.7306 30.9488C40.2028 30.0835 39.4646 29.3658 38.5848 28.8625C38.5848 28.8625 36.6399 28.0315 34.4154 29.7874Z" fill="#3F3D56"/>
<path d="M71.4285 69.4113L65.5048 66.6146C65.3781 66.5551 65.2665 66.4677 65.1785 66.359C65.0904 66.2502 65.0281 66.1229 64.9962 65.9867C64.9641 65.8534 64.9626 65.7145 64.9918 65.5806C65.021 65.4467 65.0802 65.3211 65.1649 65.2132C66.8809 63.0206 68.0591 60.4564 68.6052 57.7264C68.6465 57.5173 68.759 57.3291 68.9236 57.1937C69.0881 57.0583 69.2946 56.9841 69.5077 56.9839C72.5289 56.9942 74.7868 58.0971 76.2186 60.2617C76.2941 60.3743 76.3441 60.502 76.3652 60.6359C76.3862 60.7699 76.3778 60.9067 76.3406 61.0371C75.5115 63.894 74.25 66.6073 72.5998 69.0826C72.4774 69.2697 72.2912 69.4061 72.0758 69.4666C71.8605 69.527 71.6305 69.5074 71.4285 69.4113Z" fill="#E6E6E6"/>
<path d="M73.1712 65.4886L68.6418 63.3502C68.5291 63.297 68.4422 63.2012 68.4001 63.0839C68.3581 62.9666 68.3643 62.8374 68.4175 62.7248C68.4708 62.6121 68.5665 62.5252 68.6839 62.4831C68.8012 62.4411 68.9304 62.4473 69.043 62.5005L73.5724 64.639C73.6282 64.6653 73.6783 64.7024 73.7197 64.7481C73.7612 64.7938 73.7933 64.8472 73.8141 64.9053C73.8349 64.9633 73.8441 65.0249 73.8411 65.0866C73.8381 65.1482 73.823 65.2086 73.7967 65.2644C73.7703 65.3202 73.7332 65.3702 73.6875 65.4117C73.6418 65.4532 73.5884 65.4852 73.5303 65.506C73.4723 65.5269 73.4106 65.536 73.349 65.533C73.2874 65.53 73.227 65.515 73.1712 65.4886Z" fill="white"/>
<path d="M73.8748 63.9989L69.3454 61.8604C69.2327 61.8072 69.1458 61.7114 69.1037 61.5941C69.0617 61.4769 69.068 61.3477 69.1212 61.235C69.1744 61.1223 69.2702 61.0354 69.3875 60.9934C69.5048 60.9513 69.634 60.9576 69.7467 61.0108L74.276 63.1493C74.3887 63.2025 74.4756 63.2982 74.5177 63.4155C74.5598 63.5328 74.5535 63.662 74.5003 63.7747C74.4471 63.8873 74.3513 63.9742 74.234 64.0163C74.1167 64.0583 73.9874 64.0521 73.8748 63.9989Z" fill="white"/>
<path d="M67.8227 17.2312L67.401 17.2774C65.5212 9.89141 61.8774 4.77446 56.8633 2.47966C50.4892 -0.437432 42.6073 1.52145 34.6696 7.99555C26.6915 14.5027 19.6288 24.7812 14.7826 36.9381L14.3735 36.7509C19.241 24.5409 26.3399 14.2128 34.3627 7.66943C42.4257 1.09303 50.4685 -0.880218 57.0094 2.11326C62.1673 4.47381 65.9064 9.70154 67.8227 17.2312Z" fill="#F2F2F2"/>
<path d="M21.3073 26.8504C20.2047 29.1728 19.156 31.5787 18.1902 34.0014C12.6325 47.943 9.81614 62.1811 10.0463 75.1772L9.61192 75.1308C9.38154 62.0865 12.206 47.7993 17.7811 33.8142C18.7496 31.3847 19.8014 28.972 20.9071 26.6431L21.3073 26.8504Z" fill="#F2F2F2"/>
<path d="M21.0988 36.43C19.9962 38.7524 18.9475 41.1583 17.9817 43.581C12.424 57.5226 9.60764 71.7607 9.83779 84.7568L9.40343 84.7104C9.17304 71.666 11.9975 57.3789 17.5726 43.3938C18.5411 40.9643 19.5929 38.5516 20.6986 36.2227L21.0988 36.43Z" fill="#F2F2F2"/>
<path d="M9.42443 39.9138C9.90459 39.1922 9.62038 38.1593 8.78964 37.6067C7.9589 37.0541 6.8962 37.1911 6.41604 37.9127C5.93588 38.6343 6.22008 39.6672 7.05082 40.2198C7.88156 40.7724 8.94427 40.6354 9.42443 39.9138Z" fill="#CCCCCC"/>
<path d="M111.669 65.9729C112.149 65.2513 111.865 64.2184 111.034 63.6658C110.204 63.1132 109.141 63.2502 108.661 63.9718C108.181 64.6934 108.465 65.7263 109.295 66.2789C110.126 66.8315 111.189 66.6945 111.669 65.9729Z" fill="#CCCCCC"/>
</g>
<defs>
<clipPath id="clip0_419_332">
<rect width="134.45" height="109.029" fill="white" transform="translate(0 0.75)"/>
</clipPath>
</defs>
</svg>
