<svg width="145" height="107" viewBox="0 0 145 107" fill="none" xmlns="http://www.w3.org/2000/svg">
<g clip-path="url(#clip0_419_238)">
<path d="M73.4544 101.543C73.313 101.549 73.1731 101.512 73.0536 101.436C72.934 101.361 72.8406 101.25 72.786 101.119C72.7315 100.989 72.7183 100.845 72.7484 100.707C72.7785 100.568 72.8504 100.443 72.9543 100.347C72.9717 100.277 72.9841 100.228 73.0016 100.159C72.8663 99.815 72.6315 99.5196 72.3273 99.3103C72.023 99.101 71.6632 98.9873 71.294 98.9838C70.9247 98.9804 70.5628 99.0872 70.2547 99.2908C69.9466 99.4943 69.7063 99.7852 69.5645 100.126C68.7467 102.04 67.6883 104.022 68.2147 106.131C64.7377 98.7616 65.9201 89.5953 71.0586 83.2935C72.4789 82.5111 73.6301 81.121 73.9298 79.5069C73.2269 79.7451 72.3505 79.1733 72.879 78.4329C73.1081 78.1499 73.3394 77.8691 73.5685 77.5861C70.8983 74.7424 67.7168 79.2117 70.6559 83.0499C69.6944 84.2554 68.8616 85.558 68.171 86.9367C68.3305 85.4728 68.1401 83.9919 67.6156 82.6159C67.0841 81.3335 66.0877 80.2535 65.2103 79.1449C64.1435 77.7941 61.9478 78.4173 61.8042 80.1315C62.7888 80.4551 62.9167 81.8772 61.7905 82.0719C62.0855 85.2608 64.1688 88.1914 67.0382 89.59C65.9786 92.5631 65.5648 95.728 65.8245 98.8737C65.318 95.1973 61.3717 94.3052 58.6134 92.844C58.4379 92.7314 58.2334 92.6724 58.0248 92.6741C57.8163 92.6757 57.6127 92.7381 57.439 92.8534C57.2653 92.9688 57.1289 93.1323 57.0465 93.3238C56.964 93.5154 56.9391 93.7268 56.9748 93.9323C57.3555 94.0871 57.7199 94.2793 58.0626 94.5062C58.2232 94.6141 58.3464 94.7691 58.4155 94.9499C58.4845 95.1307 58.496 95.3284 58.4483 95.5159C58.4005 95.7034 58.296 95.8716 58.1489 95.9973C58.0019 96.1231 57.8195 96.2003 57.6269 96.2184C59.0172 99.6594 62.6118 101.97 66.3037 101.957C66.6585 103.499 67.1726 105 67.8376 106.435H73.3171C73.3367 106.374 73.3544 106.311 73.3721 106.25C72.8649 106.282 72.3557 106.252 71.8558 106.16C73.1977 104.571 74.2355 103.761 73.4545 101.543L73.4544 101.543Z" fill="#F2F2F2"/>
<path d="M102.306 3.33455H54.9839C54.5749 3.33455 54.1826 3.17206 53.8934 2.88283C53.6041 2.5936 53.4417 2.20131 53.4417 1.79228C53.4417 1.38324 53.6041 0.990955 53.8934 0.701722C54.1826 0.412489 54.5749 0.25 54.9839 0.25H102.306C102.715 0.25 103.107 0.412489 103.397 0.701722C103.686 0.990955 103.848 1.38324 103.848 1.79228C103.848 2.20131 103.686 2.5936 103.397 2.88283C103.107 3.17206 102.715 3.33455 102.306 3.33455Z" fill="#E6E6E6"/>
<path d="M102.306 11.5465H54.9839C54.5749 11.5465 54.1826 11.384 53.8934 11.0947C53.6041 10.8055 53.4417 10.4132 53.4417 10.0042C53.4417 9.59515 53.6041 9.20287 53.8934 8.91364C54.1826 8.6244 54.5749 8.46191 54.9839 8.46191H102.306C102.715 8.46191 103.107 8.6244 103.397 8.91364C103.686 9.20287 103.848 9.59515 103.848 10.0042C103.848 10.4132 103.686 10.8055 103.397 11.0947C103.107 11.384 102.715 11.5465 102.306 11.5465Z" fill="#E6E6E6"/>
<path d="M104.374 61.1584L83.7449 61.6909C83.3146 61.7015 82.8977 61.541 82.5857 61.2447C82.2736 60.9483 82.0918 60.5402 82.0802 60.11L81.8152 49.8427C81.8046 49.4124 81.965 48.9955 82.2614 48.6835C82.5578 48.3714 82.9659 48.1896 83.3961 48.178L104.025 47.6455C104.455 47.6349 104.872 47.7954 105.184 48.0917C105.496 48.3881 105.678 48.7962 105.689 49.2264L105.954 59.4937C105.965 59.924 105.805 60.3409 105.508 60.653C105.212 60.965 104.804 61.1468 104.374 61.1584Z" fill="white"/>
<path d="M104.379 61.3494L83.7499 61.8819C83.269 61.8937 82.8031 61.7144 82.4543 61.3831C82.1055 61.0519 81.9023 60.5958 81.8894 60.115L81.6243 49.8477C81.6125 49.3668 81.7918 48.9009 82.1231 48.5521C82.4543 48.2033 82.9104 48.0001 83.3912 47.9872L104.02 47.4547C104.501 47.4428 104.967 47.6221 105.316 47.9534C105.664 48.2846 105.867 48.7407 105.88 49.2215L106.145 59.4889C106.157 59.9697 105.978 60.4357 105.647 60.7844C105.315 61.1332 104.859 61.3364 104.379 61.3494ZM83.4011 48.369C83.0214 48.3792 82.6614 48.5396 82.3999 48.815C82.1384 49.0903 81.9968 49.4582 82.0061 49.8378L82.2712 60.1051C82.2814 60.4848 82.4418 60.8448 82.7172 61.1063C82.9925 61.3678 83.3604 61.5094 83.74 61.5L104.369 60.9675C104.748 60.9573 105.108 60.7969 105.37 60.5216C105.631 60.2462 105.773 59.8784 105.764 59.4987L105.499 49.2314C105.488 48.8518 105.328 48.4917 105.053 48.2302C104.777 47.9687 104.409 47.8271 104.03 47.8365L83.4011 48.369Z" fill="#CCCCCC"/>
<path d="M91.761 58.3792C91.6439 58.3819 91.528 58.3549 91.4241 58.3007C91.313 58.2445 91.2194 58.159 91.1533 58.0535C91.0872 57.9481 91.051 57.8266 91.0488 57.7021L90.9009 51.972C90.8977 51.8478 90.9279 51.7249 90.9884 51.6164C91.0489 51.5078 91.1374 51.4175 91.2448 51.3548C91.3521 51.2922 91.4743 51.2595 91.5986 51.2603C91.7229 51.261 91.8447 51.2951 91.9513 51.359L97.4608 54.0837C97.561 54.1438 97.6444 54.2282 97.7033 54.3291C97.7621 54.43 97.7946 54.5441 97.7976 54.6609C97.8006 54.7777 97.7741 54.8934 97.7205 54.9972C97.6669 55.101 97.588 55.1895 97.491 55.2547L92.1294 58.2601C92.0205 58.3341 91.8926 58.3755 91.761 58.3792Z" fill="#474BA1"/>
<path d="M78.6451 37.1096C83.6024 37.1096 87.6211 33.091 87.6211 28.1337C87.6211 23.1764 83.6024 19.1577 78.6451 19.1577C73.6879 19.1577 69.6692 23.1764 69.6692 28.1337C69.6692 33.091 73.6879 37.1096 78.6451 37.1096Z" fill="#E6E6E6"/>
<path d="M78.6451 32.9624C78.5438 32.9624 78.4467 32.9222 78.3751 32.8506C78.3034 32.7789 78.2632 32.6818 78.2632 32.5805V23.7413C78.2632 23.64 78.3034 23.5429 78.3751 23.4712C78.4467 23.3996 78.5438 23.3594 78.6451 23.3594C78.7464 23.3594 78.8436 23.3996 78.9152 23.4712C78.9869 23.5429 79.0271 23.64 79.0271 23.7413V32.5805C79.0271 32.6818 78.9868 32.7789 78.9152 32.8506C78.8436 32.9222 78.7464 32.9624 78.6451 32.9624Z" fill="white"/>
<path d="M83.0645 28.5427H74.2255C74.1242 28.5427 74.027 28.5025 73.9554 28.4308C73.8838 28.3592 73.8435 28.2621 73.8435 28.1608C73.8435 28.0595 73.8838 27.9623 73.9554 27.8907C74.027 27.8191 74.1242 27.7788 74.2255 27.7788H83.0645C83.1658 27.7788 83.263 27.8191 83.3346 27.8907C83.4062 27.9623 83.4465 28.0595 83.4465 28.1608C83.4465 28.2621 83.4062 28.3592 83.3346 28.4308C83.263 28.5025 83.1658 28.5427 83.0645 28.5427Z" fill="white"/>
<path d="M45.6059 57.1626H30.3276V39.9746H45.6059C43.9373 42.218 44.7629 49.6723 45.6059 57.1626Z" fill="#FFB6B6"/>
<path d="M45.6944 101.021H48.4445L49.7529 90.4131L45.6938 90.4133L45.6944 101.021Z" fill="#FFB6B6"/>
<path d="M49.3597 101.269V99.4043L48.6367 99.4485L45.6936 99.6228L45.0125 99.6647L44.4918 105.909L44.4639 106.244H46.4166L46.4794 105.911L46.763 104.4L47.4953 105.911L47.6557 106.244H52.8328C53.1408 106.242 53.4357 106.118 53.6533 105.9C53.871 105.682 53.9938 105.387 53.9951 105.079C54.2136 104.058 49.9083 101.852 49.3597 101.269Z" fill="#2F2E41"/>
<path d="M13.4751 98.0276L15.8671 99.3847L22.2398 90.8042L18.7096 88.8013L13.4751 98.0276Z" fill="#FFB6B6"/>
<path d="M16.5421 100.051L17.4603 98.4304L16.8141 98.112L14.1663 96.8125L13.5525 96.5103L10.5374 100.925L9.82837 101.962L10.6304 102.417L11.5254 102.926L12.7389 101.494L12.6041 103.538L16.8327 105.939H16.835L17.107 106.093C17.3756 106.244 17.6934 106.283 17.9906 106.201C18.2879 106.119 18.5403 105.922 18.6924 105.653C19.3852 104.872 16.7304 100.832 16.5421 100.051Z" fill="#2F2E41"/>
<path d="M29.7547 48.9505C26.0695 51.3926 24.713 74.8548 25.6704 74.4717L16.9841 90.6599L29.3478 96.202L37.4772 67.9752L38.832 78.3627L37.0255 94.8472L45.0172 96.7798L50.5449 96.385C49.1085 76.7358 47.814 56.0119 44.842 47.9956L29.7547 48.9505Z" fill="#2F2E41"/>
<path d="M41.204 21.098C41.204 21.098 37.1126 20.5688 35.8661 21.0675C35.4226 21.2449 34.979 22.874 34.1473 23.3592C32.6413 24.2378 31.4124 24.0897 31.4124 24.0897C32.0006 31.5796 31.9686 37.3899 28.4493 48.2395C28.446 48.5141 28.5133 48.7849 28.6446 49.026C28.776 49.2671 28.9671 49.4705 29.1995 49.6166C29.432 49.7627 29.6981 49.8467 29.9723 49.8606C30.2465 49.8744 30.5197 49.8176 30.7657 49.6956L45.224 48.5683L46.938 39.5466L49.1817 34.8098L46.2748 28.8265L46.0255 25.3362L42.3593 23.5502L41.204 21.098Z" fill="#474BA1"/>
<path d="M43.0102 19.4425L43.0146 19.4429C43.2498 19.4632 43.4835 19.3893 43.6642 19.2373C43.8449 19.0853 43.9578 18.8678 43.9781 18.6326L44.4087 13.6833C44.4867 12.7967 44.3856 11.9034 44.1115 11.0567C43.5742 9.40398 42.4199 8.02239 40.8891 7.19981C40.0986 6.77621 39.2306 6.51704 38.3374 6.43791C34.6829 6.11419 33.3533 6.88369 31.1342 12.4688C28.9151 18.0539 30.7029 17.4256 30.7029 17.4256C30.6924 17.5449 30.7061 17.665 30.743 17.7789C30.8155 18.0011 30.971 18.1868 31.1771 18.297C31.2829 18.3535 31.3989 18.3881 31.5183 18.3988C35.8433 19.4676 40.2076 20.594 43.0109 19.4426L43.0102 19.4425Z" fill="#2F2E41"/>
<path d="M34.9186 11.1472C34.3819 11.9527 34.096 12.8992 34.0969 13.8671C34.0979 14.835 34.3856 15.781 34.9238 16.5855C35.462 17.3899 36.2266 18.0169 37.1209 18.3871C38.0152 18.7573 38.9992 18.8542 39.9485 18.6655C40.577 18.5427 41.1748 18.2964 41.7074 17.9408C42.2399 17.5853 42.6966 17.1276 43.0511 16.5943C43.5866 15.789 43.8717 14.8432 43.8705 13.8762C43.8693 12.9091 43.5817 11.9641 43.0442 11.1602C42.5066 10.3563 41.743 9.72962 40.8498 9.35909C39.9565 8.98855 38.9736 8.89078 38.0248 9.07811C37.3959 9.20026 36.7974 9.44607 36.2642 9.80128C35.731 10.1565 35.2736 10.6139 34.9186 11.1472Z" fill="#FFB6B6"/>
<path d="M45.9435 14.2225C46.0051 13.5213 45.9252 12.8148 45.7084 12.1451C45.6482 10.5037 45.1621 9.01987 43.1601 9.09558C42.5389 8.76297 41.8572 8.55871 41.1554 8.49495L40.1653 8.4038C40.1541 8.40277 40.143 8.40178 40.1319 8.40081C38.7465 8.28114 37.3703 8.71671 36.3061 9.6117C35.2419 10.5067 34.5768 11.7878 34.4571 13.1732L34.4485 13.2723L36.5433 13.4631L37.4315 11.529L37.4004 13.5415L38.4824 13.6405L38.9303 12.6647L38.9148 13.6794C40.5296 15.0827 42.9645 15.1406 45.9339 14.3218L45.9435 14.2225Z" fill="#2F2E41"/>
<path d="M39.278 18.9607C39.2969 19.1235 39.2697 19.2884 39.1995 19.4366C39.1642 19.5125 39.1184 19.583 39.0634 19.6462C39.0164 19.7 38.9632 19.748 38.9049 19.7894C38.7323 19.9112 38.5219 19.9676 38.3115 19.9484C38.2983 19.9471 38.2852 19.9456 38.2722 19.9439C38.2591 19.9421 38.2461 19.9401 38.2331 19.9377C38.2199 19.9355 38.2069 19.9328 38.1939 19.9299C38.181 19.9269 38.168 19.9236 38.1549 19.9202L37.4229 19.7203L36.5889 17.4425L36.4145 19.4472L33.0859 18.5443L33.826 10.0371L39.4926 10.5575L39.3383 10.7081C38.8256 11.2138 38.4624 11.8511 38.2886 12.5499C38.1161 13.2581 38.0663 13.9905 38.1413 14.7154C38.2117 15.4485 38.3523 16.1731 38.5612 16.8793C38.7431 17.5047 38.9609 18.119 39.2135 18.7193C39.2462 18.7964 39.2679 18.8776 39.278 18.9607Z" fill="#2F2E41"/>
<path d="M29.6127 77.0872L25.4505 52.0571C25.3668 51.5504 25.4875 51.0312 25.7862 50.6134C26.0849 50.1956 26.5371 49.9133 27.0436 49.8285L45.9469 46.6851C46.4536 46.6014 46.9728 46.7222 47.3906 47.0208C47.8084 47.3195 48.0907 47.7717 48.1755 48.2782L52.3377 73.3084C52.4213 73.8151 52.3006 74.3343 52.0019 74.7521C51.7033 75.1698 51.2511 75.4521 50.7446 75.5369L31.8413 78.6803C31.3346 78.764 30.8154 78.6433 30.3976 78.3446C29.9798 78.0459 29.6975 77.5937 29.6127 77.0872Z" fill="#E6E6E6"/>
<path d="M29.8056 69.2859L27.1297 53.1942C27.0514 52.7197 27.1644 52.2334 27.4442 51.8422C27.7239 51.4509 28.1474 51.1865 28.6217 51.1071L44.8676 48.4056C45.3421 48.3273 45.8284 48.4403 46.2197 48.72C46.611 48.9997 46.8753 49.4232 46.9548 49.8976L50.6586 72.171C50.7369 72.6456 50.6238 73.1319 50.3441 73.5231C50.0644 73.9144 49.6409 74.1788 49.1665 74.2582L39.1025 75.9317C36.9887 76.2808 34.8228 75.7771 33.0799 74.5312C31.337 73.2853 30.1594 71.3989 29.8056 69.2859Z" fill="white"/>
<path d="M30.5066 57.2468C30.43 56.7831 30.5405 56.308 30.8139 55.9256C31.0872 55.5432 31.501 55.2849 31.9646 55.2073L43.2343 53.3333C43.6979 53.2567 44.1729 53.3672 44.555 53.6407C44.9371 53.9141 45.195 54.328 45.2721 54.7915C45.3492 55.255 45.2391 55.7302 44.966 56.1126C44.693 56.4949 44.2793 56.7533 43.8159 56.8308L32.5462 58.7048C32.0825 58.7814 31.6073 58.6709 31.2249 58.3976C30.8426 58.1242 30.5842 57.7104 30.5066 57.2468Z" fill="#474BA1"/>
<path d="M31.4114 62.6873C31.3348 62.2236 31.4453 61.7484 31.7187 61.366C31.992 60.9837 32.4058 60.7254 32.8694 60.6478L44.1391 58.7738C44.6027 58.6971 45.0777 58.8076 45.4599 59.0811C45.842 59.3545 46.1 59.7684 46.177 60.232C46.2541 60.6955 46.144 61.1707 45.8709 61.5531C45.5978 61.9354 45.1841 62.1938 44.7207 62.2713L33.451 64.1453C32.9872 64.2218 32.5121 64.1114 32.1297 63.838C31.7473 63.5647 31.489 63.1509 31.4114 62.6873Z" fill="#474BA1"/>
<path d="M32.316 68.1277C32.2394 67.664 32.3499 67.1888 32.6232 66.8065C32.8965 66.4241 33.3104 66.1658 33.7739 66.0882L45.0436 64.2142C45.5072 64.1375 45.9822 64.2481 46.3643 64.5215C46.7464 64.795 47.0044 65.2089 47.0814 65.6724C47.1585 66.1359 47.0484 66.611 46.7754 66.9934C46.5023 67.3758 46.0886 67.6341 45.6252 67.7117L34.3555 69.5857C33.8918 69.6622 33.4166 69.5518 33.0342 69.2784C32.6519 69.0051 32.3936 68.5913 32.316 68.1277Z" fill="#474BA1"/>
<path d="M27.3645 54.6698C27.566 54.4588 27.7193 54.2066 27.8137 53.9305C27.9082 53.6544 27.9416 53.3611 27.9115 53.0709C27.8815 52.7807 27.7887 52.5005 27.6397 52.2496C27.4907 51.9987 27.289 51.7832 27.0485 51.618L29.0323 41.7747L26.4446 40.5566L24.1739 52.2648C23.9259 52.6903 23.8425 53.192 23.9397 53.6748C24.0368 54.1576 24.3077 54.588 24.701 54.8845C25.0942 55.1809 25.5826 55.3228 26.0735 55.2833C26.5644 55.2437 27.0237 55.0254 27.3645 54.6698Z" fill="#FFB6B6"/>
<path d="M31.4735 24.123C31.4735 24.123 26.9248 25.8348 26.6755 28.3278C26.4262 30.8209 25.8533 33.043 26.1026 34.0402C26.3519 35.0374 25.2455 36.1706 25.7441 36.9186C26.2427 37.6665 25.047 37.9124 25.5456 39.159C26.0442 40.4055 26.2935 40.6548 26.0442 40.9041C25.7949 41.1534 24.9802 46.2765 24.9802 46.2765L28.5213 47.0624L33.1414 36.5549L31.4735 24.123Z" fill="#474BA1"/>
<path d="M47.9962 54.6698C47.7947 54.4588 47.6414 54.2066 47.5469 53.9305C47.4525 53.6544 47.4191 53.3611 47.4492 53.0709C47.4792 52.7807 47.572 52.5005 47.721 52.2496C47.87 51.9987 48.0717 51.7832 48.3121 51.618L46.3284 41.7747L48.9161 40.5566L51.1868 52.2648C51.4348 52.6903 51.5182 53.192 51.421 53.6748C51.3239 54.1576 51.053 54.588 50.6597 54.8845C50.2664 55.1809 49.7781 55.3228 49.2872 55.2833C48.7963 55.2437 48.3369 55.0254 47.9962 54.6698Z" fill="#FFB6B6"/>
<path d="M45.0281 25.0869C45.5015 25.1133 45.9593 25.266 46.3538 25.529C46.7484 25.792 47.0653 26.1559 47.2718 26.5827C48.0197 28.0786 50.8205 37.5075 50.5712 38.2555C50.3219 39.0034 51.4517 41.4187 50.9531 41.9174C50.4545 42.416 49.9983 45.3216 49.9983 45.3216L46.3649 46.1556L45.1927 35.0591L45.0281 25.0869Z" fill="#474BA1"/>
<path d="M130.869 59.2322C130.797 58.9886 130.779 58.7322 130.817 58.481C130.854 58.2297 130.947 57.9898 131.087 57.7782C131.228 57.5665 131.413 57.3882 131.63 57.2558C131.846 57.1234 132.09 57.0402 132.342 57.012L133.706 50.9893L135.929 53.3039L134.293 58.6684C134.312 59.0956 134.174 59.5151 133.904 59.8474C133.635 60.1796 133.253 60.4015 132.831 60.471C132.409 60.5405 131.976 60.4528 131.615 60.2245C131.253 59.9962 130.988 59.6431 130.869 59.2322Z" fill="#A0616A"/>
<path d="M134.146 22.1279L134.256 22.6456L139.949 40.063L136.119 55.5844L132.985 54.1187L133.724 40.3574C128.098 32.846 126.443 30.1273 126.934 22.3095L134.146 22.1279Z" fill="#E6E6E6"/>
<path d="M129.295 103.672L126.494 103.671L125.161 92.8682L129.295 92.8685L129.295 103.672Z" fill="#A0616A"/>
<path d="M129.393 106.593L120.78 106.593V106.484C120.78 105.595 121.134 104.743 121.762 104.114C122.391 103.485 123.244 103.132 124.133 103.132H124.133L125.706 101.938L128.641 103.132L129.393 103.132L129.393 106.593Z" fill="#2F2E41"/>
<path d="M113.903 103.672L111.102 103.671L109.77 92.8682L113.903 92.8685L113.903 103.672Z" fill="#A0616A"/>
<path d="M114.001 106.593L105.389 106.593V106.484C105.389 105.595 105.742 104.743 106.371 104.114C106.999 103.485 107.852 103.132 108.741 103.132H108.741L110.314 101.938L113.25 103.132L114.002 103.132L114.001 106.593Z" fill="#2F2E41"/>
<path d="M132.701 54.1178C132.701 54.1178 133.805 56.7417 132.701 61.0227C131.596 65.3038 131.32 76.0755 131.32 76.0755L129.549 100.264H124.864L124.691 82.8424L122.343 64.0609L117.648 81.8757C117.648 81.8757 115.852 95.1332 115.162 95.6856C114.471 96.238 114.157 100.097 114.157 100.097C112.738 100.309 110.579 99.7545 109.305 99.093C109.83 98.8661 112.055 54.771 112.124 54.1178C112.393 51.5632 132.701 54.1178 132.701 54.1178Z" fill="#2F2E41"/>
<path d="M94.3228 49.4794C94.5759 49.5004 94.8306 49.4656 95.0689 49.3775C95.3072 49.2894 95.5233 49.1502 95.7019 48.9696C95.8805 48.7889 96.0174 48.5713 96.1028 48.3321C96.1883 48.0928 96.2202 47.8378 96.1964 47.5849L101.815 45.0229L99.0964 43.3184L94.1775 46.0125C93.7553 46.0807 93.3727 46.3013 93.1023 46.6327C92.8318 46.9641 92.6924 47.3831 92.7103 47.8104C92.7282 48.2378 92.9022 48.6437 93.1994 48.9513C93.4966 49.2589 93.8963 49.4468 94.3228 49.4794Z" fill="#A0616A"/>
<path d="M116.198 28.1122L118.105 28.8495L112.759 39.4813L98.7581 47.1979L97.7083 43.9007L108.32 35.1075C112.031 24.3095 114.261 19.4849 116.94 19.551L116.198 28.1122Z" fill="#E6E6E6"/>
<path d="M114.494 22.0109C114.738 21.1448 115.27 20.3881 116.003 19.8671C116.737 19.3461 117.627 19.0922 118.524 19.1478C118.539 19.1488 118.553 19.1498 118.567 19.1509C119.76 19.2415 121.287 16.347 122.868 16.4701C123.981 16.5568 125.121 16.6466 126.19 16.7326C127.143 16.8092 128.04 19.8943 128.812 19.96C130.271 20.0842 130.615 20.1801 130.719 20.2149C131.134 20.353 132.727 20.462 133.731 21.6331C134.18 22.1574 135.967 27.1198 134.862 32.3676C133.757 37.6153 132.494 44.4132 132.494 44.4132C132.494 44.4132 133.598 47.6965 133.046 49.0775C132.493 50.4585 133.598 51.4252 133.598 51.9776C133.598 52.53 133.322 55.292 133.322 55.292C133.322 55.292 113.649 57.3799 111.917 55.292C111.86 55.2235 114.215 43.7772 113.24 34.5754C112.704 29.5242 113.702 24.7922 114.494 22.0109Z" fill="#E6E6E6"/>
<path d="M124.444 15.8688C127.583 15.8688 130.128 13.3242 130.128 10.1854C130.128 7.04651 127.583 4.50195 124.444 4.50195C121.305 4.50195 118.761 7.04651 118.761 10.1854C118.761 13.3242 121.305 15.8688 124.444 15.8688Z" fill="#A0616A"/>
<path d="M120.547 3.62358C120.954 3.61148 120.815 2.84369 121.143 2.59877C121.144 2.6062 121.146 2.61361 121.148 2.62102C121.191 2.78687 121.286 2.93452 121.419 3.04223C121.552 3.14994 121.717 3.21202 121.888 3.21932C122.059 3.22663 122.228 3.17877 122.37 3.0828C122.512 2.98683 122.619 2.84781 122.676 2.68623C122.731 2.49931 122.829 2.3282 122.964 2.18729C123.098 2.04637 123.264 1.93978 123.448 1.87646C123.469 2.58811 124.007 3.20575 124.649 3.51312C125.291 3.82049 126.024 3.87164 126.735 3.88217C127.447 3.89268 128.169 3.86885 128.86 4.04306C129.55 4.21725 130.222 4.62682 130.516 5.27481C130.811 5.92279 130.601 6.81492 129.956 7.11651C130.456 7.11917 130.88 7.53144 131.052 8.00024C131.225 8.46905 131.199 8.98486 131.161 9.48302C131.02 11.3208 130.678 13.2994 129.34 14.5669C128.32 15.5329 126.86 15.922 125.455 15.9164C124.05 15.9107 124.297 15.7816 122.939 15.4231C122.939 15.4231 121.648 11.7212 121.973 11.3571C122.298 10.9929 122.568 10.5269 122.509 10.0423C122.451 9.55764 121.93 9.12349 121.478 9.30797C121.554 9.11368 121.611 9.07667 121.647 9.08654C121.624 9.03132 121.604 8.97495 121.587 8.91765C121.502 8.62566 121.349 8.35803 121.14 8.13676C120.932 7.91549 120.673 7.7469 120.387 7.64485C120.097 7.55093 119.786 7.54782 119.495 7.63596C119.204 7.72409 118.947 7.89923 118.758 8.13786C117.271 6.74304 118.193 3.69348 120.547 3.62358Z" fill="#2F2E41"/>
<path d="M144.136 106.771L1.14178 106.83C1.08158 106.83 1.02391 106.806 0.98141 106.763C0.938908 106.72 0.915039 106.663 0.915039 106.602C0.915039 106.542 0.938908 106.485 0.98141 106.442C1.02391 106.399 1.08158 106.375 1.14178 106.375L144.136 106.316C144.197 106.316 144.255 106.34 144.297 106.383C144.34 106.426 144.364 106.483 144.364 106.544C144.364 106.604 144.34 106.662 144.297 106.705C144.255 106.747 144.197 106.771 144.136 106.771Z" fill="#CACACA"/>
</g>
<defs>
<clipPath id="clip0_419_238">
<rect width="143.449" height="106.58" fill="white" transform="translate(0.914307 0.25)"/>
</clipPath>
</defs>
</svg>
