<svg width="136" height="97" viewBox="0 0 136 97" fill="none" xmlns="http://www.w3.org/2000/svg">
<g clip-path="url(#clip0_419_223)">
<path d="M65.391 96.3227L65.2505 96.3523C63.897 89.9221 59.1706 85.5616 59.123 85.5183L59.2197 85.4121C59.2676 85.4557 64.0277 89.8458 65.391 96.3227Z" fill="white"/>
<path d="M62.3682 67.3092C61.3253 67.3057 60.2869 67.1714 59.2774 66.9094L59.0784 66.8543L58.8939 66.7618C52.221 63.4162 46.5914 58.997 42.1615 53.6271C38.4945 49.1558 35.6355 44.0792 33.7132 38.6254C31.4143 32.0959 30.3083 25.2062 30.448 18.2853C30.4509 18.14 30.4532 18.0278 30.4532 17.9505C30.4532 14.5862 32.3207 11.6343 35.2108 10.43C37.4227 9.50839 57.5061 1.25936 58.9572 0.663345C61.6899 -0.705944 64.6053 0.436943 65.0718 0.636803C66.1183 1.06466 84.6841 8.65831 88.6962 10.5687C92.831 12.5377 93.9342 16.0749 93.9342 17.8545C93.9342 25.9114 92.5389 33.4411 89.7869 40.2347C87.5644 45.7336 84.4144 50.8101 80.4741 55.2431C72.8719 63.7984 65.2676 66.8312 65.1942 66.858C64.2854 67.1707 63.3292 67.3233 62.3682 67.3092ZM60.5799 62.8795C61.2392 63.0273 62.757 63.249 63.7463 62.8881C65.0031 62.4298 71.3678 59.1294 77.3154 52.4363C85.5329 43.1887 89.7025 31.5637 89.7086 17.8842C89.6939 17.6071 89.4971 15.6304 86.8795 14.384C82.9452 12.5105 63.6476 4.61975 63.4531 4.54022L63.3998 4.51761C62.9954 4.34815 61.7084 3.99119 60.8212 4.4561L60.6435 4.53891C60.4284 4.62726 39.1097 13.3833 36.8361 14.3306C35.2456 14.9933 34.6789 16.6351 34.6789 17.9505C34.6789 18.0467 34.6764 18.1865 34.6729 18.3672C34.4912 27.7273 36.6572 50.7593 60.5799 62.8795Z" fill="#3F3D56"/>
<path d="M59.8862 2.58426C59.8862 2.58426 38.3737 11.4197 36.0688 12.3801C33.7639 13.3405 32.6114 15.6454 32.6114 17.9503C32.6114 20.2552 30.8827 50.3312 59.8862 64.8728C59.8862 64.8728 62.5185 65.6012 64.5156 64.8728C66.5128 64.1445 91.8668 51.8517 91.8668 17.8543C91.8668 17.8543 91.8668 14.3969 87.8332 12.4762C83.7996 10.5554 64.2978 2.58426 64.2978 2.58426C64.2978 2.58426 61.9029 1.52785 59.8862 2.58426Z" fill="#474BA1"/>
<path opacity="0.1" d="M73.0091 9.49902V56.6332C73.0091 56.6332 51.3046 46.1855 51.4966 18.7187L73.0091 9.49902Z" fill="#162734"/>
<path d="M58.0776 43.3752L51.1636 34.4853L55.1844 31.3581L58.4581 35.5672L69.5174 23.8926L73.2157 27.3965L58.0776 43.3752Z" fill="white"/>
</g>
<defs>
<clipPath id="clip0_419_223">
<rect width="135.818" height="96.8384" fill="white" transform="translate(0.0913086)"/>
</clipPath>
</defs>
</svg>
