<svg width="145" height="110" viewBox="0 0 145 110" fill="none" xmlns="http://www.w3.org/2000/svg">
<g clip-path="url(#clip0_422_216)">
<path d="M36.4018 73.562H35.8872V79.7237H36.4018V73.562Z" fill="#F2F2F2"/>
<path d="M38.5177 73.7332H33.5996C33.1583 73.7332 32.7993 73.375 32.7993 72.9347V71.1086C32.7993 70.6683 33.1583 70.3101 33.5996 70.3101H38.5177C38.959 70.3101 39.318 70.6683 39.318 71.1086V72.9347C39.318 73.375 38.959 73.7332 38.5177 73.7332ZM35.4299 70.6524C34.1665 70.6524 33.1424 71.6742 33.1424 72.9347C33.1424 73.1867 33.3471 73.3909 33.5997 73.3909H38.5177C38.7702 73.3909 38.9749 73.1867 38.9749 72.9347V71.1086C38.9749 70.8566 38.7702 70.6524 38.5177 70.6524H35.4299Z" fill="#F2F2F2"/>
<path d="M65.6997 88.4258H65.1851V94.5875H65.6997V88.4258Z" fill="#F2F2F2"/>
<path d="M67.8155 88.597H62.8975C62.4562 88.597 62.0972 88.2388 62.0972 87.7985V85.9724C62.0972 85.532 62.4562 85.1738 62.8975 85.1738H67.8155C68.2568 85.1738 68.6159 85.532 68.6159 85.9724V87.7985C68.6159 88.2388 68.2568 88.597 67.8155 88.597ZM64.7277 85.5161C63.4644 85.5161 62.4403 86.538 62.4403 87.7985C62.4403 88.0504 62.645 88.2547 62.8975 88.2547H67.8155C68.0681 88.2547 68.2728 88.0504 68.2728 87.7985V85.9724C68.2728 85.7204 68.068 85.5161 67.8155 85.5161H64.7277Z" fill="#F2F2F2"/>
<path d="M118.803 107.156L116.822 107.156L115.88 99.5322L118.804 99.5324L118.803 107.156Z" fill="#FFB6B6"/>
<path d="M118.873 109.218L112.781 109.217V109.141C112.782 107.834 113.843 106.775 115.153 106.775L116.265 105.933L118.341 106.775L118.873 106.775L118.873 109.218Z" fill="#2F2E41"/>
<path d="M109.033 107.156L107.052 107.156L106.11 99.5322L109.034 99.5324L109.033 107.156Z" fill="#FFB6B6"/>
<path d="M109.103 109.218L103.011 109.217V109.141C103.011 107.834 104.073 106.775 105.382 106.775L106.495 105.933L108.571 106.775L109.103 106.775L109.103 109.218Z" fill="#2F2E41"/>
<path d="M110.08 64.0184L123.514 63.4092L124.857 71.2078L124.003 73.8886L123.27 76.9349L121.072 87.658L119.24 103.499H115.352L115.27 88.4501L116.183 87.2071V86.3781L115.559 75.4117L111.484 86.013L111.851 87.4752L110.752 90.156L109.432 103.499H105.797L105.012 85.2819L107.943 74.0714V71.9998L108.431 71.025L110.08 64.0184Z" fill="#2F2E41"/>
<path d="M118.934 38.9775H114.037L113.439 41.6583L108.676 43.8517L110.385 56.2807L109.408 60.3019V61.886L108.92 63.3482L108.676 68.0137L125.407 69.1972L124.308 66.7601L124.674 65.2979L124.308 64.4449L123.331 57.2555L124.064 43.3643L120.278 42.0239L118.934 38.9775Z" fill="#3F3D56"/>
<path d="M93.646 62.0664L97.1535 59.1558L99.0995 60.923L95.2814 63.8687C95.2537 64.0131 95.2049 64.156 95.1326 64.2929C94.7397 65.0375 93.8162 65.3232 93.07 64.9311C92.3238 64.5391 92.0374 63.6177 92.4303 62.8732C92.6809 62.3983 93.1474 62.1113 93.646 62.0664Z" fill="#FFB6B6"/>
<path d="M111.779 44.8575L109.915 44.109C109.337 43.7566 108.594 43.8324 108.102 44.2971C107.165 45.1823 105.784 46.657 105.661 47.7597C105.661 47.7597 101.212 52.3551 101.154 53.2233C101.096 54.0915 94.9939 60.6493 94.9939 60.6493L97.8364 62.7573L109.335 51.791L110.37 46.2356C110.857 45.5275 112.514 45.3053 111.779 44.8575Z" fill="#3F3D56"/>
<path d="M116.664 38.5509C118.976 38.5509 120.85 36.6806 120.85 34.3734C120.85 32.0662 118.976 30.1958 116.664 30.1958C114.351 30.1958 112.477 32.0662 112.477 34.3734C112.477 36.6806 114.351 38.5509 116.664 38.5509Z" fill="#FFB6B6"/>
<path d="M121.139 36.3479C121.043 36.229 121.003 36.0804 120.906 35.9615C120.911 36.1572 120.909 36.3554 120.943 36.5461C120.948 36.5759 120.953 36.613 120.961 36.6601C120.963 36.67 120.966 36.6749 120.968 36.6849C120.968 36.6898 120.971 36.6948 120.971 36.6997C120.675 37.2571 120.337 37.6014 120.094 37.6981C119.493 37.9384 118.681 38.144 118.629 38.1836C118.686 38.0944 120.817 34.7699 120.094 34.5296C119.362 34.2868 119.424 34.7402 119.424 34.7402C119.09 33.3756 118.42 32.8142 117.408 33.068C116.087 33.0209 114.793 32.6196 114.123 34.0044C114.046 33.6848 113.929 33.3727 113.793 33.0878C113.765 33.3925 113.765 33.7319 113.666 34.0292C112.727 34.8459 112.165 34.7066 111.809 34.1778C111.809 34.0713 111.811 33.9623 111.819 33.8558C111.826 33.7839 111.834 33.717 111.846 33.6477C111.886 33.447 112.042 33.3306 112.119 33.1547C111.948 33.2488 111.769 33.338 111.615 33.4569C111.593 33.4743 111.561 33.4966 111.523 33.5238C111.426 32.8921 111.094 30.774 112.156 31.4825C113.219 32.191 112.646 30.7517 112.646 30.7517H113.919C113.919 30.7517 114.138 30.4644 114.525 30.1597C114.595 30.1795 114.659 30.1993 114.724 30.2241C114.915 30.2984 114.299 29.6072 114.461 29.7137C114.398 29.5304 115.044 30.2042 114.955 30.0308C114.94 30.0011 114.984 29.518 114.957 29.466C115.667 29.0374 119.074 29.0353 120.171 29.9615C121.552 31.1265 119.804 30.5321 121.559 32.8227C122.259 33.7363 122.211 34.5941 121.139 36.3479Z" fill="#2F2E41"/>
<path d="M86.4187 109.73H16.1259C14.3537 109.73 12.9119 108.291 12.9119 106.523V29.6995C12.9119 27.9313 14.3537 26.4927 16.1259 26.4927H86.4187C88.1909 26.4927 89.6327 27.9313 89.6327 29.6995V106.523C89.6327 108.291 88.1909 109.73 86.4187 109.73ZM34.2451 26.9881C22.7373 26.9881 13.4084 36.296 13.4084 47.7779V106.523C13.4084 108.02 14.6251 109.234 16.126 109.234H86.4187C87.9195 109.234 89.1362 108.021 89.1362 106.523V29.6995C89.1362 28.202 87.9195 26.9881 86.4187 26.9881L34.2451 26.9881Z" fill="#F2F2F2"/>
<path d="M127.883 109.73H97.0676C95.2954 109.73 93.8535 108.291 93.8535 106.523V29.6995C93.8535 27.9313 95.2954 26.4927 97.0676 26.4927H127.883C129.655 26.4927 131.097 27.9313 131.097 29.6995V106.523C131.097 108.291 129.655 109.73 127.883 109.73ZM97.0676 26.9881C95.5691 26.9881 94.3501 28.2044 94.3501 29.6995V106.523C94.3501 108.018 95.5691 109.234 97.0676 109.234H127.883C129.381 109.234 130.6 108.018 130.6 106.523V29.6995C130.6 28.2044 129.381 26.9881 127.883 26.9881L97.0676 26.9881Z" fill="#F2F2F2"/>
<path d="M141.75 0.72998H3.25256C1.4599 0.72998 0 2.18412 0 3.97276V50.2511C0 51.9655 1.34321 53.3775 3.03407 53.4865C3.10608 53.4939 3.17809 53.4964 3.25256 53.4964H12.9656V53.001H3.25256C3.17809 53.001 3.10608 52.9985 3.03407 52.991C1.61636 52.8796 0.496578 51.6929 0.496578 50.2511V3.97276C0.496575 2.45665 1.73304 1.22544 3.25256 1.22544H141.75C143.269 1.22544 144.503 2.45665 144.503 3.97276V50.2511C144.503 51.7673 143.269 53.001 141.75 53.001H130.654V53.4964H141.75C143.543 53.4964 145 52.0397 145 50.2511V3.97276C145 2.18412 143.543 0.72998 141.75 0.72998Z" fill="#F2F2F2"/>
<path d="M48.1176 78.8588H42.7571C42.7571 78.7969 42.7621 78.735 42.772 78.6681C42.911 77.6177 44.1425 76.0694 44.8824 75.7473C45.0239 75.6879 45.1481 75.6705 45.2424 75.7127C45.3641 75.7647 45.4386 75.9158 45.4386 76.1858C45.4386 76.8225 45.8408 77.147 46.3349 77.3873C46.2133 77.5756 46.0568 77.7267 45.8507 77.7762C46.2605 77.863 46.8911 77.9744 47.3827 77.8531C47.7452 78.0413 48.0307 78.2767 48.1002 78.6681C48.1127 78.7275 48.1176 78.792 48.1176 78.8588Z" fill="#474BA1"/>
<path d="M45.0252 75.7747C45.2529 75.7747 45.4374 75.5906 45.4374 75.3634C45.4374 75.1363 45.2529 74.9521 45.0252 74.9521C44.7976 74.9521 44.613 75.1363 44.613 75.3634C44.613 75.5906 44.7976 75.7747 45.0252 75.7747Z" fill="#3F3D56"/>
<path d="M45.4375 81.8885C47.2201 81.8885 48.6652 80.4466 48.6652 78.668H42.2097C42.2097 80.4466 43.6548 81.8885 45.4375 81.8885Z" fill="#E6E6E6"/>
<path d="M61.5251 88.768H56.1646C56.1646 88.7061 56.1695 88.6442 56.1795 88.5773C56.2415 88.1066 56.5246 87.5368 56.8821 87.0215C57.0534 87.0438 57.2074 87.1033 57.3241 87.2222C57.2694 87.0711 57.2049 86.8902 57.1205 86.7019C57.5103 86.2065 57.9522 85.8027 58.2899 85.6565C58.4314 85.5971 58.5556 85.5797 58.6499 85.6219C58.7716 85.6739 58.8461 85.825 58.8461 86.095C58.8461 87.6656 61.2843 87.3287 61.5077 88.5773C61.5201 88.6367 61.5251 88.7011 61.5251 88.768Z" fill="#474BA1"/>
<path d="M58.4327 85.6839C58.6604 85.6839 58.8449 85.4997 58.8449 85.2726C58.8449 85.0455 58.6604 84.8613 58.4327 84.8613C58.2051 84.8613 58.0205 85.0455 58.0205 85.2726C58.0205 85.4997 58.2051 85.6839 58.4327 85.6839Z" fill="#3F3D56"/>
<path d="M58.8449 91.7976C60.6276 91.7976 62.0727 90.3558 62.0727 88.5771H55.6172C55.6172 90.3558 57.0623 91.7976 58.8449 91.7976Z" fill="#E6E6E6"/>
<path d="M58.2843 75.5117C56.9484 75.5117 55.8655 76.5922 55.8655 77.9251H60.7032C60.7032 76.5922 59.6202 75.5117 58.2843 75.5117Z" fill="#474BA1"/>
<path d="M60.7031 77.1819H55.8665C55.8665 75.8491 56.949 74.769 58.2848 74.769C58.6845 74.769 59.0619 74.8656 59.3921 75.0366C59.379 75.067 59.3656 75.0977 59.3518 75.1283C59.2478 75.3577 59.4131 75.6214 59.6653 75.6127C59.7476 75.6099 59.8291 75.6056 59.9089 75.5999L60.2174 75.7305C60.5216 76.1356 60.7031 76.6379 60.7031 77.1819Z" fill="#474BA1"/>
<path d="M58.3483 80.6502C60.131 80.6502 61.5761 79.2083 61.5761 77.4297H55.1206C55.1206 79.2083 56.5657 80.6502 58.3483 80.6502Z" fill="#E6E6E6"/>
<path d="M109.68 53.7114C108.344 53.7114 107.261 54.792 107.261 56.1248H112.099C112.099 54.792 111.016 53.7114 109.68 53.7114Z" fill="#474BA1"/>
<path d="M112.099 55.3816H107.262C107.262 54.0488 108.345 52.9688 109.681 52.9688C110.08 52.9688 110.458 53.0653 110.788 53.2363C110.775 53.2667 110.761 53.2974 110.748 53.328C110.644 53.5575 110.809 53.8211 111.061 53.8124C111.143 53.8096 111.225 53.8053 111.305 53.7996L111.613 53.9302C111.917 54.3353 112.099 54.8376 112.099 55.3816Z" fill="#474BA1"/>
<path d="M109.744 58.8499C111.527 58.8499 112.972 57.408 112.972 55.6294H106.516C106.516 57.408 107.961 58.8499 109.744 58.8499Z" fill="#E6E6E6"/>
<path d="M34.813 48.0547C36.522 48.0547 37.9075 46.7015 37.9075 45.0322C37.9075 43.363 36.522 42.0098 34.813 42.0098C33.104 42.0098 31.7185 43.363 31.7185 45.0322C31.7185 46.7015 33.104 48.0547 34.813 48.0547Z" fill="#474BA1"/>
<path d="M59.6202 43.9982H42.9638C42.3924 43.9982 41.9275 43.5343 41.9275 42.9642C41.9275 42.394 42.3924 41.9302 42.9638 41.9302H59.6202C60.1916 41.9302 60.6565 42.394 60.6565 42.9642C60.6565 43.5343 60.1916 43.9982 59.6202 43.9982Z" fill="#F2F2F2"/>
<path d="M72.6189 47.4977H42.9638C42.3924 47.4977 41.9275 47.0338 41.9275 46.4637C41.9275 45.8936 42.3924 45.4297 42.9638 45.4297H72.6189C73.1903 45.4297 73.6552 45.8936 73.6552 46.4637C73.6552 47.0338 73.1903 47.4977 72.6189 47.4977Z" fill="#F2F2F2"/>
<path d="M59.6199 55.1461H42.9636C42.3922 55.1461 41.9272 54.6823 41.9272 54.1121C41.9272 53.542 42.3922 53.0781 42.9636 53.0781H59.6199C60.1914 53.0781 60.6563 53.542 60.6563 54.1121C60.6563 54.6823 60.1914 55.1461 59.6199 55.1461Z" fill="#F2F2F2"/>
<path d="M72.6186 58.6456H42.9636C42.3922 58.6456 41.9272 58.1818 41.9272 57.6116C41.9272 57.0415 42.3922 56.5776 42.9636 56.5776H72.6186C73.19 56.5776 73.655 57.0415 73.655 57.6116C73.655 58.1818 73.1901 58.6456 72.6186 58.6456Z" fill="#F2F2F2"/>
<path d="M33.8198 16.5933C35.5289 16.5933 36.9143 15.2401 36.9143 13.5708C36.9143 11.9015 35.5289 10.5483 33.8198 10.5483C32.1108 10.5483 30.7253 11.9015 30.7253 13.5708C30.7253 15.2401 32.1108 16.5933 33.8198 16.5933Z" fill="#474BA1"/>
<path d="M58.627 12.5368H41.9707C41.3992 12.5368 40.9343 12.0729 40.9343 11.5028C40.9343 10.9326 41.3992 10.4688 41.9707 10.4688H58.627C59.1984 10.4688 59.6634 10.9326 59.6634 11.5028C59.6634 12.0729 59.1984 12.5368 58.627 12.5368Z" fill="#F2F2F2"/>
<path d="M71.6257 16.0363H41.9707C41.3992 16.0363 40.9343 15.5724 40.9343 15.0023C40.9343 14.4321 41.3992 13.9683 41.9707 13.9683H71.6257C72.1971 13.9683 72.662 14.4321 72.662 15.0023C72.662 15.5724 72.1971 16.0363 71.6257 16.0363Z" fill="#F2F2F2"/>
<path d="M71.1199 109.709L70.6463 109.56L73.8575 99.401C74.1291 98.5415 71.6654 110.113 71.1314 109.387C70.5974 108.66 72.0863 95.7616 71.1831 95.7616H31.4468C30.5973 95.7616 31.1954 108.481 30.6605 109.139C30.1256 109.797 28.5275 98.3093 28.7033 99.1385L30.6551 108.345L30.1693 108.447L28.2175 99.241C28.0106 98.265 28.253 97.2607 28.8826 96.4857C29.5122 95.7106 30.4468 95.2661 31.4468 95.2661H71.1831C72.2462 95.2661 73.2164 95.7567 73.8451 96.6122C74.4737 97.4675 74.6508 98.5384 74.331 99.55L71.1199 109.709Z" fill="#F2F2F2"/>
<path d="M58.0923 92.4356L58.5715 92.5867L66.7427 95.1581C67.7557 95.4752 68.8283 95.2994 69.6874 94.6726C70.544 94.0458 71.0356 93.0772 71.0356 92.0169L71.0356 82.3456C71.0356 81.3472 70.5912 80.4158 69.814 79.7865C69.0369 79.1573 68.0288 78.917 67.0506 79.1226L58.3183 80.9657L57.8242 81.0698L57.8292 81.0921L57.9285 81.5553L58.0079 81.538L58.4946 81.4364L67.1549 79.6082C67.9866 79.4323 68.8407 79.6379 69.5012 80.1705C70.1616 80.7056 70.539 81.4983 70.539 82.3456L70.539 92.0169C70.539 92.9187 70.1219 93.7411 69.3919 94.2738C68.6644 94.8064 67.7532 94.955 66.8917 94.685L58.6187 92.0838L58.1246 91.9277L58.0923 92.4356Z" fill="#F2F2F2"/>
<path d="M45.7426 81.9277L45.2634 81.7766L37.0922 79.2052C36.0792 78.8881 35.0066 79.064 34.1475 79.6907C33.291 80.3175 32.7993 81.2861 32.7993 82.3464L32.7993 92.0178C32.7993 93.0161 33.2437 93.9476 34.0209 94.5768C34.798 95.206 35.8061 95.4463 36.7843 95.2407L45.5166 93.3976L46.0107 93.2936L46.0057 93.2713L45.9064 92.808L45.827 92.8254L45.3403 92.9269L36.68 94.7552C35.8483 94.9311 34.9942 94.7254 34.3337 94.1928C33.6733 93.6577 33.2959 92.865 33.2959 92.0178L33.2959 82.3464C33.2959 81.4447 33.713 80.6222 34.443 80.0896C35.1705 79.557 36.0817 79.4083 36.9433 79.6783L45.2162 82.2795L45.7103 82.4356L45.7426 81.9277Z" fill="#F2F2F2"/>
<path d="M110.402 56.7222L114.862 55.7671L115.765 58.2334L111.013 59.0757C110.921 59.1909 110.811 59.2949 110.684 59.3827C109.989 59.8604 109.038 59.6861 108.56 58.9934C108.081 58.3007 108.256 57.3519 108.95 56.8742C109.393 56.5695 109.939 56.5311 110.402 56.7222Z" fill="#FFB6B6"/>
<path d="M123.863 43.5322C124.924 43.2877 126.002 43.8839 126.348 44.9145C126.892 46.5302 127.464 48.8827 126.873 50.4315L126.384 54.4527L125.774 56.646V56.9603L112.706 58.8394L112.095 55.6712L120.522 54.3308L120.766 52.8686L120.994 52.6412L121.307 50.9798L122.246 45.2526C122.385 44.405 123.024 43.7253 123.863 43.5322Z" fill="#3F3D56"/>
<path d="M45.3734 87.1548C44.0375 87.1548 42.9546 88.2353 42.9546 89.5682H47.7923C47.7923 88.2353 46.7093 87.1548 45.3734 87.1548Z" fill="#474BA1"/>
<path d="M47.7922 88.825H42.9556C42.9556 87.4922 44.0381 86.4121 45.3739 86.4121C45.7736 86.4121 46.151 86.5087 46.4812 86.6796C46.4681 86.7101 46.4547 86.7408 46.4409 86.7714C46.3369 87.0008 46.5022 87.2645 46.7544 87.2558C46.8367 87.253 46.9182 87.2487 46.998 87.2429L47.3066 87.3735C47.6107 87.7787 47.7922 88.2809 47.7922 88.825Z" fill="#474BA1"/>
<path d="M45.4375 92.2932C47.2201 92.2932 48.6652 90.8514 48.6652 89.0728H42.2097C42.2097 90.8514 43.6548 92.2932 45.4375 92.2932Z" fill="#E6E6E6"/>
<path d="M43.9957 88.9593C44.2233 88.9593 44.4079 88.7751 44.4079 88.548C44.4079 88.3208 44.2233 88.1367 43.9957 88.1367C43.768 88.1367 43.5835 88.3208 43.5835 88.548C43.5835 88.7751 43.768 88.9593 43.9957 88.9593Z" fill="#3F3D56"/>
<path d="M60.3827 77.3162C60.6103 77.3162 60.7949 77.1321 60.7949 76.9049C60.7949 76.6778 60.6103 76.4937 60.3827 76.4937C60.155 76.4937 59.9705 76.6778 59.9705 76.9049C59.9705 77.1321 60.155 77.3162 60.3827 77.3162Z" fill="#3F3D56"/>
<path d="M62.3456 91.1196H54.897V92.3583H62.3456V91.1196Z" fill="#F2F2F2"/>
<path d="M49.1862 91.8628H41.7375V93.1014H49.1862V91.8628Z" fill="#F2F2F2"/>
<path d="M49.1862 81.458H41.7375V82.6967H49.1862V81.458Z" fill="#F2F2F2"/>
<path d="M62.3456 80.4673H54.897V81.7059H62.3456V80.4673Z" fill="#F2F2F2"/>
<path d="M34.7259 58.549C36.1686 58.549 37.3381 57.3821 37.3381 55.9427C37.3381 54.5033 36.1686 53.3364 34.7259 53.3364C33.2833 53.3364 32.1138 54.5033 32.1138 55.9427C32.1138 57.3821 33.2833 58.549 34.7259 58.549Z" fill="white"/>
<path d="M34.7259 58.7273C33.187 58.7273 31.9351 57.4782 31.9351 55.9427C31.9351 54.4073 33.187 53.1582 34.7259 53.1582C36.2648 53.1582 37.5167 54.4073 37.5167 55.9427C37.5167 57.4782 36.2648 58.7273 34.7259 58.7273ZM34.7259 53.442C33.3439 53.442 32.2195 54.5638 32.2195 55.9427C32.2195 57.3216 33.3439 58.4435 34.7259 58.4435C36.1079 58.4435 37.2322 57.3216 37.2322 55.9427C37.2322 54.5638 36.1079 53.442 34.7259 53.442Z" fill="#3F3D56"/>
<path d="M34.3697 57.2993C34.2783 57.2993 34.1922 57.2565 34.1372 57.1833L33.4246 56.2353C33.3283 56.1072 33.3543 55.9255 33.4827 55.8294C33.6111 55.7333 33.7932 55.7592 33.8895 55.8874L34.3557 56.5076L35.5532 54.7155C35.6422 54.5822 35.8227 54.5464 35.9561 54.6351C36.0897 54.7239 36.1257 54.9039 36.0367 55.0371L34.6114 57.1702C34.5591 57.2485 34.472 57.2966 34.3777 57.2992L34.3697 57.2993Z" fill="#474BA1"/>
<path d="M58.7493 72.0366C59.4088 70.5514 59.5679 68.8733 59.2134 67.2886C58.8681 65.7449 58.0055 64.3414 56.811 63.3055C56.1443 62.7272 55.3783 62.2643 54.552 61.9516C54.3543 61.8767 54.1985 62.1699 54.3984 62.2455C55.8046 62.7777 57.0265 63.7462 57.8656 64.9917C58.7258 66.2683 59.1329 67.7986 59.0588 69.3328C59.0163 70.2101 58.8113 71.0802 58.4547 71.8833C58.3684 72.0776 58.6625 72.2321 58.7493 72.0366Z" fill="#E6E6E6"/>
<path d="M55.5189 60.9642L52.6701 60.8336C52.5665 60.8289 52.4799 60.9539 52.5175 61.049L53.6703 63.9645C53.7483 64.1618 54.0659 64.0639 53.9873 63.8651L52.8345 60.9496L52.6819 61.165L55.5308 61.2956C55.7447 61.3054 55.7311 60.974 55.5189 60.9642Z" fill="#E6E6E6"/>
<path d="M102.157 20.1791C101.849 18.584 101.02 17.1153 99.8226 16.0157C98.6563 14.9445 97.1452 14.283 95.5719 14.1123C94.6936 14.0169 93.7998 14.0728 92.9424 14.2864C92.7372 14.3375 92.7769 14.6669 92.9843 14.6153C94.4435 14.2517 96.0008 14.3516 97.4022 14.8967C98.8387 15.4554 100.048 16.4804 100.865 17.7825C101.331 18.5272 101.661 19.3585 101.827 20.2209C101.867 20.4297 102.197 20.3891 102.157 20.1791Z" fill="#E6E6E6"/>
<path d="M93.1719 12.9249L90.7576 14.4394C90.6698 14.4945 90.6702 14.6465 90.7555 14.7032L93.3695 16.4412C93.5464 16.5588 93.7512 16.2977 93.5729 16.1791L90.959 14.4411L90.9569 14.7049L93.3712 13.1903C93.5525 13.0766 93.3518 12.8121 93.1719 12.9249Z" fill="#E6E6E6"/>
</g>
<defs>
<clipPath id="clip0_422_216">
<rect width="145" height="109" fill="white" transform="translate(0 0.72998)"/>
</clipPath>
</defs>
</svg>
