<svg width="178" height="106" viewBox="0 0 178 106" fill="none" xmlns="http://www.w3.org/2000/svg">
<g clip-path="url(#clip0_420_53)">
<path d="M41.2934 98.8208L44.136 97.919C44.4903 96.3931 44.4668 94.8038 44.0675 93.2891C42.9255 95.8288 39.575 96.451 37.666 98.4781C37.0754 99.1149 36.6357 99.8764 36.3794 100.706C36.1231 101.536 36.0568 102.413 36.1855 103.272L35.5874 105.301C36.9842 105.182 38.3385 104.761 39.557 104.068C40.7756 103.375 41.8293 102.425 42.6457 101.285C43.0974 100.641 43.4662 99.9432 43.7434 99.207C42.5312 99.0856 41.2934 98.8208 41.2934 98.8208Z" fill="#F2F2F2"/>
<path d="M142.031 98.8208L139.188 97.919C138.834 96.3931 138.857 94.8038 139.257 93.2891C140.399 95.8288 143.749 96.451 145.658 98.4781C146.249 99.1149 146.688 99.8764 146.945 100.706C147.201 101.536 147.267 102.413 147.139 103.272L147.737 105.301C146.34 105.182 144.986 104.761 143.767 104.068C142.549 103.375 141.495 102.425 140.678 101.285C140.227 100.641 139.858 99.9432 139.581 99.207C140.793 99.0856 142.031 98.8208 142.031 98.8208Z" fill="#F2F2F2"/>
<path d="M38.2557 95.0689L40.3978 92.9938C40.0345 91.47 39.3048 90.058 38.2721 88.8804C38.3824 91.6629 35.661 93.7144 34.8562 96.3802C34.6116 97.2136 34.5576 98.0914 34.6982 98.9485C34.8389 99.8056 35.1706 100.62 35.6687 101.331L36.0382 103.414C37.2352 102.685 38.2597 101.704 39.0412 100.54C39.8227 99.3757 40.3426 98.056 40.5651 96.6717C40.6822 95.8938 40.7009 95.1043 40.6208 94.3218C39.4817 94.7539 38.2557 95.0689 38.2557 95.0689Z" fill="#F2F2F2"/>
<path d="M43.9827 56.4322C43.7487 56.4635 43.5107 56.4432 43.2854 56.3726C43.0601 56.302 42.853 56.1829 42.6787 56.0236C42.5045 55.8643 42.3672 55.6687 42.2767 55.4506C42.1862 55.2325 42.1446 54.9972 42.1548 54.7613L31.8298 44.2834L34.7121 42.2764L43.9549 53.207C44.35 53.2504 44.7155 53.4373 44.982 53.7322C45.2486 54.0272 45.3977 54.4096 45.4011 54.8072C45.4045 55.2047 45.262 55.5897 45.0006 55.8892C44.7392 56.1887 44.377 56.3819 43.9827 56.4322Z" fill="#FFB6B6"/>
<path d="M28.6533 39.7511C28.6533 39.7511 27.9215 40.1898 29.1395 41.5256C30.1146 42.5951 34.3695 47.7368 36.0679 48.8103C35.9757 49.0765 35.9747 49.3657 36.0649 49.6325C36.1552 49.8993 36.3316 50.1285 36.5665 50.2839L39.1777 47.0247C39.0286 46.0903 38.3986 46.138 38.0448 46.2515L36.4065 44.2147L32.6944 37.9873L29.1766 39.4247L28.6533 39.7511Z" fill="#474BA1"/>
<path d="M20.4993 102.184H22.4459L23.3722 94.6743H20.4993V102.184Z" fill="#FFB6B6"/>
<path d="M19.864 100.85L22.9738 100.665V101.997L25.9304 104.039C26.0765 104.14 26.1864 104.285 26.2443 104.453C26.3022 104.621 26.3049 104.803 26.2521 104.972C26.1993 105.142 26.0937 105.29 25.9507 105.395C25.8078 105.5 25.635 105.557 25.4575 105.557H21.7552L21.117 104.239L20.8678 105.557H19.4719L19.864 100.85Z" fill="#2F2E41"/>
<path d="M31.4331 102.184H33.3797L34.3061 94.6743H31.4331V102.184Z" fill="#FFB6B6"/>
<path d="M30.7979 100.85L33.9077 100.665V101.997L36.8643 104.039C37.0103 104.14 37.1203 104.285 37.1781 104.453C37.236 104.621 37.2387 104.803 37.1859 104.972C37.1331 105.142 37.0275 105.29 36.8846 105.395C36.7416 105.5 36.5688 105.557 36.3913 105.557H32.689L32.0509 104.239L31.8017 105.557H30.4058L30.7979 100.85Z" fill="#2F2E41"/>
<path d="M19.6594 95.7077H19.6806L20.055 83.4978C19.8127 83.0304 19.6898 82.5104 19.6971 81.984C19.7044 81.4576 19.8417 80.9411 20.0968 80.4807L20.1504 80.3837L20.0115 79.7394C19.833 78.9116 19.9149 78.0489 20.2459 77.2695L20.5952 65.88C19.3475 57.7925 25.2936 52.5182 25.2936 52.5182L24.207 47.9465L34.9645 46.8882L34.2008 52.5182L36.1131 59.0896C37.3773 71.4083 37.1479 83.4125 35.1418 95.0426L35.1965 95.0703C35.3934 95.1383 35.4779 95.4111 35.3852 95.6797C35.2925 95.9483 35.0577 96.111 34.8608 96.043L30.1567 95.8794C29.9598 95.8114 29.8753 95.5385 29.9681 95.2699C30.0607 95.0013 30.2955 94.8387 30.4925 94.9067L30.8123 95.0685L30.1302 83.2864L30.2059 81.1343L30.0499 78.6928L29.3289 67.7111L26.5996 81.2156L23.8118 95.8436C23.8887 95.9132 23.9427 96.0045 23.9666 96.1055C23.9905 96.2064 23.9833 96.3122 23.9458 96.409C23.9083 96.5057 23.8424 96.5888 23.7568 96.6473C23.6711 96.7058 23.5697 96.737 23.466 96.7367H19.6594C19.523 96.7367 19.3922 96.6825 19.2957 96.586C19.1992 96.4895 19.145 96.3586 19.145 96.2222C19.145 96.0857 19.1992 95.9548 19.2957 95.8584C19.3922 95.7619 19.523 95.7077 19.6594 95.7077Z" fill="#2F2E41"/>
<path d="M122.816 50.3933H56.2832C54.0462 50.3908 51.9015 49.5009 50.3198 47.9188C48.738 46.3367 47.8482 44.1917 47.8457 41.9543V13.3505C47.8482 11.1172 48.7346 8.97581 50.3112 7.39442C51.8878 5.81302 54.0262 4.92029 56.2591 4.91141C66.5918 2.05085 77.5631 0.63599 88.8732 0.706096C99.6351 0.772843 111.062 2.18771 122.836 4.91141C125.069 4.91936 127.209 5.81168 128.786 7.39316C130.364 8.97465 131.25 11.1166 131.253 13.3505V41.9543C131.251 44.1917 130.361 46.3367 128.779 47.9188C127.197 49.5009 125.053 50.3908 122.816 50.3933ZM56.2832 5.26418C54.1397 5.26661 52.0847 6.11934 50.569 7.63529C49.0534 9.15123 48.2008 11.2066 48.1984 13.3505V41.9543C48.2008 44.0982 49.0534 46.1535 50.569 47.6695C52.0847 49.1854 54.1397 50.0382 56.2832 50.0406H122.816C124.959 50.0382 127.014 49.1854 128.53 47.6695C130.045 46.1535 130.898 44.0982 130.9 41.9543V13.3505C130.898 11.2066 130.045 9.15123 128.53 7.63529C127.014 6.11934 124.959 5.26661 122.816 5.26418L122.776 5.25962C98.4111 -0.379333 76.6764 -0.380107 56.3303 5.25781L56.2832 5.26418Z" fill="#E6E6E6"/>
<path d="M55.1098 42.9284C55.0836 42.9284 55.0576 42.9233 55.0334 42.9132C55.0092 42.9032 54.9872 42.8885 54.9686 42.87C54.9501 42.8514 54.9354 42.8294 54.9253 42.8052C54.9153 42.7809 54.9101 42.755 54.9102 42.7288V12.5762C54.9102 12.5232 54.9312 12.4724 54.9686 12.435C55.0061 12.3975 55.0569 12.3765 55.1098 12.3765C55.1628 12.3765 55.2135 12.3975 55.251 12.435C55.2884 12.4724 55.3095 12.5232 55.3095 12.5762V42.7288C55.3095 42.755 55.3043 42.7809 55.2943 42.8052C55.2842 42.8294 55.2695 42.8514 55.251 42.87C55.2325 42.8885 55.2104 42.9032 55.1862 42.9132C55.162 42.9233 55.136 42.9284 55.1098 42.9284Z" fill="#E6E6E6"/>
<path d="M72.5685 42.9284C72.5423 42.9284 72.5164 42.9233 72.4921 42.9132C72.4679 42.9032 72.4459 42.8885 72.4274 42.87C72.4088 42.8514 72.3941 42.8294 72.3841 42.8052C72.374 42.7809 72.3689 42.755 72.3689 42.7288V12.5762C72.3689 12.5232 72.3899 12.4724 72.4274 12.435C72.4648 12.3975 72.5156 12.3765 72.5685 12.3765C72.6215 12.3765 72.6723 12.3975 72.7097 12.435C72.7472 12.4724 72.7682 12.5232 72.7682 12.5762V42.7288C72.7682 42.755 72.763 42.7809 72.753 42.8052C72.743 42.8294 72.7283 42.8514 72.7097 42.87C72.6912 42.8885 72.6692 42.9032 72.645 42.9132C72.6207 42.9233 72.5948 42.9284 72.5685 42.9284Z" fill="#E6E6E6"/>
<path d="M90.0275 42.9284C90.0013 42.9284 89.9754 42.9233 89.9511 42.9132C89.9269 42.9032 89.9049 42.8885 89.8863 42.87C89.8678 42.8514 89.8531 42.8294 89.8431 42.8052C89.833 42.7809 89.8279 42.755 89.8279 42.7288V12.5762C89.8279 12.5232 89.8489 12.4724 89.8864 12.435C89.9238 12.3975 89.9746 12.3765 90.0275 12.3765C90.0805 12.3765 90.1313 12.3975 90.1687 12.435C90.2062 12.4724 90.2272 12.5232 90.2272 12.5762V42.7288C90.2272 42.755 90.222 42.7809 90.212 42.8052C90.202 42.8294 90.1873 42.8514 90.1687 42.87C90.1502 42.8885 90.1282 42.9032 90.1039 42.9132C90.0797 42.9233 90.0538 42.9284 90.0275 42.9284Z" fill="#E6E6E6"/>
<path d="M107.487 42.9284C107.46 42.9284 107.434 42.9233 107.41 42.9132C107.386 42.9032 107.364 42.8885 107.345 42.87C107.327 42.8514 107.312 42.8294 107.302 42.8052C107.292 42.7809 107.287 42.755 107.287 42.7288V12.5762C107.287 12.5232 107.308 12.4724 107.345 12.435C107.383 12.3975 107.434 12.3765 107.487 12.3765C107.539 12.3765 107.59 12.3975 107.628 12.435C107.665 12.4724 107.686 12.5232 107.686 12.5762V42.7288C107.686 42.755 107.681 42.7809 107.671 42.8052C107.661 42.8294 107.646 42.8514 107.628 42.87C107.609 42.8885 107.587 42.9032 107.563 42.9132C107.539 42.9233 107.513 42.9284 107.487 42.9284Z" fill="#E6E6E6"/>
<path d="M53.5547 17.0693C53.5547 17.0431 53.5598 17.0171 53.5699 16.9929C53.5799 16.9687 53.5946 16.9466 53.6132 16.9281C53.6317 16.9096 53.6537 16.8948 53.6779 16.8848C53.7022 16.8748 53.7281 16.8696 53.7543 16.8696H125.345C125.371 16.8696 125.397 16.8748 125.421 16.8848C125.445 16.8949 125.467 16.9096 125.486 16.9281C125.504 16.9467 125.519 16.9687 125.529 16.9929C125.539 17.0171 125.544 17.0431 125.544 17.0693C125.544 17.0955 125.539 17.1215 125.529 17.1457C125.519 17.17 125.504 17.192 125.486 17.2105C125.467 17.2291 125.445 17.2438 125.421 17.2538C125.397 17.2638 125.371 17.269 125.345 17.269H53.7543C53.7281 17.269 53.7022 17.2638 53.6779 17.2538C53.6537 17.2438 53.6317 17.2291 53.6132 17.2105C53.5946 17.192 53.5799 17.17 53.5699 17.1457C53.5598 17.1215 53.5547 17.0955 53.5547 17.0693Z" fill="#E6E6E6"/>
<path d="M53.5547 39.2939C53.5547 39.2677 53.5598 39.2417 53.5699 39.2175C53.5799 39.1933 53.5946 39.1713 53.6132 39.1527C53.6317 39.1342 53.6537 39.1195 53.6779 39.1094C53.7022 39.0994 53.7281 39.0942 53.7543 39.0942H125.345C125.397 39.0942 125.448 39.1153 125.486 39.1527C125.523 39.1902 125.544 39.241 125.544 39.2939C125.544 39.3469 125.523 39.3977 125.486 39.4351C125.448 39.4726 125.397 39.4936 125.345 39.4936H53.7543C53.7281 39.4936 53.7022 39.4885 53.6779 39.4784C53.6537 39.4684 53.6317 39.4537 53.6132 39.4351C53.5946 39.4166 53.5799 39.3946 53.5699 39.3703C53.5598 39.3461 53.5547 39.3201 53.5547 39.2939Z" fill="#E6E6E6"/>
<path d="M53.5547 28.1816C53.5547 28.1554 53.5598 28.1294 53.5699 28.1052C53.5799 28.081 53.5946 28.0589 53.6132 28.0404C53.6317 28.0219 53.6537 28.0072 53.6779 27.9971C53.7022 27.9871 53.7281 27.9819 53.7543 27.9819H125.345C125.397 27.9819 125.448 28.003 125.486 28.0404C125.523 28.0779 125.544 28.1287 125.544 28.1816C125.544 28.2346 125.523 28.2854 125.486 28.3228C125.448 28.3603 125.397 28.3813 125.345 28.3813H53.7543C53.7281 28.3813 53.7022 28.3761 53.6779 28.3661C53.6537 28.3561 53.6317 28.3414 53.6132 28.3228C53.5946 28.3043 53.5799 28.2823 53.5699 28.258C53.5598 28.2338 53.5547 28.2078 53.5547 28.1816Z" fill="#E6E6E6"/>
<path d="M124.389 42.9284C124.415 42.9284 124.441 42.9233 124.465 42.9132C124.489 42.9032 124.511 42.8885 124.53 42.87C124.548 42.8514 124.563 42.8294 124.573 42.8052C124.583 42.7809 124.588 42.755 124.588 42.7288V12.5762C124.588 12.5232 124.567 12.4724 124.53 12.435C124.492 12.3975 124.442 12.3765 124.389 12.3765C124.336 12.3765 124.285 12.3975 124.247 12.435C124.21 12.4724 124.189 12.5232 124.189 12.5762V42.7288C124.189 42.755 124.194 42.7809 124.204 42.8052C124.214 42.8294 124.229 42.8514 124.247 42.87C124.266 42.8885 124.288 42.9032 124.312 42.9132C124.336 42.9233 124.362 42.9284 124.389 42.9284Z" fill="#E6E6E6"/>
<path d="M65.9996 26.8286H60.971C60.6944 26.8284 60.4272 26.7284 60.2184 26.5469C60.0096 26.3655 59.8733 26.1148 59.8344 25.8409C59.5239 23.5556 59.5239 21.2388 59.8344 18.9536C59.8728 18.683 60.0064 18.4349 60.2112 18.2539C60.4159 18.0729 60.6785 17.9709 60.9517 17.9661C62.5339 17.2567 64.2378 17.2568 66.017 17.966C66.1827 17.9682 66.3459 18.0066 66.4951 18.0786C66.6444 18.1506 66.7761 18.2544 66.881 18.3827C66.9903 18.5162 67.0686 18.6724 67.1101 18.8399C67.1515 19.0074 67.1552 19.1821 67.1207 19.3512C66.7168 21.3618 66.7168 23.4327 67.1207 25.4433C67.1552 25.6124 67.1515 25.787 67.1101 25.9545C67.0686 26.1221 66.9903 26.2782 66.881 26.4117C66.7743 26.5423 66.6398 26.6475 66.4873 26.7196C66.3349 26.7917 66.1683 26.8289 65.9996 26.8286Z" fill="#474BA1"/>
<path d="M65.4731 20.5917H61.2406C61.1704 20.5917 61.1032 20.5638 61.0536 20.5142C61.0039 20.4645 60.9761 20.3972 60.9761 20.3271C60.9761 20.2569 61.0039 20.1896 61.0536 20.14C61.1032 20.0904 61.1704 20.0625 61.2406 20.0625H65.4731C65.5432 20.0625 65.6105 20.0904 65.6601 20.14C65.7097 20.1896 65.7376 20.2569 65.7376 20.3271C65.7376 20.3972 65.7097 20.4645 65.6601 20.5142C65.6105 20.5638 65.5432 20.5917 65.4731 20.5917Z" fill="white"/>
<path d="M65.4731 22.7084H61.2406C61.1704 22.7084 61.1032 22.6805 61.0536 22.6309C61.0039 22.5812 60.9761 22.5139 60.9761 22.4438C60.9761 22.3736 61.0039 22.3063 61.0536 22.2567C61.1032 22.2071 61.1704 22.1792 61.2406 22.1792H65.4731C65.5432 22.1792 65.6105 22.2071 65.6601 22.2567C65.7097 22.3063 65.7376 22.3736 65.7376 22.4438C65.7376 22.5139 65.7097 22.5812 65.6601 22.6309C65.6105 22.6805 65.5432 22.7084 65.4731 22.7084Z" fill="white"/>
<path d="M65.4731 24.8251H61.2406C61.1704 24.8251 61.1032 24.7972 61.0536 24.7476C61.0039 24.6979 60.9761 24.6306 60.9761 24.5605C60.9761 24.4903 61.0039 24.423 61.0536 24.3734C61.1032 24.3238 61.1704 24.2959 61.2406 24.2959H65.4731C65.5432 24.2959 65.6105 24.3238 65.6601 24.3734C65.7097 24.423 65.7376 24.4903 65.7376 24.5605C65.7376 24.6306 65.7097 24.6979 65.6601 24.7476C65.6105 24.7972 65.5432 24.8251 65.4731 24.8251Z" fill="white"/>
<path d="M102.152 38.4702H97.1234C96.8468 38.47 96.5795 38.37 96.3708 38.1885C96.162 38.0071 96.0256 37.7564 95.9868 37.4825C95.6763 35.1972 95.6763 32.8804 95.9868 30.5952C96.0252 30.3246 96.1587 30.0765 96.3635 29.8955C96.5683 29.7145 96.8308 29.6125 97.1041 29.6077C98.6862 28.8983 100.39 28.8984 102.169 29.6076C102.335 29.6098 102.498 29.6482 102.647 29.7202C102.797 29.7922 102.928 29.896 103.033 30.0243C103.143 30.1578 103.221 30.314 103.262 30.4815C103.304 30.649 103.308 30.8237 103.273 30.9928C102.869 33.0034 102.869 35.0743 103.273 37.0849C103.308 37.254 103.304 37.4286 103.262 37.5961C103.221 37.7637 103.143 37.9198 103.033 38.0533C102.927 38.1839 102.792 38.2891 102.64 38.3612C102.487 38.4333 102.321 38.4705 102.152 38.4702Z" fill="#474BA1"/>
<path d="M101.625 32.2333H97.3929C97.3228 32.2333 97.2555 32.2054 97.2059 32.1558C97.1563 32.1061 97.1284 32.0388 97.1284 31.9687C97.1284 31.8985 97.1563 31.8312 97.2059 31.7816C97.2555 31.732 97.3228 31.7041 97.3929 31.7041H101.625C101.696 31.7041 101.763 31.732 101.812 31.7816C101.862 31.8312 101.89 31.8985 101.89 31.9687C101.89 32.0388 101.862 32.1061 101.812 32.1558C101.763 32.2054 101.696 32.2333 101.625 32.2333Z" fill="white"/>
<path d="M101.625 34.35H97.3929C97.3228 34.35 97.2555 34.3221 97.2059 34.2725C97.1563 34.2228 97.1284 34.1555 97.1284 34.0854C97.1284 34.0152 97.1563 33.9479 97.2059 33.8983C97.2555 33.8487 97.3228 33.8208 97.3929 33.8208H101.625C101.696 33.8208 101.763 33.8487 101.812 33.8983C101.862 33.9479 101.89 34.0152 101.89 34.0854C101.89 34.1555 101.862 34.2228 101.812 34.2725C101.763 34.3221 101.696 34.35 101.625 34.35Z" fill="white"/>
<path d="M117.495 26.8286H112.466C112.19 26.8284 111.922 26.7284 111.714 26.5469C111.505 26.3655 111.368 26.1148 111.33 25.8409C111.019 23.5556 111.019 21.2388 111.33 18.9536C111.368 18.683 111.502 18.4349 111.706 18.2539C111.911 18.0729 112.174 17.9709 112.447 17.9661C114.029 17.2567 115.733 17.2568 117.512 17.966C117.678 17.9682 117.841 18.0066 117.99 18.0786C118.14 18.1506 118.271 18.2544 118.376 18.3827C118.485 18.5162 118.564 18.6724 118.605 18.8399C118.647 19.0074 118.65 19.1821 118.616 19.3512C118.212 21.3618 118.212 23.4327 118.616 25.4433C118.65 25.6124 118.647 25.787 118.605 25.9545C118.564 26.1221 118.485 26.2782 118.376 26.4117C118.269 26.5423 118.135 26.6475 117.982 26.7196C117.83 26.7917 117.663 26.8289 117.495 26.8286Z" fill="#FD6584"/>
<path d="M116.968 22.7084H112.735C112.665 22.7084 112.598 22.6805 112.548 22.6309C112.499 22.5812 112.471 22.5139 112.471 22.4438C112.471 22.3736 112.499 22.3063 112.548 22.2567C112.598 22.2071 112.665 22.1792 112.735 22.1792H116.968C117.038 22.1792 117.105 22.2071 117.155 22.2567C117.205 22.3063 117.232 22.3736 117.232 22.4438C117.232 22.5139 117.205 22.5812 117.155 22.6309C117.105 22.6805 117.038 22.7084 116.968 22.7084Z" fill="white"/>
<path d="M116.968 24.8251H112.735C112.665 24.8251 112.598 24.7972 112.548 24.7476C112.499 24.6979 112.471 24.6306 112.471 24.5605C112.471 24.4903 112.499 24.423 112.548 24.3734C112.598 24.3238 112.665 24.2959 112.735 24.2959H116.968C117.038 24.2959 117.105 24.3238 117.155 24.3734C117.205 24.423 117.232 24.4903 117.232 24.5605C117.232 24.6306 117.205 24.6979 117.155 24.7476C117.105 24.7972 117.038 24.8251 116.968 24.8251Z" fill="white"/>
<path d="M32.6132 26.0502C31.6127 24.5167 29.9791 23.3117 28.1599 23.2098C26.3405 23.108 24.1541 24.6576 23.2562 26.252C21.6137 29.1686 21.5922 32.5131 23.8544 34.5416C24.1616 34.4374 25.4394 34.288 25.7517 34.1874L25.9498 33.8297L26.1941 34.0471C28.9898 34.3261 29.8504 32.425 34.3236 31.2263C34.062 29.4132 33.6137 27.5837 32.6132 26.0502Z" fill="#2F2E41"/>
<path d="M28.7729 33.2727C30.8147 33.2727 32.4699 31.6172 32.4699 29.5751C32.4699 27.5329 30.8147 25.8774 28.7729 25.8774C26.7311 25.8774 25.0759 27.5329 25.0759 29.5751C25.0759 31.6172 26.7311 33.2727 28.7729 33.2727Z" fill="#FFB7B7"/>
<path d="M32.8694 36.4452L30.7538 35.1756L26.5227 34.7524L22.783 36.6571L22.8204 42.4757L25.1929 48.5105L34.4356 50.4158L35.5139 45.1123C35.5139 45.1123 38.2641 41.4177 35.3023 39.3017L32.8694 36.4452Z" fill="#474BA1"/>
<path d="M30.1551 23.9595C29.354 23.7349 28.5073 23.7297 27.7036 23.9443C26.8998 24.159 26.1684 24.5857 25.5859 25.1799C25.0035 25.774 24.5913 26.5138 24.3925 27.3218C24.1938 28.1298 24.2157 28.9764 24.456 29.773C26.7076 29.9527 28.9333 29.7425 30.6877 28.1491L30.8438 26.7824L31.484 27.9261C32.1297 27.7445 32.7763 27.5617 33.424 27.3777C33.2259 26.5717 32.8197 25.8317 32.2461 25.2319C31.6724 24.632 30.9514 24.1933 30.1551 23.9595Z" fill="#2F2E41"/>
<path d="M23.8134 61.5681C23.6124 61.4443 23.441 61.2779 23.3112 61.0806C23.1814 60.8833 23.0965 60.66 23.0623 60.4264C23.0282 60.1927 23.0457 59.9544 23.1136 59.7283C23.1815 59.5021 23.2981 59.2936 23.4553 59.1174L22.0911 44.4692L25.5927 44.7397L25.8326 59.0533C26.111 59.3371 26.2757 59.7131 26.2955 60.1102C26.3153 60.5072 26.1887 60.8978 25.9398 61.2077C25.6909 61.5177 25.337 61.7256 24.9451 61.792C24.5532 61.8585 24.1505 61.7788 23.8134 61.5681Z" fill="#FFB6B6"/>
<path d="M22.9126 36.7157C22.9126 36.7157 22.0684 36.5921 22.1662 38.3973C22.2445 39.8425 21.8724 48.7505 22.5082 50.6567C22.2684 50.8044 22.0846 51.0277 21.9856 51.2914C21.8867 51.5551 21.8783 51.8442 21.9618 52.1132L26.0458 51.2426C26.5216 50.4247 26.423 49.5849 26.0773 49.4487L26.0976 46.8347L27.0002 38.2182L23.5243 36.7941L22.9126 36.7157Z" fill="#474BA1"/>
<path d="M43.7856 62.9235C43.6762 62.79 43.598 62.6338 43.5565 62.4663C43.515 62.2987 43.5114 62.1241 43.5459 61.955C43.9498 59.9444 43.9498 57.8735 43.5459 55.8629C43.5114 55.6938 43.515 55.5192 43.5565 55.3516C43.598 55.1841 43.6762 55.0279 43.7856 54.8944C43.8905 54.7661 44.0222 54.6623 44.1714 54.5903C44.3207 54.5183 44.4839 54.4799 44.6496 54.4777C46.4288 53.7685 48.1327 53.7684 49.7149 54.4778C49.9881 54.4826 50.2506 54.5846 50.4554 54.7656C50.6602 54.9466 50.7937 55.1947 50.8321 55.4653C51.1426 57.7506 51.1426 60.0673 50.8321 62.3526C50.7933 62.6265 50.657 62.8772 50.4482 63.0586C50.2394 63.2401 49.9722 63.3401 49.6956 63.3403H44.6669C44.4983 63.3406 44.3317 63.3034 44.1792 63.2313C44.0268 63.1592 43.8923 63.054 43.7856 62.9235Z" fill="#474BA1"/>
<path d="M45.1935 57.1034H49.426C49.4961 57.1034 49.5634 57.0755 49.613 57.0259C49.6626 56.9763 49.6905 56.909 49.6905 56.8388C49.6905 56.7686 49.6626 56.7013 49.613 56.6517C49.5634 56.6021 49.4961 56.5742 49.426 56.5742H45.1935C45.1233 56.5742 45.056 56.6021 45.0064 56.6517C44.9568 56.7013 44.929 56.7686 44.929 56.8388C44.929 56.909 44.9568 56.9763 45.0064 57.0259C45.056 57.0755 45.1233 57.1034 45.1935 57.1034Z" fill="white"/>
<path d="M45.1935 59.2201H49.426C49.4961 59.2201 49.5634 59.1922 49.613 59.1426C49.6626 59.093 49.6905 59.0257 49.6905 58.9555C49.6905 58.8853 49.6626 58.818 49.613 58.7684C49.5634 58.7188 49.4961 58.6909 49.426 58.6909H45.1935C45.1233 58.6909 45.056 58.7188 45.0064 58.7684C44.9568 58.818 44.929 58.8853 44.929 58.9555C44.929 59.0257 44.9568 59.093 45.0064 59.1426C45.056 59.1922 45.1233 59.2201 45.1935 59.2201Z" fill="white"/>
<path d="M45.1935 61.3368H49.426C49.4961 61.3368 49.5634 61.3089 49.613 61.2593C49.6626 61.2097 49.6905 61.1424 49.6905 61.0722C49.6905 61.002 49.6626 60.9347 49.613 60.8851C49.5634 60.8355 49.4961 60.8076 49.426 60.8076H45.1935C45.1233 60.8076 45.056 60.8355 45.0064 60.8851C44.9568 60.9347 44.929 61.002 44.929 61.0722C44.929 61.1424 44.9568 61.2097 45.0064 61.2593C45.056 61.3089 45.1233 61.3368 45.1935 61.3368Z" fill="white"/>
<path d="M161.526 103.454H159.357L158.325 95.0859L161.526 95.0861L161.526 103.454Z" fill="#A0616A"/>
<path d="M162.079 105.557L155.085 105.556V105.468C155.085 104.746 155.372 104.053 155.883 103.543C156.393 103.032 157.086 102.745 157.808 102.745L159.085 101.776L161.469 102.745L162.079 102.745L162.079 105.557Z" fill="#2F2E41"/>
<path d="M151.449 103.454H149.28L148.249 95.0859L151.45 95.0861L151.449 103.454Z" fill="#A0616A"/>
<path d="M152.003 105.557L145.009 105.556V105.468C145.009 104.746 145.296 104.053 145.806 103.543C146.317 103.032 147.009 102.745 147.731 102.745H147.731L149.009 101.776L151.392 102.745L152.003 102.745L152.003 105.557Z" fill="#2F2E41"/>
<path d="M163.253 49.8804L160.385 58.699L151.346 58.4027L154.123 49.8804H163.253Z" fill="#2F2E41"/>
<path d="M149.716 57.6616L166.757 58.1063L166.461 66.4063C166.461 66.4063 166.757 68.6295 166.165 69.2224C165.572 69.8153 165.275 69.8153 165.572 70.8528C165.868 71.8903 164.302 73.5848 164.492 73.7751C164.683 73.9653 165.127 75.0028 165.127 75.0028L163.645 83.4511C163.645 83.4511 162.608 98.1244 162.312 98.4208C162.015 98.7172 161.719 98.4208 162.015 99.1619C162.312 99.9029 162.608 99.6065 162.312 99.903C162.049 100.186 161.802 100.483 161.571 100.792H157.988C157.988 100.792 157.718 99.3101 157.718 99.1619C157.718 99.0137 157.421 98.1244 157.421 97.9762C157.421 97.8279 157.683 97.5659 157.683 97.5659C157.774 97.2646 157.835 96.9553 157.866 96.6422C157.866 96.3458 158.755 84.9332 158.755 84.9332L156.977 70.1117L152.679 84.6368C152.679 84.6368 152.679 97.3833 152.383 97.6797C152.087 97.9762 152.087 97.8279 152.235 98.4208C152.383 99.0137 152.976 98.8654 152.531 99.3101C152.087 99.7547 151.938 99.0137 152.087 99.7547L152.235 100.496L147.789 100.559C147.789 100.559 147.196 99.3101 147.493 98.8654C147.789 98.4208 147.771 98.5422 147.41 97.8145C147.048 97.0868 146.9 96.9386 147.048 96.7904C147.196 96.6422 147.196 95.8539 147.196 95.8539L147.937 81.6725C147.937 81.6725 148.085 66.7027 148.085 66.2581C148.097 66.0293 148.055 65.801 147.962 65.5913V64.9878L148.53 62.8492L149.716 57.6616Z" fill="#2F2E41"/>
<path d="M151.272 36.0962L156.458 34.1694L165.053 34.7623L167.043 35.6912C167.743 36.0179 168.313 36.5705 168.661 37.2602C169.009 37.9499 169.115 38.7366 168.962 39.4939L166.387 52.2517L167.053 58.3899C167.053 58.3899 156.236 66.5544 147.789 64.0348C147.789 64.0348 147.937 61.6633 148.085 60.7741C148.234 59.8848 148.53 59.8848 148.678 59.4401C148.826 58.9955 149.123 59.4401 148.826 58.5508C148.53 57.6615 151.197 51.4365 151.197 51.4365L151.272 36.0962Z" fill="#E6E6E6"/>
<path d="M159.47 37.2243L163.698 34.6692L162.312 32.1689H157.82L156.041 34.3249L159.47 37.2243Z" fill="#E6E6E6"/>
<path d="M160.924 58.2324C161.166 58.2463 161.408 58.2072 161.632 58.1176C161.857 58.028 162.059 57.8902 162.225 57.714C162.391 57.5377 162.516 57.3273 162.592 57.0974C162.667 56.8676 162.691 56.624 162.663 56.3837L167.95 53.8099L165.321 52.252L160.703 54.9349C160.303 55.0099 159.944 55.2292 159.694 55.5511C159.445 55.8731 159.322 56.2755 159.349 56.6819C159.377 57.0884 159.552 57.4707 159.842 57.7565C160.133 58.0422 160.518 58.2116 160.924 58.2324Z" fill="#A0616A"/>
<path d="M163.002 57.1638L162.08 53.7852L167.101 47.133C165.476 45.1735 164.905 42.2801 165.306 38.0374C165.218 37.5798 165.306 37.1056 165.553 36.7104C165.8 36.3153 166.188 36.0285 166.638 35.9082C167.088 35.7878 167.567 35.8427 167.979 36.0618C168.39 36.2809 168.703 36.6479 168.854 37.0888C169.99 40.4026 171.967 47.5343 171.709 47.9205C171.413 48.3653 171.311 48.5628 171.777 48.9876C172.33 49.4914 172.037 51.6383 171.785 51.9463C171.555 52.2269 163.002 57.1638 163.002 57.1638Z" fill="#E6E6E6"/>
<path d="M136.423 52.9849C136.649 53.0723 136.891 53.1091 137.132 53.0928C137.374 53.0765 137.609 53.0075 137.82 52.8906C138.032 52.7737 138.216 52.6118 138.358 52.4162C138.501 52.2207 138.599 51.9963 138.645 51.7588L144.467 50.9316L142.443 48.6421L137.224 49.7786C136.82 49.7271 136.411 49.8256 136.075 50.0555C135.739 50.2854 135.499 50.6307 135.4 51.0259C135.301 51.4211 135.351 51.8389 135.54 52.1999C135.728 52.561 136.043 52.8403 136.423 52.9849Z" fill="#A0616A"/>
<path d="M138.922 52.4981L139.806 49.1095L147.125 44.9851C147.654 41.6338 147.986 40.5411 150.446 37.0622C150.597 36.6212 150.91 36.2539 151.321 36.0343C151.732 35.8148 152.211 35.7594 152.661 35.8794C153.112 35.9993 153.5 36.2856 153.747 36.6806C153.995 37.0755 154.083 37.5496 153.995 38.0073C153.33 41.4467 150.319 50.6644 149.947 50.8058C149.607 50.9346 138.922 52.4981 138.922 52.4981Z" fill="#E6E6E6"/>
<path d="M160.015 30.6127C162.552 30.6127 164.609 28.5556 164.609 26.018C164.609 23.4804 162.552 21.4233 160.015 21.4233C157.478 21.4233 155.421 23.4804 155.421 26.018C155.421 28.5556 157.478 30.6127 160.015 30.6127Z" fill="#A0616A"/>
<path d="M155.15 22.6846C155.272 21.5858 156.859 20.4869 159.667 19.7543C162.474 19.0217 163.939 22.1962 163.939 22.1962C165.893 23.173 164.733 28.3622 164.122 27.8738C164.116 27.8689 164.11 27.8641 164.104 27.8595C163.706 27.5663 163.372 27.195 163.122 26.7683C162.872 26.3416 162.712 25.8684 162.652 25.3777L162.511 24.1132C161.868 24.606 161.143 25.0233 160.365 24.8993L161.317 23.9617C160.415 24.3544 159.513 24.747 158.61 25.1397L159.507 23.9064L159.464 23.8648C159.045 24.2186 158.563 24.4913 158.044 24.6691C157.452 24.8388 156.742 24.747 156.337 24.2834C156.228 24.1555 156.145 24.0069 156.094 23.8466C155.357 24.3512 155.211 25.4318 155.211 25.4318C155.211 25.4318 155.028 23.7835 155.15 22.6846Z" fill="#2F2E41"/>
<path d="M136.717 55.9687H131.689C131.412 55.9685 131.145 55.8685 130.936 55.6871C130.727 55.5056 130.591 55.2549 130.552 54.981C130.241 52.6958 130.241 50.379 130.552 48.0937C130.59 47.8231 130.724 47.575 130.929 47.394C131.133 47.2131 131.396 47.111 131.669 47.1062C133.251 46.3969 134.955 46.397 136.734 47.1061C136.9 47.1083 137.063 47.1467 137.213 47.2187C137.362 47.2907 137.494 47.3945 137.599 47.5229C137.708 47.6564 137.786 47.8125 137.828 47.9801C137.869 48.1476 137.873 48.3222 137.838 48.4913C137.434 50.5019 137.434 52.5728 137.838 54.5834C137.873 54.7525 137.869 54.9272 137.828 55.0947C137.786 55.2622 137.708 55.4184 137.599 55.5519C137.492 55.6825 137.357 55.7876 137.205 55.8597C137.052 55.9318 136.886 55.9691 136.717 55.9687Z" fill="#3F3D56"/>
<path d="M136.19 49.7318H131.958C131.888 49.7318 131.82 49.7039 131.771 49.6543C131.721 49.6047 131.693 49.5374 131.693 49.4672C131.693 49.397 131.721 49.3297 131.771 49.2801C131.82 49.2305 131.888 49.2026 131.958 49.2026H136.19C136.261 49.2026 136.328 49.2305 136.377 49.2801C136.427 49.3297 136.455 49.397 136.455 49.4672C136.455 49.5374 136.427 49.6047 136.377 49.6543C136.328 49.7039 136.261 49.7318 136.19 49.7318Z" fill="white"/>
<path d="M136.19 51.8485H131.958C131.888 51.8485 131.82 51.8206 131.771 51.771C131.721 51.7214 131.693 51.6541 131.693 51.5839C131.693 51.5137 131.721 51.4464 131.771 51.3968C131.82 51.3472 131.888 51.3193 131.958 51.3193H136.19C136.261 51.3193 136.328 51.3472 136.377 51.3968C136.427 51.4464 136.455 51.5137 136.455 51.5839C136.455 51.6541 136.427 51.7214 136.377 51.771C136.328 51.8206 136.261 51.8485 136.19 51.8485Z" fill="white"/>
<path d="M136.19 53.9652H131.958C131.888 53.9652 131.82 53.9373 131.771 53.8877C131.721 53.8381 131.693 53.7708 131.693 53.7006C131.693 53.6304 131.721 53.5631 131.771 53.5135C131.82 53.4639 131.888 53.436 131.958 53.436H136.19C136.261 53.436 136.328 53.4639 136.377 53.5135C136.427 53.5631 136.455 53.6304 136.455 53.7006C136.455 53.7708 136.427 53.8381 136.377 53.8877C136.328 53.9373 136.261 53.9652 136.19 53.9652Z" fill="white"/>
<path d="M115.205 13.5517C117.055 13.5517 118.556 12.0513 118.556 10.2004C118.556 8.34955 117.055 6.84912 115.205 6.84912C113.354 6.84912 111.854 8.34955 111.854 10.2004C111.854 12.0513 113.354 13.5517 115.205 13.5517Z" fill="#E6E6E6"/>
<path d="M116.925 8.80393C116.875 8.75584 116.808 8.729 116.738 8.729C116.669 8.729 116.602 8.75584 116.551 8.80393C115.84 9.37107 115.202 10.0235 114.65 10.7464C114.514 10.4842 114.379 10.2221 114.243 9.95988C114.087 9.65726 113.63 9.92459 113.786 10.227C113.985 10.6104 114.183 10.9939 114.381 11.3774C114.405 11.4165 114.438 11.4489 114.478 11.4713C114.518 11.4938 114.563 11.5056 114.609 11.5056C114.655 11.5056 114.7 11.4938 114.74 11.4713C114.78 11.4489 114.814 11.4165 114.838 11.3774C115.426 10.549 116.129 9.80851 116.925 9.1781C116.974 9.12828 117.002 9.06106 117.002 8.99102C117.002 8.92097 116.974 8.85375 116.925 8.80393Z" fill="white"/>
<path d="M98.8043 13.5517C100.655 13.5517 102.155 12.0513 102.155 10.2004C102.155 8.34955 100.655 6.84912 98.8043 6.84912C96.9538 6.84912 95.4536 8.34955 95.4536 10.2004C95.4536 12.0513 96.9538 13.5517 98.8043 13.5517Z" fill="#E6E6E6"/>
<path d="M100.524 8.80393C100.474 8.75584 100.407 8.729 100.337 8.729C100.268 8.729 100.201 8.75584 100.15 8.80393C99.4393 9.37107 98.8007 10.0235 98.2489 10.7464C98.1134 10.4842 97.9779 10.2221 97.8424 9.95988C97.6861 9.65726 97.2294 9.92459 97.3856 10.227C97.5838 10.6104 97.7819 10.9939 97.9801 11.3774C98.004 11.4165 98.0375 11.4489 98.0775 11.4713C98.1175 11.4938 98.1626 11.5056 98.2085 11.5056C98.2543 11.5056 98.2994 11.4938 98.3394 11.4713C98.3794 11.4489 98.413 11.4165 98.4369 11.3774C99.025 10.549 99.7278 9.80851 100.524 9.1781C100.574 9.12828 100.601 9.06106 100.601 8.99102C100.601 8.92097 100.574 8.85375 100.524 8.80393Z" fill="white"/>
<path d="M64.2391 13.1992C66.0897 13.1992 67.5898 11.6987 67.5898 9.84788C67.5898 7.99701 66.0897 6.49658 64.2391 6.49658C62.3886 6.49658 60.8884 7.99701 60.8884 9.84788C60.8884 11.6987 62.3886 13.1992 64.2391 13.1992Z" fill="#E6E6E6"/>
<path d="M65.9592 8.4509C65.9088 8.40281 65.8418 8.37598 65.7721 8.37598C65.7025 8.37598 65.6355 8.40281 65.5851 8.4509C64.8741 9.01804 64.2355 9.67042 63.6837 10.3934C63.5482 10.1312 63.4127 9.86903 63.2773 9.60685C63.1209 9.30423 62.6642 9.57156 62.8204 9.87392C63.0186 10.2574 63.2167 10.6409 63.4149 11.0244C63.4388 11.0635 63.4723 11.0959 63.5123 11.1183C63.5523 11.1407 63.5974 11.1525 63.6433 11.1525C63.6892 11.1525 63.7343 11.1407 63.7742 11.1183C63.8142 11.0959 63.8478 11.0635 63.8717 11.0244C64.4598 10.196 65.1626 9.45548 65.9592 8.82507C66.0084 8.77525 66.036 8.70803 66.036 8.63799C66.036 8.56795 66.0084 8.50073 65.9592 8.4509Z" fill="white"/>
<path d="M24.2071 26.9571C25.4733 26.9571 26.4997 25.9305 26.4997 24.6641C26.4997 23.3977 25.4733 22.3711 24.2071 22.3711C22.941 22.3711 21.9146 23.3977 21.9146 24.6641C21.9146 25.9305 22.941 26.9571 24.2071 26.9571Z" fill="#2F2E41"/>
<path d="M50.3496 105.494C50.3497 105.521 50.3443 105.549 50.3338 105.574C50.3233 105.6 50.3079 105.623 50.2883 105.642C50.2688 105.662 50.2457 105.677 50.2202 105.688C50.1947 105.698 50.1673 105.704 50.1398 105.703H0.70986C0.654202 105.703 0.600823 105.681 0.561466 105.642C0.52211 105.603 0.5 105.549 0.5 105.494C0.5 105.438 0.52211 105.385 0.561466 105.345C0.600823 105.306 0.654202 105.284 0.70986 105.284H50.1398C50.1674 105.284 50.1947 105.289 50.2202 105.3C50.2457 105.31 50.2688 105.325 50.2883 105.345C50.3079 105.364 50.3233 105.388 50.3338 105.413C50.3443 105.439 50.3497 105.466 50.3496 105.494Z" fill="#CCCCCC"/>
<path d="M177.5 105.494C177.5 105.521 177.495 105.549 177.484 105.574C177.474 105.6 177.458 105.623 177.439 105.642C177.419 105.662 177.396 105.677 177.371 105.688C177.345 105.698 177.318 105.704 177.29 105.703H127.86C127.805 105.703 127.751 105.681 127.712 105.642C127.673 105.603 127.65 105.549 127.65 105.494C127.65 105.438 127.673 105.385 127.712 105.345C127.751 105.306 127.805 105.284 127.86 105.284H177.29C177.318 105.284 177.345 105.289 177.371 105.3C177.396 105.31 177.419 105.325 177.439 105.345C177.458 105.364 177.474 105.388 177.484 105.413C177.495 105.439 177.5 105.466 177.5 105.494Z" fill="#CCCCCC"/>
<path d="M23.5165 22.3643C23.1196 22.2539 22.7069 22.4388 22.3365 22.6191L21.019 23.2603C21.9311 23.3404 22.8432 23.4204 23.7553 23.5005L23.8561 23.3108C24.1718 23.0461 23.9133 22.4747 23.5165 22.3643Z" fill="#2F2E41"/>
</g>
<defs>
<clipPath id="clip0_420_53">
<rect width="177" height="105" fill="white" transform="translate(0.5 0.703613)"/>
</clipPath>
</defs>
</svg>
