<svg width="145" height="86" viewBox="0 0 145 86" fill="none" xmlns="http://www.w3.org/2000/svg">
<g clip-path="url(#clip0_419_290)">
<path d="M139.658 72.1622C138.276 76.9548 134.242 80.3096 130.035 83.1595C129.447 83.5575 128.859 83.9464 128.272 84.3261C128.268 84.3278 128.263 84.3315 128.259 84.3333C128.231 84.3515 128.203 84.3697 128.176 84.388C128.055 84.4662 127.934 84.5445 127.813 84.6218L127.879 84.6515C127.879 84.6515 127.944 84.686 127.873 84.657C127.852 84.6481 127.83 84.6402 127.809 84.6313C125.365 83.6454 122.877 82.5869 121.003 80.74C119.06 78.8222 117.925 75.8141 118.977 73.2946C119.115 72.9645 119.29 72.651 119.498 72.3597C119.583 72.2375 119.675 72.1206 119.771 72.0059C120.351 71.2975 121.11 70.7565 121.969 70.4385C122.827 70.1204 123.755 70.0369 124.657 70.1965C125.559 70.356 126.402 70.7529 127.1 71.3463C127.797 71.9397 128.324 72.7082 128.626 73.5727C128.936 70.6945 126.562 68.2835 124.278 66.5045C121.993 64.7265 119.397 62.7902 118.955 59.9279C118.708 58.3354 119.262 56.792 120.271 55.5531C120.302 55.5155 120.333 55.4779 120.366 55.4413C121.594 53.9983 123.321 53.0717 125.202 52.8466C128.706 52.4824 132.109 54.337 134.655 56.7731C138.751 60.6927 141.228 66.713 139.658 72.1622Z" fill="#F2F2F2"/>
<path d="M133.072 65.8937C133.744 66.9399 134.26 68.0786 134.604 69.2738C134.895 70.3421 135.024 71.4478 134.988 72.5543C134.894 74.8313 134.255 77.0524 133.124 79.0309C132.272 80.5318 131.234 81.9191 130.035 83.1597C129.447 83.5577 128.859 83.9466 128.271 84.3263C128.267 84.328 128.263 84.3317 128.259 84.3335C128.231 84.3517 128.203 84.3699 128.176 84.3882C128.055 84.4664 127.934 84.5446 127.813 84.6219C127.813 84.6219 127.944 84.6861 127.873 84.6572C127.852 84.6483 127.83 84.6404 127.809 84.6315C128.028 82.8353 127.813 81.0127 127.183 79.3166C126.553 77.6204 125.525 76.1 124.186 74.8828C122.844 73.6842 121.237 72.8197 119.498 72.3599C119.583 72.2377 119.675 72.1208 119.771 72.0061C120.442 72.1945 121.096 72.442 121.725 72.7456C123.971 73.8242 125.81 75.5974 126.97 77.8026C128.011 79.8051 128.459 82.0629 128.261 84.3111C128.362 84.22 128.462 84.1271 128.56 84.0349C130.417 82.3032 132.067 80.3154 133.184 78.0213C134.153 76.0785 134.629 73.9274 134.57 71.7573C134.479 69.391 133.536 67.1993 132.171 65.2913C130.675 63.2556 128.908 61.4341 126.918 59.8774C124.913 58.2714 122.719 56.9168 120.385 55.8439C120.332 55.8193 120.291 55.7754 120.27 55.7213C120.249 55.6673 120.249 55.6071 120.271 55.5533C120.286 55.505 120.32 55.4648 120.365 55.4414C120.389 55.4314 120.414 55.4268 120.439 55.4279C120.464 55.429 120.489 55.4357 120.511 55.4476C120.799 55.5803 121.085 55.7148 121.369 55.8551C123.734 57.0238 125.944 58.4818 127.949 60.1954C129.886 61.8467 131.709 63.7332 133.072 65.8937Z" fill="white"/>
<path d="M83.6603 43.7452C83.9462 43.6415 84.206 43.4764 84.4212 43.2615C84.6364 43.0466 84.8018 42.7872 84.9059 42.5014C85.01 42.2156 85.0502 41.9105 85.0236 41.6075C84.997 41.3046 84.9043 41.0111 84.752 40.7479L89.5845 35.1531L85.775 34.6572L81.77 40.0461C81.3446 40.3312 81.0387 40.7625 80.9101 41.2581C80.7815 41.7537 80.8391 42.2793 81.0721 42.7353C81.3051 43.1912 81.6973 43.5459 82.1743 43.732C82.6513 43.9182 83.1801 43.9228 83.6603 43.7452Z" fill="#FFB8B8"/>
<path d="M110.899 44.9273C111.1 44.6986 111.248 44.4287 111.333 44.1367C111.418 43.8447 111.437 43.5376 111.391 43.237C111.344 42.9365 111.232 42.6498 111.063 42.3972C110.894 42.1446 110.671 41.9322 110.411 41.775L111.947 34.5435L108.37 35.9459L107.46 42.598C107.225 43.0529 107.164 43.5782 107.291 44.0744C107.417 44.5706 107.721 45.0033 108.145 45.2904C108.569 45.5775 109.083 45.6991 109.591 45.6322C110.099 45.5653 110.564 45.3145 110.899 44.9273Z" fill="#FFB8B8"/>
<path d="M93.5908 82.6152L91.0544 82.615L89.8479 72.832L93.5912 72.8322L93.5908 82.6152Z" fill="#FFB8B8"/>
<path d="M94.2374 85.074L86.0593 85.0737V84.9702C86.0593 84.5522 86.1416 84.1383 86.3016 83.7521C86.4616 83.3659 86.6961 83.015 86.9916 82.7194C87.2872 82.4238 87.6381 82.1893 88.0243 82.0294C88.4105 81.8694 88.8245 81.7871 89.2425 81.7871L94.2376 81.7873L94.2374 85.074Z" fill="#2F2E41"/>
<path d="M106.004 82.6152L103.467 82.615L102.261 72.832L106.004 72.8322L106.004 82.6152Z" fill="#FFB8B8"/>
<path d="M106.65 85.074L98.4722 85.0737V84.9702C98.4722 84.5522 98.5545 84.1383 98.7145 83.7521C98.8744 83.3659 99.1089 83.015 99.4045 82.7194C99.7001 82.4238 100.051 82.1893 100.437 82.0294C100.823 81.8694 101.237 81.7871 101.655 81.7871L106.65 81.7873L106.65 85.074Z" fill="#2F2E41"/>
<path d="M93.8549 77.507L90.2645 77.3634C90.0196 77.3528 89.7886 77.2463 89.6215 77.067C89.4544 76.8876 89.3645 76.6498 89.3712 76.4047L90.3827 43.2254L90.4488 43.2015C96.7413 40.9252 101.947 41.0974 106.363 43.727L106.413 43.7565L107.019 76.0718C107.021 76.1955 106.999 76.3184 106.953 76.4334C106.907 76.5484 106.839 76.6531 106.752 76.7414C106.666 76.8297 106.562 76.8999 106.448 76.9478C106.334 76.9957 106.212 77.0203 106.088 77.0203H103.06C102.845 77.0199 102.636 76.9449 102.469 76.8079C102.303 76.6709 102.189 76.4805 102.147 76.269L98.0226 55.2893C98.0084 55.2168 97.9688 55.1518 97.9109 55.1059C97.8529 55.06 97.7806 55.0363 97.7067 55.039C97.6329 55.0417 97.5624 55.0707 97.5081 55.1208C97.4537 55.1708 97.419 55.2386 97.4101 55.3119L94.8162 76.689C94.7877 76.9144 94.6782 77.1217 94.508 77.2723C94.3379 77.423 94.1188 77.5066 93.8916 77.5076C93.8794 77.5076 93.8671 77.5074 93.8549 77.507Z" fill="#2F2E41"/>
<path d="M97.3478 14.1282C100.154 14.1282 102.429 11.8533 102.429 9.04703C102.429 6.24076 100.154 3.96582 97.3478 3.96582C94.5415 3.96582 92.2666 6.24076 92.2666 9.04703C92.2666 11.8533 94.5415 14.1282 97.3478 14.1282Z" fill="#FFB8B8"/>
<path d="M85.3777 39.7065C85.2014 39.6369 85.0505 39.5153 84.9452 39.3577L83.9633 37.8886C83.8574 37.7293 83.803 37.5412 83.8074 37.35C83.8118 37.1587 83.8748 36.9734 83.9879 36.8191L87.946 31.4469L90.4256 19.549C90.5682 19.1815 90.7818 18.8458 91.0543 18.5609C91.3267 18.2761 91.6526 18.0477 92.0133 17.8889C92.3741 17.7301 92.7626 17.644 93.1566 17.6355C93.5507 17.6269 93.9425 17.6961 94.3098 17.8392C94.6771 17.9822 95.0126 18.1962 95.2971 18.4689C95.5816 18.7417 95.8096 19.0679 95.9679 19.4288C96.1263 19.7897 96.212 20.1783 96.22 20.5724C96.2281 20.9665 96.1584 21.3582 96.015 21.7253L94.843 29.2975C94.4877 31.5958 93.3096 33.6867 91.528 35.1814L86.3177 39.5537C86.2175 39.6377 86.1007 39.6997 85.9749 39.7356C85.8492 39.7715 85.7173 39.7805 85.5878 39.7621C85.5158 39.7519 85.4453 39.7333 85.3777 39.7065Z" fill="#474BA1"/>
<path d="M110.682 40.2456C110.504 40.3098 110.31 40.3182 110.127 40.2696L108.42 39.8155C108.235 39.7659 108.07 39.6607 107.947 39.5142C107.824 39.3678 107.748 39.187 107.731 38.9965L107.153 32.3487L101.153 21.7794C101.017 21.4094 100.956 21.0163 100.972 20.6226C100.989 20.2288 101.082 19.8422 101.248 19.4847C101.414 19.1272 101.649 18.806 101.939 18.5393C102.229 18.2726 102.569 18.0656 102.939 17.9303C103.309 17.795 103.702 17.734 104.096 17.7508C104.49 17.7675 104.876 17.8616 105.234 18.0279C105.591 18.1941 105.912 18.4291 106.179 18.7194C106.445 19.0098 106.652 19.3498 106.786 19.7201L110.91 26.1783C112.162 28.1382 112.659 30.4861 112.309 32.7852L111.287 39.5098C111.267 39.6391 111.221 39.7627 111.15 39.8728C111.079 39.9828 110.986 40.0768 110.877 40.1485C110.816 40.1884 110.751 40.221 110.682 40.2456Z" fill="#474BA1"/>
<path d="M91.79 18.0704C92.6628 17.1133 93.7393 16.3644 94.9401 15.8789C96.141 15.3934 97.4355 15.1837 98.7282 15.2652C98.8132 15.2705 98.8978 15.2764 98.9821 15.283C100.207 15.3799 101.398 15.7372 102.474 16.3311C103.55 16.925 104.487 17.7418 105.222 18.7268C105.969 19.7257 106.494 20.8725 106.763 22.0907C107.031 23.3089 107.037 24.5703 106.778 25.7907C105.793 30.4546 106.043 35.295 107.502 39.833L108.865 44.0655C108.909 44.2012 108.921 44.345 108.9 44.486C108.879 44.627 108.826 44.7613 108.746 44.8787C108.665 44.9961 108.558 45.0933 108.434 45.163C108.31 45.2326 108.171 45.2728 108.029 45.2804L101.06 45.655L99.2765 42.5746V45.7509L90.8066 46.2063C90.7898 46.2073 90.773 46.2077 90.7563 46.2077C90.6278 46.2076 90.5007 46.181 90.383 46.1294C90.2652 46.0778 90.1595 46.0024 90.0723 45.9079C89.9852 45.8134 89.9186 45.7019 89.8766 45.5804C89.8347 45.4589 89.8184 45.3301 89.8287 45.202L90.786 33.3307L89.5852 25.268C89.3909 23.9798 89.4881 22.6644 89.8696 21.4187C90.2512 20.173 90.9075 19.0288 91.79 18.0704Z" fill="#474BA1"/>
<path d="M100.879 13.8974C100.409 14.1681 98.5493 14.3476 98.4168 13.8212L98.414 13.8097C98.3217 13.424 98.3983 13.0213 98.4248 12.6257C98.4513 12.23 98.4125 11.7954 98.1431 11.5045C97.6408 10.9622 96.7471 11.2497 96.0208 11.1126C95.5953 11.0176 95.2191 10.7709 94.9624 10.4185C94.7058 10.0662 94.5863 9.63241 94.6264 9.19834C94.6367 9.11611 94.653 9.03378 94.6712 8.9515C94.7166 8.74304 94.7131 8.52688 94.6609 8.32C94.6087 8.11312 94.5093 7.92115 94.3705 7.75915C94.2316 7.59716 94.0571 7.46955 93.8606 7.38635C93.6642 7.30315 93.4511 7.26663 93.2381 7.27964C92.5041 7.32161 91.7118 7.544 91.1044 7.00032C90.6348 6.57989 90.5202 5.48546 90.7266 4.88986C91.0734 3.8889 93.2947 3.36489 94.2646 3.07682C95.4642 2.73023 96.7259 2.6553 97.958 2.85748C99.1901 3.05965 100.362 3.53385 101.388 4.2456C102 4.67741 102.572 5.21998 102.833 5.92253C103.095 6.62509 102.969 7.51144 102.38 7.97522C102.836 8.45843 103.158 9.05309 103.312 9.69963C103.466 10.3462 103.447 11.0219 103.258 11.659C102.967 12.5961 101.58 13.4945 100.879 13.8974Z" fill="#2F2E41"/>
<path d="M55.0304 28.8679H9.30966C9.2548 28.8679 9.20218 28.8461 9.16338 28.8073C9.12458 28.7685 9.10278 28.7159 9.10278 28.661C9.10278 28.6061 9.12458 28.5535 9.16338 28.5147C9.20218 28.4759 9.2548 28.4541 9.30966 28.4541H55.0304C55.0852 28.4541 55.1379 28.4759 55.1767 28.5147C55.2155 28.5535 55.2373 28.6061 55.2373 28.661C55.2373 28.7159 55.2155 28.7685 55.1767 28.8073C55.1379 28.8461 55.0852 28.8679 55.0304 28.8679Z" fill="#E6E6E6"/>
<path d="M45.017 28.8679H19.0331C18.9782 28.8679 18.9256 28.8461 18.8868 28.8073C18.848 28.7685 18.8262 28.7159 18.8262 28.661C18.8262 28.6061 18.848 28.5535 18.8868 28.5147C18.9256 28.4759 18.9782 28.4541 19.0331 28.4541H45.017C45.0718 28.4541 45.1245 28.4759 45.1633 28.5147C45.2021 28.5535 45.2239 28.6061 45.2239 28.661C45.2239 28.7159 45.2021 28.7685 45.1633 28.8073C45.1245 28.8461 45.0718 28.8679 45.017 28.8679Z" fill="#3F3D56"/>
<path d="M32.2735 28.8682C32.2187 28.8682 32.166 28.8464 32.1272 28.8076C32.0884 28.7688 32.0667 28.7162 32.0667 28.6613V15.6278C32.0667 15.5729 32.0884 15.5203 32.1272 15.4815C32.166 15.4427 32.2187 15.4209 32.2735 15.4209C32.3284 15.4209 32.381 15.4427 32.4198 15.4815C32.4586 15.5203 32.4804 15.5729 32.4804 15.6278V28.6613C32.4804 28.7162 32.4586 28.7688 32.4198 28.8076C32.381 28.8464 32.3284 28.8682 32.2735 28.8682Z" fill="#3F3D56"/>
<path d="M45.307 28.868C45.2521 28.868 45.1995 28.8462 45.1607 28.8074C45.1219 28.7686 45.1001 28.716 45.1001 28.6611V2.59409C45.1001 2.53922 45.1219 2.4866 45.1607 2.4478C45.1995 2.409 45.2521 2.38721 45.307 2.38721C45.3618 2.38721 45.4145 2.409 45.4533 2.4478C45.4921 2.4866 45.5139 2.53922 45.5139 2.59409V28.6611C45.5139 28.716 45.4921 28.7686 45.4533 28.8074C45.4145 28.8462 45.3618 28.868 45.307 28.868Z" fill="#3F3D56"/>
<path d="M2.27569 4.86974C3.53252 4.86974 4.55138 3.85088 4.55138 2.59405C4.55138 1.33722 3.53252 0.318359 2.27569 0.318359C1.01886 0.318359 0 1.33722 0 2.59405C0 3.85088 1.01886 4.86974 2.27569 4.86974Z" fill="#E6E6E6"/>
<path d="M2.27569 17.9034C3.53252 17.9034 4.55138 16.8846 4.55138 15.6277C4.55138 14.3709 3.53252 13.3521 2.27569 13.3521C1.01886 13.3521 0 14.3709 0 15.6277C0 16.8846 1.01886 17.9034 2.27569 17.9034Z" fill="#E6E6E6"/>
<path d="M2.27569 30.9366C3.53252 30.9366 4.55138 29.9178 4.55138 28.6609C4.55138 27.4041 3.53252 26.3853 2.27569 26.3853C1.01886 26.3853 0 27.4041 0 28.6609C0 29.9178 1.01886 30.9366 2.27569 30.9366Z" fill="#E6E6E6"/>
<path d="M55.0304 2.80097H9.30966C9.2548 2.80097 9.20218 2.77917 9.16338 2.74037C9.12458 2.70157 9.10278 2.64896 9.10278 2.59409C9.10278 2.53922 9.12458 2.4866 9.16338 2.4478C9.20218 2.409 9.2548 2.38721 9.30966 2.38721H55.0304C55.0852 2.38721 55.1379 2.409 55.1767 2.4478C55.2155 2.4866 55.2373 2.53922 55.2373 2.59409C55.2373 2.64896 55.2155 2.70157 55.1767 2.74037C55.1379 2.77917 55.0852 2.80097 55.0304 2.80097Z" fill="#E6E6E6"/>
<path d="M55.0304 15.8347H9.30966C9.2548 15.8347 9.20218 15.8129 9.16338 15.7741C9.12458 15.7353 9.10278 15.6826 9.10278 15.6278C9.10278 15.5729 9.12458 15.5203 9.16338 15.4815C9.20218 15.4427 9.2548 15.4209 9.30966 15.4209H55.0304C55.0852 15.4209 55.1379 15.4427 55.1767 15.4815C55.2155 15.5203 55.2373 15.5729 55.2373 15.6278C55.2373 15.6826 55.2155 15.7353 55.1767 15.7741C55.1379 15.8129 55.0852 15.8347 55.0304 15.8347Z" fill="#E6E6E6"/>
<path d="M19.1365 30.9366C20.3934 30.9366 21.4122 29.9178 21.4122 28.6609C21.4122 27.4041 20.3934 26.3853 19.1365 26.3853C17.8797 26.3853 16.8608 27.4041 16.8608 28.6609C16.8608 29.9178 17.8797 30.9366 19.1365 30.9366Z" fill="#474BA1"/>
<path d="M32.2735 17.9034C33.5303 17.9034 34.5492 16.8846 34.5492 15.6277C34.5492 14.3709 33.5303 13.3521 32.2735 13.3521C31.0167 13.3521 29.9978 14.3709 29.9978 15.6277C29.9978 16.8846 31.0167 17.9034 32.2735 17.9034Z" fill="#474BA1"/>
<path d="M32.2735 30.9366C33.5303 30.9366 34.5492 29.9178 34.5492 28.6609C34.5492 27.4041 33.5303 26.3853 32.2735 26.3853C31.0167 26.3853 29.9978 27.4041 29.9978 28.6609C29.9978 29.9178 31.0167 30.9366 32.2735 30.9366Z" fill="#474BA1"/>
<path d="M45.3069 4.86974C46.5638 4.86974 47.5826 3.85088 47.5826 2.59405C47.5826 1.33722 46.5638 0.318359 45.3069 0.318359C44.0501 0.318359 43.0312 1.33722 43.0312 2.59405C43.0312 3.85088 44.0501 4.86974 45.3069 4.86974Z" fill="#474BA1"/>
<path d="M45.3069 17.9034C46.5638 17.9034 47.5826 16.8846 47.5826 15.6277C47.5826 14.3709 46.5638 13.3521 45.3069 13.3521C44.0501 13.3521 43.0312 14.3709 43.0312 15.6277C43.0312 16.8846 44.0501 17.9034 45.3069 17.9034Z" fill="#474BA1"/>
<path d="M45.3069 30.9366C46.5638 30.9366 47.5826 29.9178 47.5826 28.6609C47.5826 27.4041 46.5638 26.3853 45.3069 26.3853C44.0501 26.3853 43.0312 27.4041 43.0312 28.6609C43.0312 29.9178 44.0501 30.9366 45.3069 30.9366Z" fill="#474BA1"/>
<path d="M144.047 85.1393H53.2262C53.1713 85.1393 53.1187 85.1175 53.0799 85.0788C53.0411 85.04 53.0193 84.9873 53.0193 84.9325C53.0193 84.8776 53.0411 84.825 53.0799 84.7862C53.1187 84.7474 53.1713 84.7256 53.2262 84.7256H144.047C144.102 84.7256 144.154 84.7474 144.193 84.7862C144.232 84.825 144.254 84.8776 144.254 84.9325C144.254 84.9873 144.232 85.04 144.193 85.0788C144.154 85.1175 144.102 85.1393 144.047 85.1393Z" fill="#3F3D56"/>
<path d="M67.2364 66.738C67.0993 66.7309 66.9614 66.7272 66.8227 66.7271C64.7377 66.7271 62.7381 67.5553 61.2638 69.0296C59.7894 70.5039 58.9612 72.5035 58.9612 74.5885H67.2364V66.738Z" fill="#474BA1"/>
<path d="M68.8914 85.1396C66.7522 85.1371 64.7014 84.2863 63.1888 82.7737C61.6762 81.2611 60.8254 79.2103 60.823 77.0712C60.823 77.0163 60.8448 76.9637 60.8836 76.9249C60.9224 76.8861 60.975 76.8643 61.0299 76.8643H69.0982V69.2206C69.0982 69.1926 69.1039 69.1648 69.115 69.139C69.1261 69.1132 69.1423 69.0899 69.1627 69.0706C69.1829 69.0511 69.2069 69.036 69.2333 69.0262C69.2597 69.0165 69.2878 69.0123 69.3158 69.014C71.416 69.1247 73.39 70.051 74.8173 71.5956C76.2445 73.1403 77.0123 75.1811 76.9569 77.2835C76.9016 79.3859 76.0276 81.3836 74.521 82.851C73.0144 84.3184 70.9945 85.1396 68.8914 85.1396ZM61.2395 77.2781C61.2795 78.7562 61.7468 80.1911 62.5849 81.4094C63.423 82.6276 64.596 83.577 65.9621 84.1429C67.3282 84.7088 68.829 84.8668 70.283 84.598C71.737 84.3292 73.0821 83.6449 74.1556 82.628C75.2291 81.6111 75.985 80.305 76.3321 78.8677C76.6792 77.4303 76.6025 75.9232 76.1114 74.5285C75.6202 73.1337 74.7356 71.9111 73.5645 71.0084C72.3933 70.1057 70.9858 69.5614 69.512 69.4415V77.0712C69.512 77.1261 69.4902 77.1787 69.4514 77.2175C69.4126 77.2563 69.36 77.2781 69.3051 77.2781H61.2395Z" fill="#3F3D56"/>
</g>
<defs>
<clipPath id="clip0_419_290">
<rect width="144.254" height="84.8212" fill="white" transform="translate(0 0.318359)"/>
</clipPath>
</defs>
</svg>
