<svg width="24" height="24" viewBox="0 0 24 24" fill="none" xmlns="http://www.w3.org/2000/svg">
<path d="M18.5079 1.12091C19.1649 0.901927 19.9041 1.02967 20.0866 1.12091C15.7069 7.96426 6.46363 21.7057 5.3687 21.9247C4.27376 22.1437 4.00003 21.8334 4.00002 21.6509L4.00002 10.1541C4.00002 9.46163 4.45625 9.05919 4.82122 8.78546C9.10972 6.32185 17.851 1.3399 18.5079 1.12091Z" fill="url(#paint0_linear_115_358)"/>
<path d="M20.4455 1.76344C20.4455 1.24238 20.0791 1.03118 19.6261 1.29171L5.70247 9.30812C5.25102 9.56865 4.88306 10.2023 4.88306 10.7218V11.8502L20.4455 2.89345V1.76498V1.76344Z" fill="url(#paint1_linear_115_358)"/>
<path d="M4.88306 11.9119C4.87224 11.9119 4.86296 11.9088 4.85214 11.9042C4.83359 11.8934 4.82122 11.8733 4.82122 11.8518V10.7233C4.82122 10.1837 5.20154 9.52699 5.66999 9.25721L19.5952 1.2408C19.8333 1.1036 20.0605 1.08356 20.2352 1.18376C20.41 1.28397 20.5058 1.49055 20.5058 1.76495V2.89342C20.5058 2.915 20.495 2.93504 20.4749 2.94583L4.91398 11.9042C4.9047 11.9088 4.89388 11.9119 4.88306 11.9119ZM19.991 1.2408C19.8889 1.2408 19.7761 1.27626 19.6555 1.34409L5.73184 9.3605C5.2974 9.61024 4.94335 10.2223 4.94335 10.7217V11.7469L20.3852 2.85796V1.76341C20.3852 1.53371 20.311 1.36413 20.175 1.28705C20.1208 1.25622 20.059 1.2408 19.991 1.2408Z" fill="url(#paint2_linear_115_358)"/>
<path d="M4.88305 11.8518V21.2818C4.88305 21.8029 5.24946 22.0141 5.70245 21.7536L19.6261 13.7372C20.0775 13.4766 20.4455 12.843 20.4455 12.3235V2.89343L4.88305 11.8518Z" fill="url(#paint3_linear_115_358)"/>
<path d="M5.33604 21.9247C5.24792 21.9247 5.16598 21.9031 5.09332 21.8615C4.91861 21.7613 4.82276 21.5547 4.82276 21.2803V11.8502C4.82276 11.8286 4.83358 11.8086 4.85368 11.7978L20.4146 2.84101C20.4331 2.83022 20.4563 2.83022 20.4749 2.84101C20.4934 2.8518 20.5058 2.87184 20.5058 2.89342V12.3235C20.5058 12.8631 20.1255 13.5198 19.657 13.7896L5.73183 21.8044C5.59269 21.8846 5.45818 21.9247 5.33604 21.9247ZM4.94335 11.8857V21.2803C4.94335 21.51 5.01756 21.6796 5.15361 21.7567C5.28812 21.8353 5.47364 21.8137 5.67154 21.6996L19.5952 13.6832C20.0296 13.4335 20.3837 12.8214 20.3837 12.322V2.99671L4.94335 11.8872V11.8857Z" fill="url(#paint4_linear_115_358)"/>
<path d="M9.76547 14.6683L5.69165 17.0131V12.3219L9.76547 9.97714V14.6683Z" fill="url(#paint5_linear_115_358)"/>
<path d="M5.69165 17.0732C5.68083 17.0732 5.67 17.0701 5.66073 17.0655C5.64217 17.0547 5.62981 17.0347 5.62981 17.0131V12.322C5.62981 12.3004 5.64063 12.2803 5.66073 12.2695L9.73455 9.92319C9.7531 9.9124 9.77629 9.9124 9.79484 9.92319C9.81339 9.93398 9.82576 9.95403 9.82576 9.97561V14.6667C9.82576 14.6883 9.81494 14.7084 9.79484 14.7192L5.72102 17.0655C5.71175 17.0701 5.70092 17.0732 5.6901 17.0732H5.69165ZM5.75194 12.3559V16.9083L9.70517 14.6328V10.0804L5.75194 12.3559Z" fill="url(#paint6_linear_115_358)"/>
<path d="M9.76546 18.5L5.69165 20.8463V17.67L9.76546 15.3236V18.5Z" fill="url(#paint7_linear_115_358)"/>
<path d="M5.69164 18.4468C5.69164 18.4468 5.67617 18.4452 5.66999 18.4406C5.65608 18.4329 5.64835 18.419 5.64835 18.4036V17.6698C5.64835 17.6544 5.65608 17.6405 5.66999 17.6328L9.74536 15.2865C9.75927 15.2787 9.77473 15.2787 9.78864 15.2865C9.80256 15.2942 9.81029 15.308 9.81029 15.3234V16.0573C9.81029 16.0727 9.80256 16.0866 9.78864 16.0943L5.71483 18.4406C5.71483 18.4406 5.70091 18.4468 5.69318 18.4468H5.69164ZM5.73492 17.6945V18.3296L9.72371 16.0341V15.399L5.73492 17.6945Z" fill="url(#paint8_linear_115_358)"/>
<path d="M19.6369 9L10.4967 14.2615V9.55639L19.6369 4.2933V9Z" fill="url(#paint9_linear_115_358)"/>
<path d="M10.4967 10.3332C10.4967 10.3332 10.4813 10.3317 10.4751 10.3271C10.4612 10.3194 10.4534 10.3055 10.4534 10.2901V9.55627C10.4534 9.54086 10.4612 9.52698 10.4751 9.51927L19.6153 4.25773C19.6292 4.25003 19.6447 4.25003 19.6586 4.25773C19.6725 4.26544 19.6802 4.27932 19.6802 4.29473V5.02854C19.6802 5.04396 19.6725 5.05783 19.6586 5.06554L10.5184 10.3271C10.5184 10.3271 10.5045 10.3332 10.4967 10.3332ZM10.54 9.58094V10.2161L19.5936 5.00388V4.36873L10.54 9.58094Z" fill="url(#paint10_linear_115_358)"/>
<path d="M19.6369 12.7953L10.4967 18.0568V14.9027L19.6369 9.64114V12.7953Z" fill="url(#paint11_linear_115_358)"/>
<path d="M10.4967 18.1169C10.4859 18.1169 10.4751 18.1138 10.4658 18.1092C10.4473 18.0984 10.4349 18.0783 10.4349 18.0568V14.9026C10.4349 14.881 10.4457 14.861 10.4658 14.8502L19.606 9.58866C19.6246 9.57787 19.6477 9.57787 19.6663 9.58866C19.6848 9.59945 19.6972 9.61949 19.6972 9.64107V12.7952C19.6972 12.8168 19.6864 12.8368 19.6663 12.8476L10.5261 18.1092C10.5168 18.1138 10.506 18.1169 10.4952 18.1169H10.4967ZM10.557 14.9381V17.9535L19.5766 12.7613V9.7459L10.557 14.9381Z" fill="url(#paint12_linear_115_358)"/>
<path d="M18.7511 2.90115C18.7511 3.13856 18.9181 3.23414 19.1237 3.11544C19.3293 2.99673 19.4963 2.70845 19.4963 2.47104C19.4963 2.23363 19.3293 2.13805 19.1237 2.25676C18.9181 2.37546 18.7511 2.66374 18.7511 2.90115Z" fill="white"/>
<path d="M18.9582 3.2264C18.9119 3.2264 18.8701 3.21561 18.8315 3.19403C18.7418 3.14161 18.6923 3.03833 18.6923 2.90112C18.6923 2.64059 18.8701 2.33535 19.0958 2.20431C19.2149 2.13648 19.3293 2.12569 19.4205 2.1781C19.5102 2.23052 19.5596 2.33381 19.5596 2.47101C19.5596 2.73154 19.3818 3.03678 19.1561 3.16782C19.0881 3.20636 19.0216 3.2264 18.9598 3.2264H18.9582ZM18.8129 2.90112C18.8129 2.99362 18.8407 3.05991 18.8918 3.0892C18.9428 3.11849 19.0154 3.10924 19.0943 3.06299C19.2798 2.95662 19.4375 2.6853 19.4375 2.47101C19.4375 2.37851 19.4097 2.31222 19.3587 2.28293C19.3076 2.25364 19.235 2.26289 19.1561 2.30914C18.9706 2.41551 18.8129 2.68684 18.8129 2.90112Z" fill="white"/>
<path d="M17.5776 3.57635C17.5776 3.81376 17.7446 3.90934 17.9502 3.79064C18.1558 3.67193 18.3228 3.38365 18.3228 3.14624C18.3228 2.90883 18.1558 2.81325 17.9502 2.93196C17.7446 3.05066 17.5776 3.33895 17.5776 3.57635Z" fill="white"/>
<path d="M17.7833 3.90321C17.7369 3.90321 17.6951 3.89242 17.6565 3.87083C17.5668 3.81842 17.5173 3.71513 17.5173 3.57793C17.5173 3.31739 17.6951 3.01215 17.9209 2.88112C18.0399 2.81174 18.1543 2.80403 18.2455 2.85491C18.3352 2.90732 18.3847 3.01061 18.3847 3.14782C18.3847 3.40835 18.2069 3.71359 17.9812 3.84463C17.9131 3.88317 17.8466 3.90321 17.7848 3.90321H17.7833ZM17.6379 3.57793C17.6379 3.67042 17.6658 3.73671 17.7168 3.766C17.7678 3.79529 17.8405 3.78604 17.9193 3.7398C18.1048 3.63342 18.2625 3.3621 18.2625 3.14782C18.2625 3.05532 18.2347 2.98903 18.1837 2.95974C18.1327 2.93045 18.06 2.9397 17.9812 2.98595C17.7956 3.09232 17.6379 3.36364 17.6379 3.57793Z" fill="white"/>
<path d="M16.4026 4.25311C16.4026 4.49052 16.5696 4.5861 16.7752 4.4674C16.9809 4.34869 17.1478 4.06041 17.1478 3.823C17.1478 3.58559 16.9809 3.49001 16.7752 3.60872C16.5696 3.72742 16.4026 4.0157 16.4026 4.25311Z" fill="white"/>
<path d="M16.6098 4.57841C16.5634 4.57841 16.5217 4.56762 16.483 4.54604C16.3934 4.49362 16.3439 4.39034 16.3439 4.25313C16.3439 3.9926 16.5217 3.68736 16.7474 3.55632C16.8664 3.48849 16.9808 3.47924 17.0721 3.53011C17.1617 3.58253 17.2112 3.68582 17.2112 3.82302C17.2112 4.08355 17.0334 4.38879 16.8077 4.51983C16.7397 4.55837 16.6732 4.57841 16.6113 4.57841H16.6098ZM16.9422 3.61799C16.902 3.61799 16.8556 3.63186 16.8061 3.66115C16.6206 3.76752 16.4629 4.03885 16.4629 4.25313C16.4629 4.34563 16.4908 4.41192 16.5418 4.44121C16.5928 4.4705 16.6655 4.46125 16.7443 4.415C16.9298 4.30863 17.0875 4.03731 17.0875 3.82302C17.0875 3.73052 17.0597 3.66423 17.0087 3.63494C16.9886 3.62415 16.9669 3.61799 16.9422 3.61799Z" fill="white"/>
<defs>
<linearGradient id="paint0_linear_115_358" x1="11.9415" y1="1" x2="11.9415" y2="22" gradientUnits="userSpaceOnUse">
<stop stop-color="#2E3489"/>
<stop offset="0.671875" stop-color="#6B68A7"/>
<stop offset="1" stop-color="#7A75AF"/>
</linearGradient>
<linearGradient id="paint1_linear_115_358" x1="13.0583" y1="11.8502" x2="13.0583" y2="1.18012" gradientUnits="userSpaceOnUse">
<stop stop-color="#2E3489"/>
<stop offset="0.671875" stop-color="#6B68A7"/>
<stop offset="1" stop-color="#7A75AF"/>
</linearGradient>
<linearGradient id="paint2_linear_115_358" x1="13.5569" y1="11.9119" x2="13.5569" y2="1.12091" gradientUnits="userSpaceOnUse">
<stop stop-color="#807DB4"/>
<stop offset="1" stop-color="#B1B1D4"/>
</linearGradient>
<linearGradient id="paint3_linear_115_358" x1="4.88305" y1="12.3731" x2="20.4455" y2="12.3731" gradientUnits="userSpaceOnUse">
<stop stop-color="#9E99C5"/>
<stop offset="1" stop-color="#BDB9D9"/>
</linearGradient>
<linearGradient id="paint4_linear_115_358" x1="4.82276" y1="12.3726" x2="20.5058" y2="12.3726" gradientUnits="userSpaceOnUse">
<stop stop-color="#9E99C5"/>
<stop offset="1" stop-color="#BDB9D9"/>
</linearGradient>
<linearGradient id="paint5_linear_115_358" x1="10" y1="12.5" x2="6" y2="14.5" gradientUnits="userSpaceOnUse">
<stop stop-color="#D7D9FF"/>
<stop offset="1" stop-color="#7A75AF"/>
<stop offset="1" stop-color="#CCC8EE"/>
</linearGradient>
<linearGradient id="paint6_linear_115_358" x1="7.70123" y1="9.9151" x2="7.70123" y2="17.0732" gradientUnits="userSpaceOnUse">
<stop stop-color="#D7D9FF"/>
<stop offset="1" stop-color="#7A75AF"/>
<stop offset="1" stop-color="#CCC8EE"/>
</linearGradient>
<linearGradient id="paint7_linear_115_358" x1="5.69165" y1="18.085" x2="9.76546" y2="18.085" gradientUnits="userSpaceOnUse">
<stop stop-color="#2E3489"/>
<stop offset="0.822917" stop-color="#6B68A7"/>
<stop offset="1" stop-color="#7A75AF"/>
</linearGradient>
<linearGradient id="paint8_linear_115_358" x1="5.64835" y1="16.8637" x2="9.81029" y2="16.8637" gradientUnits="userSpaceOnUse">
<stop stop-color="#2E3489"/>
<stop offset="0.822917" stop-color="#6B68A7"/>
<stop offset="1" stop-color="#7A75AF"/>
</linearGradient>
<linearGradient id="paint9_linear_115_358" x1="10.4967" y1="9.27742" x2="19.6369" y2="9.27742" gradientUnits="userSpaceOnUse">
<stop stop-color="#5F559C"/>
<stop offset="1" stop-color="#9E99C5"/>
</linearGradient>
<linearGradient id="paint10_linear_115_358" x1="10.4534" y1="7.2926" x2="19.6802" y2="7.2926" gradientUnits="userSpaceOnUse">
<stop stop-color="#5F559C"/>
<stop offset="1" stop-color="#9E99C5"/>
</linearGradient>
<linearGradient id="paint11_linear_115_358" x1="19.9357" y1="11.0405" x2="10.5661" y2="16.9638" gradientUnits="userSpaceOnUse">
<stop offset="0.17716" stop-color="#D7D9FF"/>
<stop offset="1" stop-color="#7A75AF"/>
<stop offset="1" stop-color="#CCC8EE"/>
</linearGradient>
<linearGradient id="paint12_linear_115_358" x1="20" y1="11" x2="10.5" y2="17" gradientUnits="userSpaceOnUse">
<stop offset="0.17716" stop-color="#D7D9FF"/>
<stop offset="1" stop-color="#7A75AF"/>
<stop offset="1" stop-color="#CCC8EE"/>
</linearGradient>
</defs>
</svg>
