<svg width="24" height="24" viewBox="0 0 24 24" fill="none" xmlns="http://www.w3.org/2000/svg">
<path d="M6.85801 15.2192C7.66937 14.5024 8.39148 13.5916 8.96755 12.5881C9.31643 11.9809 9.30832 11.3232 8.96755 11.1123C8.52941 10.8425 8.13996 10.4208 7.88844 9.86424C7.51521 9.97387 7.06085 9.83051 7.06085 9.29923C7.06085 8.76795 7.28803 8.17764 7.59635 7.88249C7.6856 5.58028 8.44016 3.21061 10.9959 1.68424C13.5436 0.157868 14.9108 1.3619 15 3.55447C15.3083 3.48701 14.931 4.05391 14.931 4.58519C14.931 5.11647 14.4686 5.80797 14.1034 6.14529C13.8519 7.00546 13.4625 7.89936 13.0243 8.69206C12.6836 9.30767 12.6755 9.98231 13.0243 10.1678C13.6004 10.4799 14.1278 11.3653 14.931 11.1123C16.002 10.775 17 10.5979 17 11.9641V14.3422C17 14.806 16.6836 15.3626 16.3022 15.5987L6.5 22.0545C6.11055 22.2822 5 21.9993 5 21.5439V19.1658C5 17.7997 5.79513 16.1721 6.86613 15.2192H6.85801Z" fill="url(#paint0_linear_118_450)"/>
<path d="M7.85801 15.2192C8.66937 14.5024 9.39148 13.5916 9.96755 12.5881C10.3164 11.9809 10.3083 11.3231 9.96755 11.1123C9.52941 10.8425 9.13996 10.4208 8.88844 9.86423C8.51521 9.97386 8.06085 9.8305 8.06085 9.29922C8.06085 8.76794 8.28803 8.17763 8.59635 7.88248C8.6856 5.58027 9.44016 3.2106 11.9959 1.68423C14.5436 0.157853 15.3063 1.61676 15.3955 3.80934C15.7039 3.74188 15.931 4.0539 15.931 4.58518C15.931 5.11645 15.4686 5.80796 15.1034 6.14528C14.8519 7.00544 14.4625 7.89934 14.0243 8.69204C13.6836 9.30765 13.6755 9.98229 14.0243 10.1678C14.6004 10.4798 15.3306 10.5136 16.1339 10.2606C17.2049 9.92326 18 10.5979 18 11.964V14.3421C18 14.806 17.6836 15.3625 17.3022 15.5987L6.69777 21.9571C6.30832 22.1848 6 21.9993 6 21.5439V19.1658C6 17.7997 6.79513 16.1721 7.86613 15.2192H7.85801Z" fill="url(#paint1_linear_118_450)"/>
<defs>
<linearGradient id="paint0_linear_118_450" x1="17" y1="11.5674" x2="5" y2="11.5674" gradientUnits="userSpaceOnUse">
<stop stop-color="#2E3489"/>
<stop offset="0.822917" stop-color="#6B68A7"/>
<stop offset="1" stop-color="#7A75AF"/>
</linearGradient>
<linearGradient id="paint1_linear_118_450" x1="6" y1="11.5545" x2="18" y2="11.5545" gradientUnits="userSpaceOnUse">
<stop stop-color="#B1B1D4"/>
<stop offset="1" stop-color="#807DB4"/>
</linearGradient>
</defs>
</svg>
