<svg width="23" height="20" viewBox="0 0 23 20" fill="none" xmlns="http://www.w3.org/2000/svg">
<g clip-path="url(#clip0_208_110)">
<g clip-path="url(#clip1_208_110)">
<path d="M13.6174 1.51752L11.3634 2.55088V11.2344C11.3634 11.4143 11.2533 11.5777 11.0881 11.6456L4.15925 14.4648L3.58108 14.6998L3.29474 17.0125L0.919662 15.6212C0.776496 15.5514 0.671875 15.4028 0.671875 15.2229V4.43406C0.671875 4.36982 0.686559 4.30741 0.71409 4.25052C0.758141 4.14957 0.842572 4.06697 0.949029 4.02292L10.7522 0.0326322C10.9064 -0.0297734 11.0679 0.00142943 11.1872 0.0913669L13.5751 1.49366C13.588 1.501 13.6027 1.50834 13.6155 1.51752H13.6174Z" fill="url(#paint0_linear_208_110)"/>
<path d="M4.15925 6.28552V16.9128L3.7426 17.0817C3.58108 17.1478 3.41405 17.1111 3.29474 17.0138L0.919662 15.6207C0.776496 15.5509 0.671875 15.4022 0.671875 15.2224V4.43355C0.671875 4.3693 0.686559 4.3069 0.71409 4.25L3.17177 5.70185L4.15925 6.28552V6.28552Z" fill="url(#paint1_linear_208_110)"/>
<path d="M13.8225 1.88977V12.6786C13.8225 12.8603 13.7142 13.0218 13.5472 13.0897L9.24305 14.8408L4.15883 16.9112L3.74218 17.08C3.58066 17.1461 3.41364 17.1094 3.29433 17.0121C3.19705 16.9313 3.13281 16.8102 3.13281 16.6689V5.88006C3.13281 5.81765 3.14566 5.75525 3.17136 5.70018C3.21541 5.5974 3.29984 5.51296 3.40813 5.46891L13.2131 1.47863C13.338 1.42723 13.4683 1.43825 13.5766 1.49148C13.5894 1.49882 13.6041 1.50616 13.6169 1.51534C13.7381 1.59059 13.8225 1.72641 13.8225 1.88977V1.88977Z" fill="url(#paint2_linear_208_110)"/>
<path d="M0.671757 7.27159L3.13311 8.75464L10.0032 5.94272C10.4547 5.75734 10.9503 6.08956 10.9503 6.57779V7.28995C10.9503 7.76533 10.6622 8.19299 10.2216 8.37287L3.13127 11.2637L0.669922 9.83756V7.27159H0.671757Z" fill="url(#paint3_linear_208_110)"/>
<path style="mix-blend-mode:overlay" opacity="0.51" d="M0.671875 7.26953V9.8355L3.13322 11.2598V8.75075L0.671875 7.26953Z" fill="url(#paint4_linear_208_110)"/>
<path opacity="0.16" d="M13.8223 6.0625V12.6812C13.8223 12.8629 13.714 13.0244 13.5469 13.0923L9.24278 14.8433C9.17671 14.6286 9.12164 14.4047 9.07943 14.1734C9.0519 14.0321 9.03171 13.8889 9.01519 13.7421C8.99867 13.5934 8.98766 13.4484 8.98031 13.2997C8.95095 12.6481 9.01886 11.9947 9.17487 11.3578C9.19506 11.2789 9.21525 11.1999 9.23728 11.121C9.30335 10.8861 9.38044 10.6548 9.46855 10.4254C9.62456 10.0253 9.81545 9.63981 10.0375 9.27088C10.3514 8.74594 10.7277 8.25404 11.1535 7.81536C11.2875 7.6777 11.4251 7.54555 11.5683 7.4189C11.906 7.11972 12.2695 6.85175 12.6531 6.62232C12.9633 6.4351 13.2881 6.27358 13.624 6.13775C13.6901 6.11206 13.7562 6.08636 13.8223 6.0625V6.0625Z" fill="black"/>
</g>
<path d="M21.1497 10.7196C21.1479 10.8279 21.1424 10.938 21.1332 11.0463C21.1204 11.2262 21.1002 11.4061 21.0727 11.586C21.0286 11.8705 20.968 12.1568 20.8909 12.4395C20.8818 12.4743 20.8726 12.511 20.8616 12.5459C20.8487 12.5955 20.8322 12.6469 20.8175 12.6964C20.7937 12.7753 20.7661 12.8543 20.7404 12.935C20.6689 13.1443 20.5863 13.3517 20.4982 13.5572C20.4853 13.5866 20.4743 13.6141 20.4614 13.6417C20.4101 13.7573 20.3587 13.8729 20.3018 13.9831C20.2504 14.0895 20.1971 14.1942 20.1421 14.2969C20.109 14.3575 20.076 14.4162 20.0411 14.475C20.0191 14.5154 19.9952 14.5557 19.9714 14.5961C19.898 14.7209 19.8209 14.8439 19.742 14.9632C19.6557 15.0972 19.5657 15.2275 19.4703 15.3542C19.2904 15.6038 19.094 15.8406 18.8885 16.0682C18.7196 16.2572 18.5416 16.4352 18.3562 16.6059C18.2607 16.6959 18.1635 16.7803 18.0643 16.8611C17.9138 16.9914 17.7578 17.1107 17.5981 17.2245C17.5009 17.2942 17.4017 17.3622 17.3026 17.4264C17.2971 17.4301 17.2916 17.4337 17.2861 17.4374C17.1833 17.5016 17.0805 17.5641 16.9778 17.621C16.7869 17.7311 16.5905 17.8284 16.3922 17.9146C16.2638 17.9715 16.1298 18.0229 15.9976 18.0706C15.8985 18.1055 15.7994 18.1367 15.7021 18.1642C15.6819 18.1716 15.6636 18.1771 15.6434 18.1826C15.6287 18.1863 15.614 18.1918 15.5993 18.1955C15.4011 18.2487 15.2065 18.2909 15.012 18.3184C14.9404 18.3294 14.8706 18.3386 14.8009 18.3441C14.788 18.346 14.7752 18.3478 14.7624 18.3478C14.7422 18.3496 14.722 18.3515 14.7018 18.3533C14.6926 18.3551 14.6816 18.357 14.6724 18.357C14.4191 18.3753 14.1713 18.3717 13.9291 18.3496C13.8153 18.3386 13.7015 18.3221 13.5913 18.3001L13.7804 18.6929C13.7804 18.6929 13.7785 18.691 13.7767 18.691L12.5451 17.9568H12.5433C12.0183 17.698 11.5521 17.3236 11.1667 16.8519C10.9978 16.6463 10.8437 16.4206 10.7078 16.1783C10.427 15.6827 10.2214 15.1156 10.1058 14.486C10.0783 14.3447 10.0581 14.1997 10.0416 14.0547C10.025 13.906 10.014 13.761 10.0067 13.6123C9.97731 12.9607 10.0452 12.3073 10.2012 11.6704C10.2783 11.3529 10.3774 11.0427 10.4949 10.738C10.6509 10.3379 10.8418 9.95241 11.0639 9.58348C11.3411 9.11727 11.6696 8.6786 12.0385 8.27847C12.2129 8.08575 12.4001 7.90404 12.5947 7.7315C12.9324 7.43232 13.2958 7.16435 13.6794 6.93492C13.9896 6.7477 14.3145 6.58618 14.6504 6.45035C14.7899 6.39529 14.9312 6.34206 15.0725 6.29618C15.2175 6.24845 15.3607 6.20807 15.502 6.1732C15.8416 6.08693 16.1757 6.03554 16.5005 6.01168C16.897 5.98598 17.2788 6.0025 17.6422 6.06307C17.8973 6.10529 18.1451 6.16769 18.3819 6.25029C18.3929 6.25396 18.4039 6.25763 18.4131 6.2613C18.6168 6.33472 18.8132 6.42282 19.0004 6.52561L19.0078 6.52928L19.2519 6.67612L19.2684 6.68713L20.8487 7.63422L20.1714 7.50207C20.3366 7.70764 20.4835 7.9334 20.612 8.17752C20.7606 8.46385 20.8818 8.77404 20.9699 9.1081C21.0341 9.34304 21.0818 9.59082 21.113 9.84962C21.1167 9.87899 21.1204 9.90836 21.1222 9.93772C21.1332 10.0497 21.1424 10.1635 21.1479 10.2791C21.1534 10.426 21.1553 10.5728 21.1497 10.7196V10.7196Z" fill="url(#paint5_linear_208_110)"/>
<g style="mix-blend-mode:overlay" opacity="0.51">
<path d="M14.8358 19.2458C14.8174 19.2403 14.7991 19.2348 14.7807 19.2274C14.7513 19.2183 14.7238 19.2072 14.6963 19.1962C14.3696 19.0696 14.063 18.9026 13.7804 18.6933C13.7785 18.6933 13.7785 18.6915 13.7767 18.6915L12.5451 17.9573H12.5433C12.0183 17.6985 11.5521 17.3241 11.1667 16.8524C10.9978 16.6468 10.8436 16.421 10.7078 16.1787C10.427 15.6832 10.2214 15.116 10.1058 14.4864C10.0783 14.3451 10.0581 14.2001 10.0416 14.0551C10.025 13.9064 10.014 13.7614 10.0067 13.6128C9.97731 12.9612 10.0452 12.3078 10.2012 11.6709C10.2783 11.3533 10.3774 11.0431 10.4949 10.7384C10.6509 10.3383 10.8418 9.95287 11.0639 9.58394C11.3411 9.11773 11.6696 8.67906 12.0385 8.27893L14.0153 9.22786L14.0961 10.2227L14.2025 11.5167L14.276 12.3995L14.3934 13.8495L14.465 14.7269L14.5861 16.2008L14.6596 17.0873L14.7532 18.24L14.7624 18.3483L14.8358 19.2458V19.2458Z" fill="url(#paint6_linear_208_110)"/>
</g>
<path d="M22.9901 11.6655C22.9901 11.7169 22.9901 11.7683 22.9864 11.8215C22.9846 11.9298 22.9791 12.0399 22.9699 12.1482C22.9295 12.7007 22.8212 13.255 22.6542 13.7983C22.6303 13.8772 22.6028 13.9561 22.5771 14.0369C22.5532 14.1085 22.5276 14.1801 22.5 14.2516C22.467 14.3361 22.4339 14.4205 22.3991 14.5049C22.3789 14.5563 22.3569 14.6077 22.3348 14.6591C22.322 14.6885 22.311 14.716 22.2981 14.7435C22.2467 14.8592 22.1953 14.9748 22.1384 15.0849C22.0375 15.2942 21.9274 15.4998 21.8081 15.698C21.7346 15.8228 21.6575 15.9458 21.5786 16.0651C21.3235 16.4579 21.0372 16.8268 20.7251 17.17C20.5563 17.3591 20.3782 17.5371 20.1929 17.7078C19.9506 17.9336 19.6991 18.1391 19.4348 18.3264C19.3375 18.3961 19.2384 18.464 19.1393 18.5283C19.031 18.5962 18.9227 18.6623 18.8144 18.7228C18.6235 18.8329 18.4271 18.9302 18.2289 19.0165C18.1004 19.0734 17.9664 19.1248 17.8343 19.1725C17.715 19.2147 17.5975 19.2514 17.48 19.2845C17.4654 19.2881 17.4507 19.2936 17.436 19.2973C17.2378 19.3505 17.0432 19.3928 16.8486 19.4203C16.744 19.4368 16.6412 19.4478 16.5385 19.4552C16.5293 19.457 16.5183 19.4588 16.5091 19.4588C16.2558 19.4772 16.008 19.4735 15.7657 19.4515C15.6336 19.4386 15.5014 19.4185 15.3729 19.3928C15.1894 19.3561 15.0095 19.3083 14.837 19.2459C14.8186 19.2404 14.8003 19.2349 14.7819 19.2276C14.7526 19.2184 14.725 19.2074 14.6975 19.1964C14.3708 19.0697 14.0643 18.9027 13.7816 18.6935C13.7798 18.6935 13.7798 18.6916 13.7779 18.6916C13.4934 18.4842 13.2328 18.2364 13.0034 17.9538C12.8345 17.7482 12.6803 17.5224 12.5445 17.2802C12.2637 16.7846 12.0581 16.2174 11.9425 15.5879C11.9149 15.4465 11.8947 15.3034 11.8782 15.1565C11.8617 15.0079 11.8507 14.8629 11.8434 14.7142C11.814 14.0626 11.8819 13.4092 12.0379 12.7723C12.0581 12.6933 12.0783 12.6144 12.1003 12.5355C12.1664 12.3006 12.2435 12.0693 12.3316 11.8399C12.4876 11.4397 12.6785 11.0543 12.9006 10.6853C13.2144 10.1604 13.5907 9.66851 14.0165 9.22983C14.1505 9.09217 14.2882 8.96002 14.4313 8.83337C14.7691 8.53419 15.1325 8.26622 15.5161 8.03678C15.8263 7.84957 16.1512 7.68805 16.4871 7.55222C16.6266 7.49716 16.7679 7.44393 16.9092 7.39804C17.0542 7.35032 17.1974 7.30994 17.3387 7.27507C17.6783 7.1888 18.0123 7.13741 18.3372 7.11355C18.7337 7.08785 19.1154 7.10437 19.4789 7.16494C19.734 7.20716 19.9818 7.26956 20.2185 7.35216C20.2296 7.35583 20.2406 7.3595 20.2497 7.36317C20.459 7.43842 20.6591 7.52836 20.8499 7.63482C21.2941 7.87893 21.6851 8.20564 22.0081 8.6021C22.0705 8.67919 22.1311 8.75995 22.1862 8.84438C22.2431 8.92698 22.2981 9.01141 22.3495 9.09951C22.3844 9.15825 22.4174 9.21882 22.4486 9.27939C22.7038 9.76762 22.8745 10.3293 22.9497 10.9515C22.957 11.0139 22.9644 11.0781 22.9681 11.1442C22.9754 11.2231 22.9809 11.3021 22.9846 11.381C22.9883 11.4764 22.9901 11.57 22.9901 11.6655V11.6655Z" fill="url(#paint7_linear_208_110)"/>
<path d="M18.2287 19.0157C18.0983 19.0726 17.9662 19.124 17.8322 19.1717C17.7147 19.2139 17.5954 19.2506 17.4798 19.2836C17.4651 19.2891 17.4504 19.2928 17.4357 19.2965L17.4247 19.1607L17.3623 18.3861L17.2614 17.1196L17.1916 16.2588L17.1769 16.0624L17.1054 15.1869L17.0962 15.0639L16.9989 13.8635L16.9292 12.9917L16.8245 11.683L16.7548 10.8075L16.4905 7.54955C16.63 7.49449 16.7713 7.44126 16.9145 7.39538C17.0595 7.34765 17.2008 7.30727 17.3421 7.2724L17.5881 10.5193L17.656 11.3948L17.7551 12.7109L17.823 13.5827L17.8799 14.3463L17.9221 14.9152L17.99 15.7908L18.1516 17.9089L18.236 19.0157H18.2287Z" fill="url(#paint8_linear_208_110)"/>
<path d="M22.9838 11.3817C22.9911 11.5285 22.9911 11.6754 22.9874 11.8222L11.9416 15.5886C11.9159 15.4491 11.8939 15.3041 11.8774 15.1572C11.8609 15.0104 11.8499 14.8636 11.8425 14.7167L22.9489 10.954C22.9654 11.0935 22.9764 11.2367 22.9838 11.3835V11.3817Z" fill="url(#paint9_linear_208_110)"/>
<path d="M20.9084 12.9992C20.9139 13.3626 20.9029 13.7389 20.8754 14.1298C20.8607 14.3409 20.8423 14.5593 20.8166 14.7814C20.8093 14.8493 20.8019 14.9136 20.7928 14.9797C20.7928 14.9998 20.7891 15.0182 20.7854 15.0366C20.6771 15.879 20.4862 16.7711 20.1926 17.7071C19.9521 17.9329 19.6988 18.1366 19.4345 18.3257C19.3372 18.3954 19.24 18.4615 19.139 18.5258C19.1445 18.4835 19.1537 18.4395 19.1702 18.3936C19.1959 18.322 19.2234 18.2486 19.2491 18.1789C19.4639 17.5676 19.6327 16.9748 19.7576 16.3966C19.8402 16.0222 19.9044 15.6569 19.9521 15.299C19.9558 15.2752 19.9595 15.2513 19.9613 15.2293C20.0017 14.9191 20.0329 14.6144 20.0512 14.3189C20.0861 13.7958 20.0879 13.2947 20.0622 12.8175C20.0549 12.667 20.0439 12.5238 20.031 12.3806C20.0274 12.3256 20.0237 12.2724 20.0182 12.2173C20.0109 12.1292 19.9998 12.0392 19.9907 11.953V11.9493C19.9319 11.4556 19.8457 10.9912 19.7465 10.5617C19.6786 10.2772 19.6071 10.0074 19.53 9.7541C19.0399 8.1701 18.3993 7.23035 18.3846 7.20832C18.3626 7.17896 18.3479 7.14592 18.3369 7.11105C18.7334 7.08535 19.1151 7.10187 19.4767 7.16244C19.7355 7.64333 20.0861 8.3977 20.3779 9.38151C20.433 9.56689 20.4826 9.75961 20.534 9.96151C20.5523 10.0349 20.5707 10.1083 20.5872 10.1873C20.6881 10.6296 20.7726 11.1252 20.8313 11.6667C20.846 11.8098 20.8588 11.9511 20.8698 12.0961C20.8809 12.2393 20.89 12.3825 20.8955 12.5312C20.9029 12.6853 20.9047 12.8395 20.9066 12.9992H20.9084Z" fill="url(#paint10_linear_208_110)"/>
<path d="M16.5084 19.4566C16.2532 19.4767 16.0055 19.4731 15.765 19.4492C15.6329 19.4364 15.5007 19.4162 15.3722 19.3905C15.2933 19.2675 15.218 19.1427 15.1465 19.0142C14.8308 18.4617 14.5701 17.8615 14.3646 17.2246C14.2783 16.9603 14.2012 16.6887 14.1333 16.4115C14.0177 15.9343 13.9277 15.4406 13.869 14.9266C13.8525 14.7798 13.8378 14.6348 13.8268 14.488C13.8158 14.3411 13.8047 14.1961 13.7992 14.0475C13.7882 13.8272 13.7827 13.6051 13.7827 13.383C13.7827 13.093 13.7901 12.7975 13.8066 12.4983C13.8102 12.3974 13.8176 12.3001 13.8249 12.1991C13.8414 11.9881 13.8616 11.7825 13.8837 11.5806C14.0158 10.4371 14.2471 9.47166 14.4306 8.82741C14.7684 8.52823 15.1318 8.26209 15.5154 8.03082C15.5099 8.07487 15.5007 8.12076 15.4823 8.16481C15.4658 8.20519 14.9684 9.5359 14.7316 11.386C14.6949 11.6797 14.6637 11.9881 14.6454 12.3056C14.6142 12.7755 14.6032 13.2619 14.6215 13.7648C14.627 13.9116 14.6344 14.0585 14.6454 14.2071C14.6546 14.354 14.6674 14.499 14.6839 14.644V14.6476C14.7335 15.1102 14.8124 15.5801 14.9244 16.0444C14.9904 16.3161 15.0657 16.5877 15.1556 16.8575C15.3851 17.5513 15.6971 18.2286 16.1137 18.8655C16.2184 19.0289 16.3322 19.1867 16.4515 19.3428C16.4753 19.3758 16.4937 19.4125 16.5065 19.4547L16.5084 19.4566Z" fill="url(#paint11_linear_208_110)"/>
<path d="M22.4484 9.27872C21.8042 9.61278 21.1838 9.91563 20.5891 10.1891C20.3046 10.3213 20.022 10.4461 19.7485 10.5635C19.0051 10.8848 18.304 11.1601 17.6505 11.3968C17.5092 11.4482 17.3716 11.4978 17.2357 11.5455C17.1385 11.5804 17.0412 11.6116 16.9457 11.6446L16.8209 11.6868C16.0041 11.9567 15.2755 12.1604 14.6441 12.3146C14.3431 12.3898 14.0622 12.4522 13.8071 12.5036C12.9022 12.6872 12.2947 12.7514 12.0396 12.7716C12.1166 12.4559 12.2158 12.1457 12.3332 11.841C12.4507 11.8282 12.603 11.8098 12.7866 11.7823C13.0784 11.7401 13.4473 11.6777 13.886 11.5859C14.143 11.5327 14.4275 11.4684 14.7322 11.3932C14.7781 11.3822 14.8239 11.3711 14.8698 11.3583C15.3984 11.2243 16.0298 11.0463 16.7493 10.8095C16.8852 10.7636 17.0247 10.7177 17.166 10.67C17.3018 10.6223 17.4413 10.5746 17.5826 10.5213C18.1828 10.3066 18.8344 10.0533 19.5282 9.75594C19.8035 9.63847 20.088 9.51366 20.378 9.38335C20.8993 9.14657 21.4426 8.88594 22.0061 8.60144C22.1731 8.80885 22.32 9.03461 22.4466 9.27872H22.4484Z" fill="url(#paint12_linear_208_110)"/>
<path d="M22.6536 13.7963C22.6298 13.877 22.6023 13.9559 22.5766 14.0367C22.505 14.246 22.4242 14.4552 22.3343 14.6589C22.3233 14.6883 22.3104 14.7158 22.2976 14.7434C21.8552 14.8168 21.4221 14.9012 21.0054 14.9893C20.9302 15.0058 20.8567 15.0205 20.7833 15.037C20.7448 15.0444 20.7044 15.0554 20.6658 15.0627C20.4823 15.1031 20.3006 15.1472 20.1226 15.1912C20.0675 15.2022 20.0161 15.2151 19.961 15.2298C19.2507 15.406 18.5881 15.595 17.9842 15.7914C17.8447 15.8355 17.7108 15.8795 17.5786 15.9236C17.4391 15.9713 17.3051 16.0172 17.1748 16.0631C17.1014 16.0888 17.028 16.1144 16.9582 16.1401C16.3525 16.3586 15.8221 16.5715 15.3687 16.7679C15.2971 16.8009 15.2237 16.8303 15.1558 16.8633C15.0861 16.8945 15.0163 16.9239 14.9484 16.9551C14.7392 17.0487 14.5446 17.1405 14.3647 17.2286C13.737 17.5351 13.2745 17.7939 13.0028 17.9554C12.8339 17.748 12.6798 17.5241 12.5439 17.28C12.777 17.135 13.3167 16.8138 14.1335 16.4155C14.306 16.331 14.4914 16.2448 14.6878 16.1548C14.7648 16.12 14.8438 16.0851 14.9245 16.0502C15.5211 15.7841 16.2204 15.4996 17.0078 15.2224C17.039 15.2114 17.072 15.1986 17.1032 15.1875C17.2372 15.1417 17.373 15.0939 17.5107 15.048C17.6428 15.004 17.7805 14.9599 17.9182 14.9159C18.5771 14.7067 19.2911 14.5029 20.0528 14.3194C20.3226 14.2533 20.5961 14.1909 20.8769 14.1303C20.965 14.1101 21.055 14.0918 21.1467 14.0753C21.6331 13.9743 22.1361 13.8807 22.6555 13.7981L22.6536 13.7963Z" fill="url(#paint13_linear_208_110)"/>
</g>
<defs>
<linearGradient id="paint0_linear_208_110" x1="7.06268" y1="-3.78692e-07" x2="7.06269" y2="17.0125" gradientUnits="userSpaceOnUse">
<stop stop-color="#807DB4"/>
<stop offset="1" stop-color="#B1B1D4"/>
</linearGradient>
<linearGradient id="paint1_linear_208_110" x1="2.39349" y1="4.25" x2="2.39351" y2="17.1151" gradientUnits="userSpaceOnUse">
<stop stop-color="#2E3489"/>
<stop offset="0.671875" stop-color="#6B68A7"/>
<stop offset="1" stop-color="#7A75AF"/>
</linearGradient>
<linearGradient id="paint2_linear_208_110" x1="13.8225" y1="9.27938" x2="3.13281" y2="9.27938" gradientUnits="userSpaceOnUse">
<stop stop-color="#2E3489"/>
<stop offset="0.822917" stop-color="#6B68A7"/>
<stop offset="1" stop-color="#7A75AF"/>
</linearGradient>
<linearGradient id="paint3_linear_208_110" x1="0.669922" y1="8.57542" x2="10.9503" y2="8.57542" gradientUnits="userSpaceOnUse">
<stop stop-color="#9E99C5"/>
<stop offset="1" stop-color="#BDB9D9"/>
</linearGradient>
<linearGradient id="paint4_linear_208_110" x1="0.671875" y1="9.26467" x2="3.13322" y2="9.26467" gradientUnits="userSpaceOnUse">
<stop stop-color="#6B5656"/>
<stop offset="1" stop-color="#353133"/>
</linearGradient>
<linearGradient id="paint5_linear_208_110" x1="15.8589" y1="18.6929" x2="15.8589" y2="6" gradientUnits="userSpaceOnUse">
<stop stop-color="#2E3489"/>
<stop offset="0.671875" stop-color="#6B68A7"/>
<stop offset="1" stop-color="#7A75AF"/>
</linearGradient>
<linearGradient id="paint6_linear_208_110" x1="10" y1="13.7624" x2="14.8358" y2="13.7624" gradientUnits="userSpaceOnUse">
<stop stop-color="#9E99C5"/>
<stop offset="1" stop-color="#5F559C"/>
</linearGradient>
<linearGradient id="paint7_linear_208_110" x1="22.9901" y1="13.2862" x2="11.8367" y2="13.2862" gradientUnits="userSpaceOnUse">
<stop stop-color="#2E3489"/>
<stop offset="0.822917" stop-color="#6B68A7"/>
<stop offset="1" stop-color="#7A75AF"/>
</linearGradient>
<linearGradient id="paint8_linear_208_110" x1="16.4905" y1="13.2805" x2="18.236" y2="13.2805" gradientUnits="userSpaceOnUse">
<stop stop-color="#9E99C5"/>
<stop offset="1" stop-color="#BDB9D9"/>
</linearGradient>
<linearGradient id="paint9_linear_208_110" x1="11.8425" y1="13.2698" x2="22.9898" y2="13.2698" gradientUnits="userSpaceOnUse">
<stop stop-color="#9E99C5"/>
<stop offset="1" stop-color="#BDB9D9"/>
</linearGradient>
<linearGradient id="paint10_linear_208_110" x1="18.3369" y1="12.8088" x2="20.9098" y2="12.8088" gradientUnits="userSpaceOnUse">
<stop stop-color="#9E99C5"/>
<stop offset="1" stop-color="#BDB9D9"/>
</linearGradient>
<linearGradient id="paint11_linear_208_110" x1="13.7827" y1="13.7465" x2="16.5084" y2="13.7465" gradientUnits="userSpaceOnUse">
<stop stop-color="#9E99C5"/>
<stop offset="1" stop-color="#BDB9D9"/>
</linearGradient>
<linearGradient id="paint12_linear_208_110" x1="12.0396" y1="10.6852" x2="22.4484" y2="10.6852" gradientUnits="userSpaceOnUse">
<stop stop-color="#9E99C5"/>
<stop offset="1" stop-color="#BDB9D9"/>
</linearGradient>
<linearGradient id="paint13_linear_208_110" x1="12.5439" y1="15.8745" x2="22.6555" y2="15.8745" gradientUnits="userSpaceOnUse">
<stop stop-color="#9E99C5"/>
<stop offset="1" stop-color="#BDB9D9"/>
</linearGradient>
<clipPath id="clip0_208_110">
<rect width="22.99" height="19.4706" fill="white"/>
</clipPath>
<clipPath id="clip1_208_110">
<rect width="15" height="18" fill="white"/>
</clipPath>
</defs>
</svg>
