<svg width="24" height="20" viewBox="0 0 24 20" fill="none" xmlns="http://www.w3.org/2000/svg">
<path d="M9.89247 8.02081L7.90625 6.87061L8.73456 7.34625L10.7208 8.49646L9.89247 8.02081Z" fill="#696969"/>
<path d="M6.21907 13.2313L4.23285 12.081L4.22852 10.7319L6.21473 11.8821L6.21907 13.2313Z" fill="url(#paint0_linear_196_2715)"/>
<path d="M10.5077 4.46678L8.52148 3.31658L9.70107 2.6377L11.6873 3.79223L10.5077 4.46678Z" fill="url(#paint1_linear_196_2715)"/>
<path d="M6.84364 9.44798L4.85742 8.29777C5.88956 7.70105 6.72221 6.26545 6.71787 5.08065C6.71787 4.4969 6.50971 4.08179 6.17578 3.88721L8.162 5.03741C8.49593 5.232 8.70409 5.64278 8.70409 6.23086C8.70409 7.41566 7.87578 8.85126 6.84364 9.44798Z" fill="url(#paint2_linear_196_2715)"/>
<path d="M5.51747 9.57778L3.53125 8.42757C3.86951 8.62216 4.33788 8.59621 4.85828 8.29785L6.8445 9.44806C6.32843 9.74642 5.85573 9.77236 5.51747 9.57778Z" fill="url(#paint3_linear_196_2715)"/>
<path d="M2.97059 12.9594L0.984375 11.8092L1.81269 10.3779L3.7989 11.5281L2.97059 12.9594Z" fill="url(#paint4_linear_196_2715)"/>
<path d="M8.97645 2.58148L6.99023 1.43127L7.81855 0L9.8091 1.15021L8.97645 2.58148Z" fill="url(#paint5_linear_196_2715)"/>
<path d="M3.79906 11.5281L1.81285 10.3779C1.49627 10.0536 1.2751 9.58229 1.17969 8.99854L3.1659 10.1487C3.26565 10.7325 3.48248 11.1995 3.79906 11.5281Z" fill="url(#paint6_linear_196_2715)"/>
<path d="M7.45692 2.73298L5.4707 1.58278C6.03014 1.3709 6.54621 1.32333 6.99289 1.43143L8.97911 2.58164C8.53676 2.47354 8.01636 2.52543 7.45692 2.73298Z" fill="url(#paint7_linear_196_2715)"/>
<path d="M3.16004 8.69954L1.17383 7.54933C1.26924 6.85315 1.48173 6.13968 1.79832 5.45215L3.78887 6.58938C3.47229 7.27691 3.25545 8.00768 3.16004 8.70386V8.69954Z" fill="url(#paint8_linear_196_2715)"/>
<path d="M4.66743 5.07175L2.68555 3.9129C3.12789 3.29456 3.6483 2.7454 4.2034 2.31299L6.18961 3.46319C5.63018 3.8956 5.11845 4.44044 4.6761 5.05878L4.66309 5.07175H4.66743Z" fill="url(#paint9_linear_196_2715)"/>
<path d="M1.98622 9.37457L0 8.22436L1.17525 7.5498L3.16147 8.70001L1.98622 9.37457Z" fill="url(#paint10_linear_196_2715)"/>
<path d="M1.99055 10.8272L0 9.67269V8.22412L1.98622 9.37433L1.99055 10.8272Z" fill="url(#paint11_linear_196_2715)"/>
<path d="M6.19368 3.46375L4.20746 2.31354L4.20312 0.96875L6.18934 2.11896L6.19368 3.46375Z" fill="url(#paint12_linear_196_2715)"/>
<path d="M6.18934 2.11877L4.20312 0.968562L5.46945 0.237793L7.45566 1.388L6.18934 2.11877Z" fill="url(#paint13_linear_196_2715)"/>
<path d="M2.94911 6.12701L0.962891 4.9768L1.85625 3.43311L3.84247 4.58331L2.94911 6.12701Z" fill="url(#paint14_linear_196_2715)"/>
<path d="M11.6921 5.24098L10.5169 5.91986C10.4258 6.61171 10.209 7.33383 9.89673 8.02136L10.7294 8.49701L9.85336 9.99314L9.02071 9.52182C8.57837 10.1358 8.04929 10.7239 7.48985 11.152V12.5011L6.397 13.3097L6.22787 13.2319V11.8828C5.6641 12.0946 5.15236 12.1422 4.70568 12.0384L3.88604 13.4524L2.97967 12.9595L3.80798 11.5282C3.4914 11.2039 3.27023 10.7326 3.17482 10.1488L2.17304 10.9012L2.00391 10.8234V9.37047L3.17482 8.69592C3.27023 7.99974 3.48706 7.26897 3.80364 6.58144L3.13579 6.20957L2.96666 6.12309L3.86869 4.56642L4.02915 4.66155L4.68833 5.03774C5.13068 4.4194 5.64675 3.89618 6.20185 3.46378V2.11899L7.46383 1.38822L7.63297 1.46605L7.46383 2.73301C8.02327 2.52113 8.47862 2.43464 8.92097 2.54275L9.81433 1.15039L10.7077 1.66496L9.88372 3.0919C10.2003 3.42054 10.4215 3.88321 10.5169 4.46696L11.6921 3.78808L11.8613 3.86592L11.6921 5.24098ZM6.84368 9.44831C7.87582 8.85159 8.70847 7.41599 8.70413 6.23119C8.70413 5.05071 7.86281 4.57507 6.83067 5.17179C5.80287 5.76419 4.97022 7.19978 4.97456 8.38026C4.97456 9.56506 5.81588 10.0407 6.84368 9.44831Z" fill="white"/>
<path d="M11.8605 5.31826L10.6853 5.99715C10.5942 6.689 10.3774 7.41112 10.0651 8.09865L10.8978 8.5743L10.0088 10.1093L9.1761 9.63802C8.73376 10.252 8.21769 10.8012 7.65825 11.2293V12.5784L6.39627 13.3092V11.9601C5.83249 12.1719 5.32076 12.2195 4.87408 12.1157L4.04143 13.5556L3.14373 13.0497L3.97638 11.6055C3.6598 11.2812 3.43863 10.8098 3.34322 10.2261L2.16797 10.9007V9.44776L3.33888 8.77321C3.43429 8.07703 3.64679 7.3722 3.96337 6.68467L3.13072 6.20902L4.02408 4.65668L4.85673 5.13233C5.29908 4.51398 5.81081 3.96915 6.37025 3.53674V2.19195L7.63223 1.46118V2.80597C8.196 2.59409 8.71207 2.54653 9.15876 2.65463L9.9784 1.23633L10.8718 1.7509L10.0565 3.16919C10.373 3.49782 10.5942 3.9605 10.6896 4.54425L11.8649 3.86537V5.31826H11.8605ZM7.01642 9.5256C8.04856 8.92887 8.88121 7.49328 8.87687 6.30848C8.87687 5.128 8.03555 4.65236 7.00341 5.24908C5.97561 5.84148 5.14296 7.27707 5.14729 8.45755C5.14729 9.64235 5.98862 10.118 7.01642 9.5256Z" fill="url(#paint15_linear_196_2715)"/>
<path d="M0 8.32378L1.98622 9.46966V9.37453L2.0903 9.31399L0.0823976 8.17676L0 8.22432V8.32378Z" fill="white"/>
<path d="M4.20312 1.08514L6.19368 2.21373L6.18934 2.1186L6.3021 2.05374L4.2942 0.916504L4.20312 0.968392V1.08514Z" fill="white"/>
<path d="M1.76562 3.58877L3.77352 4.73033L3.85159 4.56601L1.8567 3.43311L1.76562 3.58877Z" fill="white"/>
<path d="M21.1545 12.8549L18.7129 11.4409L19.732 12.0247L22.1736 13.443L21.1545 12.8549Z" fill="#696969"/>
<path d="M16.6412 19.2629L14.1997 17.8446L14.1953 16.1885L16.6369 17.6025L16.6412 19.2629Z" fill="url(#paint16_linear_196_2715)"/>
<path d="M21.9142 8.4912L19.4727 7.07722L20.9168 6.24268L23.3584 7.65665L21.9142 8.4912Z" fill="url(#paint17_linear_196_2715)"/>
<path d="M17.4084 14.6104L14.9668 13.1964C16.2375 12.4656 17.2609 10.7014 17.2566 9.24418C17.2566 8.52639 17.0007 8.02047 16.5887 7.77832L19.0303 9.1923C19.4423 9.43012 19.6982 9.93604 19.6982 10.6582C19.6982 12.1111 18.679 13.8796 17.4084 14.6104Z" fill="url(#paint18_linear_196_2715)"/>
<path d="M15.7795 14.7703L13.3379 13.3563C13.7542 13.5984 14.331 13.5638 14.9685 13.1963L17.4101 14.6103C16.7726 14.9778 16.1958 15.0124 15.7795 14.7703Z" fill="url(#paint19_linear_196_2715)"/>
<path d="M12.6506 18.9253L10.209 17.5114L11.2238 15.7515L13.6653 17.1654L12.6506 18.9253Z" fill="url(#paint20_linear_196_2715)"/>
<path d="M20.0314 6.17388L17.5898 4.7599L18.609 3L21.0505 4.41398L20.0314 6.17388Z" fill="url(#paint21_linear_196_2715)"/>
<path d="M13.6655 17.1652L11.224 15.7513C10.8337 15.3534 10.5648 14.774 10.4434 14.0605L12.8849 15.4745C13.0064 16.1923 13.2752 16.7674 13.6655 17.1652Z" fill="url(#paint22_linear_196_2715)"/>
<path d="M18.1642 6.35991L15.7227 4.94594C16.4079 4.68649 17.0454 4.62595 17.5918 4.76L20.0334 6.17397C19.4869 6.03993 18.8494 6.10479 18.1642 6.35991Z" fill="url(#paint23_linear_196_2715)"/>
<path d="M12.881 13.6894L10.4395 12.2754C10.5565 11.4192 10.8211 10.5458 11.2071 9.69824L13.653 11.0949C13.267 11.9424 12.9981 12.8375 12.881 13.6937V13.6894Z" fill="url(#paint24_linear_196_2715)"/>
<path d="M14.7337 9.2309L12.3008 7.80828C12.8429 7.04724 13.4804 6.37268 14.1656 5.84082L16.6071 7.2548C15.9219 7.78666 15.2888 8.45257 14.7467 9.21361L14.7337 9.2309Z" fill="url(#paint25_linear_196_2715)"/>
<path d="M11.4416 14.5196L9 13.1056L10.4398 12.2754L12.8814 13.6894L11.4416 14.5196Z" fill="url(#paint26_linear_196_2715)"/>
<path d="M11.4459 16.3048L9.00434 14.8865L9 13.105L11.4416 14.519L11.4459 16.3048Z" fill="url(#paint27_linear_196_2715)"/>
<path d="M16.6061 7.25474L14.1645 5.84076L14.1602 4.18896L16.6017 5.60294L16.6061 7.25474Z" fill="url(#paint28_linear_196_2715)"/>
<path d="M16.6017 5.60301L14.1602 4.18903L15.717 3.29395L18.1586 4.70792L16.6017 5.60301Z" fill="url(#paint29_linear_196_2715)"/>
<path d="M12.6252 10.5281L10.1836 9.11416L11.2808 7.22021L13.7224 8.63419L12.6252 10.5281Z" fill="url(#paint30_linear_196_2715)"/>
<path d="M23.3626 9.44311L21.9185 10.2777C21.8057 11.1295 21.5369 12.0159 21.1552 12.8591L22.1743 13.4429L21.0988 15.2806L20.0754 14.7012C19.5333 15.4536 18.8784 16.18 18.1932 16.7076V18.3637L16.8532 19.3582L16.6407 19.2631V17.607C15.9512 17.8708 15.318 17.927 14.7716 17.7972L13.7655 19.5312L12.6509 18.9258L13.67 17.1659C13.2797 16.7681 13.0109 16.1887 12.8894 15.4752L11.6578 16.4006L11.4453 16.3054V14.5239L12.8808 13.6937C12.9979 12.8375 13.2667 11.9424 13.6527 11.0949L12.8331 10.6409L12.6206 10.5328L13.7308 8.61721L13.9303 8.73396L14.7412 9.19664C15.2833 8.4356 15.9165 7.79564 16.6017 7.26377V5.61197L18.1542 4.71689L18.3667 4.81202L18.1629 6.36869C18.8481 6.10924 19.4075 6.00114 19.954 6.13519L21.0511 4.42285L22.1527 5.05417L21.1379 6.80975C21.5238 7.21189 21.7971 7.78266 21.9141 8.50046L23.3583 7.66591L23.5708 7.76104L23.3669 9.44744L23.3626 9.44311ZM17.404 14.6147C18.6746 13.8839 19.6981 12.1197 19.6937 10.6625C19.6937 9.21394 18.6616 8.63019 17.391 9.36096C16.1246 10.0874 15.1055 11.856 15.1055 13.3045C15.1055 14.7574 16.1376 15.3455 17.404 14.6147Z" fill="white"/>
<path d="M23.5755 9.53805L22.1314 10.3726C22.0186 11.2244 21.7497 12.1109 21.3681 12.9541L22.3872 13.5378L21.2944 15.4275L20.2709 14.848C19.7288 15.6004 19.0913 16.2793 18.4061 16.8025V18.4586L16.8536 19.3537V17.6976C16.1641 17.9614 15.5309 18.0176 14.9845 17.8879L13.961 19.6564L12.8551 19.0337L13.8786 17.2609C13.4883 16.863 13.2194 16.2836 13.098 15.5701L11.6582 16.4004V14.6188L13.0937 13.7886C13.2107 12.9325 13.4753 12.0676 13.8613 11.2201L12.8378 10.6364L13.935 8.72945L14.9584 9.3132C15.5005 8.55216 16.1337 7.88625 16.8189 7.35439V5.70259L18.3714 4.8075V6.4593C19.061 6.19986 19.6985 6.13932 20.2449 6.27337L21.251 4.53076L22.3525 5.16208L21.3508 6.90468C21.7367 7.30682 22.0099 7.8776 22.127 8.5954L23.5712 7.76085V9.54237L23.5755 9.53805ZM17.6255 14.7097C18.8962 13.9789 19.9197 12.2147 19.9153 10.7574C19.9153 9.30887 18.8832 8.72512 17.6125 9.45589C16.3462 10.1823 15.3271 11.9509 15.3271 13.3995C15.3271 14.8523 16.3592 15.4404 17.6255 14.7097Z" fill="url(#paint31_linear_196_2715)"/>
<path d="M9 13.2309L11.4416 14.6363V14.5195L11.5717 14.446L9.09974 13.0493L9 13.1055V13.2309Z" fill="white"/>
<path d="M14.1602 4.3359L16.6061 5.72393L16.6017 5.60286L16.7405 5.52503L14.2729 4.12402L14.1602 4.18888V4.3359Z" fill="white"/>
<path d="M11.1719 7.41047L13.6351 8.8158L13.7349 8.61257L11.2803 7.22021L11.1719 7.41047Z" fill="white"/>
<defs>
<linearGradient id="paint0_linear_196_2715" x1="4.22852" y1="11.9816" x2="6.21907" y2="11.9816" gradientUnits="userSpaceOnUse">
<stop stop-color="#2E3489"/>
<stop offset="0.82" stop-color="#6B68A7"/>
<stop offset="1" stop-color="#7A75AF"/>
</linearGradient>
<linearGradient id="paint1_linear_196_2715" x1="8.52148" y1="3.5544" x2="11.6873" y2="3.5544" gradientUnits="userSpaceOnUse">
<stop stop-color="#2E3489"/>
<stop offset="0.82" stop-color="#6B68A7"/>
<stop offset="1" stop-color="#7A75AF"/>
</linearGradient>
<linearGradient id="paint2_linear_196_2715" x1="4.85742" y1="6.67192" x2="8.70409" y2="6.67192" gradientUnits="userSpaceOnUse">
<stop stop-color="#2E3489"/>
<stop offset="0.82" stop-color="#6B68A7"/>
<stop offset="1" stop-color="#7A75AF"/>
</linearGradient>
<linearGradient id="paint3_linear_196_2715" x1="3.53125" y1="9.00268" x2="6.8445" y2="9.00268" gradientUnits="userSpaceOnUse">
<stop stop-color="#2E3489"/>
<stop offset="0.82" stop-color="#6B68A7"/>
<stop offset="1" stop-color="#7A75AF"/>
</linearGradient>
<linearGradient id="paint4_linear_196_2715" x1="0.984375" y1="11.6665" x2="3.7989" y2="11.6665" gradientUnits="userSpaceOnUse">
<stop stop-color="#5F559C"/>
<stop offset="1" stop-color="#9E99C5"/>
</linearGradient>
<linearGradient id="paint5_linear_196_2715" x1="6.99023" y1="1.28858" x2="9.8091" y2="1.28858" gradientUnits="userSpaceOnUse">
<stop stop-color="#2E3489"/>
<stop offset="0.82" stop-color="#6B68A7"/>
<stop offset="1" stop-color="#7A75AF"/>
</linearGradient>
<linearGradient id="paint6_linear_196_2715" x1="1.17969" y1="10.2655" x2="3.79906" y2="10.2655" gradientUnits="userSpaceOnUse">
<stop stop-color="#2E3489"/>
<stop offset="0.82" stop-color="#6B68A7"/>
<stop offset="1" stop-color="#7A75AF"/>
</linearGradient>
<linearGradient id="paint7_linear_196_2715" x1="5.4707" y1="2.0541" x2="8.97477" y2="2.0541" gradientUnits="userSpaceOnUse">
<stop stop-color="#5F559C"/>
<stop offset="1" stop-color="#9E99C5"/>
</linearGradient>
<linearGradient id="paint8_linear_196_2715" x1="1.17383" y1="7.07368" x2="3.78887" y2="7.07368" gradientUnits="userSpaceOnUse">
<stop stop-color="#2E3489"/>
<stop offset="0.82" stop-color="#6B68A7"/>
<stop offset="1" stop-color="#7A75AF"/>
</linearGradient>
<linearGradient id="paint9_linear_196_2715" x1="2.68555" y1="3.69237" x2="6.19395" y2="3.69237" gradientUnits="userSpaceOnUse">
<stop stop-color="#5F559C"/>
<stop offset="1" stop-color="#9E99C5"/>
</linearGradient>
<linearGradient id="paint10_linear_196_2715" x1="0" y1="8.46219" x2="3.16147" y2="8.46219" gradientUnits="userSpaceOnUse">
<stop stop-color="#5F559C"/>
<stop offset="1" stop-color="#9E99C5"/>
</linearGradient>
<linearGradient id="paint11_linear_196_2715" x1="0" y1="9.52567" x2="1.99055" y2="9.52567" gradientUnits="userSpaceOnUse">
<stop stop-color="#2E3489"/>
<stop offset="0.82" stop-color="#6B68A7"/>
<stop offset="1" stop-color="#7A75AF"/>
</linearGradient>
<linearGradient id="paint12_linear_196_2715" x1="4.20312" y1="2.21409" x2="6.19368" y2="2.21409" gradientUnits="userSpaceOnUse">
<stop stop-color="#2E3489"/>
<stop offset="0.82" stop-color="#6B68A7"/>
<stop offset="1" stop-color="#7A75AF"/>
</linearGradient>
<linearGradient id="paint13_linear_196_2715" x1="4.20312" y1="1.18044" x2="7.45566" y2="1.18044" gradientUnits="userSpaceOnUse">
<stop stop-color="#5F559C"/>
<stop offset="1" stop-color="#9E99C5"/>
</linearGradient>
<linearGradient id="paint14_linear_196_2715" x1="0.962891" y1="4.7779" x2="3.84247" y2="4.7779" gradientUnits="userSpaceOnUse">
<stop stop-color="#5F559C"/>
<stop offset="1" stop-color="#9E99C5"/>
</linearGradient>
<linearGradient id="paint15_linear_196_2715" x1="2.1593" y1="7.39815" x2="11.8605" y2="7.39815" gradientUnits="userSpaceOnUse">
<stop stop-color="#807DB4"/>
<stop offset="1" stop-color="#B1B1D4"/>
</linearGradient>
<linearGradient id="paint16_linear_196_2715" x1="14.1953" y1="17.7235" x2="16.6412" y2="17.7235" gradientUnits="userSpaceOnUse">
<stop stop-color="#2E3489"/>
<stop offset="0.82" stop-color="#6B68A7"/>
<stop offset="1" stop-color="#7A75AF"/>
</linearGradient>
<linearGradient id="paint17_linear_196_2715" x1="19.4727" y1="7.36694" x2="23.3584" y2="7.36694" gradientUnits="userSpaceOnUse">
<stop stop-color="#2E3489"/>
<stop offset="0.82" stop-color="#6B68A7"/>
<stop offset="1" stop-color="#7A75AF"/>
</linearGradient>
<linearGradient id="paint18_linear_196_2715" x1="14.9668" y1="11.1987" x2="19.6938" y2="11.1987" gradientUnits="userSpaceOnUse">
<stop stop-color="#2E3489"/>
<stop offset="0.82" stop-color="#6B68A7"/>
<stop offset="1" stop-color="#7A75AF"/>
</linearGradient>
<linearGradient id="paint19_linear_196_2715" x1="13.3379" y1="14.0611" x2="17.4101" y2="14.0611" gradientUnits="userSpaceOnUse">
<stop stop-color="#2E3489"/>
<stop offset="0.82" stop-color="#6B68A7"/>
<stop offset="1" stop-color="#7A75AF"/>
</linearGradient>
<linearGradient id="paint20_linear_196_2715" x1="10.209" y1="17.3384" x2="13.6653" y2="17.3384" gradientUnits="userSpaceOnUse">
<stop stop-color="#5F559C"/>
<stop offset="1" stop-color="#9E99C5"/>
</linearGradient>
<linearGradient id="paint21_linear_196_2715" x1="17.5898" y1="4.58694" x2="21.0505" y2="4.58694" gradientUnits="userSpaceOnUse">
<stop stop-color="#2E3489"/>
<stop offset="0.82" stop-color="#6B68A7"/>
<stop offset="1" stop-color="#7A75AF"/>
</linearGradient>
<linearGradient id="paint22_linear_196_2715" x1="10.4477" y1="15.6129" x2="13.6655" y2="15.6129" gradientUnits="userSpaceOnUse">
<stop stop-color="#2E3489"/>
<stop offset="0.82" stop-color="#6B68A7"/>
<stop offset="1" stop-color="#7A75AF"/>
</linearGradient>
<linearGradient id="paint23_linear_196_2715" x1="15.7227" y1="5.52536" x2="20.0334" y2="5.52536" gradientUnits="userSpaceOnUse">
<stop stop-color="#5F559C"/>
<stop offset="1" stop-color="#9E99C5"/>
</linearGradient>
<linearGradient id="paint24_linear_196_2715" x1="10.4395" y1="11.6916" x2="13.6573" y2="11.6916" gradientUnits="userSpaceOnUse">
<stop stop-color="#2E3489"/>
<stop offset="0.82" stop-color="#6B68A7"/>
<stop offset="1" stop-color="#7A75AF"/>
</linearGradient>
<linearGradient id="paint25_linear_196_2715" x1="12.3008" y1="7.53586" x2="16.6071" y2="7.53586" gradientUnits="userSpaceOnUse">
<stop stop-color="#5F559C"/>
<stop offset="1" stop-color="#9E99C5"/>
</linearGradient>
<linearGradient id="paint26_linear_196_2715" x1="9" y1="13.3997" x2="12.8814" y2="13.3997" gradientUnits="userSpaceOnUse">
<stop stop-color="#5F559C"/>
<stop offset="1" stop-color="#9E99C5"/>
</linearGradient>
<linearGradient id="paint27_linear_196_2715" x1="9" y1="14.7049" x2="11.4459" y2="14.7049" gradientUnits="userSpaceOnUse">
<stop stop-color="#2E3489"/>
<stop offset="0.82" stop-color="#6B68A7"/>
<stop offset="1" stop-color="#7A75AF"/>
</linearGradient>
<linearGradient id="paint28_linear_196_2715" x1="14.1602" y1="5.72401" x2="16.6061" y2="5.72401" gradientUnits="userSpaceOnUse">
<stop stop-color="#2E3489"/>
<stop offset="0.82" stop-color="#6B68A7"/>
<stop offset="1" stop-color="#7A75AF"/>
</linearGradient>
<linearGradient id="paint29_linear_196_2715" x1="14.1602" y1="4.44848" x2="18.1586" y2="4.44848" gradientUnits="userSpaceOnUse">
<stop stop-color="#5F559C"/>
<stop offset="1" stop-color="#9E99C5"/>
</linearGradient>
<linearGradient id="paint30_linear_196_2715" x1="10.1836" y1="8.87201" x2="13.7224" y2="8.87201" gradientUnits="userSpaceOnUse">
<stop stop-color="#5F559C"/>
<stop offset="1" stop-color="#9E99C5"/>
</linearGradient>
<linearGradient id="paint31_linear_196_2715" x1="11.6495" y1="12.0936" x2="23.5755" y2="12.0936" gradientUnits="userSpaceOnUse">
<stop stop-color="#807DB4"/>
<stop offset="1" stop-color="#B1B1D4"/>
</linearGradient>
</defs>
</svg>
