<svg width="64" height="64" viewBox="0 0 64 64" fill="none" xmlns="http://www.w3.org/2000/svg">
<g clip-path="url(#clip0_100_89)">
<path d="M51.1943 31.423C52.0704 20.8343 44.1968 11.5402 33.608 10.6641C23.0193 9.78792 13.7252 17.6615 12.8491 28.2503C11.9729 38.839 19.8466 48.1331 30.4353 49.0092C41.024 49.8854 50.3181 42.0118 51.1943 31.423Z" fill="url(#paint0_linear_100_89)"/>
<path d="M44.3358 29.5907C44.3358 30.3878 44.2594 31.1668 44.115 31.9223C43.5484 34.8786 41.9251 37.4573 39.6533 39.2556C37.9967 40.5651 35.9929 41.4594 33.803 41.7746C33.3253 41.8468 32.8393 41.8871 32.3435 41.8996C32.2352 41.9024 32.1283 41.9051 32.02 41.9051C31.2604 41.9051 30.5189 41.8357 29.7982 41.7052C28.89 41.5399 28.0152 41.2733 27.1875 40.9192C26.8598 40.7789 26.5391 40.6248 26.2266 40.4582C23.1438 38.8126 20.8457 35.8937 20.0305 32.4055C19.8792 31.7584 19.7792 31.0905 19.7348 30.4073C19.7167 30.1379 19.7084 29.8657 19.7084 29.5921C19.7084 22.792 25.2212 17.2805 32.0214 17.2805C33.8905 17.2805 35.6624 17.6971 37.2496 18.4414C37.862 18.7289 38.4466 19.0649 38.9992 19.4454C42.1251 21.5978 44.2066 25.1568 44.3302 29.2075C44.3344 29.3352 44.3358 29.463 44.3358 29.5907Z" fill="white"/>
<path d="M32.0214 43.4062C24.4047 43.4062 18.2073 37.2088 18.2073 29.5907C18.2073 21.9727 24.4047 15.7766 32.0214 15.7766C39.638 15.7766 45.8369 21.9727 45.8369 29.5907C45.8369 37.2088 39.6408 43.4062 32.0214 43.4062ZM32.0214 16.0696C24.5644 16.0696 18.5003 22.1352 18.5003 29.5907C18.5003 37.0463 24.5658 43.1118 32.0214 43.1118C39.4769 43.1118 45.5439 37.0463 45.5439 29.5907C45.5439 22.1352 39.4783 16.0696 32.0214 16.0696Z" fill="#D9D9D9"/>
<path d="M14.2246 46.646L18.2419 54.4015C18.2419 54.4015 32.5073 46.5071 45.5271 54.4015L49.8208 46.646C49.8208 46.646 34.7236 36.6742 14.226 46.646H14.2246Z" fill="#686868"/>
<path d="M22.4328 49.4928C22.2537 49.6206 21.9079 49.8275 21.5358 49.9427C21.0206 50.101 20.6054 50.0871 20.2513 49.9108C19.9013 49.7414 19.6153 49.4039 19.4598 48.961C19.0987 47.9667 19.6306 47.1238 20.6512 46.8114C21.0511 46.6892 21.3816 46.6794 21.5538 46.71C21.5566 46.9086 21.5608 47.1071 21.5649 47.3057C21.3775 47.2807 21.1511 47.2807 20.8178 47.3835C20.243 47.5598 19.9208 48.0292 20.1444 48.6832C20.3568 49.3053 20.8484 49.547 21.3789 49.3831C21.5274 49.3373 21.6413 49.2831 21.6857 49.2415C21.6219 49.0276 21.5594 48.8152 21.4955 48.6027C21.3441 48.6471 21.1942 48.693 21.0428 48.7402C20.9873 48.561 20.9317 48.3819 20.8762 48.2028C21.2455 48.0875 21.6149 47.9792 21.9871 47.8764C22.1357 48.4152 22.2856 48.9554 22.4356 49.4942L22.4328 49.4928Z" fill="white"/>
<path d="M22.8743 46.2377C23.0174 46.8321 23.1604 47.4264 23.3034 48.0221C23.4326 48.5554 23.6867 48.7803 24.0241 48.7039C24.3685 48.6276 24.506 48.329 24.3921 47.7777C24.2671 47.1792 24.1436 46.5807 24.0186 45.9808C24.2546 45.9322 24.4921 45.885 24.7282 45.8406C24.8379 46.4252 24.9476 47.0112 25.0587 47.5972C25.2364 48.5665 24.8726 49.1052 24.1283 49.2705C23.409 49.433 22.8757 49.1177 22.6147 48.1346C22.4647 47.5611 22.3161 46.9876 22.1661 46.4141C22.4022 46.353 22.6383 46.2933 22.8743 46.2363V46.2377Z" fill="white"/>
<path d="M26.3029 47.975C26.2738 48.2555 26.2474 48.536 26.221 48.8151C25.9946 48.8512 25.7683 48.8901 25.5433 48.9303C25.6489 47.8319 25.7808 46.7321 25.9419 45.6323C26.2543 45.5837 26.5681 45.5393 26.882 45.499C27.3458 46.5099 27.7818 47.5292 28.1901 48.5554C27.954 48.579 27.7179 48.6068 27.4819 48.6346C27.3736 48.3735 27.2639 48.1124 27.1528 47.8514C26.8695 47.8889 26.5848 47.9277 26.3015 47.9722L26.3029 47.975ZM26.9861 47.332C26.8945 47.1168 26.8 46.9015 26.7056 46.6877C26.6251 46.5072 26.5376 46.2808 26.464 46.1003C26.4612 46.1003 26.4584 46.1003 26.4543 46.1003C26.4348 46.2947 26.4223 46.5391 26.4001 46.7294C26.3723 46.9613 26.3446 47.1932 26.3196 47.4251C26.5418 47.3917 26.7639 47.3598 26.9861 47.3306V47.332Z" fill="white"/>
<path d="M28.297 45.3893C28.5248 45.331 28.8678 45.2741 29.251 45.2491C29.7246 45.2185 30.0606 45.2755 30.2925 45.4463C30.4869 45.5907 30.5952 45.8101 30.6049 46.1031C30.6161 46.51 30.3467 46.796 30.0898 46.9071C30.0898 46.9127 30.0898 46.9168 30.0898 46.921C30.3064 47.0015 30.4314 47.2098 30.5175 47.5014C30.623 47.8569 30.7271 48.2707 30.7855 48.3916C30.5605 48.3971 30.3342 48.4054 30.1092 48.4165C30.0578 48.3291 29.9759 48.0722 29.8676 47.6847C29.7676 47.2918 29.6301 47.1904 29.351 47.2043C29.2816 47.2084 29.2135 47.2126 29.1441 47.2182C29.1733 47.6347 29.2038 48.0513 29.233 48.4679C29.015 48.4832 28.797 48.5013 28.5789 48.5207C28.4845 47.4764 28.3901 46.4322 28.2957 45.3893H28.297ZM29.108 46.6988C29.1997 46.6919 29.2899 46.6863 29.3816 46.6808C29.7273 46.6585 29.9231 46.4711 29.9106 46.192C29.8967 45.899 29.694 45.7615 29.3663 45.7768C29.1941 45.7879 29.0969 45.8087 29.0455 45.8226C29.0663 46.1142 29.0872 46.4072 29.108 46.7002V46.6988Z" fill="white"/>
<path d="M31.8742 47.5624C31.8019 47.8345 31.7311 48.1067 31.6617 48.3803C31.4326 48.3803 31.2048 48.383 30.9757 48.3872C31.252 47.3194 31.5548 46.2543 31.8853 45.1934C32.2005 45.1947 32.5171 45.2003 32.8323 45.21C33.1309 46.282 33.4003 47.3568 33.6433 48.4344C33.4072 48.4205 33.1697 48.4094 32.9323 48.4011C32.867 48.1262 32.799 47.8512 32.7309 47.5763C32.4449 47.5679 32.1602 47.5624 31.8742 47.561V47.5624ZM32.6476 47.0361C32.5907 46.8097 32.5324 46.582 32.4727 46.3556C32.4213 46.1654 32.3699 45.9279 32.3268 45.7377C32.3241 45.7377 32.3213 45.7377 32.3171 45.7377C32.2671 45.9266 32.2171 46.1668 32.1644 46.3501C32.1005 46.575 32.0366 46.8 31.9755 47.025C32.1991 47.0264 32.4241 47.0305 32.6476 47.0361Z" fill="white"/>
<path d="M34.0334 48.458C34.1057 47.3985 34.1765 46.3376 34.2487 45.2781C34.5292 45.2975 34.8097 45.3197 35.0902 45.3447C35.2763 45.753 35.454 46.1612 35.6262 46.5709C35.7734 46.925 35.9081 47.3402 35.997 47.7123C36.0011 47.7123 36.0053 47.7123 36.0109 47.7123C36.0178 47.2888 36.0553 46.8611 36.1122 46.3862C36.1497 46.0779 36.1872 45.7697 36.2233 45.4614C36.4441 45.4878 36.6635 45.5169 36.8829 45.5475C36.7371 46.6001 36.5913 47.6512 36.4455 48.7038C36.2164 48.6719 35.9859 48.6427 35.7554 48.615C35.5957 48.1831 35.429 47.7526 35.2554 47.3235C35.111 46.9667 34.9486 46.539 34.8264 46.1543C34.8222 46.1543 34.8166 46.1571 34.8125 46.1585C34.7958 46.5792 34.7666 47.0278 34.7222 47.5457C34.6944 47.8637 34.6681 48.1831 34.6403 48.5025C34.4389 48.4858 34.2362 48.4705 34.0334 48.4567V48.458Z" fill="white"/>
<path d="M38.0091 46.3377C37.7313 46.2891 37.4522 46.2447 37.1731 46.203C37.2023 46.003 37.2328 45.8031 37.262 45.6045C38.0743 45.7253 38.8825 45.8725 39.6865 46.0475C39.6435 46.2447 39.6018 46.4418 39.5588 46.639C39.2783 46.5779 38.9964 46.521 38.7145 46.4668C38.552 47.3125 38.3895 48.1568 38.2271 49.0025C38.0091 48.9608 37.7896 48.9205 37.5716 48.8831C37.7174 48.0346 37.8632 47.1875 38.0104 46.3391L38.0091 46.3377Z" fill="white"/>
<path d="M41.4209 48.3735C41.0584 48.2721 40.696 48.1763 40.3308 48.0861C40.2697 48.3305 40.21 48.5762 40.1489 48.8206C40.5474 48.9192 40.9446 49.0248 41.3403 49.1372C41.2862 49.3275 41.232 49.5163 41.1778 49.7052C40.5738 49.533 39.967 49.3775 39.356 49.2386C39.5906 48.2027 39.8267 47.1668 40.0614 46.1309C40.7057 46.2767 41.3486 46.4405 41.986 46.6224C41.9319 46.8127 41.8791 47.0015 41.8249 47.1904C41.4278 47.0779 41.0293 46.9724 40.6293 46.8738C40.5766 47.0876 40.5238 47.3029 40.4696 47.5167C40.8404 47.6084 41.2098 47.7056 41.5778 47.8097C41.525 47.9972 41.4722 48.186 41.4195 48.3735H41.4209Z" fill="white"/>
<path d="M43.7426 49.1108C43.3858 48.9844 43.0289 48.8636 42.6692 48.7484C42.5929 48.9886 42.5151 49.2288 42.4387 49.4691C42.8317 49.5954 43.2219 49.7274 43.6121 49.8676C43.5455 50.0523 43.4788 50.2384 43.4122 50.4231C42.8178 50.2092 42.2193 50.012 41.618 49.8315C41.9222 48.8136 42.2277 47.7958 42.5318 46.7793C43.1678 46.9695 43.801 47.1778 44.4286 47.4014C44.362 47.5875 44.2953 47.7722 44.2301 47.9582C43.8399 47.818 43.4469 47.6847 43.0525 47.5583C42.9858 47.768 42.9178 47.9791 42.8498 48.1888C43.215 48.3054 43.5788 48.429 43.9398 48.5581C43.8746 48.7428 43.8093 48.9261 43.7426 49.1108Z" fill="white"/>
<path d="M48.9723 28.6036L44.1163 31.921L29.7995 41.7026C28.8913 41.5373 28.0165 41.2707 27.1889 40.9166C26.8612 40.7763 26.5404 40.6222 26.2279 40.4556C23.1452 38.81 20.847 35.8911 20.0319 32.4029C19.8805 31.7558 19.7805 31.0879 19.7361 30.4047L37.2495 18.4388L40.5072 16.2128C41.2154 15.7296 42.1805 15.9115 42.6638 16.6183L49.3778 26.4457C49.8611 27.1539 49.6792 28.119 48.9723 28.6022V28.6036Z" fill="#686868"/>
<path d="M30.8159 29.3365H34.6347M30.8159 27.4272H34.6347M33.8164 33.701L30.8159 31.2461L31.6342 31.246C34.0589 31.246 34.0589 27.4272 31.6342 27.4272" stroke="white" stroke-width="0.545534" stroke-linecap="round" stroke-linejoin="round"/>
<path d="M45.6937 28.2745L44.3301 29.2063L27.7859 40.6875C22.6702 38.4823 21.283 35.594 20.4692 32.1044L38.9991 19.4442L39.3866 19.1804C39.3866 19.1804 40.5863 20.6148 41.9528 19.0859L46.4755 25.7055C46.4755 25.7055 44.6495 26.6082 45.6937 28.2745Z" stroke="white" stroke-width="0.930383" stroke-miterlimit="10"/>
<path d="M39.7102 26.8748C40.5454 26.8748 41.2224 26.1977 41.2224 25.3626C41.2224 24.5274 40.5454 23.8503 39.7102 23.8503C38.875 23.8503 38.198 24.5274 38.198 25.3626C38.198 26.1977 38.875 26.8748 39.7102 26.8748Z" stroke="white" stroke-width="0.620718" stroke-miterlimit="10"/>
<path d="M25.4072 33.6221C26.2432 33.6221 26.9195 34.2997 26.9195 35.1343C26.9195 35.9689 26.2418 36.6465 25.4072 36.6465C24.5727 36.6465 23.895 35.9689 23.895 35.1343C23.895 34.2997 24.5727 33.6221 25.4072 33.6221Z" stroke="white" stroke-width="0.620718" stroke-miterlimit="10"/>
</g>
<defs>
<linearGradient id="paint0_linear_100_89" x1="30.4352" y1="49.0092" x2="33.6079" y2="10.664" gradientUnits="userSpaceOnUse">
<stop stop-color="#888BCB"/>
<stop offset="1" stop-color="#383DA9"/>
</linearGradient>
<clipPath id="clip0_100_89">
<rect width="40.0454" height="45" fill="white" transform="translate(12 10)"/>
</clipPath>
</defs>
</svg>
