<svg width="24" height="22" viewBox="0 0 24 22" fill="none" xmlns="http://www.w3.org/2000/svg">
<path d="M13.3647 1.56666L11.0377 2.63348V11.5982C11.0377 11.7839 10.924 11.9525 10.7535 12.0227L3.35964 15.0317L3.0034 15.1758L2.7078 17.5652L0.25581 16.127C0.108009 16.055 0 15.9015 0 15.7158V4.57764C0 4.5151 0.0132642 4.45257 0.0397927 4.39762C0.0852701 4.28772 0.172435 4.19866 0.286128 4.15318L10.4067 0.0336889C10.5659 -0.0307374 10.7327 0.00147572 10.8558 0.0943253L13.3628 1.56666H13.3647Z" fill="url(#paint0_linear_196_2595)"/>
<path d="M3.35964 15.0321L3.0034 15.1761L2.7078 17.5655L0.25581 16.1273C0.108009 16.0553 0 15.9018 0 15.7161V4.57796C0 4.51543 0.0132642 4.4529 0.0397927 4.39795L2.84234 6.11093L3.35964 15.0321Z" fill="url(#paint1_linear_196_2595)"/>
<path d="M13.5769 1.95262V13.0908C13.5769 13.2784 13.4651 13.4451 13.2926 13.5152L8.41518 15.5011L3.17012 17.6347C2.86883 17.7579 2.54102 17.5362 2.54102 17.2103V6.07211C2.54102 5.88451 2.65281 5.71776 2.82525 5.64765L12.9478 1.52816C13.249 1.40499 13.5769 1.6267 13.5769 1.95262Z" fill="url(#paint2_linear_196_2595)"/>
<path opacity="0.16" d="M13.5757 4.42041V13.0914C13.5757 13.279 13.4639 13.4458 13.2915 13.5159L8.41406 15.5017V6.83071C8.41406 6.64312 8.52586 6.47637 8.6983 6.40626L13.5757 4.42041Z" fill="black"/>
<path d="M10.8777 11.7446L8.33662 6.50144C8.27029 6.36501 8.12439 6.28353 7.97469 6.30058C7.8231 6.31764 7.69993 6.42565 7.66393 6.57534L6.07412 13.2473C6.02864 13.4405 6.14802 13.6338 6.3413 13.6793C6.36782 13.6869 6.39625 13.6888 6.42467 13.6888C6.58763 13.6888 6.73543 13.5789 6.77523 13.414L7.33043 11.0795L9.37691 10.2912L10.2334 12.0592C10.3187 12.2373 10.5347 12.3112 10.7128 12.224C10.8928 12.1387 10.9667 11.9227 10.8796 11.7446H10.8777ZM7.53129 10.2325L8.12818 7.72175L9.06046 9.64317L7.53129 10.2325Z" fill="#EBECF6"/>
<path d="M23.7865 5.54615L21.4596 6.61297V15.5777C21.4596 15.7634 21.3459 15.932 21.1754 16.0022L13.8478 18.9828L13.4253 19.1552L13.1297 21.5447L10.6777 20.1065C10.5299 20.0345 10.4219 19.881 10.4219 19.6953V8.55713C10.4219 8.47944 10.4427 8.40364 10.4806 8.33732C10.528 8.24637 10.6095 8.17246 10.708 8.13267L20.8286 4.01318C20.9878 3.94875 21.1545 3.98097 21.2777 4.07382L23.7846 5.54615H23.7865Z" fill="url(#paint3_linear_196_2595)"/>
<g style="mix-blend-mode:overlay" opacity="0.51">
<path d="M13.8478 18.9829L13.4253 19.1553L13.1297 21.5448L10.6777 20.1066C10.5299 20.0346 10.4219 19.8811 10.4219 19.6954V8.55721C10.4219 8.47952 10.4427 8.40372 10.4806 8.3374L13.3646 9.99543L13.8478 18.9829Z" fill="url(#paint4_linear_196_2595)"/>
</g>
<path d="M23.7145 17.4947L13.5939 21.6142C13.2926 21.7373 12.9629 21.5156 12.9629 21.1897V10.0496C12.9629 9.86395 13.0766 9.6953 13.249 9.62519L23.3696 5.5057C23.6709 5.38253 24.0006 5.60423 24.0006 5.93016V17.0683C24.0006 17.254 23.8869 17.4227 23.7145 17.4928V17.4947Z" fill="url(#paint5_linear_196_2595)"/>
<path d="M18.5995 10.6707L18.5957 10.6709L18.8806 16.5381L18.8844 16.538L18.5995 10.6707Z" fill="#EBECF6"/>
<path d="M18.6014 10.6707L18.5977 10.6709L18.8826 16.5381L18.8863 16.538L18.6014 10.6707Z" fill="#EBECF6"/>
<path d="M18.6053 10.6707L18.6016 10.6709L18.8865 16.5381L18.8903 16.538L18.6053 10.6707Z" fill="#EBECF6"/>
<path d="M18.6093 10.6707L18.6055 10.6709L18.8904 16.5381L18.8942 16.538L18.6093 10.6707Z" fill="#EBECF6"/>
<path d="M18.6112 10.6668L18.6074 10.667L18.8923 16.5342L18.8961 16.5341L18.6112 10.6668Z" fill="#EBECF6"/>
<path d="M18.6132 10.6668L18.6094 10.667L18.8943 16.5342L18.8981 16.5341L18.6132 10.6668Z" fill="#EBECF6"/>
<path d="M18.6171 10.6668L18.6133 10.667L18.8982 16.5342L18.902 16.5341L18.6171 10.6668Z" fill="#EBECF6"/>
<path d="M18.619 10.6688L18.6152 10.6689L18.9001 16.5362L18.9039 16.536L18.619 10.6688Z" fill="#EBECF6"/>
<path d="M18.6229 10.6688L18.6191 10.6689L18.904 16.5362L18.9078 16.536L18.6229 10.6688Z" fill="#EBECF6"/>
<path d="M18.6249 10.6688L18.6211 10.6689L18.906 16.5362L18.9098 16.536L18.6249 10.6688Z" fill="#EBECF6"/>
<path d="M18.6268 10.6688L18.623 10.6689L18.908 16.5362L18.9117 16.536L18.6268 10.6688Z" fill="#EBECF6"/>
<path d="M18.6346 10.6688L18.6309 10.6689L18.9158 16.5362L18.9195 16.536L18.6346 10.6688Z" fill="#EBECF6"/>
<path d="M18.6366 10.6688L18.6328 10.6689L18.9177 16.5362L18.9215 16.536L18.6366 10.6688Z" fill="#EBECF6"/>
<path d="M18.6405 10.6688L18.6367 10.6689L18.9216 16.5362L18.9254 16.536L18.6405 10.6688Z" fill="#EBECF6"/>
<path d="M18.6444 10.6668L18.6406 10.667L18.9255 16.5342L18.9293 16.5341L18.6444 10.6668Z" fill="#EBECF6"/>
<path d="M18.6464 10.6668L18.6426 10.667L18.9275 16.5342L18.9313 16.5341L18.6464 10.6668Z" fill="#EBECF6"/>
<path d="M18.6483 10.6668L18.6445 10.667L18.9294 16.5342L18.9332 16.5341L18.6483 10.6668Z" fill="#EBECF6"/>
<path d="M18.6522 10.6653L18.6484 10.6655L18.9333 16.5328L18.9371 16.5326L18.6522 10.6653Z" fill="#EBECF6"/>
<path d="M18.6542 10.6653L18.6504 10.6655L18.9353 16.5328L18.9391 16.5326L18.6542 10.6653Z" fill="#EBECF6"/>
<path d="M18.6561 10.6668L18.6523 10.667L18.9372 16.5342L18.941 16.5341L18.6561 10.6668Z" fill="#EBECF6"/>
<path d="M18.66 10.6668L18.6562 10.667L18.9412 16.5342L18.9449 16.5341L18.66 10.6668Z" fill="#EBECF6"/>
<path d="M18.6639 10.6668L18.6602 10.667L18.9451 16.5342L18.9488 16.5341L18.6639 10.6668Z" fill="#EBECF6"/>
<path d="M18.6678 10.6668L18.6641 10.667L18.949 16.5342L18.9528 16.5341L18.6678 10.6668Z" fill="#EBECF6"/>
<path d="M18.6698 10.6668L18.666 10.667L18.9509 16.5342L18.9547 16.5341L18.6698 10.6668Z" fill="#EBECF6"/>
<path d="M18.6737 10.6668L18.6699 10.667L18.9548 16.5342L18.9586 16.5341L18.6737 10.6668Z" fill="#EBECF6"/>
<path d="M18.6776 10.6668L18.6738 10.667L18.9587 16.5342L18.9625 16.5341L18.6776 10.6668Z" fill="#EBECF6"/>
<path d="M18.6796 10.6668L18.6758 10.667L18.9607 16.5342L18.9645 16.5341L18.6796 10.6668Z" fill="#EBECF6"/>
<path d="M18.6815 10.6668L18.6777 10.667L18.9626 16.5342L18.9664 16.5341L18.6815 10.6668Z" fill="#EBECF6"/>
<path d="M18.6835 10.6668L18.6797 10.667L18.9646 16.5342L18.9684 16.5341L18.6835 10.6668Z" fill="#EBECF6"/>
<path d="M18.6874 10.6668L18.6836 10.667L18.9685 16.5342L18.9723 16.5341L18.6874 10.6668Z" fill="#EBECF6"/>
<path d="M18.6932 10.6634L18.6895 10.6636L18.9744 16.5308L18.9781 16.5306L18.6932 10.6634Z" fill="#EBECF6"/>
<path d="M18.6932 10.6634L18.6895 10.6636L18.9744 16.5308L18.9781 16.5306L18.6932 10.6634Z" fill="#EBECF6"/>
<path d="M18.6971 10.6653L18.6934 10.6655L18.9783 16.5328L18.982 16.5326L18.6971 10.6653Z" fill="#EBECF6"/>
<path d="M18.703 10.6653L18.6992 10.6655L18.9841 16.5328L18.9879 16.5326L18.703 10.6653Z" fill="#EBECF6"/>
<path d="M18.705 10.6653L18.7012 10.6655L18.9861 16.5328L18.9899 16.5326L18.705 10.6653Z" fill="#EBECF6"/>
<path d="M18.7089 10.6653L18.7051 10.6655L18.99 16.5328L18.9938 16.5326L18.7089 10.6653Z" fill="#EBECF6"/>
<path d="M18.7128 10.6653L18.709 10.6655L18.9939 16.5328L18.9977 16.5326L18.7128 10.6653Z" fill="#EBECF6"/>
<path d="M18.7128 10.6653L18.709 10.6655L18.9939 16.5328L18.9977 16.5326L18.7128 10.6653Z" fill="#EBECF6"/>
<path d="M18.7167 10.6653L18.7129 10.6655L18.9978 16.5328L19.0016 16.5326L18.7167 10.6653Z" fill="#EBECF6"/>
<path d="M18.7186 10.6653L18.7148 10.6655L18.9997 16.5328L19.0035 16.5326L18.7186 10.6653Z" fill="#EBECF6"/>
<path d="M18.7206 10.6653L18.7168 10.6655L19.0017 16.5328L19.0055 16.5326L18.7206 10.6653Z" fill="#EBECF6"/>
<path d="M18.7264 10.6653L18.7227 10.6655L19.0076 16.5328L19.0113 16.5326L18.7264 10.6653Z" fill="#EBECF6"/>
<path d="M18.7284 10.6614L18.7246 10.6616L19.0095 16.5289L19.0133 16.5287L18.7284 10.6614Z" fill="#EBECF6"/>
<path d="M18.7303 10.6614L18.7266 10.6616L19.0115 16.5289L19.0153 16.5287L18.7303 10.6614Z" fill="#EBECF6"/>
<path d="M18.7382 10.6614L18.7344 10.6616L19.0193 16.5289L19.0231 16.5287L18.7382 10.6614Z" fill="#EBECF6"/>
<path d="M18.7382 10.6634L18.7344 10.6636L19.0193 16.5308L19.0231 16.5306L18.7382 10.6634Z" fill="#EBECF6"/>
<path d="M18.7421 10.6634L18.7383 10.6636L19.0232 16.5308L19.027 16.5306L18.7421 10.6634Z" fill="#EBECF6"/>
<path d="M18.7421 10.6634L18.7383 10.6636L19.0232 16.5308L19.027 16.5306L18.7421 10.6634Z" fill="#EBECF6"/>
<path d="M18.746 10.6634L18.7422 10.6636L19.0271 16.5308L19.0309 16.5306L18.746 10.6634Z" fill="#EBECF6"/>
<path d="M18.7499 10.6634L18.7461 10.6636L19.031 16.5308L19.0348 16.5306L18.7499 10.6634Z" fill="#EBECF6"/>
<path d="M18.7499 10.6634L18.7461 10.6636L19.031 16.5308L19.0348 16.5306L18.7499 10.6634Z" fill="#EBECF6"/>
<path d="M18.7577 10.6634L18.7539 10.6636L19.0388 16.5308L19.0426 16.5306L18.7577 10.6634Z" fill="#EBECF6"/>
<path d="M18.7596 10.6634L18.7559 10.6636L19.0408 16.5308L19.0445 16.5306L18.7596 10.6634Z" fill="#EBECF6"/>
<path d="M18.7636 10.6634L18.7598 10.6636L19.0447 16.5308L19.0485 16.5306L18.7636 10.6634Z" fill="#EBECF6"/>
<path d="M18.7675 10.6614L18.7637 10.6616L19.0486 16.5289L19.0524 16.5287L18.7675 10.6614Z" fill="#EBECF6"/>
<path d="M18.7694 10.6614L18.7656 10.6616L19.0505 16.5289L19.0543 16.5287L18.7694 10.6614Z" fill="#EBECF6"/>
<path d="M18.7714 10.6585L18.7676 10.6587L19.0525 16.5259L19.0563 16.5258L18.7714 10.6585Z" fill="#EBECF6"/>
<path d="M18.7753 10.6614L18.7715 10.6616L19.0564 16.5289L19.0602 16.5287L18.7753 10.6614Z" fill="#EBECF6"/>
<path d="M18.7811 10.6614L18.7773 10.6616L19.0622 16.5289L19.066 16.5287L18.7811 10.6614Z" fill="#EBECF6"/>
<path d="M18.7811 10.6614L18.7773 10.6616L19.0622 16.5289L19.066 16.5287L18.7811 10.6614Z" fill="#EBECF6"/>
<path d="M18.7831 10.6614L18.7793 10.6616L19.0642 16.5289L19.068 16.5287L18.7831 10.6614Z" fill="#EBECF6"/>
<path d="M19.0674 16.5282L18.7832 10.6616L19.0674 16.5282Z" fill="#EBECF6"/>
<path d="M21.1808 15.9645C21.0235 16.1028 20.7848 16.0895 20.6445 15.9341L19.2802 14.4031L19.4508 16.5007C19.4659 16.7092 19.3124 16.8911 19.1021 16.9081H19.0907C18.8861 16.9195 18.7118 16.766 18.6947 16.5595L18.5677 14.9886L17.5691 17.5164C17.5142 17.6604 17.3796 17.7494 17.2356 17.757C17.1826 17.7589 17.1295 17.7513 17.0784 17.7305C16.8832 17.6547 16.7865 17.433 16.8642 17.2397L18.4294 13.2813L18.3536 12.3301L17.1163 12.8114C17.0765 12.8265 17.0386 12.8341 16.9988 12.836C16.8396 12.8436 16.688 12.7507 16.6274 12.5934C16.5516 12.3983 16.6482 12.1785 16.8453 12.1027L18.293 11.5418L18.2248 10.7005C18.2096 10.492 18.3631 10.3101 18.5734 10.2931C18.7762 10.2741 18.9638 10.4314 18.9808 10.6417L19.0301 11.2557L20.1973 10.8028C20.3925 10.727 20.6123 10.8236 20.6881 11.0207C20.7639 11.2178 20.6673 11.4357 20.4702 11.5115L19.0945 12.0458L19.1836 13.1487L21.2168 15.4282C21.3551 15.5855 21.3419 15.8242 21.1865 15.9645H21.1808Z" fill="#EBECF6"/>
<defs>
<linearGradient id="paint0_linear_196_2595" x1="0" y1="8.78261" x2="13.3647" y2="8.78261" gradientUnits="userSpaceOnUse">
<stop stop-color="#2E3489"/>
<stop offset="0.822917" stop-color="#6B68A7"/>
<stop offset="1" stop-color="#7A75AF"/>
</linearGradient>
<linearGradient id="paint1_linear_196_2595" x1="0" y1="10.9817" x2="3.35964" y2="10.9817" gradientUnits="userSpaceOnUse">
<stop stop-color="#2E3489"/>
<stop offset="0.822917" stop-color="#6B68A7"/>
<stop offset="1" stop-color="#7A75AF"/>
</linearGradient>
<linearGradient id="paint2_linear_196_2595" x1="8.40817" y1="17.6692" x2="8.40817" y2="1.49365" gradientUnits="userSpaceOnUse">
<stop stop-color="#5F559C"/>
<stop offset="1" stop-color="#9E99C5"/>
</linearGradient>
<linearGradient id="paint3_linear_196_2595" x1="17.4426" y1="21.5447" x2="17.4425" y2="3.97949" gradientUnits="userSpaceOnUse">
<stop stop-color="#2E3489"/>
<stop offset="0.671875" stop-color="#6B68A7"/>
<stop offset="1" stop-color="#7A75AF"/>
</linearGradient>
<linearGradient id="paint4_linear_196_2595" x1="10.4219" y1="14.9411" x2="13.8478" y2="14.9411" gradientUnits="userSpaceOnUse">
<stop stop-color="#807DB4"/>
<stop offset="1" stop-color="#B1B1D4"/>
</linearGradient>
<linearGradient id="paint5_linear_196_2595" x1="19.1105" y1="21.6487" x2="19.1105" y2="5.47119" gradientUnits="userSpaceOnUse">
<stop stop-color="#807DB4"/>
<stop offset="1" stop-color="#B1B1D4"/>
</linearGradient>
</defs>
</svg>
