<svg width="64" height="64" viewBox="0 0 64 64" fill="none" xmlns="http://www.w3.org/2000/svg">
<path d="M37.1639 29.0266H6.36438V54.1489H37.1639V29.0266Z" fill="url(#paint0_linear_100_76)"/>
<path d="M35.1835 25.0294H35.1541L35.1395 24.9854L21.7605 25.0074L8.38884 24.9854L8.37417 25.0294H8.34483L6.35706 29.0269H37.1639L35.1835 25.0294Z" fill="url(#paint1_linear_100_76)"/>
<path d="M23.9171 29.0266H19.6115V39.4423H23.9171V29.0266Z" fill="#D8DAEE"/>
<path d="M23.3229 25.0073H23.0442H20.4843H20.2056L19.6115 29.0269H23.9171L23.3229 25.0073Z" fill="#99AFCE"/>
<path d="M35.3668 51.4937H28.2006V52.902H35.3668V51.4937Z" fill="#D8DAEE"/>
<path d="M31.3618 46.6599L30.2175 45.4937L29.0439 46.6599H29.4034V51.0902H31.0097V46.6599H31.3618Z" fill="#D8DAEE"/>
<path d="M34.5086 47.7601L33.6431 46.8799L32.7703 47.7601H33.0343V51.0902H34.2446V47.7601H34.5086Z" fill="#D8DAEE"/>
<path d="M12.379 31.0073H7.45728V31.9462H12.379V31.0073Z" fill="#D8DAEE"/>
<path d="M17.0075 31.0073H13.2446V31.9462H17.0075V31.0073Z" fill="#D8DAEE"/>
<path d="M10.2079 32.9658H7.45728V33.9047H10.2079V32.9658Z" fill="#D8DAEE"/>
<path d="M17.0073 32.9658H14.2567V33.9047H17.0073V32.9658Z" fill="#D8DAEE"/>
<path d="M13.6039 32.9658H10.8533V33.9047H13.6039V32.9658Z" fill="#D8DAEE"/>
<path d="M31.0979 13.3008H12.4231V28.5355H31.0979V13.3008Z" fill="url(#paint2_linear_100_76)"/>
<path d="M29.9024 10.8799H29.8804L29.8731 10.8506L21.7606 10.8653L13.6555 10.8506L13.6482 10.8799H13.6262L12.4232 13.3005H31.1054L29.9024 10.8799Z" fill="url(#paint3_linear_100_76)"/>
<path d="M23.066 13.3008H20.4547V19.6162H23.066V13.3008Z" fill="#D8DAEE"/>
<path d="M22.7065 10.8655H22.5378H20.9828H20.8141L20.4547 13.3007H23.066L22.7065 10.8655Z" fill="#D8DAEE"/>
<path d="M30.0049 26.929H25.6626V27.7871H30.0049V26.929Z" fill="#D8DAEE"/>
<path d="M27.5842 23.9949L26.8874 23.2834L26.1832 23.9949H26.3959V26.6795H27.3715V23.9949H27.5842Z" fill="#D8DAEE"/>
<path d="M29.4913 24.6624L28.9705 24.127L28.4351 24.6624H28.5964V26.6795H29.3299V24.6624H29.4913Z" fill="#D8DAEE"/>
<path d="M16.0755 14.5037H13.0902V15.0758H16.0755V14.5037Z" fill="#D8DAEE"/>
<path d="M18.8775 14.5037H16.5963V15.0758H18.8775V14.5037Z" fill="#D8DAEE"/>
<path d="M14.7552 15.6921H13.0902V16.2643H14.7552V15.6921Z" fill="#D8DAEE"/>
<path d="M18.8776 15.6921H17.2125V16.2643H18.8776V15.6921Z" fill="#D8DAEE"/>
<path d="M16.8164 15.6921H15.1514V16.2643H16.8164V15.6921Z" fill="#D8DAEE"/>
<path d="M57.665 48.3397L44.0953 54.1123L45.8777 39.4717L57.665 48.3397Z" fill="#686868"/>
<path d="M48.1514 44.3351L52.6258 47.7018C59.8727 38.071 57.9289 24.34 48.2908 17.1003C44.7333 14.4231 40.6184 13.0074 36.4815 12.7654L35.3593 18.3253C38.6967 18.362 42.0561 19.4182 44.924 21.582C52.0903 26.9732 53.5353 37.1835 48.1441 44.3497L48.1514 44.3351Z" fill="#686868"/>
<defs>
<linearGradient id="paint0_linear_100_76" x1="6.36438" y1="41.5877" x2="37.1639" y2="41.5877" gradientUnits="userSpaceOnUse">
<stop stop-color="#888BCB"/>
<stop offset="1" stop-color="#383DA9"/>
</linearGradient>
<linearGradient id="paint1_linear_100_76" x1="6.35706" y1="27.0063" x2="37.1639" y2="27.0063" gradientUnits="userSpaceOnUse">
<stop stop-color="#AEB2DC"/>
<stop offset="1" stop-color="#6064BA"/>
</linearGradient>
<linearGradient id="paint2_linear_100_76" x1="12.4231" y1="20.9181" x2="31.0979" y2="20.9181" gradientUnits="userSpaceOnUse">
<stop stop-color="#888BCB"/>
<stop offset="1" stop-color="#383DA9"/>
</linearGradient>
<linearGradient id="paint3_linear_100_76" x1="12.4232" y1="12.0756" x2="31.1054" y2="12.0756" gradientUnits="userSpaceOnUse">
<stop stop-color="#AEB2DC"/>
<stop offset="1" stop-color="#6064BA"/>
</linearGradient>
</defs>
</svg>
