<svg width="64" height="64" viewBox="0 0 64 64" fill="none" xmlns="http://www.w3.org/2000/svg">
<rect x="15.4583" y="14" width="38.6614" height="22.8454" rx="2.96551" transform="rotate(13.8226 15.4583 14)" fill="#686868"/>
<rect x="10" y="22.7866" width="38.6614" height="22.8454" rx="1.977" fill="url(#paint0_linear_100_57)"/>
<path d="M39.2159 37.4677L40.241 38.4928L42.5475 36.1863M44.854 37.724C44.854 40.2399 42.1098 42.0697 41.1113 42.6522C40.9978 42.7184 40.9411 42.7515 40.861 42.7687C40.7989 42.782 40.7082 42.782 40.6461 42.7687C40.566 42.7515 40.5092 42.7184 40.3958 42.6522C39.3973 42.0697 36.6531 40.2399 36.6531 37.724V35.2728C36.6531 34.863 36.6531 34.6581 36.7201 34.4819C36.7793 34.3263 36.8755 34.1875 37.0004 34.0774C37.1418 33.9528 37.3336 33.8809 37.7174 33.737L40.4656 32.7064C40.5721 32.6665 40.6254 32.6465 40.6802 32.6386C40.7288 32.6315 40.7782 32.6315 40.8268 32.6386C40.8816 32.6465 40.9349 32.6665 41.0415 32.7064L43.7897 33.737C44.1734 33.8809 44.3653 33.9528 44.5066 34.0774C44.6315 34.1875 44.7278 34.3263 44.787 34.4819C44.854 34.6581 44.854 34.863 44.854 35.2728V37.724Z" stroke="#D8DAEE" stroke-width="0.988502" stroke-linecap="round" stroke-linejoin="round"/>
<rect x="10" y="26.3013" width="38.6614" height="3.51467" fill="#EEEEEE"/>
<circle cx="16.1507" cy="41.2388" r="2.63601" fill="url(#paint1_linear_100_57)"/>
<circle cx="19.6653" cy="41.2388" r="2.63601" fill="url(#paint2_linear_100_57)"/>
<circle cx="16.1507" cy="41.2388" r="2.63601" fill="url(#paint3_linear_100_57)"/>
<g style="mix-blend-mode:soft-light">
<path fill-rule="evenodd" clip-rule="evenodd" d="M17.908 43.2035C18.4473 42.7208 18.7867 42.0194 18.7867 41.2387C18.7867 40.458 18.4473 39.7565 17.908 39.2738C17.3687 39.7565 17.0293 40.458 17.0293 41.2387C17.0293 42.0194 17.3687 42.7208 17.908 43.2035Z" fill="url(#paint4_linear_100_57)" style="mix-blend-mode:overlay"/>
</g>
<defs>
<linearGradient id="paint0_linear_100_57" x1="10" y1="34.2106" x2="48.6548" y2="34.2106" gradientUnits="userSpaceOnUse">
<stop stop-color="#AEB2DC"/>
<stop offset="1" stop-color="#6064BA"/>
</linearGradient>
<linearGradient id="paint1_linear_100_57" x1="13.5146" y1="41.2388" x2="18.7867" y2="41.2388" gradientUnits="userSpaceOnUse">
<stop stop-color="#888BCB"/>
<stop offset="1" stop-color="#383DA9"/>
</linearGradient>
<linearGradient id="paint2_linear_100_57" x1="17.0293" y1="41.2388" x2="22.3013" y2="41.2388" gradientUnits="userSpaceOnUse">
<stop stop-color="#888BCB"/>
<stop offset="1" stop-color="#383DA9"/>
</linearGradient>
<linearGradient id="paint3_linear_100_57" x1="13.5146" y1="41.2388" x2="18.7867" y2="41.2388" gradientUnits="userSpaceOnUse">
<stop stop-color="#888BCB"/>
<stop offset="1" stop-color="#383DA9"/>
</linearGradient>
<linearGradient id="paint4_linear_100_57" x1="17.0077" y1="40.8813" x2="18.7258" y2="41.0931" gradientUnits="userSpaceOnUse">
<stop stop-color="#56616B"/>
<stop offset="1" stop-color="#313335"/>
</linearGradient>
</defs>
</svg>
