<svg width="64" height="64" viewBox="0 0 64 64" fill="none" xmlns="http://www.w3.org/2000/svg">
<path d="M32 10L33.8573 13.7253L37.9744 14.3405L35.0051 17.2583L35.6923 21.3641L32 19.4416L28.3077 21.3641L28.9949 17.2583L26.0256 14.3405L30.1427 13.7253L32 10Z" fill="url(#paint0_linear_239_112)"/>
<path d="M21.1689 16.7529L22.491 19.4047L25.4217 19.8425L23.3081 21.9194L23.7972 24.8419L21.1689 23.4735L18.5407 24.8419L19.0298 21.9194L16.9163 19.8425L19.847 19.4047L21.1689 16.7529Z" fill="#686868"/>
<path d="M16.2963 25.5L17.321 27.5556L19.5928 27.8951L17.9544 29.5047L18.3335 31.7701L16.2963 30.7096L14.2591 31.7701L14.6382 29.5047L13 27.8951L15.2716 27.5556L16.2963 25.5Z" fill="url(#paint1_linear_239_112)"/>
<path d="M42.8312 16.7529L41.5091 19.4047L38.5784 19.8425L40.6919 21.9194L40.2028 24.8419L42.8312 23.4735L45.4593 24.8419L44.9702 21.9194L47.0838 19.8425L44.1531 19.4047L42.8312 16.7529Z" fill="#686868"/>
<path d="M47.7037 25.5L46.679 27.5556L44.4072 27.8951L46.0456 29.5047L45.6665 31.7701L47.7037 30.7096L49.7409 31.7701L49.3618 29.5047L51 27.8951L48.7284 27.5556L47.7037 25.5Z" fill="url(#paint2_linear_239_112)"/>
<path d="M37.5158 41.0649L41.7069 51.3884L36.9924 50.401L37.0089 50.3944L34.3167 54.3886L30.1256 44.0653L37.5158 41.0649Z" fill="#686868"/>
<g filter="url(#filter0_d_239_112)">
<path d="M33.9765 44.1471L29.6403 54.4104L27.0047 50.3786L27.021 50.3855L22.2932 51.3062L26.6292 41.043L33.9765 44.1471Z" fill="#686868"/>
</g>
<path d="M43.3186 33.9539C43.3186 34.5384 42.605 35.0603 42.5169 35.6201C42.4266 36.195 42.9432 36.9107 42.7673 37.4523C42.5883 38.0034 41.7482 38.2789 41.4883 38.788C41.2256 39.3024 41.4947 40.1437 41.1575 40.6073C40.8185 41.073 39.9346 41.0758 39.5283 41.4822C39.122 41.8885 39.1192 42.7725 38.6535 43.1113C38.1899 43.4486 37.3485 43.1797 36.8341 43.4422C36.3197 43.7046 36.0495 44.5421 35.4985 44.7212C34.9569 44.897 34.2411 44.3805 33.6663 44.4707C33.1064 44.5587 32.5845 45.2725 32 45.2725C31.4155 45.2725 30.8936 44.5589 30.3337 44.4707C29.7589 44.3805 29.0431 44.897 28.5015 44.7212C27.9505 44.5421 27.6749 43.702 27.1659 43.4422C26.6515 43.1795 25.8101 43.4486 25.3465 43.1113C24.8808 42.7723 24.878 41.8885 24.4717 41.4822C24.0654 41.0758 23.1813 41.073 22.8425 40.6073C22.5038 40.1416 22.7741 39.3024 22.5117 38.788C22.2518 38.2789 21.4117 38.0034 21.2327 37.4523C21.0568 36.9107 21.5734 36.195 21.4831 35.6201C21.3952 35.0603 20.6814 34.5384 20.6814 33.9539C20.6814 33.3693 21.395 32.8474 21.4831 32.2876C21.5734 31.7127 21.0568 30.997 21.2327 30.4554C21.4117 29.9043 22.2518 29.6288 22.5117 29.1198C22.7744 28.6054 22.5053 27.764 22.8425 27.3004C23.1815 26.8347 24.0654 26.8319 24.4717 26.4256C24.878 26.0192 24.8808 25.1352 25.3465 24.7964C25.8101 24.4591 26.6515 24.728 27.1659 24.4655C27.6749 24.2057 27.9505 23.3656 28.5015 23.1865C29.0526 23.0075 29.7589 23.5272 30.3337 23.437C30.8936 23.3491 31.4155 22.6353 32 22.6353C32.5845 22.6353 33.1064 23.3488 33.6663 23.437C34.2411 23.5272 34.9569 23.0107 35.4985 23.1865C36.0495 23.3656 36.3251 24.2057 36.8341 24.4655C37.3485 24.7282 38.1899 24.4591 38.6535 24.7964C39.1192 25.1354 39.122 26.0192 39.5283 26.4256C39.9346 26.8319 40.8187 26.8347 41.1575 27.3004C41.4947 27.764 41.2259 28.6054 41.4883 29.1198C41.7482 29.6288 42.5883 29.9043 42.7673 30.4554C42.9432 30.997 42.4266 31.7127 42.5169 32.2876C42.6048 32.8474 43.3186 33.3693 43.3186 33.9539Z" fill="url(#paint3_linear_239_112)"/>
<path d="M32 42.4073C36.6688 42.4073 40.4536 38.6225 40.4536 33.9538C40.4536 29.285 36.6688 25.5002 32 25.5002C27.3313 25.5002 23.5465 29.285 23.5465 33.9538C23.5465 38.6225 27.3313 42.4073 32 42.4073Z" fill="white"/>
<path d="M32.0001 41.6115C36.2294 41.6115 39.6579 38.183 39.6579 33.9537C39.6579 29.7244 36.2294 26.2959 32.0001 26.2959C27.7708 26.2959 24.3423 29.7244 24.3423 33.9537C24.3423 38.183 27.7708 41.6115 32.0001 41.6115Z" fill="url(#paint4_linear_239_112)"/>
<path d="M36.7851 30.853L31.1748 37.8729L30.5755 38.6227L29.8124 37.9822L27.2151 35.8022L28.9013 34.116L30.3533 35.8457L34.6117 29.2849L36.7851 30.853Z" fill="white"/>
<defs>
<filter id="filter0_d_239_112" x="20.0198" y="39.3379" width="16.2301" height="17.9142" filterUnits="userSpaceOnUse" color-interpolation-filters="sRGB">
<feFlood flood-opacity="0" result="BackgroundImageFix"/>
<feColorMatrix in="SourceAlpha" type="matrix" values="0 0 0 0 0 0 0 0 0 0 0 0 0 0 0 0 0 0 127 0" result="hardAlpha"/>
<feOffset dy="0.568343"/>
<feGaussianBlur stdDeviation="1.13669"/>
<feComposite in2="hardAlpha" operator="out"/>
<feColorMatrix type="matrix" values="0 0 0 0 0 0 0 0 0 0 0 0 0 0 0 0 0 0 0.25 0"/>
<feBlend mode="normal" in2="BackgroundImageFix" result="effect1_dropShadow_239_112"/>
<feBlend mode="normal" in="SourceGraphic" in2="effect1_dropShadow_239_112" result="shape"/>
</filter>
<linearGradient id="paint0_linear_239_112" x1="26.0256" y1="15.682" x2="37.9744" y2="15.682" gradientUnits="userSpaceOnUse">
<stop stop-color="#888BCB"/>
<stop offset="1" stop-color="#383DA9"/>
</linearGradient>
<linearGradient id="paint1_linear_239_112" x1="13" y1="28.635" x2="19.5928" y2="28.635" gradientUnits="userSpaceOnUse">
<stop stop-color="#888BCB"/>
<stop offset="1" stop-color="#383DA9"/>
</linearGradient>
<linearGradient id="paint2_linear_239_112" x1="44.4072" y1="28.635" x2="51" y2="28.635" gradientUnits="userSpaceOnUse">
<stop stop-color="#888BCB"/>
<stop offset="1" stop-color="#383DA9"/>
</linearGradient>
<linearGradient id="paint3_linear_239_112" x1="20.6814" y1="33.9538" x2="43.3186" y2="33.9538" gradientUnits="userSpaceOnUse">
<stop stop-color="#888BCB"/>
<stop offset="1" stop-color="#383DA9"/>
</linearGradient>
<linearGradient id="paint4_linear_239_112" x1="24.3423" y1="33.9537" x2="39.6579" y2="33.9537" gradientUnits="userSpaceOnUse">
<stop stop-color="#888BCB"/>
<stop offset="1" stop-color="#383DA9"/>
</linearGradient>
</defs>
</svg>
