<svg width="64" height="64" viewBox="0 0 64 64" fill="none" xmlns="http://www.w3.org/2000/svg">
<path d="M47.8095 51.0386L41.6237 49.1342L38.2265 54.6398L30.0786 32.9575L39.6616 29.3562L47.8095 51.0386Z" fill="#686868"/>
<path d="M17.5338 51.0386L23.7161 49.1342L27.1134 54.6398L35.2613 32.9575L25.6817 29.3562L17.5338 51.0386Z" fill="#686868"/>
<path d="M47.8093 25.7751C47.8093 26.2716 47.0408 26.7273 46.9932 27.2136C46.9456 27.7067 47.6121 28.3018 47.5169 28.7813C47.4217 29.2676 46.5783 29.5634 46.4355 30.0327C46.2926 30.5054 46.8299 31.2229 46.6395 31.6752C46.4491 32.1309 45.5649 32.2567 45.3337 32.6886C45.099 33.1239 45.4867 33.9298 45.2146 34.3379C44.9392 34.746 44.0482 34.6984 43.7354 35.0758C43.4225 35.4567 43.6436 36.3239 43.2967 36.6707C42.9498 37.0176 42.0827 36.7966 41.7018 37.1094C41.3209 37.4223 41.3719 38.3132 40.9605 38.5887C40.5524 38.8607 39.7464 38.4765 39.3112 38.7077C38.8793 38.939 38.7535 39.8265 38.2978 40.0135C37.8455 40.2006 37.1314 39.6633 36.6553 39.8095C36.186 39.9523 35.8901 40.7957 35.4039 40.8909C34.9244 40.9861 34.3293 40.3196 33.8362 40.3672C33.3499 40.4148 32.8942 41.1834 32.3977 41.1834C31.9012 41.1834 31.4455 40.4148 30.9592 40.3672C30.4661 40.3196 29.8676 40.9861 29.3916 40.8909C28.9053 40.7957 28.6094 39.9523 28.1401 39.8095C27.6674 39.6667 26.9499 40.204 26.4976 40.0135C26.0419 39.8231 25.9161 38.939 25.4842 38.7077C25.049 38.4731 24.243 38.8607 23.8349 38.5887C23.4269 38.3132 23.4745 37.4223 23.0936 37.1094C22.7127 36.7966 21.8456 37.0176 21.4987 36.6707C21.1518 36.3205 21.3729 35.4567 21.06 35.0758C20.7472 34.695 19.8562 34.746 19.5808 34.3345C19.3087 33.9264 19.693 33.1205 19.4617 32.6852C19.2305 32.2533 18.3463 32.1275 18.1559 31.6718C17.9689 31.2195 18.5062 30.5054 18.3599 30.0327C18.2171 29.5634 17.3738 29.2676 17.2785 28.7813C17.1833 28.3018 17.8498 27.7067 17.8022 27.2136C17.7546 26.7273 16.9861 26.2716 16.9861 25.7751C16.9861 25.2787 17.7546 24.823 17.8022 24.3367C17.8498 23.8436 17.1833 23.2485 17.2785 22.769C17.3738 22.2827 18.2171 21.9869 18.3599 21.5176C18.5028 21.0449 17.9655 20.3273 18.1559 19.8751C18.3463 19.4194 19.2305 19.2936 19.4617 18.8617C19.6964 18.4264 19.3087 17.6205 19.5808 17.2124C19.8562 16.8009 20.7472 16.8519 21.06 16.471C21.3729 16.0902 21.1518 15.2264 21.4987 14.8762C21.8456 14.5293 22.7127 14.7503 23.0936 14.4375C23.4745 14.1246 23.4235 13.2337 23.8315 12.9582C24.2396 12.6862 25.0456 13.0704 25.4808 12.8392C25.9127 12.6079 26.0385 11.7204 26.4942 11.5333C26.9465 11.3463 27.6606 11.8836 28.1367 11.7374C28.606 11.5946 28.9019 10.7512 29.3882 10.656C29.8676 10.5608 30.4627 11.2273 30.9558 11.1797C31.4421 11.1321 31.8978 10.3635 32.3943 10.3635C32.8908 10.3635 33.3465 11.1321 33.8328 11.1797C34.3259 11.2273 34.9244 10.5608 35.4005 10.656C35.8867 10.7512 36.1826 11.5946 36.6519 11.7374C37.1246 11.8802 37.8421 11.3463 38.2944 11.5333C38.7501 11.7238 38.8759 12.6079 39.3078 12.8392C39.743 13.0704 40.549 12.6862 40.9571 12.9582C41.3651 13.2337 41.3175 14.1246 41.6984 14.4375C42.0793 14.7503 42.943 14.5293 43.2933 14.8762C43.6402 15.223 43.4191 16.0902 43.732 16.471C44.0448 16.8519 44.9358 16.8009 45.2112 17.2124C45.4833 17.6205 45.099 18.4264 45.3303 18.8617C45.5615 19.2936 46.4491 19.4194 46.6361 19.8751C46.8231 20.3273 46.2892 21.0415 46.4321 21.5176C46.5749 21.9869 47.4182 22.2827 47.5135 22.769C47.6087 23.2485 46.9422 23.8436 46.9898 24.3367C47.0374 24.823 47.8059 25.2787 47.8059 25.7751H47.8093Z" fill="url(#paint0_linear_100_63)"/>
<path d="M32.3944 12.9106C25.2905 12.9106 19.5332 18.6679 19.5332 25.7718C19.5332 32.8757 25.2905 38.6329 32.3944 38.6329C39.4983 38.6329 45.2555 32.8757 45.2555 25.7718C45.2555 18.6679 39.4983 12.9106 32.3944 12.9106ZM32.3944 34.9739C27.3138 34.9739 23.1923 30.8523 23.1923 25.7718C23.1923 20.6913 27.3104 16.5697 32.3944 16.5697C37.4783 16.5697 41.5964 20.6913 41.5964 25.7718C41.5964 30.8523 37.4749 34.9739 32.3944 34.9739Z" fill="#EEEEEE"/>
<defs>
<linearGradient id="paint0_linear_100_63" x1="16.9861" y1="25.7733" x2="47.8093" y2="25.7733" gradientUnits="userSpaceOnUse">
<stop stop-color="#888BCB"/>
<stop offset="1" stop-color="#383DA9"/>
</linearGradient>
</defs>
</svg>
