<svg width="24" height="24" viewBox="0 0 24 24" fill="none" xmlns="http://www.w3.org/2000/svg">
<path d="M15.244 12.9743L15.432 13.0253L15.244 12.9743Z" fill="url(#paint0_linear_115_343)"/>
<path d="M9.90701 8.17181C9.90701 6.40554 11.1588 4.25871 12.7029 3.37488L14.1747 2.5338C14.907 2.11464 15.5698 2.06914 16.0571 2.33111L14.0633 1.17842C13.5731 0.898516 12.8965 0.938502 12.1487 1.36594L10.6756 2.2084C9.13146 3.09085 7.87971 5.23767 7.87971 7.00532C7.87971 7.00532 8.19021 9.43757 8.39628 9.3507L10.3679 10.4869C10.166 10.207 9.90701 8.17319 9.90701 8.17319V8.17181Z" fill="url(#paint1_linear_115_343)"/>
<path d="M11.5779 14.6027L10.8371 15.6506L10.8357 15.6533L10.8385 15.6519L11.5779 14.6027Z" fill="url(#paint2_linear_115_343)"/>
<path d="M14.6931 12.823L14.6912 12.8212V12.823H14.6931Z" fill="url(#paint3_linear_115_343)"/>
<path d="M10.4208 10.5172H10.4224V10.5219V10.5172H10.4208Z" fill="url(#paint4_linear_115_343)"/>
<path d="M16.1654 2.39317L16.124 2.36835C16.1378 2.37662 16.1502 2.38627 16.164 2.39592V2.39317H16.1654Z" fill="url(#paint5_linear_115_343)"/>
<path d="M7.76971 19.8091C7.76971 18.9694 8.24173 17.9546 8.93931 17.2927L10.8357 15.6533V15.6506L9.0688 14.6413L7.16821 16.2834C6.47062 16.9439 6 17.9601 6 18.7998V20.9894L7.76971 21.9987V19.8091Z" fill="url(#paint6_linear_115_343)"/>
<path d="M14.6912 12.8226V12.8212L14.6049 12.4048C14.4169 12.5937 14.2206 12.7661 14.0145 12.915C14.0104 12.9177 14.0062 12.9219 14.0006 12.9246C13.9519 12.9605 13.9017 12.9936 13.8516 13.0267C13.8433 13.0322 13.8363 13.0377 13.828 13.0432C13.7709 13.0804 13.7124 13.1163 13.6539 13.1494L13.1318 13.4486C12.6625 13.7175 12.2211 13.8319 11.8369 13.8126C11.7477 13.8085 11.6628 13.7947 11.5793 13.7754V14.6027L13.1359 15.0921L14.6926 12.8226H14.6912Z" fill="url(#paint7_linear_115_343)"/>
<path d="M9.65082 19.1059C9.55196 19.1624 9.47398 19.2962 9.47398 19.4092V21.0252L9.82765 20.8239V19.2079C9.82765 19.0949 9.74828 19.0507 9.65082 19.1073V19.1059Z" fill="url(#paint8_linear_115_343)"/>
<path d="M16.6197 15.1211C16.5222 15.1762 16.4428 15.3114 16.4428 15.4244V17.0404L16.7965 16.8391V15.2231C16.7965 15.1101 16.7185 15.0659 16.6197 15.1225V15.1211Z" fill="url(#paint9_linear_115_343)"/>
<path d="M18.5008 13.6747C18.5008 13.1797 18.3365 12.8129 18.0594 12.6212L16.7297 12.8253L15.432 13.0252L14.0535 15.4713L13.5662 15.27L13.5035 15.9442L13.7221 18.5943L16.4415 17.039V15.423C16.4415 15.31 16.5208 15.1762 16.6183 15.1197C16.7171 15.0631 16.7951 15.1073 16.7951 15.2203V16.8363L18.0622 16.1124L18.5008 15.8615V13.6719V13.6747Z" fill="url(#paint10_linear_115_343)"/>
<path d="M17.9424 12.5537L18.0552 12.6185C18.019 12.5937 17.9814 12.5716 17.9424 12.5537Z" fill="url(#paint11_linear_115_343)"/>
<path d="M12.7656 16.3676L12.7029 15.765L12.2156 16.5234L10.8371 15.6533H10.8357L8.93932 17.2941C8.24173 17.956 7.76972 18.9708 7.76972 19.8105V22L8.20692 21.7505L9.4726 21.0266V19.4106C9.4726 19.2975 9.55057 19.1638 9.64943 19.1073C9.7469 19.0521 9.82626 19.0949 9.82626 19.2079V20.8239L12.5456 19.2686L12.7642 16.3689L12.7656 16.3676Z" fill="url(#paint12_linear_115_343)"/>
<path d="M13.1345 15.0921L11.5779 14.6027L10.8385 15.6519L12.217 16.522L12.7029 15.7636L13.1345 15.0921Z" fill="#DAD9D8"/>
<path d="M15.244 12.9742L14.6926 12.8239V12.8226H14.6912L13.1345 15.0921L13.5662 15.27L14.0535 15.4713L15.432 13.0253L15.244 12.9742Z" fill="#DAD9D8"/>
<path d="M13.1345 15.0921L12.7029 15.7636L12.7656 16.3675L13.5049 15.9442L13.5662 15.27L13.1345 15.0921Z" fill="url(#paint13_linear_115_343)"/>
<path d="M13.5049 15.9442L12.7656 16.3675L12.547 19.2672L13.7221 18.5943L13.5049 15.9442Z" fill="url(#paint14_linear_115_343)"/>
<path d="M11.5779 14.6027L9.80954 13.5934L9.0688 14.6413L10.8371 15.6506L11.5779 14.6027Z" fill="#B2B2B2"/>
<path d="M11.5779 13.7739C10.8803 13.6126 10.4222 12.948 10.4222 11.8987V10.5158C10.4055 10.5227 10.3874 10.5103 10.3693 10.4855L8.39768 9.3493V10.7323C8.39768 11.5623 8.68312 12.1525 9.14817 12.4406C9.17881 12.4613 9.21083 12.4792 9.24425 12.4958L9.81095 12.8212V13.5933L11.5793 14.6026V13.7753L11.5779 13.7739Z" fill="url(#paint15_linear_115_343)"/>
<path d="M14.6049 12.4048L14.6912 12.8212V12.824L15.2426 12.9743L15.432 13.0253L16.7297 12.8253L18.0594 12.6213L18.0552 12.6185L17.9424 12.5537L16.2716 11.5968C16.0822 11.4741 15.8385 11.4286 15.5615 11.4837L15.3094 11.5541C15.198 11.7168 15.0811 11.8726 14.9572 12.0215C14.8458 12.1552 14.7274 12.2821 14.6063 12.4034L14.6049 12.4048Z" fill="url(#paint16_linear_115_343)"/>
<path d="M14.176 2.53383L12.7043 3.37491C11.1602 4.25735 9.90841 6.40556 9.90841 8.17183C9.90841 8.17183 10.1674 10.2056 10.3693 10.4855C10.3874 10.5103 10.4055 10.5227 10.4222 10.5158V7.9264C12.2852 5.52863 14.1315 7.14185 16.3607 4.70823L16.3649 7.12117L16.8828 4.08224C16.8828 3.2715 16.6085 2.69239 16.1616 2.39594C16.1477 2.38767 16.1351 2.37664 16.1212 2.36837C16.1003 2.35458 16.078 2.34217 16.0558 2.33114C15.5684 2.07054 14.9057 2.11604 14.1733 2.53383H14.176Z" fill="url(#paint17_linear_115_343)"/>
<path d="M10.4222 7.92639V10.5158V10.52V11.8988C10.4222 12.9481 10.8789 13.6127 11.5779 13.774C11.6614 13.7933 11.7464 13.8071 11.8355 13.8112C12.2198 13.8319 12.6611 13.7161 13.1304 13.4472L13.6525 13.148C13.711 13.1149 13.7695 13.0791 13.8266 13.0418C13.8349 13.0363 13.8419 13.0308 13.8502 13.0253C13.9004 12.9922 13.9505 12.9591 13.9992 12.9232C14.0034 12.9205 14.0076 12.9164 14.0131 12.9136C14.2178 12.7647 14.4155 12.5923 14.6035 12.4034C14.7246 12.2821 14.843 12.1566 14.9544 12.0215C15.0783 11.8726 15.1953 11.7154 15.3067 11.5541C15.9472 10.622 16.3593 9.50101 16.3593 8.50412V4.70959C14.1287 7.14322 12.2824 5.52862 10.4208 7.92777L10.4222 7.92639Z" fill="url(#paint18_linear_115_343)"/>
<defs>
<linearGradient id="paint0_linear_115_343" x1="15.244" y1="12.9998" x2="15.432" y2="12.9998" gradientUnits="userSpaceOnUse">
<stop stop-color="#807DB4"/>
<stop offset="1" stop-color="#B1B1D4"/>
</linearGradient>
<linearGradient id="paint1_linear_115_343" x1="7.87971" y1="5.74344" x2="16.0571" y2="5.74344" gradientUnits="userSpaceOnUse">
<stop stop-color="#2E3489"/>
<stop offset="0.822917" stop-color="#6B68A7"/>
<stop offset="1" stop-color="#7A75AF"/>
</linearGradient>
<linearGradient id="paint2_linear_115_343" x1="10.8357" y1="15.128" x2="11.5779" y2="15.128" gradientUnits="userSpaceOnUse">
<stop stop-color="#807DB4"/>
<stop offset="1" stop-color="#B1B1D4"/>
</linearGradient>
<linearGradient id="paint3_linear_115_343" x1="14.6912" y1="12.8221" x2="14.6931" y2="12.8221" gradientUnits="userSpaceOnUse">
<stop stop-color="#807DB4"/>
<stop offset="1" stop-color="#B1B1D4"/>
</linearGradient>
<linearGradient id="paint4_linear_115_343" x1="10.4208" y1="10.5195" x2="10.4224" y2="10.5195" gradientUnits="userSpaceOnUse">
<stop stop-color="#807DB4"/>
<stop offset="1" stop-color="#B1B1D4"/>
</linearGradient>
<linearGradient id="paint5_linear_115_343" x1="16.124" y1="2.38214" x2="16.1654" y2="2.38214" gradientUnits="userSpaceOnUse">
<stop stop-color="#807DB4"/>
<stop offset="1" stop-color="#B1B1D4"/>
</linearGradient>
<linearGradient id="paint6_linear_115_343" x1="6" y1="18.32" x2="10.8357" y2="18.32" gradientUnits="userSpaceOnUse">
<stop stop-color="#807DB4"/>
<stop offset="1" stop-color="#B1B1D4"/>
</linearGradient>
<linearGradient id="paint7_linear_115_343" x1="11.5793" y1="13.7485" x2="14.6926" y2="13.7485" gradientUnits="userSpaceOnUse">
<stop stop-color="#807DB4"/>
<stop offset="1" stop-color="#B1B1D4"/>
</linearGradient>
<linearGradient id="paint8_linear_115_343" x1="9.47398" y1="20.054" x2="9.82765" y2="20.054" gradientUnits="userSpaceOnUse">
<stop stop-color="#807DB4"/>
<stop offset="1" stop-color="#B1B1D4"/>
</linearGradient>
<linearGradient id="paint9_linear_115_343" x1="16.4428" y1="16.0692" x2="16.7965" y2="16.0692" gradientUnits="userSpaceOnUse">
<stop stop-color="#807DB4"/>
<stop offset="1" stop-color="#B1B1D4"/>
</linearGradient>
<linearGradient id="paint10_linear_115_343" x1="13.5035" y1="15.6058" x2="18.5008" y2="15.6058" gradientUnits="userSpaceOnUse">
<stop stop-color="#9E99C5"/>
<stop offset="1" stop-color="#BDB9D9"/>
</linearGradient>
<linearGradient id="paint11_linear_115_343" x1="17.9424" y1="12.5861" x2="18.0552" y2="12.5861" gradientUnits="userSpaceOnUse">
<stop stop-color="#9E99C5"/>
<stop offset="1" stop-color="#BDB9D9"/>
</linearGradient>
<linearGradient id="paint12_linear_115_343" x1="7.76972" y1="18.8246" x2="12.7656" y2="18.8246" gradientUnits="userSpaceOnUse">
<stop stop-color="#9E99C5"/>
<stop offset="1" stop-color="#BDB9D9"/>
</linearGradient>
<linearGradient id="paint13_linear_115_343" x1="12.7029" y1="15.7298" x2="13.5662" y2="15.7298" gradientUnits="userSpaceOnUse">
<stop stop-color="#2E3489"/>
<stop offset="0.822917" stop-color="#6B68A7"/>
<stop offset="1" stop-color="#7A75AF"/>
</linearGradient>
<linearGradient id="paint14_linear_115_343" x1="12.547" y1="17.6057" x2="13.7221" y2="17.6057" gradientUnits="userSpaceOnUse">
<stop stop-color="#2E3489"/>
<stop offset="0.822917" stop-color="#6B68A7"/>
<stop offset="1" stop-color="#7A75AF"/>
</linearGradient>
<linearGradient id="paint15_linear_115_343" x1="8.39768" y1="11.976" x2="11.5793" y2="11.976" gradientUnits="userSpaceOnUse">
<stop stop-color="#807DB4"/>
<stop offset="1" stop-color="#B1B1D4"/>
</linearGradient>
<linearGradient id="paint16_linear_115_343" x1="14.6049" y1="12.2429" x2="18.0594" y2="12.2429" gradientUnits="userSpaceOnUse">
<stop stop-color="#807DB4"/>
<stop offset="1" stop-color="#B1B1D4"/>
</linearGradient>
<linearGradient id="paint17_linear_115_343" x1="9.90841" y1="6.34362" x2="16.8828" y2="6.34362" gradientUnits="userSpaceOnUse">
<stop stop-color="#5F559C"/>
<stop offset="1" stop-color="#9E99C5"/>
</linearGradient>
<linearGradient id="paint18_linear_115_343" x1="10.4208" y1="9.25861" x2="16.3593" y2="9.25861" gradientUnits="userSpaceOnUse">
<stop stop-color="#9E99C5"/>
<stop offset="1" stop-color="#BDB9D9"/>
</linearGradient>
</defs>
</svg>
